%TF.GenerationSoftware,KiCad,Pcbnew,7.0.10*%
%TF.CreationDate,2024-04-29T20:55:19+02:00*%
%TF.ProjectId,Mathboard,4d617468-626f-4617-9264-2e6b69636164,rev?*%
%TF.SameCoordinates,Original*%
%TF.FileFunction,Paste,Bot*%
%TF.FilePolarity,Positive*%
%FSLAX46Y46*%
G04 Gerber Fmt 4.6, Leading zero omitted, Abs format (unit mm)*
G04 Created by KiCad (PCBNEW 7.0.10) date 2024-04-29 20:55:19*
%MOMM*%
%LPD*%
G01*
G04 APERTURE LIST*
G04 Aperture macros list*
%AMRoundRect*
0 Rectangle with rounded corners*
0 $1 Rounding radius*
0 $2 $3 $4 $5 $6 $7 $8 $9 X,Y pos of 4 corners*
0 Add a 4 corners polygon primitive as box body*
4,1,4,$2,$3,$4,$5,$6,$7,$8,$9,$2,$3,0*
0 Add four circle primitives for the rounded corners*
1,1,$1+$1,$2,$3*
1,1,$1+$1,$4,$5*
1,1,$1+$1,$6,$7*
1,1,$1+$1,$8,$9*
0 Add four rect primitives between the rounded corners*
20,1,$1+$1,$2,$3,$4,$5,0*
20,1,$1+$1,$4,$5,$6,$7,0*
20,1,$1+$1,$6,$7,$8,$9,0*
20,1,$1+$1,$8,$9,$2,$3,0*%
G04 Aperture macros list end*
%ADD10RoundRect,0.225000X0.225000X0.375000X-0.225000X0.375000X-0.225000X-0.375000X0.225000X-0.375000X0*%
%ADD11RoundRect,0.225000X0.375000X-0.225000X0.375000X0.225000X-0.375000X0.225000X-0.375000X-0.225000X0*%
%ADD12RoundRect,0.225000X-0.375000X0.225000X-0.375000X-0.225000X0.375000X-0.225000X0.375000X0.225000X0*%
%ADD13RoundRect,0.225000X-0.225000X-0.375000X0.225000X-0.375000X0.225000X0.375000X-0.225000X0.375000X0*%
%ADD14RoundRect,0.225000X0.225000X0.250000X-0.225000X0.250000X-0.225000X-0.250000X0.225000X-0.250000X0*%
%ADD15R,0.406400X1.499997*%
%ADD16R,0.990600X0.812800*%
%ADD17R,1.700000X0.820000*%
%ADD18RoundRect,0.205000X0.645000X0.205000X-0.645000X0.205000X-0.645000X-0.205000X0.645000X-0.205000X0*%
G04 APERTURE END LIST*
D10*
%TO.C,D10*%
X93950000Y-84000000D03*
X90650000Y-84000000D03*
%TD*%
D11*
%TO.C,D16*%
X171300000Y-106650000D03*
X171300000Y-103350000D03*
%TD*%
D12*
%TO.C,D2*%
X109300000Y-47500000D03*
X109300000Y-50800000D03*
%TD*%
%TO.C,D7*%
X117300000Y-66500000D03*
X117300000Y-69800000D03*
%TD*%
%TO.C,D12*%
X125300000Y-85500000D03*
X125300000Y-88800000D03*
%TD*%
%TO.C,D1*%
X90300000Y-47500000D03*
X90300000Y-50800000D03*
%TD*%
D13*
%TO.C,D5*%
X160850000Y-46600000D03*
X164150000Y-46600000D03*
%TD*%
D12*
%TO.C,D9*%
X155300000Y-66350000D03*
X155300000Y-69650000D03*
%TD*%
%TO.C,D3*%
X128300000Y-47500000D03*
X128300000Y-50800000D03*
%TD*%
%TO.C,D11*%
X106300000Y-85500000D03*
X106300000Y-88800000D03*
%TD*%
D14*
%TO.C,C1*%
X94882000Y-105410000D03*
X93332000Y-105410000D03*
%TD*%
D12*
%TO.C,D8*%
X136300000Y-66500000D03*
X136300000Y-69800000D03*
%TD*%
D11*
%TO.C,D15*%
X142550000Y-106650000D03*
X142550000Y-103350000D03*
%TD*%
D12*
%TO.C,D13*%
X144300000Y-85500000D03*
X144300000Y-88800000D03*
%TD*%
%TO.C,D6*%
X98300000Y-66500000D03*
X98300000Y-69800000D03*
%TD*%
%TO.C,D4*%
X161300000Y-49850000D03*
X161300000Y-53150000D03*
%TD*%
%TO.C,D14*%
X163300000Y-85500000D03*
X163300000Y-88800000D03*
%TD*%
D15*
%TO.C,SW17*%
X130299999Y-45648000D03*
X131799999Y-45648000D03*
X134800001Y-45648000D03*
X136300000Y-45648000D03*
D16*
X128150000Y-44869500D03*
X128150000Y-42926500D03*
X138450000Y-44869500D03*
X138450000Y-42926500D03*
%TD*%
D17*
%TO.C,U2*%
X94850000Y-108750000D03*
X94850000Y-107250000D03*
D18*
X89750000Y-107250000D03*
D17*
X89750000Y-108750000D03*
%TD*%
M02*
