%TF.GenerationSoftware,KiCad,Pcbnew,8.0.4*%
%TF.CreationDate,2024-10-01T15:20:18+01:00*%
%TF.ProjectId,Mathboard,4d617468-626f-4617-9264-2e6b69636164,rev?*%
%TF.SameCoordinates,PX501bd00PY28b8ce0*%
%TF.FileFunction,Drillmap*%
%TF.FilePolarity,Positive*%
%FSLAX45Y45*%
G04 Gerber Fmt 4.5, Leading zero omitted, Abs format (unit mm)*
G04 Created by KiCad (PCBNEW 8.0.4) date 2024-10-01 15:20:18*
%MOMM*%
%LPD*%
G01*
G04 APERTURE LIST*
%ADD10C,0.100000*%
%ADD11C,0.120000*%
%ADD12C,0.200000*%
%ADD13C,0.270000*%
%ADD14C,0.525000*%
G04 APERTURE END LIST*
D10*
X29289Y-6619289D02*
G75*
G02*
X1Y-6548579I70711J70709D01*
G01*
X9560000Y-6548579D02*
G75*
G02*
X9530711Y-6619290I-100000J-1D01*
G01*
X9530711Y-6619289D02*
X8819289Y-7330711D01*
X4540000Y0D02*
X9460000Y0D01*
X4540000Y0D02*
X4540000Y-570000D01*
X8748579Y-7360000D02*
X811421Y-7360000D01*
X811421Y-7360000D02*
G75*
G02*
X740712Y-7330709I-1J99990D01*
G01*
X740711Y-7330711D02*
X29289Y-6619289D01*
X9560000Y-100000D02*
X9560000Y-6548579D01*
X0Y-100000D02*
G75*
G02*
X100000Y0I100000J0D01*
G01*
X3600000Y0D02*
X100000Y0D01*
X4540000Y-570000D02*
X3600000Y-570000D01*
X0Y-6548579D02*
X0Y-100000D01*
X8819289Y-7330711D02*
G75*
G02*
X8748579Y-7359999I-70709J70711D01*
G01*
X3600000Y-570000D02*
X3600000Y0D01*
X9460000Y0D02*
G75*
G02*
X9560000Y-100000I0J-100000D01*
G01*
D11*
X8380000Y-120000D02*
X8720000Y-120000D01*
X8380000Y-420000D02*
X8380000Y-120000D01*
X8720000Y-120000D02*
X8720000Y-420000D01*
X8720000Y-420000D02*
X8380000Y-420000D01*
D12*
D10*
X5567500Y-137030D02*
X5652500Y-222030D01*
X5652500Y-137030D02*
X5567500Y-222030D01*
X6067500Y-137030D02*
X6152500Y-222030D01*
X6152500Y-137030D02*
X6067500Y-222030D01*
D13*
X535000Y-2130000D02*
G75*
G02*
X265000Y-2130000I-135000J0D01*
G01*
X265000Y-2130000D02*
G75*
G02*
X535000Y-2130000I135000J0D01*
G01*
X3425000Y-6960000D02*
G75*
G02*
X3155000Y-6960000I-135000J0D01*
G01*
X3155000Y-6960000D02*
G75*
G02*
X3425000Y-6960000I135000J0D01*
G01*
X9295000Y-2130000D02*
G75*
G02*
X9025000Y-2130000I-135000J0D01*
G01*
X9025000Y-2130000D02*
G75*
G02*
X9295000Y-2130000I135000J0D01*
G01*
D14*
X830000Y-4367500D02*
X830000Y-4892500D01*
X567500Y-4630000D02*
X1092500Y-4630000D01*
X1130000Y-567500D02*
X1130000Y-1092500D01*
X867500Y-830000D02*
X1392500Y-830000D01*
X1930000Y-2467500D02*
X1930000Y-2992500D01*
X1667500Y-2730000D02*
X2192500Y-2730000D01*
X2730000Y-4367500D02*
X2730000Y-4892500D01*
X2467500Y-4630000D02*
X2992500Y-4630000D01*
X3030000Y-567500D02*
X3030000Y-1092500D01*
X2767500Y-830000D02*
X3292500Y-830000D01*
X3830000Y-2467500D02*
X3830000Y-2992500D01*
X3567500Y-2730000D02*
X4092500Y-2730000D01*
X4630000Y-4367500D02*
X4630000Y-4892500D01*
X4367500Y-4630000D02*
X4892500Y-4630000D01*
X4930000Y-567500D02*
X4930000Y-1092500D01*
X4667500Y-830000D02*
X5192500Y-830000D01*
X5100000Y-6267500D02*
X5100000Y-6792500D01*
X4837500Y-6530000D02*
X5362500Y-6530000D01*
X5730000Y-2467500D02*
X5730000Y-2992500D01*
X5467500Y-2730000D02*
X5992500Y-2730000D01*
X6530000Y-4367500D02*
X6530000Y-4892500D01*
X6267500Y-4630000D02*
X6792500Y-4630000D01*
X6820800Y-567500D02*
X6820800Y-1092500D01*
X6558300Y-830000D02*
X7083300Y-830000D01*
X7630000Y-2467500D02*
X7630000Y-2992500D01*
X7367500Y-2730000D02*
X7892500Y-2730000D01*
X7960000Y-6267500D02*
X7960000Y-6792500D01*
X7697500Y-6530000D02*
X8222500Y-6530000D01*
X8430000Y-4367500D02*
X8430000Y-4892500D01*
X8167500Y-4630000D02*
X8692500Y-4630000D01*
X8730000Y-567500D02*
X8730000Y-1092500D01*
X8467500Y-830000D02*
X8992500Y-830000D01*
D12*
X255777Y-7676484D02*
X255777Y-7476484D01*
X255777Y-7476484D02*
X303396Y-7476484D01*
X303396Y-7476484D02*
X331967Y-7486008D01*
X331967Y-7486008D02*
X351015Y-7505055D01*
X351015Y-7505055D02*
X360539Y-7524103D01*
X360539Y-7524103D02*
X370062Y-7562198D01*
X370062Y-7562198D02*
X370062Y-7590769D01*
X370062Y-7590769D02*
X360539Y-7628865D01*
X360539Y-7628865D02*
X351015Y-7647912D01*
X351015Y-7647912D02*
X331967Y-7666960D01*
X331967Y-7666960D02*
X303396Y-7676484D01*
X303396Y-7676484D02*
X255777Y-7676484D01*
X455777Y-7676484D02*
X455777Y-7543150D01*
X455777Y-7581246D02*
X465301Y-7562198D01*
X465301Y-7562198D02*
X474824Y-7552674D01*
X474824Y-7552674D02*
X493872Y-7543150D01*
X493872Y-7543150D02*
X512920Y-7543150D01*
X579586Y-7676484D02*
X579586Y-7543150D01*
X579586Y-7476484D02*
X570063Y-7486008D01*
X570063Y-7486008D02*
X579586Y-7495531D01*
X579586Y-7495531D02*
X589110Y-7486008D01*
X589110Y-7486008D02*
X579586Y-7476484D01*
X579586Y-7476484D02*
X579586Y-7495531D01*
X703396Y-7676484D02*
X684348Y-7666960D01*
X684348Y-7666960D02*
X674824Y-7647912D01*
X674824Y-7647912D02*
X674824Y-7476484D01*
X808158Y-7676484D02*
X789110Y-7666960D01*
X789110Y-7666960D02*
X779586Y-7647912D01*
X779586Y-7647912D02*
X779586Y-7476484D01*
X1036729Y-7676484D02*
X1036729Y-7476484D01*
X1036729Y-7476484D02*
X1103396Y-7619341D01*
X1103396Y-7619341D02*
X1170063Y-7476484D01*
X1170063Y-7476484D02*
X1170063Y-7676484D01*
X1351015Y-7676484D02*
X1351015Y-7571722D01*
X1351015Y-7571722D02*
X1341491Y-7552674D01*
X1341491Y-7552674D02*
X1322444Y-7543150D01*
X1322444Y-7543150D02*
X1284348Y-7543150D01*
X1284348Y-7543150D02*
X1265301Y-7552674D01*
X1351015Y-7666960D02*
X1331967Y-7676484D01*
X1331967Y-7676484D02*
X1284348Y-7676484D01*
X1284348Y-7676484D02*
X1265301Y-7666960D01*
X1265301Y-7666960D02*
X1255777Y-7647912D01*
X1255777Y-7647912D02*
X1255777Y-7628865D01*
X1255777Y-7628865D02*
X1265301Y-7609817D01*
X1265301Y-7609817D02*
X1284348Y-7600293D01*
X1284348Y-7600293D02*
X1331967Y-7600293D01*
X1331967Y-7600293D02*
X1351015Y-7590769D01*
X1446253Y-7543150D02*
X1446253Y-7743150D01*
X1446253Y-7552674D02*
X1465301Y-7543150D01*
X1465301Y-7543150D02*
X1503396Y-7543150D01*
X1503396Y-7543150D02*
X1522443Y-7552674D01*
X1522443Y-7552674D02*
X1531967Y-7562198D01*
X1531967Y-7562198D02*
X1541491Y-7581246D01*
X1541491Y-7581246D02*
X1541491Y-7638388D01*
X1541491Y-7638388D02*
X1531967Y-7657436D01*
X1531967Y-7657436D02*
X1522443Y-7666960D01*
X1522443Y-7666960D02*
X1503396Y-7676484D01*
X1503396Y-7676484D02*
X1465301Y-7676484D01*
X1465301Y-7676484D02*
X1446253Y-7666960D01*
X1627205Y-7657436D02*
X1636729Y-7666960D01*
X1636729Y-7666960D02*
X1627205Y-7676484D01*
X1627205Y-7676484D02*
X1617682Y-7666960D01*
X1617682Y-7666960D02*
X1627205Y-7657436D01*
X1627205Y-7657436D02*
X1627205Y-7676484D01*
X1627205Y-7552674D02*
X1636729Y-7562198D01*
X1636729Y-7562198D02*
X1627205Y-7571722D01*
X1627205Y-7571722D02*
X1617682Y-7562198D01*
X1617682Y-7562198D02*
X1627205Y-7552674D01*
X1627205Y-7552674D02*
X1627205Y-7571722D01*
D10*
X-90000Y-7962500D02*
X-5000Y-8047500D01*
X-5000Y-7962500D02*
X-90000Y-8047500D01*
D12*
X293872Y-7896484D02*
X312920Y-7896484D01*
X312920Y-7896484D02*
X331967Y-7906008D01*
X331967Y-7906008D02*
X341491Y-7915531D01*
X341491Y-7915531D02*
X351015Y-7934579D01*
X351015Y-7934579D02*
X360539Y-7972674D01*
X360539Y-7972674D02*
X360539Y-8020293D01*
X360539Y-8020293D02*
X351015Y-8058388D01*
X351015Y-8058388D02*
X341491Y-8077436D01*
X341491Y-8077436D02*
X331967Y-8086960D01*
X331967Y-8086960D02*
X312920Y-8096484D01*
X312920Y-8096484D02*
X293872Y-8096484D01*
X293872Y-8096484D02*
X274824Y-8086960D01*
X274824Y-8086960D02*
X265301Y-8077436D01*
X265301Y-8077436D02*
X255777Y-8058388D01*
X255777Y-8058388D02*
X246253Y-8020293D01*
X246253Y-8020293D02*
X246253Y-7972674D01*
X246253Y-7972674D02*
X255777Y-7934579D01*
X255777Y-7934579D02*
X265301Y-7915531D01*
X265301Y-7915531D02*
X274824Y-7906008D01*
X274824Y-7906008D02*
X293872Y-7896484D01*
X446253Y-8077436D02*
X455777Y-8086960D01*
X455777Y-8086960D02*
X446253Y-8096484D01*
X446253Y-8096484D02*
X436729Y-8086960D01*
X436729Y-8086960D02*
X446253Y-8077436D01*
X446253Y-8077436D02*
X446253Y-8096484D01*
X570063Y-7982198D02*
X551015Y-7972674D01*
X551015Y-7972674D02*
X541491Y-7963150D01*
X541491Y-7963150D02*
X531967Y-7944103D01*
X531967Y-7944103D02*
X531967Y-7934579D01*
X531967Y-7934579D02*
X541491Y-7915531D01*
X541491Y-7915531D02*
X551015Y-7906008D01*
X551015Y-7906008D02*
X570063Y-7896484D01*
X570063Y-7896484D02*
X608158Y-7896484D01*
X608158Y-7896484D02*
X627205Y-7906008D01*
X627205Y-7906008D02*
X636729Y-7915531D01*
X636729Y-7915531D02*
X646253Y-7934579D01*
X646253Y-7934579D02*
X646253Y-7944103D01*
X646253Y-7944103D02*
X636729Y-7963150D01*
X636729Y-7963150D02*
X627205Y-7972674D01*
X627205Y-7972674D02*
X608158Y-7982198D01*
X608158Y-7982198D02*
X570063Y-7982198D01*
X570063Y-7982198D02*
X551015Y-7991722D01*
X551015Y-7991722D02*
X541491Y-8001246D01*
X541491Y-8001246D02*
X531967Y-8020293D01*
X531967Y-8020293D02*
X531967Y-8058388D01*
X531967Y-8058388D02*
X541491Y-8077436D01*
X541491Y-8077436D02*
X551015Y-8086960D01*
X551015Y-8086960D02*
X570063Y-8096484D01*
X570063Y-8096484D02*
X608158Y-8096484D01*
X608158Y-8096484D02*
X627205Y-8086960D01*
X627205Y-8086960D02*
X636729Y-8077436D01*
X636729Y-8077436D02*
X646253Y-8058388D01*
X646253Y-8058388D02*
X646253Y-8020293D01*
X646253Y-8020293D02*
X636729Y-8001246D01*
X636729Y-8001246D02*
X627205Y-7991722D01*
X627205Y-7991722D02*
X608158Y-7982198D01*
X827205Y-7896484D02*
X731967Y-7896484D01*
X731967Y-7896484D02*
X722443Y-7991722D01*
X722443Y-7991722D02*
X731967Y-7982198D01*
X731967Y-7982198D02*
X751015Y-7972674D01*
X751015Y-7972674D02*
X798634Y-7972674D01*
X798634Y-7972674D02*
X817682Y-7982198D01*
X817682Y-7982198D02*
X827205Y-7991722D01*
X827205Y-7991722D02*
X836729Y-8010769D01*
X836729Y-8010769D02*
X836729Y-8058388D01*
X836729Y-8058388D02*
X827205Y-8077436D01*
X827205Y-8077436D02*
X817682Y-8086960D01*
X817682Y-8086960D02*
X798634Y-8096484D01*
X798634Y-8096484D02*
X751015Y-8096484D01*
X751015Y-8096484D02*
X731967Y-8086960D01*
X731967Y-8086960D02*
X722443Y-8077436D01*
X960539Y-7896484D02*
X979586Y-7896484D01*
X979586Y-7896484D02*
X998634Y-7906008D01*
X998634Y-7906008D02*
X1008158Y-7915531D01*
X1008158Y-7915531D02*
X1017682Y-7934579D01*
X1017682Y-7934579D02*
X1027205Y-7972674D01*
X1027205Y-7972674D02*
X1027205Y-8020293D01*
X1027205Y-8020293D02*
X1017682Y-8058388D01*
X1017682Y-8058388D02*
X1008158Y-8077436D01*
X1008158Y-8077436D02*
X998634Y-8086960D01*
X998634Y-8086960D02*
X979586Y-8096484D01*
X979586Y-8096484D02*
X960539Y-8096484D01*
X960539Y-8096484D02*
X941491Y-8086960D01*
X941491Y-8086960D02*
X931967Y-8077436D01*
X931967Y-8077436D02*
X922443Y-8058388D01*
X922443Y-8058388D02*
X912920Y-8020293D01*
X912920Y-8020293D02*
X912920Y-7972674D01*
X912920Y-7972674D02*
X922443Y-7934579D01*
X922443Y-7934579D02*
X931967Y-7915531D01*
X931967Y-7915531D02*
X941491Y-7906008D01*
X941491Y-7906008D02*
X960539Y-7896484D01*
X1112920Y-8096484D02*
X1112920Y-7963150D01*
X1112920Y-7982198D02*
X1122444Y-7972674D01*
X1122444Y-7972674D02*
X1141491Y-7963150D01*
X1141491Y-7963150D02*
X1170063Y-7963150D01*
X1170063Y-7963150D02*
X1189110Y-7972674D01*
X1189110Y-7972674D02*
X1198634Y-7991722D01*
X1198634Y-7991722D02*
X1198634Y-8096484D01*
X1198634Y-7991722D02*
X1208158Y-7972674D01*
X1208158Y-7972674D02*
X1227205Y-7963150D01*
X1227205Y-7963150D02*
X1255777Y-7963150D01*
X1255777Y-7963150D02*
X1274825Y-7972674D01*
X1274825Y-7972674D02*
X1284348Y-7991722D01*
X1284348Y-7991722D02*
X1284348Y-8096484D01*
X1379586Y-8096484D02*
X1379586Y-7963150D01*
X1379586Y-7982198D02*
X1389110Y-7972674D01*
X1389110Y-7972674D02*
X1408158Y-7963150D01*
X1408158Y-7963150D02*
X1436729Y-7963150D01*
X1436729Y-7963150D02*
X1455777Y-7972674D01*
X1455777Y-7972674D02*
X1465301Y-7991722D01*
X1465301Y-7991722D02*
X1465301Y-8096484D01*
X1465301Y-7991722D02*
X1474824Y-7972674D01*
X1474824Y-7972674D02*
X1493872Y-7963150D01*
X1493872Y-7963150D02*
X1522443Y-7963150D01*
X1522443Y-7963150D02*
X1541491Y-7972674D01*
X1541491Y-7972674D02*
X1551015Y-7991722D01*
X1551015Y-7991722D02*
X1551015Y-8096484D01*
X1941491Y-7886960D02*
X1770063Y-8144103D01*
X2198634Y-7896484D02*
X2217682Y-7896484D01*
X2217682Y-7896484D02*
X2236729Y-7906008D01*
X2236729Y-7906008D02*
X2246253Y-7915531D01*
X2246253Y-7915531D02*
X2255777Y-7934579D01*
X2255777Y-7934579D02*
X2265301Y-7972674D01*
X2265301Y-7972674D02*
X2265301Y-8020293D01*
X2265301Y-8020293D02*
X2255777Y-8058388D01*
X2255777Y-8058388D02*
X2246253Y-8077436D01*
X2246253Y-8077436D02*
X2236729Y-8086960D01*
X2236729Y-8086960D02*
X2217682Y-8096484D01*
X2217682Y-8096484D02*
X2198634Y-8096484D01*
X2198634Y-8096484D02*
X2179587Y-8086960D01*
X2179587Y-8086960D02*
X2170063Y-8077436D01*
X2170063Y-8077436D02*
X2160539Y-8058388D01*
X2160539Y-8058388D02*
X2151015Y-8020293D01*
X2151015Y-8020293D02*
X2151015Y-7972674D01*
X2151015Y-7972674D02*
X2160539Y-7934579D01*
X2160539Y-7934579D02*
X2170063Y-7915531D01*
X2170063Y-7915531D02*
X2179587Y-7906008D01*
X2179587Y-7906008D02*
X2198634Y-7896484D01*
X2351015Y-8077436D02*
X2360539Y-8086960D01*
X2360539Y-8086960D02*
X2351015Y-8096484D01*
X2351015Y-8096484D02*
X2341491Y-8086960D01*
X2341491Y-8086960D02*
X2351015Y-8077436D01*
X2351015Y-8077436D02*
X2351015Y-8096484D01*
X2484348Y-7896484D02*
X2503396Y-7896484D01*
X2503396Y-7896484D02*
X2522444Y-7906008D01*
X2522444Y-7906008D02*
X2531968Y-7915531D01*
X2531968Y-7915531D02*
X2541491Y-7934579D01*
X2541491Y-7934579D02*
X2551015Y-7972674D01*
X2551015Y-7972674D02*
X2551015Y-8020293D01*
X2551015Y-8020293D02*
X2541491Y-8058388D01*
X2541491Y-8058388D02*
X2531968Y-8077436D01*
X2531968Y-8077436D02*
X2522444Y-8086960D01*
X2522444Y-8086960D02*
X2503396Y-8096484D01*
X2503396Y-8096484D02*
X2484348Y-8096484D01*
X2484348Y-8096484D02*
X2465301Y-8086960D01*
X2465301Y-8086960D02*
X2455777Y-8077436D01*
X2455777Y-8077436D02*
X2446253Y-8058388D01*
X2446253Y-8058388D02*
X2436729Y-8020293D01*
X2436729Y-8020293D02*
X2436729Y-7972674D01*
X2436729Y-7972674D02*
X2446253Y-7934579D01*
X2446253Y-7934579D02*
X2455777Y-7915531D01*
X2455777Y-7915531D02*
X2465301Y-7906008D01*
X2465301Y-7906008D02*
X2484348Y-7896484D01*
X2617682Y-7896484D02*
X2741491Y-7896484D01*
X2741491Y-7896484D02*
X2674825Y-7972674D01*
X2674825Y-7972674D02*
X2703396Y-7972674D01*
X2703396Y-7972674D02*
X2722444Y-7982198D01*
X2722444Y-7982198D02*
X2731968Y-7991722D01*
X2731968Y-7991722D02*
X2741491Y-8010769D01*
X2741491Y-8010769D02*
X2741491Y-8058388D01*
X2741491Y-8058388D02*
X2731968Y-8077436D01*
X2731968Y-8077436D02*
X2722444Y-8086960D01*
X2722444Y-8086960D02*
X2703396Y-8096484D01*
X2703396Y-8096484D02*
X2646253Y-8096484D01*
X2646253Y-8096484D02*
X2627206Y-8086960D01*
X2627206Y-8086960D02*
X2617682Y-8077436D01*
X2808158Y-7896484D02*
X2931967Y-7896484D01*
X2931967Y-7896484D02*
X2865301Y-7972674D01*
X2865301Y-7972674D02*
X2893872Y-7972674D01*
X2893872Y-7972674D02*
X2912920Y-7982198D01*
X2912920Y-7982198D02*
X2922444Y-7991722D01*
X2922444Y-7991722D02*
X2931967Y-8010769D01*
X2931967Y-8010769D02*
X2931967Y-8058388D01*
X2931967Y-8058388D02*
X2922444Y-8077436D01*
X2922444Y-8077436D02*
X2912920Y-8086960D01*
X2912920Y-8086960D02*
X2893872Y-8096484D01*
X2893872Y-8096484D02*
X2836729Y-8096484D01*
X2836729Y-8096484D02*
X2817682Y-8086960D01*
X2817682Y-8086960D02*
X2808158Y-8077436D01*
X3112920Y-7896484D02*
X3017682Y-7896484D01*
X3017682Y-7896484D02*
X3008158Y-7991722D01*
X3008158Y-7991722D02*
X3017682Y-7982198D01*
X3017682Y-7982198D02*
X3036729Y-7972674D01*
X3036729Y-7972674D02*
X3084348Y-7972674D01*
X3084348Y-7972674D02*
X3103396Y-7982198D01*
X3103396Y-7982198D02*
X3112920Y-7991722D01*
X3112920Y-7991722D02*
X3122444Y-8010769D01*
X3122444Y-8010769D02*
X3122444Y-8058388D01*
X3122444Y-8058388D02*
X3112920Y-8077436D01*
X3112920Y-8077436D02*
X3103396Y-8086960D01*
X3103396Y-8086960D02*
X3084348Y-8096484D01*
X3084348Y-8096484D02*
X3036729Y-8096484D01*
X3036729Y-8096484D02*
X3017682Y-8086960D01*
X3017682Y-8086960D02*
X3008158Y-8077436D01*
X3198634Y-7896484D02*
X3198634Y-7934579D01*
X3274825Y-7896484D02*
X3274825Y-7934579D01*
X3570063Y-8172674D02*
X3560539Y-8163150D01*
X3560539Y-8163150D02*
X3541491Y-8134579D01*
X3541491Y-8134579D02*
X3531968Y-8115531D01*
X3531968Y-8115531D02*
X3522444Y-8086960D01*
X3522444Y-8086960D02*
X3512920Y-8039341D01*
X3512920Y-8039341D02*
X3512920Y-8001246D01*
X3512920Y-8001246D02*
X3522444Y-7953627D01*
X3522444Y-7953627D02*
X3531968Y-7925055D01*
X3531968Y-7925055D02*
X3541491Y-7906008D01*
X3541491Y-7906008D02*
X3560539Y-7877436D01*
X3560539Y-7877436D02*
X3570063Y-7867912D01*
X3636729Y-7915531D02*
X3646253Y-7906008D01*
X3646253Y-7906008D02*
X3665301Y-7896484D01*
X3665301Y-7896484D02*
X3712920Y-7896484D01*
X3712920Y-7896484D02*
X3731968Y-7906008D01*
X3731968Y-7906008D02*
X3741491Y-7915531D01*
X3741491Y-7915531D02*
X3751015Y-7934579D01*
X3751015Y-7934579D02*
X3751015Y-7953627D01*
X3751015Y-7953627D02*
X3741491Y-7982198D01*
X3741491Y-7982198D02*
X3627206Y-8096484D01*
X3627206Y-8096484D02*
X3751015Y-8096484D01*
X3989110Y-8096484D02*
X3989110Y-7896484D01*
X4074825Y-8096484D02*
X4074825Y-7991722D01*
X4074825Y-7991722D02*
X4065301Y-7972674D01*
X4065301Y-7972674D02*
X4046253Y-7963150D01*
X4046253Y-7963150D02*
X4017682Y-7963150D01*
X4017682Y-7963150D02*
X3998634Y-7972674D01*
X3998634Y-7972674D02*
X3989110Y-7982198D01*
X4198634Y-8096484D02*
X4179587Y-8086960D01*
X4179587Y-8086960D02*
X4170063Y-8077436D01*
X4170063Y-8077436D02*
X4160539Y-8058388D01*
X4160539Y-8058388D02*
X4160539Y-8001246D01*
X4160539Y-8001246D02*
X4170063Y-7982198D01*
X4170063Y-7982198D02*
X4179587Y-7972674D01*
X4179587Y-7972674D02*
X4198634Y-7963150D01*
X4198634Y-7963150D02*
X4227206Y-7963150D01*
X4227206Y-7963150D02*
X4246253Y-7972674D01*
X4246253Y-7972674D02*
X4255777Y-7982198D01*
X4255777Y-7982198D02*
X4265301Y-8001246D01*
X4265301Y-8001246D02*
X4265301Y-8058388D01*
X4265301Y-8058388D02*
X4255777Y-8077436D01*
X4255777Y-8077436D02*
X4246253Y-8086960D01*
X4246253Y-8086960D02*
X4227206Y-8096484D01*
X4227206Y-8096484D02*
X4198634Y-8096484D01*
X4379587Y-8096484D02*
X4360539Y-8086960D01*
X4360539Y-8086960D02*
X4351015Y-8067912D01*
X4351015Y-8067912D02*
X4351015Y-7896484D01*
X4531968Y-8086960D02*
X4512920Y-8096484D01*
X4512920Y-8096484D02*
X4474825Y-8096484D01*
X4474825Y-8096484D02*
X4455777Y-8086960D01*
X4455777Y-8086960D02*
X4446253Y-8067912D01*
X4446253Y-8067912D02*
X4446253Y-7991722D01*
X4446253Y-7991722D02*
X4455777Y-7972674D01*
X4455777Y-7972674D02*
X4474825Y-7963150D01*
X4474825Y-7963150D02*
X4512920Y-7963150D01*
X4512920Y-7963150D02*
X4531968Y-7972674D01*
X4531968Y-7972674D02*
X4541492Y-7991722D01*
X4541492Y-7991722D02*
X4541492Y-8010769D01*
X4541492Y-8010769D02*
X4446253Y-8029817D01*
X4617682Y-8086960D02*
X4636730Y-8096484D01*
X4636730Y-8096484D02*
X4674825Y-8096484D01*
X4674825Y-8096484D02*
X4693873Y-8086960D01*
X4693873Y-8086960D02*
X4703396Y-8067912D01*
X4703396Y-8067912D02*
X4703396Y-8058388D01*
X4703396Y-8058388D02*
X4693873Y-8039341D01*
X4693873Y-8039341D02*
X4674825Y-8029817D01*
X4674825Y-8029817D02*
X4646253Y-8029817D01*
X4646253Y-8029817D02*
X4627206Y-8020293D01*
X4627206Y-8020293D02*
X4617682Y-8001246D01*
X4617682Y-8001246D02*
X4617682Y-7991722D01*
X4617682Y-7991722D02*
X4627206Y-7972674D01*
X4627206Y-7972674D02*
X4646253Y-7963150D01*
X4646253Y-7963150D02*
X4674825Y-7963150D01*
X4674825Y-7963150D02*
X4693873Y-7972674D01*
X4770063Y-8172674D02*
X4779587Y-8163150D01*
X4779587Y-8163150D02*
X4798634Y-8134579D01*
X4798634Y-8134579D02*
X4808158Y-8115531D01*
X4808158Y-8115531D02*
X4817682Y-8086960D01*
X4817682Y-8086960D02*
X4827206Y-8039341D01*
X4827206Y-8039341D02*
X4827206Y-8001246D01*
X4827206Y-8001246D02*
X4817682Y-7953627D01*
X4817682Y-7953627D02*
X4808158Y-7925055D01*
X4808158Y-7925055D02*
X4798634Y-7906008D01*
X4798634Y-7906008D02*
X4779587Y-7877436D01*
X4779587Y-7877436D02*
X4770063Y-7867912D01*
X5131968Y-8172674D02*
X5122444Y-8163150D01*
X5122444Y-8163150D02*
X5103396Y-8134579D01*
X5103396Y-8134579D02*
X5093873Y-8115531D01*
X5093873Y-8115531D02*
X5084349Y-8086960D01*
X5084349Y-8086960D02*
X5074825Y-8039341D01*
X5074825Y-8039341D02*
X5074825Y-8001246D01*
X5074825Y-8001246D02*
X5084349Y-7953627D01*
X5084349Y-7953627D02*
X5093873Y-7925055D01*
X5093873Y-7925055D02*
X5103396Y-7906008D01*
X5103396Y-7906008D02*
X5122444Y-7877436D01*
X5122444Y-7877436D02*
X5131968Y-7867912D01*
X5208158Y-7963150D02*
X5208158Y-8096484D01*
X5208158Y-7982198D02*
X5217682Y-7972674D01*
X5217682Y-7972674D02*
X5236730Y-7963150D01*
X5236730Y-7963150D02*
X5265301Y-7963150D01*
X5265301Y-7963150D02*
X5284349Y-7972674D01*
X5284349Y-7972674D02*
X5293873Y-7991722D01*
X5293873Y-7991722D02*
X5293873Y-8096484D01*
X5417682Y-8096484D02*
X5398634Y-8086960D01*
X5398634Y-8086960D02*
X5389111Y-8077436D01*
X5389111Y-8077436D02*
X5379587Y-8058388D01*
X5379587Y-8058388D02*
X5379587Y-8001246D01*
X5379587Y-8001246D02*
X5389111Y-7982198D01*
X5389111Y-7982198D02*
X5398634Y-7972674D01*
X5398634Y-7972674D02*
X5417682Y-7963150D01*
X5417682Y-7963150D02*
X5446254Y-7963150D01*
X5446254Y-7963150D02*
X5465301Y-7972674D01*
X5465301Y-7972674D02*
X5474825Y-7982198D01*
X5474825Y-7982198D02*
X5484349Y-8001246D01*
X5484349Y-8001246D02*
X5484349Y-8058388D01*
X5484349Y-8058388D02*
X5474825Y-8077436D01*
X5474825Y-8077436D02*
X5465301Y-8086960D01*
X5465301Y-8086960D02*
X5446254Y-8096484D01*
X5446254Y-8096484D02*
X5417682Y-8096484D01*
X5541492Y-7963150D02*
X5617682Y-7963150D01*
X5570063Y-7896484D02*
X5570063Y-8067912D01*
X5570063Y-8067912D02*
X5579587Y-8086960D01*
X5579587Y-8086960D02*
X5598634Y-8096484D01*
X5598634Y-8096484D02*
X5617682Y-8096484D01*
X5836730Y-7963150D02*
X5836730Y-8163150D01*
X5836730Y-7972674D02*
X5855777Y-7963150D01*
X5855777Y-7963150D02*
X5893873Y-7963150D01*
X5893873Y-7963150D02*
X5912920Y-7972674D01*
X5912920Y-7972674D02*
X5922444Y-7982198D01*
X5922444Y-7982198D02*
X5931968Y-8001246D01*
X5931968Y-8001246D02*
X5931968Y-8058388D01*
X5931968Y-8058388D02*
X5922444Y-8077436D01*
X5922444Y-8077436D02*
X5912920Y-8086960D01*
X5912920Y-8086960D02*
X5893873Y-8096484D01*
X5893873Y-8096484D02*
X5855777Y-8096484D01*
X5855777Y-8096484D02*
X5836730Y-8086960D01*
X6046253Y-8096484D02*
X6027206Y-8086960D01*
X6027206Y-8086960D02*
X6017682Y-8067912D01*
X6017682Y-8067912D02*
X6017682Y-7896484D01*
X6208158Y-8096484D02*
X6208158Y-7991722D01*
X6208158Y-7991722D02*
X6198634Y-7972674D01*
X6198634Y-7972674D02*
X6179587Y-7963150D01*
X6179587Y-7963150D02*
X6141492Y-7963150D01*
X6141492Y-7963150D02*
X6122444Y-7972674D01*
X6208158Y-8086960D02*
X6189111Y-8096484D01*
X6189111Y-8096484D02*
X6141492Y-8096484D01*
X6141492Y-8096484D02*
X6122444Y-8086960D01*
X6122444Y-8086960D02*
X6112920Y-8067912D01*
X6112920Y-8067912D02*
X6112920Y-8048865D01*
X6112920Y-8048865D02*
X6122444Y-8029817D01*
X6122444Y-8029817D02*
X6141492Y-8020293D01*
X6141492Y-8020293D02*
X6189111Y-8020293D01*
X6189111Y-8020293D02*
X6208158Y-8010769D01*
X6274825Y-7963150D02*
X6351015Y-7963150D01*
X6303396Y-7896484D02*
X6303396Y-8067912D01*
X6303396Y-8067912D02*
X6312920Y-8086960D01*
X6312920Y-8086960D02*
X6331968Y-8096484D01*
X6331968Y-8096484D02*
X6351015Y-8096484D01*
X6493873Y-8086960D02*
X6474825Y-8096484D01*
X6474825Y-8096484D02*
X6436730Y-8096484D01*
X6436730Y-8096484D02*
X6417682Y-8086960D01*
X6417682Y-8086960D02*
X6408158Y-8067912D01*
X6408158Y-8067912D02*
X6408158Y-7991722D01*
X6408158Y-7991722D02*
X6417682Y-7972674D01*
X6417682Y-7972674D02*
X6436730Y-7963150D01*
X6436730Y-7963150D02*
X6474825Y-7963150D01*
X6474825Y-7963150D02*
X6493873Y-7972674D01*
X6493873Y-7972674D02*
X6503396Y-7991722D01*
X6503396Y-7991722D02*
X6503396Y-8010769D01*
X6503396Y-8010769D02*
X6408158Y-8029817D01*
X6674825Y-8096484D02*
X6674825Y-7896484D01*
X6674825Y-8086960D02*
X6655777Y-8096484D01*
X6655777Y-8096484D02*
X6617682Y-8096484D01*
X6617682Y-8096484D02*
X6598634Y-8086960D01*
X6598634Y-8086960D02*
X6589111Y-8077436D01*
X6589111Y-8077436D02*
X6579587Y-8058388D01*
X6579587Y-8058388D02*
X6579587Y-8001246D01*
X6579587Y-8001246D02*
X6589111Y-7982198D01*
X6589111Y-7982198D02*
X6598634Y-7972674D01*
X6598634Y-7972674D02*
X6617682Y-7963150D01*
X6617682Y-7963150D02*
X6655777Y-7963150D01*
X6655777Y-7963150D02*
X6674825Y-7972674D01*
X6751015Y-8172674D02*
X6760539Y-8163150D01*
X6760539Y-8163150D02*
X6779587Y-8134579D01*
X6779587Y-8134579D02*
X6789111Y-8115531D01*
X6789111Y-8115531D02*
X6798634Y-8086960D01*
X6798634Y-8086960D02*
X6808158Y-8039341D01*
X6808158Y-8039341D02*
X6808158Y-8001246D01*
X6808158Y-8001246D02*
X6798634Y-7953627D01*
X6798634Y-7953627D02*
X6789111Y-7925055D01*
X6789111Y-7925055D02*
X6779587Y-7906008D01*
X6779587Y-7906008D02*
X6760539Y-7877436D01*
X6760539Y-7877436D02*
X6751015Y-7867912D01*
X-5000Y-8269000D02*
G75*
G02*
X-205000Y-8269000I-100000J0D01*
G01*
X-205000Y-8269000D02*
G75*
G02*
X-5000Y-8269000I100000J0D01*
G01*
X246253Y-8179531D02*
X255777Y-8170008D01*
X255777Y-8170008D02*
X274824Y-8160484D01*
X274824Y-8160484D02*
X322444Y-8160484D01*
X322444Y-8160484D02*
X341491Y-8170008D01*
X341491Y-8170008D02*
X351015Y-8179531D01*
X351015Y-8179531D02*
X360539Y-8198579D01*
X360539Y-8198579D02*
X360539Y-8217627D01*
X360539Y-8217627D02*
X351015Y-8246198D01*
X351015Y-8246198D02*
X236729Y-8360484D01*
X236729Y-8360484D02*
X360539Y-8360484D01*
X446253Y-8341436D02*
X455777Y-8350960D01*
X455777Y-8350960D02*
X446253Y-8360484D01*
X446253Y-8360484D02*
X436729Y-8350960D01*
X436729Y-8350960D02*
X446253Y-8341436D01*
X446253Y-8341436D02*
X446253Y-8360484D01*
X522443Y-8160484D02*
X655777Y-8160484D01*
X655777Y-8160484D02*
X570063Y-8360484D01*
X770062Y-8160484D02*
X789110Y-8160484D01*
X789110Y-8160484D02*
X808158Y-8170008D01*
X808158Y-8170008D02*
X817682Y-8179531D01*
X817682Y-8179531D02*
X827205Y-8198579D01*
X827205Y-8198579D02*
X836729Y-8236674D01*
X836729Y-8236674D02*
X836729Y-8284293D01*
X836729Y-8284293D02*
X827205Y-8322388D01*
X827205Y-8322388D02*
X817682Y-8341436D01*
X817682Y-8341436D02*
X808158Y-8350960D01*
X808158Y-8350960D02*
X789110Y-8360484D01*
X789110Y-8360484D02*
X770062Y-8360484D01*
X770062Y-8360484D02*
X751015Y-8350960D01*
X751015Y-8350960D02*
X741491Y-8341436D01*
X741491Y-8341436D02*
X731967Y-8322388D01*
X731967Y-8322388D02*
X722443Y-8284293D01*
X722443Y-8284293D02*
X722443Y-8236674D01*
X722443Y-8236674D02*
X731967Y-8198579D01*
X731967Y-8198579D02*
X741491Y-8179531D01*
X741491Y-8179531D02*
X751015Y-8170008D01*
X751015Y-8170008D02*
X770062Y-8160484D01*
X960539Y-8160484D02*
X979586Y-8160484D01*
X979586Y-8160484D02*
X998634Y-8170008D01*
X998634Y-8170008D02*
X1008158Y-8179531D01*
X1008158Y-8179531D02*
X1017682Y-8198579D01*
X1017682Y-8198579D02*
X1027205Y-8236674D01*
X1027205Y-8236674D02*
X1027205Y-8284293D01*
X1027205Y-8284293D02*
X1017682Y-8322388D01*
X1017682Y-8322388D02*
X1008158Y-8341436D01*
X1008158Y-8341436D02*
X998634Y-8350960D01*
X998634Y-8350960D02*
X979586Y-8360484D01*
X979586Y-8360484D02*
X960539Y-8360484D01*
X960539Y-8360484D02*
X941491Y-8350960D01*
X941491Y-8350960D02*
X931967Y-8341436D01*
X931967Y-8341436D02*
X922443Y-8322388D01*
X922443Y-8322388D02*
X912920Y-8284293D01*
X912920Y-8284293D02*
X912920Y-8236674D01*
X912920Y-8236674D02*
X922443Y-8198579D01*
X922443Y-8198579D02*
X931967Y-8179531D01*
X931967Y-8179531D02*
X941491Y-8170008D01*
X941491Y-8170008D02*
X960539Y-8160484D01*
X1112920Y-8360484D02*
X1112920Y-8227150D01*
X1112920Y-8246198D02*
X1122444Y-8236674D01*
X1122444Y-8236674D02*
X1141491Y-8227150D01*
X1141491Y-8227150D02*
X1170063Y-8227150D01*
X1170063Y-8227150D02*
X1189110Y-8236674D01*
X1189110Y-8236674D02*
X1198634Y-8255722D01*
X1198634Y-8255722D02*
X1198634Y-8360484D01*
X1198634Y-8255722D02*
X1208158Y-8236674D01*
X1208158Y-8236674D02*
X1227205Y-8227150D01*
X1227205Y-8227150D02*
X1255777Y-8227150D01*
X1255777Y-8227150D02*
X1274825Y-8236674D01*
X1274825Y-8236674D02*
X1284348Y-8255722D01*
X1284348Y-8255722D02*
X1284348Y-8360484D01*
X1379586Y-8360484D02*
X1379586Y-8227150D01*
X1379586Y-8246198D02*
X1389110Y-8236674D01*
X1389110Y-8236674D02*
X1408158Y-8227150D01*
X1408158Y-8227150D02*
X1436729Y-8227150D01*
X1436729Y-8227150D02*
X1455777Y-8236674D01*
X1455777Y-8236674D02*
X1465301Y-8255722D01*
X1465301Y-8255722D02*
X1465301Y-8360484D01*
X1465301Y-8255722D02*
X1474824Y-8236674D01*
X1474824Y-8236674D02*
X1493872Y-8227150D01*
X1493872Y-8227150D02*
X1522443Y-8227150D01*
X1522443Y-8227150D02*
X1541491Y-8236674D01*
X1541491Y-8236674D02*
X1551015Y-8255722D01*
X1551015Y-8255722D02*
X1551015Y-8360484D01*
X1941491Y-8150960D02*
X1770063Y-8408103D01*
X2198634Y-8160484D02*
X2217682Y-8160484D01*
X2217682Y-8160484D02*
X2236729Y-8170008D01*
X2236729Y-8170008D02*
X2246253Y-8179531D01*
X2246253Y-8179531D02*
X2255777Y-8198579D01*
X2255777Y-8198579D02*
X2265301Y-8236674D01*
X2265301Y-8236674D02*
X2265301Y-8284293D01*
X2265301Y-8284293D02*
X2255777Y-8322388D01*
X2255777Y-8322388D02*
X2246253Y-8341436D01*
X2246253Y-8341436D02*
X2236729Y-8350960D01*
X2236729Y-8350960D02*
X2217682Y-8360484D01*
X2217682Y-8360484D02*
X2198634Y-8360484D01*
X2198634Y-8360484D02*
X2179587Y-8350960D01*
X2179587Y-8350960D02*
X2170063Y-8341436D01*
X2170063Y-8341436D02*
X2160539Y-8322388D01*
X2160539Y-8322388D02*
X2151015Y-8284293D01*
X2151015Y-8284293D02*
X2151015Y-8236674D01*
X2151015Y-8236674D02*
X2160539Y-8198579D01*
X2160539Y-8198579D02*
X2170063Y-8179531D01*
X2170063Y-8179531D02*
X2179587Y-8170008D01*
X2179587Y-8170008D02*
X2198634Y-8160484D01*
X2351015Y-8341436D02*
X2360539Y-8350960D01*
X2360539Y-8350960D02*
X2351015Y-8360484D01*
X2351015Y-8360484D02*
X2341491Y-8350960D01*
X2341491Y-8350960D02*
X2351015Y-8341436D01*
X2351015Y-8341436D02*
X2351015Y-8360484D01*
X2551015Y-8360484D02*
X2436729Y-8360484D01*
X2493872Y-8360484D02*
X2493872Y-8160484D01*
X2493872Y-8160484D02*
X2474825Y-8189055D01*
X2474825Y-8189055D02*
X2455777Y-8208103D01*
X2455777Y-8208103D02*
X2436729Y-8217627D01*
X2674825Y-8160484D02*
X2693872Y-8160484D01*
X2693872Y-8160484D02*
X2712920Y-8170008D01*
X2712920Y-8170008D02*
X2722444Y-8179531D01*
X2722444Y-8179531D02*
X2731968Y-8198579D01*
X2731968Y-8198579D02*
X2741491Y-8236674D01*
X2741491Y-8236674D02*
X2741491Y-8284293D01*
X2741491Y-8284293D02*
X2731968Y-8322388D01*
X2731968Y-8322388D02*
X2722444Y-8341436D01*
X2722444Y-8341436D02*
X2712920Y-8350960D01*
X2712920Y-8350960D02*
X2693872Y-8360484D01*
X2693872Y-8360484D02*
X2674825Y-8360484D01*
X2674825Y-8360484D02*
X2655777Y-8350960D01*
X2655777Y-8350960D02*
X2646253Y-8341436D01*
X2646253Y-8341436D02*
X2636729Y-8322388D01*
X2636729Y-8322388D02*
X2627206Y-8284293D01*
X2627206Y-8284293D02*
X2627206Y-8236674D01*
X2627206Y-8236674D02*
X2636729Y-8198579D01*
X2636729Y-8198579D02*
X2646253Y-8179531D01*
X2646253Y-8179531D02*
X2655777Y-8170008D01*
X2655777Y-8170008D02*
X2674825Y-8160484D01*
X2912920Y-8160484D02*
X2874825Y-8160484D01*
X2874825Y-8160484D02*
X2855777Y-8170008D01*
X2855777Y-8170008D02*
X2846253Y-8179531D01*
X2846253Y-8179531D02*
X2827206Y-8208103D01*
X2827206Y-8208103D02*
X2817682Y-8246198D01*
X2817682Y-8246198D02*
X2817682Y-8322388D01*
X2817682Y-8322388D02*
X2827206Y-8341436D01*
X2827206Y-8341436D02*
X2836729Y-8350960D01*
X2836729Y-8350960D02*
X2855777Y-8360484D01*
X2855777Y-8360484D02*
X2893872Y-8360484D01*
X2893872Y-8360484D02*
X2912920Y-8350960D01*
X2912920Y-8350960D02*
X2922444Y-8341436D01*
X2922444Y-8341436D02*
X2931967Y-8322388D01*
X2931967Y-8322388D02*
X2931967Y-8274769D01*
X2931967Y-8274769D02*
X2922444Y-8255722D01*
X2922444Y-8255722D02*
X2912920Y-8246198D01*
X2912920Y-8246198D02*
X2893872Y-8236674D01*
X2893872Y-8236674D02*
X2855777Y-8236674D01*
X2855777Y-8236674D02*
X2836729Y-8246198D01*
X2836729Y-8246198D02*
X2827206Y-8255722D01*
X2827206Y-8255722D02*
X2817682Y-8274769D01*
X2998634Y-8160484D02*
X3122444Y-8160484D01*
X3122444Y-8160484D02*
X3055777Y-8236674D01*
X3055777Y-8236674D02*
X3084348Y-8236674D01*
X3084348Y-8236674D02*
X3103396Y-8246198D01*
X3103396Y-8246198D02*
X3112920Y-8255722D01*
X3112920Y-8255722D02*
X3122444Y-8274769D01*
X3122444Y-8274769D02*
X3122444Y-8322388D01*
X3122444Y-8322388D02*
X3112920Y-8341436D01*
X3112920Y-8341436D02*
X3103396Y-8350960D01*
X3103396Y-8350960D02*
X3084348Y-8360484D01*
X3084348Y-8360484D02*
X3027206Y-8360484D01*
X3027206Y-8360484D02*
X3008158Y-8350960D01*
X3008158Y-8350960D02*
X2998634Y-8341436D01*
X3198634Y-8160484D02*
X3198634Y-8198579D01*
X3274825Y-8160484D02*
X3274825Y-8198579D01*
X3570063Y-8436674D02*
X3560539Y-8427150D01*
X3560539Y-8427150D02*
X3541491Y-8398579D01*
X3541491Y-8398579D02*
X3531968Y-8379531D01*
X3531968Y-8379531D02*
X3522444Y-8350960D01*
X3522444Y-8350960D02*
X3512920Y-8303341D01*
X3512920Y-8303341D02*
X3512920Y-8265246D01*
X3512920Y-8265246D02*
X3522444Y-8217627D01*
X3522444Y-8217627D02*
X3531968Y-8189055D01*
X3531968Y-8189055D02*
X3541491Y-8170008D01*
X3541491Y-8170008D02*
X3560539Y-8141436D01*
X3560539Y-8141436D02*
X3570063Y-8131912D01*
X3627206Y-8160484D02*
X3751015Y-8160484D01*
X3751015Y-8160484D02*
X3684348Y-8236674D01*
X3684348Y-8236674D02*
X3712920Y-8236674D01*
X3712920Y-8236674D02*
X3731968Y-8246198D01*
X3731968Y-8246198D02*
X3741491Y-8255722D01*
X3741491Y-8255722D02*
X3751015Y-8274769D01*
X3751015Y-8274769D02*
X3751015Y-8322388D01*
X3751015Y-8322388D02*
X3741491Y-8341436D01*
X3741491Y-8341436D02*
X3731968Y-8350960D01*
X3731968Y-8350960D02*
X3712920Y-8360484D01*
X3712920Y-8360484D02*
X3655777Y-8360484D01*
X3655777Y-8360484D02*
X3636729Y-8350960D01*
X3636729Y-8350960D02*
X3627206Y-8341436D01*
X3989110Y-8360484D02*
X3989110Y-8160484D01*
X4074825Y-8360484D02*
X4074825Y-8255722D01*
X4074825Y-8255722D02*
X4065301Y-8236674D01*
X4065301Y-8236674D02*
X4046253Y-8227150D01*
X4046253Y-8227150D02*
X4017682Y-8227150D01*
X4017682Y-8227150D02*
X3998634Y-8236674D01*
X3998634Y-8236674D02*
X3989110Y-8246198D01*
X4198634Y-8360484D02*
X4179587Y-8350960D01*
X4179587Y-8350960D02*
X4170063Y-8341436D01*
X4170063Y-8341436D02*
X4160539Y-8322388D01*
X4160539Y-8322388D02*
X4160539Y-8265246D01*
X4160539Y-8265246D02*
X4170063Y-8246198D01*
X4170063Y-8246198D02*
X4179587Y-8236674D01*
X4179587Y-8236674D02*
X4198634Y-8227150D01*
X4198634Y-8227150D02*
X4227206Y-8227150D01*
X4227206Y-8227150D02*
X4246253Y-8236674D01*
X4246253Y-8236674D02*
X4255777Y-8246198D01*
X4255777Y-8246198D02*
X4265301Y-8265246D01*
X4265301Y-8265246D02*
X4265301Y-8322388D01*
X4265301Y-8322388D02*
X4255777Y-8341436D01*
X4255777Y-8341436D02*
X4246253Y-8350960D01*
X4246253Y-8350960D02*
X4227206Y-8360484D01*
X4227206Y-8360484D02*
X4198634Y-8360484D01*
X4379587Y-8360484D02*
X4360539Y-8350960D01*
X4360539Y-8350960D02*
X4351015Y-8331912D01*
X4351015Y-8331912D02*
X4351015Y-8160484D01*
X4531968Y-8350960D02*
X4512920Y-8360484D01*
X4512920Y-8360484D02*
X4474825Y-8360484D01*
X4474825Y-8360484D02*
X4455777Y-8350960D01*
X4455777Y-8350960D02*
X4446253Y-8331912D01*
X4446253Y-8331912D02*
X4446253Y-8255722D01*
X4446253Y-8255722D02*
X4455777Y-8236674D01*
X4455777Y-8236674D02*
X4474825Y-8227150D01*
X4474825Y-8227150D02*
X4512920Y-8227150D01*
X4512920Y-8227150D02*
X4531968Y-8236674D01*
X4531968Y-8236674D02*
X4541492Y-8255722D01*
X4541492Y-8255722D02*
X4541492Y-8274769D01*
X4541492Y-8274769D02*
X4446253Y-8293817D01*
X4617682Y-8350960D02*
X4636730Y-8360484D01*
X4636730Y-8360484D02*
X4674825Y-8360484D01*
X4674825Y-8360484D02*
X4693873Y-8350960D01*
X4693873Y-8350960D02*
X4703396Y-8331912D01*
X4703396Y-8331912D02*
X4703396Y-8322388D01*
X4703396Y-8322388D02*
X4693873Y-8303341D01*
X4693873Y-8303341D02*
X4674825Y-8293817D01*
X4674825Y-8293817D02*
X4646253Y-8293817D01*
X4646253Y-8293817D02*
X4627206Y-8284293D01*
X4627206Y-8284293D02*
X4617682Y-8265246D01*
X4617682Y-8265246D02*
X4617682Y-8255722D01*
X4617682Y-8255722D02*
X4627206Y-8236674D01*
X4627206Y-8236674D02*
X4646253Y-8227150D01*
X4646253Y-8227150D02*
X4674825Y-8227150D01*
X4674825Y-8227150D02*
X4693873Y-8236674D01*
X4770063Y-8436674D02*
X4779587Y-8427150D01*
X4779587Y-8427150D02*
X4798634Y-8398579D01*
X4798634Y-8398579D02*
X4808158Y-8379531D01*
X4808158Y-8379531D02*
X4817682Y-8350960D01*
X4817682Y-8350960D02*
X4827206Y-8303341D01*
X4827206Y-8303341D02*
X4827206Y-8265246D01*
X4827206Y-8265246D02*
X4817682Y-8217627D01*
X4817682Y-8217627D02*
X4808158Y-8189055D01*
X4808158Y-8189055D02*
X4798634Y-8170008D01*
X4798634Y-8170008D02*
X4779587Y-8141436D01*
X4779587Y-8141436D02*
X4770063Y-8131912D01*
X5131968Y-8436674D02*
X5122444Y-8427150D01*
X5122444Y-8427150D02*
X5103396Y-8398579D01*
X5103396Y-8398579D02*
X5093873Y-8379531D01*
X5093873Y-8379531D02*
X5084349Y-8350960D01*
X5084349Y-8350960D02*
X5074825Y-8303341D01*
X5074825Y-8303341D02*
X5074825Y-8265246D01*
X5074825Y-8265246D02*
X5084349Y-8217627D01*
X5084349Y-8217627D02*
X5093873Y-8189055D01*
X5093873Y-8189055D02*
X5103396Y-8170008D01*
X5103396Y-8170008D02*
X5122444Y-8141436D01*
X5122444Y-8141436D02*
X5131968Y-8131912D01*
X5208158Y-8227150D02*
X5208158Y-8360484D01*
X5208158Y-8246198D02*
X5217682Y-8236674D01*
X5217682Y-8236674D02*
X5236730Y-8227150D01*
X5236730Y-8227150D02*
X5265301Y-8227150D01*
X5265301Y-8227150D02*
X5284349Y-8236674D01*
X5284349Y-8236674D02*
X5293873Y-8255722D01*
X5293873Y-8255722D02*
X5293873Y-8360484D01*
X5417682Y-8360484D02*
X5398634Y-8350960D01*
X5398634Y-8350960D02*
X5389111Y-8341436D01*
X5389111Y-8341436D02*
X5379587Y-8322388D01*
X5379587Y-8322388D02*
X5379587Y-8265246D01*
X5379587Y-8265246D02*
X5389111Y-8246198D01*
X5389111Y-8246198D02*
X5398634Y-8236674D01*
X5398634Y-8236674D02*
X5417682Y-8227150D01*
X5417682Y-8227150D02*
X5446254Y-8227150D01*
X5446254Y-8227150D02*
X5465301Y-8236674D01*
X5465301Y-8236674D02*
X5474825Y-8246198D01*
X5474825Y-8246198D02*
X5484349Y-8265246D01*
X5484349Y-8265246D02*
X5484349Y-8322388D01*
X5484349Y-8322388D02*
X5474825Y-8341436D01*
X5474825Y-8341436D02*
X5465301Y-8350960D01*
X5465301Y-8350960D02*
X5446254Y-8360484D01*
X5446254Y-8360484D02*
X5417682Y-8360484D01*
X5541492Y-8227150D02*
X5617682Y-8227150D01*
X5570063Y-8160484D02*
X5570063Y-8331912D01*
X5570063Y-8331912D02*
X5579587Y-8350960D01*
X5579587Y-8350960D02*
X5598634Y-8360484D01*
X5598634Y-8360484D02*
X5617682Y-8360484D01*
X5836730Y-8227150D02*
X5836730Y-8427150D01*
X5836730Y-8236674D02*
X5855777Y-8227150D01*
X5855777Y-8227150D02*
X5893873Y-8227150D01*
X5893873Y-8227150D02*
X5912920Y-8236674D01*
X5912920Y-8236674D02*
X5922444Y-8246198D01*
X5922444Y-8246198D02*
X5931968Y-8265246D01*
X5931968Y-8265246D02*
X5931968Y-8322388D01*
X5931968Y-8322388D02*
X5922444Y-8341436D01*
X5922444Y-8341436D02*
X5912920Y-8350960D01*
X5912920Y-8350960D02*
X5893873Y-8360484D01*
X5893873Y-8360484D02*
X5855777Y-8360484D01*
X5855777Y-8360484D02*
X5836730Y-8350960D01*
X6046253Y-8360484D02*
X6027206Y-8350960D01*
X6027206Y-8350960D02*
X6017682Y-8331912D01*
X6017682Y-8331912D02*
X6017682Y-8160484D01*
X6208158Y-8360484D02*
X6208158Y-8255722D01*
X6208158Y-8255722D02*
X6198634Y-8236674D01*
X6198634Y-8236674D02*
X6179587Y-8227150D01*
X6179587Y-8227150D02*
X6141492Y-8227150D01*
X6141492Y-8227150D02*
X6122444Y-8236674D01*
X6208158Y-8350960D02*
X6189111Y-8360484D01*
X6189111Y-8360484D02*
X6141492Y-8360484D01*
X6141492Y-8360484D02*
X6122444Y-8350960D01*
X6122444Y-8350960D02*
X6112920Y-8331912D01*
X6112920Y-8331912D02*
X6112920Y-8312865D01*
X6112920Y-8312865D02*
X6122444Y-8293817D01*
X6122444Y-8293817D02*
X6141492Y-8284293D01*
X6141492Y-8284293D02*
X6189111Y-8284293D01*
X6189111Y-8284293D02*
X6208158Y-8274769D01*
X6274825Y-8227150D02*
X6351015Y-8227150D01*
X6303396Y-8160484D02*
X6303396Y-8331912D01*
X6303396Y-8331912D02*
X6312920Y-8350960D01*
X6312920Y-8350960D02*
X6331968Y-8360484D01*
X6331968Y-8360484D02*
X6351015Y-8360484D01*
X6493873Y-8350960D02*
X6474825Y-8360484D01*
X6474825Y-8360484D02*
X6436730Y-8360484D01*
X6436730Y-8360484D02*
X6417682Y-8350960D01*
X6417682Y-8350960D02*
X6408158Y-8331912D01*
X6408158Y-8331912D02*
X6408158Y-8255722D01*
X6408158Y-8255722D02*
X6417682Y-8236674D01*
X6417682Y-8236674D02*
X6436730Y-8227150D01*
X6436730Y-8227150D02*
X6474825Y-8227150D01*
X6474825Y-8227150D02*
X6493873Y-8236674D01*
X6493873Y-8236674D02*
X6503396Y-8255722D01*
X6503396Y-8255722D02*
X6503396Y-8274769D01*
X6503396Y-8274769D02*
X6408158Y-8293817D01*
X6674825Y-8360484D02*
X6674825Y-8160484D01*
X6674825Y-8350960D02*
X6655777Y-8360484D01*
X6655777Y-8360484D02*
X6617682Y-8360484D01*
X6617682Y-8360484D02*
X6598634Y-8350960D01*
X6598634Y-8350960D02*
X6589111Y-8341436D01*
X6589111Y-8341436D02*
X6579587Y-8322388D01*
X6579587Y-8322388D02*
X6579587Y-8265246D01*
X6579587Y-8265246D02*
X6589111Y-8246198D01*
X6589111Y-8246198D02*
X6598634Y-8236674D01*
X6598634Y-8236674D02*
X6617682Y-8227150D01*
X6617682Y-8227150D02*
X6655777Y-8227150D01*
X6655777Y-8227150D02*
X6674825Y-8236674D01*
X6751015Y-8436674D02*
X6760539Y-8427150D01*
X6760539Y-8427150D02*
X6779587Y-8398579D01*
X6779587Y-8398579D02*
X6789111Y-8379531D01*
X6789111Y-8379531D02*
X6798634Y-8350960D01*
X6798634Y-8350960D02*
X6808158Y-8303341D01*
X6808158Y-8303341D02*
X6808158Y-8265246D01*
X6808158Y-8265246D02*
X6798634Y-8217627D01*
X6798634Y-8217627D02*
X6789111Y-8189055D01*
X6789111Y-8189055D02*
X6779587Y-8170008D01*
X6779587Y-8170008D02*
X6760539Y-8141436D01*
X6760539Y-8141436D02*
X6751015Y-8131912D01*
X-105000Y-8489000D02*
X-105000Y-8689000D01*
X-205000Y-8589000D02*
X-5000Y-8589000D01*
X351015Y-8480484D02*
X255777Y-8480484D01*
X255777Y-8480484D02*
X246253Y-8575722D01*
X246253Y-8575722D02*
X255777Y-8566198D01*
X255777Y-8566198D02*
X274824Y-8556674D01*
X274824Y-8556674D02*
X322444Y-8556674D01*
X322444Y-8556674D02*
X341491Y-8566198D01*
X341491Y-8566198D02*
X351015Y-8575722D01*
X351015Y-8575722D02*
X360539Y-8594770D01*
X360539Y-8594770D02*
X360539Y-8642389D01*
X360539Y-8642389D02*
X351015Y-8661436D01*
X351015Y-8661436D02*
X341491Y-8670960D01*
X341491Y-8670960D02*
X322444Y-8680484D01*
X322444Y-8680484D02*
X274824Y-8680484D01*
X274824Y-8680484D02*
X255777Y-8670960D01*
X255777Y-8670960D02*
X246253Y-8661436D01*
X446253Y-8661436D02*
X455777Y-8670960D01*
X455777Y-8670960D02*
X446253Y-8680484D01*
X446253Y-8680484D02*
X436729Y-8670960D01*
X436729Y-8670960D02*
X446253Y-8661436D01*
X446253Y-8661436D02*
X446253Y-8680484D01*
X531967Y-8499531D02*
X541491Y-8490008D01*
X541491Y-8490008D02*
X560539Y-8480484D01*
X560539Y-8480484D02*
X608158Y-8480484D01*
X608158Y-8480484D02*
X627205Y-8490008D01*
X627205Y-8490008D02*
X636729Y-8499531D01*
X636729Y-8499531D02*
X646253Y-8518579D01*
X646253Y-8518579D02*
X646253Y-8537627D01*
X646253Y-8537627D02*
X636729Y-8566198D01*
X636729Y-8566198D02*
X522443Y-8680484D01*
X522443Y-8680484D02*
X646253Y-8680484D01*
X827205Y-8480484D02*
X731967Y-8480484D01*
X731967Y-8480484D02*
X722443Y-8575722D01*
X722443Y-8575722D02*
X731967Y-8566198D01*
X731967Y-8566198D02*
X751015Y-8556674D01*
X751015Y-8556674D02*
X798634Y-8556674D01*
X798634Y-8556674D02*
X817682Y-8566198D01*
X817682Y-8566198D02*
X827205Y-8575722D01*
X827205Y-8575722D02*
X836729Y-8594770D01*
X836729Y-8594770D02*
X836729Y-8642389D01*
X836729Y-8642389D02*
X827205Y-8661436D01*
X827205Y-8661436D02*
X817682Y-8670960D01*
X817682Y-8670960D02*
X798634Y-8680484D01*
X798634Y-8680484D02*
X751015Y-8680484D01*
X751015Y-8680484D02*
X731967Y-8670960D01*
X731967Y-8670960D02*
X722443Y-8661436D01*
X960539Y-8480484D02*
X979586Y-8480484D01*
X979586Y-8480484D02*
X998634Y-8490008D01*
X998634Y-8490008D02*
X1008158Y-8499531D01*
X1008158Y-8499531D02*
X1017682Y-8518579D01*
X1017682Y-8518579D02*
X1027205Y-8556674D01*
X1027205Y-8556674D02*
X1027205Y-8604293D01*
X1027205Y-8604293D02*
X1017682Y-8642389D01*
X1017682Y-8642389D02*
X1008158Y-8661436D01*
X1008158Y-8661436D02*
X998634Y-8670960D01*
X998634Y-8670960D02*
X979586Y-8680484D01*
X979586Y-8680484D02*
X960539Y-8680484D01*
X960539Y-8680484D02*
X941491Y-8670960D01*
X941491Y-8670960D02*
X931967Y-8661436D01*
X931967Y-8661436D02*
X922443Y-8642389D01*
X922443Y-8642389D02*
X912920Y-8604293D01*
X912920Y-8604293D02*
X912920Y-8556674D01*
X912920Y-8556674D02*
X922443Y-8518579D01*
X922443Y-8518579D02*
X931967Y-8499531D01*
X931967Y-8499531D02*
X941491Y-8490008D01*
X941491Y-8490008D02*
X960539Y-8480484D01*
X1112920Y-8680484D02*
X1112920Y-8547150D01*
X1112920Y-8566198D02*
X1122444Y-8556674D01*
X1122444Y-8556674D02*
X1141491Y-8547150D01*
X1141491Y-8547150D02*
X1170063Y-8547150D01*
X1170063Y-8547150D02*
X1189110Y-8556674D01*
X1189110Y-8556674D02*
X1198634Y-8575722D01*
X1198634Y-8575722D02*
X1198634Y-8680484D01*
X1198634Y-8575722D02*
X1208158Y-8556674D01*
X1208158Y-8556674D02*
X1227205Y-8547150D01*
X1227205Y-8547150D02*
X1255777Y-8547150D01*
X1255777Y-8547150D02*
X1274825Y-8556674D01*
X1274825Y-8556674D02*
X1284348Y-8575722D01*
X1284348Y-8575722D02*
X1284348Y-8680484D01*
X1379586Y-8680484D02*
X1379586Y-8547150D01*
X1379586Y-8566198D02*
X1389110Y-8556674D01*
X1389110Y-8556674D02*
X1408158Y-8547150D01*
X1408158Y-8547150D02*
X1436729Y-8547150D01*
X1436729Y-8547150D02*
X1455777Y-8556674D01*
X1455777Y-8556674D02*
X1465301Y-8575722D01*
X1465301Y-8575722D02*
X1465301Y-8680484D01*
X1465301Y-8575722D02*
X1474824Y-8556674D01*
X1474824Y-8556674D02*
X1493872Y-8547150D01*
X1493872Y-8547150D02*
X1522443Y-8547150D01*
X1522443Y-8547150D02*
X1541491Y-8556674D01*
X1541491Y-8556674D02*
X1551015Y-8575722D01*
X1551015Y-8575722D02*
X1551015Y-8680484D01*
X1941491Y-8470960D02*
X1770063Y-8728103D01*
X2198634Y-8480484D02*
X2217682Y-8480484D01*
X2217682Y-8480484D02*
X2236729Y-8490008D01*
X2236729Y-8490008D02*
X2246253Y-8499531D01*
X2246253Y-8499531D02*
X2255777Y-8518579D01*
X2255777Y-8518579D02*
X2265301Y-8556674D01*
X2265301Y-8556674D02*
X2265301Y-8604293D01*
X2265301Y-8604293D02*
X2255777Y-8642389D01*
X2255777Y-8642389D02*
X2246253Y-8661436D01*
X2246253Y-8661436D02*
X2236729Y-8670960D01*
X2236729Y-8670960D02*
X2217682Y-8680484D01*
X2217682Y-8680484D02*
X2198634Y-8680484D01*
X2198634Y-8680484D02*
X2179587Y-8670960D01*
X2179587Y-8670960D02*
X2170063Y-8661436D01*
X2170063Y-8661436D02*
X2160539Y-8642389D01*
X2160539Y-8642389D02*
X2151015Y-8604293D01*
X2151015Y-8604293D02*
X2151015Y-8556674D01*
X2151015Y-8556674D02*
X2160539Y-8518579D01*
X2160539Y-8518579D02*
X2170063Y-8499531D01*
X2170063Y-8499531D02*
X2179587Y-8490008D01*
X2179587Y-8490008D02*
X2198634Y-8480484D01*
X2351015Y-8661436D02*
X2360539Y-8670960D01*
X2360539Y-8670960D02*
X2351015Y-8680484D01*
X2351015Y-8680484D02*
X2341491Y-8670960D01*
X2341491Y-8670960D02*
X2351015Y-8661436D01*
X2351015Y-8661436D02*
X2351015Y-8680484D01*
X2436729Y-8499531D02*
X2446253Y-8490008D01*
X2446253Y-8490008D02*
X2465301Y-8480484D01*
X2465301Y-8480484D02*
X2512920Y-8480484D01*
X2512920Y-8480484D02*
X2531968Y-8490008D01*
X2531968Y-8490008D02*
X2541491Y-8499531D01*
X2541491Y-8499531D02*
X2551015Y-8518579D01*
X2551015Y-8518579D02*
X2551015Y-8537627D01*
X2551015Y-8537627D02*
X2541491Y-8566198D01*
X2541491Y-8566198D02*
X2427206Y-8680484D01*
X2427206Y-8680484D02*
X2551015Y-8680484D01*
X2674825Y-8480484D02*
X2693872Y-8480484D01*
X2693872Y-8480484D02*
X2712920Y-8490008D01*
X2712920Y-8490008D02*
X2722444Y-8499531D01*
X2722444Y-8499531D02*
X2731968Y-8518579D01*
X2731968Y-8518579D02*
X2741491Y-8556674D01*
X2741491Y-8556674D02*
X2741491Y-8604293D01*
X2741491Y-8604293D02*
X2731968Y-8642389D01*
X2731968Y-8642389D02*
X2722444Y-8661436D01*
X2722444Y-8661436D02*
X2712920Y-8670960D01*
X2712920Y-8670960D02*
X2693872Y-8680484D01*
X2693872Y-8680484D02*
X2674825Y-8680484D01*
X2674825Y-8680484D02*
X2655777Y-8670960D01*
X2655777Y-8670960D02*
X2646253Y-8661436D01*
X2646253Y-8661436D02*
X2636729Y-8642389D01*
X2636729Y-8642389D02*
X2627206Y-8604293D01*
X2627206Y-8604293D02*
X2627206Y-8556674D01*
X2627206Y-8556674D02*
X2636729Y-8518579D01*
X2636729Y-8518579D02*
X2646253Y-8499531D01*
X2646253Y-8499531D02*
X2655777Y-8490008D01*
X2655777Y-8490008D02*
X2674825Y-8480484D01*
X2912920Y-8480484D02*
X2874825Y-8480484D01*
X2874825Y-8480484D02*
X2855777Y-8490008D01*
X2855777Y-8490008D02*
X2846253Y-8499531D01*
X2846253Y-8499531D02*
X2827206Y-8528103D01*
X2827206Y-8528103D02*
X2817682Y-8566198D01*
X2817682Y-8566198D02*
X2817682Y-8642389D01*
X2817682Y-8642389D02*
X2827206Y-8661436D01*
X2827206Y-8661436D02*
X2836729Y-8670960D01*
X2836729Y-8670960D02*
X2855777Y-8680484D01*
X2855777Y-8680484D02*
X2893872Y-8680484D01*
X2893872Y-8680484D02*
X2912920Y-8670960D01*
X2912920Y-8670960D02*
X2922444Y-8661436D01*
X2922444Y-8661436D02*
X2931967Y-8642389D01*
X2931967Y-8642389D02*
X2931967Y-8594770D01*
X2931967Y-8594770D02*
X2922444Y-8575722D01*
X2922444Y-8575722D02*
X2912920Y-8566198D01*
X2912920Y-8566198D02*
X2893872Y-8556674D01*
X2893872Y-8556674D02*
X2855777Y-8556674D01*
X2855777Y-8556674D02*
X2836729Y-8566198D01*
X2836729Y-8566198D02*
X2827206Y-8575722D01*
X2827206Y-8575722D02*
X2817682Y-8594770D01*
X2998634Y-8480484D02*
X3131967Y-8480484D01*
X3131967Y-8480484D02*
X3046253Y-8680484D01*
X3198634Y-8480484D02*
X3198634Y-8518579D01*
X3274825Y-8480484D02*
X3274825Y-8518579D01*
X3570063Y-8756674D02*
X3560539Y-8747150D01*
X3560539Y-8747150D02*
X3541491Y-8718579D01*
X3541491Y-8718579D02*
X3531968Y-8699531D01*
X3531968Y-8699531D02*
X3522444Y-8670960D01*
X3522444Y-8670960D02*
X3512920Y-8623341D01*
X3512920Y-8623341D02*
X3512920Y-8585246D01*
X3512920Y-8585246D02*
X3522444Y-8537627D01*
X3522444Y-8537627D02*
X3531968Y-8509055D01*
X3531968Y-8509055D02*
X3541491Y-8490008D01*
X3541491Y-8490008D02*
X3560539Y-8461436D01*
X3560539Y-8461436D02*
X3570063Y-8451912D01*
X3751015Y-8680484D02*
X3636729Y-8680484D01*
X3693872Y-8680484D02*
X3693872Y-8480484D01*
X3693872Y-8480484D02*
X3674825Y-8509055D01*
X3674825Y-8509055D02*
X3655777Y-8528103D01*
X3655777Y-8528103D02*
X3636729Y-8537627D01*
X3922444Y-8480484D02*
X3884348Y-8480484D01*
X3884348Y-8480484D02*
X3865301Y-8490008D01*
X3865301Y-8490008D02*
X3855777Y-8499531D01*
X3855777Y-8499531D02*
X3836729Y-8528103D01*
X3836729Y-8528103D02*
X3827206Y-8566198D01*
X3827206Y-8566198D02*
X3827206Y-8642389D01*
X3827206Y-8642389D02*
X3836729Y-8661436D01*
X3836729Y-8661436D02*
X3846253Y-8670960D01*
X3846253Y-8670960D02*
X3865301Y-8680484D01*
X3865301Y-8680484D02*
X3903396Y-8680484D01*
X3903396Y-8680484D02*
X3922444Y-8670960D01*
X3922444Y-8670960D02*
X3931968Y-8661436D01*
X3931968Y-8661436D02*
X3941491Y-8642389D01*
X3941491Y-8642389D02*
X3941491Y-8594770D01*
X3941491Y-8594770D02*
X3931968Y-8575722D01*
X3931968Y-8575722D02*
X3922444Y-8566198D01*
X3922444Y-8566198D02*
X3903396Y-8556674D01*
X3903396Y-8556674D02*
X3865301Y-8556674D01*
X3865301Y-8556674D02*
X3846253Y-8566198D01*
X3846253Y-8566198D02*
X3836729Y-8575722D01*
X3836729Y-8575722D02*
X3827206Y-8594770D01*
X4179587Y-8680484D02*
X4179587Y-8480484D01*
X4265301Y-8680484D02*
X4265301Y-8575722D01*
X4265301Y-8575722D02*
X4255777Y-8556674D01*
X4255777Y-8556674D02*
X4236730Y-8547150D01*
X4236730Y-8547150D02*
X4208158Y-8547150D01*
X4208158Y-8547150D02*
X4189110Y-8556674D01*
X4189110Y-8556674D02*
X4179587Y-8566198D01*
X4389111Y-8680484D02*
X4370063Y-8670960D01*
X4370063Y-8670960D02*
X4360539Y-8661436D01*
X4360539Y-8661436D02*
X4351015Y-8642389D01*
X4351015Y-8642389D02*
X4351015Y-8585246D01*
X4351015Y-8585246D02*
X4360539Y-8566198D01*
X4360539Y-8566198D02*
X4370063Y-8556674D01*
X4370063Y-8556674D02*
X4389111Y-8547150D01*
X4389111Y-8547150D02*
X4417682Y-8547150D01*
X4417682Y-8547150D02*
X4436730Y-8556674D01*
X4436730Y-8556674D02*
X4446253Y-8566198D01*
X4446253Y-8566198D02*
X4455777Y-8585246D01*
X4455777Y-8585246D02*
X4455777Y-8642389D01*
X4455777Y-8642389D02*
X4446253Y-8661436D01*
X4446253Y-8661436D02*
X4436730Y-8670960D01*
X4436730Y-8670960D02*
X4417682Y-8680484D01*
X4417682Y-8680484D02*
X4389111Y-8680484D01*
X4570063Y-8680484D02*
X4551015Y-8670960D01*
X4551015Y-8670960D02*
X4541492Y-8651912D01*
X4541492Y-8651912D02*
X4541492Y-8480484D01*
X4722444Y-8670960D02*
X4703396Y-8680484D01*
X4703396Y-8680484D02*
X4665301Y-8680484D01*
X4665301Y-8680484D02*
X4646253Y-8670960D01*
X4646253Y-8670960D02*
X4636730Y-8651912D01*
X4636730Y-8651912D02*
X4636730Y-8575722D01*
X4636730Y-8575722D02*
X4646253Y-8556674D01*
X4646253Y-8556674D02*
X4665301Y-8547150D01*
X4665301Y-8547150D02*
X4703396Y-8547150D01*
X4703396Y-8547150D02*
X4722444Y-8556674D01*
X4722444Y-8556674D02*
X4731968Y-8575722D01*
X4731968Y-8575722D02*
X4731968Y-8594770D01*
X4731968Y-8594770D02*
X4636730Y-8613817D01*
X4808158Y-8670960D02*
X4827206Y-8680484D01*
X4827206Y-8680484D02*
X4865301Y-8680484D01*
X4865301Y-8680484D02*
X4884349Y-8670960D01*
X4884349Y-8670960D02*
X4893873Y-8651912D01*
X4893873Y-8651912D02*
X4893873Y-8642389D01*
X4893873Y-8642389D02*
X4884349Y-8623341D01*
X4884349Y-8623341D02*
X4865301Y-8613817D01*
X4865301Y-8613817D02*
X4836730Y-8613817D01*
X4836730Y-8613817D02*
X4817682Y-8604293D01*
X4817682Y-8604293D02*
X4808158Y-8585246D01*
X4808158Y-8585246D02*
X4808158Y-8575722D01*
X4808158Y-8575722D02*
X4817682Y-8556674D01*
X4817682Y-8556674D02*
X4836730Y-8547150D01*
X4836730Y-8547150D02*
X4865301Y-8547150D01*
X4865301Y-8547150D02*
X4884349Y-8556674D01*
X4960539Y-8756674D02*
X4970063Y-8747150D01*
X4970063Y-8747150D02*
X4989111Y-8718579D01*
X4989111Y-8718579D02*
X4998634Y-8699531D01*
X4998634Y-8699531D02*
X5008158Y-8670960D01*
X5008158Y-8670960D02*
X5017682Y-8623341D01*
X5017682Y-8623341D02*
X5017682Y-8585246D01*
X5017682Y-8585246D02*
X5008158Y-8537627D01*
X5008158Y-8537627D02*
X4998634Y-8509055D01*
X4998634Y-8509055D02*
X4989111Y-8490008D01*
X4989111Y-8490008D02*
X4970063Y-8461436D01*
X4970063Y-8461436D02*
X4960539Y-8451912D01*
X5322444Y-8756674D02*
X5312920Y-8747150D01*
X5312920Y-8747150D02*
X5293873Y-8718579D01*
X5293873Y-8718579D02*
X5284349Y-8699531D01*
X5284349Y-8699531D02*
X5274825Y-8670960D01*
X5274825Y-8670960D02*
X5265301Y-8623341D01*
X5265301Y-8623341D02*
X5265301Y-8585246D01*
X5265301Y-8585246D02*
X5274825Y-8537627D01*
X5274825Y-8537627D02*
X5284349Y-8509055D01*
X5284349Y-8509055D02*
X5293873Y-8490008D01*
X5293873Y-8490008D02*
X5312920Y-8461436D01*
X5312920Y-8461436D02*
X5322444Y-8451912D01*
X5398634Y-8547150D02*
X5398634Y-8680484D01*
X5398634Y-8566198D02*
X5408158Y-8556674D01*
X5408158Y-8556674D02*
X5427206Y-8547150D01*
X5427206Y-8547150D02*
X5455777Y-8547150D01*
X5455777Y-8547150D02*
X5474825Y-8556674D01*
X5474825Y-8556674D02*
X5484349Y-8575722D01*
X5484349Y-8575722D02*
X5484349Y-8680484D01*
X5608158Y-8680484D02*
X5589111Y-8670960D01*
X5589111Y-8670960D02*
X5579587Y-8661436D01*
X5579587Y-8661436D02*
X5570063Y-8642389D01*
X5570063Y-8642389D02*
X5570063Y-8585246D01*
X5570063Y-8585246D02*
X5579587Y-8566198D01*
X5579587Y-8566198D02*
X5589111Y-8556674D01*
X5589111Y-8556674D02*
X5608158Y-8547150D01*
X5608158Y-8547150D02*
X5636730Y-8547150D01*
X5636730Y-8547150D02*
X5655777Y-8556674D01*
X5655777Y-8556674D02*
X5665301Y-8566198D01*
X5665301Y-8566198D02*
X5674825Y-8585246D01*
X5674825Y-8585246D02*
X5674825Y-8642389D01*
X5674825Y-8642389D02*
X5665301Y-8661436D01*
X5665301Y-8661436D02*
X5655777Y-8670960D01*
X5655777Y-8670960D02*
X5636730Y-8680484D01*
X5636730Y-8680484D02*
X5608158Y-8680484D01*
X5731968Y-8547150D02*
X5808158Y-8547150D01*
X5760539Y-8480484D02*
X5760539Y-8651912D01*
X5760539Y-8651912D02*
X5770063Y-8670960D01*
X5770063Y-8670960D02*
X5789111Y-8680484D01*
X5789111Y-8680484D02*
X5808158Y-8680484D01*
X6027206Y-8547150D02*
X6027206Y-8747150D01*
X6027206Y-8556674D02*
X6046253Y-8547150D01*
X6046253Y-8547150D02*
X6084349Y-8547150D01*
X6084349Y-8547150D02*
X6103396Y-8556674D01*
X6103396Y-8556674D02*
X6112920Y-8566198D01*
X6112920Y-8566198D02*
X6122444Y-8585246D01*
X6122444Y-8585246D02*
X6122444Y-8642389D01*
X6122444Y-8642389D02*
X6112920Y-8661436D01*
X6112920Y-8661436D02*
X6103396Y-8670960D01*
X6103396Y-8670960D02*
X6084349Y-8680484D01*
X6084349Y-8680484D02*
X6046253Y-8680484D01*
X6046253Y-8680484D02*
X6027206Y-8670960D01*
X6236730Y-8680484D02*
X6217682Y-8670960D01*
X6217682Y-8670960D02*
X6208158Y-8651912D01*
X6208158Y-8651912D02*
X6208158Y-8480484D01*
X6398634Y-8680484D02*
X6398634Y-8575722D01*
X6398634Y-8575722D02*
X6389111Y-8556674D01*
X6389111Y-8556674D02*
X6370063Y-8547150D01*
X6370063Y-8547150D02*
X6331968Y-8547150D01*
X6331968Y-8547150D02*
X6312920Y-8556674D01*
X6398634Y-8670960D02*
X6379587Y-8680484D01*
X6379587Y-8680484D02*
X6331968Y-8680484D01*
X6331968Y-8680484D02*
X6312920Y-8670960D01*
X6312920Y-8670960D02*
X6303396Y-8651912D01*
X6303396Y-8651912D02*
X6303396Y-8632865D01*
X6303396Y-8632865D02*
X6312920Y-8613817D01*
X6312920Y-8613817D02*
X6331968Y-8604293D01*
X6331968Y-8604293D02*
X6379587Y-8604293D01*
X6379587Y-8604293D02*
X6398634Y-8594770D01*
X6465301Y-8547150D02*
X6541492Y-8547150D01*
X6493873Y-8480484D02*
X6493873Y-8651912D01*
X6493873Y-8651912D02*
X6503396Y-8670960D01*
X6503396Y-8670960D02*
X6522444Y-8680484D01*
X6522444Y-8680484D02*
X6541492Y-8680484D01*
X6684349Y-8670960D02*
X6665301Y-8680484D01*
X6665301Y-8680484D02*
X6627206Y-8680484D01*
X6627206Y-8680484D02*
X6608158Y-8670960D01*
X6608158Y-8670960D02*
X6598634Y-8651912D01*
X6598634Y-8651912D02*
X6598634Y-8575722D01*
X6598634Y-8575722D02*
X6608158Y-8556674D01*
X6608158Y-8556674D02*
X6627206Y-8547150D01*
X6627206Y-8547150D02*
X6665301Y-8547150D01*
X6665301Y-8547150D02*
X6684349Y-8556674D01*
X6684349Y-8556674D02*
X6693873Y-8575722D01*
X6693873Y-8575722D02*
X6693873Y-8594770D01*
X6693873Y-8594770D02*
X6598634Y-8613817D01*
X6865301Y-8680484D02*
X6865301Y-8480484D01*
X6865301Y-8670960D02*
X6846254Y-8680484D01*
X6846254Y-8680484D02*
X6808158Y-8680484D01*
X6808158Y-8680484D02*
X6789111Y-8670960D01*
X6789111Y-8670960D02*
X6779587Y-8661436D01*
X6779587Y-8661436D02*
X6770063Y-8642389D01*
X6770063Y-8642389D02*
X6770063Y-8585246D01*
X6770063Y-8585246D02*
X6779587Y-8566198D01*
X6779587Y-8566198D02*
X6789111Y-8556674D01*
X6789111Y-8556674D02*
X6808158Y-8547150D01*
X6808158Y-8547150D02*
X6846254Y-8547150D01*
X6846254Y-8547150D02*
X6865301Y-8556674D01*
X6941492Y-8756674D02*
X6951015Y-8747150D01*
X6951015Y-8747150D02*
X6970063Y-8718579D01*
X6970063Y-8718579D02*
X6979587Y-8699531D01*
X6979587Y-8699531D02*
X6989111Y-8670960D01*
X6989111Y-8670960D02*
X6998634Y-8623341D01*
X6998634Y-8623341D02*
X6998634Y-8585246D01*
X6998634Y-8585246D02*
X6989111Y-8537627D01*
X6989111Y-8537627D02*
X6979587Y-8509055D01*
X6979587Y-8509055D02*
X6970063Y-8490008D01*
X6970063Y-8490008D02*
X6951015Y-8461436D01*
X6951015Y-8461436D02*
X6941492Y-8451912D01*
M02*
