%TF.GenerationSoftware,KiCad,Pcbnew,7.0.10*%
%TF.CreationDate,2024-04-29T20:55:19+02:00*%
%TF.ProjectId,Mathboard,4d617468-626f-4617-9264-2e6b69636164,rev?*%
%TF.SameCoordinates,Original*%
%TF.FileFunction,Soldermask,Top*%
%TF.FilePolarity,Negative*%
%FSLAX46Y46*%
G04 Gerber Fmt 4.6, Leading zero omitted, Abs format (unit mm)*
G04 Created by KiCad (PCBNEW 7.0.10) date 2024-04-29 20:55:19*
%MOMM*%
%LPD*%
G01*
G04 APERTURE LIST*
%ADD10C,5.250000*%
%ADD11C,2.700000*%
%ADD12R,1.700000X1.700000*%
%ADD13O,1.700000X1.700000*%
%ADD14C,1.397000*%
G04 APERTURE END LIST*
D10*
%TO.C,SW16*%
X163600000Y-108000000D03*
%TD*%
%TO.C,SW15*%
X135000000Y-108000000D03*
%TD*%
%TO.C,SW14*%
X168300000Y-89000000D03*
%TD*%
%TO.C,SW13*%
X149300000Y-89000000D03*
%TD*%
%TO.C,SW12*%
X130300000Y-89000000D03*
%TD*%
%TO.C,SW11*%
X111300000Y-89000000D03*
%TD*%
%TO.C,SW10*%
X92300000Y-89000000D03*
%TD*%
%TO.C,SW9*%
X160300000Y-70000000D03*
%TD*%
%TO.C,SW8*%
X141300000Y-70000000D03*
%TD*%
%TO.C,SW7*%
X122300000Y-70000000D03*
%TD*%
%TO.C,SW6*%
X103300000Y-70000000D03*
%TD*%
%TO.C,SW5*%
X171300000Y-51000000D03*
%TD*%
%TO.C,SW4*%
X152208000Y-51000000D03*
%TD*%
%TO.C,SW3*%
X133300000Y-51000000D03*
%TD*%
%TO.C,SW2*%
X114300000Y-51000000D03*
%TD*%
%TO.C,SW1*%
X95300000Y-51000000D03*
%TD*%
D11*
%TO.C,H2*%
X88000000Y-64000000D03*
%TD*%
%TO.C,H1*%
X175600000Y-64000000D03*
%TD*%
%TO.C,H3*%
X114000000Y-112300000D03*
%TD*%
D12*
%TO.C,J1*%
X174680000Y-43360000D03*
D13*
X172140000Y-43360000D03*
X169600000Y-43360000D03*
X167060000Y-43360000D03*
X164520000Y-43360000D03*
X161980000Y-43360000D03*
X159440000Y-43360000D03*
X156900000Y-43360000D03*
X154360000Y-43360000D03*
X151820000Y-43360000D03*
X149280000Y-43360000D03*
X146740000Y-43360000D03*
%TD*%
D12*
%TO.C,J2*%
X174680000Y-58600000D03*
D13*
X172140000Y-58600000D03*
X169600000Y-58600000D03*
X167060000Y-58600000D03*
X164520000Y-58600000D03*
X161980000Y-58600000D03*
X159440000Y-58600000D03*
X156900000Y-58600000D03*
X154360000Y-58600000D03*
X151820000Y-58600000D03*
X149280000Y-58600000D03*
X146740000Y-58600000D03*
%TD*%
D12*
%TO.C,J4*%
X144200000Y-58600000D03*
D13*
X144200000Y-56060000D03*
X144200000Y-53520000D03*
X144200000Y-50980000D03*
X144200000Y-48440000D03*
X144200000Y-45900000D03*
X144200000Y-43360000D03*
%TD*%
D14*
%TO.C,SW17*%
X130799999Y-43897500D03*
X135800000Y-43897500D03*
%TD*%
M02*
