%TF.GenerationSoftware,KiCad,Pcbnew,7.0.8*%
%TF.CreationDate,2023-11-29T19:26:30+01:00*%
%TF.ProjectId,Mathboard,4d617468-626f-4617-9264-2e6b69636164,rev?*%
%TF.SameCoordinates,Original*%
%TF.FileFunction,Drillmap*%
%TF.FilePolarity,Positive*%
%FSLAX45Y45*%
G04 Gerber Fmt 4.5, Leading zero omitted, Abs format (unit mm)*
G04 Created by KiCad (PCBNEW 7.0.8) date 2023-11-29 19:26:30*
%MOMM*%
%LPD*%
G01*
G04 APERTURE LIST*
%ADD10C,0.100000*%
%ADD11C,0.200000*%
%ADD12C,0.220000*%
%ADD13C,0.525000*%
G04 APERTURE END LIST*
D10*
X8400001Y-10818579D02*
G75*
G03*
X8429289Y-10889289I99999J-1D01*
G01*
X17930711Y-10889290D02*
G75*
G03*
X17960000Y-10818579I-70711J70710D01*
G01*
X17930711Y-10889289D02*
X17219289Y-11600711D01*
X8500000Y-4200000D02*
X17860000Y-4200000D01*
X8500000Y-4200000D02*
G75*
G03*
X8400000Y-4300000I0J-100000D01*
G01*
X17148579Y-11630000D02*
X9211421Y-11630000D01*
X9140712Y-11600709D02*
G75*
G03*
X9211421Y-11630000I70708J70699D01*
G01*
X9140711Y-11600711D02*
X8429289Y-10889289D01*
X17960000Y-4300000D02*
X17960000Y-10818579D01*
X8400000Y-10818579D02*
X8400000Y-4300000D01*
X17148579Y-11629999D02*
G75*
G03*
X17219289Y-11600711I1J99999D01*
G01*
X17960000Y-4300000D02*
G75*
G03*
X17860000Y-4200000I-100000J0D01*
G01*
D11*
D12*
X8690000Y-6290000D02*
X8910000Y-6510000D01*
X8910000Y-6290000D02*
X8690000Y-6510000D01*
X11290000Y-11120000D02*
X11510000Y-11340000D01*
X11510000Y-11120000D02*
X11290000Y-11340000D01*
X17450000Y-6290000D02*
X17670000Y-6510000D01*
X17670000Y-6290000D02*
X17450000Y-6510000D01*
D13*
X9492500Y-8900000D02*
G75*
G03*
X9492500Y-8900000I-262500J0D01*
G01*
X9792500Y-5100000D02*
G75*
G03*
X9792500Y-5100000I-262500J0D01*
G01*
X10592500Y-7000000D02*
G75*
G03*
X10592500Y-7000000I-262500J0D01*
G01*
X11392500Y-8900000D02*
G75*
G03*
X11392500Y-8900000I-262500J0D01*
G01*
X11692500Y-5100000D02*
G75*
G03*
X11692500Y-5100000I-262500J0D01*
G01*
X12492500Y-7000000D02*
G75*
G03*
X12492500Y-7000000I-262500J0D01*
G01*
X13292500Y-8900000D02*
G75*
G03*
X13292500Y-8900000I-262500J0D01*
G01*
X13592500Y-5100000D02*
G75*
G03*
X13592500Y-5100000I-262500J0D01*
G01*
X13762500Y-10800000D02*
G75*
G03*
X13762500Y-10800000I-262500J0D01*
G01*
X14392500Y-7000000D02*
G75*
G03*
X14392500Y-7000000I-262500J0D01*
G01*
X15192500Y-8900000D02*
G75*
G03*
X15192500Y-8900000I-262500J0D01*
G01*
X15483300Y-5100000D02*
G75*
G03*
X15483300Y-5100000I-262500J0D01*
G01*
X16292500Y-7000000D02*
G75*
G03*
X16292500Y-7000000I-262500J0D01*
G01*
X16622500Y-10800000D02*
G75*
G03*
X16622500Y-10800000I-262500J0D01*
G01*
X17092500Y-8900000D02*
G75*
G03*
X17092500Y-8900000I-262500J0D01*
G01*
X17392500Y-5100000D02*
G75*
G03*
X17392500Y-5100000I-262500J0D01*
G01*
D11*
X8655777Y-11946484D02*
X8655777Y-11746484D01*
X8655777Y-11746484D02*
X8703396Y-11746484D01*
X8703396Y-11746484D02*
X8731967Y-11756008D01*
X8731967Y-11756008D02*
X8751015Y-11775055D01*
X8751015Y-11775055D02*
X8760539Y-11794103D01*
X8760539Y-11794103D02*
X8770063Y-11832198D01*
X8770063Y-11832198D02*
X8770063Y-11860769D01*
X8770063Y-11860769D02*
X8760539Y-11898865D01*
X8760539Y-11898865D02*
X8751015Y-11917912D01*
X8751015Y-11917912D02*
X8731967Y-11936960D01*
X8731967Y-11936960D02*
X8703396Y-11946484D01*
X8703396Y-11946484D02*
X8655777Y-11946484D01*
X8855777Y-11946484D02*
X8855777Y-11813150D01*
X8855777Y-11851246D02*
X8865301Y-11832198D01*
X8865301Y-11832198D02*
X8874824Y-11822674D01*
X8874824Y-11822674D02*
X8893872Y-11813150D01*
X8893872Y-11813150D02*
X8912920Y-11813150D01*
X8979586Y-11946484D02*
X8979586Y-11813150D01*
X8979586Y-11746484D02*
X8970063Y-11756008D01*
X8970063Y-11756008D02*
X8979586Y-11765531D01*
X8979586Y-11765531D02*
X8989110Y-11756008D01*
X8989110Y-11756008D02*
X8979586Y-11746484D01*
X8979586Y-11746484D02*
X8979586Y-11765531D01*
X9103396Y-11946484D02*
X9084348Y-11936960D01*
X9084348Y-11936960D02*
X9074824Y-11917912D01*
X9074824Y-11917912D02*
X9074824Y-11746484D01*
X9208158Y-11946484D02*
X9189110Y-11936960D01*
X9189110Y-11936960D02*
X9179586Y-11917912D01*
X9179586Y-11917912D02*
X9179586Y-11746484D01*
X9436729Y-11946484D02*
X9436729Y-11746484D01*
X9436729Y-11746484D02*
X9503396Y-11889341D01*
X9503396Y-11889341D02*
X9570063Y-11746484D01*
X9570063Y-11746484D02*
X9570063Y-11946484D01*
X9751015Y-11946484D02*
X9751015Y-11841722D01*
X9751015Y-11841722D02*
X9741491Y-11822674D01*
X9741491Y-11822674D02*
X9722444Y-11813150D01*
X9722444Y-11813150D02*
X9684348Y-11813150D01*
X9684348Y-11813150D02*
X9665301Y-11822674D01*
X9751015Y-11936960D02*
X9731967Y-11946484D01*
X9731967Y-11946484D02*
X9684348Y-11946484D01*
X9684348Y-11946484D02*
X9665301Y-11936960D01*
X9665301Y-11936960D02*
X9655777Y-11917912D01*
X9655777Y-11917912D02*
X9655777Y-11898865D01*
X9655777Y-11898865D02*
X9665301Y-11879817D01*
X9665301Y-11879817D02*
X9684348Y-11870293D01*
X9684348Y-11870293D02*
X9731967Y-11870293D01*
X9731967Y-11870293D02*
X9751015Y-11860769D01*
X9846253Y-11813150D02*
X9846253Y-12013150D01*
X9846253Y-11822674D02*
X9865301Y-11813150D01*
X9865301Y-11813150D02*
X9903396Y-11813150D01*
X9903396Y-11813150D02*
X9922444Y-11822674D01*
X9922444Y-11822674D02*
X9931967Y-11832198D01*
X9931967Y-11832198D02*
X9941491Y-11851246D01*
X9941491Y-11851246D02*
X9941491Y-11908388D01*
X9941491Y-11908388D02*
X9931967Y-11927436D01*
X9931967Y-11927436D02*
X9922444Y-11936960D01*
X9922444Y-11936960D02*
X9903396Y-11946484D01*
X9903396Y-11946484D02*
X9865301Y-11946484D01*
X9865301Y-11946484D02*
X9846253Y-11936960D01*
X10027205Y-11927436D02*
X10036729Y-11936960D01*
X10036729Y-11936960D02*
X10027205Y-11946484D01*
X10027205Y-11946484D02*
X10017682Y-11936960D01*
X10017682Y-11936960D02*
X10027205Y-11927436D01*
X10027205Y-11927436D02*
X10027205Y-11946484D01*
X10027205Y-11822674D02*
X10036729Y-11832198D01*
X10036729Y-11832198D02*
X10027205Y-11841722D01*
X10027205Y-11841722D02*
X10017682Y-11832198D01*
X10017682Y-11832198D02*
X10027205Y-11822674D01*
X10027205Y-11822674D02*
X10027205Y-11841722D01*
X8195000Y-12175000D02*
X8395000Y-12375000D01*
X8395000Y-12175000D02*
X8195000Y-12375000D01*
X8646253Y-12185531D02*
X8655777Y-12176008D01*
X8655777Y-12176008D02*
X8674824Y-12166484D01*
X8674824Y-12166484D02*
X8722444Y-12166484D01*
X8722444Y-12166484D02*
X8741491Y-12176008D01*
X8741491Y-12176008D02*
X8751015Y-12185531D01*
X8751015Y-12185531D02*
X8760539Y-12204579D01*
X8760539Y-12204579D02*
X8760539Y-12223627D01*
X8760539Y-12223627D02*
X8751015Y-12252198D01*
X8751015Y-12252198D02*
X8636729Y-12366484D01*
X8636729Y-12366484D02*
X8760539Y-12366484D01*
X8846253Y-12347436D02*
X8855777Y-12356960D01*
X8855777Y-12356960D02*
X8846253Y-12366484D01*
X8846253Y-12366484D02*
X8836729Y-12356960D01*
X8836729Y-12356960D02*
X8846253Y-12347436D01*
X8846253Y-12347436D02*
X8846253Y-12366484D01*
X8931967Y-12185531D02*
X8941491Y-12176008D01*
X8941491Y-12176008D02*
X8960539Y-12166484D01*
X8960539Y-12166484D02*
X9008158Y-12166484D01*
X9008158Y-12166484D02*
X9027205Y-12176008D01*
X9027205Y-12176008D02*
X9036729Y-12185531D01*
X9036729Y-12185531D02*
X9046253Y-12204579D01*
X9046253Y-12204579D02*
X9046253Y-12223627D01*
X9046253Y-12223627D02*
X9036729Y-12252198D01*
X9036729Y-12252198D02*
X8922444Y-12366484D01*
X8922444Y-12366484D02*
X9046253Y-12366484D01*
X9170063Y-12166484D02*
X9189110Y-12166484D01*
X9189110Y-12166484D02*
X9208158Y-12176008D01*
X9208158Y-12176008D02*
X9217682Y-12185531D01*
X9217682Y-12185531D02*
X9227205Y-12204579D01*
X9227205Y-12204579D02*
X9236729Y-12242674D01*
X9236729Y-12242674D02*
X9236729Y-12290293D01*
X9236729Y-12290293D02*
X9227205Y-12328388D01*
X9227205Y-12328388D02*
X9217682Y-12347436D01*
X9217682Y-12347436D02*
X9208158Y-12356960D01*
X9208158Y-12356960D02*
X9189110Y-12366484D01*
X9189110Y-12366484D02*
X9170063Y-12366484D01*
X9170063Y-12366484D02*
X9151015Y-12356960D01*
X9151015Y-12356960D02*
X9141491Y-12347436D01*
X9141491Y-12347436D02*
X9131967Y-12328388D01*
X9131967Y-12328388D02*
X9122444Y-12290293D01*
X9122444Y-12290293D02*
X9122444Y-12242674D01*
X9122444Y-12242674D02*
X9131967Y-12204579D01*
X9131967Y-12204579D02*
X9141491Y-12185531D01*
X9141491Y-12185531D02*
X9151015Y-12176008D01*
X9151015Y-12176008D02*
X9170063Y-12166484D01*
X9360539Y-12166484D02*
X9379586Y-12166484D01*
X9379586Y-12166484D02*
X9398634Y-12176008D01*
X9398634Y-12176008D02*
X9408158Y-12185531D01*
X9408158Y-12185531D02*
X9417682Y-12204579D01*
X9417682Y-12204579D02*
X9427205Y-12242674D01*
X9427205Y-12242674D02*
X9427205Y-12290293D01*
X9427205Y-12290293D02*
X9417682Y-12328388D01*
X9417682Y-12328388D02*
X9408158Y-12347436D01*
X9408158Y-12347436D02*
X9398634Y-12356960D01*
X9398634Y-12356960D02*
X9379586Y-12366484D01*
X9379586Y-12366484D02*
X9360539Y-12366484D01*
X9360539Y-12366484D02*
X9341491Y-12356960D01*
X9341491Y-12356960D02*
X9331967Y-12347436D01*
X9331967Y-12347436D02*
X9322444Y-12328388D01*
X9322444Y-12328388D02*
X9312920Y-12290293D01*
X9312920Y-12290293D02*
X9312920Y-12242674D01*
X9312920Y-12242674D02*
X9322444Y-12204579D01*
X9322444Y-12204579D02*
X9331967Y-12185531D01*
X9331967Y-12185531D02*
X9341491Y-12176008D01*
X9341491Y-12176008D02*
X9360539Y-12166484D01*
X9512920Y-12366484D02*
X9512920Y-12233150D01*
X9512920Y-12252198D02*
X9522444Y-12242674D01*
X9522444Y-12242674D02*
X9541491Y-12233150D01*
X9541491Y-12233150D02*
X9570063Y-12233150D01*
X9570063Y-12233150D02*
X9589110Y-12242674D01*
X9589110Y-12242674D02*
X9598634Y-12261722D01*
X9598634Y-12261722D02*
X9598634Y-12366484D01*
X9598634Y-12261722D02*
X9608158Y-12242674D01*
X9608158Y-12242674D02*
X9627205Y-12233150D01*
X9627205Y-12233150D02*
X9655777Y-12233150D01*
X9655777Y-12233150D02*
X9674825Y-12242674D01*
X9674825Y-12242674D02*
X9684348Y-12261722D01*
X9684348Y-12261722D02*
X9684348Y-12366484D01*
X9779586Y-12366484D02*
X9779586Y-12233150D01*
X9779586Y-12252198D02*
X9789110Y-12242674D01*
X9789110Y-12242674D02*
X9808158Y-12233150D01*
X9808158Y-12233150D02*
X9836729Y-12233150D01*
X9836729Y-12233150D02*
X9855777Y-12242674D01*
X9855777Y-12242674D02*
X9865301Y-12261722D01*
X9865301Y-12261722D02*
X9865301Y-12366484D01*
X9865301Y-12261722D02*
X9874825Y-12242674D01*
X9874825Y-12242674D02*
X9893872Y-12233150D01*
X9893872Y-12233150D02*
X9922444Y-12233150D01*
X9922444Y-12233150D02*
X9941491Y-12242674D01*
X9941491Y-12242674D02*
X9951015Y-12261722D01*
X9951015Y-12261722D02*
X9951015Y-12366484D01*
X10341491Y-12156960D02*
X10170063Y-12414103D01*
X10598634Y-12166484D02*
X10617682Y-12166484D01*
X10617682Y-12166484D02*
X10636729Y-12176008D01*
X10636729Y-12176008D02*
X10646253Y-12185531D01*
X10646253Y-12185531D02*
X10655777Y-12204579D01*
X10655777Y-12204579D02*
X10665301Y-12242674D01*
X10665301Y-12242674D02*
X10665301Y-12290293D01*
X10665301Y-12290293D02*
X10655777Y-12328388D01*
X10655777Y-12328388D02*
X10646253Y-12347436D01*
X10646253Y-12347436D02*
X10636729Y-12356960D01*
X10636729Y-12356960D02*
X10617682Y-12366484D01*
X10617682Y-12366484D02*
X10598634Y-12366484D01*
X10598634Y-12366484D02*
X10579587Y-12356960D01*
X10579587Y-12356960D02*
X10570063Y-12347436D01*
X10570063Y-12347436D02*
X10560539Y-12328388D01*
X10560539Y-12328388D02*
X10551015Y-12290293D01*
X10551015Y-12290293D02*
X10551015Y-12242674D01*
X10551015Y-12242674D02*
X10560539Y-12204579D01*
X10560539Y-12204579D02*
X10570063Y-12185531D01*
X10570063Y-12185531D02*
X10579587Y-12176008D01*
X10579587Y-12176008D02*
X10598634Y-12166484D01*
X10751015Y-12347436D02*
X10760539Y-12356960D01*
X10760539Y-12356960D02*
X10751015Y-12366484D01*
X10751015Y-12366484D02*
X10741491Y-12356960D01*
X10741491Y-12356960D02*
X10751015Y-12347436D01*
X10751015Y-12347436D02*
X10751015Y-12366484D01*
X10884348Y-12166484D02*
X10903396Y-12166484D01*
X10903396Y-12166484D02*
X10922444Y-12176008D01*
X10922444Y-12176008D02*
X10931968Y-12185531D01*
X10931968Y-12185531D02*
X10941491Y-12204579D01*
X10941491Y-12204579D02*
X10951015Y-12242674D01*
X10951015Y-12242674D02*
X10951015Y-12290293D01*
X10951015Y-12290293D02*
X10941491Y-12328388D01*
X10941491Y-12328388D02*
X10931968Y-12347436D01*
X10931968Y-12347436D02*
X10922444Y-12356960D01*
X10922444Y-12356960D02*
X10903396Y-12366484D01*
X10903396Y-12366484D02*
X10884348Y-12366484D01*
X10884348Y-12366484D02*
X10865301Y-12356960D01*
X10865301Y-12356960D02*
X10855777Y-12347436D01*
X10855777Y-12347436D02*
X10846253Y-12328388D01*
X10846253Y-12328388D02*
X10836729Y-12290293D01*
X10836729Y-12290293D02*
X10836729Y-12242674D01*
X10836729Y-12242674D02*
X10846253Y-12204579D01*
X10846253Y-12204579D02*
X10855777Y-12185531D01*
X10855777Y-12185531D02*
X10865301Y-12176008D01*
X10865301Y-12176008D02*
X10884348Y-12166484D01*
X11065301Y-12252198D02*
X11046253Y-12242674D01*
X11046253Y-12242674D02*
X11036729Y-12233150D01*
X11036729Y-12233150D02*
X11027206Y-12214103D01*
X11027206Y-12214103D02*
X11027206Y-12204579D01*
X11027206Y-12204579D02*
X11036729Y-12185531D01*
X11036729Y-12185531D02*
X11046253Y-12176008D01*
X11046253Y-12176008D02*
X11065301Y-12166484D01*
X11065301Y-12166484D02*
X11103396Y-12166484D01*
X11103396Y-12166484D02*
X11122444Y-12176008D01*
X11122444Y-12176008D02*
X11131968Y-12185531D01*
X11131968Y-12185531D02*
X11141491Y-12204579D01*
X11141491Y-12204579D02*
X11141491Y-12214103D01*
X11141491Y-12214103D02*
X11131968Y-12233150D01*
X11131968Y-12233150D02*
X11122444Y-12242674D01*
X11122444Y-12242674D02*
X11103396Y-12252198D01*
X11103396Y-12252198D02*
X11065301Y-12252198D01*
X11065301Y-12252198D02*
X11046253Y-12261722D01*
X11046253Y-12261722D02*
X11036729Y-12271246D01*
X11036729Y-12271246D02*
X11027206Y-12290293D01*
X11027206Y-12290293D02*
X11027206Y-12328388D01*
X11027206Y-12328388D02*
X11036729Y-12347436D01*
X11036729Y-12347436D02*
X11046253Y-12356960D01*
X11046253Y-12356960D02*
X11065301Y-12366484D01*
X11065301Y-12366484D02*
X11103396Y-12366484D01*
X11103396Y-12366484D02*
X11122444Y-12356960D01*
X11122444Y-12356960D02*
X11131968Y-12347436D01*
X11131968Y-12347436D02*
X11141491Y-12328388D01*
X11141491Y-12328388D02*
X11141491Y-12290293D01*
X11141491Y-12290293D02*
X11131968Y-12271246D01*
X11131968Y-12271246D02*
X11122444Y-12261722D01*
X11122444Y-12261722D02*
X11103396Y-12252198D01*
X11312920Y-12166484D02*
X11274825Y-12166484D01*
X11274825Y-12166484D02*
X11255777Y-12176008D01*
X11255777Y-12176008D02*
X11246253Y-12185531D01*
X11246253Y-12185531D02*
X11227206Y-12214103D01*
X11227206Y-12214103D02*
X11217682Y-12252198D01*
X11217682Y-12252198D02*
X11217682Y-12328388D01*
X11217682Y-12328388D02*
X11227206Y-12347436D01*
X11227206Y-12347436D02*
X11236729Y-12356960D01*
X11236729Y-12356960D02*
X11255777Y-12366484D01*
X11255777Y-12366484D02*
X11293872Y-12366484D01*
X11293872Y-12366484D02*
X11312920Y-12356960D01*
X11312920Y-12356960D02*
X11322444Y-12347436D01*
X11322444Y-12347436D02*
X11331967Y-12328388D01*
X11331967Y-12328388D02*
X11331967Y-12280769D01*
X11331967Y-12280769D02*
X11322444Y-12261722D01*
X11322444Y-12261722D02*
X11312920Y-12252198D01*
X11312920Y-12252198D02*
X11293872Y-12242674D01*
X11293872Y-12242674D02*
X11255777Y-12242674D01*
X11255777Y-12242674D02*
X11236729Y-12252198D01*
X11236729Y-12252198D02*
X11227206Y-12261722D01*
X11227206Y-12261722D02*
X11217682Y-12280769D01*
X11503396Y-12166484D02*
X11465301Y-12166484D01*
X11465301Y-12166484D02*
X11446253Y-12176008D01*
X11446253Y-12176008D02*
X11436729Y-12185531D01*
X11436729Y-12185531D02*
X11417682Y-12214103D01*
X11417682Y-12214103D02*
X11408158Y-12252198D01*
X11408158Y-12252198D02*
X11408158Y-12328388D01*
X11408158Y-12328388D02*
X11417682Y-12347436D01*
X11417682Y-12347436D02*
X11427206Y-12356960D01*
X11427206Y-12356960D02*
X11446253Y-12366484D01*
X11446253Y-12366484D02*
X11484348Y-12366484D01*
X11484348Y-12366484D02*
X11503396Y-12356960D01*
X11503396Y-12356960D02*
X11512920Y-12347436D01*
X11512920Y-12347436D02*
X11522444Y-12328388D01*
X11522444Y-12328388D02*
X11522444Y-12280769D01*
X11522444Y-12280769D02*
X11512920Y-12261722D01*
X11512920Y-12261722D02*
X11503396Y-12252198D01*
X11503396Y-12252198D02*
X11484348Y-12242674D01*
X11484348Y-12242674D02*
X11446253Y-12242674D01*
X11446253Y-12242674D02*
X11427206Y-12252198D01*
X11427206Y-12252198D02*
X11417682Y-12261722D01*
X11417682Y-12261722D02*
X11408158Y-12280769D01*
X11598634Y-12166484D02*
X11598634Y-12204579D01*
X11674825Y-12166484D02*
X11674825Y-12204579D01*
X11970063Y-12442674D02*
X11960539Y-12433150D01*
X11960539Y-12433150D02*
X11941491Y-12404579D01*
X11941491Y-12404579D02*
X11931968Y-12385531D01*
X11931968Y-12385531D02*
X11922444Y-12356960D01*
X11922444Y-12356960D02*
X11912920Y-12309341D01*
X11912920Y-12309341D02*
X11912920Y-12271246D01*
X11912920Y-12271246D02*
X11922444Y-12223627D01*
X11922444Y-12223627D02*
X11931968Y-12195055D01*
X11931968Y-12195055D02*
X11941491Y-12176008D01*
X11941491Y-12176008D02*
X11960539Y-12147436D01*
X11960539Y-12147436D02*
X11970063Y-12137912D01*
X12027206Y-12166484D02*
X12151015Y-12166484D01*
X12151015Y-12166484D02*
X12084348Y-12242674D01*
X12084348Y-12242674D02*
X12112920Y-12242674D01*
X12112920Y-12242674D02*
X12131968Y-12252198D01*
X12131968Y-12252198D02*
X12141491Y-12261722D01*
X12141491Y-12261722D02*
X12151015Y-12280769D01*
X12151015Y-12280769D02*
X12151015Y-12328388D01*
X12151015Y-12328388D02*
X12141491Y-12347436D01*
X12141491Y-12347436D02*
X12131968Y-12356960D01*
X12131968Y-12356960D02*
X12112920Y-12366484D01*
X12112920Y-12366484D02*
X12055777Y-12366484D01*
X12055777Y-12366484D02*
X12036729Y-12356960D01*
X12036729Y-12356960D02*
X12027206Y-12347436D01*
X12389110Y-12366484D02*
X12389110Y-12166484D01*
X12474825Y-12366484D02*
X12474825Y-12261722D01*
X12474825Y-12261722D02*
X12465301Y-12242674D01*
X12465301Y-12242674D02*
X12446253Y-12233150D01*
X12446253Y-12233150D02*
X12417682Y-12233150D01*
X12417682Y-12233150D02*
X12398634Y-12242674D01*
X12398634Y-12242674D02*
X12389110Y-12252198D01*
X12598634Y-12366484D02*
X12579587Y-12356960D01*
X12579587Y-12356960D02*
X12570063Y-12347436D01*
X12570063Y-12347436D02*
X12560539Y-12328388D01*
X12560539Y-12328388D02*
X12560539Y-12271246D01*
X12560539Y-12271246D02*
X12570063Y-12252198D01*
X12570063Y-12252198D02*
X12579587Y-12242674D01*
X12579587Y-12242674D02*
X12598634Y-12233150D01*
X12598634Y-12233150D02*
X12627206Y-12233150D01*
X12627206Y-12233150D02*
X12646253Y-12242674D01*
X12646253Y-12242674D02*
X12655777Y-12252198D01*
X12655777Y-12252198D02*
X12665301Y-12271246D01*
X12665301Y-12271246D02*
X12665301Y-12328388D01*
X12665301Y-12328388D02*
X12655777Y-12347436D01*
X12655777Y-12347436D02*
X12646253Y-12356960D01*
X12646253Y-12356960D02*
X12627206Y-12366484D01*
X12627206Y-12366484D02*
X12598634Y-12366484D01*
X12779587Y-12366484D02*
X12760539Y-12356960D01*
X12760539Y-12356960D02*
X12751015Y-12337912D01*
X12751015Y-12337912D02*
X12751015Y-12166484D01*
X12931968Y-12356960D02*
X12912920Y-12366484D01*
X12912920Y-12366484D02*
X12874825Y-12366484D01*
X12874825Y-12366484D02*
X12855777Y-12356960D01*
X12855777Y-12356960D02*
X12846253Y-12337912D01*
X12846253Y-12337912D02*
X12846253Y-12261722D01*
X12846253Y-12261722D02*
X12855777Y-12242674D01*
X12855777Y-12242674D02*
X12874825Y-12233150D01*
X12874825Y-12233150D02*
X12912920Y-12233150D01*
X12912920Y-12233150D02*
X12931968Y-12242674D01*
X12931968Y-12242674D02*
X12941491Y-12261722D01*
X12941491Y-12261722D02*
X12941491Y-12280769D01*
X12941491Y-12280769D02*
X12846253Y-12299817D01*
X13017682Y-12356960D02*
X13036730Y-12366484D01*
X13036730Y-12366484D02*
X13074825Y-12366484D01*
X13074825Y-12366484D02*
X13093872Y-12356960D01*
X13093872Y-12356960D02*
X13103396Y-12337912D01*
X13103396Y-12337912D02*
X13103396Y-12328388D01*
X13103396Y-12328388D02*
X13093872Y-12309341D01*
X13093872Y-12309341D02*
X13074825Y-12299817D01*
X13074825Y-12299817D02*
X13046253Y-12299817D01*
X13046253Y-12299817D02*
X13027206Y-12290293D01*
X13027206Y-12290293D02*
X13017682Y-12271246D01*
X13017682Y-12271246D02*
X13017682Y-12261722D01*
X13017682Y-12261722D02*
X13027206Y-12242674D01*
X13027206Y-12242674D02*
X13046253Y-12233150D01*
X13046253Y-12233150D02*
X13074825Y-12233150D01*
X13074825Y-12233150D02*
X13093872Y-12242674D01*
X13170063Y-12442674D02*
X13179587Y-12433150D01*
X13179587Y-12433150D02*
X13198634Y-12404579D01*
X13198634Y-12404579D02*
X13208158Y-12385531D01*
X13208158Y-12385531D02*
X13217682Y-12356960D01*
X13217682Y-12356960D02*
X13227206Y-12309341D01*
X13227206Y-12309341D02*
X13227206Y-12271246D01*
X13227206Y-12271246D02*
X13217682Y-12223627D01*
X13217682Y-12223627D02*
X13208158Y-12195055D01*
X13208158Y-12195055D02*
X13198634Y-12176008D01*
X13198634Y-12176008D02*
X13179587Y-12147436D01*
X13179587Y-12147436D02*
X13170063Y-12137912D01*
X13531968Y-12442674D02*
X13522444Y-12433150D01*
X13522444Y-12433150D02*
X13503396Y-12404579D01*
X13503396Y-12404579D02*
X13493872Y-12385531D01*
X13493872Y-12385531D02*
X13484349Y-12356960D01*
X13484349Y-12356960D02*
X13474825Y-12309341D01*
X13474825Y-12309341D02*
X13474825Y-12271246D01*
X13474825Y-12271246D02*
X13484349Y-12223627D01*
X13484349Y-12223627D02*
X13493872Y-12195055D01*
X13493872Y-12195055D02*
X13503396Y-12176008D01*
X13503396Y-12176008D02*
X13522444Y-12147436D01*
X13522444Y-12147436D02*
X13531968Y-12137912D01*
X13608158Y-12233150D02*
X13608158Y-12366484D01*
X13608158Y-12252198D02*
X13617682Y-12242674D01*
X13617682Y-12242674D02*
X13636730Y-12233150D01*
X13636730Y-12233150D02*
X13665301Y-12233150D01*
X13665301Y-12233150D02*
X13684349Y-12242674D01*
X13684349Y-12242674D02*
X13693872Y-12261722D01*
X13693872Y-12261722D02*
X13693872Y-12366484D01*
X13817682Y-12366484D02*
X13798634Y-12356960D01*
X13798634Y-12356960D02*
X13789111Y-12347436D01*
X13789111Y-12347436D02*
X13779587Y-12328388D01*
X13779587Y-12328388D02*
X13779587Y-12271246D01*
X13779587Y-12271246D02*
X13789111Y-12252198D01*
X13789111Y-12252198D02*
X13798634Y-12242674D01*
X13798634Y-12242674D02*
X13817682Y-12233150D01*
X13817682Y-12233150D02*
X13846253Y-12233150D01*
X13846253Y-12233150D02*
X13865301Y-12242674D01*
X13865301Y-12242674D02*
X13874825Y-12252198D01*
X13874825Y-12252198D02*
X13884349Y-12271246D01*
X13884349Y-12271246D02*
X13884349Y-12328388D01*
X13884349Y-12328388D02*
X13874825Y-12347436D01*
X13874825Y-12347436D02*
X13865301Y-12356960D01*
X13865301Y-12356960D02*
X13846253Y-12366484D01*
X13846253Y-12366484D02*
X13817682Y-12366484D01*
X13941492Y-12233150D02*
X14017682Y-12233150D01*
X13970063Y-12166484D02*
X13970063Y-12337912D01*
X13970063Y-12337912D02*
X13979587Y-12356960D01*
X13979587Y-12356960D02*
X13998634Y-12366484D01*
X13998634Y-12366484D02*
X14017682Y-12366484D01*
X14236730Y-12233150D02*
X14236730Y-12433150D01*
X14236730Y-12242674D02*
X14255777Y-12233150D01*
X14255777Y-12233150D02*
X14293873Y-12233150D01*
X14293873Y-12233150D02*
X14312920Y-12242674D01*
X14312920Y-12242674D02*
X14322444Y-12252198D01*
X14322444Y-12252198D02*
X14331968Y-12271246D01*
X14331968Y-12271246D02*
X14331968Y-12328388D01*
X14331968Y-12328388D02*
X14322444Y-12347436D01*
X14322444Y-12347436D02*
X14312920Y-12356960D01*
X14312920Y-12356960D02*
X14293873Y-12366484D01*
X14293873Y-12366484D02*
X14255777Y-12366484D01*
X14255777Y-12366484D02*
X14236730Y-12356960D01*
X14446253Y-12366484D02*
X14427206Y-12356960D01*
X14427206Y-12356960D02*
X14417682Y-12337912D01*
X14417682Y-12337912D02*
X14417682Y-12166484D01*
X14608158Y-12366484D02*
X14608158Y-12261722D01*
X14608158Y-12261722D02*
X14598634Y-12242674D01*
X14598634Y-12242674D02*
X14579587Y-12233150D01*
X14579587Y-12233150D02*
X14541492Y-12233150D01*
X14541492Y-12233150D02*
X14522444Y-12242674D01*
X14608158Y-12356960D02*
X14589111Y-12366484D01*
X14589111Y-12366484D02*
X14541492Y-12366484D01*
X14541492Y-12366484D02*
X14522444Y-12356960D01*
X14522444Y-12356960D02*
X14512920Y-12337912D01*
X14512920Y-12337912D02*
X14512920Y-12318865D01*
X14512920Y-12318865D02*
X14522444Y-12299817D01*
X14522444Y-12299817D02*
X14541492Y-12290293D01*
X14541492Y-12290293D02*
X14589111Y-12290293D01*
X14589111Y-12290293D02*
X14608158Y-12280769D01*
X14674825Y-12233150D02*
X14751015Y-12233150D01*
X14703396Y-12166484D02*
X14703396Y-12337912D01*
X14703396Y-12337912D02*
X14712920Y-12356960D01*
X14712920Y-12356960D02*
X14731968Y-12366484D01*
X14731968Y-12366484D02*
X14751015Y-12366484D01*
X14893873Y-12356960D02*
X14874825Y-12366484D01*
X14874825Y-12366484D02*
X14836730Y-12366484D01*
X14836730Y-12366484D02*
X14817682Y-12356960D01*
X14817682Y-12356960D02*
X14808158Y-12337912D01*
X14808158Y-12337912D02*
X14808158Y-12261722D01*
X14808158Y-12261722D02*
X14817682Y-12242674D01*
X14817682Y-12242674D02*
X14836730Y-12233150D01*
X14836730Y-12233150D02*
X14874825Y-12233150D01*
X14874825Y-12233150D02*
X14893873Y-12242674D01*
X14893873Y-12242674D02*
X14903396Y-12261722D01*
X14903396Y-12261722D02*
X14903396Y-12280769D01*
X14903396Y-12280769D02*
X14808158Y-12299817D01*
X15074825Y-12366484D02*
X15074825Y-12166484D01*
X15074825Y-12356960D02*
X15055777Y-12366484D01*
X15055777Y-12366484D02*
X15017682Y-12366484D01*
X15017682Y-12366484D02*
X14998634Y-12356960D01*
X14998634Y-12356960D02*
X14989111Y-12347436D01*
X14989111Y-12347436D02*
X14979587Y-12328388D01*
X14979587Y-12328388D02*
X14979587Y-12271246D01*
X14979587Y-12271246D02*
X14989111Y-12252198D01*
X14989111Y-12252198D02*
X14998634Y-12242674D01*
X14998634Y-12242674D02*
X15017682Y-12233150D01*
X15017682Y-12233150D02*
X15055777Y-12233150D01*
X15055777Y-12233150D02*
X15074825Y-12242674D01*
X15151015Y-12442674D02*
X15160539Y-12433150D01*
X15160539Y-12433150D02*
X15179587Y-12404579D01*
X15179587Y-12404579D02*
X15189111Y-12385531D01*
X15189111Y-12385531D02*
X15198634Y-12356960D01*
X15198634Y-12356960D02*
X15208158Y-12309341D01*
X15208158Y-12309341D02*
X15208158Y-12271246D01*
X15208158Y-12271246D02*
X15198634Y-12223627D01*
X15198634Y-12223627D02*
X15189111Y-12195055D01*
X15189111Y-12195055D02*
X15179587Y-12176008D01*
X15179587Y-12176008D02*
X15160539Y-12147436D01*
X15160539Y-12147436D02*
X15151015Y-12137912D01*
X8395000Y-12595000D02*
G75*
G03*
X8395000Y-12595000I-100000J0D01*
G01*
X8751015Y-12486484D02*
X8655777Y-12486484D01*
X8655777Y-12486484D02*
X8646253Y-12581722D01*
X8646253Y-12581722D02*
X8655777Y-12572198D01*
X8655777Y-12572198D02*
X8674824Y-12562674D01*
X8674824Y-12562674D02*
X8722444Y-12562674D01*
X8722444Y-12562674D02*
X8741491Y-12572198D01*
X8741491Y-12572198D02*
X8751015Y-12581722D01*
X8751015Y-12581722D02*
X8760539Y-12600769D01*
X8760539Y-12600769D02*
X8760539Y-12648388D01*
X8760539Y-12648388D02*
X8751015Y-12667436D01*
X8751015Y-12667436D02*
X8741491Y-12676960D01*
X8741491Y-12676960D02*
X8722444Y-12686484D01*
X8722444Y-12686484D02*
X8674824Y-12686484D01*
X8674824Y-12686484D02*
X8655777Y-12676960D01*
X8655777Y-12676960D02*
X8646253Y-12667436D01*
X8846253Y-12667436D02*
X8855777Y-12676960D01*
X8855777Y-12676960D02*
X8846253Y-12686484D01*
X8846253Y-12686484D02*
X8836729Y-12676960D01*
X8836729Y-12676960D02*
X8846253Y-12667436D01*
X8846253Y-12667436D02*
X8846253Y-12686484D01*
X8931967Y-12505531D02*
X8941491Y-12496008D01*
X8941491Y-12496008D02*
X8960539Y-12486484D01*
X8960539Y-12486484D02*
X9008158Y-12486484D01*
X9008158Y-12486484D02*
X9027205Y-12496008D01*
X9027205Y-12496008D02*
X9036729Y-12505531D01*
X9036729Y-12505531D02*
X9046253Y-12524579D01*
X9046253Y-12524579D02*
X9046253Y-12543627D01*
X9046253Y-12543627D02*
X9036729Y-12572198D01*
X9036729Y-12572198D02*
X8922444Y-12686484D01*
X8922444Y-12686484D02*
X9046253Y-12686484D01*
X9227205Y-12486484D02*
X9131967Y-12486484D01*
X9131967Y-12486484D02*
X9122444Y-12581722D01*
X9122444Y-12581722D02*
X9131967Y-12572198D01*
X9131967Y-12572198D02*
X9151015Y-12562674D01*
X9151015Y-12562674D02*
X9198634Y-12562674D01*
X9198634Y-12562674D02*
X9217682Y-12572198D01*
X9217682Y-12572198D02*
X9227205Y-12581722D01*
X9227205Y-12581722D02*
X9236729Y-12600769D01*
X9236729Y-12600769D02*
X9236729Y-12648388D01*
X9236729Y-12648388D02*
X9227205Y-12667436D01*
X9227205Y-12667436D02*
X9217682Y-12676960D01*
X9217682Y-12676960D02*
X9198634Y-12686484D01*
X9198634Y-12686484D02*
X9151015Y-12686484D01*
X9151015Y-12686484D02*
X9131967Y-12676960D01*
X9131967Y-12676960D02*
X9122444Y-12667436D01*
X9360539Y-12486484D02*
X9379586Y-12486484D01*
X9379586Y-12486484D02*
X9398634Y-12496008D01*
X9398634Y-12496008D02*
X9408158Y-12505531D01*
X9408158Y-12505531D02*
X9417682Y-12524579D01*
X9417682Y-12524579D02*
X9427205Y-12562674D01*
X9427205Y-12562674D02*
X9427205Y-12610293D01*
X9427205Y-12610293D02*
X9417682Y-12648388D01*
X9417682Y-12648388D02*
X9408158Y-12667436D01*
X9408158Y-12667436D02*
X9398634Y-12676960D01*
X9398634Y-12676960D02*
X9379586Y-12686484D01*
X9379586Y-12686484D02*
X9360539Y-12686484D01*
X9360539Y-12686484D02*
X9341491Y-12676960D01*
X9341491Y-12676960D02*
X9331967Y-12667436D01*
X9331967Y-12667436D02*
X9322444Y-12648388D01*
X9322444Y-12648388D02*
X9312920Y-12610293D01*
X9312920Y-12610293D02*
X9312920Y-12562674D01*
X9312920Y-12562674D02*
X9322444Y-12524579D01*
X9322444Y-12524579D02*
X9331967Y-12505531D01*
X9331967Y-12505531D02*
X9341491Y-12496008D01*
X9341491Y-12496008D02*
X9360539Y-12486484D01*
X9512920Y-12686484D02*
X9512920Y-12553150D01*
X9512920Y-12572198D02*
X9522444Y-12562674D01*
X9522444Y-12562674D02*
X9541491Y-12553150D01*
X9541491Y-12553150D02*
X9570063Y-12553150D01*
X9570063Y-12553150D02*
X9589110Y-12562674D01*
X9589110Y-12562674D02*
X9598634Y-12581722D01*
X9598634Y-12581722D02*
X9598634Y-12686484D01*
X9598634Y-12581722D02*
X9608158Y-12562674D01*
X9608158Y-12562674D02*
X9627205Y-12553150D01*
X9627205Y-12553150D02*
X9655777Y-12553150D01*
X9655777Y-12553150D02*
X9674825Y-12562674D01*
X9674825Y-12562674D02*
X9684348Y-12581722D01*
X9684348Y-12581722D02*
X9684348Y-12686484D01*
X9779586Y-12686484D02*
X9779586Y-12553150D01*
X9779586Y-12572198D02*
X9789110Y-12562674D01*
X9789110Y-12562674D02*
X9808158Y-12553150D01*
X9808158Y-12553150D02*
X9836729Y-12553150D01*
X9836729Y-12553150D02*
X9855777Y-12562674D01*
X9855777Y-12562674D02*
X9865301Y-12581722D01*
X9865301Y-12581722D02*
X9865301Y-12686484D01*
X9865301Y-12581722D02*
X9874825Y-12562674D01*
X9874825Y-12562674D02*
X9893872Y-12553150D01*
X9893872Y-12553150D02*
X9922444Y-12553150D01*
X9922444Y-12553150D02*
X9941491Y-12562674D01*
X9941491Y-12562674D02*
X9951015Y-12581722D01*
X9951015Y-12581722D02*
X9951015Y-12686484D01*
X10341491Y-12476960D02*
X10170063Y-12734103D01*
X10598634Y-12486484D02*
X10617682Y-12486484D01*
X10617682Y-12486484D02*
X10636729Y-12496008D01*
X10636729Y-12496008D02*
X10646253Y-12505531D01*
X10646253Y-12505531D02*
X10655777Y-12524579D01*
X10655777Y-12524579D02*
X10665301Y-12562674D01*
X10665301Y-12562674D02*
X10665301Y-12610293D01*
X10665301Y-12610293D02*
X10655777Y-12648388D01*
X10655777Y-12648388D02*
X10646253Y-12667436D01*
X10646253Y-12667436D02*
X10636729Y-12676960D01*
X10636729Y-12676960D02*
X10617682Y-12686484D01*
X10617682Y-12686484D02*
X10598634Y-12686484D01*
X10598634Y-12686484D02*
X10579587Y-12676960D01*
X10579587Y-12676960D02*
X10570063Y-12667436D01*
X10570063Y-12667436D02*
X10560539Y-12648388D01*
X10560539Y-12648388D02*
X10551015Y-12610293D01*
X10551015Y-12610293D02*
X10551015Y-12562674D01*
X10551015Y-12562674D02*
X10560539Y-12524579D01*
X10560539Y-12524579D02*
X10570063Y-12505531D01*
X10570063Y-12505531D02*
X10579587Y-12496008D01*
X10579587Y-12496008D02*
X10598634Y-12486484D01*
X10751015Y-12667436D02*
X10760539Y-12676960D01*
X10760539Y-12676960D02*
X10751015Y-12686484D01*
X10751015Y-12686484D02*
X10741491Y-12676960D01*
X10741491Y-12676960D02*
X10751015Y-12667436D01*
X10751015Y-12667436D02*
X10751015Y-12686484D01*
X10836729Y-12505531D02*
X10846253Y-12496008D01*
X10846253Y-12496008D02*
X10865301Y-12486484D01*
X10865301Y-12486484D02*
X10912920Y-12486484D01*
X10912920Y-12486484D02*
X10931968Y-12496008D01*
X10931968Y-12496008D02*
X10941491Y-12505531D01*
X10941491Y-12505531D02*
X10951015Y-12524579D01*
X10951015Y-12524579D02*
X10951015Y-12543627D01*
X10951015Y-12543627D02*
X10941491Y-12572198D01*
X10941491Y-12572198D02*
X10827206Y-12686484D01*
X10827206Y-12686484D02*
X10951015Y-12686484D01*
X11074825Y-12486484D02*
X11093872Y-12486484D01*
X11093872Y-12486484D02*
X11112920Y-12496008D01*
X11112920Y-12496008D02*
X11122444Y-12505531D01*
X11122444Y-12505531D02*
X11131968Y-12524579D01*
X11131968Y-12524579D02*
X11141491Y-12562674D01*
X11141491Y-12562674D02*
X11141491Y-12610293D01*
X11141491Y-12610293D02*
X11131968Y-12648388D01*
X11131968Y-12648388D02*
X11122444Y-12667436D01*
X11122444Y-12667436D02*
X11112920Y-12676960D01*
X11112920Y-12676960D02*
X11093872Y-12686484D01*
X11093872Y-12686484D02*
X11074825Y-12686484D01*
X11074825Y-12686484D02*
X11055777Y-12676960D01*
X11055777Y-12676960D02*
X11046253Y-12667436D01*
X11046253Y-12667436D02*
X11036729Y-12648388D01*
X11036729Y-12648388D02*
X11027206Y-12610293D01*
X11027206Y-12610293D02*
X11027206Y-12562674D01*
X11027206Y-12562674D02*
X11036729Y-12524579D01*
X11036729Y-12524579D02*
X11046253Y-12505531D01*
X11046253Y-12505531D02*
X11055777Y-12496008D01*
X11055777Y-12496008D02*
X11074825Y-12486484D01*
X11312920Y-12486484D02*
X11274825Y-12486484D01*
X11274825Y-12486484D02*
X11255777Y-12496008D01*
X11255777Y-12496008D02*
X11246253Y-12505531D01*
X11246253Y-12505531D02*
X11227206Y-12534103D01*
X11227206Y-12534103D02*
X11217682Y-12572198D01*
X11217682Y-12572198D02*
X11217682Y-12648388D01*
X11217682Y-12648388D02*
X11227206Y-12667436D01*
X11227206Y-12667436D02*
X11236729Y-12676960D01*
X11236729Y-12676960D02*
X11255777Y-12686484D01*
X11255777Y-12686484D02*
X11293872Y-12686484D01*
X11293872Y-12686484D02*
X11312920Y-12676960D01*
X11312920Y-12676960D02*
X11322444Y-12667436D01*
X11322444Y-12667436D02*
X11331967Y-12648388D01*
X11331967Y-12648388D02*
X11331967Y-12600769D01*
X11331967Y-12600769D02*
X11322444Y-12581722D01*
X11322444Y-12581722D02*
X11312920Y-12572198D01*
X11312920Y-12572198D02*
X11293872Y-12562674D01*
X11293872Y-12562674D02*
X11255777Y-12562674D01*
X11255777Y-12562674D02*
X11236729Y-12572198D01*
X11236729Y-12572198D02*
X11227206Y-12581722D01*
X11227206Y-12581722D02*
X11217682Y-12600769D01*
X11398634Y-12486484D02*
X11531967Y-12486484D01*
X11531967Y-12486484D02*
X11446253Y-12686484D01*
X11598634Y-12486484D02*
X11598634Y-12524579D01*
X11674825Y-12486484D02*
X11674825Y-12524579D01*
X11970063Y-12762674D02*
X11960539Y-12753150D01*
X11960539Y-12753150D02*
X11941491Y-12724579D01*
X11941491Y-12724579D02*
X11931968Y-12705531D01*
X11931968Y-12705531D02*
X11922444Y-12676960D01*
X11922444Y-12676960D02*
X11912920Y-12629341D01*
X11912920Y-12629341D02*
X11912920Y-12591246D01*
X11912920Y-12591246D02*
X11922444Y-12543627D01*
X11922444Y-12543627D02*
X11931968Y-12515055D01*
X11931968Y-12515055D02*
X11941491Y-12496008D01*
X11941491Y-12496008D02*
X11960539Y-12467436D01*
X11960539Y-12467436D02*
X11970063Y-12457912D01*
X12151015Y-12686484D02*
X12036729Y-12686484D01*
X12093872Y-12686484D02*
X12093872Y-12486484D01*
X12093872Y-12486484D02*
X12074825Y-12515055D01*
X12074825Y-12515055D02*
X12055777Y-12534103D01*
X12055777Y-12534103D02*
X12036729Y-12543627D01*
X12322444Y-12486484D02*
X12284348Y-12486484D01*
X12284348Y-12486484D02*
X12265301Y-12496008D01*
X12265301Y-12496008D02*
X12255777Y-12505531D01*
X12255777Y-12505531D02*
X12236729Y-12534103D01*
X12236729Y-12534103D02*
X12227206Y-12572198D01*
X12227206Y-12572198D02*
X12227206Y-12648388D01*
X12227206Y-12648388D02*
X12236729Y-12667436D01*
X12236729Y-12667436D02*
X12246253Y-12676960D01*
X12246253Y-12676960D02*
X12265301Y-12686484D01*
X12265301Y-12686484D02*
X12303396Y-12686484D01*
X12303396Y-12686484D02*
X12322444Y-12676960D01*
X12322444Y-12676960D02*
X12331968Y-12667436D01*
X12331968Y-12667436D02*
X12341491Y-12648388D01*
X12341491Y-12648388D02*
X12341491Y-12600769D01*
X12341491Y-12600769D02*
X12331968Y-12581722D01*
X12331968Y-12581722D02*
X12322444Y-12572198D01*
X12322444Y-12572198D02*
X12303396Y-12562674D01*
X12303396Y-12562674D02*
X12265301Y-12562674D01*
X12265301Y-12562674D02*
X12246253Y-12572198D01*
X12246253Y-12572198D02*
X12236729Y-12581722D01*
X12236729Y-12581722D02*
X12227206Y-12600769D01*
X12579587Y-12686484D02*
X12579587Y-12486484D01*
X12665301Y-12686484D02*
X12665301Y-12581722D01*
X12665301Y-12581722D02*
X12655777Y-12562674D01*
X12655777Y-12562674D02*
X12636730Y-12553150D01*
X12636730Y-12553150D02*
X12608158Y-12553150D01*
X12608158Y-12553150D02*
X12589110Y-12562674D01*
X12589110Y-12562674D02*
X12579587Y-12572198D01*
X12789110Y-12686484D02*
X12770063Y-12676960D01*
X12770063Y-12676960D02*
X12760539Y-12667436D01*
X12760539Y-12667436D02*
X12751015Y-12648388D01*
X12751015Y-12648388D02*
X12751015Y-12591246D01*
X12751015Y-12591246D02*
X12760539Y-12572198D01*
X12760539Y-12572198D02*
X12770063Y-12562674D01*
X12770063Y-12562674D02*
X12789110Y-12553150D01*
X12789110Y-12553150D02*
X12817682Y-12553150D01*
X12817682Y-12553150D02*
X12836730Y-12562674D01*
X12836730Y-12562674D02*
X12846253Y-12572198D01*
X12846253Y-12572198D02*
X12855777Y-12591246D01*
X12855777Y-12591246D02*
X12855777Y-12648388D01*
X12855777Y-12648388D02*
X12846253Y-12667436D01*
X12846253Y-12667436D02*
X12836730Y-12676960D01*
X12836730Y-12676960D02*
X12817682Y-12686484D01*
X12817682Y-12686484D02*
X12789110Y-12686484D01*
X12970063Y-12686484D02*
X12951015Y-12676960D01*
X12951015Y-12676960D02*
X12941491Y-12657912D01*
X12941491Y-12657912D02*
X12941491Y-12486484D01*
X13122444Y-12676960D02*
X13103396Y-12686484D01*
X13103396Y-12686484D02*
X13065301Y-12686484D01*
X13065301Y-12686484D02*
X13046253Y-12676960D01*
X13046253Y-12676960D02*
X13036730Y-12657912D01*
X13036730Y-12657912D02*
X13036730Y-12581722D01*
X13036730Y-12581722D02*
X13046253Y-12562674D01*
X13046253Y-12562674D02*
X13065301Y-12553150D01*
X13065301Y-12553150D02*
X13103396Y-12553150D01*
X13103396Y-12553150D02*
X13122444Y-12562674D01*
X13122444Y-12562674D02*
X13131968Y-12581722D01*
X13131968Y-12581722D02*
X13131968Y-12600769D01*
X13131968Y-12600769D02*
X13036730Y-12619817D01*
X13208158Y-12676960D02*
X13227206Y-12686484D01*
X13227206Y-12686484D02*
X13265301Y-12686484D01*
X13265301Y-12686484D02*
X13284349Y-12676960D01*
X13284349Y-12676960D02*
X13293872Y-12657912D01*
X13293872Y-12657912D02*
X13293872Y-12648388D01*
X13293872Y-12648388D02*
X13284349Y-12629341D01*
X13284349Y-12629341D02*
X13265301Y-12619817D01*
X13265301Y-12619817D02*
X13236730Y-12619817D01*
X13236730Y-12619817D02*
X13217682Y-12610293D01*
X13217682Y-12610293D02*
X13208158Y-12591246D01*
X13208158Y-12591246D02*
X13208158Y-12581722D01*
X13208158Y-12581722D02*
X13217682Y-12562674D01*
X13217682Y-12562674D02*
X13236730Y-12553150D01*
X13236730Y-12553150D02*
X13265301Y-12553150D01*
X13265301Y-12553150D02*
X13284349Y-12562674D01*
X13360539Y-12762674D02*
X13370063Y-12753150D01*
X13370063Y-12753150D02*
X13389111Y-12724579D01*
X13389111Y-12724579D02*
X13398634Y-12705531D01*
X13398634Y-12705531D02*
X13408158Y-12676960D01*
X13408158Y-12676960D02*
X13417682Y-12629341D01*
X13417682Y-12629341D02*
X13417682Y-12591246D01*
X13417682Y-12591246D02*
X13408158Y-12543627D01*
X13408158Y-12543627D02*
X13398634Y-12515055D01*
X13398634Y-12515055D02*
X13389111Y-12496008D01*
X13389111Y-12496008D02*
X13370063Y-12467436D01*
X13370063Y-12467436D02*
X13360539Y-12457912D01*
X13722444Y-12762674D02*
X13712920Y-12753150D01*
X13712920Y-12753150D02*
X13693872Y-12724579D01*
X13693872Y-12724579D02*
X13684349Y-12705531D01*
X13684349Y-12705531D02*
X13674825Y-12676960D01*
X13674825Y-12676960D02*
X13665301Y-12629341D01*
X13665301Y-12629341D02*
X13665301Y-12591246D01*
X13665301Y-12591246D02*
X13674825Y-12543627D01*
X13674825Y-12543627D02*
X13684349Y-12515055D01*
X13684349Y-12515055D02*
X13693872Y-12496008D01*
X13693872Y-12496008D02*
X13712920Y-12467436D01*
X13712920Y-12467436D02*
X13722444Y-12457912D01*
X13798634Y-12553150D02*
X13798634Y-12686484D01*
X13798634Y-12572198D02*
X13808158Y-12562674D01*
X13808158Y-12562674D02*
X13827206Y-12553150D01*
X13827206Y-12553150D02*
X13855777Y-12553150D01*
X13855777Y-12553150D02*
X13874825Y-12562674D01*
X13874825Y-12562674D02*
X13884349Y-12581722D01*
X13884349Y-12581722D02*
X13884349Y-12686484D01*
X14008158Y-12686484D02*
X13989111Y-12676960D01*
X13989111Y-12676960D02*
X13979587Y-12667436D01*
X13979587Y-12667436D02*
X13970063Y-12648388D01*
X13970063Y-12648388D02*
X13970063Y-12591246D01*
X13970063Y-12591246D02*
X13979587Y-12572198D01*
X13979587Y-12572198D02*
X13989111Y-12562674D01*
X13989111Y-12562674D02*
X14008158Y-12553150D01*
X14008158Y-12553150D02*
X14036730Y-12553150D01*
X14036730Y-12553150D02*
X14055777Y-12562674D01*
X14055777Y-12562674D02*
X14065301Y-12572198D01*
X14065301Y-12572198D02*
X14074825Y-12591246D01*
X14074825Y-12591246D02*
X14074825Y-12648388D01*
X14074825Y-12648388D02*
X14065301Y-12667436D01*
X14065301Y-12667436D02*
X14055777Y-12676960D01*
X14055777Y-12676960D02*
X14036730Y-12686484D01*
X14036730Y-12686484D02*
X14008158Y-12686484D01*
X14131968Y-12553150D02*
X14208158Y-12553150D01*
X14160539Y-12486484D02*
X14160539Y-12657912D01*
X14160539Y-12657912D02*
X14170063Y-12676960D01*
X14170063Y-12676960D02*
X14189111Y-12686484D01*
X14189111Y-12686484D02*
X14208158Y-12686484D01*
X14427206Y-12553150D02*
X14427206Y-12753150D01*
X14427206Y-12562674D02*
X14446253Y-12553150D01*
X14446253Y-12553150D02*
X14484349Y-12553150D01*
X14484349Y-12553150D02*
X14503396Y-12562674D01*
X14503396Y-12562674D02*
X14512920Y-12572198D01*
X14512920Y-12572198D02*
X14522444Y-12591246D01*
X14522444Y-12591246D02*
X14522444Y-12648388D01*
X14522444Y-12648388D02*
X14512920Y-12667436D01*
X14512920Y-12667436D02*
X14503396Y-12676960D01*
X14503396Y-12676960D02*
X14484349Y-12686484D01*
X14484349Y-12686484D02*
X14446253Y-12686484D01*
X14446253Y-12686484D02*
X14427206Y-12676960D01*
X14636730Y-12686484D02*
X14617682Y-12676960D01*
X14617682Y-12676960D02*
X14608158Y-12657912D01*
X14608158Y-12657912D02*
X14608158Y-12486484D01*
X14798634Y-12686484D02*
X14798634Y-12581722D01*
X14798634Y-12581722D02*
X14789111Y-12562674D01*
X14789111Y-12562674D02*
X14770063Y-12553150D01*
X14770063Y-12553150D02*
X14731968Y-12553150D01*
X14731968Y-12553150D02*
X14712920Y-12562674D01*
X14798634Y-12676960D02*
X14779587Y-12686484D01*
X14779587Y-12686484D02*
X14731968Y-12686484D01*
X14731968Y-12686484D02*
X14712920Y-12676960D01*
X14712920Y-12676960D02*
X14703396Y-12657912D01*
X14703396Y-12657912D02*
X14703396Y-12638865D01*
X14703396Y-12638865D02*
X14712920Y-12619817D01*
X14712920Y-12619817D02*
X14731968Y-12610293D01*
X14731968Y-12610293D02*
X14779587Y-12610293D01*
X14779587Y-12610293D02*
X14798634Y-12600769D01*
X14865301Y-12553150D02*
X14941492Y-12553150D01*
X14893873Y-12486484D02*
X14893873Y-12657912D01*
X14893873Y-12657912D02*
X14903396Y-12676960D01*
X14903396Y-12676960D02*
X14922444Y-12686484D01*
X14922444Y-12686484D02*
X14941492Y-12686484D01*
X15084349Y-12676960D02*
X15065301Y-12686484D01*
X15065301Y-12686484D02*
X15027206Y-12686484D01*
X15027206Y-12686484D02*
X15008158Y-12676960D01*
X15008158Y-12676960D02*
X14998634Y-12657912D01*
X14998634Y-12657912D02*
X14998634Y-12581722D01*
X14998634Y-12581722D02*
X15008158Y-12562674D01*
X15008158Y-12562674D02*
X15027206Y-12553150D01*
X15027206Y-12553150D02*
X15065301Y-12553150D01*
X15065301Y-12553150D02*
X15084349Y-12562674D01*
X15084349Y-12562674D02*
X15093873Y-12581722D01*
X15093873Y-12581722D02*
X15093873Y-12600769D01*
X15093873Y-12600769D02*
X14998634Y-12619817D01*
X15265301Y-12686484D02*
X15265301Y-12486484D01*
X15265301Y-12676960D02*
X15246254Y-12686484D01*
X15246254Y-12686484D02*
X15208158Y-12686484D01*
X15208158Y-12686484D02*
X15189111Y-12676960D01*
X15189111Y-12676960D02*
X15179587Y-12667436D01*
X15179587Y-12667436D02*
X15170063Y-12648388D01*
X15170063Y-12648388D02*
X15170063Y-12591246D01*
X15170063Y-12591246D02*
X15179587Y-12572198D01*
X15179587Y-12572198D02*
X15189111Y-12562674D01*
X15189111Y-12562674D02*
X15208158Y-12553150D01*
X15208158Y-12553150D02*
X15246254Y-12553150D01*
X15246254Y-12553150D02*
X15265301Y-12562674D01*
X15341492Y-12762674D02*
X15351015Y-12753150D01*
X15351015Y-12753150D02*
X15370063Y-12724579D01*
X15370063Y-12724579D02*
X15379587Y-12705531D01*
X15379587Y-12705531D02*
X15389111Y-12676960D01*
X15389111Y-12676960D02*
X15398634Y-12629341D01*
X15398634Y-12629341D02*
X15398634Y-12591246D01*
X15398634Y-12591246D02*
X15389111Y-12543627D01*
X15389111Y-12543627D02*
X15379587Y-12515055D01*
X15379587Y-12515055D02*
X15370063Y-12496008D01*
X15370063Y-12496008D02*
X15351015Y-12467436D01*
X15351015Y-12467436D02*
X15341492Y-12457912D01*
M02*
