G04 #@! TF.GenerationSoftware,KiCad,Pcbnew,8.0.4*
G04 #@! TF.CreationDate,2025-01-16T10:51:39+00:00*
G04 #@! TF.ProjectId,Mathboard,4d617468-626f-4617-9264-2e6b69636164,rev?*
G04 #@! TF.SameCoordinates,PX501bd00PY28b8ce0*
G04 #@! TF.FileFunction,Paste,Top*
G04 #@! TF.FilePolarity,Positive*
%FSLAX46Y46*%
G04 Gerber Fmt 4.6, Leading zero omitted, Abs format (unit mm)*
G04 Created by KiCad (PCBNEW 8.0.4) date 2025-01-16 10:51:39*
%MOMM*%
%LPD*%
G01*
G04 APERTURE LIST*
G04 Aperture macros list*
%AMRoundRect*
0 Rectangle with rounded corners*
0 $1 Rounding radius*
0 $2 $3 $4 $5 $6 $7 $8 $9 X,Y pos of 4 corners*
0 Add a 4 corners polygon primitive as box body*
4,1,4,$2,$3,$4,$5,$6,$7,$8,$9,$2,$3,0*
0 Add four circle primitives for the rounded corners*
1,1,$1+$1,$2,$3*
1,1,$1+$1,$4,$5*
1,1,$1+$1,$6,$7*
1,1,$1+$1,$8,$9*
0 Add four rect primitives between the rounded corners*
20,1,$1+$1,$2,$3,$4,$5,0*
20,1,$1+$1,$4,$5,$6,$7,0*
20,1,$1+$1,$6,$7,$8,$9,0*
20,1,$1+$1,$8,$9,$2,$3,0*%
G04 Aperture macros list end*
%ADD10RoundRect,0.225000X0.375000X-0.225000X0.375000X0.225000X-0.375000X0.225000X-0.375000X-0.225000X0*%
%ADD11RoundRect,0.135000X0.135000X0.185000X-0.135000X0.185000X-0.135000X-0.185000X0.135000X-0.185000X0*%
%ADD12R,1.150000X1.000000*%
%ADD13RoundRect,0.140000X-0.140000X-0.170000X0.140000X-0.170000X0.140000X0.170000X-0.140000X0.170000X0*%
%ADD14RoundRect,0.135000X0.185000X-0.135000X0.185000X0.135000X-0.185000X0.135000X-0.185000X-0.135000X0*%
%ADD15RoundRect,0.140000X0.170000X-0.140000X0.170000X0.140000X-0.170000X0.140000X-0.170000X-0.140000X0*%
%ADD16R,0.600000X1.240000*%
%ADD17R,0.300000X1.240000*%
%ADD18RoundRect,0.225000X-0.375000X0.225000X-0.375000X-0.225000X0.375000X-0.225000X0.375000X0.225000X0*%
%ADD19RoundRect,0.200000X0.335876X0.053033X0.053033X0.335876X-0.335876X-0.053033X-0.053033X-0.335876X0*%
%ADD20RoundRect,0.140000X-0.170000X0.140000X-0.170000X-0.140000X0.170000X-0.140000X0.170000X0.140000X0*%
%ADD21RoundRect,0.093750X0.156250X0.093750X-0.156250X0.093750X-0.156250X-0.093750X0.156250X-0.093750X0*%
%ADD22RoundRect,0.075000X0.250000X0.075000X-0.250000X0.075000X-0.250000X-0.075000X0.250000X-0.075000X0*%
%ADD23RoundRect,0.135000X-0.135000X-0.185000X0.135000X-0.185000X0.135000X0.185000X-0.135000X0.185000X0*%
%ADD24RoundRect,0.250000X-0.615000X0.435000X-0.615000X-0.435000X0.615000X-0.435000X0.615000X0.435000X0*%
%ADD25RoundRect,0.125000X-0.125000X0.200000X-0.125000X-0.200000X0.125000X-0.200000X0.125000X0.200000X0*%
%ADD26RoundRect,0.140000X0.140000X0.170000X-0.140000X0.170000X-0.140000X-0.170000X0.140000X-0.170000X0*%
%ADD27RoundRect,0.100000X-0.225000X-0.100000X0.225000X-0.100000X0.225000X0.100000X-0.225000X0.100000X0*%
%ADD28RoundRect,0.225000X-0.250000X0.225000X-0.250000X-0.225000X0.250000X-0.225000X0.250000X0.225000X0*%
%ADD29RoundRect,0.135000X-0.185000X0.135000X-0.185000X-0.135000X0.185000X-0.135000X0.185000X0.135000X0*%
%ADD30RoundRect,0.085000X0.265000X0.085000X-0.265000X0.085000X-0.265000X-0.085000X0.265000X-0.085000X0*%
%ADD31RoundRect,0.218750X-0.218750X-0.256250X0.218750X-0.256250X0.218750X0.256250X-0.218750X0.256250X0*%
%ADD32RoundRect,0.150000X0.150000X-0.587500X0.150000X0.587500X-0.150000X0.587500X-0.150000X-0.587500X0*%
%ADD33RoundRect,0.249999X-0.395001X0.395001X-0.395001X-0.395001X0.395001X-0.395001X0.395001X0.395001X0*%
%ADD34RoundRect,0.050000X-0.050000X0.387500X-0.050000X-0.387500X0.050000X-0.387500X0.050000X0.387500X0*%
%ADD35RoundRect,0.050000X-0.387500X0.050000X-0.387500X-0.050000X0.387500X-0.050000X0.387500X0.050000X0*%
%ADD36RoundRect,0.085000X-0.265000X-0.085000X0.265000X-0.085000X0.265000X0.085000X-0.265000X0.085000X0*%
%ADD37R,0.750000X1.000000*%
%ADD38R,0.650000X0.650000*%
%ADD39RoundRect,0.225000X0.250000X-0.225000X0.250000X0.225000X-0.250000X0.225000X-0.250000X-0.225000X0*%
%ADD40RoundRect,0.085000X0.085000X-0.265000X0.085000X0.265000X-0.085000X0.265000X-0.085000X-0.265000X0*%
%ADD41R,1.000000X0.850000*%
%ADD42R,0.800000X1.600000*%
%ADD43R,1.500000X0.820000*%
%ADD44R,1.500000X0.810000*%
%ADD45RoundRect,0.205000X0.545000X0.205000X-0.545000X0.205000X-0.545000X-0.205000X0.545000X-0.205000X0*%
G04 APERTURE END LIST*
D10*
X91700000Y-56850000D03*
X91700000Y-53550000D03*
D11*
X68510000Y-4300000D03*
X67490000Y-4300000D03*
X67400000Y-69800000D03*
X66380000Y-69800000D03*
D12*
X65825000Y-63000000D03*
X67575000Y-63000000D03*
X67575000Y-61600000D03*
X65825000Y-61600000D03*
D13*
X3520000Y-7800000D03*
X4480000Y-7800000D03*
D14*
X54700000Y-11910000D03*
X54700000Y-10890000D03*
D15*
X77800000Y-69480000D03*
X77800000Y-68520000D03*
D16*
X59000000Y-8125000D03*
X58200000Y-8125000D03*
D17*
X57050000Y-8125000D03*
X56050000Y-8125000D03*
X55550000Y-8125000D03*
X54550000Y-8125000D03*
D16*
X53400000Y-8125000D03*
X52600000Y-8125000D03*
X52600000Y-8125000D03*
X53400000Y-8125000D03*
D17*
X54050000Y-8125000D03*
X55050000Y-8125000D03*
X56550000Y-8125000D03*
X57550000Y-8125000D03*
D16*
X58200000Y-8125000D03*
X59000000Y-8125000D03*
D18*
X17500000Y-63550000D03*
X17500000Y-66850000D03*
D19*
X82983363Y-70683363D03*
X81816637Y-69516637D03*
D14*
X60400000Y-62810000D03*
X60400000Y-61790000D03*
D20*
X69900000Y-56720000D03*
X69900000Y-57680000D03*
D21*
X61404100Y-12037500D03*
D22*
X61479100Y-11500000D03*
D21*
X61404100Y-10962500D03*
X59704100Y-10962500D03*
D22*
X59629100Y-11500000D03*
D21*
X59704100Y-12037500D03*
D14*
X59300000Y-61510000D03*
X59300000Y-60490000D03*
D23*
X67490000Y-3300000D03*
X68510000Y-3300000D03*
X65890000Y-64300000D03*
X66910000Y-64300000D03*
D24*
X84845000Y-63225000D03*
X82695000Y-63225000D03*
X84845000Y-64925000D03*
X82695000Y-64925000D03*
D25*
X85675000Y-60325000D03*
X84405000Y-60325000D03*
X83135000Y-60325000D03*
X81865000Y-60325000D03*
X81865000Y-67825000D03*
X83135000Y-67825000D03*
X84405000Y-67825000D03*
X85675000Y-67825000D03*
D26*
X69280000Y-65400000D03*
X68320000Y-65400000D03*
D13*
X51320000Y-9500000D03*
X52280000Y-9500000D03*
D10*
X69700000Y-19250000D03*
X69700000Y-15950000D03*
D27*
X64350000Y-3150000D03*
X64350000Y-3800000D03*
X64350000Y-4450000D03*
X66250000Y-4450000D03*
X66250000Y-3150000D03*
D26*
X59530000Y-17550000D03*
X58570000Y-17550000D03*
D20*
X73000000Y-68820000D03*
X73000000Y-69780000D03*
D18*
X61500000Y-25650000D03*
X61500000Y-28950000D03*
D20*
X56850000Y-15230000D03*
X56850000Y-14270000D03*
D18*
X53400000Y-44650000D03*
X53400000Y-47950000D03*
D28*
X64300000Y-61525000D03*
X64300000Y-63075000D03*
D29*
X71910000Y-56690000D03*
X71910000Y-57710000D03*
D30*
X75560000Y-57700000D03*
X75560000Y-57200000D03*
X75560000Y-56700000D03*
X74060000Y-56700000D03*
X74060000Y-57200000D03*
X74060000Y-57700000D03*
D10*
X88700000Y-18750000D03*
X88700000Y-15450000D03*
X12700000Y-19150000D03*
X12700000Y-15850000D03*
D18*
X23500000Y-25650000D03*
X23500000Y-28950000D03*
D31*
X53400000Y-10712499D03*
X53400000Y-12287501D03*
D32*
X58100000Y-16287500D03*
X60000000Y-16287500D03*
X59050000Y-14412500D03*
D11*
X86710000Y-59200000D03*
X85690000Y-59200000D03*
D14*
X57250000Y-11910000D03*
X57250000Y-10890000D03*
D10*
X50700000Y-19150000D03*
X50700000Y-15850000D03*
D11*
X67400000Y-71000000D03*
X66380000Y-71000000D03*
X79910000Y-57100000D03*
X78890000Y-57100000D03*
D13*
X78620000Y-63500000D03*
X79580000Y-63500000D03*
D18*
X55050000Y-17450000D03*
X55050000Y-14150000D03*
X72400000Y-44750000D03*
X72400000Y-48050000D03*
D15*
X78600000Y-67180000D03*
X78600000Y-66220000D03*
D14*
X72910000Y-57710000D03*
X72910000Y-56690000D03*
D33*
X74800000Y-63300000D03*
X73200000Y-63300000D03*
X74800000Y-64900000D03*
X73200000Y-64900000D03*
D34*
X76600000Y-60662500D03*
X76200000Y-60662500D03*
X75800000Y-60662500D03*
X75400000Y-60662500D03*
X75000000Y-60662500D03*
X74600000Y-60662500D03*
X74200000Y-60662500D03*
X73800000Y-60662500D03*
X73400000Y-60662500D03*
X73000000Y-60662500D03*
X72600000Y-60662500D03*
X72200000Y-60662500D03*
X71800000Y-60662500D03*
X71400000Y-60662500D03*
D35*
X70562500Y-61500000D03*
X70562500Y-61900000D03*
X70562500Y-62300000D03*
X70562500Y-62700000D03*
X70562500Y-63100000D03*
X70562500Y-63500000D03*
X70562500Y-63900000D03*
X70562500Y-64300000D03*
X70562500Y-64700000D03*
X70562500Y-65100000D03*
X70562500Y-65500000D03*
X70562500Y-65900000D03*
X70562500Y-66300000D03*
X70562500Y-66700000D03*
D34*
X71400000Y-67537500D03*
X71800000Y-67537500D03*
X72200000Y-67537500D03*
X72600000Y-67537500D03*
X73000000Y-67537500D03*
X73400000Y-67537500D03*
X73800000Y-67537500D03*
X74200000Y-67537500D03*
X74600000Y-67537500D03*
X75000000Y-67537500D03*
X75400000Y-67537500D03*
X75800000Y-67537500D03*
X76200000Y-67537500D03*
X76600000Y-67537500D03*
D35*
X77437500Y-66700000D03*
X77437500Y-66300000D03*
X77437500Y-65900000D03*
X77437500Y-65500000D03*
X77437500Y-65100000D03*
X77437500Y-64700000D03*
X77437500Y-64300000D03*
X77437500Y-63900000D03*
X77437500Y-63500000D03*
X77437500Y-63100000D03*
X77437500Y-62700000D03*
X77437500Y-62300000D03*
X77437500Y-61900000D03*
X77437500Y-61500000D03*
D26*
X69280000Y-64500000D03*
X68320000Y-64500000D03*
D19*
X81993414Y-71673312D03*
X80826688Y-70506586D03*
D13*
X76600000Y-59400000D03*
X77560000Y-59400000D03*
D36*
X60350000Y-60040000D03*
X60350000Y-60540000D03*
X60350000Y-61040000D03*
X61850000Y-61040000D03*
X61850000Y-60540000D03*
X61850000Y-60040000D03*
D28*
X14400000Y-2525000D03*
X14400000Y-4075000D03*
D18*
X42500000Y-25650000D03*
X42500000Y-28950000D03*
X46500000Y-63650000D03*
X46500000Y-66950000D03*
D26*
X85680000Y-69000000D03*
X84720000Y-69000000D03*
D20*
X77000000Y-68520000D03*
X77000000Y-69480000D03*
D37*
X45965000Y-38370000D03*
X45965000Y-32370000D03*
X49715000Y-38370000D03*
X49715000Y-32370000D03*
D38*
X66125000Y-550000D03*
X64675000Y-550000D03*
D39*
X69100000Y-63075000D03*
X69100000Y-61525000D03*
D13*
X78620000Y-64400000D03*
X79580000Y-64400000D03*
D11*
X77720000Y-57700000D03*
X76700000Y-57700000D03*
D18*
X34400000Y-44750000D03*
X34400000Y-48050000D03*
X80500000Y-25650000D03*
X80500000Y-28950000D03*
D10*
X31800000Y-19050000D03*
X31800000Y-15750000D03*
D20*
X70910000Y-56720000D03*
X70910000Y-57680000D03*
D40*
X3800000Y-6650000D03*
X4300000Y-6650000D03*
X4800000Y-6650000D03*
X4800000Y-5150000D03*
X4300000Y-5150000D03*
X3800000Y-5150000D03*
D15*
X73000000Y-59580000D03*
X73000000Y-58620000D03*
D11*
X71910000Y-58700000D03*
X70890000Y-58700000D03*
D18*
X15300000Y-44650000D03*
X15300000Y-47950000D03*
D41*
X42150000Y-2900000D03*
X42150000Y-700000D03*
X31850000Y-2900000D03*
X31850000Y-700000D03*
D42*
X40000001Y-3545800D03*
X38500001Y-3545800D03*
X35499999Y-3545800D03*
X34000000Y-3545800D03*
D11*
X67400000Y-68600000D03*
X66380000Y-68600000D03*
D43*
X12750000Y-2550000D03*
D44*
X12750000Y-4045000D03*
D45*
X7450000Y-4050000D03*
D43*
X7450000Y-2550000D03*
M02*
