M48
; DRILL file {KiCad 8.0.4} date 2024-10-21T08:48:38+0100
; FORMAT={-:-/ absolute / metric / decimal}
; #@! TF.CreationDate,2024-10-21T08:48:38+01:00
; #@! TF.GenerationSoftware,Kicad,Pcbnew,8.0.4
; #@! TF.FileFunction,Plated,1,4,PTH
FMAT,2
METRIC
; #@! TA.AperFunction,Plated,PTH,ViaDrill
T1C0.300
; #@! TA.AperFunction,Plated,PTH,ViaDrill
T2C0.400
; #@! TA.AperFunction,Plated,PTH,ComponentDrill
T3C0.600
; #@! TA.AperFunction,Plated,PTH,ComponentDrill
T4C1.500
%
G90
G05
T1
X4.3Y-4.4
X35.5Y-5.0
X54.87Y-10.05
X55.541Y-8.891
X55.546Y-8.088
X56.692Y-8.098
X57.725Y-10.225
X57.75Y-9.175
X59.485Y-9.7
X63.55Y-4.45
X63.9Y-0.7
X64.9Y-62.2
X66.9Y-3.2
X67.4Y-65.2
X68.5Y-62.5
X71.2Y-58.2
X71.5Y-61.698
X71.5Y-64.3
X71.6Y-66.698
X71.7Y-62.4
X71.9Y-63.1
X72.1Y-59.6
X72.3Y-61.8
X72.7Y-62.8
X73.0Y-70.5
X73.0Y-68.248
X73.1Y-61.8
X73.5Y-56.0
X73.5Y-58.62
X73.5Y-59.6
X73.9Y-61.6
X74.6Y-68.4
X74.9Y-59.6
X74.9Y-61.6
X75.0Y-53.35
X75.3Y-65.4
X75.8Y-51.55
X75.85Y-52.8
X75.9Y-61.6
X76.297Y-63.716
X76.4Y-62.3
X76.4Y-63.1
X76.6Y-58.7
X77.6Y-58.7
X78.1Y-64.5
X78.4Y-58.1
X80.3Y-62.6
X81.9Y-61.1
X82.32Y-64.07
X83.127Y-66.6
X84.162Y-69.0
X84.4Y-67.2
X85.3Y-64.07
X86.362Y-69.0
X86.8Y-58.4
T2
X2.7Y-5.1
X2.8Y-7.8
X4.5Y-8.7
X6.2Y-3.4
X7.2Y-64.9
X8.7Y-60.1
X12.8Y-17.7
X14.4Y-4.6
X15.4Y-43.1
X15.6Y-1.9
X17.5Y-62.2
X23.5Y-24.3
X31.8Y-17.7
X34.4Y-43.2
X41.3Y-55.4
X42.5Y-24.2
X43.4Y-53.75
X44.7Y-58.5
X45.5Y-49.4
X46.5Y-62.1
X50.7Y-17.7
X51.6Y-6.5
X53.4Y-7.8
X53.4Y-43.2
X54.0Y-13.4
X54.925Y-63.2
X55.9Y-15.4
X58.75Y-7.9
X59.3Y-11.5
X59.3Y-14.9
X60.6Y-64.11
X60.9Y-59.3
X61.5Y-24.3
X61.6Y-7.325
X64.2Y-60.1
X64.6Y-54.55
X65.7Y-59.3
X66.7Y-54.55
X69.7Y-17.7
X72.4Y-43.3
X77.4Y-67.5
X77.4Y-70.3
X79.5Y-67.2
X80.3Y-64.8
X80.5Y-24.3
X88.7Y-17.7
X91.7Y-58.1
T4
X5.7Y-14.05
X8.7Y-52.05
X10.45Y-71.05
X12.7Y-13.0
X15.7Y-51.0
X16.7Y-33.05
X17.45Y-70.0
X23.7Y-32.0
X24.7Y-14.05
X27.7Y-52.05
X31.7Y-13.0
X34.7Y-51.0
X35.7Y-33.05
X38.95Y-71.05
X42.7Y-32.0
X43.7Y-14.05
X45.95Y-70.0
X46.7Y-52.05
X50.7Y-13.0
X53.7Y-51.0
X54.7Y-33.05
X61.7Y-32.0
X62.7Y-14.05
X65.7Y-52.05
X69.7Y-13.0
X72.7Y-51.0
X73.7Y-33.05
X80.7Y-32.0
X81.7Y-14.05
X84.7Y-52.05
X88.7Y-13.0
X91.7Y-51.0
T3
X50.18Y-1.7G85X50.18Y-0.7
G05
X50.18Y-5.5G85X50.18Y-4.9
G05
X61.42Y-1.7G85X61.42Y-0.7
G05
X61.42Y-5.5G85X61.42Y-4.9
G05
M30
