G04 #@! TF.GenerationSoftware,KiCad,Pcbnew,8.0.4*
G04 #@! TF.CreationDate,2025-02-13T17:40:08+00:00*
G04 #@! TF.ProjectId,Mathboard,4d617468-626f-4617-9264-2e6b69636164,rev?*
G04 #@! TF.SameCoordinates,PX501bd00PY28b8ce0*
G04 #@! TF.FileFunction,Copper,L4,Bot*
G04 #@! TF.FilePolarity,Positive*
%FSLAX46Y46*%
G04 Gerber Fmt 4.6, Leading zero omitted, Abs format (unit mm)*
G04 Created by KiCad (PCBNEW 8.0.4) date 2025-02-13 17:40:08*
%MOMM*%
%LPD*%
G01*
G04 APERTURE LIST*
G04 #@! TA.AperFunction,ComponentPad*
%ADD10O,1.000000X1.600000*%
G04 #@! TD*
G04 #@! TA.AperFunction,ComponentPad*
%ADD11O,1.000000X2.000000*%
G04 #@! TD*
G04 #@! TA.AperFunction,ComponentPad*
%ADD12C,5.400000*%
G04 #@! TD*
G04 #@! TA.AperFunction,WasherPad*
%ADD13C,1.397000*%
G04 #@! TD*
G04 #@! TA.AperFunction,ComponentPad*
%ADD14C,2.500000*%
G04 #@! TD*
G04 #@! TA.AperFunction,ViaPad*
%ADD15C,0.800000*%
G04 #@! TD*
G04 #@! TA.AperFunction,ViaPad*
%ADD16C,0.450000*%
G04 #@! TD*
G04 #@! TA.AperFunction,Conductor*
%ADD17C,0.500000*%
G04 #@! TD*
G04 #@! TA.AperFunction,Conductor*
%ADD18C,0.200000*%
G04 #@! TD*
G04 #@! TA.AperFunction,Conductor*
%ADD19C,0.291800*%
G04 #@! TD*
G04 APERTURE END LIST*
D10*
X61420000Y-6850000D03*
D11*
X61420000Y-2850000D03*
D10*
X50180000Y-6850000D03*
D11*
X50180000Y-2850000D03*
D12*
X74800000Y-5000000D03*
D13*
X34500000Y-1795300D03*
X39500001Y-1795300D03*
D14*
X5700000Y-14050000D03*
X12700000Y-13000000D03*
X65700000Y-52050000D03*
X72700000Y-51000000D03*
X27700000Y-52050000D03*
X34700000Y-51000000D03*
X62700000Y-14050000D03*
X69700000Y-13000000D03*
X38950000Y-71050000D03*
X45950000Y-70000000D03*
X84700000Y-52050000D03*
X91700000Y-51000000D03*
X43700000Y-14050000D03*
X50700000Y-13000000D03*
X24700000Y-14050000D03*
X31700000Y-13000000D03*
X16700000Y-33050000D03*
X23700000Y-32000000D03*
X8700000Y-52050000D03*
X15700000Y-51000000D03*
X54700000Y-33050000D03*
X61700000Y-32000000D03*
X46700000Y-52050000D03*
X53700000Y-51000000D03*
X35700000Y-33050000D03*
X42700000Y-32000000D03*
X81700000Y-14050000D03*
X88700000Y-13000000D03*
X10450000Y-71050000D03*
X17450000Y-70000000D03*
X73700000Y-33050000D03*
X80700000Y-32000000D03*
D15*
X50700000Y-21900000D03*
D16*
X73900000Y-61600000D03*
D15*
X75800000Y-45700000D03*
X85000000Y-21800000D03*
X83100000Y-21800000D03*
X28200000Y-18500000D03*
D16*
X74900000Y-61600000D03*
D15*
X29400000Y-21400000D03*
X50800000Y-24175000D03*
X83100000Y-23200000D03*
X79700000Y-45800000D03*
X44000000Y-56400000D03*
D16*
X75000000Y-59500000D03*
D15*
X13500000Y-59100000D03*
X77700000Y-45700000D03*
X13500000Y-61200000D03*
D16*
X76300000Y-63300000D03*
X71599626Y-66698309D03*
D15*
X77300000Y-55900000D03*
D16*
X71900000Y-63100000D03*
D15*
X44800000Y-58600000D03*
D16*
X71700000Y-62400000D03*
X71500000Y-61697639D03*
D15*
X44800000Y-57275000D03*
X53400000Y-9200000D03*
X58200000Y-9082346D03*
D16*
X55300000Y-19150000D03*
D15*
X2700000Y-5100000D03*
X15600000Y-2500000D03*
X58462500Y-20800000D03*
X76600000Y-44700000D03*
D16*
X44500000Y-850000D03*
D15*
X4500000Y-8700000D03*
D16*
X71200000Y-58200000D03*
D15*
X60900000Y-59300000D03*
D16*
X73000000Y-70500000D03*
D15*
X6200000Y-4000000D03*
D16*
X35500000Y-5000000D03*
D15*
X14400000Y-5200000D03*
X67700000Y-64900000D03*
X51600000Y-8100000D03*
X30800000Y-20100000D03*
X82995000Y-61200000D03*
X46600000Y-54600000D03*
D16*
X78200000Y-59100000D03*
D15*
X59900000Y-8100000D03*
D16*
X73500000Y-58620000D03*
X72800000Y-64200000D03*
D15*
X12100000Y-58800000D03*
D16*
X39850000Y-6550000D03*
X68500000Y-62500000D03*
X86300000Y-64070000D03*
D15*
X77400000Y-70300000D03*
X85300000Y-22980000D03*
X80077431Y-64922569D03*
X46000000Y-35400000D03*
X87800000Y-68000000D03*
D16*
X73300000Y-56000000D03*
D15*
X49526371Y-23000000D03*
X78655851Y-68298787D03*
D16*
X66400000Y-67600000D03*
X75300000Y-65400000D03*
X64900000Y-62200000D03*
X83320000Y-64070000D03*
X4300000Y-4400000D03*
D15*
X52120000Y-23000000D03*
X2800000Y-7800000D03*
D16*
X41100000Y-9900000D03*
D15*
X28100000Y-20100000D03*
X77400000Y-67500000D03*
D16*
X76600000Y-58700000D03*
D15*
X12100000Y-61600000D03*
D16*
X78100000Y-64400000D03*
X73500000Y-59600000D03*
D15*
X86000000Y-68900000D03*
D16*
X73000001Y-68247508D03*
D15*
X86825000Y-57475000D03*
D16*
X71500000Y-64300000D03*
X78400000Y-58100000D03*
D15*
X78800000Y-44700000D03*
X85300000Y-25480000D03*
X59300000Y-62800000D03*
X58462500Y-17400000D03*
X46600000Y-56400000D03*
X64200000Y-60100000D03*
X11000000Y-60240000D03*
D16*
X51500000Y-10600000D03*
X57120900Y-9200000D03*
X72300000Y-61800000D03*
D15*
X44800000Y-55500000D03*
D16*
X73100000Y-61800000D03*
D15*
X44500000Y-52200000D03*
X44900000Y-53750000D03*
D16*
X72100000Y-59600000D03*
X55479100Y-9325038D03*
X56550000Y-9900000D03*
D17*
X43400000Y-46900000D02*
X47125000Y-43175000D01*
X43400000Y-55800000D02*
X43400000Y-46900000D01*
X47125000Y-43175000D02*
X76875000Y-43175000D01*
X76875000Y-43175000D02*
X77700000Y-44000000D01*
X77700000Y-44000000D02*
X77700000Y-45700000D01*
X44000000Y-56400000D02*
X43400000Y-55800000D01*
X29000000Y-17700000D02*
X28200000Y-18500000D01*
X44800000Y-17700000D02*
X29000000Y-17700000D01*
X49000000Y-21900000D02*
X44800000Y-17700000D01*
X50700000Y-21900000D02*
X49000000Y-21900000D01*
X74150000Y-51883453D02*
X74150000Y-61350000D01*
X85000000Y-21800000D02*
X83100000Y-21800000D01*
X74150000Y-61350000D02*
X73900000Y-61600000D01*
X50800000Y-21800000D02*
X83100000Y-21800000D01*
X75800000Y-45700000D02*
X75800000Y-50233453D01*
X75800000Y-50233453D02*
X74150000Y-51883453D01*
X50700000Y-21900000D02*
X50800000Y-21800000D01*
X79700000Y-45800000D02*
X79700000Y-51600000D01*
X75950000Y-60550000D02*
X74900000Y-61600000D01*
X79700000Y-51600000D02*
X75950000Y-55350000D01*
X75950000Y-55350000D02*
X75950000Y-60550000D01*
X75000000Y-53800000D02*
X75000000Y-59500000D01*
X14900000Y-57700000D02*
X13500000Y-59100000D01*
X77700000Y-51100000D02*
X75000000Y-53800000D01*
X44000000Y-56400000D02*
X42700000Y-57700000D01*
X42700000Y-57700000D02*
X14900000Y-57700000D01*
X77700000Y-45700000D02*
X77700000Y-51100000D01*
X69300000Y-65900000D02*
X69800000Y-65400000D01*
X13500000Y-61200000D02*
X14500000Y-62200000D01*
X40255583Y-62175000D02*
X42844417Y-62175000D01*
X42869417Y-62200000D02*
X46600000Y-62200000D01*
X69800000Y-65400000D02*
X73700000Y-65400000D01*
X14500000Y-62200000D02*
X40230583Y-62200000D01*
X50300000Y-65900000D02*
X69300000Y-65900000D01*
X73700000Y-65400000D02*
X75800000Y-63300000D01*
X46600000Y-62200000D02*
X50300000Y-65900000D01*
X40230583Y-62200000D02*
X40255583Y-62175000D01*
X42844417Y-62175000D02*
X42869417Y-62200000D01*
X75800000Y-63300000D02*
X76300000Y-63300000D01*
X74198309Y-66698309D02*
X74200000Y-66700000D01*
X71599626Y-66698309D02*
X74198309Y-66698309D01*
X74200000Y-66700000D02*
X82500000Y-66700000D01*
X84700000Y-64500000D02*
X84700000Y-52050000D01*
X82500000Y-66700000D02*
X84700000Y-64500000D01*
X77300000Y-55900000D02*
X77300000Y-60119238D01*
X74319238Y-63100000D02*
X71900000Y-63100000D01*
X77300000Y-60119238D02*
X74319238Y-63100000D01*
X66500000Y-58500000D02*
X70400000Y-62400000D01*
X44800000Y-58600000D02*
X44900000Y-58500000D01*
X70400000Y-62400000D02*
X71700000Y-62400000D01*
X44900000Y-58500000D02*
X66500000Y-58500000D01*
X44800000Y-57275000D02*
X67075000Y-57275000D01*
X70277538Y-60477538D02*
X70279899Y-60477538D01*
X70279899Y-60477538D02*
X71500000Y-61697639D01*
X67075000Y-57275000D02*
X70277538Y-60477538D01*
X2700000Y-5100000D02*
X2700000Y-4100000D01*
X15600000Y-8500000D02*
X23200000Y-16100000D01*
X5450000Y-1350000D02*
X14450000Y-1350000D01*
X50850000Y-19150000D02*
X55300000Y-19150000D01*
X23200000Y-16100000D02*
X47800000Y-16100000D01*
X47800000Y-16100000D02*
X50850000Y-19150000D01*
X15600000Y-2500000D02*
X15600000Y-8500000D01*
X14450000Y-1350000D02*
X15600000Y-2500000D01*
X2700000Y-4100000D02*
X5450000Y-1350000D01*
X11000000Y-60240000D02*
X64060000Y-60240000D01*
X64060000Y-60240000D02*
X64200000Y-60100000D01*
D18*
X51500000Y-10600000D02*
X56592463Y-10600000D01*
X57120900Y-10071563D02*
X57120900Y-9200000D01*
X56592463Y-10600000D02*
X57120900Y-10071563D01*
D17*
X44800000Y-55500000D02*
X67000000Y-55500000D01*
X72300000Y-60800000D02*
X72300000Y-61800000D01*
X67000000Y-55500000D02*
X72300000Y-60800000D01*
X52995836Y-49300000D02*
X65543042Y-49300000D01*
X65543042Y-49300000D02*
X72800000Y-56556958D01*
X52870836Y-49425000D02*
X52995836Y-49300000D01*
X72800000Y-59854595D02*
X73100000Y-60154595D01*
X45500000Y-49425000D02*
X52870836Y-49425000D01*
X72800000Y-56556958D02*
X72800000Y-59854595D01*
X45500000Y-49425000D02*
X44500000Y-50425000D01*
X44500000Y-50425000D02*
X44500000Y-52200000D01*
X73100000Y-60154595D02*
X73100000Y-61800000D01*
X72100000Y-58100000D02*
X72100000Y-59600000D01*
X44900000Y-53750000D02*
X67750000Y-53750000D01*
X67750000Y-53750000D02*
X72100000Y-58100000D01*
D19*
X56054062Y-9900000D02*
X55479100Y-9325038D01*
X56550000Y-9900000D02*
X56054062Y-9900000D01*
D17*
X42575000Y-24175000D02*
X39800000Y-21400000D01*
X82125000Y-24175000D02*
X83100000Y-23200000D01*
X50800000Y-24175000D02*
X82125000Y-24175000D01*
X50800000Y-24175000D02*
X42575000Y-24175000D01*
X39800000Y-21400000D02*
X29400000Y-21400000D01*
G04 #@! TA.AperFunction,Conductor*
G36*
X58859191Y-7419407D02*
G01*
X58895155Y-7468907D01*
X58900000Y-7499500D01*
X58900000Y-9501000D01*
X58881093Y-9559191D01*
X58831593Y-9595155D01*
X58801000Y-9600000D01*
X57556193Y-9600000D01*
X57498002Y-9581093D01*
X57462038Y-9531593D01*
X57462038Y-9470407D01*
X57467983Y-9456055D01*
X57469426Y-9453221D01*
X57469428Y-9453220D01*
X57530619Y-9333126D01*
X57551704Y-9200000D01*
X57530619Y-9066874D01*
X57469428Y-8946780D01*
X57374120Y-8851472D01*
X57374117Y-8851470D01*
X57254029Y-8790282D01*
X57254027Y-8790281D01*
X57120900Y-8769196D01*
X56987772Y-8790281D01*
X56987770Y-8790282D01*
X56867682Y-8851470D01*
X56772370Y-8946782D01*
X56711182Y-9066870D01*
X56711181Y-9066872D01*
X56691377Y-9191910D01*
X56690096Y-9200000D01*
X56711181Y-9333126D01*
X56712538Y-9335789D01*
X56713005Y-9338743D01*
X56713589Y-9340538D01*
X56713304Y-9340630D01*
X56722109Y-9396221D01*
X56694332Y-9450738D01*
X56639815Y-9478515D01*
X56608842Y-9478515D01*
X56550002Y-9469196D01*
X56550000Y-9469196D01*
X56416872Y-9490281D01*
X56349511Y-9524604D01*
X56313781Y-9542809D01*
X56268837Y-9553600D01*
X56238554Y-9553600D01*
X56180363Y-9534693D01*
X56168550Y-9524604D01*
X55921529Y-9277583D01*
X55893753Y-9223068D01*
X55888819Y-9191912D01*
X55888817Y-9191908D01*
X55888816Y-9191905D01*
X55827629Y-9071820D01*
X55827628Y-9071818D01*
X55732320Y-8976510D01*
X55732317Y-8976508D01*
X55612229Y-8915320D01*
X55612227Y-8915319D01*
X55479100Y-8894234D01*
X55345972Y-8915319D01*
X55345970Y-8915320D01*
X55225882Y-8976508D01*
X55130570Y-9071820D01*
X55069382Y-9191908D01*
X55069381Y-9191910D01*
X55048296Y-9325037D01*
X55048296Y-9325038D01*
X55069381Y-9458165D01*
X55071789Y-9465576D01*
X55069909Y-9466186D01*
X55077879Y-9516480D01*
X55050106Y-9570998D01*
X54995591Y-9598780D01*
X54980097Y-9600000D01*
X52799000Y-9600000D01*
X52740809Y-9581093D01*
X52704845Y-9531593D01*
X52700000Y-9501000D01*
X52700000Y-7499500D01*
X52718907Y-7441309D01*
X52768407Y-7405345D01*
X52799000Y-7400500D01*
X58801000Y-7400500D01*
X58859191Y-7419407D01*
G37*
G04 #@! TD.AperFunction*
M02*
