G04 #@! TF.GenerationSoftware,KiCad,Pcbnew,8.0.4*
G04 #@! TF.CreationDate,2025-02-13T17:40:08+00:00*
G04 #@! TF.ProjectId,Mathboard,4d617468-626f-4617-9264-2e6b69636164,rev?*
G04 #@! TF.SameCoordinates,PX501bd00PY28b8ce0*
G04 #@! TF.FileFunction,Soldermask,Top*
G04 #@! TF.FilePolarity,Negative*
%FSLAX46Y46*%
G04 Gerber Fmt 4.6, Leading zero omitted, Abs format (unit mm)*
G04 Created by KiCad (PCBNEW 8.0.4) date 2025-02-13 17:40:08*
%MOMM*%
%LPD*%
G01*
G04 APERTURE LIST*
G04 Aperture macros list*
%AMRoundRect*
0 Rectangle with rounded corners*
0 $1 Rounding radius*
0 $2 $3 $4 $5 $6 $7 $8 $9 X,Y pos of 4 corners*
0 Add a 4 corners polygon primitive as box body*
4,1,4,$2,$3,$4,$5,$6,$7,$8,$9,$2,$3,0*
0 Add four circle primitives for the rounded corners*
1,1,$1+$1,$2,$3*
1,1,$1+$1,$4,$5*
1,1,$1+$1,$6,$7*
1,1,$1+$1,$8,$9*
0 Add four rect primitives between the rounded corners*
20,1,$1+$1,$2,$3,$4,$5,0*
20,1,$1+$1,$4,$5,$6,$7,0*
20,1,$1+$1,$6,$7,$8,$9,0*
20,1,$1+$1,$8,$9,$2,$3,0*%
G04 Aperture macros list end*
%ADD10C,0.010000*%
%ADD11R,0.600000X1.240000*%
%ADD12R,0.300000X1.240000*%
%ADD13O,1.000000X1.600000*%
%ADD14O,1.000000X2.000000*%
%ADD15RoundRect,0.225000X0.375000X-0.225000X0.375000X0.225000X-0.375000X0.225000X-0.375000X-0.225000X0*%
%ADD16R,0.500000X0.600000*%
%ADD17RoundRect,0.140000X-0.170000X0.140000X-0.170000X-0.140000X0.170000X-0.140000X0.170000X0.140000X0*%
%ADD18RoundRect,0.225000X-0.250000X0.225000X-0.250000X-0.225000X0.250000X-0.225000X0.250000X0.225000X0*%
%ADD19RoundRect,0.225000X-0.225000X-0.375000X0.225000X-0.375000X0.225000X0.375000X-0.225000X0.375000X0*%
%ADD20RoundRect,0.135000X0.185000X-0.135000X0.185000X0.135000X-0.185000X0.135000X-0.185000X-0.135000X0*%
%ADD21RoundRect,0.135000X0.135000X0.185000X-0.135000X0.185000X-0.135000X-0.185000X0.135000X-0.185000X0*%
%ADD22R,1.150000X1.000000*%
%ADD23RoundRect,0.140000X-0.140000X-0.170000X0.140000X-0.170000X0.140000X0.170000X-0.140000X0.170000X0*%
%ADD24RoundRect,0.140000X0.170000X-0.140000X0.170000X0.140000X-0.170000X0.140000X-0.170000X-0.140000X0*%
%ADD25RoundRect,0.225000X-0.375000X0.225000X-0.375000X-0.225000X0.375000X-0.225000X0.375000X0.225000X0*%
%ADD26RoundRect,0.200000X0.335876X0.053033X0.053033X0.335876X-0.335876X-0.053033X-0.053033X-0.335876X0*%
%ADD27RoundRect,0.135000X-0.185000X0.135000X-0.185000X-0.135000X0.185000X-0.135000X0.185000X0.135000X0*%
%ADD28RoundRect,0.135000X-0.135000X-0.185000X0.135000X-0.185000X0.135000X0.185000X-0.135000X0.185000X0*%
%ADD29R,4.300000X3.400000*%
%ADD30RoundRect,0.125000X-0.125000X0.200000X-0.125000X-0.200000X0.125000X-0.200000X0.125000X0.200000X0*%
%ADD31RoundRect,0.140000X0.140000X0.170000X-0.140000X0.170000X-0.140000X-0.170000X0.140000X-0.170000X0*%
%ADD32RoundRect,0.100000X-0.100000X0.225000X-0.100000X-0.225000X0.100000X-0.225000X0.100000X0.225000X0*%
%ADD33RoundRect,0.225000X0.225000X0.375000X-0.225000X0.375000X-0.225000X-0.375000X0.225000X-0.375000X0*%
%ADD34RoundRect,0.085000X0.265000X0.085000X-0.265000X0.085000X-0.265000X-0.085000X0.265000X-0.085000X0*%
%ADD35R,3.200000X3.200000*%
%ADD36RoundRect,0.050000X-0.387500X0.050000X-0.387500X-0.050000X0.387500X-0.050000X0.387500X0.050000X0*%
%ADD37RoundRect,0.050000X-0.050000X0.387500X-0.050000X-0.387500X0.050000X-0.387500X0.050000X0.387500X0*%
%ADD38RoundRect,0.085000X-0.265000X-0.085000X0.265000X-0.085000X0.265000X0.085000X-0.265000X0.085000X0*%
%ADD39C,5.400000*%
%ADD40R,0.750000X1.000000*%
%ADD41R,0.650000X0.650000*%
%ADD42RoundRect,0.225000X0.250000X-0.225000X0.250000X0.225000X-0.250000X0.225000X-0.250000X-0.225000X0*%
%ADD43RoundRect,0.085000X0.085000X-0.265000X0.085000X0.265000X-0.085000X0.265000X-0.085000X-0.265000X0*%
%ADD44R,0.800000X1.600000*%
%ADD45R,1.000000X0.850000*%
%ADD46C,1.397000*%
%ADD47R,1.500000X0.820000*%
%ADD48R,1.500000X0.810000*%
%ADD49RoundRect,0.205000X0.545000X0.205000X-0.545000X0.205000X-0.545000X-0.205000X0.545000X-0.205000X0*%
%ADD50C,2.500000*%
%ADD51C,5.250000*%
%ADD52RoundRect,0.147500X-0.172500X0.147500X-0.172500X-0.147500X0.172500X-0.147500X0.172500X0.147500X0*%
%ADD53RoundRect,0.150000X0.587500X0.150000X-0.587500X0.150000X-0.587500X-0.150000X0.587500X-0.150000X0*%
%ADD54RoundRect,0.147500X-0.147500X-0.172500X0.147500X-0.172500X0.147500X0.172500X-0.147500X0.172500X0*%
%ADD55RoundRect,0.093750X0.093750X-0.156250X0.093750X0.156250X-0.093750X0.156250X-0.093750X-0.156250X0*%
%ADD56RoundRect,0.075000X0.075000X-0.250000X0.075000X0.250000X-0.075000X0.250000X-0.075000X-0.250000X0*%
G04 APERTURE END LIST*
D10*
X33735690Y-70140018D02*
X33770585Y-70155269D01*
X33853877Y-70221235D01*
X33925103Y-70316618D01*
X33969153Y-70418406D01*
X33976322Y-70468587D01*
X33952285Y-70538647D01*
X33899561Y-70575717D01*
X33843031Y-70598164D01*
X33817146Y-70602300D01*
X33804542Y-70572283D01*
X33779654Y-70506961D01*
X33768735Y-70477445D01*
X33707508Y-70375348D01*
X33618861Y-70324423D01*
X33505193Y-70325989D01*
X33496774Y-70327994D01*
X33436088Y-70356767D01*
X33391474Y-70412859D01*
X33361002Y-70503163D01*
X33342744Y-70634571D01*
X33334771Y-70813974D01*
X33334023Y-70909433D01*
X33333652Y-71059913D01*
X33331223Y-71162495D01*
X33324760Y-71227672D01*
X33312288Y-71265938D01*
X33291833Y-71287785D01*
X33261419Y-71303707D01*
X33259661Y-71304509D01*
X33201091Y-71329272D01*
X33172075Y-71338391D01*
X33167616Y-71310822D01*
X33163799Y-71234620D01*
X33160899Y-71119541D01*
X33159191Y-70975341D01*
X33158851Y-70869814D01*
X33160588Y-70665613D01*
X33167382Y-70510697D01*
X33181607Y-70396024D01*
X33205638Y-70312551D01*
X33241848Y-70251236D01*
X33292612Y-70203034D01*
X33342739Y-70169393D01*
X33463275Y-70124619D01*
X33603557Y-70114521D01*
X33735690Y-70140018D01*
G36*
X33735690Y-70140018D02*
G01*
X33770585Y-70155269D01*
X33853877Y-70221235D01*
X33925103Y-70316618D01*
X33969153Y-70418406D01*
X33976322Y-70468587D01*
X33952285Y-70538647D01*
X33899561Y-70575717D01*
X33843031Y-70598164D01*
X33817146Y-70602300D01*
X33804542Y-70572283D01*
X33779654Y-70506961D01*
X33768735Y-70477445D01*
X33707508Y-70375348D01*
X33618861Y-70324423D01*
X33505193Y-70325989D01*
X33496774Y-70327994D01*
X33436088Y-70356767D01*
X33391474Y-70412859D01*
X33361002Y-70503163D01*
X33342744Y-70634571D01*
X33334771Y-70813974D01*
X33334023Y-70909433D01*
X33333652Y-71059913D01*
X33331223Y-71162495D01*
X33324760Y-71227672D01*
X33312288Y-71265938D01*
X33291833Y-71287785D01*
X33261419Y-71303707D01*
X33259661Y-71304509D01*
X33201091Y-71329272D01*
X33172075Y-71338391D01*
X33167616Y-71310822D01*
X33163799Y-71234620D01*
X33160899Y-71119541D01*
X33159191Y-70975341D01*
X33158851Y-70869814D01*
X33160588Y-70665613D01*
X33167382Y-70510697D01*
X33181607Y-70396024D01*
X33205638Y-70312551D01*
X33241848Y-70251236D01*
X33292612Y-70203034D01*
X33342739Y-70169393D01*
X33463275Y-70124619D01*
X33603557Y-70114521D01*
X33735690Y-70140018D01*
G37*
X25817429Y-70077719D02*
X25911123Y-70131914D01*
X25976264Y-70185707D01*
X26023907Y-70242066D01*
X26056728Y-70310987D01*
X26077406Y-70402468D01*
X26088620Y-70526506D01*
X26093049Y-70693098D01*
X26093563Y-70812851D01*
X26093563Y-71253659D01*
X25969483Y-71309283D01*
X25845402Y-71364907D01*
X25830805Y-70882095D01*
X25824773Y-70701779D01*
X25818445Y-70570901D01*
X25810606Y-70480511D01*
X25800037Y-70421664D01*
X25785523Y-70385413D01*
X25765848Y-70362810D01*
X25759535Y-70357917D01*
X25663888Y-70319706D01*
X25567207Y-70334827D01*
X25509655Y-70374943D01*
X25486245Y-70403370D01*
X25470039Y-70440672D01*
X25459741Y-70497223D01*
X25454049Y-70583394D01*
X25451664Y-70709558D01*
X25451264Y-70841042D01*
X25451186Y-71005999D01*
X25448361Y-71122761D01*
X25438907Y-71201510D01*
X25418940Y-71252431D01*
X25384576Y-71285706D01*
X25331932Y-71311520D01*
X25261617Y-71338344D01*
X25184820Y-71367542D01*
X25193962Y-70849346D01*
X25197643Y-70662539D01*
X25201950Y-70524490D01*
X25208123Y-70425568D01*
X25217402Y-70356145D01*
X25231027Y-70306590D01*
X25250239Y-70267273D01*
X25273402Y-70232584D01*
X25385152Y-70121770D01*
X25521513Y-70057689D01*
X25669825Y-70042339D01*
X25817429Y-70077719D01*
G36*
X25817429Y-70077719D02*
G01*
X25911123Y-70131914D01*
X25976264Y-70185707D01*
X26023907Y-70242066D01*
X26056728Y-70310987D01*
X26077406Y-70402468D01*
X26088620Y-70526506D01*
X26093049Y-70693098D01*
X26093563Y-70812851D01*
X26093563Y-71253659D01*
X25969483Y-71309283D01*
X25845402Y-71364907D01*
X25830805Y-70882095D01*
X25824773Y-70701779D01*
X25818445Y-70570901D01*
X25810606Y-70480511D01*
X25800037Y-70421664D01*
X25785523Y-70385413D01*
X25765848Y-70362810D01*
X25759535Y-70357917D01*
X25663888Y-70319706D01*
X25567207Y-70334827D01*
X25509655Y-70374943D01*
X25486245Y-70403370D01*
X25470039Y-70440672D01*
X25459741Y-70497223D01*
X25454049Y-70583394D01*
X25451664Y-70709558D01*
X25451264Y-70841042D01*
X25451186Y-71005999D01*
X25448361Y-71122761D01*
X25438907Y-71201510D01*
X25418940Y-71252431D01*
X25384576Y-71285706D01*
X25331932Y-71311520D01*
X25261617Y-71338344D01*
X25184820Y-71367542D01*
X25193962Y-70849346D01*
X25197643Y-70662539D01*
X25201950Y-70524490D01*
X25208123Y-70425568D01*
X25217402Y-70356145D01*
X25231027Y-70306590D01*
X25250239Y-70267273D01*
X25273402Y-70232584D01*
X25385152Y-70121770D01*
X25521513Y-70057689D01*
X25669825Y-70042339D01*
X25817429Y-70077719D01*
G37*
X29465943Y-70121920D02*
X29598565Y-70170859D01*
X29706010Y-70257419D01*
X29748032Y-70318352D01*
X29793843Y-70430161D01*
X29792891Y-70511006D01*
X29744808Y-70565378D01*
X29727017Y-70574624D01*
X29650204Y-70603450D01*
X29610976Y-70596065D01*
X29597689Y-70547658D01*
X29597012Y-70520920D01*
X29572686Y-70422548D01*
X29509281Y-70353734D01*
X29421154Y-70320498D01*
X29322663Y-70328861D01*
X29242602Y-70372296D01*
X29215561Y-70397072D01*
X29196394Y-70427129D01*
X29183446Y-70472565D01*
X29175064Y-70543476D01*
X29169593Y-70649960D01*
X29165378Y-70802112D01*
X29164287Y-70850287D01*
X29160307Y-71015095D01*
X29155781Y-71131088D01*
X29148995Y-71207833D01*
X29138231Y-71254893D01*
X29121773Y-71281835D01*
X29097906Y-71298223D01*
X29082626Y-71305463D01*
X29017733Y-71330220D01*
X28979534Y-71338391D01*
X28966912Y-71311103D01*
X28959208Y-71228603D01*
X28956380Y-71089941D01*
X28958386Y-70894162D01*
X28959011Y-70863965D01*
X28963421Y-70685349D01*
X28968635Y-70554923D01*
X28976055Y-70462492D01*
X28987082Y-70397858D01*
X29003117Y-70350825D01*
X29025561Y-70311196D01*
X29037302Y-70294215D01*
X29104619Y-70219080D01*
X29179910Y-70160638D01*
X29189128Y-70155536D01*
X29324133Y-70115260D01*
X29465943Y-70121920D01*
G36*
X29465943Y-70121920D02*
G01*
X29598565Y-70170859D01*
X29706010Y-70257419D01*
X29748032Y-70318352D01*
X29793843Y-70430161D01*
X29792891Y-70511006D01*
X29744808Y-70565378D01*
X29727017Y-70574624D01*
X29650204Y-70603450D01*
X29610976Y-70596065D01*
X29597689Y-70547658D01*
X29597012Y-70520920D01*
X29572686Y-70422548D01*
X29509281Y-70353734D01*
X29421154Y-70320498D01*
X29322663Y-70328861D01*
X29242602Y-70372296D01*
X29215561Y-70397072D01*
X29196394Y-70427129D01*
X29183446Y-70472565D01*
X29175064Y-70543476D01*
X29169593Y-70649960D01*
X29165378Y-70802112D01*
X29164287Y-70850287D01*
X29160307Y-71015095D01*
X29155781Y-71131088D01*
X29148995Y-71207833D01*
X29138231Y-71254893D01*
X29121773Y-71281835D01*
X29097906Y-71298223D01*
X29082626Y-71305463D01*
X29017733Y-71330220D01*
X28979534Y-71338391D01*
X28966912Y-71311103D01*
X28959208Y-71228603D01*
X28956380Y-71089941D01*
X28958386Y-70894162D01*
X28959011Y-70863965D01*
X28963421Y-70685349D01*
X28968635Y-70554923D01*
X28976055Y-70462492D01*
X28987082Y-70397858D01*
X29003117Y-70350825D01*
X29025561Y-70311196D01*
X29037302Y-70294215D01*
X29104619Y-70219080D01*
X29179910Y-70160638D01*
X29189128Y-70155536D01*
X29324133Y-70115260D01*
X29465943Y-70121920D01*
G37*
X31980124Y-70139840D02*
X31984579Y-70216653D01*
X31988071Y-70333391D01*
X31990315Y-70480821D01*
X31991035Y-70635455D01*
X31991035Y-71158727D01*
X31898645Y-71251117D01*
X31834978Y-71308047D01*
X31779089Y-71331107D01*
X31702702Y-71329647D01*
X31672380Y-71325934D01*
X31577610Y-71315126D01*
X31499222Y-71308933D01*
X31480115Y-71308361D01*
X31415699Y-71312102D01*
X31323571Y-71321494D01*
X31287850Y-71325934D01*
X31200114Y-71332801D01*
X31141153Y-71317885D01*
X31082690Y-71271835D01*
X31061585Y-71251117D01*
X30969195Y-71158727D01*
X30969195Y-70179947D01*
X31043558Y-70146066D01*
X31107590Y-70120970D01*
X31145052Y-70112184D01*
X31154657Y-70139950D01*
X31163635Y-70217530D01*
X31171386Y-70336348D01*
X31177314Y-70487828D01*
X31180173Y-70615805D01*
X31188161Y-71119425D01*
X31257848Y-71129278D01*
X31321229Y-71122389D01*
X31352286Y-71100083D01*
X31360967Y-71058379D01*
X31368378Y-70969544D01*
X31373931Y-70844834D01*
X31377036Y-70695507D01*
X31377484Y-70618661D01*
X31377931Y-70176287D01*
X31469874Y-70144235D01*
X31534949Y-70122443D01*
X31570347Y-70112281D01*
X31571368Y-70112184D01*
X31574920Y-70139809D01*
X31578823Y-70216411D01*
X31582751Y-70332579D01*
X31586376Y-70478904D01*
X31588908Y-70615805D01*
X31596897Y-71119425D01*
X31772069Y-71119425D01*
X31780107Y-70659965D01*
X31788146Y-70200505D01*
X31873543Y-70156344D01*
X31936593Y-70126019D01*
X31973910Y-70112258D01*
X31974987Y-70112184D01*
X31980124Y-70139840D01*
G36*
X31980124Y-70139840D02*
G01*
X31984579Y-70216653D01*
X31988071Y-70333391D01*
X31990315Y-70480821D01*
X31991035Y-70635455D01*
X31991035Y-71158727D01*
X31898645Y-71251117D01*
X31834978Y-71308047D01*
X31779089Y-71331107D01*
X31702702Y-71329647D01*
X31672380Y-71325934D01*
X31577610Y-71315126D01*
X31499222Y-71308933D01*
X31480115Y-71308361D01*
X31415699Y-71312102D01*
X31323571Y-71321494D01*
X31287850Y-71325934D01*
X31200114Y-71332801D01*
X31141153Y-71317885D01*
X31082690Y-71271835D01*
X31061585Y-71251117D01*
X30969195Y-71158727D01*
X30969195Y-70179947D01*
X31043558Y-70146066D01*
X31107590Y-70120970D01*
X31145052Y-70112184D01*
X31154657Y-70139950D01*
X31163635Y-70217530D01*
X31171386Y-70336348D01*
X31177314Y-70487828D01*
X31180173Y-70615805D01*
X31188161Y-71119425D01*
X31257848Y-71129278D01*
X31321229Y-71122389D01*
X31352286Y-71100083D01*
X31360967Y-71058379D01*
X31368378Y-70969544D01*
X31373931Y-70844834D01*
X31377036Y-70695507D01*
X31377484Y-70618661D01*
X31377931Y-70176287D01*
X31469874Y-70144235D01*
X31534949Y-70122443D01*
X31570347Y-70112281D01*
X31571368Y-70112184D01*
X31574920Y-70139809D01*
X31578823Y-70216411D01*
X31582751Y-70332579D01*
X31586376Y-70478904D01*
X31588908Y-70615805D01*
X31596897Y-71119425D01*
X31772069Y-71119425D01*
X31780107Y-70659965D01*
X31788146Y-70200505D01*
X31873543Y-70156344D01*
X31936593Y-70126019D01*
X31973910Y-70112258D01*
X31974987Y-70112184D01*
X31980124Y-70139840D01*
G37*
X27144598Y-69923857D02*
X27153154Y-70043188D01*
X27162981Y-70113506D01*
X27176599Y-70144179D01*
X27196527Y-70144571D01*
X27202989Y-70140910D01*
X27288940Y-70114398D01*
X27400745Y-70115946D01*
X27514414Y-70143199D01*
X27585510Y-70178455D01*
X27658405Y-70234778D01*
X27711693Y-70298519D01*
X27748275Y-70379510D01*
X27771050Y-70487586D01*
X27782919Y-70632580D01*
X27786782Y-70824326D01*
X27786851Y-70861109D01*
X27786897Y-71274288D01*
X27694954Y-71306339D01*
X27629652Y-71328144D01*
X27593824Y-71338297D01*
X27592770Y-71338391D01*
X27589242Y-71310860D01*
X27586239Y-71234923D01*
X27583990Y-71120565D01*
X27582724Y-70977769D01*
X27582529Y-70890951D01*
X27582123Y-70719773D01*
X27580032Y-70597088D01*
X27574947Y-70513000D01*
X27565560Y-70457614D01*
X27550561Y-70421032D01*
X27528642Y-70393359D01*
X27514957Y-70380032D01*
X27420949Y-70326328D01*
X27318364Y-70322307D01*
X27225290Y-70367725D01*
X27208078Y-70384123D01*
X27182832Y-70414957D01*
X27165320Y-70451531D01*
X27154142Y-70504415D01*
X27147896Y-70584177D01*
X27145182Y-70701385D01*
X27144598Y-70862991D01*
X27144598Y-71274288D01*
X27052655Y-71306339D01*
X26987353Y-71328144D01*
X26951525Y-71338297D01*
X26950471Y-71338391D01*
X26947775Y-71310448D01*
X26945345Y-71231630D01*
X26943278Y-71109453D01*
X26941671Y-70951432D01*
X26940623Y-70765083D01*
X26940231Y-70557920D01*
X26940230Y-70548706D01*
X26940230Y-69759020D01*
X27035115Y-69718997D01*
X27130000Y-69678973D01*
X27144598Y-69923857D01*
G36*
X27144598Y-69923857D02*
G01*
X27153154Y-70043188D01*
X27162981Y-70113506D01*
X27176599Y-70144179D01*
X27196527Y-70144571D01*
X27202989Y-70140910D01*
X27288940Y-70114398D01*
X27400745Y-70115946D01*
X27514414Y-70143199D01*
X27585510Y-70178455D01*
X27658405Y-70234778D01*
X27711693Y-70298519D01*
X27748275Y-70379510D01*
X27771050Y-70487586D01*
X27782919Y-70632580D01*
X27786782Y-70824326D01*
X27786851Y-70861109D01*
X27786897Y-71274288D01*
X27694954Y-71306339D01*
X27629652Y-71328144D01*
X27593824Y-71338297D01*
X27592770Y-71338391D01*
X27589242Y-71310860D01*
X27586239Y-71234923D01*
X27583990Y-71120565D01*
X27582724Y-70977769D01*
X27582529Y-70890951D01*
X27582123Y-70719773D01*
X27580032Y-70597088D01*
X27574947Y-70513000D01*
X27565560Y-70457614D01*
X27550561Y-70421032D01*
X27528642Y-70393359D01*
X27514957Y-70380032D01*
X27420949Y-70326328D01*
X27318364Y-70322307D01*
X27225290Y-70367725D01*
X27208078Y-70384123D01*
X27182832Y-70414957D01*
X27165320Y-70451531D01*
X27154142Y-70504415D01*
X27147896Y-70584177D01*
X27145182Y-70701385D01*
X27144598Y-70862991D01*
X27144598Y-71274288D01*
X27052655Y-71306339D01*
X26987353Y-71328144D01*
X26951525Y-71338297D01*
X26950471Y-71338391D01*
X26947775Y-71310448D01*
X26945345Y-71231630D01*
X26943278Y-71109453D01*
X26941671Y-70951432D01*
X26940623Y-70765083D01*
X26940231Y-70557920D01*
X26940230Y-70548706D01*
X26940230Y-69759020D01*
X27035115Y-69718997D01*
X27130000Y-69678973D01*
X27144598Y-69923857D01*
G37*
X22448221Y-70066015D02*
X22585061Y-70137968D01*
X22686051Y-70253766D01*
X22721925Y-70328213D01*
X22749839Y-70439992D01*
X22764129Y-70581227D01*
X22765484Y-70735371D01*
X22754595Y-70885879D01*
X22732153Y-71016205D01*
X22698850Y-71109803D01*
X22688615Y-71125922D01*
X22567382Y-71246249D01*
X22423387Y-71318317D01*
X22267139Y-71339408D01*
X22109148Y-71306802D01*
X22065180Y-71287253D01*
X21979556Y-71227012D01*
X21904408Y-71147135D01*
X21897306Y-71137004D01*
X21868439Y-71088181D01*
X21849357Y-71035990D01*
X21838084Y-70967285D01*
X21832645Y-70868918D01*
X21831062Y-70727744D01*
X21831035Y-70696092D01*
X21831107Y-70686019D01*
X22122989Y-70686019D01*
X22124687Y-70819256D01*
X22131372Y-70907674D01*
X22145425Y-70964785D01*
X22169229Y-71004102D01*
X22181379Y-71017241D01*
X22251236Y-71067172D01*
X22319059Y-71064895D01*
X22387635Y-71021584D01*
X22428535Y-70975346D01*
X22452758Y-70907857D01*
X22466361Y-70801433D01*
X22467294Y-70789020D01*
X22469616Y-70596147D01*
X22445350Y-70452900D01*
X22394824Y-70360160D01*
X22318368Y-70318807D01*
X22291076Y-70316552D01*
X22219411Y-70327893D01*
X22170390Y-70367184D01*
X22140418Y-70442326D01*
X22125899Y-70561222D01*
X22122989Y-70686019D01*
X21831107Y-70686019D01*
X21832122Y-70545659D01*
X21836688Y-70440549D01*
X21846688Y-70367714D01*
X21864079Y-70314108D01*
X21890816Y-70266681D01*
X21896724Y-70257864D01*
X21996032Y-70139007D01*
X22104242Y-70070008D01*
X22235981Y-70042619D01*
X22280717Y-70041281D01*
X22448221Y-70066015D01*
G36*
X22448221Y-70066015D02*
G01*
X22585061Y-70137968D01*
X22686051Y-70253766D01*
X22721925Y-70328213D01*
X22749839Y-70439992D01*
X22764129Y-70581227D01*
X22765484Y-70735371D01*
X22754595Y-70885879D01*
X22732153Y-71016205D01*
X22698850Y-71109803D01*
X22688615Y-71125922D01*
X22567382Y-71246249D01*
X22423387Y-71318317D01*
X22267139Y-71339408D01*
X22109148Y-71306802D01*
X22065180Y-71287253D01*
X21979556Y-71227012D01*
X21904408Y-71147135D01*
X21897306Y-71137004D01*
X21868439Y-71088181D01*
X21849357Y-71035990D01*
X21838084Y-70967285D01*
X21832645Y-70868918D01*
X21831062Y-70727744D01*
X21831035Y-70696092D01*
X21831107Y-70686019D01*
X22122989Y-70686019D01*
X22124687Y-70819256D01*
X22131372Y-70907674D01*
X22145425Y-70964785D01*
X22169229Y-71004102D01*
X22181379Y-71017241D01*
X22251236Y-71067172D01*
X22319059Y-71064895D01*
X22387635Y-71021584D01*
X22428535Y-70975346D01*
X22452758Y-70907857D01*
X22466361Y-70801433D01*
X22467294Y-70789020D01*
X22469616Y-70596147D01*
X22445350Y-70452900D01*
X22394824Y-70360160D01*
X22318368Y-70318807D01*
X22291076Y-70316552D01*
X22219411Y-70327893D01*
X22170390Y-70367184D01*
X22140418Y-70442326D01*
X22125899Y-70561222D01*
X22122989Y-70686019D01*
X21831107Y-70686019D01*
X21832122Y-70545659D01*
X21836688Y-70440549D01*
X21846688Y-70367714D01*
X21864079Y-70314108D01*
X21890816Y-70266681D01*
X21896724Y-70257864D01*
X21996032Y-70139007D01*
X22104242Y-70070008D01*
X22235981Y-70042619D01*
X22280717Y-70041281D01*
X22448221Y-70066015D01*
G37*
X34743439Y-70156540D02*
X34858950Y-70232034D01*
X34914664Y-70299617D01*
X34958804Y-70422255D01*
X34962309Y-70519298D01*
X34954368Y-70649056D01*
X34655115Y-70780039D01*
X34509611Y-70846958D01*
X34414537Y-70900790D01*
X34365101Y-70947416D01*
X34356511Y-70992720D01*
X34383972Y-71042582D01*
X34414253Y-71075632D01*
X34502363Y-71128633D01*
X34598196Y-71132347D01*
X34686212Y-71091041D01*
X34750869Y-71008983D01*
X34762433Y-70980008D01*
X34817825Y-70889509D01*
X34881553Y-70850940D01*
X34968966Y-70817946D01*
X34968966Y-70943034D01*
X34961238Y-71028156D01*
X34930966Y-71099938D01*
X34867518Y-71182356D01*
X34858088Y-71193066D01*
X34787513Y-71266391D01*
X34726847Y-71305742D01*
X34650950Y-71323845D01*
X34588030Y-71329774D01*
X34475487Y-71331251D01*
X34395370Y-71312535D01*
X34345390Y-71284747D01*
X34266838Y-71223641D01*
X34212463Y-71157554D01*
X34178052Y-71074441D01*
X34159388Y-70962254D01*
X34152256Y-70808946D01*
X34151687Y-70731136D01*
X34153622Y-70637853D01*
X34329899Y-70637853D01*
X34331944Y-70687896D01*
X34337039Y-70696092D01*
X34370666Y-70684958D01*
X34443030Y-70655493D01*
X34539747Y-70613601D01*
X34559973Y-70604597D01*
X34682203Y-70542442D01*
X34749547Y-70487815D01*
X34764348Y-70436649D01*
X34728947Y-70384876D01*
X34699711Y-70362000D01*
X34594216Y-70316250D01*
X34495476Y-70323808D01*
X34412812Y-70379651D01*
X34355548Y-70478753D01*
X34337188Y-70557414D01*
X34329899Y-70637853D01*
X34153622Y-70637853D01*
X34155459Y-70549351D01*
X34169359Y-70414853D01*
X34196894Y-70316916D01*
X34241572Y-70244811D01*
X34306901Y-70187813D01*
X34335383Y-70169393D01*
X34464763Y-70121422D01*
X34606412Y-70118403D01*
X34743439Y-70156540D01*
G36*
X34743439Y-70156540D02*
G01*
X34858950Y-70232034D01*
X34914664Y-70299617D01*
X34958804Y-70422255D01*
X34962309Y-70519298D01*
X34954368Y-70649056D01*
X34655115Y-70780039D01*
X34509611Y-70846958D01*
X34414537Y-70900790D01*
X34365101Y-70947416D01*
X34356511Y-70992720D01*
X34383972Y-71042582D01*
X34414253Y-71075632D01*
X34502363Y-71128633D01*
X34598196Y-71132347D01*
X34686212Y-71091041D01*
X34750869Y-71008983D01*
X34762433Y-70980008D01*
X34817825Y-70889509D01*
X34881553Y-70850940D01*
X34968966Y-70817946D01*
X34968966Y-70943034D01*
X34961238Y-71028156D01*
X34930966Y-71099938D01*
X34867518Y-71182356D01*
X34858088Y-71193066D01*
X34787513Y-71266391D01*
X34726847Y-71305742D01*
X34650950Y-71323845D01*
X34588030Y-71329774D01*
X34475487Y-71331251D01*
X34395370Y-71312535D01*
X34345390Y-71284747D01*
X34266838Y-71223641D01*
X34212463Y-71157554D01*
X34178052Y-71074441D01*
X34159388Y-70962254D01*
X34152256Y-70808946D01*
X34151687Y-70731136D01*
X34153622Y-70637853D01*
X34329899Y-70637853D01*
X34331944Y-70687896D01*
X34337039Y-70696092D01*
X34370666Y-70684958D01*
X34443030Y-70655493D01*
X34539747Y-70613601D01*
X34559973Y-70604597D01*
X34682203Y-70542442D01*
X34749547Y-70487815D01*
X34764348Y-70436649D01*
X34728947Y-70384876D01*
X34699711Y-70362000D01*
X34594216Y-70316250D01*
X34495476Y-70323808D01*
X34412812Y-70379651D01*
X34355548Y-70478753D01*
X34337188Y-70557414D01*
X34329899Y-70637853D01*
X34153622Y-70637853D01*
X34155459Y-70549351D01*
X34169359Y-70414853D01*
X34196894Y-70316916D01*
X34241572Y-70244811D01*
X34306901Y-70187813D01*
X34335383Y-70169393D01*
X34464763Y-70121422D01*
X34606412Y-70118403D01*
X34743439Y-70156540D01*
G37*
X30793914Y-70354455D02*
X30793543Y-70572661D01*
X30792108Y-70740519D01*
X30789002Y-70866070D01*
X30783622Y-70957355D01*
X30775362Y-71022415D01*
X30763616Y-71069291D01*
X30747781Y-71106024D01*
X30735790Y-71126991D01*
X30636490Y-71240694D01*
X30510588Y-71311965D01*
X30371291Y-71337538D01*
X30231805Y-71314150D01*
X30148743Y-71272119D01*
X30061545Y-71199411D01*
X30002117Y-71110612D01*
X29966261Y-70994320D01*
X29949781Y-70839135D01*
X29947447Y-70725287D01*
X29947761Y-70717106D01*
X30151724Y-70717106D01*
X30152970Y-70847657D01*
X30158678Y-70934080D01*
X30171804Y-70990618D01*
X30195306Y-71031514D01*
X30223386Y-71062362D01*
X30317688Y-71121905D01*
X30418940Y-71126992D01*
X30514636Y-71077279D01*
X30522084Y-71070543D01*
X30553874Y-71035502D01*
X30573808Y-70993811D01*
X30584600Y-70931762D01*
X30588965Y-70835644D01*
X30589655Y-70729379D01*
X30588159Y-70595880D01*
X30581964Y-70506822D01*
X30568514Y-70448293D01*
X30545251Y-70406382D01*
X30526175Y-70384123D01*
X30437563Y-70327985D01*
X30335508Y-70321235D01*
X30238095Y-70364114D01*
X30219296Y-70380032D01*
X30187293Y-70415382D01*
X30167318Y-70457502D01*
X30156593Y-70520251D01*
X30152339Y-70617487D01*
X30151724Y-70717106D01*
X29947761Y-70717106D01*
X29954504Y-70541947D01*
X29978472Y-70404195D01*
X30023548Y-70300632D01*
X30093928Y-70219856D01*
X30148743Y-70178455D01*
X30248376Y-70133728D01*
X30363855Y-70112967D01*
X30471199Y-70118525D01*
X30531264Y-70140943D01*
X30554835Y-70147323D01*
X30570477Y-70123535D01*
X30581395Y-70059788D01*
X30589655Y-69962687D01*
X30598699Y-69854541D01*
X30611261Y-69789475D01*
X30634119Y-69752268D01*
X30674051Y-69727699D01*
X30699138Y-69716819D01*
X30794023Y-69677072D01*
X30793914Y-70354455D01*
G36*
X30793914Y-70354455D02*
G01*
X30793543Y-70572661D01*
X30792108Y-70740519D01*
X30789002Y-70866070D01*
X30783622Y-70957355D01*
X30775362Y-71022415D01*
X30763616Y-71069291D01*
X30747781Y-71106024D01*
X30735790Y-71126991D01*
X30636490Y-71240694D01*
X30510588Y-71311965D01*
X30371291Y-71337538D01*
X30231805Y-71314150D01*
X30148743Y-71272119D01*
X30061545Y-71199411D01*
X30002117Y-71110612D01*
X29966261Y-70994320D01*
X29949781Y-70839135D01*
X29947447Y-70725287D01*
X29947761Y-70717106D01*
X30151724Y-70717106D01*
X30152970Y-70847657D01*
X30158678Y-70934080D01*
X30171804Y-70990618D01*
X30195306Y-71031514D01*
X30223386Y-71062362D01*
X30317688Y-71121905D01*
X30418940Y-71126992D01*
X30514636Y-71077279D01*
X30522084Y-71070543D01*
X30553874Y-71035502D01*
X30573808Y-70993811D01*
X30584600Y-70931762D01*
X30588965Y-70835644D01*
X30589655Y-70729379D01*
X30588159Y-70595880D01*
X30581964Y-70506822D01*
X30568514Y-70448293D01*
X30545251Y-70406382D01*
X30526175Y-70384123D01*
X30437563Y-70327985D01*
X30335508Y-70321235D01*
X30238095Y-70364114D01*
X30219296Y-70380032D01*
X30187293Y-70415382D01*
X30167318Y-70457502D01*
X30156593Y-70520251D01*
X30152339Y-70617487D01*
X30151724Y-70717106D01*
X29947761Y-70717106D01*
X29954504Y-70541947D01*
X29978472Y-70404195D01*
X30023548Y-70300632D01*
X30093928Y-70219856D01*
X30148743Y-70178455D01*
X30248376Y-70133728D01*
X30363855Y-70112967D01*
X30471199Y-70118525D01*
X30531264Y-70140943D01*
X30554835Y-70147323D01*
X30570477Y-70123535D01*
X30581395Y-70059788D01*
X30589655Y-69962687D01*
X30598699Y-69854541D01*
X30611261Y-69789475D01*
X30634119Y-69752268D01*
X30674051Y-69727699D01*
X30699138Y-69716819D01*
X30794023Y-69677072D01*
X30793914Y-70354455D01*
G37*
X24715552Y-70084676D02*
X24830658Y-70162111D01*
X24919611Y-70273949D01*
X24972749Y-70416265D01*
X24983497Y-70521015D01*
X24982276Y-70564726D01*
X24972056Y-70598194D01*
X24943961Y-70628179D01*
X24889116Y-70661440D01*
X24798645Y-70704738D01*
X24663672Y-70764833D01*
X24662989Y-70765134D01*
X24538751Y-70822037D01*
X24436873Y-70872565D01*
X24367767Y-70911280D01*
X24341846Y-70932740D01*
X24341839Y-70932913D01*
X24364685Y-70979644D01*
X24418109Y-71031154D01*
X24479442Y-71068261D01*
X24510515Y-71075632D01*
X24595289Y-71050138D01*
X24668293Y-70986291D01*
X24703913Y-70916094D01*
X24738180Y-70864343D01*
X24805303Y-70805409D01*
X24884208Y-70754496D01*
X24953821Y-70726809D01*
X24968377Y-70725287D01*
X24984763Y-70750321D01*
X24985750Y-70814311D01*
X24973708Y-70900593D01*
X24951007Y-70992501D01*
X24920014Y-71073369D01*
X24918448Y-71076509D01*
X24825181Y-71206734D01*
X24704304Y-71295311D01*
X24567027Y-71338786D01*
X24424560Y-71333706D01*
X24288112Y-71276616D01*
X24282045Y-71272602D01*
X24174710Y-71175326D01*
X24104132Y-71048409D01*
X24065074Y-70881526D01*
X24059832Y-70834639D01*
X24050548Y-70613329D01*
X24061678Y-70510124D01*
X24341839Y-70510124D01*
X24345479Y-70574503D01*
X24365389Y-70593291D01*
X24415026Y-70579235D01*
X24493267Y-70546009D01*
X24580726Y-70504359D01*
X24582899Y-70503256D01*
X24657030Y-70464265D01*
X24686781Y-70438244D01*
X24679445Y-70410965D01*
X24648553Y-70375121D01*
X24569960Y-70323251D01*
X24485323Y-70319439D01*
X24409403Y-70357189D01*
X24356965Y-70430001D01*
X24341839Y-70510124D01*
X24061678Y-70510124D01*
X24069644Y-70436261D01*
X24118634Y-70295829D01*
X24186836Y-70197447D01*
X24309935Y-70098030D01*
X24445528Y-70048711D01*
X24583955Y-70045568D01*
X24715552Y-70084676D01*
G36*
X24715552Y-70084676D02*
G01*
X24830658Y-70162111D01*
X24919611Y-70273949D01*
X24972749Y-70416265D01*
X24983497Y-70521015D01*
X24982276Y-70564726D01*
X24972056Y-70598194D01*
X24943961Y-70628179D01*
X24889116Y-70661440D01*
X24798645Y-70704738D01*
X24663672Y-70764833D01*
X24662989Y-70765134D01*
X24538751Y-70822037D01*
X24436873Y-70872565D01*
X24367767Y-70911280D01*
X24341846Y-70932740D01*
X24341839Y-70932913D01*
X24364685Y-70979644D01*
X24418109Y-71031154D01*
X24479442Y-71068261D01*
X24510515Y-71075632D01*
X24595289Y-71050138D01*
X24668293Y-70986291D01*
X24703913Y-70916094D01*
X24738180Y-70864343D01*
X24805303Y-70805409D01*
X24884208Y-70754496D01*
X24953821Y-70726809D01*
X24968377Y-70725287D01*
X24984763Y-70750321D01*
X24985750Y-70814311D01*
X24973708Y-70900593D01*
X24951007Y-70992501D01*
X24920014Y-71073369D01*
X24918448Y-71076509D01*
X24825181Y-71206734D01*
X24704304Y-71295311D01*
X24567027Y-71338786D01*
X24424560Y-71333706D01*
X24288112Y-71276616D01*
X24282045Y-71272602D01*
X24174710Y-71175326D01*
X24104132Y-71048409D01*
X24065074Y-70881526D01*
X24059832Y-70834639D01*
X24050548Y-70613329D01*
X24061678Y-70510124D01*
X24341839Y-70510124D01*
X24345479Y-70574503D01*
X24365389Y-70593291D01*
X24415026Y-70579235D01*
X24493267Y-70546009D01*
X24580726Y-70504359D01*
X24582899Y-70503256D01*
X24657030Y-70464265D01*
X24686781Y-70438244D01*
X24679445Y-70410965D01*
X24648553Y-70375121D01*
X24569960Y-70323251D01*
X24485323Y-70319439D01*
X24409403Y-70357189D01*
X24356965Y-70430001D01*
X24341839Y-70510124D01*
X24061678Y-70510124D01*
X24069644Y-70436261D01*
X24118634Y-70295829D01*
X24186836Y-70197447D01*
X24309935Y-70098030D01*
X24445528Y-70048711D01*
X24583955Y-70045568D01*
X24715552Y-70084676D01*
G37*
X28479944Y-70124360D02*
X28594343Y-70166842D01*
X28595652Y-70167658D01*
X28666403Y-70219730D01*
X28718636Y-70280584D01*
X28755371Y-70359887D01*
X28779634Y-70467309D01*
X28794445Y-70612517D01*
X28802829Y-70805179D01*
X28803564Y-70832628D01*
X28814120Y-71246521D01*
X28725291Y-71292456D01*
X28661018Y-71323498D01*
X28622210Y-71338206D01*
X28620415Y-71338391D01*
X28613700Y-71311250D01*
X28608365Y-71238041D01*
X28605083Y-71131081D01*
X28604368Y-71044469D01*
X28604351Y-70904162D01*
X28597937Y-70816051D01*
X28575580Y-70774025D01*
X28527732Y-70771975D01*
X28444849Y-70803790D01*
X28319713Y-70862272D01*
X28227697Y-70910845D01*
X28180371Y-70952986D01*
X28166458Y-70998916D01*
X28166437Y-71001189D01*
X28189395Y-71080311D01*
X28257370Y-71123055D01*
X28361398Y-71129246D01*
X28436330Y-71128172D01*
X28475839Y-71149753D01*
X28500478Y-71201591D01*
X28514659Y-71267632D01*
X28494223Y-71305104D01*
X28486528Y-71310467D01*
X28414083Y-71332006D01*
X28312633Y-71335055D01*
X28208157Y-71320778D01*
X28134125Y-71294688D01*
X28031772Y-71207785D01*
X27973591Y-71086816D01*
X27962069Y-70992308D01*
X27970862Y-70907062D01*
X28002680Y-70837476D01*
X28065684Y-70775672D01*
X28168031Y-70713772D01*
X28317882Y-70643897D01*
X28327012Y-70639948D01*
X28461997Y-70577588D01*
X28545294Y-70526446D01*
X28580997Y-70480488D01*
X28573203Y-70433683D01*
X28526007Y-70379998D01*
X28511894Y-70367644D01*
X28417359Y-70319741D01*
X28319406Y-70321758D01*
X28234097Y-70368724D01*
X28177496Y-70455669D01*
X28172237Y-70472734D01*
X28121023Y-70555504D01*
X28056037Y-70595372D01*
X27962069Y-70634882D01*
X27962069Y-70532658D01*
X27990653Y-70384072D01*
X28075495Y-70247784D01*
X28119645Y-70202191D01*
X28220005Y-70143674D01*
X28347635Y-70117184D01*
X28479944Y-70124360D01*
G36*
X28479944Y-70124360D02*
G01*
X28594343Y-70166842D01*
X28595652Y-70167658D01*
X28666403Y-70219730D01*
X28718636Y-70280584D01*
X28755371Y-70359887D01*
X28779634Y-70467309D01*
X28794445Y-70612517D01*
X28802829Y-70805179D01*
X28803564Y-70832628D01*
X28814120Y-71246521D01*
X28725291Y-71292456D01*
X28661018Y-71323498D01*
X28622210Y-71338206D01*
X28620415Y-71338391D01*
X28613700Y-71311250D01*
X28608365Y-71238041D01*
X28605083Y-71131081D01*
X28604368Y-71044469D01*
X28604351Y-70904162D01*
X28597937Y-70816051D01*
X28575580Y-70774025D01*
X28527732Y-70771975D01*
X28444849Y-70803790D01*
X28319713Y-70862272D01*
X28227697Y-70910845D01*
X28180371Y-70952986D01*
X28166458Y-70998916D01*
X28166437Y-71001189D01*
X28189395Y-71080311D01*
X28257370Y-71123055D01*
X28361398Y-71129246D01*
X28436330Y-71128172D01*
X28475839Y-71149753D01*
X28500478Y-71201591D01*
X28514659Y-71267632D01*
X28494223Y-71305104D01*
X28486528Y-71310467D01*
X28414083Y-71332006D01*
X28312633Y-71335055D01*
X28208157Y-71320778D01*
X28134125Y-71294688D01*
X28031772Y-71207785D01*
X27973591Y-71086816D01*
X27962069Y-70992308D01*
X27970862Y-70907062D01*
X28002680Y-70837476D01*
X28065684Y-70775672D01*
X28168031Y-70713772D01*
X28317882Y-70643897D01*
X28327012Y-70639948D01*
X28461997Y-70577588D01*
X28545294Y-70526446D01*
X28580997Y-70480488D01*
X28573203Y-70433683D01*
X28526007Y-70379998D01*
X28511894Y-70367644D01*
X28417359Y-70319741D01*
X28319406Y-70321758D01*
X28234097Y-70368724D01*
X28177496Y-70455669D01*
X28172237Y-70472734D01*
X28121023Y-70555504D01*
X28056037Y-70595372D01*
X27962069Y-70634882D01*
X27962069Y-70532658D01*
X27990653Y-70384072D01*
X28075495Y-70247784D01*
X28119645Y-70202191D01*
X28220005Y-70143674D01*
X28347635Y-70117184D01*
X28479944Y-70124360D01*
G37*
X23571900Y-70061903D02*
X23683450Y-70117522D01*
X23781908Y-70219931D01*
X23809023Y-70257864D01*
X23838562Y-70307500D01*
X23857728Y-70361412D01*
X23868693Y-70433364D01*
X23873629Y-70537122D01*
X23874713Y-70674101D01*
X23869818Y-70861815D01*
X23852804Y-71002758D01*
X23820177Y-71107908D01*
X23768442Y-71188243D01*
X23694104Y-71254741D01*
X23688642Y-71258678D01*
X23615380Y-71298953D01*
X23527160Y-71318880D01*
X23414962Y-71323793D01*
X23232567Y-71323793D01*
X23232491Y-71500857D01*
X23230793Y-71599470D01*
X23220450Y-71657314D01*
X23193422Y-71692006D01*
X23141668Y-71721164D01*
X23129239Y-71727121D01*
X23071077Y-71755039D01*
X23026044Y-71772672D01*
X22992559Y-71774194D01*
X22969038Y-71753781D01*
X22953900Y-71705607D01*
X22945563Y-71623846D01*
X22942444Y-71502672D01*
X22942960Y-71336260D01*
X22945529Y-71118785D01*
X22946332Y-71053736D01*
X22949222Y-70829502D01*
X22951812Y-70682821D01*
X23232414Y-70682821D01*
X23233991Y-70807326D01*
X23241000Y-70888787D01*
X23256858Y-70942515D01*
X23284981Y-70983823D01*
X23304075Y-71003971D01*
X23382135Y-71062921D01*
X23451247Y-71067720D01*
X23522560Y-71019038D01*
X23524368Y-71017241D01*
X23553383Y-70979618D01*
X23571033Y-70928484D01*
X23579936Y-70849738D01*
X23582709Y-70729276D01*
X23582759Y-70702588D01*
X23576058Y-70536583D01*
X23554248Y-70421505D01*
X23514765Y-70351254D01*
X23455044Y-70319729D01*
X23420528Y-70316552D01*
X23338611Y-70331460D01*
X23282421Y-70380548D01*
X23248598Y-70470362D01*
X23233780Y-70607445D01*
X23232414Y-70682821D01*
X22951812Y-70682821D01*
X22952287Y-70655952D01*
X22956247Y-70525382D01*
X22961826Y-70430087D01*
X22969746Y-70362364D01*
X22980731Y-70314507D01*
X22995501Y-70278813D01*
X23014782Y-70247578D01*
X23023049Y-70235824D01*
X23132712Y-70124797D01*
X23271365Y-70061847D01*
X23431754Y-70044297D01*
X23571900Y-70061903D01*
G36*
X23571900Y-70061903D02*
G01*
X23683450Y-70117522D01*
X23781908Y-70219931D01*
X23809023Y-70257864D01*
X23838562Y-70307500D01*
X23857728Y-70361412D01*
X23868693Y-70433364D01*
X23873629Y-70537122D01*
X23874713Y-70674101D01*
X23869818Y-70861815D01*
X23852804Y-71002758D01*
X23820177Y-71107908D01*
X23768442Y-71188243D01*
X23694104Y-71254741D01*
X23688642Y-71258678D01*
X23615380Y-71298953D01*
X23527160Y-71318880D01*
X23414962Y-71323793D01*
X23232567Y-71323793D01*
X23232491Y-71500857D01*
X23230793Y-71599470D01*
X23220450Y-71657314D01*
X23193422Y-71692006D01*
X23141668Y-71721164D01*
X23129239Y-71727121D01*
X23071077Y-71755039D01*
X23026044Y-71772672D01*
X22992559Y-71774194D01*
X22969038Y-71753781D01*
X22953900Y-71705607D01*
X22945563Y-71623846D01*
X22942444Y-71502672D01*
X22942960Y-71336260D01*
X22945529Y-71118785D01*
X22946332Y-71053736D01*
X22949222Y-70829502D01*
X22951812Y-70682821D01*
X23232414Y-70682821D01*
X23233991Y-70807326D01*
X23241000Y-70888787D01*
X23256858Y-70942515D01*
X23284981Y-70983823D01*
X23304075Y-71003971D01*
X23382135Y-71062921D01*
X23451247Y-71067720D01*
X23522560Y-71019038D01*
X23524368Y-71017241D01*
X23553383Y-70979618D01*
X23571033Y-70928484D01*
X23579936Y-70849738D01*
X23582709Y-70729276D01*
X23582759Y-70702588D01*
X23576058Y-70536583D01*
X23554248Y-70421505D01*
X23514765Y-70351254D01*
X23455044Y-70319729D01*
X23420528Y-70316552D01*
X23338611Y-70331460D01*
X23282421Y-70380548D01*
X23248598Y-70470362D01*
X23233780Y-70607445D01*
X23232414Y-70682821D01*
X22951812Y-70682821D01*
X22952287Y-70655952D01*
X22956247Y-70525382D01*
X22961826Y-70430087D01*
X22969746Y-70362364D01*
X22980731Y-70314507D01*
X22995501Y-70278813D01*
X23014782Y-70247578D01*
X23023049Y-70235824D01*
X23132712Y-70124797D01*
X23271365Y-70061847D01*
X23431754Y-70044297D01*
X23571900Y-70061903D01*
G37*
X32714406Y-70135156D02*
X32798469Y-70173393D01*
X32864450Y-70219726D01*
X32912794Y-70271532D01*
X32946172Y-70338363D01*
X32967253Y-70429769D01*
X32978707Y-70555301D01*
X32983203Y-70724508D01*
X32983678Y-70835933D01*
X32983678Y-71270627D01*
X32909316Y-71304509D01*
X32850746Y-71329272D01*
X32821730Y-71338391D01*
X32816179Y-71311257D01*
X32811775Y-71238094D01*
X32809078Y-71131263D01*
X32808506Y-71046437D01*
X32806046Y-70923887D01*
X32799412Y-70826668D01*
X32789726Y-70767134D01*
X32782032Y-70754483D01*
X32730311Y-70767402D01*
X32649117Y-70800539D01*
X32555102Y-70845461D01*
X32464917Y-70893735D01*
X32395215Y-70936928D01*
X32362648Y-70966608D01*
X32362519Y-70966929D01*
X32365320Y-71021857D01*
X32390439Y-71074292D01*
X32434541Y-71116881D01*
X32498909Y-71131126D01*
X32553921Y-71129466D01*
X32631835Y-71128245D01*
X32672732Y-71146498D01*
X32697295Y-71194726D01*
X32700392Y-71203820D01*
X32711040Y-71272598D01*
X32682565Y-71314360D01*
X32608344Y-71334263D01*
X32528168Y-71337944D01*
X32383890Y-71310658D01*
X32309203Y-71271690D01*
X32216963Y-71180148D01*
X32168043Y-71067782D01*
X32163654Y-70949051D01*
X32205001Y-70838411D01*
X32267197Y-70769080D01*
X32329294Y-70730265D01*
X32426895Y-70681125D01*
X32540632Y-70631292D01*
X32559590Y-70623677D01*
X32684521Y-70568545D01*
X32756539Y-70519954D01*
X32779700Y-70471647D01*
X32758064Y-70417370D01*
X32720920Y-70374943D01*
X32633127Y-70322702D01*
X32536530Y-70318784D01*
X32447944Y-70359041D01*
X32384186Y-70439326D01*
X32375817Y-70460040D01*
X32327096Y-70536225D01*
X32255965Y-70592785D01*
X32166207Y-70639201D01*
X32166207Y-70507584D01*
X32171490Y-70427168D01*
X32194142Y-70363786D01*
X32244367Y-70296163D01*
X32292582Y-70244076D01*
X32367554Y-70170322D01*
X32425806Y-70130702D01*
X32488372Y-70114810D01*
X32559193Y-70112184D01*
X32714406Y-70135156D01*
G36*
X32714406Y-70135156D02*
G01*
X32798469Y-70173393D01*
X32864450Y-70219726D01*
X32912794Y-70271532D01*
X32946172Y-70338363D01*
X32967253Y-70429769D01*
X32978707Y-70555301D01*
X32983203Y-70724508D01*
X32983678Y-70835933D01*
X32983678Y-71270627D01*
X32909316Y-71304509D01*
X32850746Y-71329272D01*
X32821730Y-71338391D01*
X32816179Y-71311257D01*
X32811775Y-71238094D01*
X32809078Y-71131263D01*
X32808506Y-71046437D01*
X32806046Y-70923887D01*
X32799412Y-70826668D01*
X32789726Y-70767134D01*
X32782032Y-70754483D01*
X32730311Y-70767402D01*
X32649117Y-70800539D01*
X32555102Y-70845461D01*
X32464917Y-70893735D01*
X32395215Y-70936928D01*
X32362648Y-70966608D01*
X32362519Y-70966929D01*
X32365320Y-71021857D01*
X32390439Y-71074292D01*
X32434541Y-71116881D01*
X32498909Y-71131126D01*
X32553921Y-71129466D01*
X32631835Y-71128245D01*
X32672732Y-71146498D01*
X32697295Y-71194726D01*
X32700392Y-71203820D01*
X32711040Y-71272598D01*
X32682565Y-71314360D01*
X32608344Y-71334263D01*
X32528168Y-71337944D01*
X32383890Y-71310658D01*
X32309203Y-71271690D01*
X32216963Y-71180148D01*
X32168043Y-71067782D01*
X32163654Y-70949051D01*
X32205001Y-70838411D01*
X32267197Y-70769080D01*
X32329294Y-70730265D01*
X32426895Y-70681125D01*
X32540632Y-70631292D01*
X32559590Y-70623677D01*
X32684521Y-70568545D01*
X32756539Y-70519954D01*
X32779700Y-70471647D01*
X32758064Y-70417370D01*
X32720920Y-70374943D01*
X32633127Y-70322702D01*
X32536530Y-70318784D01*
X32447944Y-70359041D01*
X32384186Y-70439326D01*
X32375817Y-70460040D01*
X32327096Y-70536225D01*
X32255965Y-70592785D01*
X32166207Y-70639201D01*
X32166207Y-70507584D01*
X32171490Y-70427168D01*
X32194142Y-70363786D01*
X32244367Y-70296163D01*
X32292582Y-70244076D01*
X32367554Y-70170322D01*
X32425806Y-70130702D01*
X32488372Y-70114810D01*
X32559193Y-70112184D01*
X32714406Y-70135156D01*
G37*
X28609014Y-60652998D02*
X28767006Y-60653863D01*
X28881347Y-60656205D01*
X28959407Y-60660762D01*
X29008554Y-60668270D01*
X29036159Y-60679466D01*
X29049592Y-60695088D01*
X29056221Y-60715873D01*
X29056865Y-60718563D01*
X29066935Y-60767113D01*
X29085575Y-60862905D01*
X29110845Y-60995743D01*
X29140807Y-61155431D01*
X29173522Y-61331774D01*
X29174664Y-61337967D01*
X29207433Y-61510782D01*
X29238093Y-61663469D01*
X29264664Y-61786871D01*
X29285167Y-61871831D01*
X29297626Y-61909190D01*
X29298220Y-61909852D01*
X29334919Y-61928095D01*
X29410586Y-61958497D01*
X29508878Y-61994493D01*
X29509425Y-61994685D01*
X29633233Y-62041222D01*
X29779196Y-62100504D01*
X29916781Y-62160109D01*
X29923293Y-62163056D01*
X30147390Y-62264765D01*
X30643619Y-61925897D01*
X30795846Y-61822592D01*
X30933741Y-61730237D01*
X31049315Y-61654084D01*
X31134579Y-61599385D01*
X31181544Y-61571393D01*
X31186004Y-61569317D01*
X31220134Y-61578560D01*
X31283881Y-61623156D01*
X31379731Y-61705209D01*
X31510169Y-61826821D01*
X31643328Y-61956205D01*
X31771694Y-62083702D01*
X31886581Y-62200046D01*
X31981073Y-62298052D01*
X32048253Y-62370536D01*
X32081206Y-62410313D01*
X32082432Y-62412361D01*
X32086074Y-62439656D01*
X32072350Y-62484234D01*
X32037869Y-62552112D01*
X31979239Y-62649311D01*
X31893070Y-62781851D01*
X31778200Y-62952476D01*
X31676254Y-63102655D01*
X31585123Y-63237350D01*
X31510073Y-63348740D01*
X31456369Y-63429005D01*
X31429280Y-63470325D01*
X31427574Y-63473130D01*
X31430882Y-63512721D01*
X31455953Y-63589669D01*
X31497798Y-63689432D01*
X31512712Y-63721291D01*
X31577786Y-63863226D01*
X31647212Y-64024273D01*
X31703609Y-64163621D01*
X31744247Y-64267044D01*
X31776526Y-64345642D01*
X31795178Y-64386720D01*
X31797497Y-64389885D01*
X31831803Y-64395128D01*
X31912669Y-64409494D01*
X32029343Y-64430937D01*
X32171075Y-64457413D01*
X32327110Y-64486877D01*
X32486698Y-64517283D01*
X32639085Y-64546588D01*
X32773521Y-64572745D01*
X32879252Y-64593710D01*
X32945526Y-64607439D01*
X32961782Y-64611320D01*
X32978573Y-64620900D01*
X32991249Y-64642536D01*
X33000378Y-64683531D01*
X33006531Y-64751189D01*
X33010280Y-64852812D01*
X33012192Y-64995703D01*
X33012840Y-65187165D01*
X33012874Y-65265645D01*
X33012874Y-65903906D01*
X32859598Y-65934160D01*
X32774322Y-65950564D01*
X32647070Y-65974509D01*
X32493315Y-66003107D01*
X32328534Y-66033467D01*
X32282989Y-66041806D01*
X32130932Y-66071370D01*
X31998468Y-66100442D01*
X31896714Y-66126329D01*
X31836788Y-66146337D01*
X31826805Y-66152301D01*
X31802293Y-66194534D01*
X31767148Y-66276370D01*
X31728173Y-66381683D01*
X31720442Y-66404368D01*
X31669360Y-66545018D01*
X31605954Y-66703714D01*
X31543904Y-66846225D01*
X31543598Y-66846886D01*
X31440267Y-67070440D01*
X32119961Y-68070232D01*
X31683621Y-68507300D01*
X31551649Y-68637381D01*
X31431279Y-68752048D01*
X31329273Y-68845181D01*
X31252391Y-68910658D01*
X31207393Y-68942357D01*
X31200938Y-68944368D01*
X31163040Y-68928529D01*
X31085708Y-68884496D01*
X30977389Y-68817490D01*
X30846532Y-68732734D01*
X30705052Y-68637816D01*
X30561461Y-68540998D01*
X30433435Y-68456751D01*
X30329105Y-68390258D01*
X30256600Y-68346702D01*
X30224158Y-68331264D01*
X30184576Y-68344328D01*
X30109519Y-68378750D01*
X30014468Y-68427380D01*
X30004392Y-68432785D01*
X29876391Y-68496980D01*
X29788618Y-68528463D01*
X29734028Y-68528798D01*
X29705575Y-68499548D01*
X29705410Y-68499138D01*
X29691188Y-68464498D01*
X29657269Y-68382269D01*
X29606284Y-68258814D01*
X29540862Y-68100498D01*
X29463634Y-67913686D01*
X29377229Y-67704742D01*
X29293551Y-67502446D01*
X29201588Y-67279200D01*
X29117150Y-67072392D01*
X29042769Y-66888362D01*
X28980974Y-66733451D01*
X28934297Y-66613996D01*
X28905268Y-66536339D01*
X28896322Y-66507356D01*
X28918756Y-66474110D01*
X28977439Y-66421123D01*
X29055689Y-66362704D01*
X29278534Y-66177952D01*
X29452718Y-65966182D01*
X29576154Y-65731856D01*
X29646754Y-65479434D01*
X29662431Y-65213377D01*
X29651036Y-65090575D01*
X29588950Y-64835793D01*
X29482023Y-64610801D01*
X29336889Y-64417817D01*
X29160178Y-64259061D01*
X28958522Y-64136750D01*
X28738554Y-64053105D01*
X28506906Y-64010344D01*
X28270209Y-64010687D01*
X28035095Y-64056352D01*
X27808196Y-64149559D01*
X27596144Y-64292527D01*
X27507636Y-64373383D01*
X27337889Y-64581007D01*
X27219699Y-64807895D01*
X27152278Y-65047433D01*
X27134840Y-65293007D01*
X27166598Y-65538003D01*
X27246765Y-65775808D01*
X27374555Y-65999807D01*
X27549180Y-66203387D01*
X27744312Y-66362704D01*
X27825591Y-66423602D01*
X27883009Y-66476015D01*
X27903678Y-66507406D01*
X27892856Y-66541639D01*
X27862077Y-66623419D01*
X27813874Y-66746407D01*
X27750778Y-66904263D01*
X27675322Y-67090649D01*
X27590038Y-67299226D01*
X27506219Y-67502496D01*
X27413745Y-67725933D01*
X27328089Y-67932984D01*
X27251882Y-68117286D01*
X27187753Y-68272475D01*
X27138332Y-68392188D01*
X27106248Y-68470061D01*
X27094359Y-68499138D01*
X27066274Y-68528677D01*
X27011949Y-68528591D01*
X26924395Y-68497326D01*
X26796619Y-68433329D01*
X26795608Y-68432785D01*
X26699402Y-68383121D01*
X26621631Y-68346945D01*
X26577777Y-68331408D01*
X26575842Y-68331264D01*
X26542829Y-68347024D01*
X26469946Y-68390850D01*
X26365322Y-68457557D01*
X26237090Y-68541964D01*
X26094948Y-68637816D01*
X25950233Y-68734867D01*
X25819804Y-68819270D01*
X25712110Y-68885801D01*
X25635598Y-68929238D01*
X25599062Y-68944368D01*
X25565418Y-68924482D01*
X25497776Y-68868903D01*
X25402893Y-68783754D01*
X25287530Y-68675153D01*
X25158445Y-68549221D01*
X25116229Y-68507149D01*
X24679739Y-68069931D01*
X25011977Y-67582340D01*
X25112946Y-67432605D01*
X25201562Y-67298220D01*
X25272854Y-67186969D01*
X25321850Y-67106639D01*
X25343578Y-67065014D01*
X25344215Y-67062053D01*
X25332760Y-67022818D01*
X25301949Y-66943895D01*
X25257116Y-66838509D01*
X25225647Y-66767954D01*
X25166808Y-66632876D01*
X25111396Y-66496409D01*
X25068436Y-66381103D01*
X25056766Y-66345977D01*
X25023611Y-66252174D01*
X24991201Y-66179694D01*
X24973399Y-66152301D01*
X24934114Y-66135536D01*
X24848374Y-66111770D01*
X24727303Y-66083697D01*
X24582027Y-66054009D01*
X24517012Y-66041806D01*
X24351913Y-66011468D01*
X24193552Y-65982093D01*
X24057404Y-65956569D01*
X23958943Y-65937785D01*
X23940402Y-65934160D01*
X23787127Y-65903906D01*
X23787127Y-65265645D01*
X23787471Y-65055770D01*
X23788884Y-64896980D01*
X23791936Y-64781973D01*
X23797197Y-64703446D01*
X23805237Y-64654096D01*
X23816627Y-64626619D01*
X23831937Y-64613713D01*
X23838218Y-64611320D01*
X23876104Y-64602833D01*
X23959805Y-64585900D01*
X24078567Y-64562566D01*
X24221639Y-64534875D01*
X24378268Y-64504873D01*
X24537703Y-64474604D01*
X24689191Y-64446115D01*
X24821981Y-64421449D01*
X24925319Y-64402651D01*
X24988455Y-64391767D01*
X25002503Y-64389885D01*
X25015230Y-64364704D01*
X25043400Y-64297622D01*
X25081748Y-64201333D01*
X25096391Y-64163621D01*
X25155452Y-64017921D01*
X25225000Y-63856951D01*
X25287288Y-63721291D01*
X25333121Y-63617561D01*
X25363613Y-63532326D01*
X25373792Y-63480126D01*
X25372169Y-63473130D01*
X25350657Y-63440102D01*
X25301535Y-63366643D01*
X25230077Y-63260577D01*
X25141555Y-63129726D01*
X25041241Y-62981912D01*
X25021406Y-62952734D01*
X24905012Y-62779863D01*
X24819452Y-62648226D01*
X24761316Y-62551761D01*
X24727192Y-62484408D01*
X24713669Y-62440106D01*
X24717336Y-62412794D01*
X24717430Y-62412620D01*
X24746293Y-62376746D01*
X24810133Y-62307391D01*
X24902031Y-62211745D01*
X25015067Y-62096999D01*
X25142321Y-61970341D01*
X25156672Y-61956205D01*
X25317043Y-61800903D01*
X25440805Y-61686870D01*
X25530445Y-61612002D01*
X25588448Y-61574196D01*
X25613996Y-61569317D01*
X25651282Y-61590603D01*
X25728657Y-61639773D01*
X25838133Y-61711575D01*
X25971720Y-61800755D01*
X26121430Y-61902063D01*
X26156382Y-61925897D01*
X26652610Y-62264765D01*
X26876707Y-62163056D01*
X27012989Y-62103783D01*
X27159276Y-62044170D01*
X27285035Y-61996640D01*
X27290575Y-61994685D01*
X27388943Y-61958677D01*
X27464771Y-61928229D01*
X27501718Y-61909905D01*
X27501780Y-61909852D01*
X27513504Y-61876729D01*
X27533432Y-61795267D01*
X27559587Y-61674625D01*
X27589990Y-61523959D01*
X27622663Y-61352428D01*
X27625336Y-61337967D01*
X27658110Y-61161235D01*
X27688198Y-61000810D01*
X27713661Y-60866888D01*
X27732559Y-60769663D01*
X27742953Y-60719332D01*
X27743135Y-60718563D01*
X27749461Y-60697153D01*
X27761761Y-60680988D01*
X27787406Y-60669331D01*
X27833765Y-60661445D01*
X27908208Y-60656593D01*
X28018105Y-60654039D01*
X28170825Y-60653045D01*
X28373738Y-60652874D01*
X28400000Y-60652874D01*
X28609014Y-60652998D01*
G36*
X28609014Y-60652998D02*
G01*
X28767006Y-60653863D01*
X28881347Y-60656205D01*
X28959407Y-60660762D01*
X29008554Y-60668270D01*
X29036159Y-60679466D01*
X29049592Y-60695088D01*
X29056221Y-60715873D01*
X29056865Y-60718563D01*
X29066935Y-60767113D01*
X29085575Y-60862905D01*
X29110845Y-60995743D01*
X29140807Y-61155431D01*
X29173522Y-61331774D01*
X29174664Y-61337967D01*
X29207433Y-61510782D01*
X29238093Y-61663469D01*
X29264664Y-61786871D01*
X29285167Y-61871831D01*
X29297626Y-61909190D01*
X29298220Y-61909852D01*
X29334919Y-61928095D01*
X29410586Y-61958497D01*
X29508878Y-61994493D01*
X29509425Y-61994685D01*
X29633233Y-62041222D01*
X29779196Y-62100504D01*
X29916781Y-62160109D01*
X29923293Y-62163056D01*
X30147390Y-62264765D01*
X30643619Y-61925897D01*
X30795846Y-61822592D01*
X30933741Y-61730237D01*
X31049315Y-61654084D01*
X31134579Y-61599385D01*
X31181544Y-61571393D01*
X31186004Y-61569317D01*
X31220134Y-61578560D01*
X31283881Y-61623156D01*
X31379731Y-61705209D01*
X31510169Y-61826821D01*
X31643328Y-61956205D01*
X31771694Y-62083702D01*
X31886581Y-62200046D01*
X31981073Y-62298052D01*
X32048253Y-62370536D01*
X32081206Y-62410313D01*
X32082432Y-62412361D01*
X32086074Y-62439656D01*
X32072350Y-62484234D01*
X32037869Y-62552112D01*
X31979239Y-62649311D01*
X31893070Y-62781851D01*
X31778200Y-62952476D01*
X31676254Y-63102655D01*
X31585123Y-63237350D01*
X31510073Y-63348740D01*
X31456369Y-63429005D01*
X31429280Y-63470325D01*
X31427574Y-63473130D01*
X31430882Y-63512721D01*
X31455953Y-63589669D01*
X31497798Y-63689432D01*
X31512712Y-63721291D01*
X31577786Y-63863226D01*
X31647212Y-64024273D01*
X31703609Y-64163621D01*
X31744247Y-64267044D01*
X31776526Y-64345642D01*
X31795178Y-64386720D01*
X31797497Y-64389885D01*
X31831803Y-64395128D01*
X31912669Y-64409494D01*
X32029343Y-64430937D01*
X32171075Y-64457413D01*
X32327110Y-64486877D01*
X32486698Y-64517283D01*
X32639085Y-64546588D01*
X32773521Y-64572745D01*
X32879252Y-64593710D01*
X32945526Y-64607439D01*
X32961782Y-64611320D01*
X32978573Y-64620900D01*
X32991249Y-64642536D01*
X33000378Y-64683531D01*
X33006531Y-64751189D01*
X33010280Y-64852812D01*
X33012192Y-64995703D01*
X33012840Y-65187165D01*
X33012874Y-65265645D01*
X33012874Y-65903906D01*
X32859598Y-65934160D01*
X32774322Y-65950564D01*
X32647070Y-65974509D01*
X32493315Y-66003107D01*
X32328534Y-66033467D01*
X32282989Y-66041806D01*
X32130932Y-66071370D01*
X31998468Y-66100442D01*
X31896714Y-66126329D01*
X31836788Y-66146337D01*
X31826805Y-66152301D01*
X31802293Y-66194534D01*
X31767148Y-66276370D01*
X31728173Y-66381683D01*
X31720442Y-66404368D01*
X31669360Y-66545018D01*
X31605954Y-66703714D01*
X31543904Y-66846225D01*
X31543598Y-66846886D01*
X31440267Y-67070440D01*
X32119961Y-68070232D01*
X31683621Y-68507300D01*
X31551649Y-68637381D01*
X31431279Y-68752048D01*
X31329273Y-68845181D01*
X31252391Y-68910658D01*
X31207393Y-68942357D01*
X31200938Y-68944368D01*
X31163040Y-68928529D01*
X31085708Y-68884496D01*
X30977389Y-68817490D01*
X30846532Y-68732734D01*
X30705052Y-68637816D01*
X30561461Y-68540998D01*
X30433435Y-68456751D01*
X30329105Y-68390258D01*
X30256600Y-68346702D01*
X30224158Y-68331264D01*
X30184576Y-68344328D01*
X30109519Y-68378750D01*
X30014468Y-68427380D01*
X30004392Y-68432785D01*
X29876391Y-68496980D01*
X29788618Y-68528463D01*
X29734028Y-68528798D01*
X29705575Y-68499548D01*
X29705410Y-68499138D01*
X29691188Y-68464498D01*
X29657269Y-68382269D01*
X29606284Y-68258814D01*
X29540862Y-68100498D01*
X29463634Y-67913686D01*
X29377229Y-67704742D01*
X29293551Y-67502446D01*
X29201588Y-67279200D01*
X29117150Y-67072392D01*
X29042769Y-66888362D01*
X28980974Y-66733451D01*
X28934297Y-66613996D01*
X28905268Y-66536339D01*
X28896322Y-66507356D01*
X28918756Y-66474110D01*
X28977439Y-66421123D01*
X29055689Y-66362704D01*
X29278534Y-66177952D01*
X29452718Y-65966182D01*
X29576154Y-65731856D01*
X29646754Y-65479434D01*
X29662431Y-65213377D01*
X29651036Y-65090575D01*
X29588950Y-64835793D01*
X29482023Y-64610801D01*
X29336889Y-64417817D01*
X29160178Y-64259061D01*
X28958522Y-64136750D01*
X28738554Y-64053105D01*
X28506906Y-64010344D01*
X28270209Y-64010687D01*
X28035095Y-64056352D01*
X27808196Y-64149559D01*
X27596144Y-64292527D01*
X27507636Y-64373383D01*
X27337889Y-64581007D01*
X27219699Y-64807895D01*
X27152278Y-65047433D01*
X27134840Y-65293007D01*
X27166598Y-65538003D01*
X27246765Y-65775808D01*
X27374555Y-65999807D01*
X27549180Y-66203387D01*
X27744312Y-66362704D01*
X27825591Y-66423602D01*
X27883009Y-66476015D01*
X27903678Y-66507406D01*
X27892856Y-66541639D01*
X27862077Y-66623419D01*
X27813874Y-66746407D01*
X27750778Y-66904263D01*
X27675322Y-67090649D01*
X27590038Y-67299226D01*
X27506219Y-67502496D01*
X27413745Y-67725933D01*
X27328089Y-67932984D01*
X27251882Y-68117286D01*
X27187753Y-68272475D01*
X27138332Y-68392188D01*
X27106248Y-68470061D01*
X27094359Y-68499138D01*
X27066274Y-68528677D01*
X27011949Y-68528591D01*
X26924395Y-68497326D01*
X26796619Y-68433329D01*
X26795608Y-68432785D01*
X26699402Y-68383121D01*
X26621631Y-68346945D01*
X26577777Y-68331408D01*
X26575842Y-68331264D01*
X26542829Y-68347024D01*
X26469946Y-68390850D01*
X26365322Y-68457557D01*
X26237090Y-68541964D01*
X26094948Y-68637816D01*
X25950233Y-68734867D01*
X25819804Y-68819270D01*
X25712110Y-68885801D01*
X25635598Y-68929238D01*
X25599062Y-68944368D01*
X25565418Y-68924482D01*
X25497776Y-68868903D01*
X25402893Y-68783754D01*
X25287530Y-68675153D01*
X25158445Y-68549221D01*
X25116229Y-68507149D01*
X24679739Y-68069931D01*
X25011977Y-67582340D01*
X25112946Y-67432605D01*
X25201562Y-67298220D01*
X25272854Y-67186969D01*
X25321850Y-67106639D01*
X25343578Y-67065014D01*
X25344215Y-67062053D01*
X25332760Y-67022818D01*
X25301949Y-66943895D01*
X25257116Y-66838509D01*
X25225647Y-66767954D01*
X25166808Y-66632876D01*
X25111396Y-66496409D01*
X25068436Y-66381103D01*
X25056766Y-66345977D01*
X25023611Y-66252174D01*
X24991201Y-66179694D01*
X24973399Y-66152301D01*
X24934114Y-66135536D01*
X24848374Y-66111770D01*
X24727303Y-66083697D01*
X24582027Y-66054009D01*
X24517012Y-66041806D01*
X24351913Y-66011468D01*
X24193552Y-65982093D01*
X24057404Y-65956569D01*
X23958943Y-65937785D01*
X23940402Y-65934160D01*
X23787127Y-65903906D01*
X23787127Y-65265645D01*
X23787471Y-65055770D01*
X23788884Y-64896980D01*
X23791936Y-64781973D01*
X23797197Y-64703446D01*
X23805237Y-64654096D01*
X23816627Y-64626619D01*
X23831937Y-64613713D01*
X23838218Y-64611320D01*
X23876104Y-64602833D01*
X23959805Y-64585900D01*
X24078567Y-64562566D01*
X24221639Y-64534875D01*
X24378268Y-64504873D01*
X24537703Y-64474604D01*
X24689191Y-64446115D01*
X24821981Y-64421449D01*
X24925319Y-64402651D01*
X24988455Y-64391767D01*
X25002503Y-64389885D01*
X25015230Y-64364704D01*
X25043400Y-64297622D01*
X25081748Y-64201333D01*
X25096391Y-64163621D01*
X25155452Y-64017921D01*
X25225000Y-63856951D01*
X25287288Y-63721291D01*
X25333121Y-63617561D01*
X25363613Y-63532326D01*
X25373792Y-63480126D01*
X25372169Y-63473130D01*
X25350657Y-63440102D01*
X25301535Y-63366643D01*
X25230077Y-63260577D01*
X25141555Y-63129726D01*
X25041241Y-62981912D01*
X25021406Y-62952734D01*
X24905012Y-62779863D01*
X24819452Y-62648226D01*
X24761316Y-62551761D01*
X24727192Y-62484408D01*
X24713669Y-62440106D01*
X24717336Y-62412794D01*
X24717430Y-62412620D01*
X24746293Y-62376746D01*
X24810133Y-62307391D01*
X24902031Y-62211745D01*
X25015067Y-62096999D01*
X25142321Y-61970341D01*
X25156672Y-61956205D01*
X25317043Y-61800903D01*
X25440805Y-61686870D01*
X25530445Y-61612002D01*
X25588448Y-61574196D01*
X25613996Y-61569317D01*
X25651282Y-61590603D01*
X25728657Y-61639773D01*
X25838133Y-61711575D01*
X25971720Y-61800755D01*
X26121430Y-61902063D01*
X26156382Y-61925897D01*
X26652610Y-62264765D01*
X26876707Y-62163056D01*
X27012989Y-62103783D01*
X27159276Y-62044170D01*
X27285035Y-61996640D01*
X27290575Y-61994685D01*
X27388943Y-61958677D01*
X27464771Y-61928229D01*
X27501718Y-61909905D01*
X27501780Y-61909852D01*
X27513504Y-61876729D01*
X27533432Y-61795267D01*
X27559587Y-61674625D01*
X27589990Y-61523959D01*
X27622663Y-61352428D01*
X27625336Y-61337967D01*
X27658110Y-61161235D01*
X27688198Y-61000810D01*
X27713661Y-60866888D01*
X27732559Y-60769663D01*
X27742953Y-60719332D01*
X27743135Y-60718563D01*
X27749461Y-60697153D01*
X27761761Y-60680988D01*
X27787406Y-60669331D01*
X27833765Y-60661445D01*
X27908208Y-60656593D01*
X28018105Y-60654039D01*
X28170825Y-60653045D01*
X28373738Y-60652874D01*
X28400000Y-60652874D01*
X28609014Y-60652998D01*
G37*
D11*
X59000000Y-8175000D03*
X58200000Y-8175000D03*
D12*
X57050000Y-8175000D03*
X56050000Y-8175000D03*
X55550000Y-8175000D03*
X54550000Y-8175000D03*
D11*
X53400000Y-8175000D03*
X52600000Y-8175000D03*
X52600000Y-8175000D03*
X53400000Y-8175000D03*
D12*
X54050000Y-8175000D03*
X55050000Y-8175000D03*
X56550000Y-8175000D03*
X57550000Y-8175000D03*
D11*
X58200000Y-8175000D03*
X59000000Y-8175000D03*
D13*
X61420000Y-6850000D03*
D14*
X61420000Y-2850000D03*
D13*
X50180000Y-6850000D03*
D14*
X50180000Y-2850000D03*
D15*
X53100000Y-19150000D03*
X53100000Y-15850000D03*
D16*
X57600000Y-11050000D03*
X58400000Y-11050000D03*
D17*
X56350000Y-20220000D03*
X56350000Y-21180000D03*
D18*
X54150000Y-10975000D03*
X54150000Y-12525000D03*
D19*
X87450000Y-54900000D03*
X90750000Y-54900000D03*
D20*
X40000000Y-11510000D03*
X40000000Y-10490000D03*
D21*
X67400000Y-69800000D03*
X66380000Y-69800000D03*
D22*
X65825000Y-63000000D03*
X67575000Y-63000000D03*
X67575000Y-61600000D03*
X65825000Y-61600000D03*
D23*
X3520000Y-7800000D03*
X4480000Y-7800000D03*
D24*
X77800000Y-69480000D03*
X77800000Y-68520000D03*
D25*
X17500000Y-63550000D03*
X17500000Y-66850000D03*
D26*
X81883363Y-70683363D03*
X80716637Y-69516637D03*
D20*
X60400000Y-62810000D03*
X60400000Y-61790000D03*
D17*
X69900000Y-56720000D03*
X69900000Y-57680000D03*
D20*
X59300000Y-61510000D03*
X59300000Y-60490000D03*
D27*
X41000000Y-10490000D03*
X41000000Y-11510000D03*
D28*
X65890000Y-64300000D03*
X66910000Y-64300000D03*
D29*
X84900000Y-64075000D03*
D30*
X86805000Y-67825000D03*
X85535000Y-67825000D03*
X84265000Y-67825000D03*
X82995000Y-67825000D03*
X82995000Y-60325000D03*
X84265000Y-60325000D03*
X85535000Y-60325000D03*
X86805000Y-60325000D03*
D31*
X69280000Y-65400000D03*
X68320000Y-65400000D03*
D17*
X14400000Y-2920000D03*
X14400000Y-3880000D03*
D15*
X69700000Y-19250000D03*
X69700000Y-15950000D03*
D32*
X41150000Y-7350000D03*
X40500000Y-7350000D03*
X39850000Y-7350000D03*
X39850000Y-9250000D03*
X41150000Y-9250000D03*
D17*
X73000000Y-68820000D03*
X73000000Y-69780000D03*
D25*
X52400000Y-28350000D03*
X52400000Y-25050000D03*
D33*
X63450000Y-49300000D03*
X60150000Y-49300000D03*
D18*
X64300000Y-61525000D03*
X64300000Y-63075000D03*
D27*
X71910000Y-56690000D03*
X71910000Y-57710000D03*
D24*
X47400000Y-55900000D03*
X47400000Y-54940000D03*
D34*
X75560000Y-57700000D03*
X75560000Y-57200000D03*
X75560000Y-56700000D03*
X74060000Y-56700000D03*
X74060000Y-57200000D03*
X74060000Y-57700000D03*
D19*
X86450000Y-21800000D03*
X89750000Y-21800000D03*
D24*
X85300000Y-24660000D03*
X85300000Y-23700000D03*
D33*
X27150000Y-18500000D03*
X23850000Y-18500000D03*
X27150000Y-21400000D03*
X23850000Y-21400000D03*
D27*
X86825000Y-58265000D03*
X86825000Y-59285000D03*
D15*
X50700000Y-19150000D03*
X50700000Y-15850000D03*
D21*
X67400000Y-71000000D03*
X66380000Y-71000000D03*
X79910000Y-57000000D03*
X78890000Y-57000000D03*
D33*
X78450000Y-50900000D03*
X75150000Y-50900000D03*
D24*
X78600000Y-67480000D03*
X78600000Y-66520000D03*
D20*
X72910000Y-57710000D03*
X72910000Y-56690000D03*
D35*
X74000000Y-64100000D03*
D36*
X77437500Y-61500000D03*
X77437500Y-61900000D03*
X77437500Y-62300000D03*
X77437500Y-62700000D03*
X77437500Y-63100000D03*
X77437500Y-63500000D03*
X77437500Y-63900000D03*
X77437500Y-64300000D03*
X77437500Y-64700000D03*
X77437500Y-65100000D03*
X77437500Y-65500000D03*
X77437500Y-65900000D03*
X77437500Y-66300000D03*
X77437500Y-66700000D03*
D37*
X76600000Y-67537500D03*
X76200000Y-67537500D03*
X75800000Y-67537500D03*
X75400000Y-67537500D03*
X75000000Y-67537500D03*
X74600000Y-67537500D03*
X74200000Y-67537500D03*
X73800000Y-67537500D03*
X73400000Y-67537500D03*
X73000000Y-67537500D03*
X72600000Y-67537500D03*
X72200000Y-67537500D03*
X71800000Y-67537500D03*
X71400000Y-67537500D03*
D36*
X70562500Y-66700000D03*
X70562500Y-66300000D03*
X70562500Y-65900000D03*
X70562500Y-65500000D03*
X70562500Y-65100000D03*
X70562500Y-64700000D03*
X70562500Y-64300000D03*
X70562500Y-63900000D03*
X70562500Y-63500000D03*
X70562500Y-63100000D03*
X70562500Y-62700000D03*
X70562500Y-62300000D03*
X70562500Y-61900000D03*
X70562500Y-61500000D03*
D37*
X71400000Y-60662500D03*
X71800000Y-60662500D03*
X72200000Y-60662500D03*
X72600000Y-60662500D03*
X73000000Y-60662500D03*
X73400000Y-60662500D03*
X73800000Y-60662500D03*
X74200000Y-60662500D03*
X74600000Y-60662500D03*
X75000000Y-60662500D03*
X75400000Y-60662500D03*
X75800000Y-60662500D03*
X76200000Y-60662500D03*
X76600000Y-60662500D03*
D31*
X69280000Y-64500000D03*
X68320000Y-64500000D03*
D26*
X80893414Y-71673312D03*
X79726688Y-70506586D03*
D23*
X76600000Y-59400000D03*
X77560000Y-59400000D03*
X29880000Y-20100000D03*
X28920000Y-20100000D03*
D38*
X60350000Y-60040000D03*
X60350000Y-60540000D03*
X60350000Y-61040000D03*
X61850000Y-61040000D03*
X61850000Y-60540000D03*
X61850000Y-60040000D03*
D31*
X78180000Y-44700000D03*
X77220000Y-44700000D03*
D19*
X32350000Y-21300000D03*
X35650000Y-21300000D03*
X43050000Y-60900000D03*
X46350000Y-60900000D03*
D23*
X86820000Y-68900000D03*
X87780000Y-68900000D03*
D39*
X74800000Y-5000000D03*
D17*
X76900000Y-68520000D03*
X76900000Y-69480000D03*
D40*
X45965000Y-38370000D03*
X45965000Y-32370000D03*
X49715000Y-38370000D03*
X49715000Y-32370000D03*
D41*
X46725000Y-700000D03*
X45275000Y-700000D03*
D42*
X69100000Y-63075000D03*
X69100000Y-61525000D03*
D23*
X78620000Y-64300000D03*
X79580000Y-64300000D03*
D24*
X12100000Y-60680000D03*
X12100000Y-59720000D03*
D21*
X77720000Y-57700000D03*
X76700000Y-57700000D03*
D33*
X38050000Y-54200000D03*
X34750000Y-54200000D03*
D25*
X80500000Y-25650000D03*
X80500000Y-28950000D03*
D19*
X29450000Y-18500000D03*
X32750000Y-18500000D03*
D17*
X70910000Y-56720000D03*
X70910000Y-57680000D03*
D43*
X3800000Y-6650000D03*
X4300000Y-6650000D03*
X4800000Y-6650000D03*
X4800000Y-5150000D03*
X4300000Y-5150000D03*
X3800000Y-5150000D03*
D24*
X73000000Y-59580000D03*
X73000000Y-58620000D03*
D21*
X71910000Y-58700000D03*
X70890000Y-58700000D03*
D15*
X15700000Y-56950000D03*
X15700000Y-53650000D03*
D44*
X34000000Y-3545800D03*
X35499999Y-3545800D03*
X38500001Y-3545800D03*
X40000001Y-3545800D03*
D45*
X31850000Y-700000D03*
X31850000Y-2900000D03*
D46*
X34500000Y-1795300D03*
X39500001Y-1795300D03*
D45*
X42150000Y-700000D03*
X42150000Y-2900000D03*
D21*
X67400000Y-68600000D03*
X66380000Y-68600000D03*
D47*
X12750000Y-2550000D03*
D48*
X12750000Y-4045000D03*
D49*
X7450000Y-4050000D03*
D47*
X7450000Y-2550000D03*
D31*
X51280000Y-23000000D03*
X50320000Y-23000000D03*
D50*
X5700000Y-14050000D03*
X12700000Y-13000000D03*
D51*
X8300000Y-8300000D03*
D50*
X65700000Y-52050000D03*
X72700000Y-51000000D03*
D51*
X68300000Y-46300000D03*
D50*
X27700000Y-52050000D03*
X34700000Y-51000000D03*
D51*
X30300000Y-46300000D03*
D50*
X62700000Y-14050000D03*
X69700000Y-13000000D03*
D51*
X65300000Y-8300000D03*
D50*
X38950000Y-71050000D03*
X45950000Y-70000000D03*
D51*
X41550000Y-65300000D03*
D50*
X84700000Y-52050000D03*
X91700000Y-51000000D03*
D51*
X87300000Y-46300000D03*
D50*
X43700000Y-14050000D03*
X50700000Y-13000000D03*
D51*
X46300000Y-8300000D03*
D50*
X24700000Y-14050000D03*
X31700000Y-13000000D03*
D51*
X27300000Y-8300000D03*
D50*
X16700000Y-33050000D03*
X23700000Y-32000000D03*
D51*
X19300000Y-27300000D03*
D50*
X8700000Y-52050000D03*
X15700000Y-51000000D03*
D51*
X11300000Y-46300000D03*
D50*
X54700000Y-33050000D03*
X61700000Y-32000000D03*
D51*
X57300000Y-27300000D03*
D50*
X46700000Y-52050000D03*
X53700000Y-51000000D03*
D51*
X49300000Y-46300000D03*
D50*
X35700000Y-33050000D03*
X42700000Y-32000000D03*
D51*
X38300000Y-27300000D03*
D50*
X81700000Y-14050000D03*
X88700000Y-13000000D03*
D51*
X84300000Y-8300000D03*
D50*
X10450000Y-71050000D03*
X17450000Y-70000000D03*
D51*
X13050000Y-65300000D03*
D50*
X73700000Y-33050000D03*
X80700000Y-32000000D03*
D51*
X76300000Y-27300000D03*
D28*
X49790000Y-10600000D03*
X50810000Y-10600000D03*
D52*
X52900000Y-11015000D03*
X52900000Y-11985000D03*
D53*
X58500000Y-20050000D03*
X58500000Y-18150000D03*
X56625000Y-19100000D03*
D54*
X57590000Y-10000000D03*
X58560000Y-10000000D03*
D17*
X59950000Y-18670000D03*
X59950000Y-19630000D03*
D24*
X54200000Y-14880000D03*
X54200000Y-13920000D03*
D55*
X55462500Y-12350000D03*
D56*
X56000000Y-12425000D03*
D55*
X56537500Y-12350000D03*
X56537500Y-10650000D03*
D56*
X56000000Y-10575000D03*
D55*
X55462500Y-10650000D03*
D28*
X49790000Y-9600000D03*
X50810000Y-9600000D03*
M02*
