M48
; DRILL file {KiCad 7.0.10} date Mon Apr 29 20:56:06 2024
; FORMAT={-:-/ absolute / metric / decimal}
; #@! TF.CreationDate,2024-04-29T20:56:06+02:00
; #@! TF.GenerationSoftware,Kicad,Pcbnew,7.0.10
; #@! TF.FileFunction,Plated,1,2,PTH
FMAT,2
METRIC
; #@! TA.AperFunction,Plated,PTH,ViaDrill
T1C0.400
; #@! TA.AperFunction,Plated,PTH,ComponentDrill
T2C0.950
; #@! TA.AperFunction,Plated,PTH,ComponentDrill
T3C1.000
; #@! TA.AperFunction,Plated,PTH,ComponentDrill
T4C1.500
%
G90
G05
T1
X141.859Y-60.706
X170.561Y-64.643
X170.561Y-67.691
T2
X130.8Y-43.898
X135.8Y-43.898
T3
X144.2Y-43.36
X144.2Y-45.9
X144.2Y-48.44
X144.2Y-50.98
X144.2Y-53.52
X144.2Y-56.06
X144.2Y-58.6
X146.74Y-43.36
X146.74Y-58.6
X149.28Y-43.36
X149.28Y-58.6
X151.82Y-43.36
X151.82Y-58.6
X154.36Y-43.36
X154.36Y-58.6
X156.9Y-43.36
X156.9Y-58.6
X159.44Y-43.36
X159.44Y-58.6
X161.98Y-43.36
X161.98Y-58.6
X164.52Y-43.36
X164.52Y-58.6
X167.06Y-43.36
X167.06Y-58.6
X169.6Y-43.36
X169.6Y-58.6
X172.14Y-43.36
X172.14Y-58.6
X174.68Y-43.36
X174.68Y-58.6
T4
X87.9Y-93.7
X90.9Y-55.7
X94.9Y-94.75
X97.9Y-56.75
X98.9Y-74.7
X105.9Y-75.75
X106.9Y-93.7
X109.9Y-55.7
X113.9Y-94.75
X116.9Y-56.75
X117.9Y-74.7
X124.9Y-75.75
X125.9Y-93.7
X128.9Y-55.7
X132.4Y-102.25
X132.9Y-94.75
X135.9Y-56.75
X136.9Y-74.7
X139.4Y-103.3
X143.9Y-75.75
X144.9Y-93.7
X151.9Y-94.75
X155.9Y-74.7
X156.908Y-55.4
X157.958Y-48.4
X161.0Y-102.25
X162.9Y-75.75
X163.9Y-93.7
X165.55Y-53.6
X166.6Y-46.6
X168.0Y-103.3
X170.9Y-94.75
M30
