G04 #@! TF.GenerationSoftware,KiCad,Pcbnew,8.0.4*
G04 #@! TF.CreationDate,2025-01-16T10:51:39+00:00*
G04 #@! TF.ProjectId,Mathboard,4d617468-626f-4617-9264-2e6b69636164,rev?*
G04 #@! TF.SameCoordinates,PX501bd00PY28b8ce0*
G04 #@! TF.FileFunction,Copper,L2,Inr*
G04 #@! TF.FilePolarity,Positive*
%FSLAX46Y46*%
G04 Gerber Fmt 4.6, Leading zero omitted, Abs format (unit mm)*
G04 Created by KiCad (PCBNEW 8.0.4) date 2025-01-16 10:51:39*
%MOMM*%
%LPD*%
G01*
G04 APERTURE LIST*
G04 #@! TA.AperFunction,ComponentPad*
%ADD10O,1.000000X1.600000*%
G04 #@! TD*
G04 #@! TA.AperFunction,ComponentPad*
%ADD11O,1.000000X2.000000*%
G04 #@! TD*
G04 #@! TA.AperFunction,ComponentPad*
%ADD12C,2.500000*%
G04 #@! TD*
G04 #@! TA.AperFunction,ViaPad*
%ADD13C,0.800000*%
G04 #@! TD*
G04 #@! TA.AperFunction,ViaPad*
%ADD14C,0.450000*%
G04 #@! TD*
G04 APERTURE END LIST*
D10*
X61420000Y-6800000D03*
D11*
X61420000Y-2800000D03*
D10*
X50180000Y-6800000D03*
D11*
X50180000Y-2800000D03*
D12*
X12700000Y-13000000D03*
X5700000Y-14050000D03*
X72700000Y-51000000D03*
X65700000Y-52050000D03*
X34700000Y-51000000D03*
X27700000Y-52050000D03*
X69700000Y-13000000D03*
X62700000Y-14050000D03*
X45950000Y-70000000D03*
X38950000Y-71050000D03*
X91700000Y-51000000D03*
X84700000Y-52050000D03*
X50700000Y-13000000D03*
X43700000Y-14050000D03*
X31700000Y-13000000D03*
X24700000Y-14050000D03*
X23700000Y-32000000D03*
X16700000Y-33050000D03*
X15700000Y-51000000D03*
X8700000Y-52050000D03*
X61700000Y-32000000D03*
X54700000Y-33050000D03*
X53700000Y-51000000D03*
X46700000Y-52050000D03*
X42700000Y-32000000D03*
X35700000Y-33050000D03*
X88700000Y-13000000D03*
X81700000Y-14050000D03*
X17450000Y-70000000D03*
X10450000Y-71050000D03*
X80700000Y-32000000D03*
X73700000Y-33050000D03*
D13*
X50700000Y-17700000D03*
X31800000Y-17700000D03*
D14*
X73900000Y-61600000D03*
D13*
X69700000Y-17700000D03*
X88700000Y-17700000D03*
X12800000Y-17700000D03*
D14*
X75800000Y-51550000D03*
X74900000Y-61600000D03*
D13*
X23500000Y-24300000D03*
X61500000Y-24300000D03*
X80500000Y-24300000D03*
X42500000Y-24200000D03*
D14*
X75850000Y-52800000D03*
D13*
X72400000Y-43300000D03*
X53400000Y-43200000D03*
X34400000Y-43200000D03*
X15400000Y-43100000D03*
D14*
X74900000Y-59600000D03*
D13*
X91700000Y-58100000D03*
D14*
X75000000Y-53350000D03*
D13*
X46500000Y-62100000D03*
X17500000Y-62200000D03*
D14*
X75900000Y-61600000D03*
X71599626Y-66698309D03*
X71900000Y-63100000D03*
D13*
X65700000Y-59300000D03*
X44700000Y-58500000D03*
D14*
X71700000Y-62400000D03*
X71500000Y-61697639D03*
D13*
X53400000Y-9600000D03*
X58750000Y-9700000D03*
X57950000Y-13450000D03*
X2700000Y-5100000D03*
X15600000Y-2500000D03*
X57350000Y-16250000D03*
D14*
X63900000Y-700000D03*
D13*
X4500000Y-8700000D03*
D14*
X71200000Y-58200000D03*
D13*
X60900000Y-59300000D03*
D14*
X73000000Y-70500000D03*
D13*
X51600000Y-8300000D03*
X6200000Y-4000000D03*
D14*
X35500000Y-5000000D03*
D13*
X14400000Y-5200000D03*
D14*
X77600000Y-58700000D03*
X84162500Y-69000000D03*
X67400000Y-65200000D03*
X55650000Y-11910000D03*
X73500000Y-58620000D03*
X63550000Y-4450000D03*
X68500000Y-62500000D03*
X85300000Y-64070000D03*
D13*
X77400000Y-70300000D03*
X80300000Y-64800000D03*
X46000000Y-35400000D03*
D14*
X73500000Y-56000000D03*
D13*
X79500000Y-67200000D03*
D14*
X66400000Y-67600000D03*
X81900000Y-61100000D03*
X72700000Y-62800000D03*
X75300000Y-65400000D03*
X64900000Y-62200000D03*
X82320000Y-64070000D03*
X4300000Y-4400000D03*
D13*
X2800000Y-7800000D03*
D14*
X66900000Y-3200000D03*
D13*
X77400000Y-67500000D03*
D14*
X76600000Y-58700000D03*
X78100000Y-64500000D03*
X73500000Y-59600000D03*
X86362500Y-69000000D03*
X73000001Y-68247508D03*
X71500000Y-64300000D03*
X78400000Y-58100000D03*
X86800000Y-58400000D03*
D13*
X59300000Y-62800000D03*
X59050000Y-16250000D03*
X64200000Y-60100000D03*
X8700000Y-60100000D03*
X64600000Y-54550000D03*
X66700000Y-54550000D03*
X58700000Y-35600000D03*
X49715000Y-35200000D03*
D14*
X72300000Y-61800000D03*
D13*
X41300000Y-55400000D03*
D14*
X73100000Y-61800000D03*
D13*
X45500000Y-49400000D03*
X43400000Y-53750000D03*
D14*
X72100000Y-59600000D03*
X55541187Y-10690575D03*
X58998569Y-12075000D03*
X55545900Y-9887913D03*
X56691800Y-9898331D03*
X59000000Y-10925000D03*
X76400000Y-62300000D03*
X80300000Y-62600000D03*
X76400000Y-63100000D03*
X83127500Y-66600000D03*
X84400000Y-67200000D03*
X76297250Y-63716498D03*
X74600000Y-68400000D03*
D13*
X7200000Y-64900000D03*
X60100000Y-8300000D03*
G04 #@! TA.AperFunction,Conductor*
G36*
X50825000Y-220462D02*
G01*
X50879538Y-275000D01*
X50899500Y-349500D01*
X50899500Y-7339883D01*
X50930022Y-7413571D01*
X50930023Y-7413573D01*
X50930024Y-7413574D01*
X50986426Y-7469976D01*
X51060118Y-7500500D01*
X51060119Y-7500500D01*
X60539881Y-7500500D01*
X60539882Y-7500500D01*
X60613574Y-7469976D01*
X60669976Y-7413574D01*
X60700500Y-7339882D01*
X60700500Y-3199998D01*
X66369965Y-3199998D01*
X66369965Y-3200002D01*
X66388024Y-3337176D01*
X66388025Y-3337179D01*
X66388026Y-3337183D01*
X66440976Y-3465018D01*
X66525209Y-3574791D01*
X66634982Y-3659024D01*
X66762817Y-3711974D01*
X66762822Y-3711974D01*
X66762823Y-3711975D01*
X66899997Y-3730035D01*
X66900000Y-3730035D01*
X66900003Y-3730035D01*
X67037176Y-3711975D01*
X67037176Y-3711974D01*
X67037183Y-3711974D01*
X67165018Y-3659024D01*
X67274791Y-3574791D01*
X67359024Y-3465018D01*
X67411974Y-3337183D01*
X67430035Y-3200000D01*
X67411974Y-3062817D01*
X67376699Y-2977654D01*
X67359024Y-2934982D01*
X67322451Y-2887321D01*
X67274791Y-2825209D01*
X67274788Y-2825207D01*
X67274787Y-2825205D01*
X67165021Y-2740978D01*
X67165020Y-2740977D01*
X67165018Y-2740976D01*
X67037183Y-2688026D01*
X67037179Y-2688025D01*
X67037176Y-2688024D01*
X66900003Y-2669965D01*
X66899999Y-2669965D01*
X66762816Y-2688026D01*
X66762815Y-2688026D01*
X66634982Y-2740975D01*
X66525211Y-2825207D01*
X66525207Y-2825211D01*
X66440975Y-2934982D01*
X66388026Y-3062815D01*
X66388026Y-3062816D01*
X66369965Y-3199998D01*
X60700500Y-3199998D01*
X60700500Y-349500D01*
X60720462Y-275000D01*
X60775000Y-220462D01*
X60849500Y-200500D01*
X90560118Y-200500D01*
X90596753Y-200500D01*
X90603252Y-200642D01*
X91011812Y-218480D01*
X91024748Y-219612D01*
X91426977Y-272566D01*
X91439768Y-274821D01*
X91835861Y-362633D01*
X91848388Y-365989D01*
X92188966Y-473373D01*
X92235322Y-487989D01*
X92247537Y-492435D01*
X92622345Y-647686D01*
X92634122Y-653177D01*
X92993985Y-840510D01*
X93005238Y-847007D01*
X93347392Y-1064984D01*
X93358039Y-1072439D01*
X93453592Y-1145759D01*
X93679907Y-1319416D01*
X93689849Y-1327760D01*
X93828842Y-1455122D01*
X93988962Y-1601846D01*
X93998153Y-1611037D01*
X94134759Y-1760116D01*
X94227966Y-1861834D01*
X94272233Y-1910142D01*
X94280589Y-1920100D01*
X94527560Y-2241960D01*
X94535015Y-2252607D01*
X94752992Y-2594761D01*
X94759492Y-2606019D01*
X94946820Y-2965874D01*
X94952313Y-2977654D01*
X95107564Y-3352462D01*
X95112010Y-3364677D01*
X95234005Y-3751594D01*
X95237369Y-3764150D01*
X95325177Y-4160228D01*
X95327434Y-4173029D01*
X95380386Y-4575244D01*
X95381519Y-4588192D01*
X95399358Y-4996746D01*
X95399500Y-5003246D01*
X95399500Y-13549015D01*
X95399334Y-13556056D01*
X95382870Y-13904083D01*
X95381541Y-13918096D01*
X95332810Y-14259508D01*
X95330165Y-14273335D01*
X95249428Y-14608636D01*
X95245489Y-14622151D01*
X95133468Y-14948340D01*
X95128273Y-14961422D01*
X95127024Y-14964179D01*
X94985973Y-15275574D01*
X94979573Y-15288096D01*
X94808254Y-15587431D01*
X94800692Y-15599304D01*
X94601898Y-15881123D01*
X94593249Y-15892230D01*
X94368752Y-16154024D01*
X94359095Y-16164265D01*
X94110879Y-16403721D01*
X94100297Y-16413005D01*
X93830607Y-16627954D01*
X93819196Y-16636199D01*
X93530412Y-16824746D01*
X93518275Y-16831876D01*
X93210761Y-16993499D01*
X93203307Y-16997155D01*
X91920063Y-17582836D01*
X91915789Y-17584321D01*
X91870883Y-17605277D01*
X91869742Y-17605804D01*
X91824558Y-17626426D01*
X91820566Y-17628767D01*
X91743655Y-17664676D01*
X91508790Y-17812790D01*
X91508789Y-17812791D01*
X91294396Y-17989255D01*
X91294394Y-17989257D01*
X91103895Y-18191252D01*
X91103891Y-18191258D01*
X90940286Y-18415598D01*
X90940275Y-18415615D01*
X90806170Y-18658730D01*
X90806166Y-18658740D01*
X90703676Y-18916796D01*
X90703674Y-18916803D01*
X90634430Y-19185698D01*
X90634429Y-19185702D01*
X90634429Y-19185704D01*
X90634428Y-19185707D01*
X90599530Y-19461152D01*
X90599530Y-19738847D01*
X90634428Y-20014292D01*
X90634429Y-20014295D01*
X90634430Y-20014302D01*
X90657381Y-20103425D01*
X90703676Y-20283203D01*
X90806166Y-20541259D01*
X90806170Y-20541269D01*
X90933121Y-20771414D01*
X90940281Y-20784394D01*
X91103891Y-21008742D01*
X91103893Y-21008744D01*
X91103895Y-21008747D01*
X91294393Y-21210741D01*
X91294400Y-21210748D01*
X91508788Y-21387208D01*
X91743655Y-21535323D01*
X91743661Y-21535325D01*
X91743663Y-21535327D01*
X91820541Y-21571220D01*
X91824535Y-21573563D01*
X91869663Y-21594159D01*
X91870787Y-21594677D01*
X91870806Y-21594686D01*
X91870811Y-21594688D01*
X91915827Y-21615696D01*
X91920100Y-21617179D01*
X93203087Y-22202743D01*
X93210541Y-22206399D01*
X93518278Y-22368140D01*
X93530402Y-22375263D01*
X93668153Y-22465201D01*
X93819186Y-22563811D01*
X93830590Y-22572050D01*
X94100306Y-22787019D01*
X94110864Y-22796283D01*
X94359085Y-23035743D01*
X94368731Y-23045971D01*
X94593232Y-23307771D01*
X94593244Y-23307784D01*
X94601889Y-23318887D01*
X94758009Y-23540210D01*
X94800680Y-23600702D01*
X94808241Y-23612574D01*
X94979547Y-23911887D01*
X94979561Y-23911910D01*
X94985957Y-23924422D01*
X95128264Y-24238592D01*
X95133456Y-24251664D01*
X95245476Y-24577853D01*
X95249414Y-24591367D01*
X95330150Y-24926665D01*
X95332795Y-24940491D01*
X95381528Y-25281905D01*
X95382857Y-25295920D01*
X95399333Y-25644224D01*
X95399499Y-25651264D01*
X95399494Y-57549015D01*
X95399328Y-57556056D01*
X95382864Y-57904083D01*
X95381535Y-57918096D01*
X95332804Y-58259508D01*
X95330159Y-58273335D01*
X95249420Y-58608642D01*
X95245481Y-58622157D01*
X95133467Y-58948325D01*
X95128272Y-58961407D01*
X94985970Y-59275568D01*
X94979562Y-59288103D01*
X94808247Y-59587429D01*
X94800685Y-59599302D01*
X94601896Y-59881115D01*
X94593248Y-59892222D01*
X94368741Y-60154029D01*
X94359082Y-60164271D01*
X94110877Y-60403714D01*
X94100296Y-60412997D01*
X93830591Y-60627958D01*
X93819181Y-60636202D01*
X93530409Y-60824742D01*
X93518271Y-60831873D01*
X93210704Y-60993522D01*
X93203250Y-60997178D01*
X91920058Y-61582836D01*
X91915792Y-61584318D01*
X91905588Y-61589078D01*
X91905588Y-61589079D01*
X91883697Y-61599293D01*
X91870707Y-61605355D01*
X91869722Y-61605809D01*
X91840241Y-61619266D01*
X91824517Y-61626443D01*
X91820563Y-61628763D01*
X91743641Y-61664677D01*
X91508778Y-61812792D01*
X91508763Y-61812803D01*
X91294398Y-61989244D01*
X91294395Y-61989247D01*
X91161621Y-62130035D01*
X91103893Y-62191248D01*
X91103886Y-62191255D01*
X91103880Y-62191262D01*
X90940274Y-62415606D01*
X90806165Y-62658729D01*
X90806157Y-62658746D01*
X90703668Y-62916800D01*
X90703666Y-62916806D01*
X90634424Y-63185694D01*
X90634423Y-63185700D01*
X90599524Y-63461154D01*
X90599524Y-63461163D01*
X90599508Y-63547428D01*
X90599500Y-63547526D01*
X90599500Y-69039894D01*
X90599358Y-69046395D01*
X90585321Y-69367790D01*
X90584188Y-69380739D01*
X90542619Y-69696462D01*
X90540362Y-69709263D01*
X90471431Y-70020174D01*
X90468066Y-70032729D01*
X90372307Y-70336429D01*
X90367861Y-70348644D01*
X90245988Y-70642863D01*
X90240495Y-70654644D01*
X90093451Y-70937106D01*
X90086952Y-70948363D01*
X89915844Y-71216944D01*
X89908388Y-71227592D01*
X89714520Y-71480241D01*
X89706164Y-71490198D01*
X89488331Y-71727917D01*
X89483837Y-71732612D01*
X89224772Y-71991677D01*
X89220555Y-71995732D01*
X88950255Y-72245596D01*
X88941359Y-72253194D01*
X88654600Y-72479259D01*
X88645135Y-72486136D01*
X88341525Y-72689004D01*
X88331549Y-72695116D01*
X88012974Y-72873529D01*
X88002550Y-72878841D01*
X87670935Y-73031720D01*
X87660126Y-73036197D01*
X87317558Y-73162579D01*
X87306431Y-73166195D01*
X86954984Y-73265315D01*
X86943608Y-73268046D01*
X86585478Y-73339285D01*
X86573923Y-73341115D01*
X86211309Y-73384035D01*
X86199646Y-73384953D01*
X85832417Y-73399385D01*
X85826566Y-73399500D01*
X9773992Y-73399500D01*
X9768143Y-73399385D01*
X9745473Y-73398494D01*
X9400353Y-73384932D01*
X9388690Y-73384014D01*
X9026072Y-73341094D01*
X9014518Y-73339264D01*
X8656387Y-73268029D01*
X8645011Y-73265298D01*
X8293570Y-73166182D01*
X8282444Y-73162567D01*
X7939866Y-73036187D01*
X7929057Y-73031710D01*
X7597449Y-72878840D01*
X7587025Y-72873529D01*
X7268426Y-72695111D01*
X7258451Y-72688998D01*
X6954847Y-72486143D01*
X6945382Y-72479267D01*
X6658614Y-72253206D01*
X6649718Y-72245608D01*
X6380108Y-71996395D01*
X6375888Y-71992338D01*
X6162502Y-71778952D01*
X6162500Y-71778949D01*
X6115645Y-71732095D01*
X6111151Y-71727401D01*
X5893798Y-71490213D01*
X5885442Y-71480255D01*
X5691572Y-71227609D01*
X5684116Y-71216960D01*
X5577748Y-71050000D01*
X8894706Y-71050000D01*
X8913854Y-71293304D01*
X8913855Y-71293309D01*
X8970828Y-71530614D01*
X9064221Y-71756086D01*
X9064224Y-71756091D01*
X9191736Y-71964172D01*
X9191738Y-71964174D01*
X9191741Y-71964179D01*
X9350241Y-72149759D01*
X9535821Y-72308259D01*
X9535825Y-72308261D01*
X9535827Y-72308263D01*
X9674547Y-72393271D01*
X9721130Y-72421817D01*
X9743908Y-72435775D01*
X9743913Y-72435778D01*
X9969385Y-72529171D01*
X9969386Y-72529171D01*
X9969388Y-72529172D01*
X10206698Y-72586146D01*
X10450000Y-72605294D01*
X10693302Y-72586146D01*
X10930612Y-72529172D01*
X11156089Y-72435777D01*
X11364179Y-72308259D01*
X11549759Y-72149759D01*
X11708259Y-71964179D01*
X11835777Y-71756089D01*
X11929172Y-71530612D01*
X11986146Y-71293302D01*
X12005294Y-71050000D01*
X11986146Y-70806698D01*
X11929172Y-70569388D01*
X11837737Y-70348644D01*
X11835778Y-70343913D01*
X11835775Y-70343908D01*
X11708263Y-70135827D01*
X11708261Y-70135825D01*
X11708259Y-70135821D01*
X11592257Y-70000000D01*
X15894706Y-70000000D01*
X15913854Y-70243304D01*
X15913855Y-70243309D01*
X15970828Y-70480614D01*
X16064221Y-70706086D01*
X16064224Y-70706091D01*
X16191736Y-70914172D01*
X16191738Y-70914174D01*
X16191741Y-70914179D01*
X16350241Y-71099759D01*
X16535821Y-71258259D01*
X16535825Y-71258261D01*
X16535827Y-71258263D01*
X16743908Y-71385775D01*
X16743913Y-71385778D01*
X16969385Y-71479171D01*
X16969386Y-71479171D01*
X16969388Y-71479172D01*
X17206698Y-71536146D01*
X17450000Y-71555294D01*
X17693302Y-71536146D01*
X17930612Y-71479172D01*
X18156089Y-71385777D01*
X18364179Y-71258259D01*
X18549759Y-71099759D01*
X18592257Y-71050000D01*
X37394706Y-71050000D01*
X37413854Y-71293304D01*
X37413855Y-71293309D01*
X37470828Y-71530614D01*
X37564221Y-71756086D01*
X37564224Y-71756091D01*
X37691736Y-71964172D01*
X37691738Y-71964174D01*
X37691741Y-71964179D01*
X37850241Y-72149759D01*
X38035821Y-72308259D01*
X38035825Y-72308261D01*
X38035827Y-72308263D01*
X38174547Y-72393271D01*
X38221130Y-72421817D01*
X38243908Y-72435775D01*
X38243913Y-72435778D01*
X38469385Y-72529171D01*
X38469386Y-72529171D01*
X38469388Y-72529172D01*
X38706698Y-72586146D01*
X38950000Y-72605294D01*
X39193302Y-72586146D01*
X39430612Y-72529172D01*
X39656089Y-72435777D01*
X39864179Y-72308259D01*
X40049759Y-72149759D01*
X40208259Y-71964179D01*
X40335777Y-71756089D01*
X40429172Y-71530612D01*
X40486146Y-71293302D01*
X40505294Y-71050000D01*
X40486146Y-70806698D01*
X40429172Y-70569388D01*
X40337737Y-70348644D01*
X40335778Y-70343913D01*
X40335775Y-70343908D01*
X40208263Y-70135827D01*
X40208261Y-70135825D01*
X40208259Y-70135821D01*
X40092257Y-70000000D01*
X44394706Y-70000000D01*
X44413854Y-70243304D01*
X44413855Y-70243309D01*
X44470828Y-70480614D01*
X44564221Y-70706086D01*
X44564224Y-70706091D01*
X44691736Y-70914172D01*
X44691738Y-70914174D01*
X44691741Y-70914179D01*
X44850241Y-71099759D01*
X45035821Y-71258259D01*
X45035825Y-71258261D01*
X45035827Y-71258263D01*
X45243908Y-71385775D01*
X45243913Y-71385778D01*
X45469385Y-71479171D01*
X45469386Y-71479171D01*
X45469388Y-71479172D01*
X45706698Y-71536146D01*
X45950000Y-71555294D01*
X46193302Y-71536146D01*
X46430612Y-71479172D01*
X46656089Y-71385777D01*
X46864179Y-71258259D01*
X47049759Y-71099759D01*
X47208259Y-70914179D01*
X47335777Y-70706089D01*
X47429172Y-70480612D01*
X47486146Y-70243302D01*
X47505294Y-70000000D01*
X47486146Y-69756698D01*
X47429172Y-69519388D01*
X47426101Y-69511975D01*
X47335778Y-69293913D01*
X47335775Y-69293908D01*
X47208263Y-69085827D01*
X47208261Y-69085825D01*
X47208259Y-69085821D01*
X47134959Y-68999998D01*
X85832465Y-68999998D01*
X85832465Y-69000002D01*
X85850524Y-69137176D01*
X85850525Y-69137179D01*
X85850526Y-69137183D01*
X85903476Y-69265018D01*
X85903477Y-69265020D01*
X85903478Y-69265021D01*
X85987330Y-69374298D01*
X85987709Y-69374791D01*
X86097482Y-69459024D01*
X86225317Y-69511974D01*
X86225322Y-69511974D01*
X86225323Y-69511975D01*
X86362497Y-69530035D01*
X86362500Y-69530035D01*
X86362503Y-69530035D01*
X86499676Y-69511975D01*
X86499676Y-69511974D01*
X86499683Y-69511974D01*
X86627518Y-69459024D01*
X86737291Y-69374791D01*
X86821524Y-69265018D01*
X86874474Y-69137183D01*
X86881236Y-69085821D01*
X86892535Y-69000002D01*
X86892535Y-68999998D01*
X86888332Y-68968078D01*
X86874474Y-68862817D01*
X86831672Y-68759482D01*
X86821524Y-68734982D01*
X86767840Y-68665021D01*
X86737291Y-68625209D01*
X86737288Y-68625207D01*
X86737287Y-68625205D01*
X86627521Y-68540978D01*
X86627520Y-68540977D01*
X86627518Y-68540976D01*
X86499683Y-68488026D01*
X86499679Y-68488025D01*
X86499676Y-68488024D01*
X86362503Y-68469965D01*
X86362499Y-68469965D01*
X86225316Y-68488026D01*
X86225315Y-68488026D01*
X86097482Y-68540975D01*
X85987711Y-68625207D01*
X85987707Y-68625211D01*
X85903475Y-68734982D01*
X85850526Y-68862815D01*
X85850526Y-68862816D01*
X85832465Y-68999998D01*
X47134959Y-68999998D01*
X47049759Y-68900241D01*
X46864179Y-68741741D01*
X46864174Y-68741738D01*
X46864172Y-68741736D01*
X46656091Y-68614224D01*
X46656086Y-68614221D01*
X46430614Y-68520828D01*
X46193309Y-68463855D01*
X46193304Y-68463854D01*
X45950000Y-68444706D01*
X45706695Y-68463854D01*
X45706690Y-68463855D01*
X45469385Y-68520828D01*
X45243913Y-68614221D01*
X45243908Y-68614224D01*
X45035827Y-68741736D01*
X44850241Y-68900241D01*
X44691736Y-69085827D01*
X44564224Y-69293908D01*
X44564221Y-69293913D01*
X44470828Y-69519385D01*
X44413855Y-69756690D01*
X44413854Y-69756695D01*
X44394706Y-70000000D01*
X40092257Y-70000000D01*
X40049759Y-69950241D01*
X39864179Y-69791741D01*
X39864174Y-69791738D01*
X39864172Y-69791736D01*
X39656091Y-69664224D01*
X39656086Y-69664221D01*
X39430614Y-69570828D01*
X39193309Y-69513855D01*
X39193304Y-69513854D01*
X38950000Y-69494706D01*
X38706695Y-69513854D01*
X38706690Y-69513855D01*
X38469385Y-69570828D01*
X38243913Y-69664221D01*
X38243908Y-69664224D01*
X38035827Y-69791736D01*
X37850241Y-69950241D01*
X37691736Y-70135827D01*
X37564224Y-70343908D01*
X37564221Y-70343913D01*
X37470828Y-70569385D01*
X37413855Y-70806690D01*
X37413854Y-70806695D01*
X37394706Y-71050000D01*
X18592257Y-71050000D01*
X18708259Y-70914179D01*
X18835777Y-70706089D01*
X18929172Y-70480612D01*
X18986146Y-70243302D01*
X19005294Y-70000000D01*
X18986146Y-69756698D01*
X18929172Y-69519388D01*
X18926101Y-69511975D01*
X18835778Y-69293913D01*
X18835775Y-69293908D01*
X18708263Y-69085827D01*
X18708261Y-69085825D01*
X18708259Y-69085821D01*
X18549759Y-68900241D01*
X18364179Y-68741741D01*
X18364174Y-68741738D01*
X18364172Y-68741736D01*
X18156091Y-68614224D01*
X18156086Y-68614221D01*
X17930614Y-68520828D01*
X17693309Y-68463855D01*
X17693304Y-68463854D01*
X17450000Y-68444706D01*
X17206695Y-68463854D01*
X17206690Y-68463855D01*
X16969385Y-68520828D01*
X16743913Y-68614221D01*
X16743908Y-68614224D01*
X16535827Y-68741736D01*
X16350241Y-68900241D01*
X16191736Y-69085827D01*
X16064224Y-69293908D01*
X16064221Y-69293913D01*
X15970828Y-69519385D01*
X15913855Y-69756690D01*
X15913854Y-69756695D01*
X15894706Y-70000000D01*
X11592257Y-70000000D01*
X11549759Y-69950241D01*
X11364179Y-69791741D01*
X11364174Y-69791738D01*
X11364172Y-69791736D01*
X11156091Y-69664224D01*
X11156086Y-69664221D01*
X10930614Y-69570828D01*
X10693309Y-69513855D01*
X10693304Y-69513854D01*
X10450000Y-69494706D01*
X10206695Y-69513854D01*
X10206690Y-69513855D01*
X9969385Y-69570828D01*
X9743913Y-69664221D01*
X9743908Y-69664224D01*
X9535827Y-69791736D01*
X9350241Y-69950241D01*
X9191736Y-70135827D01*
X9064224Y-70343908D01*
X9064221Y-70343913D01*
X8970828Y-70569385D01*
X8913855Y-70806690D01*
X8913854Y-70806695D01*
X8894706Y-71050000D01*
X5577748Y-71050000D01*
X5536069Y-70984579D01*
X5513012Y-70948388D01*
X5506515Y-70937136D01*
X5359462Y-70654658D01*
X5353971Y-70642883D01*
X5232100Y-70348665D01*
X5227654Y-70336449D01*
X5218513Y-70307459D01*
X5131891Y-70032729D01*
X5128529Y-70020179D01*
X5077885Y-69791736D01*
X5059602Y-69709263D01*
X5057347Y-69696473D01*
X5053101Y-69664223D01*
X5015783Y-69380739D01*
X5014651Y-69367801D01*
X5000642Y-69046861D01*
X5000500Y-69040360D01*
X5000500Y-69039894D01*
X5000501Y-69003267D01*
X5000500Y-69003264D01*
X5000500Y-68247506D01*
X72469966Y-68247506D01*
X72469966Y-68247510D01*
X72488025Y-68384684D01*
X72488026Y-68384687D01*
X72488027Y-68384691D01*
X72540977Y-68512526D01*
X72540978Y-68512528D01*
X72540979Y-68512529D01*
X72625208Y-68622297D01*
X72625211Y-68622300D01*
X72734979Y-68706529D01*
X72734983Y-68706532D01*
X72862818Y-68759482D01*
X72862823Y-68759482D01*
X72862824Y-68759483D01*
X72999998Y-68777543D01*
X73000001Y-68777543D01*
X73000004Y-68777543D01*
X73137177Y-68759483D01*
X73137177Y-68759482D01*
X73137184Y-68759482D01*
X73265019Y-68706532D01*
X73374792Y-68622299D01*
X73459025Y-68512526D01*
X73505635Y-68399998D01*
X74069965Y-68399998D01*
X74069965Y-68400002D01*
X74088024Y-68537176D01*
X74088025Y-68537179D01*
X74088026Y-68537183D01*
X74140976Y-68665018D01*
X74140977Y-68665020D01*
X74140978Y-68665021D01*
X74213462Y-68759483D01*
X74225209Y-68774791D01*
X74334982Y-68859024D01*
X74462817Y-68911974D01*
X74462822Y-68911974D01*
X74462823Y-68911975D01*
X74599997Y-68930035D01*
X74600000Y-68930035D01*
X74600003Y-68930035D01*
X74737176Y-68911975D01*
X74737176Y-68911974D01*
X74737183Y-68911974D01*
X74865018Y-68859024D01*
X74974791Y-68774791D01*
X75059024Y-68665018D01*
X75111974Y-68537183D01*
X75130035Y-68400000D01*
X75128019Y-68384691D01*
X75125832Y-68368078D01*
X75111974Y-68262817D01*
X75075807Y-68175500D01*
X75059024Y-68134982D01*
X75017397Y-68080734D01*
X74974791Y-68025209D01*
X74974788Y-68025207D01*
X74974787Y-68025205D01*
X74865021Y-67940978D01*
X74865020Y-67940977D01*
X74865018Y-67940976D01*
X74737183Y-67888026D01*
X74737179Y-67888025D01*
X74737176Y-67888024D01*
X74600003Y-67869965D01*
X74599999Y-67869965D01*
X74462816Y-67888026D01*
X74462815Y-67888026D01*
X74334982Y-67940975D01*
X74225211Y-68025207D01*
X74225207Y-68025211D01*
X74140975Y-68134982D01*
X74088026Y-68262815D01*
X74088026Y-68262816D01*
X74069965Y-68399998D01*
X73505635Y-68399998D01*
X73511975Y-68384691D01*
X73511976Y-68384684D01*
X73530036Y-68247510D01*
X73530036Y-68247506D01*
X73523847Y-68200500D01*
X73511975Y-68110325D01*
X73476719Y-68025209D01*
X73459025Y-67982490D01*
X73422452Y-67934829D01*
X73374792Y-67872717D01*
X73374789Y-67872715D01*
X73374788Y-67872713D01*
X73265022Y-67788486D01*
X73265021Y-67788485D01*
X73265019Y-67788484D01*
X73137184Y-67735534D01*
X73137180Y-67735533D01*
X73137177Y-67735532D01*
X73000004Y-67717473D01*
X73000000Y-67717473D01*
X72862817Y-67735534D01*
X72862816Y-67735534D01*
X72734983Y-67788483D01*
X72625212Y-67872715D01*
X72625208Y-67872719D01*
X72540976Y-67982490D01*
X72488027Y-68110323D01*
X72488027Y-68110324D01*
X72469966Y-68247506D01*
X5000500Y-68247506D01*
X5000500Y-64900000D01*
X6494355Y-64900000D01*
X6514860Y-65068874D01*
X6575181Y-65227929D01*
X6575182Y-65227930D01*
X6671817Y-65367929D01*
X6671819Y-65367930D01*
X6671820Y-65367932D01*
X6799146Y-65480732D01*
X6799148Y-65480734D01*
X6949775Y-65559790D01*
X7114944Y-65600500D01*
X7285056Y-65600500D01*
X7450225Y-65559790D01*
X7600852Y-65480734D01*
X7728183Y-65367929D01*
X7824818Y-65227930D01*
X7858728Y-65138516D01*
X10174500Y-65138516D01*
X10174500Y-65461483D01*
X10210661Y-65782428D01*
X10282526Y-66097289D01*
X10282527Y-66097291D01*
X10282528Y-66097295D01*
X10327287Y-66225209D01*
X10389197Y-66402138D01*
X10529329Y-66693125D01*
X10699109Y-66963330D01*
X10701159Y-66966591D01*
X10902527Y-67219099D01*
X11130901Y-67447473D01*
X11383409Y-67648841D01*
X11656875Y-67820671D01*
X11947860Y-67960802D01*
X12252705Y-68067472D01*
X12310801Y-68080732D01*
X12567571Y-68139338D01*
X12567574Y-68139338D01*
X12567577Y-68139339D01*
X12888515Y-68175500D01*
X12888516Y-68175500D01*
X13211484Y-68175500D01*
X13211485Y-68175500D01*
X13532423Y-68139339D01*
X13532426Y-68139338D01*
X13532428Y-68139338D01*
X13659551Y-68110323D01*
X13847295Y-68067472D01*
X14152140Y-67960802D01*
X14443125Y-67820671D01*
X14716591Y-67648841D01*
X14969099Y-67447473D01*
X15197473Y-67219099D01*
X15398841Y-66966591D01*
X15570671Y-66693125D01*
X15710802Y-66402140D01*
X15817472Y-66097295D01*
X15889339Y-65782423D01*
X15925500Y-65461485D01*
X15925500Y-65138516D01*
X38674500Y-65138516D01*
X38674500Y-65461483D01*
X38710661Y-65782428D01*
X38782526Y-66097289D01*
X38782527Y-66097291D01*
X38782528Y-66097295D01*
X38827287Y-66225209D01*
X38889197Y-66402138D01*
X39029329Y-66693125D01*
X39199109Y-66963330D01*
X39201159Y-66966591D01*
X39402527Y-67219099D01*
X39630901Y-67447473D01*
X39883409Y-67648841D01*
X40156875Y-67820671D01*
X40447860Y-67960802D01*
X40752705Y-68067472D01*
X40810801Y-68080732D01*
X41067571Y-68139338D01*
X41067574Y-68139338D01*
X41067577Y-68139339D01*
X41388515Y-68175500D01*
X41388516Y-68175500D01*
X41711484Y-68175500D01*
X41711485Y-68175500D01*
X42032423Y-68139339D01*
X42032426Y-68139338D01*
X42032428Y-68139338D01*
X42159551Y-68110323D01*
X42347295Y-68067472D01*
X42652140Y-67960802D01*
X42943125Y-67820671D01*
X43216591Y-67648841D01*
X43403232Y-67500000D01*
X76694355Y-67500000D01*
X76714860Y-67668874D01*
X76775181Y-67827929D01*
X76775182Y-67827930D01*
X76871817Y-67967929D01*
X76984179Y-68067473D01*
X76999146Y-68080732D01*
X76999148Y-68080734D01*
X77149775Y-68159790D01*
X77314944Y-68200500D01*
X77485056Y-68200500D01*
X77650225Y-68159790D01*
X77800852Y-68080734D01*
X77928183Y-67967929D01*
X78024818Y-67827930D01*
X78085140Y-67668872D01*
X78105645Y-67500000D01*
X78085140Y-67331128D01*
X78039310Y-67210284D01*
X78035409Y-67199998D01*
X83869965Y-67199998D01*
X83869965Y-67200002D01*
X83888024Y-67337176D01*
X83888025Y-67337179D01*
X83888026Y-67337183D01*
X83940976Y-67465018D01*
X84025209Y-67574791D01*
X84134982Y-67659024D01*
X84262817Y-67711974D01*
X84262822Y-67711974D01*
X84262823Y-67711975D01*
X84399997Y-67730035D01*
X84400000Y-67730035D01*
X84400003Y-67730035D01*
X84537176Y-67711975D01*
X84537176Y-67711974D01*
X84537183Y-67711974D01*
X84665018Y-67659024D01*
X84774791Y-67574791D01*
X84859024Y-67465018D01*
X84911974Y-67337183D01*
X84912772Y-67331125D01*
X84930035Y-67200002D01*
X84930035Y-67199998D01*
X84924417Y-67157330D01*
X84911974Y-67062817D01*
X84875512Y-66974789D01*
X84859024Y-66934982D01*
X84805340Y-66865021D01*
X84774791Y-66825209D01*
X84774788Y-66825207D01*
X84774787Y-66825205D01*
X84665021Y-66740978D01*
X84665020Y-66740977D01*
X84665018Y-66740976D01*
X84537183Y-66688026D01*
X84537179Y-66688025D01*
X84537176Y-66688024D01*
X84400003Y-66669965D01*
X84399999Y-66669965D01*
X84262816Y-66688026D01*
X84262815Y-66688026D01*
X84134982Y-66740975D01*
X84025211Y-66825207D01*
X84025207Y-66825211D01*
X83940975Y-66934982D01*
X83888026Y-67062815D01*
X83888026Y-67062816D01*
X83869965Y-67199998D01*
X78035409Y-67199998D01*
X78024818Y-67172070D01*
X77983336Y-67111974D01*
X77928183Y-67032071D01*
X77928180Y-67032068D01*
X77928179Y-67032067D01*
X77800853Y-66919267D01*
X77800854Y-66919267D01*
X77650224Y-66840209D01*
X77485056Y-66799500D01*
X77314944Y-66799500D01*
X77149775Y-66840209D01*
X76999145Y-66919267D01*
X76871820Y-67032067D01*
X76871817Y-67032071D01*
X76775181Y-67172070D01*
X76714860Y-67331125D01*
X76694355Y-67500000D01*
X43403232Y-67500000D01*
X43469099Y-67447473D01*
X43697473Y-67219099D01*
X43898841Y-66966591D01*
X44067415Y-66698307D01*
X71069591Y-66698307D01*
X71069591Y-66698311D01*
X71087650Y-66835485D01*
X71087651Y-66835488D01*
X71087652Y-66835492D01*
X71140602Y-66963327D01*
X71140603Y-66963329D01*
X71140604Y-66963330D01*
X71216943Y-67062816D01*
X71224835Y-67073100D01*
X71334608Y-67157333D01*
X71462443Y-67210283D01*
X71462448Y-67210283D01*
X71462449Y-67210284D01*
X71599623Y-67228344D01*
X71599626Y-67228344D01*
X71599629Y-67228344D01*
X71736802Y-67210284D01*
X71736802Y-67210283D01*
X71736809Y-67210283D01*
X71864644Y-67157333D01*
X71974417Y-67073100D01*
X72058650Y-66963327D01*
X72111600Y-66835492D01*
X72116339Y-66799500D01*
X72129661Y-66698311D01*
X72129661Y-66698307D01*
X72116718Y-66600002D01*
X72116717Y-66599998D01*
X82597465Y-66599998D01*
X82597465Y-66600002D01*
X82615524Y-66737176D01*
X82615525Y-66737179D01*
X82615526Y-66737183D01*
X82668476Y-66865018D01*
X82668477Y-66865020D01*
X82668478Y-66865021D01*
X82746416Y-66966591D01*
X82752709Y-66974791D01*
X82862482Y-67059024D01*
X82990317Y-67111974D01*
X82990322Y-67111974D01*
X82990323Y-67111975D01*
X83127497Y-67130035D01*
X83127500Y-67130035D01*
X83127503Y-67130035D01*
X83264676Y-67111975D01*
X83264676Y-67111974D01*
X83264683Y-67111974D01*
X83392518Y-67059024D01*
X83502291Y-66974791D01*
X83586524Y-66865018D01*
X83639474Y-66737183D01*
X83657535Y-66600000D01*
X83639474Y-66462817D01*
X83586524Y-66334983D01*
X83586524Y-66334982D01*
X83513093Y-66239287D01*
X83502291Y-66225209D01*
X83502288Y-66225207D01*
X83502287Y-66225205D01*
X83392521Y-66140978D01*
X83392520Y-66140977D01*
X83392518Y-66140976D01*
X83264683Y-66088026D01*
X83264679Y-66088025D01*
X83264676Y-66088024D01*
X83127503Y-66069965D01*
X83127499Y-66069965D01*
X82990316Y-66088026D01*
X82990315Y-66088026D01*
X82862482Y-66140975D01*
X82752711Y-66225207D01*
X82752707Y-66225211D01*
X82668475Y-66334982D01*
X82615526Y-66462815D01*
X82615526Y-66462816D01*
X82597465Y-66599998D01*
X72116717Y-66599998D01*
X72111600Y-66561126D01*
X72058650Y-66433292D01*
X72058650Y-66433291D01*
X71983214Y-66334983D01*
X71974417Y-66323518D01*
X71974414Y-66323516D01*
X71974413Y-66323514D01*
X71864647Y-66239287D01*
X71864646Y-66239286D01*
X71864644Y-66239285D01*
X71736809Y-66186335D01*
X71736805Y-66186334D01*
X71736802Y-66186333D01*
X71599629Y-66168274D01*
X71599625Y-66168274D01*
X71462442Y-66186335D01*
X71462441Y-66186335D01*
X71334608Y-66239284D01*
X71224837Y-66323516D01*
X71224833Y-66323520D01*
X71140601Y-66433291D01*
X71087652Y-66561124D01*
X71087652Y-66561125D01*
X71069591Y-66698307D01*
X44067415Y-66698307D01*
X44070671Y-66693125D01*
X44210802Y-66402140D01*
X44317472Y-66097295D01*
X44389339Y-65782423D01*
X44425500Y-65461485D01*
X44425500Y-65138515D01*
X44389339Y-64817577D01*
X44388060Y-64811975D01*
X44317473Y-64502710D01*
X44317472Y-64502705D01*
X44210802Y-64197860D01*
X44070671Y-63906875D01*
X43898841Y-63633409D01*
X43697473Y-63380901D01*
X43469099Y-63152527D01*
X43216591Y-62951159D01*
X43216589Y-62951158D01*
X43216587Y-62951156D01*
X42943125Y-62779329D01*
X42652138Y-62639197D01*
X42521384Y-62593444D01*
X42347295Y-62532528D01*
X42347291Y-62532527D01*
X42347289Y-62532526D01*
X42032428Y-62460661D01*
X41741918Y-62427929D01*
X41711485Y-62424500D01*
X41388515Y-62424500D01*
X41358082Y-62427929D01*
X41067571Y-62460661D01*
X40752710Y-62532526D01*
X40752708Y-62532527D01*
X40447861Y-62639197D01*
X40156874Y-62779329D01*
X39883412Y-62951156D01*
X39630896Y-63152531D01*
X39402531Y-63380896D01*
X39201156Y-63633412D01*
X39029329Y-63906874D01*
X38889197Y-64197861D01*
X38782527Y-64502708D01*
X38782526Y-64502710D01*
X38710661Y-64817571D01*
X38674500Y-65138516D01*
X15925500Y-65138516D01*
X15925500Y-65138515D01*
X15889339Y-64817577D01*
X15888060Y-64811975D01*
X15817473Y-64502710D01*
X15817472Y-64502705D01*
X15710802Y-64197860D01*
X15570671Y-63906875D01*
X15398841Y-63633409D01*
X15197473Y-63380901D01*
X14969099Y-63152527D01*
X14716591Y-62951159D01*
X14716589Y-62951158D01*
X14716587Y-62951156D01*
X14443125Y-62779329D01*
X14152138Y-62639197D01*
X14021384Y-62593444D01*
X13847295Y-62532528D01*
X13847291Y-62532527D01*
X13847289Y-62532526D01*
X13532428Y-62460661D01*
X13241918Y-62427929D01*
X13211485Y-62424500D01*
X12888515Y-62424500D01*
X12858082Y-62427929D01*
X12567571Y-62460661D01*
X12252710Y-62532526D01*
X12252708Y-62532527D01*
X11947861Y-62639197D01*
X11656874Y-62779329D01*
X11383412Y-62951156D01*
X11130896Y-63152531D01*
X10902531Y-63380896D01*
X10701156Y-63633412D01*
X10529329Y-63906874D01*
X10389197Y-64197861D01*
X10282527Y-64502708D01*
X10282526Y-64502710D01*
X10210661Y-64817571D01*
X10174500Y-65138516D01*
X7858728Y-65138516D01*
X7885140Y-65068872D01*
X7905645Y-64900000D01*
X7885140Y-64731128D01*
X7863774Y-64674791D01*
X7824818Y-64572070D01*
X7819950Y-64565018D01*
X7728183Y-64432071D01*
X7728180Y-64432068D01*
X7728179Y-64432067D01*
X7600853Y-64319267D01*
X7600854Y-64319267D01*
X7450224Y-64240209D01*
X7285056Y-64199500D01*
X7114944Y-64199500D01*
X6949775Y-64240209D01*
X6799145Y-64319267D01*
X6671820Y-64432067D01*
X6671817Y-64432071D01*
X6575181Y-64572070D01*
X6514860Y-64731125D01*
X6494355Y-64900000D01*
X5000500Y-64900000D01*
X5000500Y-63560118D01*
X5000500Y-63545757D01*
X5000486Y-63545623D01*
X5000472Y-63461165D01*
X5000471Y-63461154D01*
X5000471Y-63461153D01*
X4975991Y-63267929D01*
X4965573Y-63185698D01*
X4965570Y-63185690D01*
X4965570Y-63185684D01*
X4909737Y-62968872D01*
X4896328Y-62916802D01*
X4793836Y-62658741D01*
X4793834Y-62658738D01*
X4793832Y-62658732D01*
X4659722Y-62415608D01*
X4648340Y-62400000D01*
X4502487Y-62200000D01*
X16794355Y-62200000D01*
X16814860Y-62368874D01*
X16875181Y-62527929D01*
X16902794Y-62567932D01*
X16971817Y-62667929D01*
X16971819Y-62667930D01*
X16971820Y-62667932D01*
X16986271Y-62680734D01*
X17092437Y-62774789D01*
X17099146Y-62780732D01*
X17099148Y-62780734D01*
X17249775Y-62859790D01*
X17414944Y-62900500D01*
X17585056Y-62900500D01*
X17750225Y-62859790D01*
X17900852Y-62780734D01*
X18028183Y-62667929D01*
X18124818Y-62527930D01*
X18185140Y-62368872D01*
X18205645Y-62200000D01*
X18193503Y-62100000D01*
X45794355Y-62100000D01*
X45814860Y-62268874D01*
X45875181Y-62427929D01*
X45899262Y-62462816D01*
X45971817Y-62567929D01*
X45971819Y-62567930D01*
X45971820Y-62567932D01*
X46043151Y-62631125D01*
X46098941Y-62680551D01*
X46099146Y-62680732D01*
X46099148Y-62680734D01*
X46249775Y-62759790D01*
X46414944Y-62800500D01*
X46585056Y-62800500D01*
X46587085Y-62800000D01*
X58594355Y-62800000D01*
X58614860Y-62968874D01*
X58675181Y-63127929D01*
X58691275Y-63151245D01*
X58771817Y-63267929D01*
X58771819Y-63267930D01*
X58771820Y-63267932D01*
X58899146Y-63380732D01*
X58899148Y-63380734D01*
X59049775Y-63459790D01*
X59214944Y-63500500D01*
X59385056Y-63500500D01*
X59550225Y-63459790D01*
X59700852Y-63380734D01*
X59828183Y-63267929D01*
X59924818Y-63127930D01*
X59985140Y-62968872D01*
X60005645Y-62800000D01*
X59985140Y-62631128D01*
X59960068Y-62565019D01*
X59924818Y-62472070D01*
X59894349Y-62427929D01*
X59828183Y-62332071D01*
X59828180Y-62332068D01*
X59828179Y-62332067D01*
X59726318Y-62241827D01*
X59700853Y-62219267D01*
X59700854Y-62219267D01*
X59550224Y-62140209D01*
X59385056Y-62099500D01*
X59214944Y-62099500D01*
X59049775Y-62140209D01*
X58899145Y-62219267D01*
X58771820Y-62332067D01*
X58771817Y-62332071D01*
X58675181Y-62472070D01*
X58614860Y-62631125D01*
X58594355Y-62800000D01*
X46587085Y-62800000D01*
X46750225Y-62759790D01*
X46900852Y-62680734D01*
X47028183Y-62567929D01*
X47124818Y-62427930D01*
X47185140Y-62268872D01*
X47205645Y-62100000D01*
X47185140Y-61931128D01*
X47124818Y-61772070D01*
X47073440Y-61697637D01*
X70969965Y-61697637D01*
X70969965Y-61697641D01*
X70988024Y-61834815D01*
X70988025Y-61834818D01*
X70988026Y-61834822D01*
X71040976Y-61962657D01*
X71040977Y-61962659D01*
X71040978Y-61962660D01*
X71125207Y-62072428D01*
X71125210Y-62072431D01*
X71142009Y-62085321D01*
X71188963Y-62146510D01*
X71199032Y-62222978D01*
X71188967Y-62260545D01*
X71188024Y-62262819D01*
X71169965Y-62399997D01*
X71169965Y-62400002D01*
X71188024Y-62537176D01*
X71188025Y-62537179D01*
X71188026Y-62537183D01*
X71240976Y-62665018D01*
X71240977Y-62665020D01*
X71240978Y-62665021D01*
X71325207Y-62774789D01*
X71325211Y-62774793D01*
X71341269Y-62787115D01*
X71388221Y-62848305D01*
X71398288Y-62924773D01*
X71388223Y-62962339D01*
X71388025Y-62962815D01*
X71388025Y-62962817D01*
X71369965Y-63099997D01*
X71369965Y-63100002D01*
X71388024Y-63237176D01*
X71388025Y-63237179D01*
X71388026Y-63237183D01*
X71440976Y-63365018D01*
X71440977Y-63365020D01*
X71440978Y-63365021D01*
X71525207Y-63474789D01*
X71525210Y-63474792D01*
X71564477Y-63504923D01*
X71611429Y-63566113D01*
X71621496Y-63642581D01*
X71591980Y-63713838D01*
X71530790Y-63760790D01*
X71493221Y-63770857D01*
X71362815Y-63788026D01*
X71234982Y-63840975D01*
X71125211Y-63925207D01*
X71125207Y-63925211D01*
X71040975Y-64034982D01*
X70988026Y-64162815D01*
X70988026Y-64162816D01*
X70969965Y-64299998D01*
X70969965Y-64300002D01*
X70988024Y-64437176D01*
X70988025Y-64437179D01*
X70988026Y-64437183D01*
X71040976Y-64565018D01*
X71040977Y-64565020D01*
X71040978Y-64565021D01*
X71096345Y-64637176D01*
X71125209Y-64674791D01*
X71234982Y-64759024D01*
X71362817Y-64811974D01*
X71362822Y-64811974D01*
X71362823Y-64811975D01*
X71499997Y-64830035D01*
X71500000Y-64830035D01*
X71500003Y-64830035D01*
X71637176Y-64811975D01*
X71637176Y-64811974D01*
X71637183Y-64811974D01*
X71765018Y-64759024D01*
X71874791Y-64674791D01*
X71959024Y-64565018D01*
X71985956Y-64499998D01*
X77569965Y-64499998D01*
X77569965Y-64500002D01*
X77588024Y-64637176D01*
X77588025Y-64637179D01*
X77588026Y-64637183D01*
X77640976Y-64765018D01*
X77640977Y-64765020D01*
X77640978Y-64765021D01*
X77725207Y-64874789D01*
X77725210Y-64874792D01*
X77834978Y-64959021D01*
X77834982Y-64959024D01*
X77962817Y-65011974D01*
X77962822Y-65011974D01*
X77962823Y-65011975D01*
X78099997Y-65030035D01*
X78100000Y-65030035D01*
X78100003Y-65030035D01*
X78237176Y-65011975D01*
X78237176Y-65011974D01*
X78237183Y-65011974D01*
X78365018Y-64959024D01*
X78474791Y-64874791D01*
X78559024Y-64765018D01*
X78611974Y-64637183D01*
X78629678Y-64502710D01*
X78630035Y-64500002D01*
X78630035Y-64499998D01*
X78625832Y-64468078D01*
X78611974Y-64362817D01*
X78593935Y-64319266D01*
X78559024Y-64234982D01*
X78513395Y-64175519D01*
X78474791Y-64125209D01*
X78474788Y-64125207D01*
X78474787Y-64125205D01*
X78365021Y-64040978D01*
X78365020Y-64040977D01*
X78365018Y-64040976D01*
X78237183Y-63988026D01*
X78237179Y-63988025D01*
X78237176Y-63988024D01*
X78100003Y-63969965D01*
X78099999Y-63969965D01*
X77962816Y-63988026D01*
X77962815Y-63988026D01*
X77834982Y-64040975D01*
X77725211Y-64125207D01*
X77725207Y-64125211D01*
X77640975Y-64234982D01*
X77588026Y-64362815D01*
X77588026Y-64362816D01*
X77569965Y-64499998D01*
X71985956Y-64499998D01*
X72011974Y-64437183D01*
X72021765Y-64362815D01*
X72030035Y-64300002D01*
X72030035Y-64299998D01*
X72020618Y-64228472D01*
X72011974Y-64162817D01*
X71982347Y-64091290D01*
X71959024Y-64034982D01*
X71917997Y-63981516D01*
X71874791Y-63925209D01*
X71874788Y-63925207D01*
X71874787Y-63925205D01*
X71835522Y-63895076D01*
X71788570Y-63833886D01*
X71778503Y-63757417D01*
X71808019Y-63686161D01*
X71869209Y-63639209D01*
X71906777Y-63629142D01*
X71990003Y-63618185D01*
X72037177Y-63611975D01*
X72037177Y-63611974D01*
X72037183Y-63611974D01*
X72165018Y-63559024D01*
X72274791Y-63474791D01*
X72359024Y-63365018D01*
X72411974Y-63237183D01*
X72418752Y-63185698D01*
X72430035Y-63100002D01*
X72430035Y-63099998D01*
X72424640Y-63059021D01*
X72411974Y-62962817D01*
X72371465Y-62865018D01*
X72359024Y-62834982D01*
X72317397Y-62780734D01*
X72274791Y-62725209D01*
X72258729Y-62712884D01*
X72211777Y-62651695D01*
X72201710Y-62575227D01*
X72211778Y-62537654D01*
X72211974Y-62537183D01*
X72223251Y-62451526D01*
X72252767Y-62380270D01*
X72313957Y-62333318D01*
X72351528Y-62323251D01*
X72437177Y-62311975D01*
X72437177Y-62311974D01*
X72437183Y-62311974D01*
X72565018Y-62259024D01*
X72609294Y-62225048D01*
X72680549Y-62195533D01*
X72757017Y-62205599D01*
X72790703Y-62225047D01*
X72834982Y-62259024D01*
X72962817Y-62311974D01*
X72962822Y-62311974D01*
X72962823Y-62311975D01*
X73099997Y-62330035D01*
X73100000Y-62330035D01*
X73100003Y-62330035D01*
X73237176Y-62311975D01*
X73237176Y-62311974D01*
X73237183Y-62311974D01*
X73365018Y-62259024D01*
X73474791Y-62174791D01*
X73511233Y-62127298D01*
X73572422Y-62080347D01*
X73648890Y-62070280D01*
X73686461Y-62080347D01*
X73762819Y-62111975D01*
X73899997Y-62130035D01*
X73900000Y-62130035D01*
X73900003Y-62130035D01*
X74037176Y-62111975D01*
X74037176Y-62111974D01*
X74037183Y-62111974D01*
X74165018Y-62059024D01*
X74274791Y-61974791D01*
X74281791Y-61965669D01*
X74342981Y-61918717D01*
X74419449Y-61908650D01*
X74490706Y-61938166D01*
X74518209Y-61965669D01*
X74525207Y-61974789D01*
X74525210Y-61974792D01*
X74634978Y-62059021D01*
X74634982Y-62059024D01*
X74762817Y-62111974D01*
X74762822Y-62111974D01*
X74762823Y-62111975D01*
X74899997Y-62130035D01*
X74900000Y-62130035D01*
X74900003Y-62130035D01*
X75037176Y-62111975D01*
X75037176Y-62111974D01*
X75037183Y-62111974D01*
X75165018Y-62059024D01*
X75274791Y-61974791D01*
X75281791Y-61965669D01*
X75342981Y-61918717D01*
X75419449Y-61908650D01*
X75490706Y-61938166D01*
X75518209Y-61965669D01*
X75525207Y-61974789D01*
X75525210Y-61974792D01*
X75634978Y-62059021D01*
X75634982Y-62059024D01*
X75762817Y-62111974D01*
X75762820Y-62111974D01*
X75762824Y-62111976D01*
X75764014Y-62112295D01*
X75765079Y-62112910D01*
X75771839Y-62115710D01*
X75771470Y-62116600D01*
X75830807Y-62150862D01*
X75869368Y-62217659D01*
X75873169Y-62275662D01*
X75869965Y-62300001D01*
X75869965Y-62300002D01*
X75888024Y-62437176D01*
X75888025Y-62437179D01*
X75888026Y-62437183D01*
X75940976Y-62565018D01*
X75940977Y-62565019D01*
X75940978Y-62565021D01*
X75974950Y-62609294D01*
X76004466Y-62680551D01*
X75994399Y-62757019D01*
X75974951Y-62790705D01*
X75940975Y-62834982D01*
X75888026Y-62962815D01*
X75888026Y-62962816D01*
X75869965Y-63099998D01*
X75869965Y-63100002D01*
X75888025Y-63237182D01*
X75888025Y-63237184D01*
X75895293Y-63254730D01*
X75905360Y-63331199D01*
X75875845Y-63402454D01*
X75838225Y-63451480D01*
X75785276Y-63579313D01*
X75785276Y-63579314D01*
X75767215Y-63716496D01*
X75767215Y-63716500D01*
X75785274Y-63853674D01*
X75785275Y-63853677D01*
X75785276Y-63853681D01*
X75838226Y-63981516D01*
X75838227Y-63981518D01*
X75838228Y-63981519D01*
X75922457Y-64091287D01*
X75922460Y-64091290D01*
X75966661Y-64125207D01*
X76032232Y-64175522D01*
X76160067Y-64228472D01*
X76160072Y-64228472D01*
X76160073Y-64228473D01*
X76297247Y-64246533D01*
X76297250Y-64246533D01*
X76297253Y-64246533D01*
X76434426Y-64228473D01*
X76434426Y-64228472D01*
X76434433Y-64228472D01*
X76562268Y-64175522D01*
X76672041Y-64091289D01*
X76756274Y-63981516D01*
X76809224Y-63853681D01*
X76827285Y-63716498D01*
X76809224Y-63579315D01*
X76801956Y-63561768D01*
X76791889Y-63485299D01*
X76821405Y-63414043D01*
X76821406Y-63414042D01*
X76859021Y-63365022D01*
X76859021Y-63365021D01*
X76859024Y-63365018D01*
X76911974Y-63237183D01*
X76918752Y-63185698D01*
X76930035Y-63100002D01*
X76930035Y-63099998D01*
X76924640Y-63059021D01*
X76911974Y-62962817D01*
X76859024Y-62834983D01*
X76825048Y-62790705D01*
X76795533Y-62719450D01*
X76805599Y-62642982D01*
X76825049Y-62609294D01*
X76832182Y-62599998D01*
X79769965Y-62599998D01*
X79769965Y-62600002D01*
X79788024Y-62737176D01*
X79788025Y-62737179D01*
X79788026Y-62737183D01*
X79840976Y-62865018D01*
X79840977Y-62865020D01*
X79840978Y-62865021D01*
X79920668Y-62968874D01*
X79925209Y-62974791D01*
X80034982Y-63059024D01*
X80162817Y-63111974D01*
X80162822Y-63111974D01*
X80162823Y-63111975D01*
X80299997Y-63130035D01*
X80300000Y-63130035D01*
X80300003Y-63130035D01*
X80437176Y-63111975D01*
X80437176Y-63111974D01*
X80437183Y-63111974D01*
X80565018Y-63059024D01*
X80674791Y-62974791D01*
X80759024Y-62865018D01*
X80811974Y-62737183D01*
X80811975Y-62737176D01*
X80830035Y-62600002D01*
X80830035Y-62599998D01*
X80825429Y-62565018D01*
X80811974Y-62462817D01*
X80792419Y-62415606D01*
X80759024Y-62334982D01*
X80713505Y-62275662D01*
X80674791Y-62225209D01*
X80674788Y-62225207D01*
X80674787Y-62225205D01*
X80565021Y-62140978D01*
X80565020Y-62140977D01*
X80565018Y-62140976D01*
X80437183Y-62088026D01*
X80437179Y-62088025D01*
X80437176Y-62088024D01*
X80300003Y-62069965D01*
X80299999Y-62069965D01*
X80162816Y-62088026D01*
X80162815Y-62088026D01*
X80034982Y-62140975D01*
X79925211Y-62225207D01*
X79925207Y-62225211D01*
X79840975Y-62334982D01*
X79788026Y-62462815D01*
X79788026Y-62462816D01*
X79769965Y-62599998D01*
X76832182Y-62599998D01*
X76859024Y-62565018D01*
X76911974Y-62437183D01*
X76913644Y-62424500D01*
X76930035Y-62300002D01*
X76930035Y-62299998D01*
X76925140Y-62262817D01*
X76911974Y-62162817D01*
X76880994Y-62088024D01*
X76859024Y-62034982D01*
X76822451Y-61987321D01*
X76774791Y-61925209D01*
X76774788Y-61925207D01*
X76774787Y-61925205D01*
X76665021Y-61840978D01*
X76665020Y-61840977D01*
X76665018Y-61840976D01*
X76537183Y-61788026D01*
X76537181Y-61788025D01*
X76537175Y-61788023D01*
X76535975Y-61787702D01*
X76534900Y-61787081D01*
X76528161Y-61784290D01*
X76528528Y-61783401D01*
X76469185Y-61749130D01*
X76430629Y-61682331D01*
X76426831Y-61624334D01*
X76430035Y-61600000D01*
X76427970Y-61584318D01*
X76424829Y-61560455D01*
X76411974Y-61462817D01*
X76390769Y-61411624D01*
X76359024Y-61334982D01*
X76311233Y-61272701D01*
X76274791Y-61225209D01*
X76274788Y-61225207D01*
X76274787Y-61225205D01*
X76165021Y-61140978D01*
X76165020Y-61140977D01*
X76165018Y-61140976D01*
X76037183Y-61088026D01*
X76037179Y-61088025D01*
X76037176Y-61088024D01*
X75900003Y-61069965D01*
X75899999Y-61069965D01*
X75762816Y-61088026D01*
X75762815Y-61088026D01*
X75634982Y-61140975D01*
X75525211Y-61225207D01*
X75525206Y-61225212D01*
X75518206Y-61234335D01*
X75457015Y-61281285D01*
X75380546Y-61291350D01*
X75309290Y-61261831D01*
X75281794Y-61234335D01*
X75274792Y-61225210D01*
X75274787Y-61225205D01*
X75165021Y-61140978D01*
X75165020Y-61140977D01*
X75165018Y-61140976D01*
X75037183Y-61088026D01*
X75037179Y-61088025D01*
X75037176Y-61088024D01*
X74900003Y-61069965D01*
X74899999Y-61069965D01*
X74762816Y-61088026D01*
X74762815Y-61088026D01*
X74634982Y-61140975D01*
X74525211Y-61225207D01*
X74525206Y-61225212D01*
X74518206Y-61234335D01*
X74457015Y-61281285D01*
X74380546Y-61291350D01*
X74309290Y-61261831D01*
X74281794Y-61234335D01*
X74274792Y-61225210D01*
X74274787Y-61225205D01*
X74165021Y-61140978D01*
X74165020Y-61140977D01*
X74165018Y-61140976D01*
X74037183Y-61088026D01*
X74037179Y-61088025D01*
X74037176Y-61088024D01*
X73900003Y-61069965D01*
X73899999Y-61069965D01*
X73762816Y-61088026D01*
X73762815Y-61088026D01*
X73634982Y-61140975D01*
X73525211Y-61225207D01*
X73525206Y-61225212D01*
X73488766Y-61272701D01*
X73427576Y-61319653D01*
X73351107Y-61329719D01*
X73313541Y-61319653D01*
X73237180Y-61288024D01*
X73100003Y-61269965D01*
X73099999Y-61269965D01*
X72962816Y-61288026D01*
X72962815Y-61288026D01*
X72834982Y-61340975D01*
X72790705Y-61374951D01*
X72719448Y-61404466D01*
X72642980Y-61394399D01*
X72609294Y-61374950D01*
X72565021Y-61340978D01*
X72565020Y-61340977D01*
X72565018Y-61340976D01*
X72437183Y-61288026D01*
X72437179Y-61288025D01*
X72437176Y-61288024D01*
X72300003Y-61269965D01*
X72299999Y-61269965D01*
X72162816Y-61288026D01*
X72162815Y-61288026D01*
X72025960Y-61344713D01*
X72024530Y-61341262D01*
X71968393Y-61356152D01*
X71893944Y-61336000D01*
X71878065Y-61325361D01*
X71874792Y-61322849D01*
X71874791Y-61322848D01*
X71765018Y-61238615D01*
X71637183Y-61185665D01*
X71637179Y-61185664D01*
X71637176Y-61185663D01*
X71500003Y-61167604D01*
X71499999Y-61167604D01*
X71362816Y-61185665D01*
X71362815Y-61185665D01*
X71234982Y-61238614D01*
X71125211Y-61322846D01*
X71125207Y-61322850D01*
X71040975Y-61432621D01*
X70988026Y-61560454D01*
X70988026Y-61560455D01*
X70969965Y-61697637D01*
X47073440Y-61697637D01*
X47028183Y-61632071D01*
X47028180Y-61632068D01*
X47028179Y-61632067D01*
X46900853Y-61519267D01*
X46900854Y-61519267D01*
X46750224Y-61440209D01*
X46585056Y-61399500D01*
X46414944Y-61399500D01*
X46249775Y-61440209D01*
X46099145Y-61519267D01*
X45971820Y-61632067D01*
X45971817Y-61632071D01*
X45875181Y-61772070D01*
X45814860Y-61931125D01*
X45794355Y-62100000D01*
X18193503Y-62100000D01*
X18185140Y-62031128D01*
X18169259Y-61989254D01*
X18124818Y-61872070D01*
X18119950Y-61865018D01*
X18028183Y-61732071D01*
X18028180Y-61732068D01*
X18028179Y-61732067D01*
X17900853Y-61619267D01*
X17900854Y-61619267D01*
X17750224Y-61540209D01*
X17585056Y-61499500D01*
X17414944Y-61499500D01*
X17249775Y-61540209D01*
X17099145Y-61619267D01*
X16971820Y-61732067D01*
X16971817Y-61732071D01*
X16875181Y-61872070D01*
X16814860Y-62031125D01*
X16794355Y-62200000D01*
X4502487Y-62200000D01*
X4496113Y-62191259D01*
X4480583Y-62174792D01*
X4305609Y-61989258D01*
X4305605Y-61989254D01*
X4305596Y-61989247D01*
X4125460Y-61840978D01*
X4091214Y-61812790D01*
X3856360Y-61664682D01*
X3779465Y-61628781D01*
X3775468Y-61626436D01*
X3751572Y-61615529D01*
X3730316Y-61605827D01*
X3729227Y-61605325D01*
X3684219Y-61584322D01*
X3679934Y-61582833D01*
X2396931Y-60997261D01*
X2389477Y-60993605D01*
X2081736Y-60831864D01*
X2069599Y-60824733D01*
X1780823Y-60636191D01*
X1769412Y-60627948D01*
X1499704Y-60412985D01*
X1489130Y-60403707D01*
X1240917Y-60164255D01*
X1231271Y-60154027D01*
X1195210Y-60111975D01*
X1184941Y-60100000D01*
X7994355Y-60100000D01*
X8014860Y-60268874D01*
X8075181Y-60427929D01*
X8075182Y-60427930D01*
X8171817Y-60567929D01*
X8171819Y-60567930D01*
X8171820Y-60567932D01*
X8299146Y-60680732D01*
X8299148Y-60680734D01*
X8449775Y-60759790D01*
X8614944Y-60800500D01*
X8785056Y-60800500D01*
X8950225Y-60759790D01*
X9100852Y-60680734D01*
X9228183Y-60567929D01*
X9324818Y-60427930D01*
X9385140Y-60268872D01*
X9405645Y-60100000D01*
X63494355Y-60100000D01*
X63514860Y-60268874D01*
X63575181Y-60427929D01*
X63575182Y-60427930D01*
X63671817Y-60567929D01*
X63671819Y-60567930D01*
X63671820Y-60567932D01*
X63799146Y-60680732D01*
X63799148Y-60680734D01*
X63949775Y-60759790D01*
X64114944Y-60800500D01*
X64285056Y-60800500D01*
X64450225Y-60759790D01*
X64600852Y-60680734D01*
X64728183Y-60567929D01*
X64824818Y-60427930D01*
X64885140Y-60268872D01*
X64905645Y-60100000D01*
X64885140Y-59931128D01*
X64833327Y-59794509D01*
X64830997Y-59771442D01*
X64804731Y-59742969D01*
X64728183Y-59632071D01*
X64728180Y-59632068D01*
X64728179Y-59632067D01*
X64600853Y-59519267D01*
X64600854Y-59519267D01*
X64450224Y-59440209D01*
X64285056Y-59399500D01*
X64114944Y-59399500D01*
X63949775Y-59440209D01*
X63799145Y-59519267D01*
X63671820Y-59632067D01*
X63671817Y-59632071D01*
X63575181Y-59772070D01*
X63514860Y-59931125D01*
X63494355Y-60100000D01*
X9405645Y-60100000D01*
X9385140Y-59931128D01*
X9324818Y-59772070D01*
X9228183Y-59632071D01*
X9228180Y-59632068D01*
X9228179Y-59632067D01*
X9100853Y-59519267D01*
X9100854Y-59519267D01*
X8950224Y-59440209D01*
X8785056Y-59399500D01*
X8614944Y-59399500D01*
X8449775Y-59440209D01*
X8299145Y-59519267D01*
X8171820Y-59632067D01*
X8171817Y-59632071D01*
X8075181Y-59772070D01*
X8014860Y-59931125D01*
X7994355Y-60100000D01*
X1184941Y-60100000D01*
X1006755Y-59892209D01*
X998117Y-59881115D01*
X819521Y-59627930D01*
X799323Y-59599296D01*
X791761Y-59587423D01*
X738003Y-59493496D01*
X627259Y-59300000D01*
X64994355Y-59300000D01*
X65014860Y-59468872D01*
X65014860Y-59468873D01*
X65014861Y-59468876D01*
X65066671Y-59605490D01*
X65069001Y-59628556D01*
X65095269Y-59657031D01*
X65171817Y-59767929D01*
X65171819Y-59767930D01*
X65171820Y-59767932D01*
X65299146Y-59880732D01*
X65299148Y-59880734D01*
X65449775Y-59959790D01*
X65614944Y-60000500D01*
X65785056Y-60000500D01*
X65950225Y-59959790D01*
X66100852Y-59880734D01*
X66228183Y-59767929D01*
X66324818Y-59627930D01*
X66335411Y-59599998D01*
X71569965Y-59599998D01*
X71569965Y-59600002D01*
X71588024Y-59737176D01*
X71588025Y-59737179D01*
X71588026Y-59737183D01*
X71640976Y-59865018D01*
X71640977Y-59865020D01*
X71640978Y-59865021D01*
X71691704Y-59931128D01*
X71725209Y-59974791D01*
X71834982Y-60059024D01*
X71962817Y-60111974D01*
X71962822Y-60111974D01*
X71962823Y-60111975D01*
X72099997Y-60130035D01*
X72100000Y-60130035D01*
X72100003Y-60130035D01*
X72237176Y-60111975D01*
X72237176Y-60111974D01*
X72237183Y-60111974D01*
X72365018Y-60059024D01*
X72474791Y-59974791D01*
X72559024Y-59865018D01*
X72611974Y-59737183D01*
X72611975Y-59737176D01*
X72630035Y-59600002D01*
X72630035Y-59599998D01*
X72969965Y-59599998D01*
X72969965Y-59600002D01*
X72988024Y-59737176D01*
X72988025Y-59737179D01*
X72988026Y-59737183D01*
X73040976Y-59865018D01*
X73040977Y-59865020D01*
X73040978Y-59865021D01*
X73091704Y-59931128D01*
X73125209Y-59974791D01*
X73234982Y-60059024D01*
X73362817Y-60111974D01*
X73362822Y-60111974D01*
X73362823Y-60111975D01*
X73499997Y-60130035D01*
X73500000Y-60130035D01*
X73500003Y-60130035D01*
X73637176Y-60111975D01*
X73637176Y-60111974D01*
X73637183Y-60111974D01*
X73765018Y-60059024D01*
X73874791Y-59974791D01*
X73959024Y-59865018D01*
X74011974Y-59737183D01*
X74011975Y-59737176D01*
X74030035Y-59600002D01*
X74030035Y-59599998D01*
X74369965Y-59599998D01*
X74369965Y-59600002D01*
X74388024Y-59737176D01*
X74388025Y-59737179D01*
X74388026Y-59737183D01*
X74440976Y-59865018D01*
X74440977Y-59865020D01*
X74440978Y-59865021D01*
X74491704Y-59931128D01*
X74525209Y-59974791D01*
X74634982Y-60059024D01*
X74762817Y-60111974D01*
X74762822Y-60111974D01*
X74762823Y-60111975D01*
X74899997Y-60130035D01*
X74900000Y-60130035D01*
X74900003Y-60130035D01*
X75037176Y-60111975D01*
X75037176Y-60111974D01*
X75037183Y-60111974D01*
X75165018Y-60059024D01*
X75274791Y-59974791D01*
X75359024Y-59865018D01*
X75411974Y-59737183D01*
X75411975Y-59737176D01*
X75430035Y-59600002D01*
X75430035Y-59599998D01*
X75419406Y-59519267D01*
X75411974Y-59462817D01*
X75359024Y-59334983D01*
X75359024Y-59334982D01*
X75322451Y-59287321D01*
X75274791Y-59225209D01*
X75274788Y-59225207D01*
X75274787Y-59225205D01*
X75165021Y-59140978D01*
X75165020Y-59140977D01*
X75165018Y-59140976D01*
X75037183Y-59088026D01*
X75037179Y-59088025D01*
X75037176Y-59088024D01*
X74900003Y-59069965D01*
X74899999Y-59069965D01*
X74762816Y-59088026D01*
X74762815Y-59088026D01*
X74634982Y-59140975D01*
X74525211Y-59225207D01*
X74525207Y-59225211D01*
X74440975Y-59334982D01*
X74388026Y-59462815D01*
X74388026Y-59462816D01*
X74369965Y-59599998D01*
X74030035Y-59599998D01*
X74019406Y-59519267D01*
X74011974Y-59462817D01*
X73959024Y-59334983D01*
X73959024Y-59334982D01*
X73922451Y-59287321D01*
X73874791Y-59225209D01*
X73874788Y-59225207D01*
X73874787Y-59225205D01*
X73765021Y-59140978D01*
X73765020Y-59140977D01*
X73765018Y-59140976D01*
X73637183Y-59088026D01*
X73637179Y-59088025D01*
X73637176Y-59088024D01*
X73500003Y-59069965D01*
X73499999Y-59069965D01*
X73362816Y-59088026D01*
X73362815Y-59088026D01*
X73234982Y-59140975D01*
X73125211Y-59225207D01*
X73125207Y-59225211D01*
X73040975Y-59334982D01*
X72988026Y-59462815D01*
X72988026Y-59462816D01*
X72969965Y-59599998D01*
X72630035Y-59599998D01*
X72619406Y-59519267D01*
X72611974Y-59462817D01*
X72559024Y-59334983D01*
X72559024Y-59334982D01*
X72522451Y-59287321D01*
X72474791Y-59225209D01*
X72474788Y-59225207D01*
X72474787Y-59225205D01*
X72365021Y-59140978D01*
X72365020Y-59140977D01*
X72365018Y-59140976D01*
X72237183Y-59088026D01*
X72237179Y-59088025D01*
X72237176Y-59088024D01*
X72100003Y-59069965D01*
X72099999Y-59069965D01*
X71962816Y-59088026D01*
X71962815Y-59088026D01*
X71834982Y-59140975D01*
X71725211Y-59225207D01*
X71725207Y-59225211D01*
X71640975Y-59334982D01*
X71588026Y-59462815D01*
X71588026Y-59462816D01*
X71569965Y-59599998D01*
X66335411Y-59599998D01*
X66385140Y-59468872D01*
X66405645Y-59300000D01*
X66385140Y-59131128D01*
X66363774Y-59074791D01*
X66324818Y-58972070D01*
X66317458Y-58961407D01*
X66228183Y-58832071D01*
X66228180Y-58832068D01*
X66228179Y-58832067D01*
X66100853Y-58719267D01*
X66100854Y-58719267D01*
X66064141Y-58699998D01*
X76069965Y-58699998D01*
X76069965Y-58700002D01*
X76088024Y-58837176D01*
X76088025Y-58837179D01*
X76088026Y-58837183D01*
X76140976Y-58965018D01*
X76140977Y-58965020D01*
X76140978Y-58965021D01*
X76221505Y-59069965D01*
X76225209Y-59074791D01*
X76334982Y-59159024D01*
X76462817Y-59211974D01*
X76462822Y-59211974D01*
X76462823Y-59211975D01*
X76599997Y-59230035D01*
X76600000Y-59230035D01*
X76600003Y-59230035D01*
X76737176Y-59211975D01*
X76737176Y-59211974D01*
X76737183Y-59211974D01*
X76865018Y-59159024D01*
X76974791Y-59074791D01*
X77059024Y-58965018D01*
X77111974Y-58837183D01*
X77122163Y-58759790D01*
X77130035Y-58700002D01*
X77130035Y-58699998D01*
X77122163Y-58640209D01*
X77111974Y-58562817D01*
X77075512Y-58474789D01*
X77059024Y-58434982D01*
X77005340Y-58365021D01*
X76974791Y-58325209D01*
X76974788Y-58325207D01*
X76974787Y-58325205D01*
X76865021Y-58240978D01*
X76865020Y-58240977D01*
X76865018Y-58240976D01*
X76737183Y-58188026D01*
X76737179Y-58188025D01*
X76737176Y-58188024D01*
X76600003Y-58169965D01*
X76599999Y-58169965D01*
X76462816Y-58188026D01*
X76462815Y-58188026D01*
X76334982Y-58240975D01*
X76225211Y-58325207D01*
X76225207Y-58325211D01*
X76140975Y-58434982D01*
X76088026Y-58562815D01*
X76088026Y-58562816D01*
X76069965Y-58699998D01*
X66064141Y-58699998D01*
X65950224Y-58640209D01*
X65785056Y-58599500D01*
X65614944Y-58599500D01*
X65449775Y-58640209D01*
X65299145Y-58719267D01*
X65171820Y-58832067D01*
X65171817Y-58832071D01*
X65075181Y-58972070D01*
X65014860Y-59131125D01*
X65003436Y-59225209D01*
X64994355Y-59300000D01*
X627259Y-59300000D01*
X620435Y-59288076D01*
X614049Y-59275586D01*
X471732Y-58961393D01*
X466552Y-58948350D01*
X354522Y-58622135D01*
X350590Y-58608639D01*
X340787Y-58567928D01*
X324431Y-58500000D01*
X43994355Y-58500000D01*
X44014860Y-58668874D01*
X44075181Y-58827929D01*
X44078040Y-58832071D01*
X44171817Y-58967929D01*
X44292437Y-59074789D01*
X44299146Y-59080732D01*
X44299148Y-59080734D01*
X44449775Y-59159790D01*
X44614944Y-59200500D01*
X44785056Y-59200500D01*
X44950225Y-59159790D01*
X45100852Y-59080734D01*
X45228183Y-58967929D01*
X45324818Y-58827930D01*
X45385140Y-58668872D01*
X45405645Y-58500000D01*
X45385140Y-58331128D01*
X45382894Y-58325207D01*
X45324818Y-58172070D01*
X45323365Y-58169965D01*
X45275070Y-58099998D01*
X77869965Y-58099998D01*
X77869965Y-58100002D01*
X77888024Y-58237176D01*
X77888025Y-58237179D01*
X77888026Y-58237183D01*
X77940976Y-58365018D01*
X77940977Y-58365020D01*
X77940978Y-58365021D01*
X78025207Y-58474789D01*
X78025210Y-58474792D01*
X78106519Y-58537183D01*
X78134982Y-58559024D01*
X78262817Y-58611974D01*
X78262822Y-58611974D01*
X78262823Y-58611975D01*
X78399997Y-58630035D01*
X78400000Y-58630035D01*
X78400003Y-58630035D01*
X78537176Y-58611975D01*
X78537176Y-58611974D01*
X78537183Y-58611974D01*
X78665018Y-58559024D01*
X78774791Y-58474791D01*
X78832183Y-58399998D01*
X86269965Y-58399998D01*
X86269965Y-58400002D01*
X86288024Y-58537176D01*
X86288025Y-58537179D01*
X86288026Y-58537183D01*
X86340976Y-58665018D01*
X86340977Y-58665020D01*
X86340978Y-58665021D01*
X86425207Y-58774789D01*
X86425210Y-58774792D01*
X86506519Y-58837183D01*
X86534982Y-58859024D01*
X86662817Y-58911974D01*
X86662822Y-58911974D01*
X86662823Y-58911975D01*
X86799997Y-58930035D01*
X86800000Y-58930035D01*
X86800003Y-58930035D01*
X86937176Y-58911975D01*
X86937176Y-58911974D01*
X86937183Y-58911974D01*
X87065018Y-58859024D01*
X87174791Y-58774791D01*
X87259024Y-58665018D01*
X87311974Y-58537183D01*
X87311975Y-58537176D01*
X87330035Y-58400002D01*
X87330035Y-58399998D01*
X87325429Y-58365018D01*
X87311974Y-58262817D01*
X87259024Y-58134983D01*
X87259024Y-58134982D01*
X87232181Y-58100000D01*
X90994355Y-58100000D01*
X91014860Y-58268874D01*
X91075181Y-58427929D01*
X91080050Y-58434983D01*
X91171817Y-58567929D01*
X91171819Y-58567930D01*
X91171820Y-58567932D01*
X91299146Y-58680732D01*
X91299148Y-58680734D01*
X91449775Y-58759790D01*
X91614944Y-58800500D01*
X91785056Y-58800500D01*
X91950225Y-58759790D01*
X92100852Y-58680734D01*
X92228183Y-58567929D01*
X92324818Y-58427930D01*
X92385140Y-58268872D01*
X92405645Y-58100000D01*
X92385140Y-57931128D01*
X92380641Y-57919266D01*
X92324818Y-57772070D01*
X92292472Y-57725209D01*
X92228183Y-57632071D01*
X92228180Y-57632068D01*
X92228179Y-57632067D01*
X92100853Y-57519267D01*
X92100854Y-57519267D01*
X91950224Y-57440209D01*
X91785056Y-57399500D01*
X91614944Y-57399500D01*
X91449775Y-57440209D01*
X91299145Y-57519267D01*
X91171820Y-57632067D01*
X91171817Y-57632071D01*
X91075181Y-57772070D01*
X91014860Y-57931125D01*
X90994355Y-58100000D01*
X87232181Y-58100000D01*
X87180056Y-58032071D01*
X87174791Y-58025209D01*
X87174788Y-58025207D01*
X87174787Y-58025205D01*
X87065021Y-57940978D01*
X87065020Y-57940977D01*
X87065018Y-57940976D01*
X86937183Y-57888026D01*
X86937179Y-57888025D01*
X86937176Y-57888024D01*
X86800003Y-57869965D01*
X86799999Y-57869965D01*
X86662816Y-57888026D01*
X86662815Y-57888026D01*
X86534982Y-57940975D01*
X86425211Y-58025207D01*
X86425207Y-58025211D01*
X86340975Y-58134982D01*
X86288026Y-58262815D01*
X86288026Y-58262816D01*
X86269965Y-58399998D01*
X78832183Y-58399998D01*
X78859024Y-58365018D01*
X78911974Y-58237183D01*
X78925429Y-58134983D01*
X78930035Y-58100002D01*
X78930035Y-58099998D01*
X78925832Y-58068078D01*
X78911974Y-57962817D01*
X78887646Y-57904083D01*
X78859024Y-57834982D01*
X78810749Y-57772070D01*
X78774791Y-57725209D01*
X78774788Y-57725207D01*
X78774787Y-57725205D01*
X78665021Y-57640978D01*
X78665020Y-57640977D01*
X78665018Y-57640976D01*
X78537183Y-57588026D01*
X78537179Y-57588025D01*
X78537176Y-57588024D01*
X78400003Y-57569965D01*
X78399999Y-57569965D01*
X78262816Y-57588026D01*
X78262815Y-57588026D01*
X78134982Y-57640975D01*
X78025211Y-57725207D01*
X78025207Y-57725211D01*
X77940975Y-57834982D01*
X77888026Y-57962815D01*
X77888026Y-57962816D01*
X77869965Y-58099998D01*
X45275070Y-58099998D01*
X45228183Y-58032071D01*
X45228180Y-58032068D01*
X45228179Y-58032067D01*
X45100853Y-57919267D01*
X45100854Y-57919267D01*
X44950224Y-57840209D01*
X44785056Y-57799500D01*
X44614944Y-57799500D01*
X44449775Y-57840209D01*
X44299145Y-57919267D01*
X44171820Y-58032067D01*
X44171817Y-58032071D01*
X44075181Y-58172070D01*
X44014860Y-58331125D01*
X43994355Y-58500000D01*
X324431Y-58500000D01*
X269848Y-58273319D01*
X267208Y-58259520D01*
X218474Y-57918091D01*
X217146Y-57904082D01*
X200671Y-57555810D01*
X200506Y-57548794D01*
X200506Y-55400000D01*
X40594355Y-55400000D01*
X40614860Y-55568874D01*
X40675181Y-55727929D01*
X40675182Y-55727930D01*
X40771817Y-55867929D01*
X40771819Y-55867930D01*
X40771820Y-55867932D01*
X40899146Y-55980732D01*
X40899148Y-55980734D01*
X41049775Y-56059790D01*
X41214944Y-56100500D01*
X41385056Y-56100500D01*
X41550225Y-56059790D01*
X41700852Y-55980734D01*
X41828183Y-55867929D01*
X41924818Y-55727930D01*
X41985140Y-55568872D01*
X42005645Y-55400000D01*
X41985140Y-55231128D01*
X41924818Y-55072070D01*
X41828183Y-54932071D01*
X41828180Y-54932068D01*
X41828179Y-54932067D01*
X41700853Y-54819267D01*
X41700854Y-54819267D01*
X41550224Y-54740209D01*
X41385056Y-54699500D01*
X41214944Y-54699500D01*
X41049775Y-54740209D01*
X40899145Y-54819267D01*
X40771820Y-54932067D01*
X40771817Y-54932071D01*
X40675181Y-55072070D01*
X40614860Y-55231125D01*
X40594355Y-55400000D01*
X200506Y-55400000D01*
X200506Y-54550000D01*
X63894355Y-54550000D01*
X63914860Y-54718874D01*
X63975181Y-54877929D01*
X63975182Y-54877930D01*
X64071817Y-55017929D01*
X64071819Y-55017930D01*
X64071820Y-55017932D01*
X64199146Y-55130732D01*
X64199148Y-55130734D01*
X64349775Y-55209790D01*
X64514944Y-55250500D01*
X64685056Y-55250500D01*
X64850225Y-55209790D01*
X65000852Y-55130734D01*
X65128183Y-55017929D01*
X65224818Y-54877930D01*
X65285140Y-54718872D01*
X65305645Y-54550000D01*
X65994355Y-54550000D01*
X66014860Y-54718874D01*
X66075181Y-54877929D01*
X66075182Y-54877930D01*
X66171817Y-55017929D01*
X66171819Y-55017930D01*
X66171820Y-55017932D01*
X66299146Y-55130732D01*
X66299148Y-55130734D01*
X66449775Y-55209790D01*
X66614944Y-55250500D01*
X66785056Y-55250500D01*
X66950225Y-55209790D01*
X67100852Y-55130734D01*
X67228183Y-55017929D01*
X67324818Y-54877930D01*
X67385140Y-54718872D01*
X67405645Y-54550000D01*
X67385140Y-54381128D01*
X67324818Y-54222070D01*
X67228183Y-54082071D01*
X67228180Y-54082068D01*
X67228179Y-54082067D01*
X67100853Y-53969267D01*
X67100854Y-53969267D01*
X66950224Y-53890209D01*
X66785056Y-53849500D01*
X66614944Y-53849500D01*
X66449775Y-53890209D01*
X66299145Y-53969267D01*
X66171820Y-54082067D01*
X66171817Y-54082071D01*
X66075181Y-54222070D01*
X66014860Y-54381125D01*
X65994355Y-54550000D01*
X65305645Y-54550000D01*
X65285140Y-54381128D01*
X65224818Y-54222070D01*
X65128183Y-54082071D01*
X65128180Y-54082068D01*
X65128179Y-54082067D01*
X65000853Y-53969267D01*
X65000854Y-53969267D01*
X64850224Y-53890209D01*
X64685056Y-53849500D01*
X64514944Y-53849500D01*
X64349775Y-53890209D01*
X64199145Y-53969267D01*
X64071820Y-54082067D01*
X64071817Y-54082071D01*
X63975181Y-54222070D01*
X63914860Y-54381125D01*
X63894355Y-54550000D01*
X200506Y-54550000D01*
X200506Y-53750000D01*
X42694355Y-53750000D01*
X42714860Y-53918874D01*
X42775181Y-54077929D01*
X42778040Y-54082071D01*
X42871817Y-54217929D01*
X42871819Y-54217930D01*
X42871820Y-54217932D01*
X42999146Y-54330732D01*
X42999148Y-54330734D01*
X43149775Y-54409790D01*
X43314944Y-54450500D01*
X43485056Y-54450500D01*
X43650225Y-54409790D01*
X43800852Y-54330734D01*
X43928183Y-54217929D01*
X44024818Y-54077930D01*
X44085140Y-53918872D01*
X44105645Y-53750000D01*
X44085140Y-53581128D01*
X44024818Y-53422070D01*
X43928183Y-53282071D01*
X43928180Y-53282068D01*
X43928179Y-53282067D01*
X43826318Y-53191827D01*
X43800853Y-53169267D01*
X43800854Y-53169267D01*
X43650224Y-53090209D01*
X43485056Y-53049500D01*
X43314944Y-53049500D01*
X43149775Y-53090209D01*
X42999145Y-53169267D01*
X42871820Y-53282067D01*
X42871817Y-53282071D01*
X42775181Y-53422070D01*
X42714860Y-53581125D01*
X42694355Y-53750000D01*
X200506Y-53750000D01*
X200506Y-52050000D01*
X7144706Y-52050000D01*
X7163854Y-52293304D01*
X7163855Y-52293309D01*
X7220828Y-52530614D01*
X7314221Y-52756086D01*
X7314224Y-52756091D01*
X7441736Y-52964172D01*
X7441738Y-52964174D01*
X7441741Y-52964179D01*
X7600241Y-53149759D01*
X7785821Y-53308259D01*
X7785825Y-53308261D01*
X7785827Y-53308263D01*
X7993908Y-53435775D01*
X7993913Y-53435778D01*
X8219385Y-53529171D01*
X8219386Y-53529171D01*
X8219388Y-53529172D01*
X8456698Y-53586146D01*
X8700000Y-53605294D01*
X8943302Y-53586146D01*
X9180612Y-53529172D01*
X9406089Y-53435777D01*
X9614179Y-53308259D01*
X9799759Y-53149759D01*
X9958259Y-52964179D01*
X10085777Y-52756089D01*
X10179172Y-52530612D01*
X10236146Y-52293302D01*
X10255294Y-52050000D01*
X10236146Y-51806698D01*
X10179172Y-51569388D01*
X10171141Y-51550000D01*
X10085778Y-51343913D01*
X10085775Y-51343908D01*
X9958263Y-51135827D01*
X9958261Y-51135825D01*
X9958259Y-51135821D01*
X9842257Y-51000000D01*
X14144706Y-51000000D01*
X14163854Y-51243304D01*
X14163855Y-51243309D01*
X14220828Y-51480614D01*
X14314221Y-51706086D01*
X14314224Y-51706091D01*
X14441736Y-51914172D01*
X14441738Y-51914174D01*
X14441741Y-51914179D01*
X14600241Y-52099759D01*
X14785821Y-52258259D01*
X14785825Y-52258261D01*
X14785827Y-52258263D01*
X14993908Y-52385775D01*
X14993913Y-52385778D01*
X15219385Y-52479171D01*
X15219386Y-52479171D01*
X15219388Y-52479172D01*
X15456698Y-52536146D01*
X15700000Y-52555294D01*
X15943302Y-52536146D01*
X16180612Y-52479172D01*
X16406089Y-52385777D01*
X16614179Y-52258259D01*
X16799759Y-52099759D01*
X16842257Y-52050000D01*
X26144706Y-52050000D01*
X26163854Y-52293304D01*
X26163855Y-52293309D01*
X26220828Y-52530614D01*
X26314221Y-52756086D01*
X26314224Y-52756091D01*
X26441736Y-52964172D01*
X26441738Y-52964174D01*
X26441741Y-52964179D01*
X26600241Y-53149759D01*
X26785821Y-53308259D01*
X26785825Y-53308261D01*
X26785827Y-53308263D01*
X26993908Y-53435775D01*
X26993913Y-53435778D01*
X27219385Y-53529171D01*
X27219386Y-53529171D01*
X27219388Y-53529172D01*
X27456698Y-53586146D01*
X27700000Y-53605294D01*
X27943302Y-53586146D01*
X28180612Y-53529172D01*
X28406089Y-53435777D01*
X28614179Y-53308259D01*
X28799759Y-53149759D01*
X28958259Y-52964179D01*
X29085777Y-52756089D01*
X29179172Y-52530612D01*
X29236146Y-52293302D01*
X29255294Y-52050000D01*
X29236146Y-51806698D01*
X29179172Y-51569388D01*
X29171141Y-51550000D01*
X29085778Y-51343913D01*
X29085775Y-51343908D01*
X28958263Y-51135827D01*
X28958261Y-51135825D01*
X28958259Y-51135821D01*
X28842257Y-51000000D01*
X33144706Y-51000000D01*
X33163854Y-51243304D01*
X33163855Y-51243309D01*
X33220828Y-51480614D01*
X33314221Y-51706086D01*
X33314224Y-51706091D01*
X33441736Y-51914172D01*
X33441738Y-51914174D01*
X33441741Y-51914179D01*
X33600241Y-52099759D01*
X33785821Y-52258259D01*
X33785825Y-52258261D01*
X33785827Y-52258263D01*
X33993908Y-52385775D01*
X33993913Y-52385778D01*
X34219385Y-52479171D01*
X34219386Y-52479171D01*
X34219388Y-52479172D01*
X34456698Y-52536146D01*
X34700000Y-52555294D01*
X34943302Y-52536146D01*
X35180612Y-52479172D01*
X35406089Y-52385777D01*
X35614179Y-52258259D01*
X35799759Y-52099759D01*
X35842257Y-52050000D01*
X45144706Y-52050000D01*
X45163854Y-52293304D01*
X45163855Y-52293309D01*
X45220828Y-52530614D01*
X45314221Y-52756086D01*
X45314224Y-52756091D01*
X45441736Y-52964172D01*
X45441738Y-52964174D01*
X45441741Y-52964179D01*
X45600241Y-53149759D01*
X45785821Y-53308259D01*
X45785825Y-53308261D01*
X45785827Y-53308263D01*
X45993908Y-53435775D01*
X45993913Y-53435778D01*
X46219385Y-53529171D01*
X46219386Y-53529171D01*
X46219388Y-53529172D01*
X46456698Y-53586146D01*
X46700000Y-53605294D01*
X46943302Y-53586146D01*
X47180612Y-53529172D01*
X47406089Y-53435777D01*
X47614179Y-53308259D01*
X47799759Y-53149759D01*
X47958259Y-52964179D01*
X48085777Y-52756089D01*
X48179172Y-52530612D01*
X48236146Y-52293302D01*
X48255294Y-52050000D01*
X48236146Y-51806698D01*
X48179172Y-51569388D01*
X48171141Y-51550000D01*
X48085778Y-51343913D01*
X48085775Y-51343908D01*
X47958263Y-51135827D01*
X47958261Y-51135825D01*
X47958259Y-51135821D01*
X47842257Y-51000000D01*
X52144706Y-51000000D01*
X52163854Y-51243304D01*
X52163855Y-51243309D01*
X52220828Y-51480614D01*
X52314221Y-51706086D01*
X52314224Y-51706091D01*
X52441736Y-51914172D01*
X52441738Y-51914174D01*
X52441741Y-51914179D01*
X52600241Y-52099759D01*
X52785821Y-52258259D01*
X52785825Y-52258261D01*
X52785827Y-52258263D01*
X52993908Y-52385775D01*
X52993913Y-52385778D01*
X53219385Y-52479171D01*
X53219386Y-52479171D01*
X53219388Y-52479172D01*
X53456698Y-52536146D01*
X53700000Y-52555294D01*
X53943302Y-52536146D01*
X54180612Y-52479172D01*
X54406089Y-52385777D01*
X54614179Y-52258259D01*
X54799759Y-52099759D01*
X54842257Y-52050000D01*
X64144706Y-52050000D01*
X64163854Y-52293304D01*
X64163855Y-52293309D01*
X64220828Y-52530614D01*
X64314221Y-52756086D01*
X64314224Y-52756091D01*
X64441736Y-52964172D01*
X64441738Y-52964174D01*
X64441741Y-52964179D01*
X64600241Y-53149759D01*
X64785821Y-53308259D01*
X64785825Y-53308261D01*
X64785827Y-53308263D01*
X64993908Y-53435775D01*
X64993913Y-53435778D01*
X65219385Y-53529171D01*
X65219386Y-53529171D01*
X65219388Y-53529172D01*
X65456698Y-53586146D01*
X65700000Y-53605294D01*
X65943302Y-53586146D01*
X66180612Y-53529172D01*
X66406089Y-53435777D01*
X66546067Y-53349998D01*
X74469965Y-53349998D01*
X74469965Y-53350002D01*
X74488024Y-53487176D01*
X74488025Y-53487179D01*
X74488026Y-53487183D01*
X74540976Y-53615018D01*
X74540977Y-53615020D01*
X74540978Y-53615021D01*
X74625207Y-53724789D01*
X74625210Y-53724792D01*
X74734978Y-53809021D01*
X74734982Y-53809024D01*
X74862817Y-53861974D01*
X74862822Y-53861974D01*
X74862823Y-53861975D01*
X74999997Y-53880035D01*
X75000000Y-53880035D01*
X75000003Y-53880035D01*
X75137176Y-53861975D01*
X75137176Y-53861974D01*
X75137183Y-53861974D01*
X75265018Y-53809024D01*
X75374791Y-53724791D01*
X75459024Y-53615018D01*
X75511974Y-53487183D01*
X75518922Y-53434411D01*
X75548437Y-53363153D01*
X75609626Y-53316200D01*
X75686094Y-53306133D01*
X75705222Y-53309938D01*
X75712811Y-53311971D01*
X75712817Y-53311974D01*
X75712823Y-53311974D01*
X75712824Y-53311975D01*
X75849997Y-53330035D01*
X75850000Y-53330035D01*
X75850003Y-53330035D01*
X75987176Y-53311975D01*
X75987176Y-53311974D01*
X75987183Y-53311974D01*
X76115018Y-53259024D01*
X76224791Y-53174791D01*
X76309024Y-53065018D01*
X76361974Y-52937183D01*
X76361975Y-52937176D01*
X76380035Y-52800002D01*
X76380035Y-52799998D01*
X76368922Y-52715591D01*
X76361974Y-52662817D01*
X76309506Y-52536146D01*
X76309024Y-52534982D01*
X76266198Y-52479171D01*
X76224791Y-52425209D01*
X76224788Y-52425207D01*
X76224787Y-52425205D01*
X76115018Y-52340975D01*
X76021651Y-52302302D01*
X75960461Y-52255350D01*
X75930945Y-52184093D01*
X75941012Y-52107625D01*
X75985229Y-52050000D01*
X83144706Y-52050000D01*
X83163854Y-52293304D01*
X83163855Y-52293309D01*
X83220828Y-52530614D01*
X83314221Y-52756086D01*
X83314224Y-52756091D01*
X83441736Y-52964172D01*
X83441738Y-52964174D01*
X83441741Y-52964179D01*
X83600241Y-53149759D01*
X83785821Y-53308259D01*
X83785825Y-53308261D01*
X83785827Y-53308263D01*
X83993908Y-53435775D01*
X83993913Y-53435778D01*
X84219385Y-53529171D01*
X84219386Y-53529171D01*
X84219388Y-53529172D01*
X84456698Y-53586146D01*
X84700000Y-53605294D01*
X84943302Y-53586146D01*
X85180612Y-53529172D01*
X85406089Y-53435777D01*
X85614179Y-53308259D01*
X85799759Y-53149759D01*
X85958259Y-52964179D01*
X86085777Y-52756089D01*
X86179172Y-52530612D01*
X86236146Y-52293302D01*
X86255294Y-52050000D01*
X86236146Y-51806698D01*
X86179172Y-51569388D01*
X86171141Y-51550000D01*
X86085778Y-51343913D01*
X86085775Y-51343908D01*
X85958263Y-51135827D01*
X85958261Y-51135825D01*
X85958259Y-51135821D01*
X85842257Y-51000000D01*
X90144706Y-51000000D01*
X90163854Y-51243304D01*
X90163855Y-51243309D01*
X90220828Y-51480614D01*
X90314221Y-51706086D01*
X90314224Y-51706091D01*
X90441736Y-51914172D01*
X90441738Y-51914174D01*
X90441741Y-51914179D01*
X90600241Y-52099759D01*
X90785821Y-52258259D01*
X90785825Y-52258261D01*
X90785827Y-52258263D01*
X90993908Y-52385775D01*
X90993913Y-52385778D01*
X91219385Y-52479171D01*
X91219386Y-52479171D01*
X91219388Y-52479172D01*
X91456698Y-52536146D01*
X91700000Y-52555294D01*
X91943302Y-52536146D01*
X92180612Y-52479172D01*
X92406089Y-52385777D01*
X92614179Y-52258259D01*
X92799759Y-52099759D01*
X92958259Y-51914179D01*
X93085777Y-51706089D01*
X93179172Y-51480612D01*
X93236146Y-51243302D01*
X93255294Y-51000000D01*
X93236146Y-50756698D01*
X93179172Y-50519388D01*
X93168948Y-50494706D01*
X93085778Y-50293913D01*
X93085775Y-50293908D01*
X92958263Y-50085827D01*
X92958261Y-50085825D01*
X92958259Y-50085821D01*
X92799759Y-49900241D01*
X92614179Y-49741741D01*
X92614174Y-49741738D01*
X92614172Y-49741736D01*
X92406091Y-49614224D01*
X92406086Y-49614221D01*
X92180614Y-49520828D01*
X91943309Y-49463855D01*
X91943304Y-49463854D01*
X91700000Y-49444706D01*
X91456695Y-49463854D01*
X91456690Y-49463855D01*
X91219385Y-49520828D01*
X90993913Y-49614221D01*
X90993908Y-49614224D01*
X90785827Y-49741736D01*
X90600241Y-49900241D01*
X90441736Y-50085827D01*
X90314224Y-50293908D01*
X90314221Y-50293913D01*
X90220828Y-50519385D01*
X90163855Y-50756690D01*
X90163854Y-50756695D01*
X90144706Y-51000000D01*
X85842257Y-51000000D01*
X85799759Y-50950241D01*
X85614179Y-50791741D01*
X85614174Y-50791738D01*
X85614172Y-50791736D01*
X85406091Y-50664224D01*
X85406086Y-50664221D01*
X85180614Y-50570828D01*
X84943309Y-50513855D01*
X84943304Y-50513854D01*
X84700000Y-50494706D01*
X84456695Y-50513854D01*
X84456690Y-50513855D01*
X84219385Y-50570828D01*
X83993913Y-50664221D01*
X83993908Y-50664224D01*
X83785827Y-50791736D01*
X83785821Y-50791740D01*
X83785821Y-50791741D01*
X83600241Y-50950241D01*
X83480041Y-51090978D01*
X83441736Y-51135827D01*
X83314224Y-51343908D01*
X83314221Y-51343913D01*
X83220828Y-51569385D01*
X83163855Y-51806690D01*
X83163854Y-51806695D01*
X83144706Y-52050000D01*
X75985229Y-52050000D01*
X75987964Y-52046435D01*
X76021644Y-52026989D01*
X76065018Y-52009024D01*
X76174791Y-51924791D01*
X76259024Y-51815018D01*
X76311974Y-51687183D01*
X76311975Y-51687176D01*
X76330035Y-51550002D01*
X76330035Y-51549998D01*
X76320900Y-51480614D01*
X76311974Y-51412817D01*
X76259024Y-51284983D01*
X76259024Y-51284982D01*
X76222451Y-51237321D01*
X76174791Y-51175209D01*
X76174788Y-51175207D01*
X76174787Y-51175205D01*
X76065021Y-51090978D01*
X76065020Y-51090977D01*
X76065018Y-51090976D01*
X75937183Y-51038026D01*
X75937179Y-51038025D01*
X75937176Y-51038024D01*
X75800003Y-51019965D01*
X75799999Y-51019965D01*
X75662816Y-51038026D01*
X75662815Y-51038026D01*
X75534982Y-51090975D01*
X75425211Y-51175207D01*
X75425207Y-51175211D01*
X75340975Y-51284982D01*
X75288026Y-51412815D01*
X75288026Y-51412816D01*
X75269965Y-51549998D01*
X75269965Y-51550002D01*
X75288024Y-51687176D01*
X75288025Y-51687179D01*
X75288026Y-51687183D01*
X75340976Y-51815018D01*
X75340977Y-51815020D01*
X75340978Y-51815021D01*
X75425207Y-51924789D01*
X75425210Y-51924792D01*
X75534981Y-52009024D01*
X75628348Y-52047697D01*
X75689538Y-52094649D01*
X75719054Y-52165905D01*
X75708987Y-52242374D01*
X75662035Y-52303564D01*
X75628349Y-52323013D01*
X75584981Y-52340976D01*
X75475211Y-52425207D01*
X75475207Y-52425211D01*
X75390975Y-52534982D01*
X75338026Y-52662815D01*
X75331078Y-52715591D01*
X75301562Y-52786848D01*
X75240371Y-52833800D01*
X75163903Y-52843866D01*
X75144786Y-52840063D01*
X75137180Y-52838024D01*
X75000003Y-52819965D01*
X74999999Y-52819965D01*
X74862816Y-52838026D01*
X74862815Y-52838026D01*
X74734982Y-52890975D01*
X74625211Y-52975207D01*
X74625207Y-52975211D01*
X74540975Y-53084982D01*
X74488026Y-53212815D01*
X74488026Y-53212816D01*
X74469965Y-53349998D01*
X66546067Y-53349998D01*
X66614179Y-53308259D01*
X66799759Y-53149759D01*
X66958259Y-52964179D01*
X67085777Y-52756089D01*
X67179172Y-52530612D01*
X67236146Y-52293302D01*
X67255294Y-52050000D01*
X67236146Y-51806698D01*
X67179172Y-51569388D01*
X67171141Y-51550000D01*
X67085778Y-51343913D01*
X67085775Y-51343908D01*
X66958263Y-51135827D01*
X66958261Y-51135825D01*
X66958259Y-51135821D01*
X66842257Y-51000000D01*
X71144706Y-51000000D01*
X71163854Y-51243304D01*
X71163855Y-51243309D01*
X71220828Y-51480614D01*
X71314221Y-51706086D01*
X71314224Y-51706091D01*
X71441736Y-51914172D01*
X71441738Y-51914174D01*
X71441741Y-51914179D01*
X71600241Y-52099759D01*
X71785821Y-52258259D01*
X71785825Y-52258261D01*
X71785827Y-52258263D01*
X71993908Y-52385775D01*
X71993913Y-52385778D01*
X72219385Y-52479171D01*
X72219386Y-52479171D01*
X72219388Y-52479172D01*
X72456698Y-52536146D01*
X72700000Y-52555294D01*
X72943302Y-52536146D01*
X73180612Y-52479172D01*
X73406089Y-52385777D01*
X73614179Y-52258259D01*
X73799759Y-52099759D01*
X73958259Y-51914179D01*
X74085777Y-51706089D01*
X74179172Y-51480612D01*
X74236146Y-51243302D01*
X74255294Y-51000000D01*
X74236146Y-50756698D01*
X74179172Y-50519388D01*
X74168948Y-50494706D01*
X74085778Y-50293913D01*
X74085775Y-50293908D01*
X73958263Y-50085827D01*
X73958261Y-50085825D01*
X73958259Y-50085821D01*
X73799759Y-49900241D01*
X73614179Y-49741741D01*
X73614174Y-49741738D01*
X73614172Y-49741736D01*
X73406091Y-49614224D01*
X73406086Y-49614221D01*
X73180614Y-49520828D01*
X72943309Y-49463855D01*
X72943304Y-49463854D01*
X72700000Y-49444706D01*
X72456695Y-49463854D01*
X72456690Y-49463855D01*
X72219385Y-49520828D01*
X71993913Y-49614221D01*
X71993908Y-49614224D01*
X71785827Y-49741736D01*
X71600241Y-49900241D01*
X71441736Y-50085827D01*
X71314224Y-50293908D01*
X71314221Y-50293913D01*
X71220828Y-50519385D01*
X71163855Y-50756690D01*
X71163854Y-50756695D01*
X71144706Y-51000000D01*
X66842257Y-51000000D01*
X66799759Y-50950241D01*
X66614179Y-50791741D01*
X66614174Y-50791738D01*
X66614172Y-50791736D01*
X66406091Y-50664224D01*
X66406086Y-50664221D01*
X66180614Y-50570828D01*
X65943309Y-50513855D01*
X65943304Y-50513854D01*
X65700000Y-50494706D01*
X65456695Y-50513854D01*
X65456690Y-50513855D01*
X65219385Y-50570828D01*
X64993913Y-50664221D01*
X64993908Y-50664224D01*
X64785827Y-50791736D01*
X64785821Y-50791740D01*
X64785821Y-50791741D01*
X64600241Y-50950241D01*
X64480041Y-51090978D01*
X64441736Y-51135827D01*
X64314224Y-51343908D01*
X64314221Y-51343913D01*
X64220828Y-51569385D01*
X64163855Y-51806690D01*
X64163854Y-51806695D01*
X64144706Y-52050000D01*
X54842257Y-52050000D01*
X54958259Y-51914179D01*
X55085777Y-51706089D01*
X55179172Y-51480612D01*
X55236146Y-51243302D01*
X55255294Y-51000000D01*
X55236146Y-50756698D01*
X55179172Y-50519388D01*
X55168948Y-50494706D01*
X55085778Y-50293913D01*
X55085775Y-50293908D01*
X54958263Y-50085827D01*
X54958261Y-50085825D01*
X54958259Y-50085821D01*
X54799759Y-49900241D01*
X54614179Y-49741741D01*
X54614174Y-49741738D01*
X54614172Y-49741736D01*
X54406091Y-49614224D01*
X54406086Y-49614221D01*
X54180614Y-49520828D01*
X53943309Y-49463855D01*
X53943304Y-49463854D01*
X53700000Y-49444706D01*
X53456695Y-49463854D01*
X53456690Y-49463855D01*
X53219385Y-49520828D01*
X52993913Y-49614221D01*
X52993908Y-49614224D01*
X52785827Y-49741736D01*
X52600241Y-49900241D01*
X52441736Y-50085827D01*
X52314224Y-50293908D01*
X52314221Y-50293913D01*
X52220828Y-50519385D01*
X52163855Y-50756690D01*
X52163854Y-50756695D01*
X52144706Y-51000000D01*
X47842257Y-51000000D01*
X47799759Y-50950241D01*
X47614179Y-50791741D01*
X47614174Y-50791738D01*
X47614172Y-50791736D01*
X47406091Y-50664224D01*
X47406086Y-50664221D01*
X47180614Y-50570828D01*
X46943309Y-50513855D01*
X46943304Y-50513854D01*
X46700000Y-50494706D01*
X46456695Y-50513854D01*
X46456690Y-50513855D01*
X46219385Y-50570828D01*
X45993913Y-50664221D01*
X45993908Y-50664224D01*
X45785827Y-50791736D01*
X45785821Y-50791740D01*
X45785821Y-50791741D01*
X45600241Y-50950241D01*
X45480041Y-51090978D01*
X45441736Y-51135827D01*
X45314224Y-51343908D01*
X45314221Y-51343913D01*
X45220828Y-51569385D01*
X45163855Y-51806690D01*
X45163854Y-51806695D01*
X45144706Y-52050000D01*
X35842257Y-52050000D01*
X35958259Y-51914179D01*
X36085777Y-51706089D01*
X36179172Y-51480612D01*
X36236146Y-51243302D01*
X36255294Y-51000000D01*
X36236146Y-50756698D01*
X36179172Y-50519388D01*
X36168948Y-50494706D01*
X36085778Y-50293913D01*
X36085775Y-50293908D01*
X35958263Y-50085827D01*
X35958261Y-50085825D01*
X35958259Y-50085821D01*
X35799759Y-49900241D01*
X35614179Y-49741741D01*
X35614174Y-49741738D01*
X35614172Y-49741736D01*
X35406091Y-49614224D01*
X35406086Y-49614221D01*
X35180614Y-49520828D01*
X34943309Y-49463855D01*
X34943304Y-49463854D01*
X34700000Y-49444706D01*
X34456695Y-49463854D01*
X34456690Y-49463855D01*
X34219385Y-49520828D01*
X33993913Y-49614221D01*
X33993908Y-49614224D01*
X33785827Y-49741736D01*
X33600241Y-49900241D01*
X33441736Y-50085827D01*
X33314224Y-50293908D01*
X33314221Y-50293913D01*
X33220828Y-50519385D01*
X33163855Y-50756690D01*
X33163854Y-50756695D01*
X33144706Y-51000000D01*
X28842257Y-51000000D01*
X28799759Y-50950241D01*
X28614179Y-50791741D01*
X28614174Y-50791738D01*
X28614172Y-50791736D01*
X28406091Y-50664224D01*
X28406086Y-50664221D01*
X28180614Y-50570828D01*
X27943309Y-50513855D01*
X27943304Y-50513854D01*
X27700000Y-50494706D01*
X27456695Y-50513854D01*
X27456690Y-50513855D01*
X27219385Y-50570828D01*
X26993913Y-50664221D01*
X26993908Y-50664224D01*
X26785827Y-50791736D01*
X26785821Y-50791740D01*
X26785821Y-50791741D01*
X26600241Y-50950241D01*
X26480041Y-51090978D01*
X26441736Y-51135827D01*
X26314224Y-51343908D01*
X26314221Y-51343913D01*
X26220828Y-51569385D01*
X26163855Y-51806690D01*
X26163854Y-51806695D01*
X26144706Y-52050000D01*
X16842257Y-52050000D01*
X16958259Y-51914179D01*
X17085777Y-51706089D01*
X17179172Y-51480612D01*
X17236146Y-51243302D01*
X17255294Y-51000000D01*
X17236146Y-50756698D01*
X17179172Y-50519388D01*
X17168948Y-50494706D01*
X17085778Y-50293913D01*
X17085775Y-50293908D01*
X16958263Y-50085827D01*
X16958261Y-50085825D01*
X16958259Y-50085821D01*
X16799759Y-49900241D01*
X16614179Y-49741741D01*
X16614174Y-49741738D01*
X16614172Y-49741736D01*
X16406091Y-49614224D01*
X16406086Y-49614221D01*
X16180614Y-49520828D01*
X15943309Y-49463855D01*
X15943304Y-49463854D01*
X15700000Y-49444706D01*
X15456695Y-49463854D01*
X15456690Y-49463855D01*
X15219385Y-49520828D01*
X14993913Y-49614221D01*
X14993908Y-49614224D01*
X14785827Y-49741736D01*
X14600241Y-49900241D01*
X14441736Y-50085827D01*
X14314224Y-50293908D01*
X14314221Y-50293913D01*
X14220828Y-50519385D01*
X14163855Y-50756690D01*
X14163854Y-50756695D01*
X14144706Y-51000000D01*
X9842257Y-51000000D01*
X9799759Y-50950241D01*
X9614179Y-50791741D01*
X9614174Y-50791738D01*
X9614172Y-50791736D01*
X9406091Y-50664224D01*
X9406086Y-50664221D01*
X9180614Y-50570828D01*
X8943309Y-50513855D01*
X8943304Y-50513854D01*
X8700000Y-50494706D01*
X8456695Y-50513854D01*
X8456690Y-50513855D01*
X8219385Y-50570828D01*
X7993913Y-50664221D01*
X7993908Y-50664224D01*
X7785827Y-50791736D01*
X7785821Y-50791740D01*
X7785821Y-50791741D01*
X7600241Y-50950241D01*
X7480041Y-51090978D01*
X7441736Y-51135827D01*
X7314224Y-51343908D01*
X7314221Y-51343913D01*
X7220828Y-51569385D01*
X7163855Y-51806690D01*
X7163854Y-51806695D01*
X7144706Y-52050000D01*
X200506Y-52050000D01*
X200506Y-49400000D01*
X44794355Y-49400000D01*
X44814860Y-49568874D01*
X44875181Y-49727929D01*
X44884715Y-49741741D01*
X44971817Y-49867929D01*
X44971819Y-49867930D01*
X44971820Y-49867932D01*
X45099146Y-49980732D01*
X45099148Y-49980734D01*
X45249775Y-50059790D01*
X45414944Y-50100500D01*
X45585056Y-50100500D01*
X45750225Y-50059790D01*
X45900852Y-49980734D01*
X46028183Y-49867929D01*
X46124818Y-49727930D01*
X46185140Y-49568872D01*
X46205645Y-49400000D01*
X46185140Y-49231128D01*
X46150329Y-49139339D01*
X46124818Y-49072070D01*
X46121644Y-49067472D01*
X46028183Y-48932071D01*
X46028180Y-48932068D01*
X46028179Y-48932067D01*
X45900853Y-48819267D01*
X45900854Y-48819267D01*
X45750224Y-48740209D01*
X45585056Y-48699500D01*
X45414944Y-48699500D01*
X45249775Y-48740209D01*
X45099145Y-48819267D01*
X44971820Y-48932067D01*
X44971817Y-48932071D01*
X44875181Y-49072070D01*
X44814860Y-49231125D01*
X44794355Y-49400000D01*
X200506Y-49400000D01*
X200506Y-46138516D01*
X8424500Y-46138516D01*
X8424500Y-46461483D01*
X8460661Y-46782428D01*
X8532526Y-47097289D01*
X8532527Y-47097291D01*
X8532528Y-47097295D01*
X8639198Y-47402140D01*
X8779329Y-47693125D01*
X8951159Y-47966591D01*
X9152527Y-48219099D01*
X9380901Y-48447473D01*
X9633409Y-48648841D01*
X9906875Y-48820671D01*
X10197860Y-48960802D01*
X10502705Y-49067472D01*
X10589776Y-49087345D01*
X10817571Y-49139338D01*
X10817574Y-49139338D01*
X10817577Y-49139339D01*
X11138515Y-49175500D01*
X11138516Y-49175500D01*
X11461484Y-49175500D01*
X11461485Y-49175500D01*
X11782423Y-49139339D01*
X11782426Y-49139338D01*
X11782428Y-49139338D01*
X11869494Y-49119465D01*
X12097295Y-49067472D01*
X12402140Y-48960802D01*
X12693125Y-48820671D01*
X12966591Y-48648841D01*
X13219099Y-48447473D01*
X13447473Y-48219099D01*
X13648841Y-47966591D01*
X13820671Y-47693125D01*
X13960802Y-47402140D01*
X14067472Y-47097295D01*
X14139339Y-46782423D01*
X14175500Y-46461485D01*
X14175500Y-46138516D01*
X27424500Y-46138516D01*
X27424500Y-46461483D01*
X27460661Y-46782428D01*
X27532526Y-47097289D01*
X27532527Y-47097291D01*
X27532528Y-47097295D01*
X27639198Y-47402140D01*
X27779329Y-47693125D01*
X27951159Y-47966591D01*
X28152527Y-48219099D01*
X28380901Y-48447473D01*
X28633409Y-48648841D01*
X28906875Y-48820671D01*
X29197860Y-48960802D01*
X29502705Y-49067472D01*
X29589776Y-49087345D01*
X29817571Y-49139338D01*
X29817574Y-49139338D01*
X29817577Y-49139339D01*
X30138515Y-49175500D01*
X30138516Y-49175500D01*
X30461484Y-49175500D01*
X30461485Y-49175500D01*
X30782423Y-49139339D01*
X30782426Y-49139338D01*
X30782428Y-49139338D01*
X30869494Y-49119465D01*
X31097295Y-49067472D01*
X31402140Y-48960802D01*
X31693125Y-48820671D01*
X31966591Y-48648841D01*
X32219099Y-48447473D01*
X32447473Y-48219099D01*
X32648841Y-47966591D01*
X32820671Y-47693125D01*
X32960802Y-47402140D01*
X33067472Y-47097295D01*
X33139339Y-46782423D01*
X33175500Y-46461485D01*
X33175500Y-46138516D01*
X46424500Y-46138516D01*
X46424500Y-46461483D01*
X46460661Y-46782428D01*
X46532526Y-47097289D01*
X46532527Y-47097291D01*
X46532528Y-47097295D01*
X46639198Y-47402140D01*
X46779329Y-47693125D01*
X46951159Y-47966591D01*
X47152527Y-48219099D01*
X47380901Y-48447473D01*
X47633409Y-48648841D01*
X47906875Y-48820671D01*
X48197860Y-48960802D01*
X48502705Y-49067472D01*
X48589776Y-49087345D01*
X48817571Y-49139338D01*
X48817574Y-49139338D01*
X48817577Y-49139339D01*
X49138515Y-49175500D01*
X49138516Y-49175500D01*
X49461484Y-49175500D01*
X49461485Y-49175500D01*
X49782423Y-49139339D01*
X49782426Y-49139338D01*
X49782428Y-49139338D01*
X49869494Y-49119465D01*
X50097295Y-49067472D01*
X50402140Y-48960802D01*
X50693125Y-48820671D01*
X50966591Y-48648841D01*
X51219099Y-48447473D01*
X51447473Y-48219099D01*
X51648841Y-47966591D01*
X51820671Y-47693125D01*
X51960802Y-47402140D01*
X52067472Y-47097295D01*
X52139339Y-46782423D01*
X52175500Y-46461485D01*
X52175500Y-46138516D01*
X65424500Y-46138516D01*
X65424500Y-46461483D01*
X65460661Y-46782428D01*
X65532526Y-47097289D01*
X65532527Y-47097291D01*
X65532528Y-47097295D01*
X65639198Y-47402140D01*
X65779329Y-47693125D01*
X65951159Y-47966591D01*
X66152527Y-48219099D01*
X66380901Y-48447473D01*
X66633409Y-48648841D01*
X66906875Y-48820671D01*
X67197860Y-48960802D01*
X67502705Y-49067472D01*
X67589776Y-49087345D01*
X67817571Y-49139338D01*
X67817574Y-49139338D01*
X67817577Y-49139339D01*
X68138515Y-49175500D01*
X68138516Y-49175500D01*
X68461484Y-49175500D01*
X68461485Y-49175500D01*
X68782423Y-49139339D01*
X68782426Y-49139338D01*
X68782428Y-49139338D01*
X68869494Y-49119465D01*
X69097295Y-49067472D01*
X69402140Y-48960802D01*
X69693125Y-48820671D01*
X69966591Y-48648841D01*
X70219099Y-48447473D01*
X70447473Y-48219099D01*
X70648841Y-47966591D01*
X70820671Y-47693125D01*
X70960802Y-47402140D01*
X71067472Y-47097295D01*
X71139339Y-46782423D01*
X71175500Y-46461485D01*
X71175500Y-46138516D01*
X84424500Y-46138516D01*
X84424500Y-46461483D01*
X84460661Y-46782428D01*
X84532526Y-47097289D01*
X84532527Y-47097291D01*
X84532528Y-47097295D01*
X84639198Y-47402140D01*
X84779329Y-47693125D01*
X84951159Y-47966591D01*
X85152527Y-48219099D01*
X85380901Y-48447473D01*
X85633409Y-48648841D01*
X85906875Y-48820671D01*
X86197860Y-48960802D01*
X86502705Y-49067472D01*
X86589776Y-49087345D01*
X86817571Y-49139338D01*
X86817574Y-49139338D01*
X86817577Y-49139339D01*
X87138515Y-49175500D01*
X87138516Y-49175500D01*
X87461484Y-49175500D01*
X87461485Y-49175500D01*
X87782423Y-49139339D01*
X87782426Y-49139338D01*
X87782428Y-49139338D01*
X87869494Y-49119465D01*
X88097295Y-49067472D01*
X88402140Y-48960802D01*
X88693125Y-48820671D01*
X88966591Y-48648841D01*
X89219099Y-48447473D01*
X89447473Y-48219099D01*
X89648841Y-47966591D01*
X89820671Y-47693125D01*
X89960802Y-47402140D01*
X90067472Y-47097295D01*
X90139339Y-46782423D01*
X90175500Y-46461485D01*
X90175500Y-46138515D01*
X90139339Y-45817577D01*
X90067472Y-45502705D01*
X89960802Y-45197860D01*
X89820671Y-44906875D01*
X89648841Y-44633409D01*
X89447473Y-44380901D01*
X89219099Y-44152527D01*
X88966591Y-43951159D01*
X88966589Y-43951158D01*
X88966587Y-43951156D01*
X88693125Y-43779329D01*
X88402138Y-43639197D01*
X88271384Y-43593444D01*
X88097295Y-43532528D01*
X88097291Y-43532527D01*
X88097289Y-43532526D01*
X87782428Y-43460661D01*
X87491918Y-43427929D01*
X87461485Y-43424500D01*
X87138515Y-43424500D01*
X87108082Y-43427929D01*
X86817571Y-43460661D01*
X86502710Y-43532526D01*
X86502708Y-43532527D01*
X86197861Y-43639197D01*
X85906874Y-43779329D01*
X85633412Y-43951156D01*
X85380896Y-44152531D01*
X85152531Y-44380896D01*
X84951156Y-44633412D01*
X84779329Y-44906874D01*
X84639197Y-45197861D01*
X84532527Y-45502708D01*
X84532526Y-45502710D01*
X84460661Y-45817571D01*
X84424500Y-46138516D01*
X71175500Y-46138516D01*
X71175500Y-46138515D01*
X71139339Y-45817577D01*
X71067472Y-45502705D01*
X70960802Y-45197860D01*
X70820671Y-44906875D01*
X70648841Y-44633409D01*
X70447473Y-44380901D01*
X70219099Y-44152527D01*
X69966591Y-43951159D01*
X69966589Y-43951158D01*
X69966587Y-43951156D01*
X69693125Y-43779329D01*
X69402138Y-43639197D01*
X69271384Y-43593444D01*
X69097295Y-43532528D01*
X69097291Y-43532527D01*
X69097289Y-43532526D01*
X68782428Y-43460661D01*
X68491918Y-43427929D01*
X68461485Y-43424500D01*
X68138515Y-43424500D01*
X68108082Y-43427929D01*
X67817571Y-43460661D01*
X67502710Y-43532526D01*
X67502708Y-43532527D01*
X67197861Y-43639197D01*
X66906874Y-43779329D01*
X66633412Y-43951156D01*
X66380896Y-44152531D01*
X66152531Y-44380896D01*
X65951156Y-44633412D01*
X65779329Y-44906874D01*
X65639197Y-45197861D01*
X65532527Y-45502708D01*
X65532526Y-45502710D01*
X65460661Y-45817571D01*
X65424500Y-46138516D01*
X52175500Y-46138516D01*
X52175500Y-46138515D01*
X52139339Y-45817577D01*
X52067472Y-45502705D01*
X51960802Y-45197860D01*
X51820671Y-44906875D01*
X51648841Y-44633409D01*
X51447473Y-44380901D01*
X51219099Y-44152527D01*
X50966591Y-43951159D01*
X50966589Y-43951158D01*
X50966587Y-43951156D01*
X50693125Y-43779329D01*
X50402138Y-43639197D01*
X50271384Y-43593444D01*
X50097295Y-43532528D01*
X50097291Y-43532527D01*
X50097289Y-43532526D01*
X49782428Y-43460661D01*
X49491918Y-43427929D01*
X49461485Y-43424500D01*
X49138515Y-43424500D01*
X49108082Y-43427929D01*
X48817571Y-43460661D01*
X48502710Y-43532526D01*
X48502708Y-43532527D01*
X48197861Y-43639197D01*
X47906874Y-43779329D01*
X47633412Y-43951156D01*
X47380896Y-44152531D01*
X47152531Y-44380896D01*
X46951156Y-44633412D01*
X46779329Y-44906874D01*
X46639197Y-45197861D01*
X46532527Y-45502708D01*
X46532526Y-45502710D01*
X46460661Y-45817571D01*
X46424500Y-46138516D01*
X33175500Y-46138516D01*
X33175500Y-46138515D01*
X33139339Y-45817577D01*
X33067472Y-45502705D01*
X32960802Y-45197860D01*
X32820671Y-44906875D01*
X32648841Y-44633409D01*
X32447473Y-44380901D01*
X32219099Y-44152527D01*
X31966591Y-43951159D01*
X31966589Y-43951158D01*
X31966587Y-43951156D01*
X31693125Y-43779329D01*
X31402138Y-43639197D01*
X31271384Y-43593444D01*
X31097295Y-43532528D01*
X31097291Y-43532527D01*
X31097289Y-43532526D01*
X30782428Y-43460661D01*
X30491918Y-43427929D01*
X30461485Y-43424500D01*
X30138515Y-43424500D01*
X30108082Y-43427929D01*
X29817571Y-43460661D01*
X29502710Y-43532526D01*
X29502708Y-43532527D01*
X29197861Y-43639197D01*
X28906874Y-43779329D01*
X28633412Y-43951156D01*
X28380896Y-44152531D01*
X28152531Y-44380896D01*
X27951156Y-44633412D01*
X27779329Y-44906874D01*
X27639197Y-45197861D01*
X27532527Y-45502708D01*
X27532526Y-45502710D01*
X27460661Y-45817571D01*
X27424500Y-46138516D01*
X14175500Y-46138516D01*
X14175500Y-46138515D01*
X14139339Y-45817577D01*
X14067472Y-45502705D01*
X13960802Y-45197860D01*
X13820671Y-44906875D01*
X13648841Y-44633409D01*
X13447473Y-44380901D01*
X13219099Y-44152527D01*
X12966591Y-43951159D01*
X12966589Y-43951158D01*
X12966587Y-43951156D01*
X12693125Y-43779329D01*
X12402138Y-43639197D01*
X12271384Y-43593444D01*
X12097295Y-43532528D01*
X12097291Y-43532527D01*
X12097289Y-43532526D01*
X11782428Y-43460661D01*
X11491918Y-43427929D01*
X11461485Y-43424500D01*
X11138515Y-43424500D01*
X11108082Y-43427929D01*
X10817571Y-43460661D01*
X10502710Y-43532526D01*
X10502708Y-43532527D01*
X10197861Y-43639197D01*
X9906874Y-43779329D01*
X9633412Y-43951156D01*
X9380896Y-44152531D01*
X9152531Y-44380896D01*
X8951156Y-44633412D01*
X8779329Y-44906874D01*
X8639197Y-45197861D01*
X8532527Y-45502708D01*
X8532526Y-45502710D01*
X8460661Y-45817571D01*
X8424500Y-46138516D01*
X200506Y-46138516D01*
X200506Y-43100000D01*
X14694355Y-43100000D01*
X14714860Y-43268874D01*
X14775181Y-43427929D01*
X14775182Y-43427930D01*
X14871817Y-43567929D01*
X14984697Y-43667932D01*
X14999146Y-43680732D01*
X14999148Y-43680734D01*
X15149775Y-43759790D01*
X15314944Y-43800500D01*
X15485056Y-43800500D01*
X15650225Y-43759790D01*
X15800852Y-43680734D01*
X15928183Y-43567929D01*
X16024818Y-43427930D01*
X16085140Y-43268872D01*
X16093503Y-43200000D01*
X33694355Y-43200000D01*
X33714860Y-43368874D01*
X33775181Y-43527929D01*
X33802794Y-43567932D01*
X33871817Y-43667929D01*
X33871819Y-43667930D01*
X33871820Y-43667932D01*
X33886271Y-43680734D01*
X33984697Y-43767932D01*
X33999146Y-43780732D01*
X33999148Y-43780734D01*
X34149775Y-43859790D01*
X34314944Y-43900500D01*
X34485056Y-43900500D01*
X34650225Y-43859790D01*
X34800852Y-43780734D01*
X34928183Y-43667929D01*
X35024818Y-43527930D01*
X35085140Y-43368872D01*
X35105645Y-43200000D01*
X52694355Y-43200000D01*
X52714860Y-43368874D01*
X52775181Y-43527929D01*
X52802794Y-43567932D01*
X52871817Y-43667929D01*
X52871819Y-43667930D01*
X52871820Y-43667932D01*
X52886271Y-43680734D01*
X52984697Y-43767932D01*
X52999146Y-43780732D01*
X52999148Y-43780734D01*
X53149775Y-43859790D01*
X53314944Y-43900500D01*
X53485056Y-43900500D01*
X53650225Y-43859790D01*
X53800852Y-43780734D01*
X53928183Y-43667929D01*
X54024818Y-43527930D01*
X54085140Y-43368872D01*
X54093503Y-43300000D01*
X71694355Y-43300000D01*
X71714860Y-43468874D01*
X71775181Y-43627929D01*
X71802794Y-43667932D01*
X71871817Y-43767929D01*
X71871819Y-43767930D01*
X71871820Y-43767932D01*
X71999146Y-43880732D01*
X71999148Y-43880734D01*
X72149775Y-43959790D01*
X72314944Y-44000500D01*
X72485056Y-44000500D01*
X72650225Y-43959790D01*
X72800852Y-43880734D01*
X72928183Y-43767929D01*
X73024818Y-43627930D01*
X73085140Y-43468872D01*
X73105645Y-43300000D01*
X73085140Y-43131128D01*
X73047215Y-43031128D01*
X73024818Y-42972070D01*
X72928183Y-42832071D01*
X72928180Y-42832068D01*
X72928179Y-42832067D01*
X72800853Y-42719267D01*
X72800854Y-42719267D01*
X72650224Y-42640209D01*
X72485056Y-42599500D01*
X72314944Y-42599500D01*
X72149775Y-42640209D01*
X71999145Y-42719267D01*
X71871820Y-42832067D01*
X71871817Y-42832071D01*
X71775181Y-42972070D01*
X71714860Y-43131125D01*
X71694355Y-43300000D01*
X54093503Y-43300000D01*
X54105645Y-43200000D01*
X54085140Y-43031128D01*
X54047215Y-42931128D01*
X54024818Y-42872070D01*
X53997208Y-42832071D01*
X53928183Y-42732071D01*
X53928180Y-42732068D01*
X53928179Y-42732067D01*
X53800853Y-42619267D01*
X53800854Y-42619267D01*
X53650224Y-42540209D01*
X53485056Y-42499500D01*
X53314944Y-42499500D01*
X53149775Y-42540209D01*
X52999145Y-42619267D01*
X52871820Y-42732067D01*
X52871817Y-42732071D01*
X52775181Y-42872070D01*
X52714860Y-43031125D01*
X52694355Y-43200000D01*
X35105645Y-43200000D01*
X35085140Y-43031128D01*
X35047215Y-42931128D01*
X35024818Y-42872070D01*
X34997208Y-42832071D01*
X34928183Y-42732071D01*
X34928180Y-42732068D01*
X34928179Y-42732067D01*
X34800853Y-42619267D01*
X34800854Y-42619267D01*
X34650224Y-42540209D01*
X34485056Y-42499500D01*
X34314944Y-42499500D01*
X34149775Y-42540209D01*
X33999145Y-42619267D01*
X33871820Y-42732067D01*
X33871817Y-42732071D01*
X33775181Y-42872070D01*
X33714860Y-43031125D01*
X33694355Y-43200000D01*
X16093503Y-43200000D01*
X16105645Y-43100000D01*
X16085140Y-42931128D01*
X16024818Y-42772070D01*
X15928183Y-42632071D01*
X15928180Y-42632068D01*
X15928179Y-42632067D01*
X15800853Y-42519267D01*
X15800854Y-42519267D01*
X15650224Y-42440209D01*
X15485056Y-42399500D01*
X15314944Y-42399500D01*
X15149775Y-42440209D01*
X14999145Y-42519267D01*
X14871820Y-42632067D01*
X14871817Y-42632071D01*
X14775181Y-42772070D01*
X14714860Y-42931125D01*
X14694355Y-43100000D01*
X200506Y-43100000D01*
X200506Y-35200000D01*
X49009355Y-35200000D01*
X49029860Y-35368874D01*
X49090181Y-35527929D01*
X49090182Y-35527930D01*
X49186817Y-35667929D01*
X49186819Y-35667930D01*
X49186820Y-35667932D01*
X49314146Y-35780732D01*
X49314148Y-35780734D01*
X49464775Y-35859790D01*
X49629944Y-35900500D01*
X49800056Y-35900500D01*
X49965225Y-35859790D01*
X50115852Y-35780734D01*
X50243183Y-35667929D01*
X50290071Y-35600000D01*
X57994355Y-35600000D01*
X58014860Y-35768874D01*
X58075181Y-35927929D01*
X58075182Y-35927930D01*
X58171817Y-36067929D01*
X58171819Y-36067930D01*
X58171820Y-36067932D01*
X58299146Y-36180732D01*
X58299148Y-36180734D01*
X58449775Y-36259790D01*
X58614944Y-36300500D01*
X58785056Y-36300500D01*
X58950225Y-36259790D01*
X59100852Y-36180734D01*
X59228183Y-36067929D01*
X59324818Y-35927930D01*
X59385140Y-35768872D01*
X59405645Y-35600000D01*
X59385140Y-35431128D01*
X59361530Y-35368874D01*
X59324818Y-35272070D01*
X59275071Y-35200000D01*
X59228183Y-35132071D01*
X59228180Y-35132068D01*
X59228179Y-35132067D01*
X59100853Y-35019267D01*
X59100854Y-35019267D01*
X58950224Y-34940209D01*
X58785056Y-34899500D01*
X58614944Y-34899500D01*
X58449775Y-34940209D01*
X58299145Y-35019267D01*
X58171820Y-35132067D01*
X58171817Y-35132071D01*
X58075181Y-35272070D01*
X58014860Y-35431125D01*
X57994355Y-35600000D01*
X50290071Y-35600000D01*
X50339818Y-35527930D01*
X50400140Y-35368872D01*
X50420645Y-35200000D01*
X50400140Y-35031128D01*
X50395641Y-35019266D01*
X50339818Y-34872070D01*
X50243183Y-34732071D01*
X50243180Y-34732068D01*
X50243179Y-34732067D01*
X50115853Y-34619267D01*
X50115854Y-34619267D01*
X49965224Y-34540209D01*
X49800056Y-34499500D01*
X49629944Y-34499500D01*
X49464775Y-34540209D01*
X49314145Y-34619267D01*
X49186820Y-34732067D01*
X49186817Y-34732071D01*
X49090181Y-34872070D01*
X49029860Y-35031125D01*
X49009355Y-35200000D01*
X200506Y-35200000D01*
X200506Y-33050000D01*
X15144706Y-33050000D01*
X15163854Y-33293304D01*
X15163855Y-33293309D01*
X15220828Y-33530614D01*
X15314221Y-33756086D01*
X15314224Y-33756091D01*
X15441736Y-33964172D01*
X15441738Y-33964174D01*
X15441741Y-33964179D01*
X15600241Y-34149759D01*
X15785821Y-34308259D01*
X15785825Y-34308261D01*
X15785827Y-34308263D01*
X15993908Y-34435775D01*
X15993913Y-34435778D01*
X16219385Y-34529171D01*
X16219386Y-34529171D01*
X16219388Y-34529172D01*
X16456698Y-34586146D01*
X16700000Y-34605294D01*
X16943302Y-34586146D01*
X17180612Y-34529172D01*
X17406089Y-34435777D01*
X17614179Y-34308259D01*
X17799759Y-34149759D01*
X17958259Y-33964179D01*
X18085777Y-33756089D01*
X18179172Y-33530612D01*
X18236146Y-33293302D01*
X18255294Y-33050000D01*
X18236146Y-32806698D01*
X18179172Y-32569388D01*
X18085777Y-32343911D01*
X17958259Y-32135821D01*
X17842257Y-32000000D01*
X22144706Y-32000000D01*
X22163854Y-32243304D01*
X22163855Y-32243309D01*
X22220828Y-32480614D01*
X22314221Y-32706086D01*
X22314224Y-32706091D01*
X22441736Y-32914172D01*
X22441738Y-32914174D01*
X22441741Y-32914179D01*
X22600241Y-33099759D01*
X22785821Y-33258259D01*
X22785825Y-33258261D01*
X22785827Y-33258263D01*
X22993908Y-33385775D01*
X22993913Y-33385778D01*
X23219385Y-33479171D01*
X23219386Y-33479171D01*
X23219388Y-33479172D01*
X23456698Y-33536146D01*
X23700000Y-33555294D01*
X23943302Y-33536146D01*
X24180612Y-33479172D01*
X24406089Y-33385777D01*
X24614179Y-33258259D01*
X24799759Y-33099759D01*
X24842257Y-33050000D01*
X34144706Y-33050000D01*
X34163854Y-33293304D01*
X34163855Y-33293309D01*
X34220828Y-33530614D01*
X34314221Y-33756086D01*
X34314224Y-33756091D01*
X34441736Y-33964172D01*
X34441738Y-33964174D01*
X34441741Y-33964179D01*
X34600241Y-34149759D01*
X34785821Y-34308259D01*
X34785825Y-34308261D01*
X34785827Y-34308263D01*
X34993908Y-34435775D01*
X34993913Y-34435778D01*
X35219385Y-34529171D01*
X35219386Y-34529171D01*
X35219388Y-34529172D01*
X35456698Y-34586146D01*
X35700000Y-34605294D01*
X35943302Y-34586146D01*
X36180612Y-34529172D01*
X36406089Y-34435777D01*
X36614179Y-34308259D01*
X36799759Y-34149759D01*
X36958259Y-33964179D01*
X37085777Y-33756089D01*
X37179172Y-33530612D01*
X37236146Y-33293302D01*
X37255294Y-33050000D01*
X37236146Y-32806698D01*
X37179172Y-32569388D01*
X37085777Y-32343911D01*
X36958259Y-32135821D01*
X36842257Y-32000000D01*
X41144706Y-32000000D01*
X41163854Y-32243304D01*
X41163855Y-32243309D01*
X41220828Y-32480614D01*
X41314221Y-32706086D01*
X41314224Y-32706091D01*
X41441736Y-32914172D01*
X41441738Y-32914174D01*
X41441741Y-32914179D01*
X41600241Y-33099759D01*
X41785821Y-33258259D01*
X41785825Y-33258261D01*
X41785827Y-33258263D01*
X41993908Y-33385775D01*
X41993913Y-33385778D01*
X42219385Y-33479171D01*
X42219386Y-33479171D01*
X42219388Y-33479172D01*
X42456698Y-33536146D01*
X42700000Y-33555294D01*
X42943302Y-33536146D01*
X43180612Y-33479172D01*
X43406089Y-33385777D01*
X43614179Y-33258259D01*
X43799759Y-33099759D01*
X43842257Y-33050000D01*
X53144706Y-33050000D01*
X53163854Y-33293304D01*
X53163855Y-33293309D01*
X53220828Y-33530614D01*
X53314221Y-33756086D01*
X53314224Y-33756091D01*
X53441736Y-33964172D01*
X53441738Y-33964174D01*
X53441741Y-33964179D01*
X53600241Y-34149759D01*
X53785821Y-34308259D01*
X53785825Y-34308261D01*
X53785827Y-34308263D01*
X53993908Y-34435775D01*
X53993913Y-34435778D01*
X54219385Y-34529171D01*
X54219386Y-34529171D01*
X54219388Y-34529172D01*
X54456698Y-34586146D01*
X54700000Y-34605294D01*
X54943302Y-34586146D01*
X55180612Y-34529172D01*
X55406089Y-34435777D01*
X55614179Y-34308259D01*
X55799759Y-34149759D01*
X55958259Y-33964179D01*
X56085777Y-33756089D01*
X56179172Y-33530612D01*
X56236146Y-33293302D01*
X56255294Y-33050000D01*
X56236146Y-32806698D01*
X56179172Y-32569388D01*
X56085777Y-32343911D01*
X55958259Y-32135821D01*
X55842257Y-32000000D01*
X60144706Y-32000000D01*
X60163854Y-32243304D01*
X60163855Y-32243309D01*
X60220828Y-32480614D01*
X60314221Y-32706086D01*
X60314224Y-32706091D01*
X60441736Y-32914172D01*
X60441738Y-32914174D01*
X60441741Y-32914179D01*
X60600241Y-33099759D01*
X60785821Y-33258259D01*
X60785825Y-33258261D01*
X60785827Y-33258263D01*
X60993908Y-33385775D01*
X60993913Y-33385778D01*
X61219385Y-33479171D01*
X61219386Y-33479171D01*
X61219388Y-33479172D01*
X61456698Y-33536146D01*
X61700000Y-33555294D01*
X61943302Y-33536146D01*
X62180612Y-33479172D01*
X62406089Y-33385777D01*
X62614179Y-33258259D01*
X62799759Y-33099759D01*
X62842257Y-33050000D01*
X72144706Y-33050000D01*
X72163854Y-33293304D01*
X72163855Y-33293309D01*
X72220828Y-33530614D01*
X72314221Y-33756086D01*
X72314224Y-33756091D01*
X72441736Y-33964172D01*
X72441738Y-33964174D01*
X72441741Y-33964179D01*
X72600241Y-34149759D01*
X72785821Y-34308259D01*
X72785825Y-34308261D01*
X72785827Y-34308263D01*
X72993908Y-34435775D01*
X72993913Y-34435778D01*
X73219385Y-34529171D01*
X73219386Y-34529171D01*
X73219388Y-34529172D01*
X73456698Y-34586146D01*
X73700000Y-34605294D01*
X73943302Y-34586146D01*
X74180612Y-34529172D01*
X74406089Y-34435777D01*
X74614179Y-34308259D01*
X74799759Y-34149759D01*
X74958259Y-33964179D01*
X75085777Y-33756089D01*
X75179172Y-33530612D01*
X75236146Y-33293302D01*
X75255294Y-33050000D01*
X75236146Y-32806698D01*
X75179172Y-32569388D01*
X75085777Y-32343911D01*
X74958259Y-32135821D01*
X74842257Y-32000000D01*
X79144706Y-32000000D01*
X79163854Y-32243304D01*
X79163855Y-32243309D01*
X79220828Y-32480614D01*
X79314221Y-32706086D01*
X79314224Y-32706091D01*
X79441736Y-32914172D01*
X79441738Y-32914174D01*
X79441741Y-32914179D01*
X79600241Y-33099759D01*
X79785821Y-33258259D01*
X79785825Y-33258261D01*
X79785827Y-33258263D01*
X79993908Y-33385775D01*
X79993913Y-33385778D01*
X80219385Y-33479171D01*
X80219386Y-33479171D01*
X80219388Y-33479172D01*
X80456698Y-33536146D01*
X80700000Y-33555294D01*
X80943302Y-33536146D01*
X81180612Y-33479172D01*
X81406089Y-33385777D01*
X81614179Y-33258259D01*
X81799759Y-33099759D01*
X81958259Y-32914179D01*
X82085777Y-32706089D01*
X82179172Y-32480612D01*
X82236146Y-32243302D01*
X82255294Y-32000000D01*
X82236146Y-31756698D01*
X82179172Y-31519388D01*
X82168948Y-31494706D01*
X82085778Y-31293913D01*
X82085775Y-31293908D01*
X81958263Y-31085827D01*
X81958261Y-31085825D01*
X81958259Y-31085821D01*
X81799759Y-30900241D01*
X81614179Y-30741741D01*
X81614174Y-30741738D01*
X81614172Y-30741736D01*
X81406091Y-30614224D01*
X81406086Y-30614221D01*
X81180614Y-30520828D01*
X80943309Y-30463855D01*
X80943304Y-30463854D01*
X80700000Y-30444706D01*
X80456695Y-30463854D01*
X80456690Y-30463855D01*
X80219385Y-30520828D01*
X79993913Y-30614221D01*
X79993908Y-30614224D01*
X79785827Y-30741736D01*
X79600241Y-30900241D01*
X79441736Y-31085827D01*
X79314224Y-31293908D01*
X79314221Y-31293913D01*
X79220828Y-31519385D01*
X79163855Y-31756690D01*
X79163854Y-31756695D01*
X79144706Y-32000000D01*
X74842257Y-32000000D01*
X74799759Y-31950241D01*
X74614179Y-31791741D01*
X74614174Y-31791738D01*
X74614172Y-31791736D01*
X74406091Y-31664224D01*
X74406086Y-31664221D01*
X74180614Y-31570828D01*
X73943309Y-31513855D01*
X73943304Y-31513854D01*
X73700000Y-31494706D01*
X73456695Y-31513854D01*
X73456690Y-31513855D01*
X73219385Y-31570828D01*
X72993913Y-31664221D01*
X72993908Y-31664224D01*
X72785827Y-31791736D01*
X72600241Y-31950241D01*
X72441736Y-32135827D01*
X72314224Y-32343908D01*
X72314221Y-32343913D01*
X72220828Y-32569385D01*
X72163855Y-32806690D01*
X72163854Y-32806695D01*
X72144706Y-33050000D01*
X62842257Y-33050000D01*
X62958259Y-32914179D01*
X63085777Y-32706089D01*
X63179172Y-32480612D01*
X63236146Y-32243302D01*
X63255294Y-32000000D01*
X63236146Y-31756698D01*
X63179172Y-31519388D01*
X63168948Y-31494706D01*
X63085778Y-31293913D01*
X63085775Y-31293908D01*
X62958263Y-31085827D01*
X62958261Y-31085825D01*
X62958259Y-31085821D01*
X62799759Y-30900241D01*
X62614179Y-30741741D01*
X62614174Y-30741738D01*
X62614172Y-30741736D01*
X62406091Y-30614224D01*
X62406086Y-30614221D01*
X62180614Y-30520828D01*
X61943309Y-30463855D01*
X61943304Y-30463854D01*
X61700000Y-30444706D01*
X61456695Y-30463854D01*
X61456690Y-30463855D01*
X61219385Y-30520828D01*
X60993913Y-30614221D01*
X60993908Y-30614224D01*
X60785827Y-30741736D01*
X60600241Y-30900241D01*
X60441736Y-31085827D01*
X60314224Y-31293908D01*
X60314221Y-31293913D01*
X60220828Y-31519385D01*
X60163855Y-31756690D01*
X60163854Y-31756695D01*
X60144706Y-32000000D01*
X55842257Y-32000000D01*
X55799759Y-31950241D01*
X55614179Y-31791741D01*
X55614174Y-31791738D01*
X55614172Y-31791736D01*
X55406091Y-31664224D01*
X55406086Y-31664221D01*
X55180614Y-31570828D01*
X54943309Y-31513855D01*
X54943304Y-31513854D01*
X54700000Y-31494706D01*
X54456695Y-31513854D01*
X54456690Y-31513855D01*
X54219385Y-31570828D01*
X53993913Y-31664221D01*
X53993908Y-31664224D01*
X53785827Y-31791736D01*
X53600241Y-31950241D01*
X53441736Y-32135827D01*
X53314224Y-32343908D01*
X53314221Y-32343913D01*
X53220828Y-32569385D01*
X53163855Y-32806690D01*
X53163854Y-32806695D01*
X53144706Y-33050000D01*
X43842257Y-33050000D01*
X43958259Y-32914179D01*
X44085777Y-32706089D01*
X44179172Y-32480612D01*
X44236146Y-32243302D01*
X44255294Y-32000000D01*
X44236146Y-31756698D01*
X44179172Y-31519388D01*
X44168948Y-31494706D01*
X44085778Y-31293913D01*
X44085775Y-31293908D01*
X43958263Y-31085827D01*
X43958261Y-31085825D01*
X43958259Y-31085821D01*
X43799759Y-30900241D01*
X43614179Y-30741741D01*
X43614174Y-30741738D01*
X43614172Y-30741736D01*
X43406091Y-30614224D01*
X43406086Y-30614221D01*
X43180614Y-30520828D01*
X42943309Y-30463855D01*
X42943304Y-30463854D01*
X42700000Y-30444706D01*
X42456695Y-30463854D01*
X42456690Y-30463855D01*
X42219385Y-30520828D01*
X41993913Y-30614221D01*
X41993908Y-30614224D01*
X41785827Y-30741736D01*
X41600241Y-30900241D01*
X41441736Y-31085827D01*
X41314224Y-31293908D01*
X41314221Y-31293913D01*
X41220828Y-31519385D01*
X41163855Y-31756690D01*
X41163854Y-31756695D01*
X41144706Y-32000000D01*
X36842257Y-32000000D01*
X36799759Y-31950241D01*
X36614179Y-31791741D01*
X36614174Y-31791738D01*
X36614172Y-31791736D01*
X36406091Y-31664224D01*
X36406086Y-31664221D01*
X36180614Y-31570828D01*
X35943309Y-31513855D01*
X35943304Y-31513854D01*
X35700000Y-31494706D01*
X35456695Y-31513854D01*
X35456690Y-31513855D01*
X35219385Y-31570828D01*
X34993913Y-31664221D01*
X34993908Y-31664224D01*
X34785827Y-31791736D01*
X34600241Y-31950241D01*
X34441736Y-32135827D01*
X34314224Y-32343908D01*
X34314221Y-32343913D01*
X34220828Y-32569385D01*
X34163855Y-32806690D01*
X34163854Y-32806695D01*
X34144706Y-33050000D01*
X24842257Y-33050000D01*
X24958259Y-32914179D01*
X25085777Y-32706089D01*
X25179172Y-32480612D01*
X25236146Y-32243302D01*
X25255294Y-32000000D01*
X25236146Y-31756698D01*
X25179172Y-31519388D01*
X25168948Y-31494706D01*
X25085778Y-31293913D01*
X25085775Y-31293908D01*
X24958263Y-31085827D01*
X24958261Y-31085825D01*
X24958259Y-31085821D01*
X24799759Y-30900241D01*
X24614179Y-30741741D01*
X24614174Y-30741738D01*
X24614172Y-30741736D01*
X24406091Y-30614224D01*
X24406086Y-30614221D01*
X24180614Y-30520828D01*
X23943309Y-30463855D01*
X23943304Y-30463854D01*
X23700000Y-30444706D01*
X23456695Y-30463854D01*
X23456690Y-30463855D01*
X23219385Y-30520828D01*
X22993913Y-30614221D01*
X22993908Y-30614224D01*
X22785827Y-30741736D01*
X22600241Y-30900241D01*
X22441736Y-31085827D01*
X22314224Y-31293908D01*
X22314221Y-31293913D01*
X22220828Y-31519385D01*
X22163855Y-31756690D01*
X22163854Y-31756695D01*
X22144706Y-32000000D01*
X17842257Y-32000000D01*
X17799759Y-31950241D01*
X17614179Y-31791741D01*
X17614174Y-31791738D01*
X17614172Y-31791736D01*
X17406091Y-31664224D01*
X17406086Y-31664221D01*
X17180614Y-31570828D01*
X16943309Y-31513855D01*
X16943304Y-31513854D01*
X16700000Y-31494706D01*
X16456695Y-31513854D01*
X16456690Y-31513855D01*
X16219385Y-31570828D01*
X15993913Y-31664221D01*
X15993908Y-31664224D01*
X15785827Y-31791736D01*
X15600241Y-31950241D01*
X15441736Y-32135827D01*
X15314224Y-32343908D01*
X15314221Y-32343913D01*
X15220828Y-32569385D01*
X15163855Y-32806690D01*
X15163854Y-32806695D01*
X15144706Y-33050000D01*
X200506Y-33050000D01*
X200506Y-27138516D01*
X16424500Y-27138516D01*
X16424500Y-27461483D01*
X16460661Y-27782428D01*
X16532526Y-28097289D01*
X16532527Y-28097291D01*
X16532528Y-28097295D01*
X16639198Y-28402140D01*
X16779329Y-28693125D01*
X16951159Y-28966591D01*
X17152527Y-29219099D01*
X17380901Y-29447473D01*
X17633409Y-29648841D01*
X17906875Y-29820671D01*
X18197860Y-29960802D01*
X18502705Y-30067472D01*
X18589776Y-30087345D01*
X18817571Y-30139338D01*
X18817574Y-30139338D01*
X18817577Y-30139339D01*
X19138515Y-30175500D01*
X19138516Y-30175500D01*
X19461484Y-30175500D01*
X19461485Y-30175500D01*
X19782423Y-30139339D01*
X19782426Y-30139338D01*
X19782428Y-30139338D01*
X19869494Y-30119465D01*
X20097295Y-30067472D01*
X20402140Y-29960802D01*
X20693125Y-29820671D01*
X20966591Y-29648841D01*
X21219099Y-29447473D01*
X21447473Y-29219099D01*
X21648841Y-28966591D01*
X21820671Y-28693125D01*
X21960802Y-28402140D01*
X22067472Y-28097295D01*
X22139339Y-27782423D01*
X22175500Y-27461485D01*
X22175500Y-27138516D01*
X35424500Y-27138516D01*
X35424500Y-27461483D01*
X35460661Y-27782428D01*
X35532526Y-28097289D01*
X35532527Y-28097291D01*
X35532528Y-28097295D01*
X35639198Y-28402140D01*
X35779329Y-28693125D01*
X35951159Y-28966591D01*
X36152527Y-29219099D01*
X36380901Y-29447473D01*
X36633409Y-29648841D01*
X36906875Y-29820671D01*
X37197860Y-29960802D01*
X37502705Y-30067472D01*
X37589776Y-30087345D01*
X37817571Y-30139338D01*
X37817574Y-30139338D01*
X37817577Y-30139339D01*
X38138515Y-30175500D01*
X38138516Y-30175500D01*
X38461484Y-30175500D01*
X38461485Y-30175500D01*
X38782423Y-30139339D01*
X38782426Y-30139338D01*
X38782428Y-30139338D01*
X38869494Y-30119465D01*
X39097295Y-30067472D01*
X39402140Y-29960802D01*
X39693125Y-29820671D01*
X39966591Y-29648841D01*
X40219099Y-29447473D01*
X40447473Y-29219099D01*
X40648841Y-28966591D01*
X40820671Y-28693125D01*
X40960802Y-28402140D01*
X41067472Y-28097295D01*
X41139339Y-27782423D01*
X41175500Y-27461485D01*
X41175500Y-27138516D01*
X54424500Y-27138516D01*
X54424500Y-27461483D01*
X54460661Y-27782428D01*
X54532526Y-28097289D01*
X54532527Y-28097291D01*
X54532528Y-28097295D01*
X54639198Y-28402140D01*
X54779329Y-28693125D01*
X54951159Y-28966591D01*
X55152527Y-29219099D01*
X55380901Y-29447473D01*
X55633409Y-29648841D01*
X55906875Y-29820671D01*
X56197860Y-29960802D01*
X56502705Y-30067472D01*
X56589776Y-30087345D01*
X56817571Y-30139338D01*
X56817574Y-30139338D01*
X56817577Y-30139339D01*
X57138515Y-30175500D01*
X57138516Y-30175500D01*
X57461484Y-30175500D01*
X57461485Y-30175500D01*
X57782423Y-30139339D01*
X57782426Y-30139338D01*
X57782428Y-30139338D01*
X57869494Y-30119465D01*
X58097295Y-30067472D01*
X58402140Y-29960802D01*
X58693125Y-29820671D01*
X58966591Y-29648841D01*
X59219099Y-29447473D01*
X59447473Y-29219099D01*
X59648841Y-28966591D01*
X59820671Y-28693125D01*
X59960802Y-28402140D01*
X60067472Y-28097295D01*
X60139339Y-27782423D01*
X60175500Y-27461485D01*
X60175500Y-27138516D01*
X73424500Y-27138516D01*
X73424500Y-27461483D01*
X73460661Y-27782428D01*
X73532526Y-28097289D01*
X73532527Y-28097291D01*
X73532528Y-28097295D01*
X73639198Y-28402140D01*
X73779329Y-28693125D01*
X73951159Y-28966591D01*
X74152527Y-29219099D01*
X74380901Y-29447473D01*
X74633409Y-29648841D01*
X74906875Y-29820671D01*
X75197860Y-29960802D01*
X75502705Y-30067472D01*
X75589776Y-30087345D01*
X75817571Y-30139338D01*
X75817574Y-30139338D01*
X75817577Y-30139339D01*
X76138515Y-30175500D01*
X76138516Y-30175500D01*
X76461484Y-30175500D01*
X76461485Y-30175500D01*
X76782423Y-30139339D01*
X76782426Y-30139338D01*
X76782428Y-30139338D01*
X76869494Y-30119465D01*
X77097295Y-30067472D01*
X77402140Y-29960802D01*
X77693125Y-29820671D01*
X77966591Y-29648841D01*
X78219099Y-29447473D01*
X78447473Y-29219099D01*
X78648841Y-28966591D01*
X78820671Y-28693125D01*
X78960802Y-28402140D01*
X79067472Y-28097295D01*
X79139339Y-27782423D01*
X79175500Y-27461485D01*
X79175500Y-27138515D01*
X79139339Y-26817577D01*
X79067472Y-26502705D01*
X78960802Y-26197860D01*
X78820671Y-25906875D01*
X78648841Y-25633409D01*
X78447473Y-25380901D01*
X78219099Y-25152527D01*
X77966591Y-24951159D01*
X77966589Y-24951158D01*
X77966587Y-24951156D01*
X77693125Y-24779329D01*
X77402138Y-24639197D01*
X77226826Y-24577853D01*
X77097295Y-24532528D01*
X77097291Y-24532527D01*
X77097289Y-24532526D01*
X76782428Y-24460661D01*
X76514974Y-24430526D01*
X76461485Y-24424500D01*
X76138515Y-24424500D01*
X76092666Y-24429665D01*
X75817571Y-24460661D01*
X75502710Y-24532526D01*
X75502708Y-24532527D01*
X75197861Y-24639197D01*
X74906874Y-24779329D01*
X74633412Y-24951156D01*
X74380896Y-25152531D01*
X74152531Y-25380896D01*
X73951156Y-25633412D01*
X73779329Y-25906874D01*
X73639197Y-26197861D01*
X73532527Y-26502708D01*
X73532526Y-26502710D01*
X73460661Y-26817571D01*
X73424500Y-27138516D01*
X60175500Y-27138516D01*
X60175500Y-27138515D01*
X60139339Y-26817577D01*
X60067472Y-26502705D01*
X59960802Y-26197860D01*
X59820671Y-25906875D01*
X59648841Y-25633409D01*
X59447473Y-25380901D01*
X59219099Y-25152527D01*
X58966591Y-24951159D01*
X58966589Y-24951158D01*
X58966587Y-24951156D01*
X58693125Y-24779329D01*
X58402138Y-24639197D01*
X58226826Y-24577853D01*
X58097295Y-24532528D01*
X58097291Y-24532527D01*
X58097289Y-24532526D01*
X57782428Y-24460661D01*
X57514974Y-24430526D01*
X57461485Y-24424500D01*
X57138515Y-24424500D01*
X57092666Y-24429665D01*
X56817571Y-24460661D01*
X56502710Y-24532526D01*
X56502708Y-24532527D01*
X56197861Y-24639197D01*
X55906874Y-24779329D01*
X55633412Y-24951156D01*
X55380896Y-25152531D01*
X55152531Y-25380896D01*
X54951156Y-25633412D01*
X54779329Y-25906874D01*
X54639197Y-26197861D01*
X54532527Y-26502708D01*
X54532526Y-26502710D01*
X54460661Y-26817571D01*
X54424500Y-27138516D01*
X41175500Y-27138516D01*
X41175500Y-27138515D01*
X41139339Y-26817577D01*
X41067472Y-26502705D01*
X40960802Y-26197860D01*
X40820671Y-25906875D01*
X40648841Y-25633409D01*
X40447473Y-25380901D01*
X40219099Y-25152527D01*
X39966591Y-24951159D01*
X39966589Y-24951158D01*
X39966587Y-24951156D01*
X39693125Y-24779329D01*
X39402138Y-24639197D01*
X39226826Y-24577853D01*
X39097295Y-24532528D01*
X39097291Y-24532527D01*
X39097289Y-24532526D01*
X38782428Y-24460661D01*
X38514974Y-24430526D01*
X38461485Y-24424500D01*
X38138515Y-24424500D01*
X38092666Y-24429665D01*
X37817571Y-24460661D01*
X37502710Y-24532526D01*
X37502708Y-24532527D01*
X37197861Y-24639197D01*
X36906874Y-24779329D01*
X36633412Y-24951156D01*
X36380896Y-25152531D01*
X36152531Y-25380896D01*
X35951156Y-25633412D01*
X35779329Y-25906874D01*
X35639197Y-26197861D01*
X35532527Y-26502708D01*
X35532526Y-26502710D01*
X35460661Y-26817571D01*
X35424500Y-27138516D01*
X22175500Y-27138516D01*
X22175500Y-27138515D01*
X22139339Y-26817577D01*
X22067472Y-26502705D01*
X21960802Y-26197860D01*
X21820671Y-25906875D01*
X21648841Y-25633409D01*
X21447473Y-25380901D01*
X21219099Y-25152527D01*
X20966591Y-24951159D01*
X20966589Y-24951158D01*
X20966587Y-24951156D01*
X20693125Y-24779329D01*
X20402138Y-24639197D01*
X20226826Y-24577853D01*
X20097295Y-24532528D01*
X20097291Y-24532527D01*
X20097289Y-24532526D01*
X19782428Y-24460661D01*
X19514974Y-24430526D01*
X19461485Y-24424500D01*
X19138515Y-24424500D01*
X19092666Y-24429665D01*
X18817571Y-24460661D01*
X18502710Y-24532526D01*
X18502708Y-24532527D01*
X18197861Y-24639197D01*
X17906874Y-24779329D01*
X17633412Y-24951156D01*
X17380896Y-25152531D01*
X17152531Y-25380896D01*
X16951156Y-25633412D01*
X16779329Y-25906874D01*
X16639197Y-26197861D01*
X16532527Y-26502708D01*
X16532526Y-26502710D01*
X16460661Y-26817571D01*
X16424500Y-27138516D01*
X200506Y-27138516D01*
X200506Y-25650974D01*
X200672Y-25643937D01*
X209174Y-25464104D01*
X217127Y-25295897D01*
X218454Y-25281905D01*
X267182Y-24940478D01*
X269827Y-24926656D01*
X280884Y-24880734D01*
X350561Y-24591349D01*
X354497Y-24577843D01*
X370059Y-24532528D01*
X449911Y-24300000D01*
X22794355Y-24300000D01*
X22814860Y-24468874D01*
X22875181Y-24627929D01*
X22902794Y-24667932D01*
X22971817Y-24767929D01*
X22971819Y-24767930D01*
X22971820Y-24767932D01*
X23099146Y-24880732D01*
X23099148Y-24880734D01*
X23249775Y-24959790D01*
X23414944Y-25000500D01*
X23585056Y-25000500D01*
X23750225Y-24959790D01*
X23900852Y-24880734D01*
X24028183Y-24767929D01*
X24124818Y-24627930D01*
X24185140Y-24468872D01*
X24205645Y-24300000D01*
X24193503Y-24200000D01*
X41794355Y-24200000D01*
X41814860Y-24368874D01*
X41875181Y-24527929D01*
X41875182Y-24527930D01*
X41971817Y-24667929D01*
X42084697Y-24767932D01*
X42099146Y-24780732D01*
X42099148Y-24780734D01*
X42249775Y-24859790D01*
X42414944Y-24900500D01*
X42585056Y-24900500D01*
X42750225Y-24859790D01*
X42900852Y-24780734D01*
X43028183Y-24667929D01*
X43124818Y-24527930D01*
X43185140Y-24368872D01*
X43193503Y-24300000D01*
X60794355Y-24300000D01*
X60814860Y-24468874D01*
X60875181Y-24627929D01*
X60902794Y-24667932D01*
X60971817Y-24767929D01*
X60971819Y-24767930D01*
X60971820Y-24767932D01*
X61099146Y-24880732D01*
X61099148Y-24880734D01*
X61249775Y-24959790D01*
X61414944Y-25000500D01*
X61585056Y-25000500D01*
X61750225Y-24959790D01*
X61900852Y-24880734D01*
X62028183Y-24767929D01*
X62124818Y-24627930D01*
X62185140Y-24468872D01*
X62205645Y-24300000D01*
X79794355Y-24300000D01*
X79814860Y-24468874D01*
X79875181Y-24627929D01*
X79902794Y-24667932D01*
X79971817Y-24767929D01*
X79971819Y-24767930D01*
X79971820Y-24767932D01*
X80099146Y-24880732D01*
X80099148Y-24880734D01*
X80249775Y-24959790D01*
X80414944Y-25000500D01*
X80585056Y-25000500D01*
X80750225Y-24959790D01*
X80900852Y-24880734D01*
X81028183Y-24767929D01*
X81124818Y-24627930D01*
X81185140Y-24468872D01*
X81205645Y-24300000D01*
X81185140Y-24131128D01*
X81147215Y-24031128D01*
X81124818Y-23972070D01*
X81028183Y-23832071D01*
X81028180Y-23832068D01*
X81028179Y-23832067D01*
X80900853Y-23719267D01*
X80900854Y-23719267D01*
X80750224Y-23640209D01*
X80585056Y-23599500D01*
X80414944Y-23599500D01*
X80249775Y-23640209D01*
X80099145Y-23719267D01*
X79971820Y-23832067D01*
X79971817Y-23832071D01*
X79875181Y-23972070D01*
X79814860Y-24131125D01*
X79794355Y-24300000D01*
X62205645Y-24300000D01*
X62185140Y-24131128D01*
X62147215Y-24031128D01*
X62124818Y-23972070D01*
X62028183Y-23832071D01*
X62028180Y-23832068D01*
X62028179Y-23832067D01*
X61900853Y-23719267D01*
X61900854Y-23719267D01*
X61750224Y-23640209D01*
X61585056Y-23599500D01*
X61414944Y-23599500D01*
X61249775Y-23640209D01*
X61099145Y-23719267D01*
X60971820Y-23832067D01*
X60971817Y-23832071D01*
X60875181Y-23972070D01*
X60814860Y-24131125D01*
X60794355Y-24300000D01*
X43193503Y-24300000D01*
X43205645Y-24200000D01*
X43185140Y-24031128D01*
X43124818Y-23872070D01*
X43028183Y-23732071D01*
X43028180Y-23732068D01*
X43028179Y-23732067D01*
X42900853Y-23619267D01*
X42900854Y-23619267D01*
X42750224Y-23540209D01*
X42585056Y-23499500D01*
X42414944Y-23499500D01*
X42249775Y-23540209D01*
X42099145Y-23619267D01*
X41971820Y-23732067D01*
X41971817Y-23732071D01*
X41875181Y-23872070D01*
X41814860Y-24031125D01*
X41794355Y-24200000D01*
X24193503Y-24200000D01*
X24185140Y-24131128D01*
X24147215Y-24031128D01*
X24124818Y-23972070D01*
X24028183Y-23832071D01*
X24028180Y-23832068D01*
X24028179Y-23832067D01*
X23900853Y-23719267D01*
X23900854Y-23719267D01*
X23750224Y-23640209D01*
X23585056Y-23599500D01*
X23414944Y-23599500D01*
X23249775Y-23640209D01*
X23099145Y-23719267D01*
X22971820Y-23832067D01*
X22971817Y-23832071D01*
X22875181Y-23972070D01*
X22814860Y-24131125D01*
X22794355Y-24300000D01*
X449911Y-24300000D01*
X466518Y-24251642D01*
X471697Y-24238601D01*
X614014Y-23924406D01*
X620406Y-23911903D01*
X791736Y-23612550D01*
X799287Y-23600695D01*
X998088Y-23318872D01*
X1006725Y-23307778D01*
X1231259Y-23045947D01*
X1240890Y-23035736D01*
X1489114Y-22796282D01*
X1499683Y-22787009D01*
X1769411Y-22572039D01*
X1780790Y-22563818D01*
X2069611Y-22375259D01*
X2081712Y-22368151D01*
X2389719Y-22206280D01*
X2397111Y-22202655D01*
X3679908Y-21617177D01*
X3684177Y-21615696D01*
X3694409Y-21610921D01*
X3694412Y-21610921D01*
X3729335Y-21594623D01*
X3730348Y-21594157D01*
X3736206Y-21591483D01*
X3765295Y-21578207D01*
X3765295Y-21578206D01*
X3775489Y-21573554D01*
X3779488Y-21571207D01*
X3856351Y-21535322D01*
X4091217Y-21387207D01*
X4305604Y-21210747D01*
X4496113Y-21008741D01*
X4659722Y-20784392D01*
X4736423Y-20645341D01*
X4793832Y-20541267D01*
X4793833Y-20541264D01*
X4793836Y-20541259D01*
X4896328Y-20283198D01*
X4965573Y-20014302D01*
X5000472Y-19738835D01*
X5000472Y-19461165D01*
X4965573Y-19185698D01*
X4965570Y-19185690D01*
X4965570Y-19185684D01*
X4896328Y-18916803D01*
X4896328Y-18916802D01*
X4793836Y-18658742D01*
X4793832Y-18658732D01*
X4659722Y-18415608D01*
X4619016Y-18359790D01*
X4496113Y-18191259D01*
X4403643Y-18093209D01*
X4305609Y-17989258D01*
X4305605Y-17989254D01*
X4091214Y-17812790D01*
X3912364Y-17700000D01*
X12094355Y-17700000D01*
X12114860Y-17868874D01*
X12175181Y-18027929D01*
X12175182Y-18027930D01*
X12271817Y-18167929D01*
X12271819Y-18167930D01*
X12271820Y-18167932D01*
X12399146Y-18280732D01*
X12399148Y-18280734D01*
X12549775Y-18359790D01*
X12714944Y-18400500D01*
X12885056Y-18400500D01*
X13050225Y-18359790D01*
X13200852Y-18280734D01*
X13328183Y-18167929D01*
X13424818Y-18027930D01*
X13485140Y-17868872D01*
X13505645Y-17700000D01*
X31094355Y-17700000D01*
X31114860Y-17868874D01*
X31175181Y-18027929D01*
X31175182Y-18027930D01*
X31271817Y-18167929D01*
X31271819Y-18167930D01*
X31271820Y-18167932D01*
X31399146Y-18280732D01*
X31399148Y-18280734D01*
X31549775Y-18359790D01*
X31714944Y-18400500D01*
X31885056Y-18400500D01*
X32050225Y-18359790D01*
X32200852Y-18280734D01*
X32328183Y-18167929D01*
X32424818Y-18027930D01*
X32485140Y-17868872D01*
X32505645Y-17700000D01*
X49994355Y-17700000D01*
X50014860Y-17868874D01*
X50075181Y-18027929D01*
X50075182Y-18027930D01*
X50171817Y-18167929D01*
X50171819Y-18167930D01*
X50171820Y-18167932D01*
X50299146Y-18280732D01*
X50299148Y-18280734D01*
X50449775Y-18359790D01*
X50614944Y-18400500D01*
X50785056Y-18400500D01*
X50950225Y-18359790D01*
X51100852Y-18280734D01*
X51228183Y-18167929D01*
X51324818Y-18027930D01*
X51385140Y-17868872D01*
X51405645Y-17700000D01*
X68994355Y-17700000D01*
X69014860Y-17868874D01*
X69075181Y-18027929D01*
X69075182Y-18027930D01*
X69171817Y-18167929D01*
X69171819Y-18167930D01*
X69171820Y-18167932D01*
X69299146Y-18280732D01*
X69299148Y-18280734D01*
X69449775Y-18359790D01*
X69614944Y-18400500D01*
X69785056Y-18400500D01*
X69950225Y-18359790D01*
X70100852Y-18280734D01*
X70228183Y-18167929D01*
X70324818Y-18027930D01*
X70385140Y-17868872D01*
X70405645Y-17700000D01*
X87994355Y-17700000D01*
X88014860Y-17868874D01*
X88075181Y-18027929D01*
X88075182Y-18027930D01*
X88171817Y-18167929D01*
X88171819Y-18167930D01*
X88171820Y-18167932D01*
X88299146Y-18280732D01*
X88299148Y-18280734D01*
X88449775Y-18359790D01*
X88614944Y-18400500D01*
X88785056Y-18400500D01*
X88950225Y-18359790D01*
X89100852Y-18280734D01*
X89228183Y-18167929D01*
X89324818Y-18027930D01*
X89385140Y-17868872D01*
X89405645Y-17700000D01*
X89385140Y-17531128D01*
X89324818Y-17372070D01*
X89228183Y-17232071D01*
X89228180Y-17232068D01*
X89228179Y-17232067D01*
X89100853Y-17119267D01*
X89100854Y-17119267D01*
X88950224Y-17040209D01*
X88785056Y-16999500D01*
X88614944Y-16999500D01*
X88449775Y-17040209D01*
X88299145Y-17119267D01*
X88171820Y-17232067D01*
X88171817Y-17232071D01*
X88075181Y-17372070D01*
X88014860Y-17531125D01*
X87994355Y-17700000D01*
X70405645Y-17700000D01*
X70385140Y-17531128D01*
X70324818Y-17372070D01*
X70228183Y-17232071D01*
X70228180Y-17232068D01*
X70228179Y-17232067D01*
X70100853Y-17119267D01*
X70100854Y-17119267D01*
X69950224Y-17040209D01*
X69785056Y-16999500D01*
X69614944Y-16999500D01*
X69449775Y-17040209D01*
X69299145Y-17119267D01*
X69171820Y-17232067D01*
X69171817Y-17232071D01*
X69075181Y-17372070D01*
X69014860Y-17531125D01*
X68994355Y-17700000D01*
X51405645Y-17700000D01*
X51385140Y-17531128D01*
X51324818Y-17372070D01*
X51228183Y-17232071D01*
X51228180Y-17232068D01*
X51228179Y-17232067D01*
X51100853Y-17119267D01*
X51100854Y-17119267D01*
X50950224Y-17040209D01*
X50785056Y-16999500D01*
X50614944Y-16999500D01*
X50449775Y-17040209D01*
X50299145Y-17119267D01*
X50171820Y-17232067D01*
X50171817Y-17232071D01*
X50075181Y-17372070D01*
X50014860Y-17531125D01*
X49994355Y-17700000D01*
X32505645Y-17700000D01*
X32485140Y-17531128D01*
X32424818Y-17372070D01*
X32328183Y-17232071D01*
X32328180Y-17232068D01*
X32328179Y-17232067D01*
X32200853Y-17119267D01*
X32200854Y-17119267D01*
X32050224Y-17040209D01*
X31885056Y-16999500D01*
X31714944Y-16999500D01*
X31549775Y-17040209D01*
X31399145Y-17119267D01*
X31271820Y-17232067D01*
X31271817Y-17232071D01*
X31175181Y-17372070D01*
X31114860Y-17531125D01*
X31094355Y-17700000D01*
X13505645Y-17700000D01*
X13485140Y-17531128D01*
X13424818Y-17372070D01*
X13328183Y-17232071D01*
X13328180Y-17232068D01*
X13328179Y-17232067D01*
X13200853Y-17119267D01*
X13200854Y-17119267D01*
X13050224Y-17040209D01*
X12885056Y-16999500D01*
X12714944Y-16999500D01*
X12549775Y-17040209D01*
X12399145Y-17119267D01*
X12271820Y-17232067D01*
X12271817Y-17232071D01*
X12175181Y-17372070D01*
X12114860Y-17531125D01*
X12094355Y-17700000D01*
X3912364Y-17700000D01*
X3856360Y-17664682D01*
X3779465Y-17628781D01*
X3775468Y-17626436D01*
X3751572Y-17615529D01*
X3730265Y-17605804D01*
X3729227Y-17605325D01*
X3729124Y-17605277D01*
X3718944Y-17600526D01*
X3684219Y-17584322D01*
X3679934Y-17582833D01*
X2396931Y-16997261D01*
X2389477Y-16993605D01*
X2081736Y-16831864D01*
X2069599Y-16824733D01*
X1780823Y-16636191D01*
X1769412Y-16627948D01*
X1499704Y-16412985D01*
X1489130Y-16403707D01*
X1329799Y-16250000D01*
X58344355Y-16250000D01*
X58364860Y-16418874D01*
X58425181Y-16577929D01*
X58425182Y-16577930D01*
X58521817Y-16717929D01*
X58646723Y-16828586D01*
X58649146Y-16830732D01*
X58649148Y-16830734D01*
X58799775Y-16909790D01*
X58964944Y-16950500D01*
X59135056Y-16950500D01*
X59300225Y-16909790D01*
X59450852Y-16830734D01*
X59578183Y-16717929D01*
X59674818Y-16577930D01*
X59735140Y-16418872D01*
X59755645Y-16250000D01*
X59735140Y-16081128D01*
X59674818Y-15922070D01*
X59578183Y-15782071D01*
X59578180Y-15782068D01*
X59578179Y-15782067D01*
X59450853Y-15669267D01*
X59450854Y-15669267D01*
X59300224Y-15590209D01*
X59135056Y-15549500D01*
X58964944Y-15549500D01*
X58799775Y-15590209D01*
X58649145Y-15669267D01*
X58521820Y-15782067D01*
X58521817Y-15782071D01*
X58425181Y-15922070D01*
X58364860Y-16081125D01*
X58344355Y-16250000D01*
X1329799Y-16250000D01*
X1240917Y-16164255D01*
X1231271Y-16154027D01*
X1006755Y-15892209D01*
X998117Y-15881115D01*
X803553Y-15605293D01*
X799323Y-15599296D01*
X791761Y-15587423D01*
X704969Y-15435777D01*
X620435Y-15288076D01*
X614049Y-15275586D01*
X471732Y-14961393D01*
X466552Y-14948350D01*
X354522Y-14622135D01*
X350590Y-14608639D01*
X331802Y-14530612D01*
X269848Y-14273319D01*
X267208Y-14259520D01*
X237302Y-14050000D01*
X4144706Y-14050000D01*
X4163854Y-14293304D01*
X4163855Y-14293309D01*
X4220828Y-14530614D01*
X4314221Y-14756086D01*
X4314224Y-14756091D01*
X4441736Y-14964172D01*
X4441738Y-14964174D01*
X4441741Y-14964179D01*
X4600241Y-15149759D01*
X4785821Y-15308259D01*
X4785825Y-15308261D01*
X4785827Y-15308263D01*
X4993908Y-15435775D01*
X4993913Y-15435778D01*
X5219385Y-15529171D01*
X5219386Y-15529171D01*
X5219388Y-15529172D01*
X5456698Y-15586146D01*
X5700000Y-15605294D01*
X5943302Y-15586146D01*
X6180612Y-15529172D01*
X6406089Y-15435777D01*
X6614179Y-15308259D01*
X6799759Y-15149759D01*
X6958259Y-14964179D01*
X7085777Y-14756089D01*
X7179172Y-14530612D01*
X7236146Y-14293302D01*
X7255294Y-14050000D01*
X7236146Y-13806698D01*
X7179172Y-13569388D01*
X7170733Y-13549015D01*
X7085778Y-13343913D01*
X7085775Y-13343908D01*
X6958263Y-13135827D01*
X6958261Y-13135825D01*
X6958259Y-13135821D01*
X6842257Y-13000000D01*
X11144706Y-13000000D01*
X11163854Y-13243304D01*
X11163855Y-13243309D01*
X11220828Y-13480614D01*
X11314221Y-13706086D01*
X11314224Y-13706091D01*
X11441736Y-13914172D01*
X11441738Y-13914174D01*
X11441741Y-13914179D01*
X11600241Y-14099759D01*
X11785821Y-14258259D01*
X11785825Y-14258261D01*
X11785827Y-14258263D01*
X11993908Y-14385775D01*
X11993913Y-14385778D01*
X12219385Y-14479171D01*
X12219386Y-14479171D01*
X12219388Y-14479172D01*
X12456698Y-14536146D01*
X12700000Y-14555294D01*
X12943302Y-14536146D01*
X13180612Y-14479172D01*
X13406089Y-14385777D01*
X13614179Y-14258259D01*
X13799759Y-14099759D01*
X13842257Y-14050000D01*
X23144706Y-14050000D01*
X23163854Y-14293304D01*
X23163855Y-14293309D01*
X23220828Y-14530614D01*
X23314221Y-14756086D01*
X23314224Y-14756091D01*
X23441736Y-14964172D01*
X23441738Y-14964174D01*
X23441741Y-14964179D01*
X23600241Y-15149759D01*
X23785821Y-15308259D01*
X23785825Y-15308261D01*
X23785827Y-15308263D01*
X23993908Y-15435775D01*
X23993913Y-15435778D01*
X24219385Y-15529171D01*
X24219386Y-15529171D01*
X24219388Y-15529172D01*
X24456698Y-15586146D01*
X24700000Y-15605294D01*
X24943302Y-15586146D01*
X25180612Y-15529172D01*
X25406089Y-15435777D01*
X25614179Y-15308259D01*
X25799759Y-15149759D01*
X25958259Y-14964179D01*
X26085777Y-14756089D01*
X26179172Y-14530612D01*
X26236146Y-14293302D01*
X26255294Y-14050000D01*
X26236146Y-13806698D01*
X26179172Y-13569388D01*
X26170733Y-13549015D01*
X26085778Y-13343913D01*
X26085775Y-13343908D01*
X25958263Y-13135827D01*
X25958261Y-13135825D01*
X25958259Y-13135821D01*
X25842257Y-13000000D01*
X30144706Y-13000000D01*
X30163854Y-13243304D01*
X30163855Y-13243309D01*
X30220828Y-13480614D01*
X30314221Y-13706086D01*
X30314224Y-13706091D01*
X30441736Y-13914172D01*
X30441738Y-13914174D01*
X30441741Y-13914179D01*
X30600241Y-14099759D01*
X30785821Y-14258259D01*
X30785825Y-14258261D01*
X30785827Y-14258263D01*
X30993908Y-14385775D01*
X30993913Y-14385778D01*
X31219385Y-14479171D01*
X31219386Y-14479171D01*
X31219388Y-14479172D01*
X31456698Y-14536146D01*
X31700000Y-14555294D01*
X31943302Y-14536146D01*
X32180612Y-14479172D01*
X32406089Y-14385777D01*
X32614179Y-14258259D01*
X32799759Y-14099759D01*
X32842257Y-14050000D01*
X42144706Y-14050000D01*
X42163854Y-14293304D01*
X42163855Y-14293309D01*
X42220828Y-14530614D01*
X42314221Y-14756086D01*
X42314224Y-14756091D01*
X42441736Y-14964172D01*
X42441738Y-14964174D01*
X42441741Y-14964179D01*
X42600241Y-15149759D01*
X42785821Y-15308259D01*
X42785825Y-15308261D01*
X42785827Y-15308263D01*
X42993908Y-15435775D01*
X42993913Y-15435778D01*
X43219385Y-15529171D01*
X43219386Y-15529171D01*
X43219388Y-15529172D01*
X43456698Y-15586146D01*
X43700000Y-15605294D01*
X43943302Y-15586146D01*
X44180612Y-15529172D01*
X44406089Y-15435777D01*
X44614179Y-15308259D01*
X44799759Y-15149759D01*
X44958259Y-14964179D01*
X45085777Y-14756089D01*
X45179172Y-14530612D01*
X45236146Y-14293302D01*
X45255294Y-14050000D01*
X45236146Y-13806698D01*
X45179172Y-13569388D01*
X45170733Y-13549015D01*
X45085778Y-13343913D01*
X45085775Y-13343908D01*
X44958263Y-13135827D01*
X44958261Y-13135825D01*
X44958259Y-13135821D01*
X44842257Y-13000000D01*
X49144706Y-13000000D01*
X49163854Y-13243304D01*
X49163855Y-13243309D01*
X49220828Y-13480614D01*
X49314221Y-13706086D01*
X49314224Y-13706091D01*
X49441736Y-13914172D01*
X49441738Y-13914174D01*
X49441741Y-13914179D01*
X49600241Y-14099759D01*
X49785821Y-14258259D01*
X49785825Y-14258261D01*
X49785827Y-14258263D01*
X49993908Y-14385775D01*
X49993913Y-14385778D01*
X50219385Y-14479171D01*
X50219386Y-14479171D01*
X50219388Y-14479172D01*
X50456698Y-14536146D01*
X50700000Y-14555294D01*
X50943302Y-14536146D01*
X51180612Y-14479172D01*
X51406089Y-14385777D01*
X51614179Y-14258259D01*
X51799759Y-14099759D01*
X51958259Y-13914179D01*
X52085777Y-13706089D01*
X52179172Y-13480612D01*
X52186521Y-13450000D01*
X57244355Y-13450000D01*
X57264860Y-13618874D01*
X57325181Y-13777929D01*
X57325182Y-13777930D01*
X57421817Y-13917929D01*
X57421819Y-13917930D01*
X57421820Y-13917932D01*
X57549146Y-14030732D01*
X57549148Y-14030734D01*
X57699775Y-14109790D01*
X57864944Y-14150500D01*
X58035056Y-14150500D01*
X58200225Y-14109790D01*
X58314144Y-14050000D01*
X61144706Y-14050000D01*
X61163854Y-14293304D01*
X61163855Y-14293309D01*
X61220828Y-14530614D01*
X61314221Y-14756086D01*
X61314224Y-14756091D01*
X61441736Y-14964172D01*
X61441738Y-14964174D01*
X61441741Y-14964179D01*
X61600241Y-15149759D01*
X61785821Y-15308259D01*
X61785825Y-15308261D01*
X61785827Y-15308263D01*
X61993908Y-15435775D01*
X61993913Y-15435778D01*
X62219385Y-15529171D01*
X62219386Y-15529171D01*
X62219388Y-15529172D01*
X62456698Y-15586146D01*
X62700000Y-15605294D01*
X62943302Y-15586146D01*
X63180612Y-15529172D01*
X63406089Y-15435777D01*
X63614179Y-15308259D01*
X63799759Y-15149759D01*
X63958259Y-14964179D01*
X64085777Y-14756089D01*
X64179172Y-14530612D01*
X64236146Y-14293302D01*
X64255294Y-14050000D01*
X64236146Y-13806698D01*
X64179172Y-13569388D01*
X64170733Y-13549015D01*
X64085778Y-13343913D01*
X64085775Y-13343908D01*
X63958263Y-13135827D01*
X63958261Y-13135825D01*
X63958259Y-13135821D01*
X63842257Y-13000000D01*
X68144706Y-13000000D01*
X68163854Y-13243304D01*
X68163855Y-13243309D01*
X68220828Y-13480614D01*
X68314221Y-13706086D01*
X68314224Y-13706091D01*
X68441736Y-13914172D01*
X68441738Y-13914174D01*
X68441741Y-13914179D01*
X68600241Y-14099759D01*
X68785821Y-14258259D01*
X68785825Y-14258261D01*
X68785827Y-14258263D01*
X68993908Y-14385775D01*
X68993913Y-14385778D01*
X69219385Y-14479171D01*
X69219386Y-14479171D01*
X69219388Y-14479172D01*
X69456698Y-14536146D01*
X69700000Y-14555294D01*
X69943302Y-14536146D01*
X70180612Y-14479172D01*
X70406089Y-14385777D01*
X70614179Y-14258259D01*
X70799759Y-14099759D01*
X70842257Y-14050000D01*
X80144706Y-14050000D01*
X80163854Y-14293304D01*
X80163855Y-14293309D01*
X80220828Y-14530614D01*
X80314221Y-14756086D01*
X80314224Y-14756091D01*
X80441736Y-14964172D01*
X80441738Y-14964174D01*
X80441741Y-14964179D01*
X80600241Y-15149759D01*
X80785821Y-15308259D01*
X80785825Y-15308261D01*
X80785827Y-15308263D01*
X80993908Y-15435775D01*
X80993913Y-15435778D01*
X81219385Y-15529171D01*
X81219386Y-15529171D01*
X81219388Y-15529172D01*
X81456698Y-15586146D01*
X81700000Y-15605294D01*
X81943302Y-15586146D01*
X82180612Y-15529172D01*
X82406089Y-15435777D01*
X82614179Y-15308259D01*
X82799759Y-15149759D01*
X82958259Y-14964179D01*
X83085777Y-14756089D01*
X83179172Y-14530612D01*
X83236146Y-14293302D01*
X83255294Y-14050000D01*
X83236146Y-13806698D01*
X83179172Y-13569388D01*
X83170733Y-13549015D01*
X83085778Y-13343913D01*
X83085775Y-13343908D01*
X82958263Y-13135827D01*
X82958261Y-13135825D01*
X82958259Y-13135821D01*
X82842257Y-13000000D01*
X87144706Y-13000000D01*
X87163854Y-13243304D01*
X87163855Y-13243309D01*
X87220828Y-13480614D01*
X87314221Y-13706086D01*
X87314224Y-13706091D01*
X87441736Y-13914172D01*
X87441738Y-13914174D01*
X87441741Y-13914179D01*
X87600241Y-14099759D01*
X87785821Y-14258259D01*
X87785825Y-14258261D01*
X87785827Y-14258263D01*
X87993908Y-14385775D01*
X87993913Y-14385778D01*
X88219385Y-14479171D01*
X88219386Y-14479171D01*
X88219388Y-14479172D01*
X88456698Y-14536146D01*
X88700000Y-14555294D01*
X88943302Y-14536146D01*
X89180612Y-14479172D01*
X89406089Y-14385777D01*
X89614179Y-14258259D01*
X89799759Y-14099759D01*
X89958259Y-13914179D01*
X90085777Y-13706089D01*
X90179172Y-13480612D01*
X90236146Y-13243302D01*
X90255294Y-13000000D01*
X90236146Y-12756698D01*
X90179172Y-12519388D01*
X90168948Y-12494706D01*
X90085778Y-12293913D01*
X90085775Y-12293908D01*
X89958263Y-12085827D01*
X89958261Y-12085825D01*
X89958259Y-12085821D01*
X89799759Y-11900241D01*
X89614179Y-11741741D01*
X89614174Y-11741738D01*
X89614172Y-11741736D01*
X89406091Y-11614224D01*
X89406086Y-11614221D01*
X89180614Y-11520828D01*
X88943309Y-11463855D01*
X88943304Y-11463854D01*
X88700000Y-11444706D01*
X88456695Y-11463854D01*
X88456690Y-11463855D01*
X88219385Y-11520828D01*
X87993913Y-11614221D01*
X87993908Y-11614224D01*
X87785827Y-11741736D01*
X87600241Y-11900241D01*
X87441736Y-12085827D01*
X87314224Y-12293908D01*
X87314221Y-12293913D01*
X87220828Y-12519385D01*
X87163855Y-12756690D01*
X87163854Y-12756695D01*
X87144706Y-13000000D01*
X82842257Y-13000000D01*
X82799759Y-12950241D01*
X82614179Y-12791741D01*
X82614174Y-12791738D01*
X82614172Y-12791736D01*
X82406091Y-12664224D01*
X82406086Y-12664221D01*
X82180614Y-12570828D01*
X81943309Y-12513855D01*
X81943304Y-12513854D01*
X81700000Y-12494706D01*
X81456695Y-12513854D01*
X81456690Y-12513855D01*
X81219385Y-12570828D01*
X80993913Y-12664221D01*
X80993908Y-12664224D01*
X80785827Y-12791736D01*
X80785821Y-12791740D01*
X80785821Y-12791741D01*
X80600241Y-12950241D01*
X80453486Y-13122070D01*
X80441736Y-13135827D01*
X80314224Y-13343908D01*
X80314221Y-13343913D01*
X80220828Y-13569385D01*
X80163855Y-13806690D01*
X80163854Y-13806695D01*
X80144706Y-14050000D01*
X70842257Y-14050000D01*
X70958259Y-13914179D01*
X71085777Y-13706089D01*
X71179172Y-13480612D01*
X71236146Y-13243302D01*
X71255294Y-13000000D01*
X71236146Y-12756698D01*
X71179172Y-12519388D01*
X71168948Y-12494706D01*
X71085778Y-12293913D01*
X71085775Y-12293908D01*
X70958263Y-12085827D01*
X70958261Y-12085825D01*
X70958259Y-12085821D01*
X70799759Y-11900241D01*
X70614179Y-11741741D01*
X70614174Y-11741738D01*
X70614172Y-11741736D01*
X70406091Y-11614224D01*
X70406086Y-11614221D01*
X70180614Y-11520828D01*
X69943309Y-11463855D01*
X69943304Y-11463854D01*
X69700000Y-11444706D01*
X69456695Y-11463854D01*
X69456690Y-11463855D01*
X69219385Y-11520828D01*
X68993913Y-11614221D01*
X68993908Y-11614224D01*
X68785827Y-11741736D01*
X68600241Y-11900241D01*
X68441736Y-12085827D01*
X68314224Y-12293908D01*
X68314221Y-12293913D01*
X68220828Y-12519385D01*
X68163855Y-12756690D01*
X68163854Y-12756695D01*
X68144706Y-13000000D01*
X63842257Y-13000000D01*
X63799759Y-12950241D01*
X63614179Y-12791741D01*
X63614174Y-12791738D01*
X63614172Y-12791736D01*
X63406091Y-12664224D01*
X63406086Y-12664221D01*
X63180614Y-12570828D01*
X62943309Y-12513855D01*
X62943304Y-12513854D01*
X62700000Y-12494706D01*
X62456695Y-12513854D01*
X62456690Y-12513855D01*
X62219385Y-12570828D01*
X61993913Y-12664221D01*
X61993908Y-12664224D01*
X61785827Y-12791736D01*
X61785821Y-12791740D01*
X61785821Y-12791741D01*
X61600241Y-12950241D01*
X61453486Y-13122070D01*
X61441736Y-13135827D01*
X61314224Y-13343908D01*
X61314221Y-13343913D01*
X61220828Y-13569385D01*
X61163855Y-13806690D01*
X61163854Y-13806695D01*
X61144706Y-14050000D01*
X58314144Y-14050000D01*
X58350852Y-14030734D01*
X58478183Y-13917929D01*
X58574818Y-13777930D01*
X58635140Y-13618872D01*
X58655645Y-13450000D01*
X58635140Y-13281128D01*
X58620795Y-13243304D01*
X58574818Y-13122070D01*
X58478183Y-12982071D01*
X58478180Y-12982068D01*
X58478179Y-12982067D01*
X58350853Y-12869267D01*
X58350854Y-12869267D01*
X58200224Y-12790209D01*
X58035056Y-12749500D01*
X57864944Y-12749500D01*
X57699775Y-12790209D01*
X57549145Y-12869267D01*
X57421820Y-12982067D01*
X57421817Y-12982071D01*
X57325181Y-13122070D01*
X57264860Y-13281125D01*
X57244355Y-13450000D01*
X52186521Y-13450000D01*
X52236146Y-13243302D01*
X52255294Y-13000000D01*
X52236146Y-12756698D01*
X52179172Y-12519388D01*
X52168948Y-12494706D01*
X52085778Y-12293913D01*
X52085775Y-12293908D01*
X51958263Y-12085827D01*
X51958261Y-12085825D01*
X51958259Y-12085821D01*
X51799759Y-11900241D01*
X51614179Y-11741741D01*
X51614174Y-11741738D01*
X51614172Y-11741736D01*
X51406091Y-11614224D01*
X51406086Y-11614221D01*
X51180614Y-11520828D01*
X50943309Y-11463855D01*
X50943304Y-11463854D01*
X50700000Y-11444706D01*
X50456695Y-11463854D01*
X50456690Y-11463855D01*
X50219385Y-11520828D01*
X49993913Y-11614221D01*
X49993908Y-11614224D01*
X49785827Y-11741736D01*
X49600241Y-11900241D01*
X49441736Y-12085827D01*
X49314224Y-12293908D01*
X49314221Y-12293913D01*
X49220828Y-12519385D01*
X49163855Y-12756690D01*
X49163854Y-12756695D01*
X49144706Y-13000000D01*
X44842257Y-13000000D01*
X44799759Y-12950241D01*
X44614179Y-12791741D01*
X44614174Y-12791738D01*
X44614172Y-12791736D01*
X44406091Y-12664224D01*
X44406086Y-12664221D01*
X44180614Y-12570828D01*
X43943309Y-12513855D01*
X43943304Y-12513854D01*
X43700000Y-12494706D01*
X43456695Y-12513854D01*
X43456690Y-12513855D01*
X43219385Y-12570828D01*
X42993913Y-12664221D01*
X42993908Y-12664224D01*
X42785827Y-12791736D01*
X42785821Y-12791740D01*
X42785821Y-12791741D01*
X42600241Y-12950241D01*
X42453486Y-13122070D01*
X42441736Y-13135827D01*
X42314224Y-13343908D01*
X42314221Y-13343913D01*
X42220828Y-13569385D01*
X42163855Y-13806690D01*
X42163854Y-13806695D01*
X42144706Y-14050000D01*
X32842257Y-14050000D01*
X32958259Y-13914179D01*
X33085777Y-13706089D01*
X33179172Y-13480612D01*
X33236146Y-13243302D01*
X33255294Y-13000000D01*
X33236146Y-12756698D01*
X33179172Y-12519388D01*
X33168948Y-12494706D01*
X33085778Y-12293913D01*
X33085775Y-12293908D01*
X32958263Y-12085827D01*
X32958261Y-12085825D01*
X32958259Y-12085821D01*
X32799759Y-11900241D01*
X32614179Y-11741741D01*
X32614174Y-11741738D01*
X32614172Y-11741736D01*
X32406091Y-11614224D01*
X32406086Y-11614221D01*
X32180614Y-11520828D01*
X31943309Y-11463855D01*
X31943304Y-11463854D01*
X31700000Y-11444706D01*
X31456695Y-11463854D01*
X31456690Y-11463855D01*
X31219385Y-11520828D01*
X30993913Y-11614221D01*
X30993908Y-11614224D01*
X30785827Y-11741736D01*
X30600241Y-11900241D01*
X30441736Y-12085827D01*
X30314224Y-12293908D01*
X30314221Y-12293913D01*
X30220828Y-12519385D01*
X30163855Y-12756690D01*
X30163854Y-12756695D01*
X30144706Y-13000000D01*
X25842257Y-13000000D01*
X25799759Y-12950241D01*
X25614179Y-12791741D01*
X25614174Y-12791738D01*
X25614172Y-12791736D01*
X25406091Y-12664224D01*
X25406086Y-12664221D01*
X25180614Y-12570828D01*
X24943309Y-12513855D01*
X24943304Y-12513854D01*
X24700000Y-12494706D01*
X24456695Y-12513854D01*
X24456690Y-12513855D01*
X24219385Y-12570828D01*
X23993913Y-12664221D01*
X23993908Y-12664224D01*
X23785827Y-12791736D01*
X23785821Y-12791740D01*
X23785821Y-12791741D01*
X23600241Y-12950241D01*
X23453486Y-13122070D01*
X23441736Y-13135827D01*
X23314224Y-13343908D01*
X23314221Y-13343913D01*
X23220828Y-13569385D01*
X23163855Y-13806690D01*
X23163854Y-13806695D01*
X23144706Y-14050000D01*
X13842257Y-14050000D01*
X13958259Y-13914179D01*
X14085777Y-13706089D01*
X14179172Y-13480612D01*
X14236146Y-13243302D01*
X14255294Y-13000000D01*
X14236146Y-12756698D01*
X14179172Y-12519388D01*
X14168948Y-12494706D01*
X14085778Y-12293913D01*
X14085775Y-12293908D01*
X13958263Y-12085827D01*
X13958261Y-12085825D01*
X13958259Y-12085821D01*
X13799759Y-11900241D01*
X13614179Y-11741741D01*
X13614174Y-11741738D01*
X13614172Y-11741736D01*
X13406091Y-11614224D01*
X13406086Y-11614221D01*
X13180614Y-11520828D01*
X12943309Y-11463855D01*
X12943304Y-11463854D01*
X12700000Y-11444706D01*
X12456695Y-11463854D01*
X12456690Y-11463855D01*
X12219385Y-11520828D01*
X11993913Y-11614221D01*
X11993908Y-11614224D01*
X11785827Y-11741736D01*
X11600241Y-11900241D01*
X11441736Y-12085827D01*
X11314224Y-12293908D01*
X11314221Y-12293913D01*
X11220828Y-12519385D01*
X11163855Y-12756690D01*
X11163854Y-12756695D01*
X11144706Y-13000000D01*
X6842257Y-13000000D01*
X6799759Y-12950241D01*
X6614179Y-12791741D01*
X6614174Y-12791738D01*
X6614172Y-12791736D01*
X6406091Y-12664224D01*
X6406086Y-12664221D01*
X6180614Y-12570828D01*
X5943309Y-12513855D01*
X5943304Y-12513854D01*
X5700000Y-12494706D01*
X5456695Y-12513854D01*
X5456690Y-12513855D01*
X5219385Y-12570828D01*
X4993913Y-12664221D01*
X4993908Y-12664224D01*
X4785827Y-12791736D01*
X4785821Y-12791740D01*
X4785821Y-12791741D01*
X4600241Y-12950241D01*
X4453486Y-13122070D01*
X4441736Y-13135827D01*
X4314224Y-13343908D01*
X4314221Y-13343913D01*
X4220828Y-13569385D01*
X4163855Y-13806690D01*
X4163854Y-13806695D01*
X4144706Y-14050000D01*
X237302Y-14050000D01*
X218474Y-13918091D01*
X217146Y-13904082D01*
X200669Y-13555768D01*
X200505Y-13548836D01*
X200502Y-7800000D01*
X2094355Y-7800000D01*
X2114860Y-7968874D01*
X2175181Y-8127929D01*
X2175182Y-8127930D01*
X2271817Y-8267929D01*
X2271819Y-8267930D01*
X2271820Y-8267932D01*
X2399146Y-8380732D01*
X2399148Y-8380734D01*
X2549775Y-8459790D01*
X2714944Y-8500500D01*
X2885056Y-8500500D01*
X3050225Y-8459790D01*
X3200852Y-8380734D01*
X3328183Y-8267929D01*
X3417511Y-8138516D01*
X5424500Y-8138516D01*
X5424500Y-8461483D01*
X5460661Y-8782428D01*
X5532526Y-9097289D01*
X5532527Y-9097291D01*
X5532528Y-9097295D01*
X5544697Y-9132071D01*
X5639197Y-9402138D01*
X5779329Y-9693125D01*
X5926866Y-9927930D01*
X5951159Y-9966591D01*
X6152527Y-10219099D01*
X6380901Y-10447473D01*
X6633409Y-10648841D01*
X6906875Y-10820671D01*
X7197860Y-10960802D01*
X7502705Y-11067472D01*
X7589776Y-11087345D01*
X7817571Y-11139338D01*
X7817574Y-11139338D01*
X7817577Y-11139339D01*
X8138515Y-11175500D01*
X8138516Y-11175500D01*
X8461484Y-11175500D01*
X8461485Y-11175500D01*
X8782423Y-11139339D01*
X8782426Y-11139338D01*
X8782428Y-11139338D01*
X8869494Y-11119465D01*
X9097295Y-11067472D01*
X9402140Y-10960802D01*
X9693125Y-10820671D01*
X9966591Y-10648841D01*
X10219099Y-10447473D01*
X10447473Y-10219099D01*
X10648841Y-9966591D01*
X10820671Y-9693125D01*
X10960802Y-9402140D01*
X11067472Y-9097295D01*
X11139339Y-8782423D01*
X11175500Y-8461485D01*
X11175500Y-8138516D01*
X24424500Y-8138516D01*
X24424500Y-8461483D01*
X24460661Y-8782428D01*
X24532526Y-9097289D01*
X24532527Y-9097291D01*
X24532528Y-9097295D01*
X24544697Y-9132071D01*
X24639197Y-9402138D01*
X24779329Y-9693125D01*
X24926866Y-9927930D01*
X24951159Y-9966591D01*
X25152527Y-10219099D01*
X25380901Y-10447473D01*
X25633409Y-10648841D01*
X25906875Y-10820671D01*
X26197860Y-10960802D01*
X26502705Y-11067472D01*
X26589776Y-11087345D01*
X26817571Y-11139338D01*
X26817574Y-11139338D01*
X26817577Y-11139339D01*
X27138515Y-11175500D01*
X27138516Y-11175500D01*
X27461484Y-11175500D01*
X27461485Y-11175500D01*
X27782423Y-11139339D01*
X27782426Y-11139338D01*
X27782428Y-11139338D01*
X27869494Y-11119465D01*
X28097295Y-11067472D01*
X28402140Y-10960802D01*
X28693125Y-10820671D01*
X28966591Y-10648841D01*
X29219099Y-10447473D01*
X29447473Y-10219099D01*
X29648841Y-9966591D01*
X29820671Y-9693125D01*
X29960802Y-9402140D01*
X30067472Y-9097295D01*
X30139339Y-8782423D01*
X30175500Y-8461485D01*
X30175500Y-8138516D01*
X43424500Y-8138516D01*
X43424500Y-8461483D01*
X43460661Y-8782428D01*
X43532526Y-9097289D01*
X43532527Y-9097291D01*
X43532528Y-9097295D01*
X43544697Y-9132071D01*
X43639197Y-9402138D01*
X43779329Y-9693125D01*
X43926866Y-9927930D01*
X43951159Y-9966591D01*
X44152527Y-10219099D01*
X44380901Y-10447473D01*
X44633409Y-10648841D01*
X44906875Y-10820671D01*
X45197860Y-10960802D01*
X45502705Y-11067472D01*
X45589776Y-11087345D01*
X45817571Y-11139338D01*
X45817574Y-11139338D01*
X45817577Y-11139339D01*
X46138515Y-11175500D01*
X46138516Y-11175500D01*
X46461484Y-11175500D01*
X46461485Y-11175500D01*
X46782423Y-11139339D01*
X46782426Y-11139338D01*
X46782428Y-11139338D01*
X46869494Y-11119465D01*
X47097295Y-11067472D01*
X47402140Y-10960802D01*
X47693125Y-10820671D01*
X47900175Y-10690573D01*
X55011152Y-10690573D01*
X55011152Y-10690577D01*
X55029211Y-10827751D01*
X55029212Y-10827754D01*
X55029213Y-10827758D01*
X55082163Y-10955593D01*
X55082164Y-10955595D01*
X55082165Y-10955596D01*
X55166394Y-11065364D01*
X55166397Y-11065367D01*
X55169142Y-11067473D01*
X55276169Y-11149599D01*
X55404004Y-11202549D01*
X55404009Y-11202549D01*
X55404010Y-11202550D01*
X55541184Y-11220610D01*
X55541187Y-11220610D01*
X55541190Y-11220610D01*
X55678363Y-11202550D01*
X55678363Y-11202549D01*
X55678370Y-11202549D01*
X55806205Y-11149599D01*
X55915978Y-11065366D01*
X56000211Y-10955593D01*
X56053161Y-10827758D01*
X56054094Y-10820670D01*
X56071222Y-10690577D01*
X56071222Y-10690573D01*
X56065727Y-10648841D01*
X56053161Y-10553392D01*
X56016927Y-10465914D01*
X56000212Y-10425559D01*
X55976736Y-10394965D01*
X55967570Y-10383019D01*
X55938055Y-10311765D01*
X55948121Y-10235297D01*
X55967569Y-10201611D01*
X55996644Y-10163720D01*
X56057833Y-10116770D01*
X56134301Y-10106703D01*
X56205558Y-10136219D01*
X56233061Y-10163721D01*
X56262134Y-10201609D01*
X56317009Y-10273122D01*
X56426782Y-10357355D01*
X56554617Y-10410305D01*
X56554622Y-10410305D01*
X56554623Y-10410306D01*
X56691797Y-10428366D01*
X56691800Y-10428366D01*
X56691803Y-10428366D01*
X56828976Y-10410306D01*
X56828976Y-10410305D01*
X56828983Y-10410305D01*
X56956818Y-10357355D01*
X57066591Y-10273122D01*
X57150824Y-10163349D01*
X57203774Y-10035514D01*
X57203775Y-10035507D01*
X57221835Y-9898333D01*
X57221835Y-9898329D01*
X57217632Y-9866409D01*
X57203774Y-9761148D01*
X57178446Y-9700000D01*
X58044355Y-9700000D01*
X58064860Y-9868874D01*
X58125181Y-10027929D01*
X58152794Y-10067932D01*
X58221817Y-10167929D01*
X58221819Y-10167930D01*
X58221820Y-10167932D01*
X58349146Y-10280732D01*
X58349148Y-10280734D01*
X58499775Y-10359790D01*
X58506828Y-10361528D01*
X58574384Y-10398738D01*
X58614286Y-10464743D01*
X58615840Y-10541855D01*
X58589378Y-10596904D01*
X58540975Y-10659982D01*
X58488026Y-10787815D01*
X58488026Y-10787816D01*
X58469965Y-10924998D01*
X58469965Y-10925002D01*
X58488024Y-11062176D01*
X58488025Y-11062179D01*
X58488026Y-11062183D01*
X58540976Y-11190018D01*
X58540977Y-11190020D01*
X58540978Y-11190021D01*
X58625207Y-11299789D01*
X58625210Y-11299792D01*
X58731356Y-11381242D01*
X58778308Y-11442432D01*
X58788375Y-11518900D01*
X58758859Y-11590157D01*
X58731357Y-11617660D01*
X58623784Y-11700205D01*
X58623777Y-11700210D01*
X58623776Y-11700211D01*
X58539544Y-11809982D01*
X58486595Y-11937815D01*
X58486595Y-11937816D01*
X58468534Y-12074998D01*
X58468534Y-12075002D01*
X58486593Y-12212176D01*
X58486594Y-12212179D01*
X58486595Y-12212183D01*
X58539545Y-12340018D01*
X58539546Y-12340020D01*
X58539547Y-12340021D01*
X58623776Y-12449789D01*
X58623779Y-12449792D01*
X58714473Y-12519385D01*
X58733551Y-12534024D01*
X58861386Y-12586974D01*
X58861391Y-12586974D01*
X58861392Y-12586975D01*
X58998566Y-12605035D01*
X58998569Y-12605035D01*
X58998572Y-12605035D01*
X59135745Y-12586975D01*
X59135745Y-12586974D01*
X59135752Y-12586974D01*
X59263587Y-12534024D01*
X59373360Y-12449791D01*
X59457593Y-12340018D01*
X59510543Y-12212183D01*
X59527179Y-12085827D01*
X59528604Y-12075002D01*
X59528604Y-12074998D01*
X59524401Y-12043078D01*
X59510543Y-11937817D01*
X59457593Y-11809983D01*
X59457593Y-11809982D01*
X59421020Y-11762321D01*
X59373360Y-11700209D01*
X59373357Y-11700207D01*
X59373356Y-11700205D01*
X59267213Y-11618758D01*
X59220261Y-11557568D01*
X59210194Y-11481100D01*
X59239710Y-11409843D01*
X59267213Y-11382340D01*
X59306453Y-11352229D01*
X59374791Y-11299791D01*
X59459024Y-11190018D01*
X59511974Y-11062183D01*
X59511975Y-11062176D01*
X59530035Y-10925002D01*
X59530035Y-10924998D01*
X59517232Y-10827758D01*
X59511974Y-10787817D01*
X59496463Y-10750371D01*
X59459024Y-10659982D01*
X59422451Y-10612321D01*
X59374791Y-10550209D01*
X59374788Y-10550207D01*
X59374787Y-10550205D01*
X59265017Y-10465975D01*
X59265018Y-10465975D01*
X59264870Y-10465914D01*
X59264742Y-10465816D01*
X59256563Y-10461094D01*
X59257185Y-10460016D01*
X59203684Y-10418957D01*
X59174173Y-10347697D01*
X59184246Y-10271230D01*
X59223094Y-10216732D01*
X59278183Y-10167929D01*
X59374818Y-10027930D01*
X59435140Y-9868872D01*
X59455645Y-9700000D01*
X59435140Y-9531128D01*
X59397215Y-9431128D01*
X59374818Y-9372070D01*
X59365022Y-9357878D01*
X59278183Y-9232071D01*
X59278180Y-9232068D01*
X59278179Y-9232067D01*
X59150853Y-9119267D01*
X59150854Y-9119267D01*
X59000224Y-9040209D01*
X58835056Y-8999500D01*
X58664944Y-8999500D01*
X58499775Y-9040209D01*
X58349145Y-9119267D01*
X58221820Y-9232067D01*
X58221817Y-9232071D01*
X58125181Y-9372070D01*
X58064860Y-9531125D01*
X58044355Y-9700000D01*
X57178446Y-9700000D01*
X57150824Y-9633314D01*
X57150824Y-9633313D01*
X57114251Y-9585652D01*
X57066591Y-9523540D01*
X57066588Y-9523538D01*
X57066587Y-9523536D01*
X56956821Y-9439309D01*
X56956820Y-9439308D01*
X56956818Y-9439307D01*
X56828983Y-9386357D01*
X56828979Y-9386356D01*
X56828976Y-9386355D01*
X56691803Y-9368296D01*
X56691799Y-9368296D01*
X56554616Y-9386357D01*
X56554615Y-9386357D01*
X56426782Y-9439306D01*
X56317011Y-9523538D01*
X56317010Y-9523539D01*
X56317009Y-9523540D01*
X56281817Y-9569401D01*
X56241056Y-9622523D01*
X56179865Y-9669475D01*
X56103397Y-9679541D01*
X56032140Y-9650025D01*
X56004638Y-9622523D01*
X55987355Y-9600000D01*
X55920691Y-9513122D01*
X55920687Y-9513118D01*
X55810921Y-9428891D01*
X55810920Y-9428890D01*
X55810918Y-9428889D01*
X55683083Y-9375939D01*
X55683079Y-9375938D01*
X55683076Y-9375937D01*
X55545903Y-9357878D01*
X55545899Y-9357878D01*
X55408716Y-9375939D01*
X55408715Y-9375939D01*
X55280882Y-9428888D01*
X55171111Y-9513120D01*
X55171107Y-9513124D01*
X55086875Y-9622895D01*
X55033926Y-9750728D01*
X55033926Y-9750729D01*
X55015865Y-9887911D01*
X55015865Y-9887915D01*
X55033924Y-10025089D01*
X55033925Y-10025092D01*
X55033926Y-10025096D01*
X55086876Y-10152931D01*
X55108210Y-10180734D01*
X55119515Y-10195466D01*
X55149031Y-10266723D01*
X55138965Y-10343192D01*
X55119516Y-10376879D01*
X55082161Y-10425559D01*
X55029213Y-10553390D01*
X55029213Y-10553391D01*
X55011152Y-10690573D01*
X47900175Y-10690573D01*
X47966591Y-10648841D01*
X48219099Y-10447473D01*
X48447473Y-10219099D01*
X48648841Y-9966591D01*
X48820671Y-9693125D01*
X48865518Y-9600000D01*
X52694355Y-9600000D01*
X52714860Y-9768874D01*
X52775181Y-9927929D01*
X52775182Y-9927930D01*
X52871817Y-10067929D01*
X52984697Y-10167932D01*
X52999146Y-10180732D01*
X52999148Y-10180734D01*
X53149775Y-10259790D01*
X53314944Y-10300500D01*
X53485056Y-10300500D01*
X53650225Y-10259790D01*
X53800852Y-10180734D01*
X53928183Y-10067929D01*
X54024818Y-9927930D01*
X54085140Y-9768872D01*
X54105645Y-9600000D01*
X54085140Y-9431128D01*
X54084290Y-9428888D01*
X54024818Y-9272070D01*
X53997208Y-9232071D01*
X53928183Y-9132071D01*
X53928180Y-9132068D01*
X53928179Y-9132067D01*
X53800853Y-9019267D01*
X53800854Y-9019267D01*
X53650224Y-8940209D01*
X53485056Y-8899500D01*
X53314944Y-8899500D01*
X53149775Y-8940209D01*
X52999145Y-9019267D01*
X52871820Y-9132067D01*
X52871817Y-9132071D01*
X52775181Y-9272070D01*
X52714860Y-9431125D01*
X52694355Y-9600000D01*
X48865518Y-9600000D01*
X48960802Y-9402140D01*
X49067472Y-9097295D01*
X49139339Y-8782423D01*
X49175500Y-8461485D01*
X49175500Y-8138516D01*
X62424500Y-8138516D01*
X62424500Y-8461483D01*
X62460661Y-8782428D01*
X62532526Y-9097289D01*
X62532527Y-9097291D01*
X62532528Y-9097295D01*
X62544697Y-9132071D01*
X62639197Y-9402138D01*
X62779329Y-9693125D01*
X62926866Y-9927930D01*
X62951159Y-9966591D01*
X63152527Y-10219099D01*
X63380901Y-10447473D01*
X63633409Y-10648841D01*
X63906875Y-10820671D01*
X64197860Y-10960802D01*
X64502705Y-11067472D01*
X64589776Y-11087345D01*
X64817571Y-11139338D01*
X64817574Y-11139338D01*
X64817577Y-11139339D01*
X65138515Y-11175500D01*
X65138516Y-11175500D01*
X65461484Y-11175500D01*
X65461485Y-11175500D01*
X65782423Y-11139339D01*
X65782426Y-11139338D01*
X65782428Y-11139338D01*
X65869494Y-11119465D01*
X66097295Y-11067472D01*
X66402140Y-10960802D01*
X66693125Y-10820671D01*
X66966591Y-10648841D01*
X67219099Y-10447473D01*
X67447473Y-10219099D01*
X67648841Y-9966591D01*
X67820671Y-9693125D01*
X67960802Y-9402140D01*
X68067472Y-9097295D01*
X68139339Y-8782423D01*
X68175500Y-8461485D01*
X68175500Y-8138516D01*
X81424500Y-8138516D01*
X81424500Y-8461483D01*
X81460661Y-8782428D01*
X81532526Y-9097289D01*
X81532527Y-9097291D01*
X81532528Y-9097295D01*
X81544697Y-9132071D01*
X81639197Y-9402138D01*
X81779329Y-9693125D01*
X81926866Y-9927930D01*
X81951159Y-9966591D01*
X82152527Y-10219099D01*
X82380901Y-10447473D01*
X82633409Y-10648841D01*
X82906875Y-10820671D01*
X83197860Y-10960802D01*
X83502705Y-11067472D01*
X83589776Y-11087345D01*
X83817571Y-11139338D01*
X83817574Y-11139338D01*
X83817577Y-11139339D01*
X84138515Y-11175500D01*
X84138516Y-11175500D01*
X84461484Y-11175500D01*
X84461485Y-11175500D01*
X84782423Y-11139339D01*
X84782426Y-11139338D01*
X84782428Y-11139338D01*
X84869494Y-11119465D01*
X85097295Y-11067472D01*
X85402140Y-10960802D01*
X85693125Y-10820671D01*
X85966591Y-10648841D01*
X86219099Y-10447473D01*
X86447473Y-10219099D01*
X86648841Y-9966591D01*
X86820671Y-9693125D01*
X86960802Y-9402140D01*
X87067472Y-9097295D01*
X87139339Y-8782423D01*
X87175500Y-8461485D01*
X87175500Y-8138515D01*
X87139339Y-7817577D01*
X87135327Y-7800000D01*
X87067473Y-7502710D01*
X87067472Y-7502705D01*
X86960802Y-7197860D01*
X86820671Y-6906875D01*
X86648841Y-6633409D01*
X86447473Y-6380901D01*
X86219099Y-6152527D01*
X85966591Y-5951159D01*
X85966589Y-5951158D01*
X85966587Y-5951156D01*
X85693125Y-5779329D01*
X85402138Y-5639197D01*
X85271384Y-5593444D01*
X85097295Y-5532528D01*
X85097291Y-5532527D01*
X85097289Y-5532526D01*
X84782428Y-5460661D01*
X84491918Y-5427929D01*
X84461485Y-5424500D01*
X84138515Y-5424500D01*
X84108082Y-5427929D01*
X83817571Y-5460661D01*
X83502710Y-5532526D01*
X83502708Y-5532527D01*
X83197861Y-5639197D01*
X82906874Y-5779329D01*
X82633412Y-5951156D01*
X82380896Y-6152531D01*
X82152531Y-6380896D01*
X81951156Y-6633412D01*
X81779329Y-6906874D01*
X81639197Y-7197861D01*
X81532527Y-7502708D01*
X81532526Y-7502710D01*
X81460661Y-7817571D01*
X81424500Y-8138516D01*
X68175500Y-8138516D01*
X68175500Y-8138515D01*
X68139339Y-7817577D01*
X68135327Y-7800000D01*
X68067473Y-7502710D01*
X68067472Y-7502705D01*
X67960802Y-7197860D01*
X67820671Y-6906875D01*
X67648841Y-6633409D01*
X67447473Y-6380901D01*
X67219099Y-6152527D01*
X66966591Y-5951159D01*
X66966589Y-5951158D01*
X66966587Y-5951156D01*
X66693125Y-5779329D01*
X66402138Y-5639197D01*
X66271384Y-5593444D01*
X66097295Y-5532528D01*
X66097291Y-5532527D01*
X66097289Y-5532526D01*
X65782428Y-5460661D01*
X65491918Y-5427929D01*
X65461485Y-5424500D01*
X65138515Y-5424500D01*
X65108082Y-5427929D01*
X64817571Y-5460661D01*
X64502710Y-5532526D01*
X64502708Y-5532527D01*
X64197861Y-5639197D01*
X63906874Y-5779329D01*
X63633412Y-5951156D01*
X63380896Y-6152531D01*
X63152531Y-6380896D01*
X62951156Y-6633412D01*
X62779329Y-6906874D01*
X62639197Y-7197861D01*
X62532527Y-7502708D01*
X62532526Y-7502710D01*
X62460661Y-7817571D01*
X62424500Y-8138516D01*
X49175500Y-8138516D01*
X49175500Y-8138515D01*
X49139339Y-7817577D01*
X49135327Y-7800000D01*
X49067473Y-7502710D01*
X49067472Y-7502705D01*
X48960802Y-7197860D01*
X48820671Y-6906875D01*
X48648841Y-6633409D01*
X48447473Y-6380901D01*
X48219099Y-6152527D01*
X47966591Y-5951159D01*
X47966589Y-5951158D01*
X47966587Y-5951156D01*
X47693125Y-5779329D01*
X47402138Y-5639197D01*
X47271384Y-5593444D01*
X47097295Y-5532528D01*
X47097291Y-5532527D01*
X47097289Y-5532526D01*
X46782428Y-5460661D01*
X46491918Y-5427929D01*
X46461485Y-5424500D01*
X46138515Y-5424500D01*
X46108082Y-5427929D01*
X45817571Y-5460661D01*
X45502710Y-5532526D01*
X45502708Y-5532527D01*
X45197861Y-5639197D01*
X44906874Y-5779329D01*
X44633412Y-5951156D01*
X44380896Y-6152531D01*
X44152531Y-6380896D01*
X43951156Y-6633412D01*
X43779329Y-6906874D01*
X43639197Y-7197861D01*
X43532527Y-7502708D01*
X43532526Y-7502710D01*
X43460661Y-7817571D01*
X43424500Y-8138516D01*
X30175500Y-8138516D01*
X30175500Y-8138515D01*
X30139339Y-7817577D01*
X30135327Y-7800000D01*
X30067473Y-7502710D01*
X30067472Y-7502705D01*
X29960802Y-7197860D01*
X29820671Y-6906875D01*
X29648841Y-6633409D01*
X29447473Y-6380901D01*
X29219099Y-6152527D01*
X28966591Y-5951159D01*
X28966589Y-5951158D01*
X28966587Y-5951156D01*
X28693125Y-5779329D01*
X28402138Y-5639197D01*
X28271384Y-5593444D01*
X28097295Y-5532528D01*
X28097291Y-5532527D01*
X28097289Y-5532526D01*
X27782428Y-5460661D01*
X27491918Y-5427929D01*
X27461485Y-5424500D01*
X27138515Y-5424500D01*
X27108082Y-5427929D01*
X26817571Y-5460661D01*
X26502710Y-5532526D01*
X26502708Y-5532527D01*
X26197861Y-5639197D01*
X25906874Y-5779329D01*
X25633412Y-5951156D01*
X25380896Y-6152531D01*
X25152531Y-6380896D01*
X24951156Y-6633412D01*
X24779329Y-6906874D01*
X24639197Y-7197861D01*
X24532527Y-7502708D01*
X24532526Y-7502710D01*
X24460661Y-7817571D01*
X24424500Y-8138516D01*
X11175500Y-8138516D01*
X11175500Y-8138515D01*
X11139339Y-7817577D01*
X11135327Y-7800000D01*
X11067473Y-7502710D01*
X11067472Y-7502705D01*
X10960802Y-7197860D01*
X10820671Y-6906875D01*
X10648841Y-6633409D01*
X10447473Y-6380901D01*
X10219099Y-6152527D01*
X9966591Y-5951159D01*
X9966589Y-5951158D01*
X9966587Y-5951156D01*
X9693125Y-5779329D01*
X9402138Y-5639197D01*
X9271384Y-5593444D01*
X9097295Y-5532528D01*
X9097291Y-5532527D01*
X9097289Y-5532526D01*
X8782428Y-5460661D01*
X8491918Y-5427929D01*
X8461485Y-5424500D01*
X8138515Y-5424500D01*
X8108082Y-5427929D01*
X7817571Y-5460661D01*
X7502710Y-5532526D01*
X7502708Y-5532527D01*
X7197861Y-5639197D01*
X6906874Y-5779329D01*
X6633412Y-5951156D01*
X6380896Y-6152531D01*
X6152531Y-6380896D01*
X5951156Y-6633412D01*
X5779329Y-6906874D01*
X5639197Y-7197861D01*
X5532527Y-7502708D01*
X5532526Y-7502710D01*
X5460661Y-7817571D01*
X5424500Y-8138516D01*
X3417511Y-8138516D01*
X3424818Y-8127930D01*
X3485140Y-7968872D01*
X3505645Y-7800000D01*
X3485140Y-7631128D01*
X3424818Y-7472070D01*
X3328183Y-7332071D01*
X3328180Y-7332068D01*
X3328179Y-7332067D01*
X3200853Y-7219267D01*
X3200854Y-7219267D01*
X3050224Y-7140209D01*
X2885056Y-7099500D01*
X2714944Y-7099500D01*
X2549775Y-7140209D01*
X2399145Y-7219267D01*
X2271820Y-7332067D01*
X2271817Y-7332071D01*
X2175181Y-7472070D01*
X2114860Y-7631125D01*
X2094355Y-7800000D01*
X200502Y-7800000D01*
X200500Y-5100000D01*
X1994355Y-5100000D01*
X2014860Y-5268874D01*
X2075181Y-5427929D01*
X2075182Y-5427930D01*
X2171817Y-5567929D01*
X2171819Y-5567930D01*
X2171820Y-5567932D01*
X2299146Y-5680732D01*
X2299148Y-5680734D01*
X2449775Y-5759790D01*
X2614944Y-5800500D01*
X2785056Y-5800500D01*
X2950225Y-5759790D01*
X3100852Y-5680734D01*
X3228183Y-5567929D01*
X3324818Y-5427930D01*
X3385140Y-5268872D01*
X3405645Y-5100000D01*
X3385140Y-4931128D01*
X3384725Y-4930035D01*
X3324818Y-4772070D01*
X3316568Y-4760118D01*
X3228183Y-4632071D01*
X3228180Y-4632068D01*
X3228179Y-4632067D01*
X3100853Y-4519267D01*
X3100854Y-4519267D01*
X2950224Y-4440209D01*
X2787077Y-4399998D01*
X3769965Y-4399998D01*
X3769965Y-4400002D01*
X3788024Y-4537176D01*
X3788025Y-4537179D01*
X3788026Y-4537183D01*
X3840976Y-4665018D01*
X3840977Y-4665020D01*
X3840978Y-4665021D01*
X3913949Y-4760118D01*
X3925209Y-4774791D01*
X4034982Y-4859024D01*
X4162817Y-4911974D01*
X4162822Y-4911974D01*
X4162823Y-4911975D01*
X4299997Y-4930035D01*
X4300000Y-4930035D01*
X4300003Y-4930035D01*
X4437176Y-4911975D01*
X4437176Y-4911974D01*
X4437183Y-4911974D01*
X4565018Y-4859024D01*
X4674791Y-4774791D01*
X4759024Y-4665018D01*
X4811974Y-4537183D01*
X4830035Y-4400000D01*
X4811974Y-4262817D01*
X4759024Y-4134983D01*
X4759024Y-4134982D01*
X4722451Y-4087321D01*
X4674791Y-4025209D01*
X4674788Y-4025207D01*
X4674787Y-4025205D01*
X4565021Y-3940978D01*
X4565020Y-3940977D01*
X4565018Y-3940976D01*
X4437183Y-3888026D01*
X4437179Y-3888025D01*
X4437176Y-3888024D01*
X4300003Y-3869965D01*
X4299999Y-3869965D01*
X4162816Y-3888026D01*
X4162815Y-3888026D01*
X4034982Y-3940975D01*
X3925211Y-4025207D01*
X3925207Y-4025211D01*
X3840975Y-4134982D01*
X3788026Y-4262815D01*
X3788026Y-4262816D01*
X3769965Y-4399998D01*
X2787077Y-4399998D01*
X2785056Y-4399500D01*
X2614944Y-4399500D01*
X2449775Y-4440209D01*
X2299145Y-4519267D01*
X2171820Y-4632067D01*
X2171817Y-4632071D01*
X2075181Y-4772070D01*
X2014860Y-4931125D01*
X1994355Y-5100000D01*
X200500Y-5100000D01*
X200500Y-5003244D01*
X200642Y-4996746D01*
X215126Y-4665018D01*
X218480Y-4588185D01*
X219613Y-4575244D01*
X224625Y-4537176D01*
X272566Y-4173018D01*
X274822Y-4160228D01*
X280419Y-4134982D01*
X362634Y-3764132D01*
X365987Y-3751617D01*
X487990Y-3364672D01*
X492435Y-3352462D01*
X555380Y-3200500D01*
X647691Y-2977643D01*
X653173Y-2965886D01*
X840515Y-2606003D01*
X846998Y-2594775D01*
X1064988Y-2252600D01*
X1072439Y-2241960D01*
X1319425Y-1920081D01*
X1327750Y-1910160D01*
X1465240Y-1760116D01*
X8199500Y-1760116D01*
X8199500Y-4839883D01*
X8230022Y-4913571D01*
X8230023Y-4913573D01*
X8230024Y-4913574D01*
X8286426Y-4969976D01*
X8360118Y-5000500D01*
X8360119Y-5000500D01*
X11839881Y-5000500D01*
X11839882Y-5000500D01*
X11913574Y-4969976D01*
X11969976Y-4913574D01*
X12000500Y-4839882D01*
X12000500Y-2500000D01*
X14894355Y-2500000D01*
X14914860Y-2668874D01*
X14975181Y-2827929D01*
X14975182Y-2827930D01*
X15071817Y-2967929D01*
X15071819Y-2967930D01*
X15071820Y-2967932D01*
X15199146Y-3080732D01*
X15199148Y-3080734D01*
X15349775Y-3159790D01*
X15514944Y-3200500D01*
X15685056Y-3200500D01*
X15850225Y-3159790D01*
X16000852Y-3080734D01*
X16128183Y-2967929D01*
X16224818Y-2827930D01*
X16285140Y-2668872D01*
X16305645Y-2500000D01*
X16285140Y-2331128D01*
X16251323Y-2241960D01*
X16224818Y-2172070D01*
X16128183Y-2032071D01*
X16128180Y-2032068D01*
X16128179Y-2032067D01*
X16000853Y-1919267D01*
X16000854Y-1919267D01*
X15850224Y-1840209D01*
X15685056Y-1799500D01*
X15514944Y-1799500D01*
X15349775Y-1840209D01*
X15199145Y-1919267D01*
X15071820Y-2032067D01*
X15071817Y-2032071D01*
X14975181Y-2172070D01*
X14914860Y-2331125D01*
X14894355Y-2500000D01*
X12000500Y-2500000D01*
X12000500Y-1760118D01*
X11987513Y-1728765D01*
X33824500Y-1728765D01*
X33824500Y-1861834D01*
X33850459Y-1992335D01*
X33850460Y-1992337D01*
X33901376Y-2115260D01*
X33901380Y-2115269D01*
X33975305Y-2225906D01*
X34069394Y-2319995D01*
X34180031Y-2393920D01*
X34302964Y-2444840D01*
X34433469Y-2470800D01*
X34433473Y-2470800D01*
X34566527Y-2470800D01*
X34566531Y-2470800D01*
X34697036Y-2444840D01*
X34819969Y-2393920D01*
X34930606Y-2319995D01*
X35024695Y-2225906D01*
X35098620Y-2115269D01*
X35149540Y-1992336D01*
X35175500Y-1861831D01*
X35175500Y-1728769D01*
X35175499Y-1728765D01*
X38824501Y-1728765D01*
X38824501Y-1861834D01*
X38850460Y-1992335D01*
X38850461Y-1992337D01*
X38901377Y-2115260D01*
X38901381Y-2115269D01*
X38975306Y-2225906D01*
X39069395Y-2319995D01*
X39180032Y-2393920D01*
X39302965Y-2444840D01*
X39433470Y-2470800D01*
X39433474Y-2470800D01*
X39566528Y-2470800D01*
X39566532Y-2470800D01*
X39697037Y-2444840D01*
X39819970Y-2393920D01*
X39930607Y-2319995D01*
X40024696Y-2225906D01*
X40098621Y-2115269D01*
X40149541Y-1992336D01*
X40175501Y-1861831D01*
X40175501Y-1728769D01*
X40149541Y-1598264D01*
X40098621Y-1475331D01*
X40024696Y-1364694D01*
X39930607Y-1270605D01*
X39819970Y-1196680D01*
X39819963Y-1196677D01*
X39819961Y-1196676D01*
X39697038Y-1145760D01*
X39697036Y-1145759D01*
X39566535Y-1119800D01*
X39566532Y-1119800D01*
X39433470Y-1119800D01*
X39433466Y-1119800D01*
X39302965Y-1145759D01*
X39302963Y-1145760D01*
X39180040Y-1196676D01*
X39180034Y-1196678D01*
X39180032Y-1196680D01*
X39180029Y-1196681D01*
X39180027Y-1196683D01*
X39069396Y-1270604D01*
X39069391Y-1270608D01*
X38975309Y-1364690D01*
X38975305Y-1364695D01*
X38901384Y-1475326D01*
X38901377Y-1475339D01*
X38850461Y-1598262D01*
X38850460Y-1598264D01*
X38824501Y-1728765D01*
X35175499Y-1728765D01*
X35149540Y-1598264D01*
X35098620Y-1475331D01*
X35024695Y-1364694D01*
X34930606Y-1270605D01*
X34819969Y-1196680D01*
X34819962Y-1196677D01*
X34819960Y-1196676D01*
X34697037Y-1145760D01*
X34697035Y-1145759D01*
X34566534Y-1119800D01*
X34566531Y-1119800D01*
X34433469Y-1119800D01*
X34433465Y-1119800D01*
X34302964Y-1145759D01*
X34302962Y-1145760D01*
X34180039Y-1196676D01*
X34180033Y-1196678D01*
X34180031Y-1196680D01*
X34180028Y-1196681D01*
X34180026Y-1196683D01*
X34069395Y-1270604D01*
X34069390Y-1270608D01*
X33975308Y-1364690D01*
X33975304Y-1364695D01*
X33901383Y-1475326D01*
X33901376Y-1475339D01*
X33850460Y-1598262D01*
X33850459Y-1598264D01*
X33824500Y-1728765D01*
X11987513Y-1728765D01*
X11969976Y-1686426D01*
X11913574Y-1630024D01*
X11913573Y-1630023D01*
X11913571Y-1630022D01*
X11839883Y-1599500D01*
X11839882Y-1599500D01*
X8439882Y-1599500D01*
X8360118Y-1599500D01*
X8360116Y-1599500D01*
X8286428Y-1630022D01*
X8230022Y-1686428D01*
X8199500Y-1760116D01*
X1465240Y-1760116D01*
X1601849Y-1611033D01*
X1611037Y-1601846D01*
X1910160Y-1327750D01*
X1920081Y-1319425D01*
X2241966Y-1072434D01*
X2252600Y-1064988D01*
X2594775Y-846998D01*
X2606003Y-840515D01*
X2965886Y-653173D01*
X2977643Y-647691D01*
X3352467Y-492433D01*
X3364672Y-487990D01*
X3751617Y-365987D01*
X3764132Y-362634D01*
X4160235Y-274820D01*
X4173018Y-272566D01*
X4575253Y-219612D01*
X4588185Y-218480D01*
X4996748Y-200642D01*
X5003247Y-200500D01*
X5039882Y-200500D01*
X50750500Y-200500D01*
X50825000Y-220462D01*
G37*
G04 #@! TD.AperFunction*
M02*
