M48
; DRILL file {KiCad 8.0.4} date 2024-10-01T15:20:10+0100
; FORMAT={-:-/ absolute / metric / decimal}
; #@! TF.CreationDate,2024-10-01T15:20:10+01:00
; #@! TF.GenerationSoftware,Kicad,Pcbnew,8.0.4
; #@! TF.FileFunction,Plated,1,4,PTH
FMAT,2
METRIC
; #@! TA.AperFunction,Plated,PTH,ViaDrill
T1C0.300
; #@! TA.AperFunction,Plated,PTH,ViaDrill
T2C0.400
; #@! TA.AperFunction,Plated,PTH,ComponentDrill
T3C0.600
; #@! TA.AperFunction,Plated,PTH,ComponentDrill
T4C1.500
%
G90
G05
T1
X4.2Y-3.4
X4.2Y-5.8
X8.3Y-58.8
X8.4Y-69.4
X10.3Y-64.07
X10.6Y-69.4
X11.2Y-67.2
X12.473Y-66.6
X13.28Y-64.07
X13.7Y-61.1
X15.3Y-62.6
X15.5Y-63.9
X15.5Y-65.1
X15.5Y-66.2
X15.5Y-67.2
X16.5Y-2.3
X16.545Y-65.069
X16.6Y-68.3
X17.2Y-57.7
X17.6Y-68.3
X18.0Y-58.7
X18.4Y-68.3
X19.0Y-58.7
X19.001Y-65.699
X19.018Y-64.83
X19.2Y-62.3
X19.2Y-63.1
X19.2Y-63.9
X19.7Y-61.6
X19.75Y-52.8
X19.8Y-51.55
X20.3Y-65.4
X20.6Y-53.35
X20.7Y-59.6
X20.7Y-61.6
X21.0Y-68.4
X21.7Y-61.6
X22.1Y-56.0
X22.1Y-58.62
X22.1Y-59.6
X22.5Y-61.8
X22.6Y-68.248
X22.6Y-70.5
X22.9Y-62.8
X23.3Y-61.8
X23.5Y-59.6
X23.7Y-63.1
X23.9Y-62.4
X24.0Y-66.698
X24.1Y-61.698
X24.2Y-2.2
X24.2Y-63.9
X24.2Y-64.8
X24.4Y-58.2
X27.1Y-62.5
X27.9Y-3.4
X28.2Y-65.2
X30.7Y-62.2
X31.5Y-0.7
X37.015Y-9.7
X38.75Y-9.175
X38.775Y-10.225
X39.808Y-8.098
X40.954Y-8.088
X40.959Y-8.891
X41.63Y-10.05
X60.1Y-5.0
X91.0Y-2.6
T2
X8.65Y-40.8
X11.53Y-17.7
X15.2Y-21.8
X23.2Y-40.8
X25.9Y-17.7
X28.9Y-54.55
X29.9Y-59.3
X31.0Y-54.55
X31.4Y-60.1
X34.2Y-21.8
X34.7Y-59.3
X34.9Y-7.325
X35.0Y-64.11
X36.5Y-15.1
X36.562Y-11.4
X37.75Y-7.9
X40.0Y-14.9
X40.675Y-62.6
X41.4Y-13.2
X42.2Y-40.8
X43.1Y-7.8
X43.7Y-62.1
X44.1Y-17.7
X45.48Y-8.36
X50.1Y-49.4
X52.4Y-53.8
X53.2Y-21.8
X54.3Y-55.7
X54.9Y-59.0
X61.2Y-40.8
X63.8Y-17.7
X72.2Y-21.8
X72.6Y-62.2
X80.0Y-1.9
X80.2Y-40.8
X81.2Y-4.6
X82.8Y-17.7
X86.9Y-60.1
X88.1Y-4.4
X88.8Y-66.8
X91.1Y-5.3
X92.5Y-4.6
T4
X3.9Y-51.0
X6.9Y-13.0
X10.9Y-52.05
X13.9Y-14.05
X14.9Y-32.0
X21.9Y-33.05
X22.9Y-51.0
X25.9Y-13.0
X29.9Y-52.05
X32.9Y-14.05
X33.9Y-32.0
X40.9Y-33.05
X41.9Y-51.0
X44.9Y-13.0
X46.6Y-70.0
X48.9Y-52.05
X51.9Y-14.05
X52.9Y-32.0
X53.6Y-71.05
X59.9Y-33.05
X60.9Y-51.0
X63.808Y-13.0
X67.9Y-52.05
X70.808Y-14.05
X71.9Y-32.0
X75.2Y-70.0
X78.9Y-33.05
X79.9Y-51.0
X82.2Y-71.05
X82.9Y-13.0
X86.9Y-52.05
X89.9Y-14.05
T3
X35.08Y-0.7G85X35.08Y-1.7
G05
X35.08Y-4.9G85X35.08Y-5.5
G05
X46.32Y-0.7G85X46.32Y-1.7
G05
X46.32Y-4.9G85X46.32Y-5.5
G05
M30
