G04 #@! TF.GenerationSoftware,KiCad,Pcbnew,8.0.4*
G04 #@! TF.CreationDate,2024-10-01T15:20:09+01:00*
G04 #@! TF.ProjectId,Mathboard,4d617468-626f-4617-9264-2e6b69636164,rev?*
G04 #@! TF.SameCoordinates,PX501bd00PY28b8ce0*
G04 #@! TF.FileFunction,Copper,L2,Inr*
G04 #@! TF.FilePolarity,Positive*
%FSLAX46Y46*%
G04 Gerber Fmt 4.6, Leading zero omitted, Abs format (unit mm)*
G04 Created by KiCad (PCBNEW 8.0.4) date 2024-10-01 15:20:09*
%MOMM*%
%LPD*%
G01*
G04 APERTURE LIST*
G04 #@! TA.AperFunction,ComponentPad*
%ADD10C,2.500000*%
G04 #@! TD*
G04 #@! TA.AperFunction,ComponentPad*
%ADD11O,1.000000X2.000000*%
G04 #@! TD*
G04 #@! TA.AperFunction,ComponentPad*
%ADD12O,1.000000X1.600000*%
G04 #@! TD*
G04 #@! TA.AperFunction,ViaPad*
%ADD13C,0.450000*%
G04 #@! TD*
G04 #@! TA.AperFunction,ViaPad*
%ADD14C,0.800000*%
G04 #@! TD*
G04 APERTURE END LIST*
D10*
X82900000Y-13000000D03*
X89900000Y-14050000D03*
X22900000Y-51000000D03*
X29900000Y-52050000D03*
X60900000Y-51000000D03*
X67900000Y-52050000D03*
X25900000Y-13000000D03*
X32900000Y-14050000D03*
X46600000Y-70000000D03*
X53600000Y-71050000D03*
X3900000Y-51000000D03*
X10900000Y-52050000D03*
X44900000Y-13000000D03*
X51900000Y-14050000D03*
X63808000Y-13000000D03*
X70808000Y-14050000D03*
X71900000Y-32000000D03*
X78900000Y-33050000D03*
X79900000Y-51000000D03*
X86900000Y-52050000D03*
X33900000Y-32000000D03*
X40900000Y-33050000D03*
X41900000Y-51000000D03*
X48900000Y-52050000D03*
X52900000Y-32000000D03*
X59900000Y-33050000D03*
X6900000Y-13000000D03*
X13900000Y-14050000D03*
X75200000Y-70000000D03*
X82200000Y-71050000D03*
X14900000Y-32000000D03*
X21900000Y-33050000D03*
D11*
X35080000Y-1200000D03*
D12*
X35080000Y-5200000D03*
D11*
X46320000Y-1200000D03*
D12*
X46320000Y-5200000D03*
D13*
X20300000Y-65400000D03*
X22900000Y-62800000D03*
D14*
X31000000Y-54550000D03*
X28900000Y-54550000D03*
X29900000Y-59300000D03*
X40000000Y-14900000D03*
X36562500Y-11400000D03*
X36500000Y-15100000D03*
X44100000Y-17700000D03*
X63800000Y-17700000D03*
D13*
X21700000Y-61600000D03*
D14*
X25900000Y-17700000D03*
X11530000Y-17700000D03*
X82800000Y-17700000D03*
D13*
X19800000Y-51550000D03*
X20700000Y-61600000D03*
D14*
X72200000Y-21800000D03*
X34200000Y-21800000D03*
X15200000Y-21800000D03*
X53200000Y-21800000D03*
D13*
X19750000Y-52800000D03*
D14*
X23200000Y-40800000D03*
X42200000Y-40800000D03*
X61200000Y-40800000D03*
X80200000Y-40800000D03*
D13*
X20700000Y-59600000D03*
D14*
X8650000Y-40800000D03*
D13*
X20600000Y-53350000D03*
D14*
X43700000Y-62100000D03*
X72600000Y-62200000D03*
D13*
X19700000Y-61600000D03*
X24000374Y-66698309D03*
X23700000Y-63100000D03*
D14*
X54900000Y-59000000D03*
D13*
X23900000Y-62400000D03*
X24100000Y-61697639D03*
D14*
X43100000Y-7800000D03*
X37750000Y-7900000D03*
D13*
X24200000Y-2200000D03*
D14*
X41400000Y-13200000D03*
D13*
X16500000Y-2300000D03*
D14*
X80000000Y-1900000D03*
D13*
X37015000Y-9700000D03*
D14*
X91100000Y-5300000D03*
D13*
X24400000Y-58200000D03*
D14*
X34700000Y-59300000D03*
D13*
X22600000Y-70500000D03*
D14*
X88100000Y-4400000D03*
D13*
X60100000Y-5000000D03*
D14*
X81200000Y-4600000D03*
D13*
X18000000Y-58700000D03*
X8400000Y-69400000D03*
D14*
X45480000Y-8360000D03*
D13*
X28200000Y-65200000D03*
X41630000Y-10050000D03*
X22100000Y-58620000D03*
D14*
X34900000Y-7325000D03*
D13*
X4200000Y-5800000D03*
X15500000Y-65100000D03*
X27900000Y-3400000D03*
X27100000Y-62500000D03*
X10300000Y-64070000D03*
X15500000Y-63900000D03*
X24200000Y-63900000D03*
D14*
X40675000Y-62600000D03*
D13*
X22100000Y-56000000D03*
X15500000Y-67200000D03*
X13700000Y-61100000D03*
X30700000Y-62200000D03*
X13280000Y-64070000D03*
X15500000Y-66200000D03*
X91000000Y-2600000D03*
X16600000Y-68300000D03*
D14*
X92500000Y-4600000D03*
D13*
X19000000Y-58700000D03*
X22100000Y-59600000D03*
X10600000Y-69400000D03*
X22599999Y-68247508D03*
X16544576Y-65069111D03*
X24200000Y-64800000D03*
X17200000Y-57700000D03*
X8300000Y-58800000D03*
D14*
X35000000Y-64110000D03*
X31400000Y-60100000D03*
X86900000Y-60100000D03*
D13*
X19018311Y-64830034D03*
X17600000Y-68300000D03*
X18400000Y-68300000D03*
X19001235Y-65698963D03*
X23300000Y-61800000D03*
D14*
X54300000Y-55700000D03*
D13*
X22500000Y-61800000D03*
D14*
X50100000Y-49400000D03*
X52400000Y-53800000D03*
D13*
X23500000Y-59600000D03*
X40958813Y-8890575D03*
X38775000Y-10225000D03*
X40954100Y-8087913D03*
X39808200Y-8098331D03*
X38750000Y-9175000D03*
X19200000Y-62300000D03*
X15300000Y-62600000D03*
X19200000Y-63100000D03*
X12472500Y-66600000D03*
X11200000Y-67200000D03*
X19200000Y-63900000D03*
X21000000Y-68400000D03*
D14*
X88800000Y-66800000D03*
D13*
X31500000Y-700000D03*
X4200000Y-3400000D03*
G04 #@! TA.AperFunction,Conductor*
G36*
X30993259Y-220462D02*
G01*
X31047797Y-275000D01*
X31067759Y-349500D01*
X31047797Y-424000D01*
X31044264Y-429286D01*
X31040976Y-434980D01*
X30988026Y-562815D01*
X30988026Y-562816D01*
X30969965Y-699998D01*
X30969965Y-700002D01*
X30988024Y-837176D01*
X30988025Y-837179D01*
X30988026Y-837183D01*
X31040976Y-965018D01*
X31040977Y-965020D01*
X31040978Y-965021D01*
X31125207Y-1074789D01*
X31125210Y-1074792D01*
X31140372Y-1086426D01*
X31234982Y-1159024D01*
X31362817Y-1211974D01*
X31362822Y-1211974D01*
X31362823Y-1211975D01*
X31499997Y-1230035D01*
X31500000Y-1230035D01*
X31500003Y-1230035D01*
X31637176Y-1211975D01*
X31637176Y-1211974D01*
X31637183Y-1211974D01*
X31765018Y-1159024D01*
X31874791Y-1074791D01*
X31959024Y-965018D01*
X32011974Y-837183D01*
X32030035Y-700000D01*
X32011974Y-562817D01*
X31972080Y-466503D01*
X31959023Y-434980D01*
X31954140Y-426522D01*
X31956744Y-425018D01*
X31933518Y-368967D01*
X31943576Y-292497D01*
X31990521Y-231302D01*
X32061774Y-201777D01*
X32081241Y-200500D01*
X34197451Y-200500D01*
X34271951Y-220462D01*
X34326489Y-275000D01*
X34346451Y-349500D01*
X34335109Y-406518D01*
X34323320Y-434980D01*
X34310262Y-466505D01*
X34279500Y-621157D01*
X34279500Y-1778842D01*
X34310262Y-1933494D01*
X34310263Y-1933498D01*
X34370604Y-2079176D01*
X34370605Y-2079178D01*
X34370606Y-2079179D01*
X34458211Y-2210289D01*
X34569711Y-2321789D01*
X34700821Y-2409394D01*
X34846503Y-2469737D01*
X35001158Y-2500500D01*
X35158842Y-2500500D01*
X35313497Y-2469737D01*
X35459179Y-2409394D01*
X35567721Y-2336868D01*
X35640753Y-2312076D01*
X35716400Y-2327122D01*
X35774388Y-2377976D01*
X35799181Y-2451010D01*
X35799500Y-2460757D01*
X35799500Y-4139242D01*
X35779538Y-4213742D01*
X35725000Y-4268280D01*
X35650500Y-4288242D01*
X35576000Y-4268280D01*
X35567720Y-4263131D01*
X35459180Y-4190606D01*
X35459177Y-4190605D01*
X35313498Y-4130263D01*
X35313494Y-4130262D01*
X35158842Y-4099500D01*
X35001158Y-4099500D01*
X34846505Y-4130262D01*
X34846501Y-4130263D01*
X34700823Y-4190604D01*
X34627074Y-4239882D01*
X34577696Y-4272876D01*
X34569707Y-4278214D01*
X34458214Y-4389707D01*
X34458211Y-4389710D01*
X34458211Y-4389711D01*
X34430539Y-4431125D01*
X34370604Y-4520823D01*
X34310263Y-4666501D01*
X34310262Y-4666505D01*
X34279500Y-4821157D01*
X34279500Y-5578842D01*
X34310262Y-5733494D01*
X34310263Y-5733498D01*
X34370604Y-5879176D01*
X34370605Y-5879178D01*
X34370606Y-5879179D01*
X34458211Y-6010289D01*
X34569711Y-6121789D01*
X34700821Y-6209394D01*
X34846503Y-6269737D01*
X35001158Y-6300500D01*
X35158842Y-6300500D01*
X35313497Y-6269737D01*
X35459179Y-6209394D01*
X35590289Y-6121789D01*
X35701789Y-6010289D01*
X35747309Y-5942162D01*
X35805296Y-5891310D01*
X35880942Y-5876263D01*
X35928216Y-5887286D01*
X35960118Y-5900500D01*
X35960119Y-5900500D01*
X45439880Y-5900500D01*
X45439882Y-5900500D01*
X45471784Y-5887285D01*
X45548250Y-5877219D01*
X45619507Y-5906734D01*
X45652690Y-5942163D01*
X45691670Y-6000500D01*
X45698211Y-6010289D01*
X45809711Y-6121789D01*
X45940821Y-6209394D01*
X46086503Y-6269737D01*
X46241158Y-6300500D01*
X46398842Y-6300500D01*
X46553497Y-6269737D01*
X46699179Y-6209394D01*
X46830289Y-6121789D01*
X46941789Y-6010289D01*
X47029394Y-5879179D01*
X47089737Y-5733497D01*
X47120500Y-5578842D01*
X47120500Y-4999998D01*
X59569965Y-4999998D01*
X59569965Y-5000002D01*
X59588024Y-5137176D01*
X59588025Y-5137179D01*
X59588026Y-5137183D01*
X59640976Y-5265018D01*
X59640977Y-5265020D01*
X59640978Y-5265021D01*
X59699260Y-5340975D01*
X59725209Y-5374791D01*
X59834982Y-5459024D01*
X59962817Y-5511974D01*
X59962822Y-5511974D01*
X59962823Y-5511975D01*
X60099997Y-5530035D01*
X60100000Y-5530035D01*
X60100003Y-5530035D01*
X60237176Y-5511975D01*
X60237176Y-5511974D01*
X60237183Y-5511974D01*
X60365018Y-5459024D01*
X60474791Y-5374791D01*
X60559024Y-5265018D01*
X60611974Y-5137183D01*
X60630035Y-5000000D01*
X60611974Y-4862817D01*
X60559024Y-4734983D01*
X60559024Y-4734982D01*
X60522451Y-4687321D01*
X60474791Y-4625209D01*
X60474788Y-4625207D01*
X60474787Y-4625205D01*
X60441939Y-4600000D01*
X80494355Y-4600000D01*
X80514860Y-4768874D01*
X80575181Y-4927929D01*
X80575182Y-4927930D01*
X80671817Y-5067929D01*
X80671819Y-5067930D01*
X80671820Y-5067932D01*
X80799146Y-5180732D01*
X80799148Y-5180734D01*
X80949775Y-5259790D01*
X81114944Y-5300500D01*
X81285056Y-5300500D01*
X81287085Y-5300000D01*
X90394355Y-5300000D01*
X90414860Y-5468874D01*
X90475181Y-5627929D01*
X90499262Y-5662816D01*
X90571817Y-5767929D01*
X90571819Y-5767930D01*
X90571820Y-5767932D01*
X90608018Y-5800000D01*
X90697389Y-5879176D01*
X90699146Y-5880732D01*
X90699148Y-5880734D01*
X90849775Y-5959790D01*
X91014944Y-6000500D01*
X91185056Y-6000500D01*
X91350225Y-5959790D01*
X91500852Y-5880734D01*
X91628183Y-5767929D01*
X91724818Y-5627930D01*
X91785140Y-5468872D01*
X91805645Y-5300000D01*
X91785140Y-5131128D01*
X91773524Y-5100500D01*
X91724818Y-4972070D01*
X91694349Y-4927929D01*
X91628183Y-4832071D01*
X91628180Y-4832068D01*
X91628179Y-4832067D01*
X91510632Y-4727930D01*
X91500853Y-4719267D01*
X91500854Y-4719267D01*
X91350224Y-4640209D01*
X91185056Y-4599500D01*
X91014944Y-4599500D01*
X90849775Y-4640209D01*
X90699145Y-4719267D01*
X90571820Y-4832067D01*
X90571817Y-4832071D01*
X90475181Y-4972070D01*
X90414860Y-5131125D01*
X90394355Y-5300000D01*
X81287085Y-5300000D01*
X81450225Y-5259790D01*
X81600852Y-5180734D01*
X81728183Y-5067929D01*
X81824818Y-4927930D01*
X81885140Y-4768872D01*
X81905645Y-4600000D01*
X81885140Y-4431128D01*
X81875944Y-4406881D01*
X81824818Y-4272070D01*
X81802600Y-4239882D01*
X81728183Y-4132071D01*
X81728180Y-4132068D01*
X81728179Y-4132067D01*
X81600853Y-4019267D01*
X81600854Y-4019267D01*
X81450224Y-3940209D01*
X81285056Y-3899500D01*
X81114944Y-3899500D01*
X80949775Y-3940209D01*
X80799145Y-4019267D01*
X80671820Y-4132067D01*
X80671817Y-4132071D01*
X80575181Y-4272070D01*
X80514860Y-4431125D01*
X80494355Y-4600000D01*
X60441939Y-4600000D01*
X60365021Y-4540978D01*
X60365020Y-4540977D01*
X60365018Y-4540976D01*
X60237183Y-4488026D01*
X60237179Y-4488025D01*
X60237176Y-4488024D01*
X60100003Y-4469965D01*
X60099999Y-4469965D01*
X59962816Y-4488026D01*
X59962815Y-4488026D01*
X59834982Y-4540975D01*
X59725211Y-4625207D01*
X59725207Y-4625211D01*
X59640975Y-4734982D01*
X59588026Y-4862815D01*
X59588026Y-4862816D01*
X59569965Y-4999998D01*
X47120500Y-4999998D01*
X47120500Y-4821158D01*
X47089737Y-4666503D01*
X47037743Y-4540978D01*
X47029395Y-4520823D01*
X47028112Y-4518903D01*
X46941789Y-4389711D01*
X46830289Y-4278211D01*
X46699179Y-4190606D01*
X46699178Y-4190605D01*
X46699176Y-4190604D01*
X46553498Y-4130263D01*
X46553494Y-4130262D01*
X46398842Y-4099500D01*
X46241158Y-4099500D01*
X46086505Y-4130262D01*
X46086501Y-4130263D01*
X45940822Y-4190605D01*
X45940819Y-4190606D01*
X45832280Y-4263131D01*
X45759246Y-4287923D01*
X45683600Y-4272876D01*
X45625611Y-4222022D01*
X45600819Y-4148988D01*
X45600500Y-4139242D01*
X45600500Y-2460757D01*
X45620462Y-2386257D01*
X45675000Y-2331719D01*
X45749500Y-2311757D01*
X45824000Y-2331719D01*
X45832263Y-2336858D01*
X45878769Y-2367932D01*
X45940817Y-2409392D01*
X45940819Y-2409393D01*
X45940821Y-2409394D01*
X46086503Y-2469737D01*
X46241158Y-2500500D01*
X46398842Y-2500500D01*
X46553497Y-2469737D01*
X46699179Y-2409394D01*
X46830289Y-2321789D01*
X46941789Y-2210289D01*
X47029394Y-2079179D01*
X47089737Y-1933497D01*
X47120500Y-1778842D01*
X47120500Y-1728765D01*
X55424499Y-1728765D01*
X55424499Y-1861834D01*
X55450458Y-1992335D01*
X55450459Y-1992337D01*
X55486429Y-2079176D01*
X55501379Y-2115269D01*
X55575304Y-2225906D01*
X55669393Y-2319995D01*
X55780030Y-2393920D01*
X55902963Y-2444840D01*
X56033468Y-2470800D01*
X56033472Y-2470800D01*
X56166526Y-2470800D01*
X56166530Y-2470800D01*
X56297035Y-2444840D01*
X56419968Y-2393920D01*
X56530605Y-2319995D01*
X56624694Y-2225906D01*
X56698619Y-2115269D01*
X56749539Y-1992336D01*
X56775499Y-1861831D01*
X56775499Y-1728769D01*
X56775498Y-1728765D01*
X60424500Y-1728765D01*
X60424500Y-1861834D01*
X60450459Y-1992335D01*
X60450460Y-1992337D01*
X60486430Y-2079176D01*
X60501380Y-2115269D01*
X60575305Y-2225906D01*
X60669394Y-2319995D01*
X60780031Y-2393920D01*
X60902964Y-2444840D01*
X61033469Y-2470800D01*
X61033473Y-2470800D01*
X61166527Y-2470800D01*
X61166531Y-2470800D01*
X61297036Y-2444840D01*
X61419969Y-2393920D01*
X61530606Y-2319995D01*
X61624695Y-2225906D01*
X61698620Y-2115269D01*
X61749540Y-1992336D01*
X61767907Y-1900000D01*
X79294355Y-1900000D01*
X79314860Y-2068874D01*
X79375181Y-2227929D01*
X79375182Y-2227930D01*
X79471817Y-2367929D01*
X79471819Y-2367930D01*
X79471820Y-2367932D01*
X79548215Y-2435612D01*
X79565596Y-2451010D01*
X79599146Y-2480732D01*
X79599148Y-2480734D01*
X79749775Y-2559790D01*
X79914944Y-2600500D01*
X80085056Y-2600500D01*
X80250225Y-2559790D01*
X80400852Y-2480734D01*
X80528183Y-2367929D01*
X80624818Y-2227930D01*
X80685140Y-2068872D01*
X80705645Y-1900000D01*
X80685140Y-1731128D01*
X80624818Y-1572070D01*
X80528183Y-1432071D01*
X80528180Y-1432068D01*
X80528179Y-1432067D01*
X80400853Y-1319267D01*
X80400854Y-1319267D01*
X80250224Y-1240209D01*
X80085056Y-1199500D01*
X79914944Y-1199500D01*
X79749775Y-1240209D01*
X79599145Y-1319267D01*
X79471820Y-1432067D01*
X79471817Y-1432071D01*
X79375181Y-1572070D01*
X79314860Y-1731125D01*
X79294355Y-1900000D01*
X61767907Y-1900000D01*
X61775500Y-1861831D01*
X61775500Y-1728769D01*
X61749540Y-1598264D01*
X61698620Y-1475331D01*
X61624695Y-1364694D01*
X61530606Y-1270605D01*
X61419969Y-1196680D01*
X61419962Y-1196677D01*
X61419960Y-1196676D01*
X61331696Y-1160116D01*
X83599500Y-1160116D01*
X83599500Y-4239883D01*
X83630022Y-4313571D01*
X83630023Y-4313573D01*
X83630024Y-4313574D01*
X83686426Y-4369976D01*
X83760118Y-4400500D01*
X83760119Y-4400500D01*
X87254557Y-4400500D01*
X87254557Y-4403240D01*
X87310120Y-4406881D01*
X87374250Y-4449729D01*
X87408364Y-4518903D01*
X87410141Y-4530013D01*
X87414859Y-4568871D01*
X87475181Y-4727929D01*
X87480050Y-4734983D01*
X87571817Y-4867929D01*
X87689368Y-4972070D01*
X87699146Y-4980732D01*
X87699148Y-4980734D01*
X87849775Y-5059790D01*
X88014944Y-5100500D01*
X88185056Y-5100500D01*
X88350225Y-5059790D01*
X88500852Y-4980734D01*
X88628183Y-4867929D01*
X88724818Y-4727930D01*
X88785140Y-4568872D01*
X88805645Y-4400000D01*
X88785140Y-4231128D01*
X88778546Y-4213742D01*
X88724818Y-4072070D01*
X88688370Y-4019267D01*
X88628183Y-3932071D01*
X88628180Y-3932068D01*
X88628179Y-3932067D01*
X88500853Y-3819267D01*
X88500854Y-3819267D01*
X88350224Y-3740209D01*
X88185056Y-3699500D01*
X88014944Y-3699500D01*
X87849775Y-3740209D01*
X87699145Y-3819267D01*
X87648305Y-3864308D01*
X87579303Y-3898769D01*
X87502316Y-3894112D01*
X87437972Y-3851585D01*
X87403511Y-3782583D01*
X87400500Y-3752780D01*
X87400500Y-1160119D01*
X87400499Y-1160116D01*
X87400045Y-1159021D01*
X87369976Y-1086426D01*
X87313574Y-1030024D01*
X87313573Y-1030023D01*
X87313571Y-1030022D01*
X87239883Y-999500D01*
X87239882Y-999500D01*
X83839882Y-999500D01*
X83760118Y-999500D01*
X83760116Y-999500D01*
X83686428Y-1030022D01*
X83630022Y-1086428D01*
X83599500Y-1160116D01*
X61331696Y-1160116D01*
X61297037Y-1145760D01*
X61297035Y-1145759D01*
X61166534Y-1119800D01*
X61166531Y-1119800D01*
X61033469Y-1119800D01*
X61033465Y-1119800D01*
X60902964Y-1145759D01*
X60902962Y-1145760D01*
X60780039Y-1196676D01*
X60780033Y-1196678D01*
X60780031Y-1196680D01*
X60780028Y-1196681D01*
X60780026Y-1196683D01*
X60669395Y-1270604D01*
X60669390Y-1270608D01*
X60575308Y-1364690D01*
X60575304Y-1364695D01*
X60501383Y-1475326D01*
X60501376Y-1475339D01*
X60450460Y-1598262D01*
X60450459Y-1598264D01*
X60424500Y-1728765D01*
X56775498Y-1728765D01*
X56749539Y-1598264D01*
X56698619Y-1475331D01*
X56624694Y-1364694D01*
X56530605Y-1270605D01*
X56419968Y-1196680D01*
X56419961Y-1196677D01*
X56419959Y-1196676D01*
X56297036Y-1145760D01*
X56297034Y-1145759D01*
X56166533Y-1119800D01*
X56166530Y-1119800D01*
X56033468Y-1119800D01*
X56033464Y-1119800D01*
X55902963Y-1145759D01*
X55902961Y-1145760D01*
X55780038Y-1196676D01*
X55780032Y-1196678D01*
X55780030Y-1196680D01*
X55780027Y-1196681D01*
X55780025Y-1196683D01*
X55669394Y-1270604D01*
X55669389Y-1270608D01*
X55575307Y-1364690D01*
X55575303Y-1364695D01*
X55501382Y-1475326D01*
X55501375Y-1475339D01*
X55450459Y-1598262D01*
X55450458Y-1598264D01*
X55424499Y-1728765D01*
X47120500Y-1728765D01*
X47120500Y-621158D01*
X47089737Y-466503D01*
X47064890Y-406518D01*
X47054824Y-330051D01*
X47084339Y-258794D01*
X47145529Y-211842D01*
X47202549Y-200500D01*
X94560118Y-200500D01*
X94592676Y-200500D01*
X94607279Y-201217D01*
X94621708Y-202638D01*
X94741379Y-214424D01*
X94770013Y-220120D01*
X94891918Y-257099D01*
X94918888Y-268270D01*
X95031240Y-328324D01*
X95055519Y-344547D01*
X95153989Y-425359D01*
X95174642Y-446012D01*
X95255451Y-544479D01*
X95271676Y-568761D01*
X95331726Y-681107D01*
X95342902Y-708088D01*
X95379877Y-829978D01*
X95385576Y-858626D01*
X95398783Y-992720D01*
X95399500Y-1007324D01*
X95399500Y-65433892D01*
X95399499Y-65433906D01*
X95399499Y-65479934D01*
X95399040Y-65491623D01*
X95390577Y-65599168D01*
X95386920Y-65622259D01*
X95363110Y-65721444D01*
X95355885Y-65743682D01*
X95316849Y-65837926D01*
X95306234Y-65858759D01*
X95252941Y-65945727D01*
X95239198Y-65964643D01*
X95169217Y-66046581D01*
X95161275Y-66055173D01*
X88055262Y-73161187D01*
X88046670Y-73169129D01*
X87964638Y-73239190D01*
X87945722Y-73252933D01*
X87858753Y-73306226D01*
X87837921Y-73316840D01*
X87743678Y-73355876D01*
X87721446Y-73363099D01*
X87624911Y-73386274D01*
X87622262Y-73386911D01*
X87599169Y-73390568D01*
X87491499Y-73399040D01*
X87479811Y-73399499D01*
X87428565Y-73399499D01*
X87428557Y-73399500D01*
X8171443Y-73399500D01*
X8171435Y-73399499D01*
X8120066Y-73399499D01*
X8108378Y-73399040D01*
X8000837Y-73390578D01*
X7977745Y-73386920D01*
X7912040Y-73371146D01*
X7878561Y-73363108D01*
X7856322Y-73355881D01*
X7762096Y-73316848D01*
X7741264Y-73306233D01*
X7654296Y-73252935D01*
X7635380Y-73239190D01*
X7553171Y-73168971D01*
X7544579Y-73161029D01*
X7520691Y-73137138D01*
X7520689Y-73137137D01*
X7512211Y-73128658D01*
X7512191Y-73128641D01*
X4883548Y-70499998D01*
X22069965Y-70499998D01*
X22069965Y-70500002D01*
X22088024Y-70637176D01*
X22088025Y-70637179D01*
X22088026Y-70637183D01*
X22140976Y-70765018D01*
X22140977Y-70765020D01*
X22140978Y-70765021D01*
X22225207Y-70874789D01*
X22225210Y-70874792D01*
X22334978Y-70959021D01*
X22334982Y-70959024D01*
X22462817Y-71011974D01*
X22462822Y-71011974D01*
X22462823Y-71011975D01*
X22599997Y-71030035D01*
X22600000Y-71030035D01*
X22600003Y-71030035D01*
X22737176Y-71011975D01*
X22737176Y-71011974D01*
X22737183Y-71011974D01*
X22865018Y-70959024D01*
X22974791Y-70874791D01*
X23059024Y-70765018D01*
X23111974Y-70637183D01*
X23130035Y-70500000D01*
X23127482Y-70480612D01*
X23121984Y-70438847D01*
X23111974Y-70362817D01*
X23059024Y-70234983D01*
X23059024Y-70234982D01*
X23022451Y-70187321D01*
X22974791Y-70125209D01*
X22974788Y-70125207D01*
X22974787Y-70125205D01*
X22865021Y-70040978D01*
X22865020Y-70040977D01*
X22865018Y-70040976D01*
X22737183Y-69988026D01*
X22737179Y-69988025D01*
X22737176Y-69988024D01*
X22600003Y-69969965D01*
X22599999Y-69969965D01*
X22462816Y-69988026D01*
X22462815Y-69988026D01*
X22334982Y-70040975D01*
X22225211Y-70125207D01*
X22225207Y-70125211D01*
X22140975Y-70234982D01*
X22088026Y-70362815D01*
X22088026Y-70362816D01*
X22069965Y-70499998D01*
X4883548Y-70499998D01*
X3783548Y-69399998D01*
X7869965Y-69399998D01*
X7869965Y-69400002D01*
X7888024Y-69537176D01*
X7888025Y-69537179D01*
X7888026Y-69537183D01*
X7940976Y-69665018D01*
X7940977Y-69665020D01*
X7940978Y-69665021D01*
X8011325Y-69756698D01*
X8025209Y-69774791D01*
X8134982Y-69859024D01*
X8262817Y-69911974D01*
X8262822Y-69911974D01*
X8262823Y-69911975D01*
X8399997Y-69930035D01*
X8400000Y-69930035D01*
X8400003Y-69930035D01*
X8537176Y-69911975D01*
X8537176Y-69911974D01*
X8537183Y-69911974D01*
X8665018Y-69859024D01*
X8774791Y-69774791D01*
X8859024Y-69665018D01*
X8911974Y-69537183D01*
X8915045Y-69513855D01*
X8920287Y-69474038D01*
X31299500Y-69474038D01*
X31299500Y-69725962D01*
X31338910Y-69974785D01*
X31416759Y-70214379D01*
X31492391Y-70362816D01*
X31531131Y-70438846D01*
X31531131Y-70438847D01*
X31575563Y-70500002D01*
X31679207Y-70642656D01*
X31857344Y-70820793D01*
X32061155Y-70968870D01*
X32285621Y-71083241D01*
X32525215Y-71161090D01*
X32774038Y-71200500D01*
X32774043Y-71200500D01*
X33025957Y-71200500D01*
X33025962Y-71200500D01*
X33274785Y-71161090D01*
X33514379Y-71083241D01*
X33738845Y-70968870D01*
X33942656Y-70820793D01*
X34120793Y-70642656D01*
X34268870Y-70438845D01*
X34383241Y-70214379D01*
X34452897Y-70000000D01*
X45044706Y-70000000D01*
X45063854Y-70243304D01*
X45063855Y-70243309D01*
X45120828Y-70480614D01*
X45214221Y-70706086D01*
X45214224Y-70706091D01*
X45341736Y-70914172D01*
X45341738Y-70914174D01*
X45341741Y-70914179D01*
X45500241Y-71099759D01*
X45685821Y-71258259D01*
X45685825Y-71258261D01*
X45685827Y-71258263D01*
X45893908Y-71385775D01*
X45893913Y-71385778D01*
X46119385Y-71479171D01*
X46119386Y-71479171D01*
X46119388Y-71479172D01*
X46356698Y-71536146D01*
X46600000Y-71555294D01*
X46843302Y-71536146D01*
X47080612Y-71479172D01*
X47306089Y-71385777D01*
X47514179Y-71258259D01*
X47699759Y-71099759D01*
X47742257Y-71050000D01*
X52044706Y-71050000D01*
X52063854Y-71293304D01*
X52063855Y-71293309D01*
X52120828Y-71530614D01*
X52214221Y-71756086D01*
X52214224Y-71756091D01*
X52341736Y-71964172D01*
X52341738Y-71964174D01*
X52341741Y-71964179D01*
X52500241Y-72149759D01*
X52685821Y-72308259D01*
X52685825Y-72308261D01*
X52685827Y-72308263D01*
X52893908Y-72435775D01*
X52893913Y-72435778D01*
X53119385Y-72529171D01*
X53119386Y-72529171D01*
X53119388Y-72529172D01*
X53356698Y-72586146D01*
X53600000Y-72605294D01*
X53843302Y-72586146D01*
X54080612Y-72529172D01*
X54306089Y-72435777D01*
X54514179Y-72308259D01*
X54699759Y-72149759D01*
X54858259Y-71964179D01*
X54985777Y-71756089D01*
X55079172Y-71530612D01*
X55136146Y-71293302D01*
X55155294Y-71050000D01*
X55136146Y-70806698D01*
X55079172Y-70569388D01*
X54985777Y-70343911D01*
X54858259Y-70135821D01*
X54742257Y-70000000D01*
X73644706Y-70000000D01*
X73663854Y-70243304D01*
X73663855Y-70243309D01*
X73720828Y-70480614D01*
X73814221Y-70706086D01*
X73814224Y-70706091D01*
X73941736Y-70914172D01*
X73941738Y-70914174D01*
X73941741Y-70914179D01*
X74100241Y-71099759D01*
X74285821Y-71258259D01*
X74285825Y-71258261D01*
X74285827Y-71258263D01*
X74493908Y-71385775D01*
X74493913Y-71385778D01*
X74719385Y-71479171D01*
X74719386Y-71479171D01*
X74719388Y-71479172D01*
X74956698Y-71536146D01*
X75200000Y-71555294D01*
X75443302Y-71536146D01*
X75680612Y-71479172D01*
X75906089Y-71385777D01*
X76114179Y-71258259D01*
X76299759Y-71099759D01*
X76342257Y-71050000D01*
X80644706Y-71050000D01*
X80663854Y-71293304D01*
X80663855Y-71293309D01*
X80720828Y-71530614D01*
X80814221Y-71756086D01*
X80814224Y-71756091D01*
X80941736Y-71964172D01*
X80941738Y-71964174D01*
X80941741Y-71964179D01*
X81100241Y-72149759D01*
X81285821Y-72308259D01*
X81285825Y-72308261D01*
X81285827Y-72308263D01*
X81493908Y-72435775D01*
X81493913Y-72435778D01*
X81719385Y-72529171D01*
X81719386Y-72529171D01*
X81719388Y-72529172D01*
X81956698Y-72586146D01*
X82200000Y-72605294D01*
X82443302Y-72586146D01*
X82680612Y-72529172D01*
X82906089Y-72435777D01*
X83114179Y-72308259D01*
X83299759Y-72149759D01*
X83458259Y-71964179D01*
X83585777Y-71756089D01*
X83679172Y-71530612D01*
X83736146Y-71293302D01*
X83755294Y-71050000D01*
X83736146Y-70806698D01*
X83679172Y-70569388D01*
X83585777Y-70343911D01*
X83458259Y-70135821D01*
X83299759Y-69950241D01*
X83114179Y-69791741D01*
X83114174Y-69791738D01*
X83114172Y-69791736D01*
X82906091Y-69664224D01*
X82906086Y-69664221D01*
X82680614Y-69570828D01*
X82443309Y-69513855D01*
X82443304Y-69513854D01*
X82200000Y-69494706D01*
X81956695Y-69513854D01*
X81956690Y-69513855D01*
X81719385Y-69570828D01*
X81493913Y-69664221D01*
X81493908Y-69664224D01*
X81285827Y-69791736D01*
X81285821Y-69791740D01*
X81285821Y-69791741D01*
X81100241Y-69950241D01*
X80950805Y-70125209D01*
X80941736Y-70135827D01*
X80814224Y-70343908D01*
X80814221Y-70343913D01*
X80720828Y-70569385D01*
X80663855Y-70806690D01*
X80663854Y-70806695D01*
X80644706Y-71050000D01*
X76342257Y-71050000D01*
X76458259Y-70914179D01*
X76585777Y-70706089D01*
X76679172Y-70480612D01*
X76736146Y-70243302D01*
X76755294Y-70000000D01*
X76736146Y-69756698D01*
X76679172Y-69519388D01*
X76668948Y-69494706D01*
X76585778Y-69293913D01*
X76585775Y-69293908D01*
X76566722Y-69262817D01*
X76458259Y-69085821D01*
X76299759Y-68900241D01*
X76114179Y-68741741D01*
X76114174Y-68741738D01*
X76114172Y-68741736D01*
X75906091Y-68614224D01*
X75906086Y-68614221D01*
X75680614Y-68520828D01*
X75443309Y-68463855D01*
X75443304Y-68463854D01*
X75200000Y-68444706D01*
X74956695Y-68463854D01*
X74956690Y-68463855D01*
X74719385Y-68520828D01*
X74493913Y-68614221D01*
X74493908Y-68614224D01*
X74285827Y-68741736D01*
X74285821Y-68741740D01*
X74285821Y-68741741D01*
X74100241Y-68900241D01*
X73993509Y-69025209D01*
X73941736Y-69085827D01*
X73814224Y-69293908D01*
X73814221Y-69293913D01*
X73720828Y-69519385D01*
X73663855Y-69756690D01*
X73663854Y-69756695D01*
X73644706Y-70000000D01*
X54742257Y-70000000D01*
X54699759Y-69950241D01*
X54514179Y-69791741D01*
X54514174Y-69791738D01*
X54514172Y-69791736D01*
X54306091Y-69664224D01*
X54306086Y-69664221D01*
X54080614Y-69570828D01*
X53843309Y-69513855D01*
X53843304Y-69513854D01*
X53600000Y-69494706D01*
X53356695Y-69513854D01*
X53356690Y-69513855D01*
X53119385Y-69570828D01*
X52893913Y-69664221D01*
X52893908Y-69664224D01*
X52685827Y-69791736D01*
X52685821Y-69791740D01*
X52685821Y-69791741D01*
X52500241Y-69950241D01*
X52350805Y-70125209D01*
X52341736Y-70135827D01*
X52214224Y-70343908D01*
X52214221Y-70343913D01*
X52120828Y-70569385D01*
X52063855Y-70806690D01*
X52063854Y-70806695D01*
X52044706Y-71050000D01*
X47742257Y-71050000D01*
X47858259Y-70914179D01*
X47985777Y-70706089D01*
X48079172Y-70480612D01*
X48136146Y-70243302D01*
X48155294Y-70000000D01*
X48136146Y-69756698D01*
X48079172Y-69519388D01*
X48068948Y-69494706D01*
X47985778Y-69293913D01*
X47985775Y-69293908D01*
X47966722Y-69262817D01*
X47858259Y-69085821D01*
X47699759Y-68900241D01*
X47514179Y-68741741D01*
X47514174Y-68741738D01*
X47514172Y-68741736D01*
X47306091Y-68614224D01*
X47306086Y-68614221D01*
X47080614Y-68520828D01*
X46843309Y-68463855D01*
X46843304Y-68463854D01*
X46600000Y-68444706D01*
X46356695Y-68463854D01*
X46356690Y-68463855D01*
X46119385Y-68520828D01*
X45893913Y-68614221D01*
X45893908Y-68614224D01*
X45685827Y-68741736D01*
X45685821Y-68741740D01*
X45685821Y-68741741D01*
X45500241Y-68900241D01*
X45393509Y-69025209D01*
X45341736Y-69085827D01*
X45214224Y-69293908D01*
X45214221Y-69293913D01*
X45120828Y-69519385D01*
X45063855Y-69756690D01*
X45063854Y-69756695D01*
X45044706Y-70000000D01*
X34452897Y-70000000D01*
X34461090Y-69974785D01*
X34500500Y-69725962D01*
X34500500Y-69474038D01*
X34461090Y-69225215D01*
X34383241Y-68985621D01*
X34268870Y-68761155D01*
X34120793Y-68557344D01*
X33942656Y-68379207D01*
X33738845Y-68231130D01*
X33514379Y-68116759D01*
X33274785Y-68038910D01*
X33025962Y-67999500D01*
X32774038Y-67999500D01*
X32566685Y-68032341D01*
X32525214Y-68038910D01*
X32437310Y-68067472D01*
X32285621Y-68116759D01*
X32285615Y-68116761D01*
X32285615Y-68116762D01*
X32061153Y-68231131D01*
X32061152Y-68231131D01*
X31857345Y-68379206D01*
X31857342Y-68379208D01*
X31679208Y-68557342D01*
X31679206Y-68557345D01*
X31531131Y-68761152D01*
X31531131Y-68761153D01*
X31416762Y-68985615D01*
X31416757Y-68985627D01*
X31368229Y-69134982D01*
X31338910Y-69225215D01*
X31299500Y-69474038D01*
X8920287Y-69474038D01*
X8930035Y-69400002D01*
X8930035Y-69399998D01*
X8925832Y-69368078D01*
X8911974Y-69262817D01*
X8859024Y-69134983D01*
X8859024Y-69134982D01*
X8821300Y-69085821D01*
X8774791Y-69025209D01*
X8774788Y-69025207D01*
X8774787Y-69025205D01*
X8665021Y-68940978D01*
X8665020Y-68940977D01*
X8665018Y-68940976D01*
X8537183Y-68888026D01*
X8537179Y-68888025D01*
X8537176Y-68888024D01*
X8400003Y-68869965D01*
X8399999Y-68869965D01*
X8262816Y-68888026D01*
X8262815Y-68888026D01*
X8134982Y-68940975D01*
X8025211Y-69025207D01*
X8025207Y-69025211D01*
X7940975Y-69134982D01*
X7888026Y-69262815D01*
X7888026Y-69262816D01*
X7869965Y-69399998D01*
X3783548Y-69399998D01*
X2683548Y-68299998D01*
X17069965Y-68299998D01*
X17069965Y-68300002D01*
X17088024Y-68437176D01*
X17088025Y-68437179D01*
X17088026Y-68437183D01*
X17140976Y-68565018D01*
X17140977Y-68565020D01*
X17140978Y-68565021D01*
X17217709Y-68665018D01*
X17225209Y-68674791D01*
X17334982Y-68759024D01*
X17462817Y-68811974D01*
X17462822Y-68811974D01*
X17462823Y-68811975D01*
X17599997Y-68830035D01*
X17600000Y-68830035D01*
X17600003Y-68830035D01*
X17737176Y-68811975D01*
X17737176Y-68811974D01*
X17737183Y-68811974D01*
X17865018Y-68759024D01*
X17909294Y-68725048D01*
X17980549Y-68695533D01*
X18057017Y-68705599D01*
X18090703Y-68725047D01*
X18134982Y-68759024D01*
X18262817Y-68811974D01*
X18262822Y-68811974D01*
X18262823Y-68811975D01*
X18399997Y-68830035D01*
X18400000Y-68830035D01*
X18400003Y-68830035D01*
X18537176Y-68811975D01*
X18537176Y-68811974D01*
X18537183Y-68811974D01*
X18665018Y-68759024D01*
X18774791Y-68674791D01*
X18859024Y-68565018D01*
X18911974Y-68437183D01*
X18916869Y-68400002D01*
X18916870Y-68399998D01*
X20469965Y-68399998D01*
X20469965Y-68400002D01*
X20488024Y-68537176D01*
X20488025Y-68537179D01*
X20488026Y-68537183D01*
X20540976Y-68665018D01*
X20540977Y-68665020D01*
X20540978Y-68665021D01*
X20614745Y-68761155D01*
X20625209Y-68774791D01*
X20734982Y-68859024D01*
X20862817Y-68911974D01*
X20862822Y-68911974D01*
X20862823Y-68911975D01*
X20999997Y-68930035D01*
X21000000Y-68930035D01*
X21000003Y-68930035D01*
X21137176Y-68911975D01*
X21137176Y-68911974D01*
X21137183Y-68911974D01*
X21265018Y-68859024D01*
X21374791Y-68774791D01*
X21459024Y-68665018D01*
X21511974Y-68537183D01*
X21530035Y-68400000D01*
X21527297Y-68379207D01*
X21525832Y-68368078D01*
X21511974Y-68262817D01*
X21470553Y-68162816D01*
X21459024Y-68134982D01*
X21407221Y-68067473D01*
X21374791Y-68025209D01*
X21374788Y-68025207D01*
X21374787Y-68025205D01*
X21265021Y-67940978D01*
X21265020Y-67940977D01*
X21265018Y-67940976D01*
X21137183Y-67888026D01*
X21137179Y-67888025D01*
X21137176Y-67888024D01*
X21000003Y-67869965D01*
X20999999Y-67869965D01*
X20862816Y-67888026D01*
X20862815Y-67888026D01*
X20734982Y-67940975D01*
X20625211Y-68025207D01*
X20625207Y-68025211D01*
X20540975Y-68134982D01*
X20488026Y-68262815D01*
X20488026Y-68262816D01*
X20469965Y-68399998D01*
X18916870Y-68399998D01*
X18930035Y-68300002D01*
X18930035Y-68299998D01*
X18920968Y-68231130D01*
X18911974Y-68162817D01*
X18872482Y-68067473D01*
X18859024Y-68034982D01*
X18822451Y-67987321D01*
X18774791Y-67925209D01*
X18774788Y-67925207D01*
X18774787Y-67925205D01*
X18665021Y-67840978D01*
X18665020Y-67840977D01*
X18665018Y-67840976D01*
X18537183Y-67788026D01*
X18537179Y-67788025D01*
X18537176Y-67788024D01*
X18400003Y-67769965D01*
X18399999Y-67769965D01*
X18262816Y-67788026D01*
X18262815Y-67788026D01*
X18134982Y-67840975D01*
X18090705Y-67874951D01*
X18019448Y-67904466D01*
X17942980Y-67894399D01*
X17909294Y-67874950D01*
X17865021Y-67840978D01*
X17865020Y-67840977D01*
X17865018Y-67840976D01*
X17737183Y-67788026D01*
X17737179Y-67788025D01*
X17737176Y-67788024D01*
X17600003Y-67769965D01*
X17599999Y-67769965D01*
X17462816Y-67788026D01*
X17462815Y-67788026D01*
X17334982Y-67840975D01*
X17225211Y-67925207D01*
X17225207Y-67925211D01*
X17140975Y-68034982D01*
X17088026Y-68162815D01*
X17088026Y-68162816D01*
X17069965Y-68299998D01*
X2683548Y-68299998D01*
X1583548Y-67199998D01*
X10669965Y-67199998D01*
X10669965Y-67200002D01*
X10688024Y-67337176D01*
X10688025Y-67337179D01*
X10688026Y-67337183D01*
X10740976Y-67465018D01*
X10740977Y-67465020D01*
X10740978Y-67465021D01*
X10768202Y-67500500D01*
X10825209Y-67574791D01*
X10934982Y-67659024D01*
X11062817Y-67711974D01*
X11062822Y-67711974D01*
X11062823Y-67711975D01*
X11199997Y-67730035D01*
X11200000Y-67730035D01*
X11200003Y-67730035D01*
X11337176Y-67711975D01*
X11337176Y-67711974D01*
X11337183Y-67711974D01*
X11465018Y-67659024D01*
X11574791Y-67574791D01*
X11659024Y-67465018D01*
X11711974Y-67337183D01*
X11721092Y-67267928D01*
X11730035Y-67200002D01*
X11730035Y-67199998D01*
X11724417Y-67157330D01*
X11711974Y-67062817D01*
X11673061Y-66968872D01*
X11659024Y-66934982D01*
X11605340Y-66865021D01*
X11574791Y-66825209D01*
X11574788Y-66825207D01*
X11574787Y-66825205D01*
X11465021Y-66740978D01*
X11465020Y-66740977D01*
X11465018Y-66740976D01*
X11337183Y-66688026D01*
X11337179Y-66688025D01*
X11337176Y-66688024D01*
X11200003Y-66669965D01*
X11199999Y-66669965D01*
X11062816Y-66688026D01*
X11062815Y-66688026D01*
X10934982Y-66740975D01*
X10825211Y-66825207D01*
X10825207Y-66825211D01*
X10740975Y-66934982D01*
X10688026Y-67062815D01*
X10688026Y-67062816D01*
X10669965Y-67199998D01*
X1583548Y-67199998D01*
X983548Y-66599998D01*
X11942465Y-66599998D01*
X11942465Y-66600002D01*
X11960524Y-66737176D01*
X11960525Y-66737179D01*
X11960526Y-66737183D01*
X12013476Y-66865018D01*
X12013477Y-66865020D01*
X12013478Y-66865021D01*
X12093168Y-66968874D01*
X12097709Y-66974791D01*
X12207482Y-67059024D01*
X12335317Y-67111974D01*
X12335322Y-67111974D01*
X12335323Y-67111975D01*
X12472497Y-67130035D01*
X12472500Y-67130035D01*
X12472503Y-67130035D01*
X12609676Y-67111975D01*
X12609676Y-67111974D01*
X12609683Y-67111974D01*
X12737518Y-67059024D01*
X12847291Y-66974791D01*
X12931524Y-66865018D01*
X12984474Y-66737183D01*
X12986809Y-66719449D01*
X13002535Y-66600002D01*
X13002535Y-66599998D01*
X12997417Y-66561124D01*
X12984474Y-66462817D01*
X12959340Y-66402138D01*
X12931524Y-66334982D01*
X12894951Y-66287321D01*
X12847291Y-66225209D01*
X12847288Y-66225207D01*
X12847287Y-66225205D01*
X12737521Y-66140978D01*
X12737520Y-66140977D01*
X12737518Y-66140976D01*
X12609683Y-66088026D01*
X12609679Y-66088025D01*
X12609676Y-66088024D01*
X12472503Y-66069965D01*
X12472499Y-66069965D01*
X12335316Y-66088026D01*
X12335315Y-66088026D01*
X12207482Y-66140975D01*
X12097711Y-66225207D01*
X12097707Y-66225211D01*
X12013475Y-66334982D01*
X11960526Y-66462815D01*
X11960526Y-66462816D01*
X11942465Y-66599998D01*
X983548Y-66599998D01*
X438812Y-66055262D01*
X430870Y-66046670D01*
X430794Y-66046581D01*
X360805Y-65964632D01*
X347070Y-65945727D01*
X293773Y-65858753D01*
X283159Y-65837921D01*
X244123Y-65743678D01*
X236902Y-65721458D01*
X213086Y-65622249D01*
X209431Y-65599169D01*
X207944Y-65580265D01*
X200958Y-65491490D01*
X200500Y-65479809D01*
X200500Y-65474789D01*
X200501Y-65445907D01*
X200500Y-65445904D01*
X200500Y-64069998D01*
X9769965Y-64069998D01*
X9769965Y-64070002D01*
X9788024Y-64207176D01*
X9788025Y-64207179D01*
X9788026Y-64207183D01*
X9840976Y-64335018D01*
X9840977Y-64335020D01*
X9840978Y-64335021D01*
X9925207Y-64444789D01*
X9925210Y-64444792D01*
X9971809Y-64480549D01*
X10034982Y-64529024D01*
X10162817Y-64581974D01*
X10162822Y-64581974D01*
X10162823Y-64581975D01*
X10299997Y-64600035D01*
X10300000Y-64600035D01*
X10300003Y-64600035D01*
X10437176Y-64581975D01*
X10437176Y-64581974D01*
X10437183Y-64581974D01*
X10565018Y-64529024D01*
X10674791Y-64444791D01*
X10759024Y-64335018D01*
X10811974Y-64207183D01*
X10813201Y-64197861D01*
X10830035Y-64070002D01*
X10830035Y-64069998D01*
X12749965Y-64069998D01*
X12749965Y-64070002D01*
X12768024Y-64207176D01*
X12768025Y-64207179D01*
X12768026Y-64207183D01*
X12820976Y-64335018D01*
X12820977Y-64335020D01*
X12820978Y-64335021D01*
X12905207Y-64444789D01*
X12905210Y-64444792D01*
X12951809Y-64480549D01*
X13014982Y-64529024D01*
X13142817Y-64581974D01*
X13142822Y-64581974D01*
X13142823Y-64581975D01*
X13279997Y-64600035D01*
X13280000Y-64600035D01*
X13280003Y-64600035D01*
X13417176Y-64581975D01*
X13417176Y-64581974D01*
X13417183Y-64581974D01*
X13545018Y-64529024D01*
X13654791Y-64444791D01*
X13739024Y-64335018D01*
X13791974Y-64207183D01*
X13793201Y-64197861D01*
X13810035Y-64070002D01*
X13810035Y-64069998D01*
X13805714Y-64037176D01*
X13791974Y-63932817D01*
X13739024Y-63804983D01*
X13739024Y-63804982D01*
X13702451Y-63757321D01*
X13654791Y-63695209D01*
X13654788Y-63695207D01*
X13654787Y-63695205D01*
X13545021Y-63610978D01*
X13545020Y-63610977D01*
X13545018Y-63610976D01*
X13417183Y-63558026D01*
X13417179Y-63558025D01*
X13417176Y-63558024D01*
X13280003Y-63539965D01*
X13279999Y-63539965D01*
X13142816Y-63558026D01*
X13142815Y-63558026D01*
X13014982Y-63610975D01*
X12905211Y-63695207D01*
X12905207Y-63695211D01*
X12820975Y-63804982D01*
X12768026Y-63932815D01*
X12768026Y-63932816D01*
X12749965Y-64069998D01*
X10830035Y-64069998D01*
X10825714Y-64037176D01*
X10811974Y-63932817D01*
X10759024Y-63804983D01*
X10759024Y-63804982D01*
X10722451Y-63757321D01*
X10674791Y-63695209D01*
X10674788Y-63695207D01*
X10674787Y-63695205D01*
X10565021Y-63610978D01*
X10565020Y-63610977D01*
X10565018Y-63610976D01*
X10437183Y-63558026D01*
X10437179Y-63558025D01*
X10437176Y-63558024D01*
X10300003Y-63539965D01*
X10299999Y-63539965D01*
X10162816Y-63558026D01*
X10162815Y-63558026D01*
X10034982Y-63610975D01*
X9925211Y-63695207D01*
X9925207Y-63695211D01*
X9840975Y-63804982D01*
X9788026Y-63932815D01*
X9788026Y-63932816D01*
X9769965Y-64069998D01*
X200500Y-64069998D01*
X200500Y-62599998D01*
X14769965Y-62599998D01*
X14769965Y-62600002D01*
X14788024Y-62737176D01*
X14788025Y-62737179D01*
X14788026Y-62737183D01*
X14840976Y-62865018D01*
X14840977Y-62865020D01*
X14840978Y-62865021D01*
X14916020Y-62962817D01*
X14925209Y-62974791D01*
X15034982Y-63059024D01*
X15162817Y-63111974D01*
X15162820Y-63111974D01*
X15162822Y-63111975D01*
X15225934Y-63120283D01*
X15268974Y-63125950D01*
X15340231Y-63155465D01*
X15387184Y-63216654D01*
X15397251Y-63293123D01*
X15367736Y-63364380D01*
X15306547Y-63411333D01*
X15234980Y-63440977D01*
X15125211Y-63525207D01*
X15125207Y-63525211D01*
X15040975Y-63634982D01*
X14988026Y-63762815D01*
X14988026Y-63762816D01*
X14969965Y-63899998D01*
X14969965Y-63900002D01*
X14988024Y-64037176D01*
X14988025Y-64037179D01*
X14988026Y-64037183D01*
X15040976Y-64165018D01*
X15040977Y-64165019D01*
X15040978Y-64165021D01*
X15125207Y-64274789D01*
X15125210Y-64274792D01*
X15208508Y-64338710D01*
X15234982Y-64359024D01*
X15242992Y-64362341D01*
X15304181Y-64409293D01*
X15333698Y-64480549D01*
X15323632Y-64557018D01*
X15276680Y-64618208D01*
X15242995Y-64637657D01*
X15239105Y-64639268D01*
X15234980Y-64640977D01*
X15125211Y-64725207D01*
X15125207Y-64725211D01*
X15040975Y-64834982D01*
X14988026Y-64962815D01*
X14988026Y-64962816D01*
X14969965Y-65099998D01*
X14969965Y-65100002D01*
X14988024Y-65237176D01*
X14988025Y-65237179D01*
X14988026Y-65237183D01*
X15040976Y-65365018D01*
X15040977Y-65365020D01*
X15040978Y-65365021D01*
X15117709Y-65465018D01*
X15125209Y-65474791D01*
X15191542Y-65525691D01*
X15199492Y-65531791D01*
X15246444Y-65592981D01*
X15256510Y-65669450D01*
X15226994Y-65740707D01*
X15199492Y-65768208D01*
X15125212Y-65825206D01*
X15125207Y-65825211D01*
X15040975Y-65934982D01*
X14988026Y-66062815D01*
X14988026Y-66062816D01*
X14969965Y-66199998D01*
X14969965Y-66200002D01*
X14988024Y-66337176D01*
X14988025Y-66337179D01*
X14988026Y-66337183D01*
X15040976Y-66465018D01*
X15040977Y-66465020D01*
X15040978Y-66465021D01*
X15125207Y-66574789D01*
X15125210Y-66574792D01*
X15134331Y-66581791D01*
X15181283Y-66642981D01*
X15191350Y-66719449D01*
X15161834Y-66790706D01*
X15134335Y-66818206D01*
X15125212Y-66825206D01*
X15125207Y-66825211D01*
X15040975Y-66934982D01*
X14988026Y-67062815D01*
X14988026Y-67062816D01*
X14969965Y-67199998D01*
X14969965Y-67200002D01*
X14988024Y-67337176D01*
X14988025Y-67337179D01*
X14988026Y-67337183D01*
X15040976Y-67465018D01*
X15040977Y-67465020D01*
X15040978Y-67465021D01*
X15068202Y-67500500D01*
X15125209Y-67574791D01*
X15234982Y-67659024D01*
X15362817Y-67711974D01*
X15362822Y-67711974D01*
X15362823Y-67711975D01*
X15499997Y-67730035D01*
X15500000Y-67730035D01*
X15500003Y-67730035D01*
X15637176Y-67711975D01*
X15637176Y-67711974D01*
X15637183Y-67711974D01*
X15765018Y-67659024D01*
X15874791Y-67574791D01*
X15959024Y-67465018D01*
X16011974Y-67337183D01*
X16021092Y-67267928D01*
X16030035Y-67200002D01*
X16030035Y-67199998D01*
X16024417Y-67157330D01*
X16011974Y-67062817D01*
X15973061Y-66968872D01*
X15959024Y-66934982D01*
X15905340Y-66865021D01*
X15874791Y-66825209D01*
X15874788Y-66825207D01*
X15874787Y-66825205D01*
X15865669Y-66818209D01*
X15818717Y-66757019D01*
X15810988Y-66698307D01*
X23470339Y-66698307D01*
X23470339Y-66698311D01*
X23488398Y-66835485D01*
X23488399Y-66835488D01*
X23488400Y-66835492D01*
X23541350Y-66963327D01*
X23541351Y-66963329D01*
X23541352Y-66963330D01*
X23625581Y-67073098D01*
X23625584Y-67073101D01*
X23697038Y-67127930D01*
X23735356Y-67157333D01*
X23863191Y-67210283D01*
X23863196Y-67210283D01*
X23863197Y-67210284D01*
X24000371Y-67228344D01*
X24000374Y-67228344D01*
X24000377Y-67228344D01*
X24137550Y-67210284D01*
X24137550Y-67210283D01*
X24137557Y-67210283D01*
X24265392Y-67157333D01*
X24375165Y-67073100D01*
X24459398Y-66963327D01*
X24512348Y-66835492D01*
X24513702Y-66825205D01*
X24530409Y-66698311D01*
X24530409Y-66698307D01*
X24521564Y-66631125D01*
X24512348Y-66561126D01*
X24475460Y-66472070D01*
X24459398Y-66433291D01*
X24405359Y-66362868D01*
X24375165Y-66323518D01*
X24375162Y-66323516D01*
X24375161Y-66323514D01*
X24265395Y-66239287D01*
X24265394Y-66239286D01*
X24265392Y-66239285D01*
X24137557Y-66186335D01*
X24137553Y-66186334D01*
X24137550Y-66186333D01*
X24000377Y-66168274D01*
X24000373Y-66168274D01*
X23863190Y-66186335D01*
X23863189Y-66186335D01*
X23735356Y-66239284D01*
X23625585Y-66323516D01*
X23625581Y-66323520D01*
X23541349Y-66433291D01*
X23488400Y-66561124D01*
X23488400Y-66561125D01*
X23470339Y-66698307D01*
X15810988Y-66698307D01*
X15808650Y-66680551D01*
X15838166Y-66609294D01*
X15865669Y-66581791D01*
X15869228Y-66579059D01*
X15874791Y-66574791D01*
X15959024Y-66465018D01*
X16011974Y-66337183D01*
X16012264Y-66334982D01*
X16030035Y-66200002D01*
X16030035Y-66199998D01*
X16022163Y-66140209D01*
X16011974Y-66062817D01*
X15996463Y-66025371D01*
X15959024Y-65934982D01*
X15900736Y-65859021D01*
X15874791Y-65825209D01*
X15800507Y-65768208D01*
X15753556Y-65707019D01*
X15752495Y-65698961D01*
X18471200Y-65698961D01*
X18471200Y-65698965D01*
X18489259Y-65836139D01*
X18489260Y-65836142D01*
X18489261Y-65836146D01*
X18542211Y-65963981D01*
X18542212Y-65963983D01*
X18542213Y-65963984D01*
X18626442Y-66073752D01*
X18626445Y-66073755D01*
X18713050Y-66140210D01*
X18736217Y-66157987D01*
X18864052Y-66210937D01*
X18864057Y-66210937D01*
X18864058Y-66210938D01*
X19001232Y-66228998D01*
X19001235Y-66228998D01*
X19001238Y-66228998D01*
X19138411Y-66210938D01*
X19138411Y-66210937D01*
X19138418Y-66210937D01*
X19266253Y-66157987D01*
X19376026Y-66073754D01*
X19460259Y-65963981D01*
X19513209Y-65836146D01*
X19531270Y-65698963D01*
X19528143Y-65675215D01*
X19538209Y-65598751D01*
X19558020Y-65572930D01*
X19507156Y-65533900D01*
X19502614Y-65526033D01*
X19743212Y-65526033D01*
X19794075Y-65565059D01*
X19813526Y-65598748D01*
X19840975Y-65665018D01*
X19925207Y-65774789D01*
X19925210Y-65774792D01*
X19990910Y-65825206D01*
X20034982Y-65859024D01*
X20162817Y-65911974D01*
X20162822Y-65911974D01*
X20162823Y-65911975D01*
X20299997Y-65930035D01*
X20300000Y-65930035D01*
X20300003Y-65930035D01*
X20437176Y-65911975D01*
X20437176Y-65911974D01*
X20437183Y-65911974D01*
X20565018Y-65859024D01*
X20674791Y-65774791D01*
X20759024Y-65665018D01*
X20811974Y-65537183D01*
X20817972Y-65491623D01*
X20830035Y-65400002D01*
X20830035Y-65399998D01*
X20825429Y-65365018D01*
X20811974Y-65262817D01*
X20787953Y-65204825D01*
X20785954Y-65199998D01*
X27669965Y-65199998D01*
X27669965Y-65200002D01*
X27688024Y-65337176D01*
X27688025Y-65337179D01*
X27688026Y-65337183D01*
X27740976Y-65465018D01*
X27740977Y-65465020D01*
X27740978Y-65465021D01*
X27825207Y-65574789D01*
X27825210Y-65574792D01*
X27897203Y-65630035D01*
X27934982Y-65659024D01*
X28062817Y-65711974D01*
X28062822Y-65711974D01*
X28062823Y-65711975D01*
X28199997Y-65730035D01*
X28200000Y-65730035D01*
X28200003Y-65730035D01*
X28337176Y-65711975D01*
X28337176Y-65711974D01*
X28337183Y-65711974D01*
X28465018Y-65659024D01*
X28574791Y-65574791D01*
X28659024Y-65465018D01*
X28711974Y-65337183D01*
X28725569Y-65233923D01*
X28730035Y-65200002D01*
X28730035Y-65199998D01*
X28721940Y-65138515D01*
X48124500Y-65138515D01*
X48124500Y-65461485D01*
X48127882Y-65491500D01*
X48160661Y-65782428D01*
X48232526Y-66097289D01*
X48232527Y-66097291D01*
X48232528Y-66097295D01*
X48277287Y-66225209D01*
X48339197Y-66402138D01*
X48479329Y-66693125D01*
X48649109Y-66963330D01*
X48651159Y-66966591D01*
X48852527Y-67219099D01*
X49080901Y-67447473D01*
X49333409Y-67648841D01*
X49606875Y-67820671D01*
X49897860Y-67960802D01*
X50202705Y-68067472D01*
X50289776Y-68087345D01*
X50517571Y-68139338D01*
X50517574Y-68139338D01*
X50517577Y-68139339D01*
X50838515Y-68175500D01*
X50838516Y-68175500D01*
X51161484Y-68175500D01*
X51161485Y-68175500D01*
X51482423Y-68139339D01*
X51482426Y-68139338D01*
X51482428Y-68139338D01*
X51581362Y-68116757D01*
X51797295Y-68067472D01*
X52102140Y-67960802D01*
X52393125Y-67820671D01*
X52666591Y-67648841D01*
X52919099Y-67447473D01*
X53147473Y-67219099D01*
X53348841Y-66966591D01*
X53520671Y-66693125D01*
X53660802Y-66402140D01*
X53767472Y-66097295D01*
X53829573Y-65825211D01*
X53839338Y-65782428D01*
X53840199Y-65774792D01*
X53875500Y-65461485D01*
X53875500Y-65138515D01*
X76724500Y-65138515D01*
X76724500Y-65461485D01*
X76727882Y-65491500D01*
X76760661Y-65782428D01*
X76832526Y-66097289D01*
X76832527Y-66097291D01*
X76832528Y-66097295D01*
X76877287Y-66225209D01*
X76939197Y-66402138D01*
X77079329Y-66693125D01*
X77249109Y-66963330D01*
X77251159Y-66966591D01*
X77452527Y-67219099D01*
X77680901Y-67447473D01*
X77933409Y-67648841D01*
X78206875Y-67820671D01*
X78497860Y-67960802D01*
X78802705Y-68067472D01*
X78889776Y-68087345D01*
X79117571Y-68139338D01*
X79117574Y-68139338D01*
X79117577Y-68139339D01*
X79438515Y-68175500D01*
X79438516Y-68175500D01*
X79761484Y-68175500D01*
X79761485Y-68175500D01*
X80082423Y-68139339D01*
X80082426Y-68139338D01*
X80082428Y-68139338D01*
X80181362Y-68116757D01*
X80397295Y-68067472D01*
X80702140Y-67960802D01*
X80993125Y-67820671D01*
X81266591Y-67648841D01*
X81519099Y-67447473D01*
X81747473Y-67219099D01*
X81948841Y-66966591D01*
X82053517Y-66800000D01*
X88094355Y-66800000D01*
X88114860Y-66968874D01*
X88175181Y-67127929D01*
X88205113Y-67171293D01*
X88271817Y-67267929D01*
X88271819Y-67267930D01*
X88271820Y-67267932D01*
X88399146Y-67380732D01*
X88399148Y-67380734D01*
X88549775Y-67459790D01*
X88714944Y-67500500D01*
X88885056Y-67500500D01*
X89050225Y-67459790D01*
X89200852Y-67380734D01*
X89328183Y-67267929D01*
X89424818Y-67127930D01*
X89485140Y-66968872D01*
X89505645Y-66800000D01*
X89485140Y-66631128D01*
X89463774Y-66574791D01*
X89424818Y-66472070D01*
X89398051Y-66433292D01*
X89328183Y-66332071D01*
X89328180Y-66332068D01*
X89328179Y-66332067D01*
X89211837Y-66228998D01*
X89200853Y-66219267D01*
X89200854Y-66219267D01*
X89050224Y-66140209D01*
X88885056Y-66099500D01*
X88714944Y-66099500D01*
X88549775Y-66140209D01*
X88399145Y-66219267D01*
X88271820Y-66332067D01*
X88271817Y-66332071D01*
X88175181Y-66472070D01*
X88114860Y-66631125D01*
X88094355Y-66800000D01*
X82053517Y-66800000D01*
X82120671Y-66693125D01*
X82260802Y-66402140D01*
X82367472Y-66097295D01*
X82429573Y-65825211D01*
X82439338Y-65782428D01*
X82440199Y-65774792D01*
X82475500Y-65461485D01*
X82475500Y-65138515D01*
X82439339Y-64817577D01*
X82421855Y-64740976D01*
X82385565Y-64581975D01*
X82367472Y-64502705D01*
X82260802Y-64197860D01*
X82120671Y-63906875D01*
X81987674Y-63695211D01*
X81948843Y-63633412D01*
X81946150Y-63630035D01*
X81747473Y-63380901D01*
X81519099Y-63152527D01*
X81266591Y-62951159D01*
X81266589Y-62951158D01*
X81266587Y-62951156D01*
X80993125Y-62779329D01*
X80702138Y-62639197D01*
X80518078Y-62574792D01*
X80397295Y-62532528D01*
X80397291Y-62532527D01*
X80397289Y-62532526D01*
X80082428Y-62460661D01*
X79791918Y-62427929D01*
X79761485Y-62424500D01*
X79438515Y-62424500D01*
X79408082Y-62427929D01*
X79117571Y-62460661D01*
X78802710Y-62532526D01*
X78802708Y-62532527D01*
X78497861Y-62639197D01*
X78206874Y-62779329D01*
X77933412Y-62951156D01*
X77680896Y-63152531D01*
X77452531Y-63380896D01*
X77251156Y-63633412D01*
X77079329Y-63906874D01*
X76939197Y-64197861D01*
X76832527Y-64502708D01*
X76832526Y-64502710D01*
X76760661Y-64817571D01*
X76737266Y-65025211D01*
X76724500Y-65138515D01*
X53875500Y-65138515D01*
X53839339Y-64817577D01*
X53821855Y-64740976D01*
X53785565Y-64581975D01*
X53767472Y-64502705D01*
X53660802Y-64197860D01*
X53520671Y-63906875D01*
X53387674Y-63695211D01*
X53348843Y-63633412D01*
X53346150Y-63630035D01*
X53147473Y-63380901D01*
X52919099Y-63152527D01*
X52666591Y-62951159D01*
X52666589Y-62951158D01*
X52666587Y-62951156D01*
X52393125Y-62779329D01*
X52102138Y-62639197D01*
X51918078Y-62574792D01*
X51797295Y-62532528D01*
X51797291Y-62532527D01*
X51797289Y-62532526D01*
X51482428Y-62460661D01*
X51191918Y-62427929D01*
X51161485Y-62424500D01*
X50838515Y-62424500D01*
X50808082Y-62427929D01*
X50517571Y-62460661D01*
X50202710Y-62532526D01*
X50202708Y-62532527D01*
X49897861Y-62639197D01*
X49606874Y-62779329D01*
X49333412Y-62951156D01*
X49080896Y-63152531D01*
X48852531Y-63380896D01*
X48651156Y-63633412D01*
X48479329Y-63906874D01*
X48339197Y-64197861D01*
X48232527Y-64502708D01*
X48232526Y-64502710D01*
X48160661Y-64817571D01*
X48137266Y-65025211D01*
X48124500Y-65138515D01*
X28721940Y-65138515D01*
X28721475Y-65134982D01*
X28711974Y-65062817D01*
X28670553Y-64962816D01*
X28659024Y-64934982D01*
X28622451Y-64887321D01*
X28574791Y-64825209D01*
X28574788Y-64825207D01*
X28574787Y-64825205D01*
X28465021Y-64740978D01*
X28465020Y-64740977D01*
X28465018Y-64740976D01*
X28337183Y-64688026D01*
X28337179Y-64688025D01*
X28337176Y-64688024D01*
X28200003Y-64669965D01*
X28199999Y-64669965D01*
X28062816Y-64688026D01*
X28062815Y-64688026D01*
X27934982Y-64740975D01*
X27825211Y-64825207D01*
X27825207Y-64825211D01*
X27740975Y-64934982D01*
X27688026Y-65062815D01*
X27688026Y-65062816D01*
X27669965Y-65199998D01*
X20785954Y-65199998D01*
X20759024Y-65134982D01*
X20722451Y-65087321D01*
X20674791Y-65025209D01*
X20674788Y-65025207D01*
X20674787Y-65025205D01*
X20565021Y-64940978D01*
X20565020Y-64940977D01*
X20565018Y-64940976D01*
X20437183Y-64888026D01*
X20437179Y-64888025D01*
X20437176Y-64888024D01*
X20300003Y-64869965D01*
X20299999Y-64869965D01*
X20162816Y-64888026D01*
X20162815Y-64888026D01*
X20034982Y-64940975D01*
X19925211Y-65025207D01*
X19925207Y-65025211D01*
X19840975Y-65134982D01*
X19788026Y-65262815D01*
X19788026Y-65262816D01*
X19769965Y-65399998D01*
X19769965Y-65400002D01*
X19773091Y-65423747D01*
X19763024Y-65500215D01*
X19743212Y-65526033D01*
X19502614Y-65526033D01*
X19487708Y-65500214D01*
X19460259Y-65433945D01*
X19408376Y-65366331D01*
X19378860Y-65295075D01*
X19388927Y-65218606D01*
X19408377Y-65184918D01*
X19477332Y-65095056D01*
X19477332Y-65095055D01*
X19477335Y-65095052D01*
X19530285Y-64967217D01*
X19530864Y-64962817D01*
X19548346Y-64830036D01*
X19548346Y-64830032D01*
X19536621Y-64740978D01*
X19530285Y-64692851D01*
X19477335Y-64565017D01*
X19477334Y-64565016D01*
X19477334Y-64565015D01*
X19463990Y-64547625D01*
X19434473Y-64476369D01*
X19444539Y-64399900D01*
X19491491Y-64338710D01*
X19491490Y-64338710D01*
X19574791Y-64274791D01*
X19659024Y-64165018D01*
X19711974Y-64037183D01*
X19711975Y-64037176D01*
X19730035Y-63900002D01*
X19730035Y-63899998D01*
X19717525Y-63804982D01*
X19711974Y-63762817D01*
X19659024Y-63634983D01*
X19625048Y-63590705D01*
X19595533Y-63519450D01*
X19605599Y-63442982D01*
X19625049Y-63409294D01*
X19659024Y-63365018D01*
X19711974Y-63237183D01*
X19711975Y-63237176D01*
X19730035Y-63100002D01*
X19730035Y-63099998D01*
X19724640Y-63059021D01*
X19711974Y-62962817D01*
X19659024Y-62834983D01*
X19625048Y-62790705D01*
X19595533Y-62719450D01*
X19605599Y-62642982D01*
X19625049Y-62609294D01*
X19659024Y-62565018D01*
X19711974Y-62437183D01*
X19713192Y-62427929D01*
X19730035Y-62300002D01*
X19730035Y-62300000D01*
X19730035Y-62299998D01*
X19726831Y-62275664D01*
X19736897Y-62199198D01*
X19783849Y-62138008D01*
X19828313Y-62116078D01*
X19828161Y-62115710D01*
X19833784Y-62113380D01*
X19835988Y-62112294D01*
X19837178Y-62111975D01*
X19837179Y-62111974D01*
X19837183Y-62111974D01*
X19965018Y-62059024D01*
X20074791Y-61974791D01*
X20081791Y-61965669D01*
X20142981Y-61918717D01*
X20219449Y-61908650D01*
X20290706Y-61938166D01*
X20318209Y-61965669D01*
X20325207Y-61974789D01*
X20325210Y-61974792D01*
X20411460Y-62040975D01*
X20434982Y-62059024D01*
X20562817Y-62111974D01*
X20562822Y-62111974D01*
X20562823Y-62111975D01*
X20699997Y-62130035D01*
X20700000Y-62130035D01*
X20700003Y-62130035D01*
X20837176Y-62111975D01*
X20837176Y-62111974D01*
X20837183Y-62111974D01*
X20965018Y-62059024D01*
X21074791Y-61974791D01*
X21081791Y-61965669D01*
X21142981Y-61918717D01*
X21219449Y-61908650D01*
X21290706Y-61938166D01*
X21318209Y-61965669D01*
X21325207Y-61974789D01*
X21325210Y-61974792D01*
X21411460Y-62040975D01*
X21434982Y-62059024D01*
X21562817Y-62111974D01*
X21562822Y-62111974D01*
X21562823Y-62111975D01*
X21699997Y-62130035D01*
X21700000Y-62130035D01*
X21700003Y-62130035D01*
X21837180Y-62111975D01*
X21837182Y-62111974D01*
X21837183Y-62111974D01*
X21913539Y-62080346D01*
X21990006Y-62070280D01*
X22061263Y-62099796D01*
X22088765Y-62127297D01*
X22116019Y-62162815D01*
X22125210Y-62174792D01*
X22234978Y-62259021D01*
X22234982Y-62259024D01*
X22362817Y-62311974D01*
X22362820Y-62311974D01*
X22371839Y-62315710D01*
X22370480Y-62318989D01*
X22421236Y-62348292D01*
X22459802Y-62415086D01*
X22459804Y-62492214D01*
X22444923Y-62528143D01*
X22440978Y-62534976D01*
X22388026Y-62662815D01*
X22388026Y-62662816D01*
X22369965Y-62799998D01*
X22369965Y-62800002D01*
X22388024Y-62937176D01*
X22388025Y-62937179D01*
X22388026Y-62937183D01*
X22440976Y-63065018D01*
X22440977Y-63065020D01*
X22440978Y-63065021D01*
X22525207Y-63174789D01*
X22525210Y-63174792D01*
X22606519Y-63237183D01*
X22634982Y-63259024D01*
X22762817Y-63311974D01*
X22762822Y-63311974D01*
X22762823Y-63311975D01*
X22899997Y-63330035D01*
X22900000Y-63330035D01*
X22900003Y-63330035D01*
X23037178Y-63311975D01*
X23037179Y-63311974D01*
X23037183Y-63311974D01*
X23056210Y-63304092D01*
X23132676Y-63294026D01*
X23203933Y-63323541D01*
X23234123Y-63357966D01*
X23235031Y-63357270D01*
X23240975Y-63365017D01*
X23240976Y-63365018D01*
X23258631Y-63388026D01*
X23325207Y-63474789D01*
X23325210Y-63474792D01*
X23383409Y-63519450D01*
X23434982Y-63559024D01*
X23562817Y-63611974D01*
X23562823Y-63611974D01*
X23562826Y-63611976D01*
X23572256Y-63614504D01*
X23571572Y-63617052D01*
X23628934Y-63640806D01*
X23675892Y-63701992D01*
X23685966Y-63778459D01*
X23685964Y-63778472D01*
X23669965Y-63899997D01*
X23669965Y-63900002D01*
X23688024Y-64037176D01*
X23688025Y-64037179D01*
X23688026Y-64037183D01*
X23740976Y-64165018D01*
X23740977Y-64165019D01*
X23740978Y-64165021D01*
X23825206Y-64274788D01*
X23825209Y-64274791D01*
X23934982Y-64359024D01*
X24062817Y-64411974D01*
X24062822Y-64411974D01*
X24062823Y-64411975D01*
X24199997Y-64430035D01*
X24200000Y-64430035D01*
X24200003Y-64430035D01*
X24337176Y-64411975D01*
X24337176Y-64411974D01*
X24337183Y-64411974D01*
X24465018Y-64359024D01*
X24574791Y-64274791D01*
X24659024Y-64165018D01*
X24711974Y-64037183D01*
X24711975Y-64037176D01*
X24730035Y-63900002D01*
X24730035Y-63899998D01*
X24717525Y-63804982D01*
X24711974Y-63762817D01*
X24683969Y-63695207D01*
X24659024Y-63634982D01*
X24600736Y-63559021D01*
X24574791Y-63525209D01*
X24574788Y-63525207D01*
X24574787Y-63525205D01*
X24465021Y-63440978D01*
X24465020Y-63440977D01*
X24465018Y-63440976D01*
X24337183Y-63388026D01*
X24337178Y-63388025D01*
X24337173Y-63388023D01*
X24327744Y-63385496D01*
X24328426Y-63382950D01*
X24271043Y-63359176D01*
X24224096Y-63297981D01*
X24214035Y-63221525D01*
X24214677Y-63216654D01*
X24230035Y-63100000D01*
X24211974Y-62962817D01*
X24211779Y-62962347D01*
X24211713Y-62961844D01*
X24209446Y-62953383D01*
X24210559Y-62953084D01*
X24201709Y-62885884D01*
X24231220Y-62814625D01*
X24258730Y-62787114D01*
X24274791Y-62774791D01*
X24359024Y-62665018D01*
X24411974Y-62537183D01*
X24416869Y-62500002D01*
X24416870Y-62499998D01*
X26569965Y-62499998D01*
X26569965Y-62500002D01*
X26588024Y-62637176D01*
X26588025Y-62637179D01*
X26588026Y-62637183D01*
X26640976Y-62765018D01*
X26640977Y-62765020D01*
X26640978Y-62765021D01*
X26725207Y-62874789D01*
X26725210Y-62874792D01*
X26806519Y-62937183D01*
X26834982Y-62959024D01*
X26962817Y-63011974D01*
X26962822Y-63011974D01*
X26962823Y-63011975D01*
X27099997Y-63030035D01*
X27100000Y-63030035D01*
X27100003Y-63030035D01*
X27237176Y-63011975D01*
X27237176Y-63011974D01*
X27237183Y-63011974D01*
X27365018Y-62959024D01*
X27474791Y-62874791D01*
X27559024Y-62765018D01*
X27611974Y-62637183D01*
X27616869Y-62600002D01*
X27630035Y-62500002D01*
X27630035Y-62499998D01*
X27624856Y-62460661D01*
X27611974Y-62362817D01*
X27590914Y-62311974D01*
X27559024Y-62234982D01*
X27532179Y-62199998D01*
X30169965Y-62199998D01*
X30169965Y-62200002D01*
X30188024Y-62337176D01*
X30188025Y-62337179D01*
X30188026Y-62337183D01*
X30240976Y-62465018D01*
X30240977Y-62465020D01*
X30240978Y-62465021D01*
X30325207Y-62574789D01*
X30325210Y-62574792D01*
X30434978Y-62659021D01*
X30434982Y-62659024D01*
X30562817Y-62711974D01*
X30562822Y-62711974D01*
X30562823Y-62711975D01*
X30699997Y-62730035D01*
X30700000Y-62730035D01*
X30700003Y-62730035D01*
X30837176Y-62711975D01*
X30837176Y-62711974D01*
X30837183Y-62711974D01*
X30965018Y-62659024D01*
X31041938Y-62600000D01*
X39969355Y-62600000D01*
X39989860Y-62768874D01*
X40050181Y-62927929D01*
X40074262Y-62962816D01*
X40146817Y-63067929D01*
X40146819Y-63067930D01*
X40146820Y-63067932D01*
X40183018Y-63100000D01*
X40267437Y-63174789D01*
X40274146Y-63180732D01*
X40274148Y-63180734D01*
X40424775Y-63259790D01*
X40589944Y-63300500D01*
X40760056Y-63300500D01*
X40925225Y-63259790D01*
X41075852Y-63180734D01*
X41203183Y-63067929D01*
X41299818Y-62927930D01*
X41360140Y-62768872D01*
X41380645Y-62600000D01*
X41360140Y-62431128D01*
X41336530Y-62368874D01*
X41299818Y-62272070D01*
X41293426Y-62262810D01*
X41203183Y-62132071D01*
X41203180Y-62132068D01*
X41203179Y-62132067D01*
X41166983Y-62100000D01*
X42994355Y-62100000D01*
X43014860Y-62268874D01*
X43075181Y-62427929D01*
X43099262Y-62462816D01*
X43171817Y-62567929D01*
X43171819Y-62567930D01*
X43171820Y-62567932D01*
X43248215Y-62635612D01*
X43298941Y-62680551D01*
X43299146Y-62680732D01*
X43299148Y-62680734D01*
X43449775Y-62759790D01*
X43614944Y-62800500D01*
X43785056Y-62800500D01*
X43950225Y-62759790D01*
X44100852Y-62680734D01*
X44228183Y-62567929D01*
X44324818Y-62427930D01*
X44385140Y-62268872D01*
X44393503Y-62200000D01*
X71894355Y-62200000D01*
X71914860Y-62368874D01*
X71975181Y-62527929D01*
X72002794Y-62567932D01*
X72071817Y-62667929D01*
X72071819Y-62667930D01*
X72071820Y-62667932D01*
X72086271Y-62680734D01*
X72192437Y-62774789D01*
X72199146Y-62780732D01*
X72199148Y-62780734D01*
X72349775Y-62859790D01*
X72514944Y-62900500D01*
X72685056Y-62900500D01*
X72850225Y-62859790D01*
X73000852Y-62780734D01*
X73128183Y-62667929D01*
X73224818Y-62527930D01*
X73285140Y-62368872D01*
X73305645Y-62200000D01*
X73285140Y-62031128D01*
X73280641Y-62019266D01*
X73224818Y-61872070D01*
X73203355Y-61840976D01*
X73128183Y-61732071D01*
X73128180Y-61732068D01*
X73128179Y-61732067D01*
X73000853Y-61619267D01*
X73000854Y-61619267D01*
X72850224Y-61540209D01*
X72685056Y-61499500D01*
X72514944Y-61499500D01*
X72349775Y-61540209D01*
X72199145Y-61619267D01*
X72071820Y-61732067D01*
X72071817Y-61732071D01*
X71975181Y-61872070D01*
X71914860Y-62031125D01*
X71894355Y-62200000D01*
X44393503Y-62200000D01*
X44405645Y-62100000D01*
X44385140Y-61931128D01*
X44382894Y-61925207D01*
X44324818Y-61772070D01*
X44317864Y-61761995D01*
X44228183Y-61632071D01*
X44228180Y-61632068D01*
X44228179Y-61632067D01*
X44100853Y-61519267D01*
X44100854Y-61519267D01*
X43950224Y-61440209D01*
X43785056Y-61399500D01*
X43614944Y-61399500D01*
X43449775Y-61440209D01*
X43299145Y-61519267D01*
X43171820Y-61632067D01*
X43171817Y-61632071D01*
X43075181Y-61772070D01*
X43014860Y-61931125D01*
X42994355Y-62100000D01*
X41166983Y-62100000D01*
X41075853Y-62019267D01*
X41075854Y-62019267D01*
X40925224Y-61940209D01*
X40760056Y-61899500D01*
X40589944Y-61899500D01*
X40424775Y-61940209D01*
X40274145Y-62019267D01*
X40146820Y-62132067D01*
X40146817Y-62132071D01*
X40050181Y-62272070D01*
X39989860Y-62431125D01*
X39969355Y-62600000D01*
X31041938Y-62600000D01*
X31074791Y-62574791D01*
X31159024Y-62465018D01*
X31211974Y-62337183D01*
X31216869Y-62300002D01*
X31230035Y-62200002D01*
X31230035Y-62199998D01*
X31221873Y-62138008D01*
X31211974Y-62062817D01*
X31173514Y-61969965D01*
X31159024Y-61934982D01*
X31110749Y-61872070D01*
X31074791Y-61825209D01*
X31074788Y-61825207D01*
X31074787Y-61825205D01*
X30965021Y-61740978D01*
X30965020Y-61740977D01*
X30965018Y-61740976D01*
X30837183Y-61688026D01*
X30837179Y-61688025D01*
X30837176Y-61688024D01*
X30700003Y-61669965D01*
X30699999Y-61669965D01*
X30562816Y-61688026D01*
X30562815Y-61688026D01*
X30434982Y-61740975D01*
X30325211Y-61825207D01*
X30325207Y-61825211D01*
X30240975Y-61934982D01*
X30188026Y-62062815D01*
X30188026Y-62062816D01*
X30169965Y-62199998D01*
X27532179Y-62199998D01*
X27519965Y-62184081D01*
X27474791Y-62125209D01*
X27474788Y-62125207D01*
X27474787Y-62125205D01*
X27365021Y-62040978D01*
X27365020Y-62040977D01*
X27365018Y-62040976D01*
X27237183Y-61988026D01*
X27237179Y-61988025D01*
X27237176Y-61988024D01*
X27100003Y-61969965D01*
X27099999Y-61969965D01*
X26962816Y-61988026D01*
X26962815Y-61988026D01*
X26834982Y-62040975D01*
X26725211Y-62125207D01*
X26725207Y-62125211D01*
X26640975Y-62234982D01*
X26588026Y-62362815D01*
X26588026Y-62362816D01*
X26569965Y-62499998D01*
X24416870Y-62499998D01*
X24430035Y-62400002D01*
X24430035Y-62399998D01*
X24415293Y-62288026D01*
X24411974Y-62262817D01*
X24411035Y-62260549D01*
X24410715Y-62258122D01*
X24409445Y-62253380D01*
X24410069Y-62253212D01*
X24400969Y-62184081D01*
X24430486Y-62112825D01*
X24457986Y-62085324D01*
X24474791Y-62072430D01*
X24559024Y-61962657D01*
X24611974Y-61834822D01*
X24618627Y-61784289D01*
X24630035Y-61697641D01*
X24630035Y-61697637D01*
X24625832Y-61665717D01*
X24611974Y-61560456D01*
X24594913Y-61519266D01*
X24559024Y-61432621D01*
X24514770Y-61374950D01*
X24474791Y-61322848D01*
X24474788Y-61322846D01*
X24474787Y-61322844D01*
X24365021Y-61238617D01*
X24365020Y-61238616D01*
X24365018Y-61238615D01*
X24237183Y-61185665D01*
X24237179Y-61185664D01*
X24237176Y-61185663D01*
X24100003Y-61167604D01*
X24099999Y-61167604D01*
X23962816Y-61185665D01*
X23962815Y-61185665D01*
X23834982Y-61238614D01*
X23721932Y-61325361D01*
X23650675Y-61354876D01*
X23574207Y-61344809D01*
X23573869Y-61344643D01*
X23565020Y-61340977D01*
X23565018Y-61340976D01*
X23437183Y-61288026D01*
X23437179Y-61288025D01*
X23437176Y-61288024D01*
X23300003Y-61269965D01*
X23299999Y-61269965D01*
X23162816Y-61288026D01*
X23162815Y-61288026D01*
X23034982Y-61340975D01*
X22990705Y-61374951D01*
X22919448Y-61404466D01*
X22842980Y-61394399D01*
X22809294Y-61374950D01*
X22765021Y-61340978D01*
X22765020Y-61340977D01*
X22765018Y-61340976D01*
X22637183Y-61288026D01*
X22637179Y-61288025D01*
X22637176Y-61288024D01*
X22500003Y-61269965D01*
X22499999Y-61269965D01*
X22362816Y-61288026D01*
X22362815Y-61288026D01*
X22286461Y-61319653D01*
X22209993Y-61329720D01*
X22138736Y-61300204D01*
X22111233Y-61272701D01*
X22085079Y-61238617D01*
X22074791Y-61225209D01*
X22074788Y-61225207D01*
X22074787Y-61225205D01*
X21965021Y-61140978D01*
X21965020Y-61140977D01*
X21965018Y-61140976D01*
X21837183Y-61088026D01*
X21837179Y-61088025D01*
X21837176Y-61088024D01*
X21700003Y-61069965D01*
X21699999Y-61069965D01*
X21562816Y-61088026D01*
X21562815Y-61088026D01*
X21434982Y-61140975D01*
X21325211Y-61225207D01*
X21325206Y-61225212D01*
X21318206Y-61234335D01*
X21257015Y-61281285D01*
X21180546Y-61291350D01*
X21109290Y-61261831D01*
X21081794Y-61234335D01*
X21074792Y-61225210D01*
X21074787Y-61225205D01*
X20965021Y-61140978D01*
X20965020Y-61140977D01*
X20965018Y-61140976D01*
X20837183Y-61088026D01*
X20837179Y-61088025D01*
X20837176Y-61088024D01*
X20700003Y-61069965D01*
X20699999Y-61069965D01*
X20562816Y-61088026D01*
X20562815Y-61088026D01*
X20434982Y-61140975D01*
X20325211Y-61225207D01*
X20325206Y-61225212D01*
X20318206Y-61234335D01*
X20257015Y-61281285D01*
X20180546Y-61291350D01*
X20109290Y-61261831D01*
X20081794Y-61234335D01*
X20074792Y-61225210D01*
X20074787Y-61225205D01*
X19965021Y-61140978D01*
X19965020Y-61140977D01*
X19965018Y-61140976D01*
X19837183Y-61088026D01*
X19837179Y-61088025D01*
X19837176Y-61088024D01*
X19700003Y-61069965D01*
X19699999Y-61069965D01*
X19562816Y-61088026D01*
X19562815Y-61088026D01*
X19434982Y-61140975D01*
X19325211Y-61225207D01*
X19325207Y-61225211D01*
X19240975Y-61334982D01*
X19188026Y-61462815D01*
X19188026Y-61462816D01*
X19169965Y-61599998D01*
X19173169Y-61624338D01*
X19163100Y-61700806D01*
X19116147Y-61761995D01*
X19071686Y-61783921D01*
X19071839Y-61784289D01*
X19066228Y-61786612D01*
X19064014Y-61787705D01*
X19062818Y-61788025D01*
X18934982Y-61840975D01*
X18825211Y-61925207D01*
X18825207Y-61925211D01*
X18740975Y-62034982D01*
X18688026Y-62162815D01*
X18688026Y-62162816D01*
X18669965Y-62299998D01*
X18669965Y-62300002D01*
X18688024Y-62437176D01*
X18688025Y-62437179D01*
X18688026Y-62437183D01*
X18740976Y-62565018D01*
X18740977Y-62565019D01*
X18740978Y-62565021D01*
X18774950Y-62609294D01*
X18804466Y-62680551D01*
X18794399Y-62757019D01*
X18774951Y-62790705D01*
X18740975Y-62834982D01*
X18688026Y-62962815D01*
X18688026Y-62962816D01*
X18669965Y-63099998D01*
X18669965Y-63100002D01*
X18688024Y-63237176D01*
X18688025Y-63237179D01*
X18688026Y-63237183D01*
X18740976Y-63365018D01*
X18740977Y-63365019D01*
X18740978Y-63365021D01*
X18774950Y-63409294D01*
X18804466Y-63480551D01*
X18794399Y-63557019D01*
X18774951Y-63590705D01*
X18740975Y-63634982D01*
X18688026Y-63762815D01*
X18688026Y-63762816D01*
X18669965Y-63899998D01*
X18669965Y-63900002D01*
X18688024Y-64037176D01*
X18688025Y-64037179D01*
X18688026Y-64037183D01*
X18740976Y-64165018D01*
X18754321Y-64182409D01*
X18783837Y-64253666D01*
X18773771Y-64330134D01*
X18726819Y-64391325D01*
X18643519Y-64455244D01*
X18643518Y-64455245D01*
X18559286Y-64565016D01*
X18506337Y-64692849D01*
X18506337Y-64692850D01*
X18488276Y-64830032D01*
X18488276Y-64830036D01*
X18506335Y-64967210D01*
X18506336Y-64967213D01*
X18506337Y-64967217D01*
X18559287Y-65095052D01*
X18559288Y-65095054D01*
X18559289Y-65095055D01*
X18611169Y-65162666D01*
X18640685Y-65233923D01*
X18630618Y-65310391D01*
X18611169Y-65344078D01*
X18542210Y-65433945D01*
X18489261Y-65561778D01*
X18489261Y-65561779D01*
X18471200Y-65698961D01*
X15752495Y-65698961D01*
X15743489Y-65630551D01*
X15773005Y-65559294D01*
X15800508Y-65531791D01*
X15808458Y-65525691D01*
X15874791Y-65474791D01*
X15959024Y-65365018D01*
X16011974Y-65237183D01*
X16016869Y-65200002D01*
X16030035Y-65100002D01*
X16030035Y-65099998D01*
X16025139Y-65062815D01*
X16011974Y-64962817D01*
X15959024Y-64834983D01*
X15959024Y-64834982D01*
X15922451Y-64787321D01*
X15874791Y-64725209D01*
X15874788Y-64725207D01*
X15874787Y-64725205D01*
X15765020Y-64640977D01*
X15765018Y-64640976D01*
X15757007Y-64637658D01*
X15695819Y-64590707D01*
X15666302Y-64519451D01*
X15676368Y-64442982D01*
X15723320Y-64381792D01*
X15757006Y-64362342D01*
X15765018Y-64359024D01*
X15874791Y-64274791D01*
X15959024Y-64165018D01*
X16011974Y-64037183D01*
X16011975Y-64037176D01*
X16030035Y-63900002D01*
X16030035Y-63899998D01*
X16017525Y-63804982D01*
X16011974Y-63762817D01*
X15983969Y-63695207D01*
X15959024Y-63634982D01*
X15900736Y-63559021D01*
X15874791Y-63525209D01*
X15874788Y-63525207D01*
X15874787Y-63525205D01*
X15765021Y-63440978D01*
X15765020Y-63440977D01*
X15765018Y-63440976D01*
X15637183Y-63388026D01*
X15637181Y-63388025D01*
X15637177Y-63388024D01*
X15531024Y-63374049D01*
X15459767Y-63344533D01*
X15412815Y-63283344D01*
X15402748Y-63206875D01*
X15432264Y-63135618D01*
X15493451Y-63088667D01*
X15565018Y-63059024D01*
X15674791Y-62974791D01*
X15759024Y-62865018D01*
X15811974Y-62737183D01*
X15812915Y-62730035D01*
X15830035Y-62600002D01*
X15830035Y-62599998D01*
X15825429Y-62565018D01*
X15811974Y-62462817D01*
X15792203Y-62415086D01*
X15759024Y-62334982D01*
X15710749Y-62272070D01*
X15674791Y-62225209D01*
X15674788Y-62225207D01*
X15674787Y-62225205D01*
X15565021Y-62140978D01*
X15565020Y-62140977D01*
X15565018Y-62140976D01*
X15437183Y-62088026D01*
X15437179Y-62088025D01*
X15437176Y-62088024D01*
X15300003Y-62069965D01*
X15299999Y-62069965D01*
X15162816Y-62088026D01*
X15162815Y-62088026D01*
X15034982Y-62140975D01*
X14925211Y-62225207D01*
X14925207Y-62225211D01*
X14840975Y-62334982D01*
X14788026Y-62462815D01*
X14788026Y-62462816D01*
X14769965Y-62599998D01*
X200500Y-62599998D01*
X200500Y-61099998D01*
X13169965Y-61099998D01*
X13169965Y-61100002D01*
X13188024Y-61237176D01*
X13188025Y-61237179D01*
X13188026Y-61237183D01*
X13240976Y-61365018D01*
X13240977Y-61365020D01*
X13240978Y-61365021D01*
X13316020Y-61462817D01*
X13325209Y-61474791D01*
X13434982Y-61559024D01*
X13562817Y-61611974D01*
X13562822Y-61611974D01*
X13562823Y-61611975D01*
X13699997Y-61630035D01*
X13700000Y-61630035D01*
X13700003Y-61630035D01*
X13837176Y-61611975D01*
X13837176Y-61611974D01*
X13837183Y-61611974D01*
X13965018Y-61559024D01*
X14074791Y-61474791D01*
X14159024Y-61365018D01*
X14211974Y-61237183D01*
X14213550Y-61225210D01*
X14230035Y-61100002D01*
X14230035Y-61099998D01*
X14225832Y-61068078D01*
X14211974Y-60962817D01*
X14159024Y-60834983D01*
X14159024Y-60834982D01*
X14101326Y-60759790D01*
X14074791Y-60725209D01*
X14074788Y-60725207D01*
X14074787Y-60725205D01*
X13965021Y-60640978D01*
X13965020Y-60640977D01*
X13965018Y-60640976D01*
X13837183Y-60588026D01*
X13837179Y-60588025D01*
X13837176Y-60588024D01*
X13700003Y-60569965D01*
X13699999Y-60569965D01*
X13562816Y-60588026D01*
X13562815Y-60588026D01*
X13434982Y-60640975D01*
X13325211Y-60725207D01*
X13325207Y-60725211D01*
X13240975Y-60834982D01*
X13188026Y-60962815D01*
X13188026Y-60962816D01*
X13169965Y-61099998D01*
X200500Y-61099998D01*
X200500Y-59599998D01*
X20169965Y-59599998D01*
X20169965Y-59600002D01*
X20188024Y-59737176D01*
X20188025Y-59737179D01*
X20188026Y-59737183D01*
X20240976Y-59865018D01*
X20240977Y-59865020D01*
X20240978Y-59865021D01*
X20291704Y-59931128D01*
X20325209Y-59974791D01*
X20434982Y-60059024D01*
X20562817Y-60111974D01*
X20562822Y-60111974D01*
X20562823Y-60111975D01*
X20699997Y-60130035D01*
X20700000Y-60130035D01*
X20700003Y-60130035D01*
X20837176Y-60111975D01*
X20837176Y-60111974D01*
X20837183Y-60111974D01*
X20965018Y-60059024D01*
X21074791Y-59974791D01*
X21159024Y-59865018D01*
X21211974Y-59737183D01*
X21226358Y-59627929D01*
X21230035Y-59600002D01*
X21230035Y-59599998D01*
X22969965Y-59599998D01*
X22969965Y-59600002D01*
X22988024Y-59737176D01*
X22988025Y-59737179D01*
X22988026Y-59737183D01*
X23040976Y-59865018D01*
X23040977Y-59865020D01*
X23040978Y-59865021D01*
X23091704Y-59931128D01*
X23125209Y-59974791D01*
X23234982Y-60059024D01*
X23362817Y-60111974D01*
X23362822Y-60111974D01*
X23362823Y-60111975D01*
X23499997Y-60130035D01*
X23500000Y-60130035D01*
X23500003Y-60130035D01*
X23637176Y-60111975D01*
X23637176Y-60111974D01*
X23637183Y-60111974D01*
X23666091Y-60100000D01*
X30694355Y-60100000D01*
X30714860Y-60268874D01*
X30775181Y-60427929D01*
X30775182Y-60427930D01*
X30871817Y-60567929D01*
X30871819Y-60567930D01*
X30871820Y-60567932D01*
X30999146Y-60680732D01*
X30999148Y-60680734D01*
X31149775Y-60759790D01*
X31314944Y-60800500D01*
X31485056Y-60800500D01*
X31650225Y-60759790D01*
X31800852Y-60680734D01*
X31928183Y-60567929D01*
X32024818Y-60427930D01*
X32085140Y-60268872D01*
X32105645Y-60100000D01*
X86194355Y-60100000D01*
X86214860Y-60268874D01*
X86275181Y-60427929D01*
X86275182Y-60427930D01*
X86371817Y-60567929D01*
X86371819Y-60567930D01*
X86371820Y-60567932D01*
X86499146Y-60680732D01*
X86499148Y-60680734D01*
X86649775Y-60759790D01*
X86814944Y-60800500D01*
X86985056Y-60800500D01*
X87150225Y-60759790D01*
X87300852Y-60680734D01*
X87428183Y-60567929D01*
X87524818Y-60427930D01*
X87585140Y-60268872D01*
X87605645Y-60100000D01*
X87585140Y-59931128D01*
X87524818Y-59772070D01*
X87428183Y-59632071D01*
X87428180Y-59632068D01*
X87428179Y-59632067D01*
X87300853Y-59519267D01*
X87300854Y-59519267D01*
X87150224Y-59440209D01*
X86985056Y-59399500D01*
X86814944Y-59399500D01*
X86649775Y-59440209D01*
X86499145Y-59519267D01*
X86371820Y-59632067D01*
X86371817Y-59632071D01*
X86275181Y-59772070D01*
X86214860Y-59931125D01*
X86194355Y-60100000D01*
X32105645Y-60100000D01*
X32085140Y-59931128D01*
X32024818Y-59772070D01*
X31928183Y-59632071D01*
X31928180Y-59632068D01*
X31928179Y-59632067D01*
X31800853Y-59519267D01*
X31800854Y-59519267D01*
X31650224Y-59440209D01*
X31485056Y-59399500D01*
X31314944Y-59399500D01*
X31149775Y-59440209D01*
X30999145Y-59519267D01*
X30871820Y-59632067D01*
X30795270Y-59742968D01*
X30774252Y-59760845D01*
X30766671Y-59794509D01*
X30714861Y-59931123D01*
X30714861Y-59931125D01*
X30714860Y-59931128D01*
X30694355Y-60100000D01*
X23666091Y-60100000D01*
X23765018Y-60059024D01*
X23874791Y-59974791D01*
X23959024Y-59865018D01*
X24011974Y-59737183D01*
X24026358Y-59627929D01*
X24030035Y-59600002D01*
X24030035Y-59599998D01*
X24019406Y-59519267D01*
X24011974Y-59462817D01*
X23959024Y-59334983D01*
X23959024Y-59334982D01*
X23932180Y-59300000D01*
X29194355Y-59300000D01*
X29214860Y-59468874D01*
X29275181Y-59627929D01*
X29305113Y-59671293D01*
X29371817Y-59767929D01*
X29371819Y-59767930D01*
X29371820Y-59767932D01*
X29499146Y-59880732D01*
X29499148Y-59880734D01*
X29649775Y-59959790D01*
X29814944Y-60000500D01*
X29985056Y-60000500D01*
X30150225Y-59959790D01*
X30300852Y-59880734D01*
X30428183Y-59767929D01*
X30504731Y-59657029D01*
X30525746Y-59639154D01*
X30533329Y-59605489D01*
X30585138Y-59468878D01*
X30585138Y-59468876D01*
X30585140Y-59468872D01*
X30605645Y-59300000D01*
X33994355Y-59300000D01*
X34014860Y-59468874D01*
X34075181Y-59627929D01*
X34105113Y-59671293D01*
X34171817Y-59767929D01*
X34171819Y-59767930D01*
X34171820Y-59767932D01*
X34299146Y-59880732D01*
X34299148Y-59880734D01*
X34449775Y-59959790D01*
X34614944Y-60000500D01*
X34785056Y-60000500D01*
X34950225Y-59959790D01*
X35100852Y-59880734D01*
X35228183Y-59767929D01*
X35324818Y-59627930D01*
X35385140Y-59468872D01*
X35405645Y-59300000D01*
X35385140Y-59131128D01*
X35363774Y-59074791D01*
X35335410Y-59000000D01*
X54194355Y-59000000D01*
X54214860Y-59168874D01*
X54275181Y-59327929D01*
X54280050Y-59334983D01*
X54371817Y-59467929D01*
X54371819Y-59467930D01*
X54371820Y-59467932D01*
X54499146Y-59580732D01*
X54499148Y-59580734D01*
X54649775Y-59659790D01*
X54814944Y-59700500D01*
X54985056Y-59700500D01*
X55150225Y-59659790D01*
X55300852Y-59580734D01*
X55428183Y-59467929D01*
X55524818Y-59327930D01*
X55585140Y-59168872D01*
X55605645Y-59000000D01*
X55585140Y-58831128D01*
X55524818Y-58672070D01*
X55428183Y-58532071D01*
X55428180Y-58532068D01*
X55428179Y-58532067D01*
X55300853Y-58419267D01*
X55300854Y-58419267D01*
X55150224Y-58340209D01*
X54985056Y-58299500D01*
X54814944Y-58299500D01*
X54649775Y-58340209D01*
X54499145Y-58419267D01*
X54371820Y-58532067D01*
X54371817Y-58532071D01*
X54275181Y-58672070D01*
X54214860Y-58831125D01*
X54194355Y-59000000D01*
X35335410Y-59000000D01*
X35324818Y-58972070D01*
X35319950Y-58965018D01*
X35228183Y-58832071D01*
X35228180Y-58832068D01*
X35228179Y-58832067D01*
X35100853Y-58719267D01*
X35100854Y-58719267D01*
X34950224Y-58640209D01*
X34785056Y-58599500D01*
X34614944Y-58599500D01*
X34449775Y-58640209D01*
X34299145Y-58719267D01*
X34171820Y-58832067D01*
X34171817Y-58832071D01*
X34075181Y-58972070D01*
X34014860Y-59131125D01*
X33994355Y-59300000D01*
X30605645Y-59300000D01*
X30585140Y-59131128D01*
X30563774Y-59074791D01*
X30524818Y-58972070D01*
X30519950Y-58965018D01*
X30428183Y-58832071D01*
X30428180Y-58832068D01*
X30428179Y-58832067D01*
X30300853Y-58719267D01*
X30300854Y-58719267D01*
X30150224Y-58640209D01*
X29985056Y-58599500D01*
X29814944Y-58599500D01*
X29649775Y-58640209D01*
X29499145Y-58719267D01*
X29371820Y-58832067D01*
X29371817Y-58832071D01*
X29275181Y-58972070D01*
X29214860Y-59131125D01*
X29194355Y-59300000D01*
X23932180Y-59300000D01*
X23922451Y-59287321D01*
X23874791Y-59225209D01*
X23874788Y-59225207D01*
X23874787Y-59225205D01*
X23765021Y-59140978D01*
X23765020Y-59140977D01*
X23765018Y-59140976D01*
X23637183Y-59088026D01*
X23637179Y-59088025D01*
X23637176Y-59088024D01*
X23500003Y-59069965D01*
X23499999Y-59069965D01*
X23362816Y-59088026D01*
X23362815Y-59088026D01*
X23234982Y-59140975D01*
X23125211Y-59225207D01*
X23125207Y-59225211D01*
X23040975Y-59334982D01*
X22988026Y-59462815D01*
X22988026Y-59462816D01*
X22969965Y-59599998D01*
X21230035Y-59599998D01*
X21219406Y-59519267D01*
X21211974Y-59462817D01*
X21159024Y-59334983D01*
X21159024Y-59334982D01*
X21122451Y-59287321D01*
X21074791Y-59225209D01*
X21074788Y-59225207D01*
X21074787Y-59225205D01*
X20965021Y-59140978D01*
X20965020Y-59140977D01*
X20965018Y-59140976D01*
X20837183Y-59088026D01*
X20837179Y-59088025D01*
X20837176Y-59088024D01*
X20700003Y-59069965D01*
X20699999Y-59069965D01*
X20562816Y-59088026D01*
X20562815Y-59088026D01*
X20434982Y-59140975D01*
X20325211Y-59225207D01*
X20325207Y-59225211D01*
X20240975Y-59334982D01*
X20188026Y-59462815D01*
X20188026Y-59462816D01*
X20169965Y-59599998D01*
X200500Y-59599998D01*
X200500Y-58699998D01*
X17469965Y-58699998D01*
X17469965Y-58700002D01*
X17488024Y-58837176D01*
X17488025Y-58837179D01*
X17488026Y-58837183D01*
X17540976Y-58965018D01*
X17540977Y-58965020D01*
X17540978Y-58965021D01*
X17625207Y-59074789D01*
X17625210Y-59074792D01*
X17711460Y-59140975D01*
X17734982Y-59159024D01*
X17862817Y-59211974D01*
X17862822Y-59211974D01*
X17862823Y-59211975D01*
X17999997Y-59230035D01*
X18000000Y-59230035D01*
X18000003Y-59230035D01*
X18137176Y-59211975D01*
X18137176Y-59211974D01*
X18137183Y-59211974D01*
X18265018Y-59159024D01*
X18374791Y-59074791D01*
X18459024Y-58965018D01*
X18511974Y-58837183D01*
X18522507Y-58757183D01*
X18530035Y-58700002D01*
X18530035Y-58699998D01*
X18522163Y-58640209D01*
X18519502Y-58619998D01*
X21569965Y-58619998D01*
X21569965Y-58620002D01*
X21588024Y-58757176D01*
X21588025Y-58757179D01*
X21588026Y-58757183D01*
X21640976Y-58885018D01*
X21640977Y-58885020D01*
X21640978Y-58885021D01*
X21725207Y-58994789D01*
X21725210Y-58994792D01*
X21829467Y-59074792D01*
X21834982Y-59079024D01*
X21962817Y-59131974D01*
X21962822Y-59131974D01*
X21962823Y-59131975D01*
X22099997Y-59150035D01*
X22100000Y-59150035D01*
X22100003Y-59150035D01*
X22237176Y-59131975D01*
X22237176Y-59131974D01*
X22237183Y-59131974D01*
X22365018Y-59079024D01*
X22474791Y-58994791D01*
X22559024Y-58885018D01*
X22611974Y-58757183D01*
X22619502Y-58700002D01*
X22630035Y-58620002D01*
X22630035Y-58619998D01*
X22624083Y-58574789D01*
X22611974Y-58482817D01*
X22559024Y-58354983D01*
X22559024Y-58354982D01*
X22516450Y-58299500D01*
X22474791Y-58245209D01*
X22474788Y-58245207D01*
X22474787Y-58245205D01*
X22415873Y-58199998D01*
X23869965Y-58199998D01*
X23869965Y-58200002D01*
X23888024Y-58337176D01*
X23888025Y-58337179D01*
X23888026Y-58337183D01*
X23940976Y-58465018D01*
X23940977Y-58465020D01*
X23940978Y-58465021D01*
X24025207Y-58574789D01*
X24025210Y-58574792D01*
X24084128Y-58620002D01*
X24134982Y-58659024D01*
X24262817Y-58711974D01*
X24262822Y-58711974D01*
X24262823Y-58711975D01*
X24399997Y-58730035D01*
X24400000Y-58730035D01*
X24400003Y-58730035D01*
X24537176Y-58711975D01*
X24537176Y-58711974D01*
X24537183Y-58711974D01*
X24665018Y-58659024D01*
X24774791Y-58574791D01*
X24859024Y-58465018D01*
X24911974Y-58337183D01*
X24913550Y-58325211D01*
X24930035Y-58200002D01*
X24930035Y-58199998D01*
X24925832Y-58168078D01*
X24911974Y-58062817D01*
X24859024Y-57934983D01*
X24859024Y-57934982D01*
X24822451Y-57887321D01*
X24774791Y-57825209D01*
X24774788Y-57825207D01*
X24774787Y-57825205D01*
X24665021Y-57740978D01*
X24665020Y-57740977D01*
X24665018Y-57740976D01*
X24537183Y-57688026D01*
X24537179Y-57688025D01*
X24537176Y-57688024D01*
X24400003Y-57669965D01*
X24399999Y-57669965D01*
X24262816Y-57688026D01*
X24262815Y-57688026D01*
X24134982Y-57740975D01*
X24025211Y-57825207D01*
X24025207Y-57825211D01*
X23940975Y-57934982D01*
X23888026Y-58062815D01*
X23888026Y-58062816D01*
X23869965Y-58199998D01*
X22415873Y-58199998D01*
X22365021Y-58160978D01*
X22365020Y-58160977D01*
X22365018Y-58160976D01*
X22237183Y-58108026D01*
X22237179Y-58108025D01*
X22237176Y-58108024D01*
X22100003Y-58089965D01*
X22099999Y-58089965D01*
X21962816Y-58108026D01*
X21962815Y-58108026D01*
X21834982Y-58160975D01*
X21725211Y-58245207D01*
X21725207Y-58245211D01*
X21640975Y-58354982D01*
X21588026Y-58482815D01*
X21588026Y-58482816D01*
X21569965Y-58619998D01*
X18519502Y-58619998D01*
X18511974Y-58562817D01*
X18478837Y-58482816D01*
X18459024Y-58434982D01*
X18422451Y-58387321D01*
X18374791Y-58325209D01*
X18374788Y-58325207D01*
X18374787Y-58325205D01*
X18265021Y-58240978D01*
X18265020Y-58240977D01*
X18265018Y-58240976D01*
X18137183Y-58188026D01*
X18137179Y-58188025D01*
X18137176Y-58188024D01*
X18000003Y-58169965D01*
X17999999Y-58169965D01*
X17862816Y-58188026D01*
X17862815Y-58188026D01*
X17734982Y-58240975D01*
X17625211Y-58325207D01*
X17625207Y-58325211D01*
X17540975Y-58434982D01*
X17488026Y-58562815D01*
X17488026Y-58562816D01*
X17469965Y-58699998D01*
X200500Y-58699998D01*
X200500Y-55999998D01*
X21569965Y-55999998D01*
X21569965Y-56000002D01*
X21588024Y-56137176D01*
X21588025Y-56137179D01*
X21588026Y-56137183D01*
X21640976Y-56265018D01*
X21725209Y-56374791D01*
X21834982Y-56459024D01*
X21962817Y-56511974D01*
X21962822Y-56511974D01*
X21962823Y-56511975D01*
X22099997Y-56530035D01*
X22100000Y-56530035D01*
X22100003Y-56530035D01*
X22237176Y-56511975D01*
X22237176Y-56511974D01*
X22237183Y-56511974D01*
X22365018Y-56459024D01*
X22474791Y-56374791D01*
X22559024Y-56265018D01*
X22611974Y-56137183D01*
X22630035Y-56000000D01*
X22611974Y-55862817D01*
X22559024Y-55734983D01*
X22559024Y-55734982D01*
X22532180Y-55700000D01*
X53594355Y-55700000D01*
X53614860Y-55868874D01*
X53675181Y-56027929D01*
X53675182Y-56027930D01*
X53771817Y-56167929D01*
X53771819Y-56167930D01*
X53771820Y-56167932D01*
X53899146Y-56280732D01*
X53899148Y-56280734D01*
X54049775Y-56359790D01*
X54214944Y-56400500D01*
X54385056Y-56400500D01*
X54550225Y-56359790D01*
X54700852Y-56280734D01*
X54828183Y-56167929D01*
X54924818Y-56027930D01*
X54985140Y-55868872D01*
X55005645Y-55700000D01*
X54985140Y-55531128D01*
X54924818Y-55372070D01*
X54828183Y-55232071D01*
X54828180Y-55232068D01*
X54828179Y-55232067D01*
X54700853Y-55119267D01*
X54700854Y-55119267D01*
X54550224Y-55040209D01*
X54385056Y-54999500D01*
X54214944Y-54999500D01*
X54049775Y-55040209D01*
X53899145Y-55119267D01*
X53771820Y-55232067D01*
X53771817Y-55232071D01*
X53675181Y-55372070D01*
X53614860Y-55531125D01*
X53594355Y-55700000D01*
X22532180Y-55700000D01*
X22522451Y-55687321D01*
X22474791Y-55625209D01*
X22474788Y-55625207D01*
X22474787Y-55625205D01*
X22365021Y-55540978D01*
X22365020Y-55540977D01*
X22365018Y-55540976D01*
X22237183Y-55488026D01*
X22237179Y-55488025D01*
X22237176Y-55488024D01*
X22100003Y-55469965D01*
X22099999Y-55469965D01*
X21962816Y-55488026D01*
X21962815Y-55488026D01*
X21834982Y-55540975D01*
X21725211Y-55625207D01*
X21725207Y-55625211D01*
X21640975Y-55734982D01*
X21588026Y-55862815D01*
X21588026Y-55862816D01*
X21569965Y-55999998D01*
X200500Y-55999998D01*
X200500Y-54550000D01*
X28194355Y-54550000D01*
X28214860Y-54718874D01*
X28275181Y-54877929D01*
X28275182Y-54877930D01*
X28371817Y-55017929D01*
X28486204Y-55119267D01*
X28499146Y-55130732D01*
X28499148Y-55130734D01*
X28649775Y-55209790D01*
X28814944Y-55250500D01*
X28985056Y-55250500D01*
X29150225Y-55209790D01*
X29300852Y-55130734D01*
X29428183Y-55017929D01*
X29524818Y-54877930D01*
X29585140Y-54718872D01*
X29605645Y-54550000D01*
X30294355Y-54550000D01*
X30314860Y-54718874D01*
X30375181Y-54877929D01*
X30375182Y-54877930D01*
X30471817Y-55017929D01*
X30586204Y-55119267D01*
X30599146Y-55130732D01*
X30599148Y-55130734D01*
X30749775Y-55209790D01*
X30914944Y-55250500D01*
X31085056Y-55250500D01*
X31250225Y-55209790D01*
X31400852Y-55130734D01*
X31528183Y-55017929D01*
X31624818Y-54877930D01*
X31685140Y-54718872D01*
X31705645Y-54550000D01*
X31685140Y-54381128D01*
X31624818Y-54222070D01*
X31528183Y-54082071D01*
X31528180Y-54082068D01*
X31528179Y-54082067D01*
X31400853Y-53969267D01*
X31400854Y-53969267D01*
X31250224Y-53890209D01*
X31085056Y-53849500D01*
X30914944Y-53849500D01*
X30749775Y-53890209D01*
X30599145Y-53969267D01*
X30471820Y-54082067D01*
X30471817Y-54082071D01*
X30375181Y-54222070D01*
X30314860Y-54381125D01*
X30294355Y-54550000D01*
X29605645Y-54550000D01*
X29585140Y-54381128D01*
X29524818Y-54222070D01*
X29428183Y-54082071D01*
X29428180Y-54082068D01*
X29428179Y-54082067D01*
X29300853Y-53969267D01*
X29300854Y-53969267D01*
X29150224Y-53890209D01*
X28985056Y-53849500D01*
X28814944Y-53849500D01*
X28649775Y-53890209D01*
X28499145Y-53969267D01*
X28371820Y-54082067D01*
X28371817Y-54082071D01*
X28275181Y-54222070D01*
X28214860Y-54381125D01*
X28194355Y-54550000D01*
X200500Y-54550000D01*
X200500Y-51000000D01*
X2344706Y-51000000D01*
X2363854Y-51243304D01*
X2363855Y-51243309D01*
X2420828Y-51480614D01*
X2514221Y-51706086D01*
X2514224Y-51706091D01*
X2641736Y-51914172D01*
X2641738Y-51914174D01*
X2641741Y-51914179D01*
X2800241Y-52099759D01*
X2985821Y-52258259D01*
X2985825Y-52258261D01*
X2985827Y-52258263D01*
X3193908Y-52385775D01*
X3193913Y-52385778D01*
X3419385Y-52479171D01*
X3419386Y-52479171D01*
X3419388Y-52479172D01*
X3656698Y-52536146D01*
X3900000Y-52555294D01*
X4143302Y-52536146D01*
X4380612Y-52479172D01*
X4606089Y-52385777D01*
X4814179Y-52258259D01*
X4999759Y-52099759D01*
X5042257Y-52050000D01*
X9344706Y-52050000D01*
X9363854Y-52293304D01*
X9363855Y-52293309D01*
X9420828Y-52530614D01*
X9514221Y-52756086D01*
X9514224Y-52756091D01*
X9641736Y-52964172D01*
X9641738Y-52964174D01*
X9641741Y-52964179D01*
X9800241Y-53149759D01*
X9985821Y-53308259D01*
X9985825Y-53308261D01*
X9985827Y-53308263D01*
X10193908Y-53435775D01*
X10193913Y-53435778D01*
X10419385Y-53529171D01*
X10419386Y-53529171D01*
X10419388Y-53529172D01*
X10656698Y-53586146D01*
X10900000Y-53605294D01*
X11143302Y-53586146D01*
X11380612Y-53529172D01*
X11606089Y-53435777D01*
X11814179Y-53308259D01*
X11999759Y-53149759D01*
X12158259Y-52964179D01*
X12258869Y-52799998D01*
X19219965Y-52799998D01*
X19219965Y-52800002D01*
X19238024Y-52937176D01*
X19238025Y-52937179D01*
X19238026Y-52937183D01*
X19290976Y-53065018D01*
X19290977Y-53065020D01*
X19290978Y-53065021D01*
X19348673Y-53140210D01*
X19375209Y-53174791D01*
X19484982Y-53259024D01*
X19612817Y-53311974D01*
X19612822Y-53311974D01*
X19612823Y-53311975D01*
X19749997Y-53330035D01*
X19750000Y-53330035D01*
X19750003Y-53330035D01*
X19887177Y-53311975D01*
X19887178Y-53311974D01*
X19887183Y-53311974D01*
X19887187Y-53311972D01*
X19894775Y-53309939D01*
X19971903Y-53309932D01*
X20038701Y-53348489D01*
X20077271Y-53415281D01*
X20081077Y-53434408D01*
X20088024Y-53487177D01*
X20088025Y-53487181D01*
X20088026Y-53487183D01*
X20140976Y-53615018D01*
X20140977Y-53615020D01*
X20140978Y-53615021D01*
X20153337Y-53631128D01*
X20225209Y-53724791D01*
X20334982Y-53809024D01*
X20462817Y-53861974D01*
X20462822Y-53861974D01*
X20462823Y-53861975D01*
X20599997Y-53880035D01*
X20600000Y-53880035D01*
X20600003Y-53880035D01*
X20737176Y-53861975D01*
X20737176Y-53861974D01*
X20737183Y-53861974D01*
X20865018Y-53809024D01*
X20876778Y-53800000D01*
X51694355Y-53800000D01*
X51714860Y-53968874D01*
X51775181Y-54127929D01*
X51775182Y-54127930D01*
X51871817Y-54267929D01*
X51871819Y-54267930D01*
X51871820Y-54267932D01*
X51999146Y-54380732D01*
X51999148Y-54380734D01*
X52149775Y-54459790D01*
X52314944Y-54500500D01*
X52485056Y-54500500D01*
X52650225Y-54459790D01*
X52800852Y-54380734D01*
X52928183Y-54267929D01*
X53024818Y-54127930D01*
X53085140Y-53968872D01*
X53105645Y-53800000D01*
X53085140Y-53631128D01*
X53079031Y-53615021D01*
X53024818Y-53472070D01*
X52999767Y-53435778D01*
X52928183Y-53332071D01*
X52928180Y-53332068D01*
X52928179Y-53332067D01*
X52800853Y-53219267D01*
X52800854Y-53219267D01*
X52650224Y-53140209D01*
X52485056Y-53099500D01*
X52314944Y-53099500D01*
X52149775Y-53140209D01*
X51999145Y-53219267D01*
X51871820Y-53332067D01*
X51871817Y-53332071D01*
X51775181Y-53472070D01*
X51714860Y-53631125D01*
X51694355Y-53800000D01*
X20876778Y-53800000D01*
X20974791Y-53724791D01*
X21059024Y-53615018D01*
X21111974Y-53487183D01*
X21118922Y-53434408D01*
X21130035Y-53350002D01*
X21130035Y-53349998D01*
X21124540Y-53308263D01*
X21111974Y-53212817D01*
X21085855Y-53149759D01*
X21059024Y-53084982D01*
X21022451Y-53037321D01*
X20974791Y-52975209D01*
X20974788Y-52975207D01*
X20974787Y-52975205D01*
X20865021Y-52890978D01*
X20865020Y-52890977D01*
X20865018Y-52890976D01*
X20737183Y-52838026D01*
X20737179Y-52838025D01*
X20737176Y-52838024D01*
X20600003Y-52819965D01*
X20599999Y-52819965D01*
X20462816Y-52838026D01*
X20455203Y-52840066D01*
X20378075Y-52840062D01*
X20311282Y-52801495D01*
X20272721Y-52734698D01*
X20268923Y-52715600D01*
X20261974Y-52662817D01*
X20209506Y-52536146D01*
X20209024Y-52534982D01*
X20166198Y-52479171D01*
X20124791Y-52425209D01*
X20124788Y-52425207D01*
X20124787Y-52425205D01*
X20015020Y-52340977D01*
X20015018Y-52340976D01*
X19971650Y-52323013D01*
X19910461Y-52276062D01*
X19880945Y-52204805D01*
X19891011Y-52128337D01*
X19937963Y-52067146D01*
X19971647Y-52047698D01*
X20065018Y-52009024D01*
X20174791Y-51924791D01*
X20259024Y-51815018D01*
X20311974Y-51687183D01*
X20311975Y-51687176D01*
X20330035Y-51550002D01*
X20330035Y-51549998D01*
X20320900Y-51480614D01*
X20311974Y-51412817D01*
X20259024Y-51284983D01*
X20259024Y-51284982D01*
X20222451Y-51237321D01*
X20174791Y-51175209D01*
X20174788Y-51175207D01*
X20174787Y-51175205D01*
X20065021Y-51090978D01*
X20065020Y-51090977D01*
X20065018Y-51090976D01*
X19937183Y-51038026D01*
X19937179Y-51038025D01*
X19937176Y-51038024D01*
X19800003Y-51019965D01*
X19799999Y-51019965D01*
X19662816Y-51038026D01*
X19662815Y-51038026D01*
X19534982Y-51090975D01*
X19425211Y-51175207D01*
X19425207Y-51175211D01*
X19340975Y-51284982D01*
X19288026Y-51412815D01*
X19288026Y-51412816D01*
X19269965Y-51549998D01*
X19269965Y-51550002D01*
X19288024Y-51687176D01*
X19288025Y-51687179D01*
X19288026Y-51687183D01*
X19340976Y-51815018D01*
X19340977Y-51815020D01*
X19340978Y-51815021D01*
X19425207Y-51924789D01*
X19425210Y-51924792D01*
X19534980Y-52009023D01*
X19534981Y-52009023D01*
X19534982Y-52009024D01*
X19578347Y-52026986D01*
X19639537Y-52073936D01*
X19669054Y-52145193D01*
X19658988Y-52221661D01*
X19612037Y-52282852D01*
X19578349Y-52302302D01*
X19484981Y-52340976D01*
X19375211Y-52425207D01*
X19375207Y-52425211D01*
X19290975Y-52534982D01*
X19238026Y-52662815D01*
X19238026Y-52662816D01*
X19219965Y-52799998D01*
X12258869Y-52799998D01*
X12285777Y-52756089D01*
X12379172Y-52530612D01*
X12436146Y-52293302D01*
X12455294Y-52050000D01*
X12436146Y-51806698D01*
X12379172Y-51569388D01*
X12371141Y-51550000D01*
X12285778Y-51343913D01*
X12285775Y-51343908D01*
X12158263Y-51135827D01*
X12158261Y-51135825D01*
X12158259Y-51135821D01*
X12042257Y-51000000D01*
X21344706Y-51000000D01*
X21363854Y-51243304D01*
X21363855Y-51243309D01*
X21420828Y-51480614D01*
X21514221Y-51706086D01*
X21514224Y-51706091D01*
X21641736Y-51914172D01*
X21641738Y-51914174D01*
X21641741Y-51914179D01*
X21800241Y-52099759D01*
X21985821Y-52258259D01*
X21985825Y-52258261D01*
X21985827Y-52258263D01*
X22193908Y-52385775D01*
X22193913Y-52385778D01*
X22419385Y-52479171D01*
X22419386Y-52479171D01*
X22419388Y-52479172D01*
X22656698Y-52536146D01*
X22900000Y-52555294D01*
X23143302Y-52536146D01*
X23380612Y-52479172D01*
X23606089Y-52385777D01*
X23814179Y-52258259D01*
X23999759Y-52099759D01*
X24042257Y-52050000D01*
X28344706Y-52050000D01*
X28363854Y-52293304D01*
X28363855Y-52293309D01*
X28420828Y-52530614D01*
X28514221Y-52756086D01*
X28514224Y-52756091D01*
X28641736Y-52964172D01*
X28641738Y-52964174D01*
X28641741Y-52964179D01*
X28800241Y-53149759D01*
X28985821Y-53308259D01*
X28985825Y-53308261D01*
X28985827Y-53308263D01*
X29193908Y-53435775D01*
X29193913Y-53435778D01*
X29419385Y-53529171D01*
X29419386Y-53529171D01*
X29419388Y-53529172D01*
X29656698Y-53586146D01*
X29900000Y-53605294D01*
X30143302Y-53586146D01*
X30380612Y-53529172D01*
X30606089Y-53435777D01*
X30814179Y-53308259D01*
X30999759Y-53149759D01*
X31158259Y-52964179D01*
X31285777Y-52756089D01*
X31379172Y-52530612D01*
X31436146Y-52293302D01*
X31455294Y-52050000D01*
X31436146Y-51806698D01*
X31379172Y-51569388D01*
X31371141Y-51550000D01*
X31285778Y-51343913D01*
X31285775Y-51343908D01*
X31158263Y-51135827D01*
X31158261Y-51135825D01*
X31158259Y-51135821D01*
X31042257Y-51000000D01*
X40344706Y-51000000D01*
X40363854Y-51243304D01*
X40363855Y-51243309D01*
X40420828Y-51480614D01*
X40514221Y-51706086D01*
X40514224Y-51706091D01*
X40641736Y-51914172D01*
X40641738Y-51914174D01*
X40641741Y-51914179D01*
X40800241Y-52099759D01*
X40985821Y-52258259D01*
X40985825Y-52258261D01*
X40985827Y-52258263D01*
X41193908Y-52385775D01*
X41193913Y-52385778D01*
X41419385Y-52479171D01*
X41419386Y-52479171D01*
X41419388Y-52479172D01*
X41656698Y-52536146D01*
X41900000Y-52555294D01*
X42143302Y-52536146D01*
X42380612Y-52479172D01*
X42606089Y-52385777D01*
X42814179Y-52258259D01*
X42999759Y-52099759D01*
X43042257Y-52050000D01*
X47344706Y-52050000D01*
X47363854Y-52293304D01*
X47363855Y-52293309D01*
X47420828Y-52530614D01*
X47514221Y-52756086D01*
X47514224Y-52756091D01*
X47641736Y-52964172D01*
X47641738Y-52964174D01*
X47641741Y-52964179D01*
X47800241Y-53149759D01*
X47985821Y-53308259D01*
X47985825Y-53308261D01*
X47985827Y-53308263D01*
X48193908Y-53435775D01*
X48193913Y-53435778D01*
X48419385Y-53529171D01*
X48419386Y-53529171D01*
X48419388Y-53529172D01*
X48656698Y-53586146D01*
X48900000Y-53605294D01*
X49143302Y-53586146D01*
X49380612Y-53529172D01*
X49606089Y-53435777D01*
X49814179Y-53308259D01*
X49999759Y-53149759D01*
X50158259Y-52964179D01*
X50285777Y-52756089D01*
X50379172Y-52530612D01*
X50436146Y-52293302D01*
X50455294Y-52050000D01*
X50436146Y-51806698D01*
X50379172Y-51569388D01*
X50371141Y-51550000D01*
X50285778Y-51343913D01*
X50285775Y-51343908D01*
X50158263Y-51135827D01*
X50158261Y-51135825D01*
X50158259Y-51135821D01*
X50042257Y-51000000D01*
X59344706Y-51000000D01*
X59363854Y-51243304D01*
X59363855Y-51243309D01*
X59420828Y-51480614D01*
X59514221Y-51706086D01*
X59514224Y-51706091D01*
X59641736Y-51914172D01*
X59641738Y-51914174D01*
X59641741Y-51914179D01*
X59800241Y-52099759D01*
X59985821Y-52258259D01*
X59985825Y-52258261D01*
X59985827Y-52258263D01*
X60193908Y-52385775D01*
X60193913Y-52385778D01*
X60419385Y-52479171D01*
X60419386Y-52479171D01*
X60419388Y-52479172D01*
X60656698Y-52536146D01*
X60900000Y-52555294D01*
X61143302Y-52536146D01*
X61380612Y-52479172D01*
X61606089Y-52385777D01*
X61814179Y-52258259D01*
X61999759Y-52099759D01*
X62042257Y-52050000D01*
X66344706Y-52050000D01*
X66363854Y-52293304D01*
X66363855Y-52293309D01*
X66420828Y-52530614D01*
X66514221Y-52756086D01*
X66514224Y-52756091D01*
X66641736Y-52964172D01*
X66641738Y-52964174D01*
X66641741Y-52964179D01*
X66800241Y-53149759D01*
X66985821Y-53308259D01*
X66985825Y-53308261D01*
X66985827Y-53308263D01*
X67193908Y-53435775D01*
X67193913Y-53435778D01*
X67419385Y-53529171D01*
X67419386Y-53529171D01*
X67419388Y-53529172D01*
X67656698Y-53586146D01*
X67900000Y-53605294D01*
X68143302Y-53586146D01*
X68380612Y-53529172D01*
X68606089Y-53435777D01*
X68814179Y-53308259D01*
X68999759Y-53149759D01*
X69158259Y-52964179D01*
X69285777Y-52756089D01*
X69379172Y-52530612D01*
X69436146Y-52293302D01*
X69455294Y-52050000D01*
X69436146Y-51806698D01*
X69379172Y-51569388D01*
X69371141Y-51550000D01*
X69285778Y-51343913D01*
X69285775Y-51343908D01*
X69158263Y-51135827D01*
X69158261Y-51135825D01*
X69158259Y-51135821D01*
X69042257Y-51000000D01*
X78344706Y-51000000D01*
X78363854Y-51243304D01*
X78363855Y-51243309D01*
X78420828Y-51480614D01*
X78514221Y-51706086D01*
X78514224Y-51706091D01*
X78641736Y-51914172D01*
X78641738Y-51914174D01*
X78641741Y-51914179D01*
X78800241Y-52099759D01*
X78985821Y-52258259D01*
X78985825Y-52258261D01*
X78985827Y-52258263D01*
X79193908Y-52385775D01*
X79193913Y-52385778D01*
X79419385Y-52479171D01*
X79419386Y-52479171D01*
X79419388Y-52479172D01*
X79656698Y-52536146D01*
X79900000Y-52555294D01*
X80143302Y-52536146D01*
X80380612Y-52479172D01*
X80606089Y-52385777D01*
X80814179Y-52258259D01*
X80999759Y-52099759D01*
X81042257Y-52050000D01*
X85344706Y-52050000D01*
X85363854Y-52293304D01*
X85363855Y-52293309D01*
X85420828Y-52530614D01*
X85514221Y-52756086D01*
X85514224Y-52756091D01*
X85641736Y-52964172D01*
X85641738Y-52964174D01*
X85641741Y-52964179D01*
X85800241Y-53149759D01*
X85985821Y-53308259D01*
X85985825Y-53308261D01*
X85985827Y-53308263D01*
X86193908Y-53435775D01*
X86193913Y-53435778D01*
X86419385Y-53529171D01*
X86419386Y-53529171D01*
X86419388Y-53529172D01*
X86656698Y-53586146D01*
X86900000Y-53605294D01*
X87143302Y-53586146D01*
X87380612Y-53529172D01*
X87606089Y-53435777D01*
X87814179Y-53308259D01*
X87999759Y-53149759D01*
X88158259Y-52964179D01*
X88285777Y-52756089D01*
X88379172Y-52530612D01*
X88436146Y-52293302D01*
X88455294Y-52050000D01*
X88436146Y-51806698D01*
X88379172Y-51569388D01*
X88371141Y-51550000D01*
X88285778Y-51343913D01*
X88285775Y-51343908D01*
X88158263Y-51135827D01*
X88158261Y-51135825D01*
X88158259Y-51135821D01*
X87999759Y-50950241D01*
X87814179Y-50791741D01*
X87814174Y-50791738D01*
X87814172Y-50791736D01*
X87606091Y-50664224D01*
X87606086Y-50664221D01*
X87380614Y-50570828D01*
X87143309Y-50513855D01*
X87143304Y-50513854D01*
X86900000Y-50494706D01*
X86656695Y-50513854D01*
X86656690Y-50513855D01*
X86419385Y-50570828D01*
X86193913Y-50664221D01*
X86193908Y-50664224D01*
X85985827Y-50791736D01*
X85985821Y-50791740D01*
X85985821Y-50791741D01*
X85800241Y-50950241D01*
X85680041Y-51090978D01*
X85641736Y-51135827D01*
X85514224Y-51343908D01*
X85514221Y-51343913D01*
X85420828Y-51569385D01*
X85363855Y-51806690D01*
X85363854Y-51806695D01*
X85344706Y-52050000D01*
X81042257Y-52050000D01*
X81158259Y-51914179D01*
X81285777Y-51706089D01*
X81379172Y-51480612D01*
X81436146Y-51243302D01*
X81455294Y-51000000D01*
X81436146Y-50756698D01*
X81379172Y-50519388D01*
X81368948Y-50494706D01*
X81285778Y-50293913D01*
X81285775Y-50293908D01*
X81158263Y-50085827D01*
X81158261Y-50085825D01*
X81158259Y-50085821D01*
X80999759Y-49900241D01*
X80814179Y-49741741D01*
X80814174Y-49741738D01*
X80814172Y-49741736D01*
X80606091Y-49614224D01*
X80606086Y-49614221D01*
X80380614Y-49520828D01*
X80143309Y-49463855D01*
X80143304Y-49463854D01*
X79900000Y-49444706D01*
X79656695Y-49463854D01*
X79656690Y-49463855D01*
X79419385Y-49520828D01*
X79193913Y-49614221D01*
X79193908Y-49614224D01*
X78985827Y-49741736D01*
X78800241Y-49900241D01*
X78641736Y-50085827D01*
X78514224Y-50293908D01*
X78514221Y-50293913D01*
X78420828Y-50519385D01*
X78363855Y-50756690D01*
X78363854Y-50756695D01*
X78344706Y-51000000D01*
X69042257Y-51000000D01*
X68999759Y-50950241D01*
X68814179Y-50791741D01*
X68814174Y-50791738D01*
X68814172Y-50791736D01*
X68606091Y-50664224D01*
X68606086Y-50664221D01*
X68380614Y-50570828D01*
X68143309Y-50513855D01*
X68143304Y-50513854D01*
X67900000Y-50494706D01*
X67656695Y-50513854D01*
X67656690Y-50513855D01*
X67419385Y-50570828D01*
X67193913Y-50664221D01*
X67193908Y-50664224D01*
X66985827Y-50791736D01*
X66985821Y-50791740D01*
X66985821Y-50791741D01*
X66800241Y-50950241D01*
X66680041Y-51090978D01*
X66641736Y-51135827D01*
X66514224Y-51343908D01*
X66514221Y-51343913D01*
X66420828Y-51569385D01*
X66363855Y-51806690D01*
X66363854Y-51806695D01*
X66344706Y-52050000D01*
X62042257Y-52050000D01*
X62158259Y-51914179D01*
X62285777Y-51706089D01*
X62379172Y-51480612D01*
X62436146Y-51243302D01*
X62455294Y-51000000D01*
X62436146Y-50756698D01*
X62379172Y-50519388D01*
X62368948Y-50494706D01*
X62285778Y-50293913D01*
X62285775Y-50293908D01*
X62158263Y-50085827D01*
X62158261Y-50085825D01*
X62158259Y-50085821D01*
X61999759Y-49900241D01*
X61814179Y-49741741D01*
X61814174Y-49741738D01*
X61814172Y-49741736D01*
X61606091Y-49614224D01*
X61606086Y-49614221D01*
X61380614Y-49520828D01*
X61143309Y-49463855D01*
X61143304Y-49463854D01*
X60900000Y-49444706D01*
X60656695Y-49463854D01*
X60656690Y-49463855D01*
X60419385Y-49520828D01*
X60193913Y-49614221D01*
X60193908Y-49614224D01*
X59985827Y-49741736D01*
X59800241Y-49900241D01*
X59641736Y-50085827D01*
X59514224Y-50293908D01*
X59514221Y-50293913D01*
X59420828Y-50519385D01*
X59363855Y-50756690D01*
X59363854Y-50756695D01*
X59344706Y-51000000D01*
X50042257Y-51000000D01*
X49999759Y-50950241D01*
X49814179Y-50791741D01*
X49814174Y-50791738D01*
X49814172Y-50791736D01*
X49606091Y-50664224D01*
X49606086Y-50664221D01*
X49380614Y-50570828D01*
X49143309Y-50513855D01*
X49143304Y-50513854D01*
X48900000Y-50494706D01*
X48656695Y-50513854D01*
X48656690Y-50513855D01*
X48419385Y-50570828D01*
X48193913Y-50664221D01*
X48193908Y-50664224D01*
X47985827Y-50791736D01*
X47985821Y-50791740D01*
X47985821Y-50791741D01*
X47800241Y-50950241D01*
X47680041Y-51090978D01*
X47641736Y-51135827D01*
X47514224Y-51343908D01*
X47514221Y-51343913D01*
X47420828Y-51569385D01*
X47363855Y-51806690D01*
X47363854Y-51806695D01*
X47344706Y-52050000D01*
X43042257Y-52050000D01*
X43158259Y-51914179D01*
X43285777Y-51706089D01*
X43379172Y-51480612D01*
X43436146Y-51243302D01*
X43455294Y-51000000D01*
X43436146Y-50756698D01*
X43379172Y-50519388D01*
X43368948Y-50494706D01*
X43285778Y-50293913D01*
X43285775Y-50293908D01*
X43158263Y-50085827D01*
X43158261Y-50085825D01*
X43158259Y-50085821D01*
X42999759Y-49900241D01*
X42814179Y-49741741D01*
X42814174Y-49741738D01*
X42814172Y-49741736D01*
X42606091Y-49614224D01*
X42606086Y-49614221D01*
X42380614Y-49520828D01*
X42143309Y-49463855D01*
X42143304Y-49463854D01*
X41900000Y-49444706D01*
X41656695Y-49463854D01*
X41656690Y-49463855D01*
X41419385Y-49520828D01*
X41193913Y-49614221D01*
X41193908Y-49614224D01*
X40985827Y-49741736D01*
X40800241Y-49900241D01*
X40641736Y-50085827D01*
X40514224Y-50293908D01*
X40514221Y-50293913D01*
X40420828Y-50519385D01*
X40363855Y-50756690D01*
X40363854Y-50756695D01*
X40344706Y-51000000D01*
X31042257Y-51000000D01*
X30999759Y-50950241D01*
X30814179Y-50791741D01*
X30814174Y-50791738D01*
X30814172Y-50791736D01*
X30606091Y-50664224D01*
X30606086Y-50664221D01*
X30380614Y-50570828D01*
X30143309Y-50513855D01*
X30143304Y-50513854D01*
X29900000Y-50494706D01*
X29656695Y-50513854D01*
X29656690Y-50513855D01*
X29419385Y-50570828D01*
X29193913Y-50664221D01*
X29193908Y-50664224D01*
X28985827Y-50791736D01*
X28985821Y-50791740D01*
X28985821Y-50791741D01*
X28800241Y-50950241D01*
X28680041Y-51090978D01*
X28641736Y-51135827D01*
X28514224Y-51343908D01*
X28514221Y-51343913D01*
X28420828Y-51569385D01*
X28363855Y-51806690D01*
X28363854Y-51806695D01*
X28344706Y-52050000D01*
X24042257Y-52050000D01*
X24158259Y-51914179D01*
X24285777Y-51706089D01*
X24379172Y-51480612D01*
X24436146Y-51243302D01*
X24455294Y-51000000D01*
X24436146Y-50756698D01*
X24379172Y-50519388D01*
X24368948Y-50494706D01*
X24285778Y-50293913D01*
X24285775Y-50293908D01*
X24158263Y-50085827D01*
X24158261Y-50085825D01*
X24158259Y-50085821D01*
X23999759Y-49900241D01*
X23814179Y-49741741D01*
X23814174Y-49741738D01*
X23814172Y-49741736D01*
X23606091Y-49614224D01*
X23606086Y-49614221D01*
X23380614Y-49520828D01*
X23143309Y-49463855D01*
X23143304Y-49463854D01*
X22900000Y-49444706D01*
X22656695Y-49463854D01*
X22656690Y-49463855D01*
X22419385Y-49520828D01*
X22193913Y-49614221D01*
X22193908Y-49614224D01*
X21985827Y-49741736D01*
X21800241Y-49900241D01*
X21641736Y-50085827D01*
X21514224Y-50293908D01*
X21514221Y-50293913D01*
X21420828Y-50519385D01*
X21363855Y-50756690D01*
X21363854Y-50756695D01*
X21344706Y-51000000D01*
X12042257Y-51000000D01*
X11999759Y-50950241D01*
X11814179Y-50791741D01*
X11814174Y-50791738D01*
X11814172Y-50791736D01*
X11606091Y-50664224D01*
X11606086Y-50664221D01*
X11380614Y-50570828D01*
X11143309Y-50513855D01*
X11143304Y-50513854D01*
X10900000Y-50494706D01*
X10656695Y-50513854D01*
X10656690Y-50513855D01*
X10419385Y-50570828D01*
X10193913Y-50664221D01*
X10193908Y-50664224D01*
X9985827Y-50791736D01*
X9985821Y-50791740D01*
X9985821Y-50791741D01*
X9800241Y-50950241D01*
X9680041Y-51090978D01*
X9641736Y-51135827D01*
X9514224Y-51343908D01*
X9514221Y-51343913D01*
X9420828Y-51569385D01*
X9363855Y-51806690D01*
X9363854Y-51806695D01*
X9344706Y-52050000D01*
X5042257Y-52050000D01*
X5158259Y-51914179D01*
X5285777Y-51706089D01*
X5379172Y-51480612D01*
X5436146Y-51243302D01*
X5455294Y-51000000D01*
X5436146Y-50756698D01*
X5379172Y-50519388D01*
X5368948Y-50494706D01*
X5285778Y-50293913D01*
X5285775Y-50293908D01*
X5158263Y-50085827D01*
X5158261Y-50085825D01*
X5158259Y-50085821D01*
X4999759Y-49900241D01*
X4814179Y-49741741D01*
X4814174Y-49741738D01*
X4814172Y-49741736D01*
X4606091Y-49614224D01*
X4606086Y-49614221D01*
X4380614Y-49520828D01*
X4143309Y-49463855D01*
X4143304Y-49463854D01*
X3900000Y-49444706D01*
X3656695Y-49463854D01*
X3656690Y-49463855D01*
X3419385Y-49520828D01*
X3193913Y-49614221D01*
X3193908Y-49614224D01*
X2985827Y-49741736D01*
X2800241Y-49900241D01*
X2641736Y-50085827D01*
X2514224Y-50293908D01*
X2514221Y-50293913D01*
X2420828Y-50519385D01*
X2363855Y-50756690D01*
X2363854Y-50756695D01*
X2344706Y-51000000D01*
X200500Y-51000000D01*
X200500Y-49400000D01*
X49394355Y-49400000D01*
X49414860Y-49568874D01*
X49475181Y-49727929D01*
X49484715Y-49741741D01*
X49571817Y-49867929D01*
X49571819Y-49867930D01*
X49571820Y-49867932D01*
X49699146Y-49980732D01*
X49699148Y-49980734D01*
X49849775Y-50059790D01*
X50014944Y-50100500D01*
X50185056Y-50100500D01*
X50350225Y-50059790D01*
X50500852Y-49980734D01*
X50628183Y-49867929D01*
X50724818Y-49727930D01*
X50785140Y-49568872D01*
X50805645Y-49400000D01*
X50785140Y-49231128D01*
X50750329Y-49139339D01*
X50724818Y-49072070D01*
X50721644Y-49067472D01*
X50628183Y-48932071D01*
X50628180Y-48932068D01*
X50628179Y-48932067D01*
X50500853Y-48819267D01*
X50500854Y-48819267D01*
X50350224Y-48740209D01*
X50185056Y-48699500D01*
X50014944Y-48699500D01*
X49849775Y-48740209D01*
X49699145Y-48819267D01*
X49571820Y-48932067D01*
X49571817Y-48932071D01*
X49475181Y-49072070D01*
X49414860Y-49231125D01*
X49394355Y-49400000D01*
X200500Y-49400000D01*
X200500Y-46138516D01*
X5424500Y-46138516D01*
X5424500Y-46461483D01*
X5460661Y-46782428D01*
X5532526Y-47097289D01*
X5532527Y-47097291D01*
X5532528Y-47097295D01*
X5639198Y-47402140D01*
X5779329Y-47693125D01*
X5951159Y-47966591D01*
X6152527Y-48219099D01*
X6380901Y-48447473D01*
X6633409Y-48648841D01*
X6906875Y-48820671D01*
X7197860Y-48960802D01*
X7502705Y-49067472D01*
X7589776Y-49087345D01*
X7817571Y-49139338D01*
X7817574Y-49139338D01*
X7817577Y-49139339D01*
X8138515Y-49175500D01*
X8138516Y-49175500D01*
X8461484Y-49175500D01*
X8461485Y-49175500D01*
X8782423Y-49139339D01*
X8782426Y-49139338D01*
X8782428Y-49139338D01*
X8869494Y-49119465D01*
X9097295Y-49067472D01*
X9402140Y-48960802D01*
X9693125Y-48820671D01*
X9966591Y-48648841D01*
X10219099Y-48447473D01*
X10447473Y-48219099D01*
X10648841Y-47966591D01*
X10820671Y-47693125D01*
X10960802Y-47402140D01*
X11067472Y-47097295D01*
X11139339Y-46782423D01*
X11175500Y-46461485D01*
X11175500Y-46138516D01*
X24424500Y-46138516D01*
X24424500Y-46461483D01*
X24460661Y-46782428D01*
X24532526Y-47097289D01*
X24532527Y-47097291D01*
X24532528Y-47097295D01*
X24639198Y-47402140D01*
X24779329Y-47693125D01*
X24951159Y-47966591D01*
X25152527Y-48219099D01*
X25380901Y-48447473D01*
X25633409Y-48648841D01*
X25906875Y-48820671D01*
X26197860Y-48960802D01*
X26502705Y-49067472D01*
X26589776Y-49087345D01*
X26817571Y-49139338D01*
X26817574Y-49139338D01*
X26817577Y-49139339D01*
X27138515Y-49175500D01*
X27138516Y-49175500D01*
X27461484Y-49175500D01*
X27461485Y-49175500D01*
X27782423Y-49139339D01*
X27782426Y-49139338D01*
X27782428Y-49139338D01*
X27869494Y-49119465D01*
X28097295Y-49067472D01*
X28402140Y-48960802D01*
X28693125Y-48820671D01*
X28966591Y-48648841D01*
X29219099Y-48447473D01*
X29447473Y-48219099D01*
X29648841Y-47966591D01*
X29820671Y-47693125D01*
X29960802Y-47402140D01*
X30067472Y-47097295D01*
X30139339Y-46782423D01*
X30175500Y-46461485D01*
X30175500Y-46138516D01*
X43424500Y-46138516D01*
X43424500Y-46461483D01*
X43460661Y-46782428D01*
X43532526Y-47097289D01*
X43532527Y-47097291D01*
X43532528Y-47097295D01*
X43639198Y-47402140D01*
X43779329Y-47693125D01*
X43951159Y-47966591D01*
X44152527Y-48219099D01*
X44380901Y-48447473D01*
X44633409Y-48648841D01*
X44906875Y-48820671D01*
X45197860Y-48960802D01*
X45502705Y-49067472D01*
X45589776Y-49087345D01*
X45817571Y-49139338D01*
X45817574Y-49139338D01*
X45817577Y-49139339D01*
X46138515Y-49175500D01*
X46138516Y-49175500D01*
X46461484Y-49175500D01*
X46461485Y-49175500D01*
X46782423Y-49139339D01*
X46782426Y-49139338D01*
X46782428Y-49139338D01*
X46869494Y-49119465D01*
X47097295Y-49067472D01*
X47402140Y-48960802D01*
X47693125Y-48820671D01*
X47966591Y-48648841D01*
X48219099Y-48447473D01*
X48447473Y-48219099D01*
X48648841Y-47966591D01*
X48820671Y-47693125D01*
X48960802Y-47402140D01*
X49067472Y-47097295D01*
X49139339Y-46782423D01*
X49175500Y-46461485D01*
X49175500Y-46138516D01*
X62424500Y-46138516D01*
X62424500Y-46461483D01*
X62460661Y-46782428D01*
X62532526Y-47097289D01*
X62532527Y-47097291D01*
X62532528Y-47097295D01*
X62639198Y-47402140D01*
X62779329Y-47693125D01*
X62951159Y-47966591D01*
X63152527Y-48219099D01*
X63380901Y-48447473D01*
X63633409Y-48648841D01*
X63906875Y-48820671D01*
X64197860Y-48960802D01*
X64502705Y-49067472D01*
X64589776Y-49087345D01*
X64817571Y-49139338D01*
X64817574Y-49139338D01*
X64817577Y-49139339D01*
X65138515Y-49175500D01*
X65138516Y-49175500D01*
X65461484Y-49175500D01*
X65461485Y-49175500D01*
X65782423Y-49139339D01*
X65782426Y-49139338D01*
X65782428Y-49139338D01*
X65869494Y-49119465D01*
X66097295Y-49067472D01*
X66402140Y-48960802D01*
X66693125Y-48820671D01*
X66966591Y-48648841D01*
X67219099Y-48447473D01*
X67447473Y-48219099D01*
X67648841Y-47966591D01*
X67820671Y-47693125D01*
X67960802Y-47402140D01*
X68067472Y-47097295D01*
X68139339Y-46782423D01*
X68175500Y-46461485D01*
X68175500Y-46138516D01*
X81424500Y-46138516D01*
X81424500Y-46461483D01*
X81460661Y-46782428D01*
X81532526Y-47097289D01*
X81532527Y-47097291D01*
X81532528Y-47097295D01*
X81639198Y-47402140D01*
X81779329Y-47693125D01*
X81951159Y-47966591D01*
X82152527Y-48219099D01*
X82380901Y-48447473D01*
X82633409Y-48648841D01*
X82906875Y-48820671D01*
X83197860Y-48960802D01*
X83502705Y-49067472D01*
X83589776Y-49087345D01*
X83817571Y-49139338D01*
X83817574Y-49139338D01*
X83817577Y-49139339D01*
X84138515Y-49175500D01*
X84138516Y-49175500D01*
X84461484Y-49175500D01*
X84461485Y-49175500D01*
X84782423Y-49139339D01*
X84782426Y-49139338D01*
X84782428Y-49139338D01*
X84869494Y-49119465D01*
X85097295Y-49067472D01*
X85402140Y-48960802D01*
X85693125Y-48820671D01*
X85966591Y-48648841D01*
X86219099Y-48447473D01*
X86447473Y-48219099D01*
X86648841Y-47966591D01*
X86820671Y-47693125D01*
X86960802Y-47402140D01*
X87067472Y-47097295D01*
X87139339Y-46782423D01*
X87175500Y-46461485D01*
X87175500Y-46138515D01*
X87139339Y-45817577D01*
X87067472Y-45502705D01*
X86960802Y-45197860D01*
X86820671Y-44906875D01*
X86648841Y-44633409D01*
X86447473Y-44380901D01*
X86219099Y-44152527D01*
X85966591Y-43951159D01*
X85966589Y-43951158D01*
X85966587Y-43951156D01*
X85693125Y-43779329D01*
X85402138Y-43639197D01*
X85271384Y-43593444D01*
X85097295Y-43532528D01*
X85097291Y-43532527D01*
X85097289Y-43532526D01*
X84782428Y-43460661D01*
X84514974Y-43430526D01*
X84461485Y-43424500D01*
X84138515Y-43424500D01*
X84092666Y-43429665D01*
X83817571Y-43460661D01*
X83502710Y-43532526D01*
X83502708Y-43532527D01*
X83197861Y-43639197D01*
X82906874Y-43779329D01*
X82633412Y-43951156D01*
X82380896Y-44152531D01*
X82152531Y-44380896D01*
X81951156Y-44633412D01*
X81779329Y-44906874D01*
X81639197Y-45197861D01*
X81532527Y-45502708D01*
X81532526Y-45502710D01*
X81460661Y-45817571D01*
X81424500Y-46138516D01*
X68175500Y-46138516D01*
X68175500Y-46138515D01*
X68139339Y-45817577D01*
X68067472Y-45502705D01*
X67960802Y-45197860D01*
X67820671Y-44906875D01*
X67648841Y-44633409D01*
X67447473Y-44380901D01*
X67219099Y-44152527D01*
X66966591Y-43951159D01*
X66966589Y-43951158D01*
X66966587Y-43951156D01*
X66693125Y-43779329D01*
X66402138Y-43639197D01*
X66271384Y-43593444D01*
X66097295Y-43532528D01*
X66097291Y-43532527D01*
X66097289Y-43532526D01*
X65782428Y-43460661D01*
X65514974Y-43430526D01*
X65461485Y-43424500D01*
X65138515Y-43424500D01*
X65092666Y-43429665D01*
X64817571Y-43460661D01*
X64502710Y-43532526D01*
X64502708Y-43532527D01*
X64197861Y-43639197D01*
X63906874Y-43779329D01*
X63633412Y-43951156D01*
X63380896Y-44152531D01*
X63152531Y-44380896D01*
X62951156Y-44633412D01*
X62779329Y-44906874D01*
X62639197Y-45197861D01*
X62532527Y-45502708D01*
X62532526Y-45502710D01*
X62460661Y-45817571D01*
X62424500Y-46138516D01*
X49175500Y-46138516D01*
X49175500Y-46138515D01*
X49139339Y-45817577D01*
X49067472Y-45502705D01*
X48960802Y-45197860D01*
X48820671Y-44906875D01*
X48648841Y-44633409D01*
X48447473Y-44380901D01*
X48219099Y-44152527D01*
X47966591Y-43951159D01*
X47966589Y-43951158D01*
X47966587Y-43951156D01*
X47693125Y-43779329D01*
X47402138Y-43639197D01*
X47271384Y-43593444D01*
X47097295Y-43532528D01*
X47097291Y-43532527D01*
X47097289Y-43532526D01*
X46782428Y-43460661D01*
X46514974Y-43430526D01*
X46461485Y-43424500D01*
X46138515Y-43424500D01*
X46092666Y-43429665D01*
X45817571Y-43460661D01*
X45502710Y-43532526D01*
X45502708Y-43532527D01*
X45197861Y-43639197D01*
X44906874Y-43779329D01*
X44633412Y-43951156D01*
X44380896Y-44152531D01*
X44152531Y-44380896D01*
X43951156Y-44633412D01*
X43779329Y-44906874D01*
X43639197Y-45197861D01*
X43532527Y-45502708D01*
X43532526Y-45502710D01*
X43460661Y-45817571D01*
X43424500Y-46138516D01*
X30175500Y-46138516D01*
X30175500Y-46138515D01*
X30139339Y-45817577D01*
X30067472Y-45502705D01*
X29960802Y-45197860D01*
X29820671Y-44906875D01*
X29648841Y-44633409D01*
X29447473Y-44380901D01*
X29219099Y-44152527D01*
X28966591Y-43951159D01*
X28966589Y-43951158D01*
X28966587Y-43951156D01*
X28693125Y-43779329D01*
X28402138Y-43639197D01*
X28271384Y-43593444D01*
X28097295Y-43532528D01*
X28097291Y-43532527D01*
X28097289Y-43532526D01*
X27782428Y-43460661D01*
X27514974Y-43430526D01*
X27461485Y-43424500D01*
X27138515Y-43424500D01*
X27092666Y-43429665D01*
X26817571Y-43460661D01*
X26502710Y-43532526D01*
X26502708Y-43532527D01*
X26197861Y-43639197D01*
X25906874Y-43779329D01*
X25633412Y-43951156D01*
X25380896Y-44152531D01*
X25152531Y-44380896D01*
X24951156Y-44633412D01*
X24779329Y-44906874D01*
X24639197Y-45197861D01*
X24532527Y-45502708D01*
X24532526Y-45502710D01*
X24460661Y-45817571D01*
X24424500Y-46138516D01*
X11175500Y-46138516D01*
X11175500Y-46138515D01*
X11139339Y-45817577D01*
X11067472Y-45502705D01*
X10960802Y-45197860D01*
X10820671Y-44906875D01*
X10648841Y-44633409D01*
X10447473Y-44380901D01*
X10219099Y-44152527D01*
X9966591Y-43951159D01*
X9966589Y-43951158D01*
X9966587Y-43951156D01*
X9693125Y-43779329D01*
X9402138Y-43639197D01*
X9271384Y-43593444D01*
X9097295Y-43532528D01*
X9097291Y-43532527D01*
X9097289Y-43532526D01*
X8782428Y-43460661D01*
X8514974Y-43430526D01*
X8461485Y-43424500D01*
X8138515Y-43424500D01*
X8092666Y-43429665D01*
X7817571Y-43460661D01*
X7502710Y-43532526D01*
X7502708Y-43532527D01*
X7197861Y-43639197D01*
X6906874Y-43779329D01*
X6633412Y-43951156D01*
X6380896Y-44152531D01*
X6152531Y-44380896D01*
X5951156Y-44633412D01*
X5779329Y-44906874D01*
X5639197Y-45197861D01*
X5532527Y-45502708D01*
X5532526Y-45502710D01*
X5460661Y-45817571D01*
X5424500Y-46138516D01*
X200500Y-46138516D01*
X200500Y-40800000D01*
X7944355Y-40800000D01*
X7964860Y-40968874D01*
X8025181Y-41127929D01*
X8025182Y-41127930D01*
X8121817Y-41267929D01*
X8121819Y-41267930D01*
X8121820Y-41267932D01*
X8249146Y-41380732D01*
X8249148Y-41380734D01*
X8399775Y-41459790D01*
X8564944Y-41500500D01*
X8735056Y-41500500D01*
X8900225Y-41459790D01*
X9050852Y-41380734D01*
X9178183Y-41267929D01*
X9274818Y-41127930D01*
X9335140Y-40968872D01*
X9355645Y-40800000D01*
X22494355Y-40800000D01*
X22514860Y-40968874D01*
X22575181Y-41127929D01*
X22575182Y-41127930D01*
X22671817Y-41267929D01*
X22671819Y-41267930D01*
X22671820Y-41267932D01*
X22799146Y-41380732D01*
X22799148Y-41380734D01*
X22949775Y-41459790D01*
X23114944Y-41500500D01*
X23285056Y-41500500D01*
X23450225Y-41459790D01*
X23600852Y-41380734D01*
X23728183Y-41267929D01*
X23824818Y-41127930D01*
X23885140Y-40968872D01*
X23905645Y-40800000D01*
X41494355Y-40800000D01*
X41514860Y-40968874D01*
X41575181Y-41127929D01*
X41575182Y-41127930D01*
X41671817Y-41267929D01*
X41671819Y-41267930D01*
X41671820Y-41267932D01*
X41799146Y-41380732D01*
X41799148Y-41380734D01*
X41949775Y-41459790D01*
X42114944Y-41500500D01*
X42285056Y-41500500D01*
X42450225Y-41459790D01*
X42600852Y-41380734D01*
X42728183Y-41267929D01*
X42824818Y-41127930D01*
X42885140Y-40968872D01*
X42905645Y-40800000D01*
X60494355Y-40800000D01*
X60514860Y-40968874D01*
X60575181Y-41127929D01*
X60575182Y-41127930D01*
X60671817Y-41267929D01*
X60671819Y-41267930D01*
X60671820Y-41267932D01*
X60799146Y-41380732D01*
X60799148Y-41380734D01*
X60949775Y-41459790D01*
X61114944Y-41500500D01*
X61285056Y-41500500D01*
X61450225Y-41459790D01*
X61600852Y-41380734D01*
X61728183Y-41267929D01*
X61824818Y-41127930D01*
X61885140Y-40968872D01*
X61905645Y-40800000D01*
X79494355Y-40800000D01*
X79514860Y-40968874D01*
X79575181Y-41127929D01*
X79575182Y-41127930D01*
X79671817Y-41267929D01*
X79671819Y-41267930D01*
X79671820Y-41267932D01*
X79799146Y-41380732D01*
X79799148Y-41380734D01*
X79949775Y-41459790D01*
X80114944Y-41500500D01*
X80285056Y-41500500D01*
X80450225Y-41459790D01*
X80600852Y-41380734D01*
X80728183Y-41267929D01*
X80824818Y-41127930D01*
X80885140Y-40968872D01*
X80905645Y-40800000D01*
X80885140Y-40631128D01*
X80824818Y-40472070D01*
X80728183Y-40332071D01*
X80728180Y-40332068D01*
X80728179Y-40332067D01*
X80600853Y-40219267D01*
X80600854Y-40219267D01*
X80450224Y-40140209D01*
X80285056Y-40099500D01*
X80114944Y-40099500D01*
X79949775Y-40140209D01*
X79799145Y-40219267D01*
X79671820Y-40332067D01*
X79671817Y-40332071D01*
X79575181Y-40472070D01*
X79514860Y-40631125D01*
X79494355Y-40800000D01*
X61905645Y-40800000D01*
X61885140Y-40631128D01*
X61824818Y-40472070D01*
X61728183Y-40332071D01*
X61728180Y-40332068D01*
X61728179Y-40332067D01*
X61600853Y-40219267D01*
X61600854Y-40219267D01*
X61450224Y-40140209D01*
X61285056Y-40099500D01*
X61114944Y-40099500D01*
X60949775Y-40140209D01*
X60799145Y-40219267D01*
X60671820Y-40332067D01*
X60671817Y-40332071D01*
X60575181Y-40472070D01*
X60514860Y-40631125D01*
X60494355Y-40800000D01*
X42905645Y-40800000D01*
X42885140Y-40631128D01*
X42824818Y-40472070D01*
X42728183Y-40332071D01*
X42728180Y-40332068D01*
X42728179Y-40332067D01*
X42600853Y-40219267D01*
X42600854Y-40219267D01*
X42450224Y-40140209D01*
X42285056Y-40099500D01*
X42114944Y-40099500D01*
X41949775Y-40140209D01*
X41799145Y-40219267D01*
X41671820Y-40332067D01*
X41671817Y-40332071D01*
X41575181Y-40472070D01*
X41514860Y-40631125D01*
X41494355Y-40800000D01*
X23905645Y-40800000D01*
X23885140Y-40631128D01*
X23824818Y-40472070D01*
X23728183Y-40332071D01*
X23728180Y-40332068D01*
X23728179Y-40332067D01*
X23600853Y-40219267D01*
X23600854Y-40219267D01*
X23450224Y-40140209D01*
X23285056Y-40099500D01*
X23114944Y-40099500D01*
X22949775Y-40140209D01*
X22799145Y-40219267D01*
X22671820Y-40332067D01*
X22671817Y-40332071D01*
X22575181Y-40472070D01*
X22514860Y-40631125D01*
X22494355Y-40800000D01*
X9355645Y-40800000D01*
X9335140Y-40631128D01*
X9274818Y-40472070D01*
X9178183Y-40332071D01*
X9178180Y-40332068D01*
X9178179Y-40332067D01*
X9050853Y-40219267D01*
X9050854Y-40219267D01*
X8900224Y-40140209D01*
X8735056Y-40099500D01*
X8564944Y-40099500D01*
X8399775Y-40140209D01*
X8249145Y-40219267D01*
X8121820Y-40332067D01*
X8121817Y-40332071D01*
X8025181Y-40472070D01*
X7964860Y-40631125D01*
X7944355Y-40800000D01*
X200500Y-40800000D01*
X200500Y-32000000D01*
X13344706Y-32000000D01*
X13363854Y-32243304D01*
X13363855Y-32243309D01*
X13420828Y-32480614D01*
X13514221Y-32706086D01*
X13514224Y-32706091D01*
X13641736Y-32914172D01*
X13641738Y-32914174D01*
X13641741Y-32914179D01*
X13800241Y-33099759D01*
X13985821Y-33258259D01*
X13985825Y-33258261D01*
X13985827Y-33258263D01*
X14193908Y-33385775D01*
X14193913Y-33385778D01*
X14419385Y-33479171D01*
X14419386Y-33479171D01*
X14419388Y-33479172D01*
X14656698Y-33536146D01*
X14900000Y-33555294D01*
X15143302Y-33536146D01*
X15380612Y-33479172D01*
X15606089Y-33385777D01*
X15814179Y-33258259D01*
X15999759Y-33099759D01*
X16042257Y-33050000D01*
X20344706Y-33050000D01*
X20363854Y-33293304D01*
X20363855Y-33293309D01*
X20420828Y-33530614D01*
X20514221Y-33756086D01*
X20514224Y-33756091D01*
X20641736Y-33964172D01*
X20641738Y-33964174D01*
X20641741Y-33964179D01*
X20800241Y-34149759D01*
X20985821Y-34308259D01*
X20985825Y-34308261D01*
X20985827Y-34308263D01*
X21193908Y-34435775D01*
X21193913Y-34435778D01*
X21419385Y-34529171D01*
X21419386Y-34529171D01*
X21419388Y-34529172D01*
X21656698Y-34586146D01*
X21900000Y-34605294D01*
X22143302Y-34586146D01*
X22380612Y-34529172D01*
X22606089Y-34435777D01*
X22814179Y-34308259D01*
X22999759Y-34149759D01*
X23158259Y-33964179D01*
X23285777Y-33756089D01*
X23379172Y-33530612D01*
X23436146Y-33293302D01*
X23455294Y-33050000D01*
X23436146Y-32806698D01*
X23379172Y-32569388D01*
X23285777Y-32343911D01*
X23158259Y-32135821D01*
X23042257Y-32000000D01*
X32344706Y-32000000D01*
X32363854Y-32243304D01*
X32363855Y-32243309D01*
X32420828Y-32480614D01*
X32514221Y-32706086D01*
X32514224Y-32706091D01*
X32641736Y-32914172D01*
X32641738Y-32914174D01*
X32641741Y-32914179D01*
X32800241Y-33099759D01*
X32985821Y-33258259D01*
X32985825Y-33258261D01*
X32985827Y-33258263D01*
X33193908Y-33385775D01*
X33193913Y-33385778D01*
X33419385Y-33479171D01*
X33419386Y-33479171D01*
X33419388Y-33479172D01*
X33656698Y-33536146D01*
X33900000Y-33555294D01*
X34143302Y-33536146D01*
X34380612Y-33479172D01*
X34606089Y-33385777D01*
X34814179Y-33258259D01*
X34999759Y-33099759D01*
X35042257Y-33050000D01*
X39344706Y-33050000D01*
X39363854Y-33293304D01*
X39363855Y-33293309D01*
X39420828Y-33530614D01*
X39514221Y-33756086D01*
X39514224Y-33756091D01*
X39641736Y-33964172D01*
X39641738Y-33964174D01*
X39641741Y-33964179D01*
X39800241Y-34149759D01*
X39985821Y-34308259D01*
X39985825Y-34308261D01*
X39985827Y-34308263D01*
X40193908Y-34435775D01*
X40193913Y-34435778D01*
X40419385Y-34529171D01*
X40419386Y-34529171D01*
X40419388Y-34529172D01*
X40656698Y-34586146D01*
X40900000Y-34605294D01*
X41143302Y-34586146D01*
X41380612Y-34529172D01*
X41606089Y-34435777D01*
X41814179Y-34308259D01*
X41999759Y-34149759D01*
X42158259Y-33964179D01*
X42285777Y-33756089D01*
X42379172Y-33530612D01*
X42436146Y-33293302D01*
X42455294Y-33050000D01*
X42436146Y-32806698D01*
X42379172Y-32569388D01*
X42285777Y-32343911D01*
X42158259Y-32135821D01*
X42042257Y-32000000D01*
X51344706Y-32000000D01*
X51363854Y-32243304D01*
X51363855Y-32243309D01*
X51420828Y-32480614D01*
X51514221Y-32706086D01*
X51514224Y-32706091D01*
X51641736Y-32914172D01*
X51641738Y-32914174D01*
X51641741Y-32914179D01*
X51800241Y-33099759D01*
X51985821Y-33258259D01*
X51985825Y-33258261D01*
X51985827Y-33258263D01*
X52193908Y-33385775D01*
X52193913Y-33385778D01*
X52419385Y-33479171D01*
X52419386Y-33479171D01*
X52419388Y-33479172D01*
X52656698Y-33536146D01*
X52900000Y-33555294D01*
X53143302Y-33536146D01*
X53380612Y-33479172D01*
X53606089Y-33385777D01*
X53814179Y-33258259D01*
X53999759Y-33099759D01*
X54042257Y-33050000D01*
X58344706Y-33050000D01*
X58363854Y-33293304D01*
X58363855Y-33293309D01*
X58420828Y-33530614D01*
X58514221Y-33756086D01*
X58514224Y-33756091D01*
X58641736Y-33964172D01*
X58641738Y-33964174D01*
X58641741Y-33964179D01*
X58800241Y-34149759D01*
X58985821Y-34308259D01*
X58985825Y-34308261D01*
X58985827Y-34308263D01*
X59193908Y-34435775D01*
X59193913Y-34435778D01*
X59419385Y-34529171D01*
X59419386Y-34529171D01*
X59419388Y-34529172D01*
X59656698Y-34586146D01*
X59900000Y-34605294D01*
X60143302Y-34586146D01*
X60380612Y-34529172D01*
X60606089Y-34435777D01*
X60814179Y-34308259D01*
X60999759Y-34149759D01*
X61158259Y-33964179D01*
X61285777Y-33756089D01*
X61379172Y-33530612D01*
X61436146Y-33293302D01*
X61455294Y-33050000D01*
X61436146Y-32806698D01*
X61379172Y-32569388D01*
X61285777Y-32343911D01*
X61158259Y-32135821D01*
X61042257Y-32000000D01*
X70344706Y-32000000D01*
X70363854Y-32243304D01*
X70363855Y-32243309D01*
X70420828Y-32480614D01*
X70514221Y-32706086D01*
X70514224Y-32706091D01*
X70641736Y-32914172D01*
X70641738Y-32914174D01*
X70641741Y-32914179D01*
X70800241Y-33099759D01*
X70985821Y-33258259D01*
X70985825Y-33258261D01*
X70985827Y-33258263D01*
X71193908Y-33385775D01*
X71193913Y-33385778D01*
X71419385Y-33479171D01*
X71419386Y-33479171D01*
X71419388Y-33479172D01*
X71656698Y-33536146D01*
X71900000Y-33555294D01*
X72143302Y-33536146D01*
X72380612Y-33479172D01*
X72606089Y-33385777D01*
X72814179Y-33258259D01*
X72999759Y-33099759D01*
X73042257Y-33050000D01*
X77344706Y-33050000D01*
X77363854Y-33293304D01*
X77363855Y-33293309D01*
X77420828Y-33530614D01*
X77514221Y-33756086D01*
X77514224Y-33756091D01*
X77641736Y-33964172D01*
X77641738Y-33964174D01*
X77641741Y-33964179D01*
X77800241Y-34149759D01*
X77985821Y-34308259D01*
X77985825Y-34308261D01*
X77985827Y-34308263D01*
X78193908Y-34435775D01*
X78193913Y-34435778D01*
X78419385Y-34529171D01*
X78419386Y-34529171D01*
X78419388Y-34529172D01*
X78656698Y-34586146D01*
X78900000Y-34605294D01*
X79143302Y-34586146D01*
X79380612Y-34529172D01*
X79606089Y-34435777D01*
X79814179Y-34308259D01*
X79999759Y-34149759D01*
X80158259Y-33964179D01*
X80285777Y-33756089D01*
X80379172Y-33530612D01*
X80436146Y-33293302D01*
X80455294Y-33050000D01*
X80436146Y-32806698D01*
X80379172Y-32569388D01*
X80285777Y-32343911D01*
X80158259Y-32135821D01*
X79999759Y-31950241D01*
X79814179Y-31791741D01*
X79814174Y-31791738D01*
X79814172Y-31791736D01*
X79606091Y-31664224D01*
X79606086Y-31664221D01*
X79380614Y-31570828D01*
X79143309Y-31513855D01*
X79143304Y-31513854D01*
X78900000Y-31494706D01*
X78656695Y-31513854D01*
X78656690Y-31513855D01*
X78419385Y-31570828D01*
X78193913Y-31664221D01*
X78193908Y-31664224D01*
X77985827Y-31791736D01*
X77800241Y-31950241D01*
X77641736Y-32135827D01*
X77514224Y-32343908D01*
X77514221Y-32343913D01*
X77420828Y-32569385D01*
X77363855Y-32806690D01*
X77363854Y-32806695D01*
X77344706Y-33050000D01*
X73042257Y-33050000D01*
X73158259Y-32914179D01*
X73285777Y-32706089D01*
X73379172Y-32480612D01*
X73436146Y-32243302D01*
X73455294Y-32000000D01*
X73436146Y-31756698D01*
X73379172Y-31519388D01*
X73368948Y-31494706D01*
X73285778Y-31293913D01*
X73285775Y-31293908D01*
X73158263Y-31085827D01*
X73158261Y-31085825D01*
X73158259Y-31085821D01*
X72999759Y-30900241D01*
X72814179Y-30741741D01*
X72814174Y-30741738D01*
X72814172Y-30741736D01*
X72606091Y-30614224D01*
X72606086Y-30614221D01*
X72380614Y-30520828D01*
X72143309Y-30463855D01*
X72143304Y-30463854D01*
X71900000Y-30444706D01*
X71656695Y-30463854D01*
X71656690Y-30463855D01*
X71419385Y-30520828D01*
X71193913Y-30614221D01*
X71193908Y-30614224D01*
X70985827Y-30741736D01*
X70800241Y-30900241D01*
X70641736Y-31085827D01*
X70514224Y-31293908D01*
X70514221Y-31293913D01*
X70420828Y-31519385D01*
X70363855Y-31756690D01*
X70363854Y-31756695D01*
X70344706Y-32000000D01*
X61042257Y-32000000D01*
X60999759Y-31950241D01*
X60814179Y-31791741D01*
X60814174Y-31791738D01*
X60814172Y-31791736D01*
X60606091Y-31664224D01*
X60606086Y-31664221D01*
X60380614Y-31570828D01*
X60143309Y-31513855D01*
X60143304Y-31513854D01*
X59900000Y-31494706D01*
X59656695Y-31513854D01*
X59656690Y-31513855D01*
X59419385Y-31570828D01*
X59193913Y-31664221D01*
X59193908Y-31664224D01*
X58985827Y-31791736D01*
X58800241Y-31950241D01*
X58641736Y-32135827D01*
X58514224Y-32343908D01*
X58514221Y-32343913D01*
X58420828Y-32569385D01*
X58363855Y-32806690D01*
X58363854Y-32806695D01*
X58344706Y-33050000D01*
X54042257Y-33050000D01*
X54158259Y-32914179D01*
X54285777Y-32706089D01*
X54379172Y-32480612D01*
X54436146Y-32243302D01*
X54455294Y-32000000D01*
X54436146Y-31756698D01*
X54379172Y-31519388D01*
X54368948Y-31494706D01*
X54285778Y-31293913D01*
X54285775Y-31293908D01*
X54158263Y-31085827D01*
X54158261Y-31085825D01*
X54158259Y-31085821D01*
X53999759Y-30900241D01*
X53814179Y-30741741D01*
X53814174Y-30741738D01*
X53814172Y-30741736D01*
X53606091Y-30614224D01*
X53606086Y-30614221D01*
X53380614Y-30520828D01*
X53143309Y-30463855D01*
X53143304Y-30463854D01*
X52900000Y-30444706D01*
X52656695Y-30463854D01*
X52656690Y-30463855D01*
X52419385Y-30520828D01*
X52193913Y-30614221D01*
X52193908Y-30614224D01*
X51985827Y-30741736D01*
X51800241Y-30900241D01*
X51641736Y-31085827D01*
X51514224Y-31293908D01*
X51514221Y-31293913D01*
X51420828Y-31519385D01*
X51363855Y-31756690D01*
X51363854Y-31756695D01*
X51344706Y-32000000D01*
X42042257Y-32000000D01*
X41999759Y-31950241D01*
X41814179Y-31791741D01*
X41814174Y-31791738D01*
X41814172Y-31791736D01*
X41606091Y-31664224D01*
X41606086Y-31664221D01*
X41380614Y-31570828D01*
X41143309Y-31513855D01*
X41143304Y-31513854D01*
X40900000Y-31494706D01*
X40656695Y-31513854D01*
X40656690Y-31513855D01*
X40419385Y-31570828D01*
X40193913Y-31664221D01*
X40193908Y-31664224D01*
X39985827Y-31791736D01*
X39800241Y-31950241D01*
X39641736Y-32135827D01*
X39514224Y-32343908D01*
X39514221Y-32343913D01*
X39420828Y-32569385D01*
X39363855Y-32806690D01*
X39363854Y-32806695D01*
X39344706Y-33050000D01*
X35042257Y-33050000D01*
X35158259Y-32914179D01*
X35285777Y-32706089D01*
X35379172Y-32480612D01*
X35436146Y-32243302D01*
X35455294Y-32000000D01*
X35436146Y-31756698D01*
X35379172Y-31519388D01*
X35368948Y-31494706D01*
X35285778Y-31293913D01*
X35285775Y-31293908D01*
X35158263Y-31085827D01*
X35158261Y-31085825D01*
X35158259Y-31085821D01*
X34999759Y-30900241D01*
X34814179Y-30741741D01*
X34814174Y-30741738D01*
X34814172Y-30741736D01*
X34606091Y-30614224D01*
X34606086Y-30614221D01*
X34380614Y-30520828D01*
X34143309Y-30463855D01*
X34143304Y-30463854D01*
X33900000Y-30444706D01*
X33656695Y-30463854D01*
X33656690Y-30463855D01*
X33419385Y-30520828D01*
X33193913Y-30614221D01*
X33193908Y-30614224D01*
X32985827Y-30741736D01*
X32800241Y-30900241D01*
X32641736Y-31085827D01*
X32514224Y-31293908D01*
X32514221Y-31293913D01*
X32420828Y-31519385D01*
X32363855Y-31756690D01*
X32363854Y-31756695D01*
X32344706Y-32000000D01*
X23042257Y-32000000D01*
X22999759Y-31950241D01*
X22814179Y-31791741D01*
X22814174Y-31791738D01*
X22814172Y-31791736D01*
X22606091Y-31664224D01*
X22606086Y-31664221D01*
X22380614Y-31570828D01*
X22143309Y-31513855D01*
X22143304Y-31513854D01*
X21900000Y-31494706D01*
X21656695Y-31513854D01*
X21656690Y-31513855D01*
X21419385Y-31570828D01*
X21193913Y-31664221D01*
X21193908Y-31664224D01*
X20985827Y-31791736D01*
X20800241Y-31950241D01*
X20641736Y-32135827D01*
X20514224Y-32343908D01*
X20514221Y-32343913D01*
X20420828Y-32569385D01*
X20363855Y-32806690D01*
X20363854Y-32806695D01*
X20344706Y-33050000D01*
X16042257Y-33050000D01*
X16158259Y-32914179D01*
X16285777Y-32706089D01*
X16379172Y-32480612D01*
X16436146Y-32243302D01*
X16455294Y-32000000D01*
X16436146Y-31756698D01*
X16379172Y-31519388D01*
X16368948Y-31494706D01*
X16285778Y-31293913D01*
X16285775Y-31293908D01*
X16158263Y-31085827D01*
X16158261Y-31085825D01*
X16158259Y-31085821D01*
X15999759Y-30900241D01*
X15814179Y-30741741D01*
X15814174Y-30741738D01*
X15814172Y-30741736D01*
X15606091Y-30614224D01*
X15606086Y-30614221D01*
X15380614Y-30520828D01*
X15143309Y-30463855D01*
X15143304Y-30463854D01*
X14900000Y-30444706D01*
X14656695Y-30463854D01*
X14656690Y-30463855D01*
X14419385Y-30520828D01*
X14193913Y-30614221D01*
X14193908Y-30614224D01*
X13985827Y-30741736D01*
X13800241Y-30900241D01*
X13641736Y-31085827D01*
X13514224Y-31293908D01*
X13514221Y-31293913D01*
X13420828Y-31519385D01*
X13363855Y-31756690D01*
X13363854Y-31756695D01*
X13344706Y-32000000D01*
X200500Y-32000000D01*
X200500Y-27138516D01*
X16424500Y-27138516D01*
X16424500Y-27461483D01*
X16460661Y-27782428D01*
X16532526Y-28097289D01*
X16532527Y-28097291D01*
X16532528Y-28097295D01*
X16639198Y-28402140D01*
X16779329Y-28693125D01*
X16951159Y-28966591D01*
X17152527Y-29219099D01*
X17380901Y-29447473D01*
X17633409Y-29648841D01*
X17906875Y-29820671D01*
X18197860Y-29960802D01*
X18502705Y-30067472D01*
X18589776Y-30087345D01*
X18817571Y-30139338D01*
X18817574Y-30139338D01*
X18817577Y-30139339D01*
X19138515Y-30175500D01*
X19138516Y-30175500D01*
X19461484Y-30175500D01*
X19461485Y-30175500D01*
X19782423Y-30139339D01*
X19782426Y-30139338D01*
X19782428Y-30139338D01*
X19869494Y-30119465D01*
X20097295Y-30067472D01*
X20402140Y-29960802D01*
X20693125Y-29820671D01*
X20966591Y-29648841D01*
X21219099Y-29447473D01*
X21447473Y-29219099D01*
X21648841Y-28966591D01*
X21820671Y-28693125D01*
X21960802Y-28402140D01*
X22067472Y-28097295D01*
X22139339Y-27782423D01*
X22175500Y-27461485D01*
X22175500Y-27138516D01*
X35424500Y-27138516D01*
X35424500Y-27461483D01*
X35460661Y-27782428D01*
X35532526Y-28097289D01*
X35532527Y-28097291D01*
X35532528Y-28097295D01*
X35639198Y-28402140D01*
X35779329Y-28693125D01*
X35951159Y-28966591D01*
X36152527Y-29219099D01*
X36380901Y-29447473D01*
X36633409Y-29648841D01*
X36906875Y-29820671D01*
X37197860Y-29960802D01*
X37502705Y-30067472D01*
X37589776Y-30087345D01*
X37817571Y-30139338D01*
X37817574Y-30139338D01*
X37817577Y-30139339D01*
X38138515Y-30175500D01*
X38138516Y-30175500D01*
X38461484Y-30175500D01*
X38461485Y-30175500D01*
X38782423Y-30139339D01*
X38782426Y-30139338D01*
X38782428Y-30139338D01*
X38869494Y-30119465D01*
X39097295Y-30067472D01*
X39402140Y-29960802D01*
X39693125Y-29820671D01*
X39966591Y-29648841D01*
X40219099Y-29447473D01*
X40447473Y-29219099D01*
X40648841Y-28966591D01*
X40820671Y-28693125D01*
X40960802Y-28402140D01*
X41067472Y-28097295D01*
X41139339Y-27782423D01*
X41175500Y-27461485D01*
X41175500Y-27138516D01*
X54424500Y-27138516D01*
X54424500Y-27461483D01*
X54460661Y-27782428D01*
X54532526Y-28097289D01*
X54532527Y-28097291D01*
X54532528Y-28097295D01*
X54639198Y-28402140D01*
X54779329Y-28693125D01*
X54951159Y-28966591D01*
X55152527Y-29219099D01*
X55380901Y-29447473D01*
X55633409Y-29648841D01*
X55906875Y-29820671D01*
X56197860Y-29960802D01*
X56502705Y-30067472D01*
X56589776Y-30087345D01*
X56817571Y-30139338D01*
X56817574Y-30139338D01*
X56817577Y-30139339D01*
X57138515Y-30175500D01*
X57138516Y-30175500D01*
X57461484Y-30175500D01*
X57461485Y-30175500D01*
X57782423Y-30139339D01*
X57782426Y-30139338D01*
X57782428Y-30139338D01*
X57869494Y-30119465D01*
X58097295Y-30067472D01*
X58402140Y-29960802D01*
X58693125Y-29820671D01*
X58966591Y-29648841D01*
X59219099Y-29447473D01*
X59447473Y-29219099D01*
X59648841Y-28966591D01*
X59820671Y-28693125D01*
X59960802Y-28402140D01*
X60067472Y-28097295D01*
X60139339Y-27782423D01*
X60175500Y-27461485D01*
X60175500Y-27138516D01*
X73424500Y-27138516D01*
X73424500Y-27461483D01*
X73460661Y-27782428D01*
X73532526Y-28097289D01*
X73532527Y-28097291D01*
X73532528Y-28097295D01*
X73639198Y-28402140D01*
X73779329Y-28693125D01*
X73951159Y-28966591D01*
X74152527Y-29219099D01*
X74380901Y-29447473D01*
X74633409Y-29648841D01*
X74906875Y-29820671D01*
X75197860Y-29960802D01*
X75502705Y-30067472D01*
X75589776Y-30087345D01*
X75817571Y-30139338D01*
X75817574Y-30139338D01*
X75817577Y-30139339D01*
X76138515Y-30175500D01*
X76138516Y-30175500D01*
X76461484Y-30175500D01*
X76461485Y-30175500D01*
X76782423Y-30139339D01*
X76782426Y-30139338D01*
X76782428Y-30139338D01*
X76869494Y-30119465D01*
X77097295Y-30067472D01*
X77402140Y-29960802D01*
X77693125Y-29820671D01*
X77966591Y-29648841D01*
X78219099Y-29447473D01*
X78447473Y-29219099D01*
X78648841Y-28966591D01*
X78820671Y-28693125D01*
X78960802Y-28402140D01*
X79067472Y-28097295D01*
X79139339Y-27782423D01*
X79175500Y-27461485D01*
X79175500Y-27138515D01*
X79139339Y-26817577D01*
X79067472Y-26502705D01*
X78960802Y-26197860D01*
X78820671Y-25906875D01*
X78648841Y-25633409D01*
X78447473Y-25380901D01*
X78219099Y-25152527D01*
X77966591Y-24951159D01*
X77966589Y-24951158D01*
X77966587Y-24951156D01*
X77693125Y-24779329D01*
X77402138Y-24639197D01*
X77271384Y-24593444D01*
X77097295Y-24532528D01*
X77097291Y-24532527D01*
X77097289Y-24532526D01*
X76782428Y-24460661D01*
X76514974Y-24430526D01*
X76461485Y-24424500D01*
X76138515Y-24424500D01*
X76092666Y-24429665D01*
X75817571Y-24460661D01*
X75502710Y-24532526D01*
X75502708Y-24532527D01*
X75197861Y-24639197D01*
X74906874Y-24779329D01*
X74633412Y-24951156D01*
X74380896Y-25152531D01*
X74152531Y-25380896D01*
X73951156Y-25633412D01*
X73779329Y-25906874D01*
X73639197Y-26197861D01*
X73532527Y-26502708D01*
X73532526Y-26502710D01*
X73460661Y-26817571D01*
X73424500Y-27138516D01*
X60175500Y-27138516D01*
X60175500Y-27138515D01*
X60139339Y-26817577D01*
X60067472Y-26502705D01*
X59960802Y-26197860D01*
X59820671Y-25906875D01*
X59648841Y-25633409D01*
X59447473Y-25380901D01*
X59219099Y-25152527D01*
X58966591Y-24951159D01*
X58966589Y-24951158D01*
X58966587Y-24951156D01*
X58693125Y-24779329D01*
X58402138Y-24639197D01*
X58271384Y-24593444D01*
X58097295Y-24532528D01*
X58097291Y-24532527D01*
X58097289Y-24532526D01*
X57782428Y-24460661D01*
X57514974Y-24430526D01*
X57461485Y-24424500D01*
X57138515Y-24424500D01*
X57092666Y-24429665D01*
X56817571Y-24460661D01*
X56502710Y-24532526D01*
X56502708Y-24532527D01*
X56197861Y-24639197D01*
X55906874Y-24779329D01*
X55633412Y-24951156D01*
X55380896Y-25152531D01*
X55152531Y-25380896D01*
X54951156Y-25633412D01*
X54779329Y-25906874D01*
X54639197Y-26197861D01*
X54532527Y-26502708D01*
X54532526Y-26502710D01*
X54460661Y-26817571D01*
X54424500Y-27138516D01*
X41175500Y-27138516D01*
X41175500Y-27138515D01*
X41139339Y-26817577D01*
X41067472Y-26502705D01*
X40960802Y-26197860D01*
X40820671Y-25906875D01*
X40648841Y-25633409D01*
X40447473Y-25380901D01*
X40219099Y-25152527D01*
X39966591Y-24951159D01*
X39966589Y-24951158D01*
X39966587Y-24951156D01*
X39693125Y-24779329D01*
X39402138Y-24639197D01*
X39271384Y-24593444D01*
X39097295Y-24532528D01*
X39097291Y-24532527D01*
X39097289Y-24532526D01*
X38782428Y-24460661D01*
X38514974Y-24430526D01*
X38461485Y-24424500D01*
X38138515Y-24424500D01*
X38092666Y-24429665D01*
X37817571Y-24460661D01*
X37502710Y-24532526D01*
X37502708Y-24532527D01*
X37197861Y-24639197D01*
X36906874Y-24779329D01*
X36633412Y-24951156D01*
X36380896Y-25152531D01*
X36152531Y-25380896D01*
X35951156Y-25633412D01*
X35779329Y-25906874D01*
X35639197Y-26197861D01*
X35532527Y-26502708D01*
X35532526Y-26502710D01*
X35460661Y-26817571D01*
X35424500Y-27138516D01*
X22175500Y-27138516D01*
X22175500Y-27138515D01*
X22139339Y-26817577D01*
X22067472Y-26502705D01*
X21960802Y-26197860D01*
X21820671Y-25906875D01*
X21648841Y-25633409D01*
X21447473Y-25380901D01*
X21219099Y-25152527D01*
X20966591Y-24951159D01*
X20966589Y-24951158D01*
X20966587Y-24951156D01*
X20693125Y-24779329D01*
X20402138Y-24639197D01*
X20271384Y-24593444D01*
X20097295Y-24532528D01*
X20097291Y-24532527D01*
X20097289Y-24532526D01*
X19782428Y-24460661D01*
X19514974Y-24430526D01*
X19461485Y-24424500D01*
X19138515Y-24424500D01*
X19092666Y-24429665D01*
X18817571Y-24460661D01*
X18502710Y-24532526D01*
X18502708Y-24532527D01*
X18197861Y-24639197D01*
X17906874Y-24779329D01*
X17633412Y-24951156D01*
X17380896Y-25152531D01*
X17152531Y-25380896D01*
X16951156Y-25633412D01*
X16779329Y-25906874D01*
X16639197Y-26197861D01*
X16532527Y-26502708D01*
X16532526Y-26502710D01*
X16460661Y-26817571D01*
X16424500Y-27138516D01*
X200500Y-27138516D01*
X200500Y-21174038D01*
X2399500Y-21174038D01*
X2399500Y-21425962D01*
X2438910Y-21674785D01*
X2516759Y-21914379D01*
X2631130Y-22138845D01*
X2779207Y-22342656D01*
X2957344Y-22520793D01*
X3161155Y-22668870D01*
X3385621Y-22783241D01*
X3625215Y-22861090D01*
X3874038Y-22900500D01*
X3874043Y-22900500D01*
X4125957Y-22900500D01*
X4125962Y-22900500D01*
X4374785Y-22861090D01*
X4614379Y-22783241D01*
X4838845Y-22668870D01*
X5042656Y-22520793D01*
X5220793Y-22342656D01*
X5368870Y-22138845D01*
X5483241Y-21914379D01*
X5520405Y-21800000D01*
X14494355Y-21800000D01*
X14514860Y-21968874D01*
X14575181Y-22127929D01*
X14605113Y-22171293D01*
X14671817Y-22267929D01*
X14671819Y-22267930D01*
X14671820Y-22267932D01*
X14799146Y-22380732D01*
X14799148Y-22380734D01*
X14949775Y-22459790D01*
X15114944Y-22500500D01*
X15285056Y-22500500D01*
X15450225Y-22459790D01*
X15600852Y-22380734D01*
X15728183Y-22267929D01*
X15824818Y-22127930D01*
X15885140Y-21968872D01*
X15905645Y-21800000D01*
X33494355Y-21800000D01*
X33514860Y-21968874D01*
X33575181Y-22127929D01*
X33605113Y-22171293D01*
X33671817Y-22267929D01*
X33671819Y-22267930D01*
X33671820Y-22267932D01*
X33799146Y-22380732D01*
X33799148Y-22380734D01*
X33949775Y-22459790D01*
X34114944Y-22500500D01*
X34285056Y-22500500D01*
X34450225Y-22459790D01*
X34600852Y-22380734D01*
X34728183Y-22267929D01*
X34824818Y-22127930D01*
X34885140Y-21968872D01*
X34905645Y-21800000D01*
X52494355Y-21800000D01*
X52514860Y-21968874D01*
X52575181Y-22127929D01*
X52605113Y-22171293D01*
X52671817Y-22267929D01*
X52671819Y-22267930D01*
X52671820Y-22267932D01*
X52799146Y-22380732D01*
X52799148Y-22380734D01*
X52949775Y-22459790D01*
X53114944Y-22500500D01*
X53285056Y-22500500D01*
X53450225Y-22459790D01*
X53600852Y-22380734D01*
X53728183Y-22267929D01*
X53824818Y-22127930D01*
X53885140Y-21968872D01*
X53905645Y-21800000D01*
X71494355Y-21800000D01*
X71514860Y-21968874D01*
X71575181Y-22127929D01*
X71605113Y-22171293D01*
X71671817Y-22267929D01*
X71671819Y-22267930D01*
X71671820Y-22267932D01*
X71799146Y-22380732D01*
X71799148Y-22380734D01*
X71949775Y-22459790D01*
X72114944Y-22500500D01*
X72285056Y-22500500D01*
X72450225Y-22459790D01*
X72600852Y-22380734D01*
X72728183Y-22267929D01*
X72824818Y-22127930D01*
X72885140Y-21968872D01*
X72905645Y-21800000D01*
X72885140Y-21631128D01*
X72824818Y-21472070D01*
X72728183Y-21332071D01*
X72728180Y-21332068D01*
X72728179Y-21332067D01*
X72600853Y-21219267D01*
X72600854Y-21219267D01*
X72514679Y-21174038D01*
X89999500Y-21174038D01*
X89999500Y-21425962D01*
X90038910Y-21674785D01*
X90116759Y-21914379D01*
X90231130Y-22138845D01*
X90379207Y-22342656D01*
X90557344Y-22520793D01*
X90761155Y-22668870D01*
X90985621Y-22783241D01*
X91225215Y-22861090D01*
X91474038Y-22900500D01*
X91474043Y-22900500D01*
X91725957Y-22900500D01*
X91725962Y-22900500D01*
X91974785Y-22861090D01*
X92214379Y-22783241D01*
X92438845Y-22668870D01*
X92642656Y-22520793D01*
X92820793Y-22342656D01*
X92968870Y-22138845D01*
X93083241Y-21914379D01*
X93161090Y-21674785D01*
X93200500Y-21425962D01*
X93200500Y-21174038D01*
X93161090Y-20925215D01*
X93083241Y-20685621D01*
X92968870Y-20461155D01*
X92820793Y-20257344D01*
X92642656Y-20079207D01*
X92438845Y-19931130D01*
X92214379Y-19816759D01*
X91974785Y-19738910D01*
X91725962Y-19699500D01*
X91474038Y-19699500D01*
X91266685Y-19732341D01*
X91225214Y-19738910D01*
X90985627Y-19816757D01*
X90985621Y-19816759D01*
X90985615Y-19816761D01*
X90985615Y-19816762D01*
X90761153Y-19931131D01*
X90761152Y-19931131D01*
X90557345Y-20079206D01*
X90557342Y-20079208D01*
X90379208Y-20257342D01*
X90379206Y-20257345D01*
X90231131Y-20461152D01*
X90231131Y-20461153D01*
X90231130Y-20461155D01*
X90116759Y-20685621D01*
X90038910Y-20925215D01*
X89999500Y-21174038D01*
X72514679Y-21174038D01*
X72450224Y-21140209D01*
X72285056Y-21099500D01*
X72114944Y-21099500D01*
X71949775Y-21140209D01*
X71799145Y-21219267D01*
X71671820Y-21332067D01*
X71671817Y-21332071D01*
X71575181Y-21472070D01*
X71514860Y-21631125D01*
X71494355Y-21800000D01*
X53905645Y-21800000D01*
X53885140Y-21631128D01*
X53824818Y-21472070D01*
X53728183Y-21332071D01*
X53728180Y-21332068D01*
X53728179Y-21332067D01*
X53600853Y-21219267D01*
X53600854Y-21219267D01*
X53450224Y-21140209D01*
X53285056Y-21099500D01*
X53114944Y-21099500D01*
X52949775Y-21140209D01*
X52799145Y-21219267D01*
X52671820Y-21332067D01*
X52671817Y-21332071D01*
X52575181Y-21472070D01*
X52514860Y-21631125D01*
X52494355Y-21800000D01*
X34905645Y-21800000D01*
X34885140Y-21631128D01*
X34824818Y-21472070D01*
X34728183Y-21332071D01*
X34728180Y-21332068D01*
X34728179Y-21332067D01*
X34600853Y-21219267D01*
X34600854Y-21219267D01*
X34450224Y-21140209D01*
X34285056Y-21099500D01*
X34114944Y-21099500D01*
X33949775Y-21140209D01*
X33799145Y-21219267D01*
X33671820Y-21332067D01*
X33671817Y-21332071D01*
X33575181Y-21472070D01*
X33514860Y-21631125D01*
X33494355Y-21800000D01*
X15905645Y-21800000D01*
X15885140Y-21631128D01*
X15824818Y-21472070D01*
X15728183Y-21332071D01*
X15728180Y-21332068D01*
X15728179Y-21332067D01*
X15600853Y-21219267D01*
X15600854Y-21219267D01*
X15450224Y-21140209D01*
X15285056Y-21099500D01*
X15114944Y-21099500D01*
X14949775Y-21140209D01*
X14799145Y-21219267D01*
X14671820Y-21332067D01*
X14671817Y-21332071D01*
X14575181Y-21472070D01*
X14514860Y-21631125D01*
X14494355Y-21800000D01*
X5520405Y-21800000D01*
X5561090Y-21674785D01*
X5600500Y-21425962D01*
X5600500Y-21174038D01*
X5561090Y-20925215D01*
X5483241Y-20685621D01*
X5368870Y-20461155D01*
X5220793Y-20257344D01*
X5042656Y-20079207D01*
X4838845Y-19931130D01*
X4614379Y-19816759D01*
X4374785Y-19738910D01*
X4125962Y-19699500D01*
X3874038Y-19699500D01*
X3666685Y-19732341D01*
X3625214Y-19738910D01*
X3385627Y-19816757D01*
X3385621Y-19816759D01*
X3385615Y-19816761D01*
X3385615Y-19816762D01*
X3161153Y-19931131D01*
X3161152Y-19931131D01*
X2957345Y-20079206D01*
X2957342Y-20079208D01*
X2779208Y-20257342D01*
X2779206Y-20257345D01*
X2631131Y-20461152D01*
X2631131Y-20461153D01*
X2631130Y-20461155D01*
X2516759Y-20685621D01*
X2438910Y-20925215D01*
X2399500Y-21174038D01*
X200500Y-21174038D01*
X200500Y-17700000D01*
X10824355Y-17700000D01*
X10844860Y-17868874D01*
X10905181Y-18027929D01*
X10905182Y-18027930D01*
X11001817Y-18167929D01*
X11001819Y-18167930D01*
X11001820Y-18167932D01*
X11129146Y-18280732D01*
X11129148Y-18280734D01*
X11279775Y-18359790D01*
X11444944Y-18400500D01*
X11615056Y-18400500D01*
X11780225Y-18359790D01*
X11930852Y-18280734D01*
X12058183Y-18167929D01*
X12154818Y-18027930D01*
X12215140Y-17868872D01*
X12235645Y-17700000D01*
X25194355Y-17700000D01*
X25214860Y-17868874D01*
X25275181Y-18027929D01*
X25275182Y-18027930D01*
X25371817Y-18167929D01*
X25371819Y-18167930D01*
X25371820Y-18167932D01*
X25499146Y-18280732D01*
X25499148Y-18280734D01*
X25649775Y-18359790D01*
X25814944Y-18400500D01*
X25985056Y-18400500D01*
X26150225Y-18359790D01*
X26300852Y-18280734D01*
X26428183Y-18167929D01*
X26524818Y-18027930D01*
X26585140Y-17868872D01*
X26605645Y-17700000D01*
X43394355Y-17700000D01*
X43414860Y-17868874D01*
X43475181Y-18027929D01*
X43475182Y-18027930D01*
X43571817Y-18167929D01*
X43571819Y-18167930D01*
X43571820Y-18167932D01*
X43699146Y-18280732D01*
X43699148Y-18280734D01*
X43849775Y-18359790D01*
X44014944Y-18400500D01*
X44185056Y-18400500D01*
X44350225Y-18359790D01*
X44500852Y-18280734D01*
X44628183Y-18167929D01*
X44724818Y-18027930D01*
X44785140Y-17868872D01*
X44805645Y-17700000D01*
X63094355Y-17700000D01*
X63114860Y-17868874D01*
X63175181Y-18027929D01*
X63175182Y-18027930D01*
X63271817Y-18167929D01*
X63271819Y-18167930D01*
X63271820Y-18167932D01*
X63399146Y-18280732D01*
X63399148Y-18280734D01*
X63549775Y-18359790D01*
X63714944Y-18400500D01*
X63885056Y-18400500D01*
X64050225Y-18359790D01*
X64200852Y-18280734D01*
X64328183Y-18167929D01*
X64424818Y-18027930D01*
X64485140Y-17868872D01*
X64505645Y-17700000D01*
X82094355Y-17700000D01*
X82114860Y-17868874D01*
X82175181Y-18027929D01*
X82175182Y-18027930D01*
X82271817Y-18167929D01*
X82271819Y-18167930D01*
X82271820Y-18167932D01*
X82399146Y-18280732D01*
X82399148Y-18280734D01*
X82549775Y-18359790D01*
X82714944Y-18400500D01*
X82885056Y-18400500D01*
X83050225Y-18359790D01*
X83200852Y-18280734D01*
X83328183Y-18167929D01*
X83424818Y-18027930D01*
X83485140Y-17868872D01*
X83505645Y-17700000D01*
X83485140Y-17531128D01*
X83424818Y-17372070D01*
X83328183Y-17232071D01*
X83328180Y-17232068D01*
X83328179Y-17232067D01*
X83200853Y-17119267D01*
X83200854Y-17119267D01*
X83050224Y-17040209D01*
X82885056Y-16999500D01*
X82714944Y-16999500D01*
X82549775Y-17040209D01*
X82399145Y-17119267D01*
X82271820Y-17232067D01*
X82271817Y-17232071D01*
X82175181Y-17372070D01*
X82114860Y-17531125D01*
X82094355Y-17700000D01*
X64505645Y-17700000D01*
X64485140Y-17531128D01*
X64424818Y-17372070D01*
X64328183Y-17232071D01*
X64328180Y-17232068D01*
X64328179Y-17232067D01*
X64200853Y-17119267D01*
X64200854Y-17119267D01*
X64050224Y-17040209D01*
X63885056Y-16999500D01*
X63714944Y-16999500D01*
X63549775Y-17040209D01*
X63399145Y-17119267D01*
X63271820Y-17232067D01*
X63271817Y-17232071D01*
X63175181Y-17372070D01*
X63114860Y-17531125D01*
X63094355Y-17700000D01*
X44805645Y-17700000D01*
X44785140Y-17531128D01*
X44724818Y-17372070D01*
X44628183Y-17232071D01*
X44628180Y-17232068D01*
X44628179Y-17232067D01*
X44500853Y-17119267D01*
X44500854Y-17119267D01*
X44350224Y-17040209D01*
X44185056Y-16999500D01*
X44014944Y-16999500D01*
X43849775Y-17040209D01*
X43699145Y-17119267D01*
X43571820Y-17232067D01*
X43571817Y-17232071D01*
X43475181Y-17372070D01*
X43414860Y-17531125D01*
X43394355Y-17700000D01*
X26605645Y-17700000D01*
X26585140Y-17531128D01*
X26524818Y-17372070D01*
X26428183Y-17232071D01*
X26428180Y-17232068D01*
X26428179Y-17232067D01*
X26300853Y-17119267D01*
X26300854Y-17119267D01*
X26150224Y-17040209D01*
X25985056Y-16999500D01*
X25814944Y-16999500D01*
X25649775Y-17040209D01*
X25499145Y-17119267D01*
X25371820Y-17232067D01*
X25371817Y-17232071D01*
X25275181Y-17372070D01*
X25214860Y-17531125D01*
X25194355Y-17700000D01*
X12235645Y-17700000D01*
X12215140Y-17531128D01*
X12154818Y-17372070D01*
X12058183Y-17232071D01*
X12058180Y-17232068D01*
X12058179Y-17232067D01*
X11930853Y-17119267D01*
X11930854Y-17119267D01*
X11780224Y-17040209D01*
X11615056Y-16999500D01*
X11444944Y-16999500D01*
X11279775Y-17040209D01*
X11129145Y-17119267D01*
X11001820Y-17232067D01*
X11001817Y-17232071D01*
X10905181Y-17372070D01*
X10844860Y-17531125D01*
X10824355Y-17700000D01*
X200500Y-17700000D01*
X200500Y-13000000D01*
X5344706Y-13000000D01*
X5363854Y-13243304D01*
X5363855Y-13243309D01*
X5420828Y-13480614D01*
X5514221Y-13706086D01*
X5514224Y-13706091D01*
X5641736Y-13914172D01*
X5641738Y-13914174D01*
X5641741Y-13914179D01*
X5800241Y-14099759D01*
X5985821Y-14258259D01*
X5985825Y-14258261D01*
X5985827Y-14258263D01*
X6193908Y-14385775D01*
X6193913Y-14385778D01*
X6419385Y-14479171D01*
X6419386Y-14479171D01*
X6419388Y-14479172D01*
X6656698Y-14536146D01*
X6900000Y-14555294D01*
X7143302Y-14536146D01*
X7380612Y-14479172D01*
X7606089Y-14385777D01*
X7814179Y-14258259D01*
X7999759Y-14099759D01*
X8042257Y-14050000D01*
X12344706Y-14050000D01*
X12363854Y-14293304D01*
X12363855Y-14293309D01*
X12420828Y-14530614D01*
X12514221Y-14756086D01*
X12514224Y-14756091D01*
X12641736Y-14964172D01*
X12641738Y-14964174D01*
X12641741Y-14964179D01*
X12800241Y-15149759D01*
X12985821Y-15308259D01*
X12985825Y-15308261D01*
X12985827Y-15308263D01*
X13193908Y-15435775D01*
X13193913Y-15435778D01*
X13419385Y-15529171D01*
X13419386Y-15529171D01*
X13419388Y-15529172D01*
X13656698Y-15586146D01*
X13900000Y-15605294D01*
X14143302Y-15586146D01*
X14380612Y-15529172D01*
X14606089Y-15435777D01*
X14814179Y-15308259D01*
X14999759Y-15149759D01*
X15158259Y-14964179D01*
X15285777Y-14756089D01*
X15379172Y-14530612D01*
X15436146Y-14293302D01*
X15455294Y-14050000D01*
X15436146Y-13806698D01*
X15379172Y-13569388D01*
X15285777Y-13343911D01*
X15158259Y-13135821D01*
X15042257Y-13000000D01*
X24344706Y-13000000D01*
X24363854Y-13243304D01*
X24363855Y-13243309D01*
X24420828Y-13480614D01*
X24514221Y-13706086D01*
X24514224Y-13706091D01*
X24641736Y-13914172D01*
X24641738Y-13914174D01*
X24641741Y-13914179D01*
X24800241Y-14099759D01*
X24985821Y-14258259D01*
X24985825Y-14258261D01*
X24985827Y-14258263D01*
X25193908Y-14385775D01*
X25193913Y-14385778D01*
X25419385Y-14479171D01*
X25419386Y-14479171D01*
X25419388Y-14479172D01*
X25656698Y-14536146D01*
X25900000Y-14555294D01*
X26143302Y-14536146D01*
X26380612Y-14479172D01*
X26606089Y-14385777D01*
X26814179Y-14258259D01*
X26999759Y-14099759D01*
X27042257Y-14050000D01*
X31344706Y-14050000D01*
X31363854Y-14293304D01*
X31363855Y-14293309D01*
X31420828Y-14530614D01*
X31514221Y-14756086D01*
X31514224Y-14756091D01*
X31641736Y-14964172D01*
X31641738Y-14964174D01*
X31641741Y-14964179D01*
X31800241Y-15149759D01*
X31985821Y-15308259D01*
X31985825Y-15308261D01*
X31985827Y-15308263D01*
X32193908Y-15435775D01*
X32193913Y-15435778D01*
X32419385Y-15529171D01*
X32419386Y-15529171D01*
X32419388Y-15529172D01*
X32656698Y-15586146D01*
X32900000Y-15605294D01*
X33143302Y-15586146D01*
X33380612Y-15529172D01*
X33606089Y-15435777D01*
X33814179Y-15308259D01*
X33999759Y-15149759D01*
X34042257Y-15100000D01*
X35794355Y-15100000D01*
X35814860Y-15268874D01*
X35875181Y-15427929D01*
X35875182Y-15427930D01*
X35971817Y-15567929D01*
X35971819Y-15567930D01*
X35971820Y-15567932D01*
X36099146Y-15680732D01*
X36099148Y-15680734D01*
X36249775Y-15759790D01*
X36414944Y-15800500D01*
X36585056Y-15800500D01*
X36750225Y-15759790D01*
X36900852Y-15680734D01*
X37028183Y-15567929D01*
X37124818Y-15427930D01*
X37185140Y-15268872D01*
X37205645Y-15100000D01*
X37185140Y-14931128D01*
X37173335Y-14900000D01*
X39294355Y-14900000D01*
X39314860Y-15068874D01*
X39375181Y-15227929D01*
X39375182Y-15227930D01*
X39471817Y-15367929D01*
X39471819Y-15367930D01*
X39471820Y-15367932D01*
X39599146Y-15480732D01*
X39599148Y-15480734D01*
X39749775Y-15559790D01*
X39914944Y-15600500D01*
X40085056Y-15600500D01*
X40250225Y-15559790D01*
X40400852Y-15480734D01*
X40528183Y-15367929D01*
X40624818Y-15227930D01*
X40685140Y-15068872D01*
X40705645Y-14900000D01*
X40685140Y-14731128D01*
X40624818Y-14572070D01*
X40528183Y-14432071D01*
X40528180Y-14432068D01*
X40528179Y-14432067D01*
X40400853Y-14319267D01*
X40400854Y-14319267D01*
X40250224Y-14240209D01*
X40085056Y-14199500D01*
X39914944Y-14199500D01*
X39749775Y-14240209D01*
X39599145Y-14319267D01*
X39471820Y-14432067D01*
X39471817Y-14432071D01*
X39375181Y-14572070D01*
X39314860Y-14731125D01*
X39294355Y-14900000D01*
X37173335Y-14900000D01*
X37124818Y-14772070D01*
X37028183Y-14632071D01*
X37028180Y-14632068D01*
X37028179Y-14632067D01*
X36919906Y-14536146D01*
X36900853Y-14519267D01*
X36900854Y-14519267D01*
X36750224Y-14440209D01*
X36585056Y-14399500D01*
X36414944Y-14399500D01*
X36249775Y-14440209D01*
X36099145Y-14519267D01*
X35971820Y-14632067D01*
X35971817Y-14632071D01*
X35875181Y-14772070D01*
X35814860Y-14931125D01*
X35794355Y-15100000D01*
X34042257Y-15100000D01*
X34158259Y-14964179D01*
X34285777Y-14756089D01*
X34379172Y-14530612D01*
X34436146Y-14293302D01*
X34455294Y-14050000D01*
X34436146Y-13806698D01*
X34379172Y-13569388D01*
X34285777Y-13343911D01*
X34197588Y-13200000D01*
X40694355Y-13200000D01*
X40714860Y-13368874D01*
X40775181Y-13527929D01*
X40775182Y-13527930D01*
X40871817Y-13667929D01*
X40871819Y-13667930D01*
X40871820Y-13667932D01*
X40999146Y-13780732D01*
X40999148Y-13780734D01*
X41149775Y-13859790D01*
X41314944Y-13900500D01*
X41485056Y-13900500D01*
X41650225Y-13859790D01*
X41800852Y-13780734D01*
X41928183Y-13667929D01*
X42024818Y-13527930D01*
X42085140Y-13368872D01*
X42105645Y-13200000D01*
X42085140Y-13031128D01*
X42073335Y-13000000D01*
X43344706Y-13000000D01*
X43363854Y-13243304D01*
X43363855Y-13243309D01*
X43420828Y-13480614D01*
X43514221Y-13706086D01*
X43514224Y-13706091D01*
X43641736Y-13914172D01*
X43641738Y-13914174D01*
X43641741Y-13914179D01*
X43800241Y-14099759D01*
X43985821Y-14258259D01*
X43985825Y-14258261D01*
X43985827Y-14258263D01*
X44193908Y-14385775D01*
X44193913Y-14385778D01*
X44419385Y-14479171D01*
X44419386Y-14479171D01*
X44419388Y-14479172D01*
X44656698Y-14536146D01*
X44900000Y-14555294D01*
X45143302Y-14536146D01*
X45380612Y-14479172D01*
X45606089Y-14385777D01*
X45814179Y-14258259D01*
X45999759Y-14099759D01*
X46042257Y-14050000D01*
X50344706Y-14050000D01*
X50363854Y-14293304D01*
X50363855Y-14293309D01*
X50420828Y-14530614D01*
X50514221Y-14756086D01*
X50514224Y-14756091D01*
X50641736Y-14964172D01*
X50641738Y-14964174D01*
X50641741Y-14964179D01*
X50800241Y-15149759D01*
X50985821Y-15308259D01*
X50985825Y-15308261D01*
X50985827Y-15308263D01*
X51193908Y-15435775D01*
X51193913Y-15435778D01*
X51419385Y-15529171D01*
X51419386Y-15529171D01*
X51419388Y-15529172D01*
X51656698Y-15586146D01*
X51900000Y-15605294D01*
X52143302Y-15586146D01*
X52380612Y-15529172D01*
X52606089Y-15435777D01*
X52814179Y-15308259D01*
X52999759Y-15149759D01*
X53158259Y-14964179D01*
X53285777Y-14756089D01*
X53379172Y-14530612D01*
X53436146Y-14293302D01*
X53455294Y-14050000D01*
X53436146Y-13806698D01*
X53379172Y-13569388D01*
X53285777Y-13343911D01*
X53158259Y-13135821D01*
X53042257Y-13000000D01*
X62252706Y-13000000D01*
X62271854Y-13243304D01*
X62271855Y-13243309D01*
X62328828Y-13480614D01*
X62422221Y-13706086D01*
X62422224Y-13706091D01*
X62549736Y-13914172D01*
X62549738Y-13914174D01*
X62549741Y-13914179D01*
X62708241Y-14099759D01*
X62893821Y-14258259D01*
X62893825Y-14258261D01*
X62893827Y-14258263D01*
X63101908Y-14385775D01*
X63101913Y-14385778D01*
X63327385Y-14479171D01*
X63327386Y-14479171D01*
X63327388Y-14479172D01*
X63564698Y-14536146D01*
X63808000Y-14555294D01*
X64051302Y-14536146D01*
X64288612Y-14479172D01*
X64514089Y-14385777D01*
X64722179Y-14258259D01*
X64907759Y-14099759D01*
X64950257Y-14050000D01*
X69252706Y-14050000D01*
X69271854Y-14293304D01*
X69271855Y-14293309D01*
X69328828Y-14530614D01*
X69422221Y-14756086D01*
X69422224Y-14756091D01*
X69549736Y-14964172D01*
X69549738Y-14964174D01*
X69549741Y-14964179D01*
X69708241Y-15149759D01*
X69893821Y-15308259D01*
X69893825Y-15308261D01*
X69893827Y-15308263D01*
X70101908Y-15435775D01*
X70101913Y-15435778D01*
X70327385Y-15529171D01*
X70327386Y-15529171D01*
X70327388Y-15529172D01*
X70564698Y-15586146D01*
X70808000Y-15605294D01*
X71051302Y-15586146D01*
X71288612Y-15529172D01*
X71514089Y-15435777D01*
X71722179Y-15308259D01*
X71907759Y-15149759D01*
X72066259Y-14964179D01*
X72193777Y-14756089D01*
X72287172Y-14530612D01*
X72344146Y-14293302D01*
X72363294Y-14050000D01*
X72344146Y-13806698D01*
X72287172Y-13569388D01*
X72193777Y-13343911D01*
X72066259Y-13135821D01*
X71950257Y-13000000D01*
X81344706Y-13000000D01*
X81363854Y-13243304D01*
X81363855Y-13243309D01*
X81420828Y-13480614D01*
X81514221Y-13706086D01*
X81514224Y-13706091D01*
X81641736Y-13914172D01*
X81641738Y-13914174D01*
X81641741Y-13914179D01*
X81800241Y-14099759D01*
X81985821Y-14258259D01*
X81985825Y-14258261D01*
X81985827Y-14258263D01*
X82193908Y-14385775D01*
X82193913Y-14385778D01*
X82419385Y-14479171D01*
X82419386Y-14479171D01*
X82419388Y-14479172D01*
X82656698Y-14536146D01*
X82900000Y-14555294D01*
X83143302Y-14536146D01*
X83380612Y-14479172D01*
X83606089Y-14385777D01*
X83814179Y-14258259D01*
X83999759Y-14099759D01*
X84042257Y-14050000D01*
X88344706Y-14050000D01*
X88363854Y-14293304D01*
X88363855Y-14293309D01*
X88420828Y-14530614D01*
X88514221Y-14756086D01*
X88514224Y-14756091D01*
X88641736Y-14964172D01*
X88641738Y-14964174D01*
X88641741Y-14964179D01*
X88800241Y-15149759D01*
X88985821Y-15308259D01*
X88985825Y-15308261D01*
X88985827Y-15308263D01*
X89193908Y-15435775D01*
X89193913Y-15435778D01*
X89419385Y-15529171D01*
X89419386Y-15529171D01*
X89419388Y-15529172D01*
X89656698Y-15586146D01*
X89900000Y-15605294D01*
X90143302Y-15586146D01*
X90380612Y-15529172D01*
X90606089Y-15435777D01*
X90814179Y-15308259D01*
X90999759Y-15149759D01*
X91158259Y-14964179D01*
X91285777Y-14756089D01*
X91379172Y-14530612D01*
X91436146Y-14293302D01*
X91455294Y-14050000D01*
X91436146Y-13806698D01*
X91379172Y-13569388D01*
X91285777Y-13343911D01*
X91158259Y-13135821D01*
X90999759Y-12950241D01*
X90814179Y-12791741D01*
X90814174Y-12791738D01*
X90814172Y-12791736D01*
X90606091Y-12664224D01*
X90606086Y-12664221D01*
X90380614Y-12570828D01*
X90143309Y-12513855D01*
X90143304Y-12513854D01*
X89900000Y-12494706D01*
X89656695Y-12513854D01*
X89656690Y-12513855D01*
X89419385Y-12570828D01*
X89193913Y-12664221D01*
X89193908Y-12664224D01*
X88985827Y-12791736D01*
X88800241Y-12950241D01*
X88641736Y-13135827D01*
X88514224Y-13343908D01*
X88514221Y-13343913D01*
X88420828Y-13569385D01*
X88363855Y-13806690D01*
X88363854Y-13806695D01*
X88344706Y-14050000D01*
X84042257Y-14050000D01*
X84158259Y-13914179D01*
X84285777Y-13706089D01*
X84379172Y-13480612D01*
X84436146Y-13243302D01*
X84455294Y-13000000D01*
X84436146Y-12756698D01*
X84379172Y-12519388D01*
X84368948Y-12494706D01*
X84285778Y-12293913D01*
X84285775Y-12293908D01*
X84158263Y-12085827D01*
X84158261Y-12085825D01*
X84158259Y-12085821D01*
X83999759Y-11900241D01*
X83814179Y-11741741D01*
X83814174Y-11741738D01*
X83814172Y-11741736D01*
X83606091Y-11614224D01*
X83606086Y-11614221D01*
X83380614Y-11520828D01*
X83143309Y-11463855D01*
X83143304Y-11463854D01*
X82900000Y-11444706D01*
X82656695Y-11463854D01*
X82656690Y-11463855D01*
X82419385Y-11520828D01*
X82193913Y-11614221D01*
X82193908Y-11614224D01*
X81985827Y-11741736D01*
X81800241Y-11900241D01*
X81641736Y-12085827D01*
X81514224Y-12293908D01*
X81514221Y-12293913D01*
X81420828Y-12519385D01*
X81363855Y-12756690D01*
X81363854Y-12756695D01*
X81344706Y-13000000D01*
X71950257Y-13000000D01*
X71907759Y-12950241D01*
X71722179Y-12791741D01*
X71722174Y-12791738D01*
X71722172Y-12791736D01*
X71514091Y-12664224D01*
X71514086Y-12664221D01*
X71288614Y-12570828D01*
X71051309Y-12513855D01*
X71051304Y-12513854D01*
X70808000Y-12494706D01*
X70564695Y-12513854D01*
X70564690Y-12513855D01*
X70327385Y-12570828D01*
X70101913Y-12664221D01*
X70101908Y-12664224D01*
X69893827Y-12791736D01*
X69708241Y-12950241D01*
X69549736Y-13135827D01*
X69422224Y-13343908D01*
X69422221Y-13343913D01*
X69328828Y-13569385D01*
X69271855Y-13806690D01*
X69271854Y-13806695D01*
X69252706Y-14050000D01*
X64950257Y-14050000D01*
X65066259Y-13914179D01*
X65193777Y-13706089D01*
X65287172Y-13480612D01*
X65344146Y-13243302D01*
X65363294Y-13000000D01*
X65344146Y-12756698D01*
X65287172Y-12519388D01*
X65276948Y-12494706D01*
X65193778Y-12293913D01*
X65193775Y-12293908D01*
X65066263Y-12085827D01*
X65066261Y-12085825D01*
X65066259Y-12085821D01*
X64907759Y-11900241D01*
X64722179Y-11741741D01*
X64722174Y-11741738D01*
X64722172Y-11741736D01*
X64514091Y-11614224D01*
X64514086Y-11614221D01*
X64288614Y-11520828D01*
X64051309Y-11463855D01*
X64051304Y-11463854D01*
X63808000Y-11444706D01*
X63564695Y-11463854D01*
X63564690Y-11463855D01*
X63327385Y-11520828D01*
X63101913Y-11614221D01*
X63101908Y-11614224D01*
X62893827Y-11741736D01*
X62708241Y-11900241D01*
X62549736Y-12085827D01*
X62422224Y-12293908D01*
X62422221Y-12293913D01*
X62328828Y-12519385D01*
X62271855Y-12756690D01*
X62271854Y-12756695D01*
X62252706Y-13000000D01*
X53042257Y-13000000D01*
X52999759Y-12950241D01*
X52814179Y-12791741D01*
X52814174Y-12791738D01*
X52814172Y-12791736D01*
X52606091Y-12664224D01*
X52606086Y-12664221D01*
X52380614Y-12570828D01*
X52143309Y-12513855D01*
X52143304Y-12513854D01*
X51900000Y-12494706D01*
X51656695Y-12513854D01*
X51656690Y-12513855D01*
X51419385Y-12570828D01*
X51193913Y-12664221D01*
X51193908Y-12664224D01*
X50985827Y-12791736D01*
X50800241Y-12950241D01*
X50641736Y-13135827D01*
X50514224Y-13343908D01*
X50514221Y-13343913D01*
X50420828Y-13569385D01*
X50363855Y-13806690D01*
X50363854Y-13806695D01*
X50344706Y-14050000D01*
X46042257Y-14050000D01*
X46158259Y-13914179D01*
X46285777Y-13706089D01*
X46379172Y-13480612D01*
X46436146Y-13243302D01*
X46455294Y-13000000D01*
X46436146Y-12756698D01*
X46379172Y-12519388D01*
X46368948Y-12494706D01*
X46285778Y-12293913D01*
X46285775Y-12293908D01*
X46158263Y-12085827D01*
X46158261Y-12085825D01*
X46158259Y-12085821D01*
X45999759Y-11900241D01*
X45814179Y-11741741D01*
X45814174Y-11741738D01*
X45814172Y-11741736D01*
X45606091Y-11614224D01*
X45606086Y-11614221D01*
X45380614Y-11520828D01*
X45143309Y-11463855D01*
X45143304Y-11463854D01*
X44900000Y-11444706D01*
X44656695Y-11463854D01*
X44656690Y-11463855D01*
X44419385Y-11520828D01*
X44193913Y-11614221D01*
X44193908Y-11614224D01*
X43985827Y-11741736D01*
X43800241Y-11900241D01*
X43641736Y-12085827D01*
X43514224Y-12293908D01*
X43514221Y-12293913D01*
X43420828Y-12519385D01*
X43363855Y-12756690D01*
X43363854Y-12756695D01*
X43344706Y-13000000D01*
X42073335Y-13000000D01*
X42024818Y-12872070D01*
X41928183Y-12732071D01*
X41928180Y-12732068D01*
X41928179Y-12732067D01*
X41800853Y-12619267D01*
X41800854Y-12619267D01*
X41650224Y-12540209D01*
X41485056Y-12499500D01*
X41314944Y-12499500D01*
X41149775Y-12540209D01*
X40999145Y-12619267D01*
X40871820Y-12732067D01*
X40871817Y-12732071D01*
X40775181Y-12872070D01*
X40714860Y-13031125D01*
X40694355Y-13200000D01*
X34197588Y-13200000D01*
X34158259Y-13135821D01*
X33999759Y-12950241D01*
X33814179Y-12791741D01*
X33814174Y-12791738D01*
X33814172Y-12791736D01*
X33606091Y-12664224D01*
X33606086Y-12664221D01*
X33380614Y-12570828D01*
X33143309Y-12513855D01*
X33143304Y-12513854D01*
X32900000Y-12494706D01*
X32656695Y-12513854D01*
X32656690Y-12513855D01*
X32419385Y-12570828D01*
X32193913Y-12664221D01*
X32193908Y-12664224D01*
X31985827Y-12791736D01*
X31800241Y-12950241D01*
X31641736Y-13135827D01*
X31514224Y-13343908D01*
X31514221Y-13343913D01*
X31420828Y-13569385D01*
X31363855Y-13806690D01*
X31363854Y-13806695D01*
X31344706Y-14050000D01*
X27042257Y-14050000D01*
X27158259Y-13914179D01*
X27285777Y-13706089D01*
X27379172Y-13480612D01*
X27436146Y-13243302D01*
X27455294Y-13000000D01*
X27436146Y-12756698D01*
X27379172Y-12519388D01*
X27368948Y-12494706D01*
X27285778Y-12293913D01*
X27285775Y-12293908D01*
X27158263Y-12085827D01*
X27158261Y-12085825D01*
X27158259Y-12085821D01*
X26999759Y-11900241D01*
X26814179Y-11741741D01*
X26814174Y-11741738D01*
X26814172Y-11741736D01*
X26606091Y-11614224D01*
X26606086Y-11614221D01*
X26380614Y-11520828D01*
X26143309Y-11463855D01*
X26143304Y-11463854D01*
X25900000Y-11444706D01*
X25656695Y-11463854D01*
X25656690Y-11463855D01*
X25419385Y-11520828D01*
X25193913Y-11614221D01*
X25193908Y-11614224D01*
X24985827Y-11741736D01*
X24800241Y-11900241D01*
X24641736Y-12085827D01*
X24514224Y-12293908D01*
X24514221Y-12293913D01*
X24420828Y-12519385D01*
X24363855Y-12756690D01*
X24363854Y-12756695D01*
X24344706Y-13000000D01*
X15042257Y-13000000D01*
X14999759Y-12950241D01*
X14814179Y-12791741D01*
X14814174Y-12791738D01*
X14814172Y-12791736D01*
X14606091Y-12664224D01*
X14606086Y-12664221D01*
X14380614Y-12570828D01*
X14143309Y-12513855D01*
X14143304Y-12513854D01*
X13900000Y-12494706D01*
X13656695Y-12513854D01*
X13656690Y-12513855D01*
X13419385Y-12570828D01*
X13193913Y-12664221D01*
X13193908Y-12664224D01*
X12985827Y-12791736D01*
X12800241Y-12950241D01*
X12641736Y-13135827D01*
X12514224Y-13343908D01*
X12514221Y-13343913D01*
X12420828Y-13569385D01*
X12363855Y-13806690D01*
X12363854Y-13806695D01*
X12344706Y-14050000D01*
X8042257Y-14050000D01*
X8158259Y-13914179D01*
X8285777Y-13706089D01*
X8379172Y-13480612D01*
X8436146Y-13243302D01*
X8455294Y-13000000D01*
X8436146Y-12756698D01*
X8379172Y-12519388D01*
X8368948Y-12494706D01*
X8285778Y-12293913D01*
X8285775Y-12293908D01*
X8158263Y-12085827D01*
X8158261Y-12085825D01*
X8158259Y-12085821D01*
X7999759Y-11900241D01*
X7814179Y-11741741D01*
X7814174Y-11741738D01*
X7814172Y-11741736D01*
X7606091Y-11614224D01*
X7606086Y-11614221D01*
X7380614Y-11520828D01*
X7143309Y-11463855D01*
X7143304Y-11463854D01*
X6900000Y-11444706D01*
X6656695Y-11463854D01*
X6656690Y-11463855D01*
X6419385Y-11520828D01*
X6193913Y-11614221D01*
X6193908Y-11614224D01*
X5985827Y-11741736D01*
X5800241Y-11900241D01*
X5641736Y-12085827D01*
X5514224Y-12293908D01*
X5514221Y-12293913D01*
X5420828Y-12519385D01*
X5363855Y-12756690D01*
X5363854Y-12756695D01*
X5344706Y-13000000D01*
X200500Y-13000000D01*
X200500Y-8138515D01*
X8424500Y-8138515D01*
X8424500Y-8461485D01*
X8428788Y-8499539D01*
X8460661Y-8782428D01*
X8532526Y-9097289D01*
X8532527Y-9097291D01*
X8532528Y-9097295D01*
X8564276Y-9188026D01*
X8639197Y-9402138D01*
X8779329Y-9693125D01*
X8950172Y-9965021D01*
X8951159Y-9966591D01*
X9152527Y-10219099D01*
X9380901Y-10447473D01*
X9633409Y-10648841D01*
X9906875Y-10820671D01*
X10197860Y-10960802D01*
X10502705Y-11067472D01*
X10589776Y-11087345D01*
X10817571Y-11139338D01*
X10817574Y-11139338D01*
X10817577Y-11139339D01*
X11138515Y-11175500D01*
X11138516Y-11175500D01*
X11461484Y-11175500D01*
X11461485Y-11175500D01*
X11782423Y-11139339D01*
X11782426Y-11139338D01*
X11782428Y-11139338D01*
X11869494Y-11119465D01*
X12097295Y-11067472D01*
X12402140Y-10960802D01*
X12693125Y-10820671D01*
X12966591Y-10648841D01*
X13219099Y-10447473D01*
X13447473Y-10219099D01*
X13648841Y-9966591D01*
X13820671Y-9693125D01*
X13960802Y-9402140D01*
X14067472Y-9097295D01*
X14135279Y-8800211D01*
X14139338Y-8782428D01*
X14146826Y-8715978D01*
X14175500Y-8461485D01*
X14175500Y-8138515D01*
X27424500Y-8138515D01*
X27424500Y-8461485D01*
X27428788Y-8499539D01*
X27460661Y-8782428D01*
X27532526Y-9097289D01*
X27532527Y-9097291D01*
X27532528Y-9097295D01*
X27564276Y-9188026D01*
X27639197Y-9402138D01*
X27779329Y-9693125D01*
X27950172Y-9965021D01*
X27951159Y-9966591D01*
X28152527Y-10219099D01*
X28380901Y-10447473D01*
X28633409Y-10648841D01*
X28906875Y-10820671D01*
X29197860Y-10960802D01*
X29502705Y-11067472D01*
X29589776Y-11087345D01*
X29817571Y-11139338D01*
X29817574Y-11139338D01*
X29817577Y-11139339D01*
X30138515Y-11175500D01*
X30138516Y-11175500D01*
X30461484Y-11175500D01*
X30461485Y-11175500D01*
X30782423Y-11139339D01*
X30782426Y-11139338D01*
X30782428Y-11139338D01*
X30869494Y-11119465D01*
X31097295Y-11067472D01*
X31402140Y-10960802D01*
X31693125Y-10820671D01*
X31966591Y-10648841D01*
X32219099Y-10447473D01*
X32447473Y-10219099D01*
X32648841Y-9966591D01*
X32816352Y-9699998D01*
X36484965Y-9699998D01*
X36484965Y-9700002D01*
X36503024Y-9837176D01*
X36503025Y-9837179D01*
X36503026Y-9837183D01*
X36555976Y-9965018D01*
X36555977Y-9965020D01*
X36555978Y-9965021D01*
X36640207Y-10074789D01*
X36640210Y-10074792D01*
X36749978Y-10159021D01*
X36749982Y-10159024D01*
X36877817Y-10211974D01*
X36877822Y-10211974D01*
X36877823Y-10211975D01*
X37014997Y-10230035D01*
X37015000Y-10230035D01*
X37015003Y-10230035D01*
X37152176Y-10211975D01*
X37152176Y-10211974D01*
X37152183Y-10211974D01*
X37280018Y-10159024D01*
X37389791Y-10074791D01*
X37474024Y-9965018D01*
X37526974Y-9837183D01*
X37531830Y-9800299D01*
X37545035Y-9700002D01*
X37545035Y-9699998D01*
X37536349Y-9634024D01*
X37526974Y-9562817D01*
X37474024Y-9434983D01*
X37474024Y-9434982D01*
X37408506Y-9349599D01*
X37389791Y-9325209D01*
X37389788Y-9325207D01*
X37389787Y-9325205D01*
X37280021Y-9240978D01*
X37280020Y-9240977D01*
X37280018Y-9240976D01*
X37152183Y-9188026D01*
X37152179Y-9188025D01*
X37152176Y-9188024D01*
X37053233Y-9174998D01*
X38219965Y-9174998D01*
X38219965Y-9175002D01*
X38238024Y-9312176D01*
X38238025Y-9312179D01*
X38238026Y-9312183D01*
X38290976Y-9440018D01*
X38290977Y-9440020D01*
X38290978Y-9440021D01*
X38366179Y-9538024D01*
X38375209Y-9549791D01*
X38404410Y-9572198D01*
X38429412Y-9591383D01*
X38476364Y-9652574D01*
X38486430Y-9729042D01*
X38456914Y-9800299D01*
X38429413Y-9827800D01*
X38400209Y-9850209D01*
X38400207Y-9850211D01*
X38315975Y-9959982D01*
X38263026Y-10087815D01*
X38263026Y-10087816D01*
X38244965Y-10224998D01*
X38244965Y-10225002D01*
X38263024Y-10362176D01*
X38263025Y-10362179D01*
X38263026Y-10362183D01*
X38315976Y-10490018D01*
X38315977Y-10490020D01*
X38315978Y-10490021D01*
X38371190Y-10561974D01*
X38400209Y-10599791D01*
X38509982Y-10684024D01*
X38637817Y-10736974D01*
X38637822Y-10736974D01*
X38637823Y-10736975D01*
X38774997Y-10755035D01*
X38775000Y-10755035D01*
X38775003Y-10755035D01*
X38912176Y-10736975D01*
X38912176Y-10736974D01*
X38912183Y-10736974D01*
X39040018Y-10684024D01*
X39149791Y-10599791D01*
X39234024Y-10490018D01*
X39286974Y-10362183D01*
X39305035Y-10225000D01*
X39286974Y-10087817D01*
X39271309Y-10049998D01*
X41099965Y-10049998D01*
X41099965Y-10050002D01*
X41118024Y-10187176D01*
X41118025Y-10187179D01*
X41118026Y-10187183D01*
X41170976Y-10315018D01*
X41255209Y-10424791D01*
X41364982Y-10509024D01*
X41492817Y-10561974D01*
X41492822Y-10561974D01*
X41492823Y-10561975D01*
X41629997Y-10580035D01*
X41630000Y-10580035D01*
X41630003Y-10580035D01*
X41767176Y-10561975D01*
X41767176Y-10561974D01*
X41767183Y-10561974D01*
X41895018Y-10509024D01*
X42004791Y-10424791D01*
X42089024Y-10315018D01*
X42141974Y-10187183D01*
X42155056Y-10087816D01*
X42160035Y-10050002D01*
X42160035Y-10049998D01*
X42155832Y-10018078D01*
X42141974Y-9912817D01*
X42106759Y-9827800D01*
X42089024Y-9784982D01*
X42023815Y-9700002D01*
X42004791Y-9675209D01*
X42004788Y-9675207D01*
X42004787Y-9675205D01*
X41895021Y-9590978D01*
X41895020Y-9590977D01*
X41895018Y-9590976D01*
X41767183Y-9538026D01*
X41767179Y-9538025D01*
X41767176Y-9538024D01*
X41630003Y-9519965D01*
X41629999Y-9519965D01*
X41492817Y-9538026D01*
X41420300Y-9568063D01*
X41353701Y-9576829D01*
X41343741Y-9600876D01*
X41316239Y-9628378D01*
X41255215Y-9675205D01*
X41255208Y-9675210D01*
X41255207Y-9675211D01*
X41170975Y-9784982D01*
X41118026Y-9912815D01*
X41118026Y-9912816D01*
X41099965Y-10049998D01*
X39271309Y-10049998D01*
X39236761Y-9966591D01*
X39234024Y-9959982D01*
X39197451Y-9912321D01*
X39149791Y-9850209D01*
X39095587Y-9808616D01*
X39048636Y-9747427D01*
X39038569Y-9670959D01*
X39068085Y-9599702D01*
X39095590Y-9572198D01*
X39124788Y-9549793D01*
X39124791Y-9549791D01*
X39209024Y-9440018D01*
X39261974Y-9312183D01*
X39278320Y-9188026D01*
X39280035Y-9175002D01*
X39280035Y-9174998D01*
X39275832Y-9143078D01*
X39261974Y-9037817D01*
X39246463Y-9000371D01*
X39209024Y-8909982D01*
X39172451Y-8862321D01*
X39124791Y-8800209D01*
X39124788Y-8800207D01*
X39124787Y-8800205D01*
X39015021Y-8715978D01*
X39015020Y-8715977D01*
X39015018Y-8715976D01*
X38887183Y-8663026D01*
X38887179Y-8663025D01*
X38887176Y-8663024D01*
X38750003Y-8644965D01*
X38749999Y-8644965D01*
X38612816Y-8663026D01*
X38612815Y-8663026D01*
X38484982Y-8715975D01*
X38375211Y-8800207D01*
X38375207Y-8800211D01*
X38290975Y-8909982D01*
X38238026Y-9037815D01*
X38238026Y-9037816D01*
X38219965Y-9174998D01*
X37053233Y-9174998D01*
X37015003Y-9169965D01*
X37014999Y-9169965D01*
X36877816Y-9188026D01*
X36877815Y-9188026D01*
X36749982Y-9240975D01*
X36640211Y-9325207D01*
X36640207Y-9325211D01*
X36555975Y-9434982D01*
X36503026Y-9562815D01*
X36503026Y-9562816D01*
X36484965Y-9699998D01*
X32816352Y-9699998D01*
X32820671Y-9693125D01*
X32960802Y-9402140D01*
X33067472Y-9097295D01*
X33135279Y-8800211D01*
X33139338Y-8782428D01*
X33146826Y-8715978D01*
X33175500Y-8461485D01*
X33175500Y-8138515D01*
X33139339Y-7817577D01*
X33135327Y-7800000D01*
X33067473Y-7502710D01*
X33067472Y-7502705D01*
X33005290Y-7325000D01*
X34194355Y-7325000D01*
X34214860Y-7493874D01*
X34275181Y-7652929D01*
X34275182Y-7652930D01*
X34371817Y-7792929D01*
X34371819Y-7792930D01*
X34371820Y-7792932D01*
X34499146Y-7905732D01*
X34499148Y-7905734D01*
X34649775Y-7984790D01*
X34814944Y-8025500D01*
X34985056Y-8025500D01*
X35150225Y-7984790D01*
X35300852Y-7905734D01*
X35307324Y-7900000D01*
X37044355Y-7900000D01*
X37064860Y-8068874D01*
X37125181Y-8227929D01*
X37152794Y-8267932D01*
X37221817Y-8367929D01*
X37221819Y-8367930D01*
X37221820Y-8367932D01*
X37236271Y-8380734D01*
X37334644Y-8467885D01*
X37349146Y-8480732D01*
X37349148Y-8480734D01*
X37499775Y-8559790D01*
X37664944Y-8600500D01*
X37835056Y-8600500D01*
X38000225Y-8559790D01*
X38150852Y-8480734D01*
X38278183Y-8367929D01*
X38374818Y-8227930D01*
X38423969Y-8098329D01*
X39278165Y-8098329D01*
X39278165Y-8098333D01*
X39296224Y-8235507D01*
X39296225Y-8235510D01*
X39296226Y-8235514D01*
X39349176Y-8363349D01*
X39349177Y-8363351D01*
X39349178Y-8363352D01*
X39433407Y-8473120D01*
X39433410Y-8473123D01*
X39489006Y-8515784D01*
X39543182Y-8557355D01*
X39671017Y-8610305D01*
X39671022Y-8610305D01*
X39671023Y-8610306D01*
X39808197Y-8628366D01*
X39808200Y-8628366D01*
X39808203Y-8628366D01*
X39945376Y-8610306D01*
X39945376Y-8610305D01*
X39945383Y-8610305D01*
X40073218Y-8557355D01*
X40182991Y-8473122D01*
X40263710Y-8367929D01*
X40266938Y-8363722D01*
X40328128Y-8316770D01*
X40404596Y-8306703D01*
X40475853Y-8336219D01*
X40503356Y-8363722D01*
X40532428Y-8401609D01*
X40561944Y-8472866D01*
X40551877Y-8549334D01*
X40532429Y-8583020D01*
X40499788Y-8625557D01*
X40446839Y-8753390D01*
X40446839Y-8753391D01*
X40428778Y-8890573D01*
X40428778Y-8890577D01*
X40446837Y-9027751D01*
X40446838Y-9027754D01*
X40446839Y-9027758D01*
X40499789Y-9155593D01*
X40499790Y-9155595D01*
X40499791Y-9155596D01*
X40584020Y-9265364D01*
X40584023Y-9265367D01*
X40662007Y-9325207D01*
X40693795Y-9349599D01*
X40821630Y-9402549D01*
X40821635Y-9402549D01*
X40821636Y-9402550D01*
X40958810Y-9420610D01*
X40958813Y-9420610D01*
X40958816Y-9420610D01*
X41095993Y-9402550D01*
X41095995Y-9402549D01*
X41095996Y-9402549D01*
X41168513Y-9372511D01*
X41235112Y-9363744D01*
X41245073Y-9339697D01*
X41272576Y-9312195D01*
X41272601Y-9312176D01*
X41333604Y-9265366D01*
X41417837Y-9155593D01*
X41470787Y-9027758D01*
X41488848Y-8890575D01*
X41470787Y-8753392D01*
X41425876Y-8644965D01*
X41417838Y-8625559D01*
X41398609Y-8600500D01*
X41380482Y-8576877D01*
X41350968Y-8505623D01*
X41361034Y-8429155D01*
X41380481Y-8395470D01*
X41413124Y-8352931D01*
X41466074Y-8225096D01*
X41470546Y-8191128D01*
X41484135Y-8087915D01*
X41484135Y-8087911D01*
X41470558Y-7984790D01*
X41466074Y-7950730D01*
X41436587Y-7879541D01*
X41413124Y-7822895D01*
X41395555Y-7800000D01*
X42394355Y-7800000D01*
X42414860Y-7968874D01*
X42475181Y-8127929D01*
X42481541Y-8137143D01*
X42571817Y-8267929D01*
X42684697Y-8367932D01*
X42699146Y-8380732D01*
X42699148Y-8380734D01*
X42849775Y-8459790D01*
X43014944Y-8500500D01*
X43185056Y-8500500D01*
X43350225Y-8459790D01*
X43500852Y-8380734D01*
X43524256Y-8360000D01*
X44774355Y-8360000D01*
X44794860Y-8528874D01*
X44855181Y-8687929D01*
X44855182Y-8687930D01*
X44951817Y-8827929D01*
X44951819Y-8827930D01*
X44951820Y-8827932D01*
X45079146Y-8940732D01*
X45079148Y-8940734D01*
X45229775Y-9019790D01*
X45394944Y-9060500D01*
X45565056Y-9060500D01*
X45730225Y-9019790D01*
X45880852Y-8940734D01*
X46008183Y-8827929D01*
X46104818Y-8687930D01*
X46152531Y-8562120D01*
X46197614Y-8499539D01*
X46267947Y-8467885D01*
X46344684Y-8475637D01*
X46407265Y-8520720D01*
X46438919Y-8591053D01*
X46439912Y-8598272D01*
X46460661Y-8782428D01*
X46532526Y-9097289D01*
X46532527Y-9097291D01*
X46532528Y-9097295D01*
X46564276Y-9188026D01*
X46639197Y-9402138D01*
X46779329Y-9693125D01*
X46950172Y-9965021D01*
X46951159Y-9966591D01*
X47152527Y-10219099D01*
X47380901Y-10447473D01*
X47633409Y-10648841D01*
X47906875Y-10820671D01*
X48197860Y-10960802D01*
X48502705Y-11067472D01*
X48589776Y-11087345D01*
X48817571Y-11139338D01*
X48817574Y-11139338D01*
X48817577Y-11139339D01*
X49138515Y-11175500D01*
X49138516Y-11175500D01*
X49461484Y-11175500D01*
X49461485Y-11175500D01*
X49782423Y-11139339D01*
X49782426Y-11139338D01*
X49782428Y-11139338D01*
X49869494Y-11119465D01*
X50097295Y-11067472D01*
X50402140Y-10960802D01*
X50693125Y-10820671D01*
X50966591Y-10648841D01*
X51219099Y-10447473D01*
X51447473Y-10219099D01*
X51648841Y-9966591D01*
X51820671Y-9693125D01*
X51960802Y-9402140D01*
X52067472Y-9097295D01*
X52135279Y-8800211D01*
X52139338Y-8782428D01*
X52146826Y-8715978D01*
X52175500Y-8461485D01*
X52175500Y-8138515D01*
X65332500Y-8138515D01*
X65332500Y-8461485D01*
X65336788Y-8499539D01*
X65368661Y-8782428D01*
X65440526Y-9097289D01*
X65440527Y-9097291D01*
X65440528Y-9097295D01*
X65472276Y-9188026D01*
X65547197Y-9402138D01*
X65687329Y-9693125D01*
X65858172Y-9965021D01*
X65859159Y-9966591D01*
X66060527Y-10219099D01*
X66288901Y-10447473D01*
X66541409Y-10648841D01*
X66814875Y-10820671D01*
X67105860Y-10960802D01*
X67410705Y-11067472D01*
X67497776Y-11087345D01*
X67725571Y-11139338D01*
X67725574Y-11139338D01*
X67725577Y-11139339D01*
X68046515Y-11175500D01*
X68046516Y-11175500D01*
X68369484Y-11175500D01*
X68369485Y-11175500D01*
X68690423Y-11139339D01*
X68690426Y-11139338D01*
X68690428Y-11139338D01*
X68777494Y-11119465D01*
X69005295Y-11067472D01*
X69310140Y-10960802D01*
X69601125Y-10820671D01*
X69874591Y-10648841D01*
X70127099Y-10447473D01*
X70355473Y-10219099D01*
X70556841Y-9966591D01*
X70728671Y-9693125D01*
X70868802Y-9402140D01*
X70975472Y-9097295D01*
X71043279Y-8800211D01*
X71047338Y-8782428D01*
X71054826Y-8715978D01*
X71083500Y-8461485D01*
X71083500Y-8138515D01*
X84424500Y-8138515D01*
X84424500Y-8461485D01*
X84428788Y-8499539D01*
X84460661Y-8782428D01*
X84532526Y-9097289D01*
X84532527Y-9097291D01*
X84532528Y-9097295D01*
X84564276Y-9188026D01*
X84639197Y-9402138D01*
X84779329Y-9693125D01*
X84950172Y-9965021D01*
X84951159Y-9966591D01*
X85152527Y-10219099D01*
X85380901Y-10447473D01*
X85633409Y-10648841D01*
X85906875Y-10820671D01*
X86197860Y-10960802D01*
X86502705Y-11067472D01*
X86589776Y-11087345D01*
X86817571Y-11139338D01*
X86817574Y-11139338D01*
X86817577Y-11139339D01*
X87138515Y-11175500D01*
X87138516Y-11175500D01*
X87461484Y-11175500D01*
X87461485Y-11175500D01*
X87782423Y-11139339D01*
X87782426Y-11139338D01*
X87782428Y-11139338D01*
X87869494Y-11119465D01*
X88097295Y-11067472D01*
X88402140Y-10960802D01*
X88693125Y-10820671D01*
X88966591Y-10648841D01*
X89219099Y-10447473D01*
X89447473Y-10219099D01*
X89648841Y-9966591D01*
X89820671Y-9693125D01*
X89960802Y-9402140D01*
X90067472Y-9097295D01*
X90135279Y-8800211D01*
X90139338Y-8782428D01*
X90146826Y-8715978D01*
X90175500Y-8461485D01*
X90175500Y-8138515D01*
X90139339Y-7817577D01*
X90135327Y-7800000D01*
X90067473Y-7502710D01*
X90067472Y-7502705D01*
X89960802Y-7197860D01*
X89820671Y-6906875D01*
X89648841Y-6633409D01*
X89447473Y-6380901D01*
X89219099Y-6152527D01*
X88966591Y-5951159D01*
X88966589Y-5951158D01*
X88966587Y-5951156D01*
X88693125Y-5779329D01*
X88402138Y-5639197D01*
X88271384Y-5593444D01*
X88097295Y-5532528D01*
X88097291Y-5532527D01*
X88097289Y-5532526D01*
X87782428Y-5460661D01*
X87514974Y-5430526D01*
X87461485Y-5424500D01*
X87138515Y-5424500D01*
X87092666Y-5429665D01*
X86817571Y-5460661D01*
X86502710Y-5532526D01*
X86502708Y-5532527D01*
X86197861Y-5639197D01*
X85906874Y-5779329D01*
X85633412Y-5951156D01*
X85380896Y-6152531D01*
X85152531Y-6380896D01*
X84951156Y-6633412D01*
X84779329Y-6906874D01*
X84639197Y-7197861D01*
X84532527Y-7502708D01*
X84532526Y-7502710D01*
X84460661Y-7817571D01*
X84437234Y-8025500D01*
X84424500Y-8138515D01*
X71083500Y-8138515D01*
X71047339Y-7817577D01*
X71043327Y-7800000D01*
X70975473Y-7502710D01*
X70975472Y-7502705D01*
X70868802Y-7197860D01*
X70728671Y-6906875D01*
X70556841Y-6633409D01*
X70355473Y-6380901D01*
X70127099Y-6152527D01*
X69874591Y-5951159D01*
X69874589Y-5951158D01*
X69874587Y-5951156D01*
X69601125Y-5779329D01*
X69310138Y-5639197D01*
X69179384Y-5593444D01*
X69005295Y-5532528D01*
X69005291Y-5532527D01*
X69005289Y-5532526D01*
X68690428Y-5460661D01*
X68422974Y-5430526D01*
X68369485Y-5424500D01*
X68046515Y-5424500D01*
X68000666Y-5429665D01*
X67725571Y-5460661D01*
X67410710Y-5532526D01*
X67410708Y-5532527D01*
X67105861Y-5639197D01*
X66814874Y-5779329D01*
X66541412Y-5951156D01*
X66288896Y-6152531D01*
X66060531Y-6380896D01*
X65859156Y-6633412D01*
X65687329Y-6906874D01*
X65547197Y-7197861D01*
X65440527Y-7502708D01*
X65440526Y-7502710D01*
X65368661Y-7817571D01*
X65345234Y-8025500D01*
X65332500Y-8138515D01*
X52175500Y-8138515D01*
X52139339Y-7817577D01*
X52135327Y-7800000D01*
X52067473Y-7502710D01*
X52067472Y-7502705D01*
X51960802Y-7197860D01*
X51820671Y-6906875D01*
X51648841Y-6633409D01*
X51447473Y-6380901D01*
X51219099Y-6152527D01*
X50966591Y-5951159D01*
X50966589Y-5951158D01*
X50966587Y-5951156D01*
X50693125Y-5779329D01*
X50402138Y-5639197D01*
X50271384Y-5593444D01*
X50097295Y-5532528D01*
X50097291Y-5532527D01*
X50097289Y-5532526D01*
X49782428Y-5460661D01*
X49514974Y-5430526D01*
X49461485Y-5424500D01*
X49138515Y-5424500D01*
X49092666Y-5429665D01*
X48817571Y-5460661D01*
X48502710Y-5532526D01*
X48502708Y-5532527D01*
X48197861Y-5639197D01*
X47906874Y-5779329D01*
X47633412Y-5951156D01*
X47380896Y-6152531D01*
X47152531Y-6380896D01*
X46951156Y-6633412D01*
X46779329Y-6906874D01*
X46639197Y-7197861D01*
X46532527Y-7502708D01*
X46532526Y-7502710D01*
X46460661Y-7817571D01*
X46429488Y-8094242D01*
X46401310Y-8166038D01*
X46341009Y-8214127D01*
X46264742Y-8225622D01*
X46192946Y-8197444D01*
X46144857Y-8137143D01*
X46142107Y-8130394D01*
X46104818Y-8032071D01*
X46104818Y-8032070D01*
X46008183Y-7892071D01*
X46008180Y-7892068D01*
X46008179Y-7892067D01*
X45880853Y-7779267D01*
X45880854Y-7779267D01*
X45730224Y-7700209D01*
X45565056Y-7659500D01*
X45394944Y-7659500D01*
X45229775Y-7700209D01*
X45079145Y-7779267D01*
X44951820Y-7892067D01*
X44951817Y-7892071D01*
X44855181Y-8032070D01*
X44794860Y-8191125D01*
X44774355Y-8360000D01*
X43524256Y-8360000D01*
X43628183Y-8267929D01*
X43724818Y-8127930D01*
X43785140Y-7968872D01*
X43805645Y-7800000D01*
X43785140Y-7631128D01*
X43784290Y-7628888D01*
X43724818Y-7472070D01*
X43697208Y-7432071D01*
X43628183Y-7332071D01*
X43628180Y-7332068D01*
X43628179Y-7332067D01*
X43500853Y-7219267D01*
X43500854Y-7219267D01*
X43350224Y-7140209D01*
X43185056Y-7099500D01*
X43014944Y-7099500D01*
X42849775Y-7140209D01*
X42699145Y-7219267D01*
X42571820Y-7332067D01*
X42571817Y-7332071D01*
X42475181Y-7472070D01*
X42414860Y-7631125D01*
X42394355Y-7800000D01*
X41395555Y-7800000D01*
X41376551Y-7775234D01*
X41328891Y-7713122D01*
X41328888Y-7713120D01*
X41328887Y-7713118D01*
X41219121Y-7628891D01*
X41219120Y-7628890D01*
X41219118Y-7628889D01*
X41091283Y-7575939D01*
X41091279Y-7575938D01*
X41091276Y-7575937D01*
X40954103Y-7557878D01*
X40954099Y-7557878D01*
X40816916Y-7575939D01*
X40816915Y-7575939D01*
X40689082Y-7628888D01*
X40579311Y-7713120D01*
X40579306Y-7713125D01*
X40495360Y-7822523D01*
X40434170Y-7869475D01*
X40357701Y-7879541D01*
X40286445Y-7850024D01*
X40258943Y-7822522D01*
X40256245Y-7819006D01*
X40182991Y-7723540D01*
X40182988Y-7723538D01*
X40182987Y-7723536D01*
X40073221Y-7639309D01*
X40073220Y-7639308D01*
X40073218Y-7639307D01*
X39945383Y-7586357D01*
X39945379Y-7586356D01*
X39945376Y-7586355D01*
X39808203Y-7568296D01*
X39808199Y-7568296D01*
X39671016Y-7586357D01*
X39671015Y-7586357D01*
X39543182Y-7639306D01*
X39433411Y-7723538D01*
X39433407Y-7723542D01*
X39349175Y-7833313D01*
X39296226Y-7961146D01*
X39296226Y-7961147D01*
X39278165Y-8098329D01*
X38423969Y-8098329D01*
X38435140Y-8068872D01*
X38455645Y-7900000D01*
X38435140Y-7731128D01*
X38428312Y-7713125D01*
X38374818Y-7572070D01*
X38365022Y-7557878D01*
X38278183Y-7432071D01*
X38278180Y-7432068D01*
X38278179Y-7432067D01*
X38150853Y-7319267D01*
X38150854Y-7319267D01*
X38000224Y-7240209D01*
X37835056Y-7199500D01*
X37664944Y-7199500D01*
X37499775Y-7240209D01*
X37349145Y-7319267D01*
X37221820Y-7432067D01*
X37221817Y-7432071D01*
X37125181Y-7572070D01*
X37064860Y-7731125D01*
X37044355Y-7900000D01*
X35307324Y-7900000D01*
X35428183Y-7792929D01*
X35524818Y-7652930D01*
X35585140Y-7493872D01*
X35605645Y-7325000D01*
X35585140Y-7156128D01*
X35524818Y-6997070D01*
X35428183Y-6857071D01*
X35428180Y-6857068D01*
X35428179Y-6857067D01*
X35300853Y-6744267D01*
X35300854Y-6744267D01*
X35150224Y-6665209D01*
X34985056Y-6624500D01*
X34814944Y-6624500D01*
X34649775Y-6665209D01*
X34499145Y-6744267D01*
X34371820Y-6857067D01*
X34371817Y-6857071D01*
X34275181Y-6997070D01*
X34214860Y-7156125D01*
X34194355Y-7325000D01*
X33005290Y-7325000D01*
X32960802Y-7197860D01*
X32820671Y-6906875D01*
X32648841Y-6633409D01*
X32447473Y-6380901D01*
X32219099Y-6152527D01*
X31966591Y-5951159D01*
X31966589Y-5951158D01*
X31966587Y-5951156D01*
X31693125Y-5779329D01*
X31402138Y-5639197D01*
X31271384Y-5593444D01*
X31097295Y-5532528D01*
X31097291Y-5532527D01*
X31097289Y-5532526D01*
X30782428Y-5460661D01*
X30514974Y-5430526D01*
X30461485Y-5424500D01*
X30138515Y-5424500D01*
X30092666Y-5429665D01*
X29817571Y-5460661D01*
X29502710Y-5532526D01*
X29502708Y-5532527D01*
X29197861Y-5639197D01*
X28906874Y-5779329D01*
X28633412Y-5951156D01*
X28380896Y-6152531D01*
X28152531Y-6380896D01*
X27951156Y-6633412D01*
X27779329Y-6906874D01*
X27639197Y-7197861D01*
X27532527Y-7502708D01*
X27532526Y-7502710D01*
X27460661Y-7817571D01*
X27437234Y-8025500D01*
X27424500Y-8138515D01*
X14175500Y-8138515D01*
X14139339Y-7817577D01*
X14135327Y-7800000D01*
X14067473Y-7502710D01*
X14067472Y-7502705D01*
X13960802Y-7197860D01*
X13820671Y-6906875D01*
X13648841Y-6633409D01*
X13447473Y-6380901D01*
X13219099Y-6152527D01*
X12966591Y-5951159D01*
X12966589Y-5951158D01*
X12966587Y-5951156D01*
X12693125Y-5779329D01*
X12402138Y-5639197D01*
X12271384Y-5593444D01*
X12097295Y-5532528D01*
X12097291Y-5532527D01*
X12097289Y-5532526D01*
X11782428Y-5460661D01*
X11514974Y-5430526D01*
X11461485Y-5424500D01*
X11138515Y-5424500D01*
X11092666Y-5429665D01*
X10817571Y-5460661D01*
X10502710Y-5532526D01*
X10502708Y-5532527D01*
X10197861Y-5639197D01*
X9906874Y-5779329D01*
X9633412Y-5951156D01*
X9380896Y-6152531D01*
X9152531Y-6380896D01*
X8951156Y-6633412D01*
X8779329Y-6906874D01*
X8639197Y-7197861D01*
X8532527Y-7502708D01*
X8532526Y-7502710D01*
X8460661Y-7817571D01*
X8437234Y-8025500D01*
X8424500Y-8138515D01*
X200500Y-8138515D01*
X200500Y-5799998D01*
X3669965Y-5799998D01*
X3669965Y-5800002D01*
X3688024Y-5937176D01*
X3688025Y-5937179D01*
X3688026Y-5937183D01*
X3740976Y-6065018D01*
X3740977Y-6065020D01*
X3740978Y-6065021D01*
X3784538Y-6121789D01*
X3825209Y-6174791D01*
X3934982Y-6259024D01*
X4062817Y-6311974D01*
X4062822Y-6311974D01*
X4062823Y-6311975D01*
X4199997Y-6330035D01*
X4200000Y-6330035D01*
X4200003Y-6330035D01*
X4337176Y-6311975D01*
X4337176Y-6311974D01*
X4337183Y-6311974D01*
X4465018Y-6259024D01*
X4574791Y-6174791D01*
X4659024Y-6065018D01*
X4711974Y-5937183D01*
X4716804Y-5900499D01*
X4730035Y-5800002D01*
X4730035Y-5799998D01*
X4725813Y-5767928D01*
X4711974Y-5662817D01*
X4659024Y-5534983D01*
X4659024Y-5534982D01*
X4622451Y-5487321D01*
X4574791Y-5425209D01*
X4574788Y-5425207D01*
X4574787Y-5425205D01*
X4465021Y-5340978D01*
X4465020Y-5340977D01*
X4465018Y-5340976D01*
X4337183Y-5288026D01*
X4337179Y-5288025D01*
X4337176Y-5288024D01*
X4200003Y-5269965D01*
X4199999Y-5269965D01*
X4062816Y-5288026D01*
X4062815Y-5288026D01*
X3934982Y-5340975D01*
X3825211Y-5425207D01*
X3825207Y-5425211D01*
X3740975Y-5534982D01*
X3688026Y-5662815D01*
X3688026Y-5662816D01*
X3669965Y-5799998D01*
X200500Y-5799998D01*
X200500Y-3399998D01*
X3669965Y-3399998D01*
X3669965Y-3400002D01*
X3688024Y-3537176D01*
X3688025Y-3537179D01*
X3688026Y-3537183D01*
X3740976Y-3665018D01*
X3740977Y-3665020D01*
X3740978Y-3665021D01*
X3825207Y-3774789D01*
X3825210Y-3774792D01*
X3883169Y-3819266D01*
X3934982Y-3859024D01*
X4062817Y-3911974D01*
X4062822Y-3911974D01*
X4062823Y-3911975D01*
X4199997Y-3930035D01*
X4200000Y-3930035D01*
X4200003Y-3930035D01*
X4337176Y-3911975D01*
X4337176Y-3911974D01*
X4337183Y-3911974D01*
X4465018Y-3859024D01*
X4574791Y-3774791D01*
X4659024Y-3665018D01*
X4711974Y-3537183D01*
X4730035Y-3400000D01*
X4730035Y-3399998D01*
X27369965Y-3399998D01*
X27369965Y-3400002D01*
X27388024Y-3537176D01*
X27388025Y-3537179D01*
X27388026Y-3537183D01*
X27440976Y-3665018D01*
X27440977Y-3665020D01*
X27440978Y-3665021D01*
X27525207Y-3774789D01*
X27525210Y-3774792D01*
X27583169Y-3819266D01*
X27634982Y-3859024D01*
X27762817Y-3911974D01*
X27762822Y-3911974D01*
X27762823Y-3911975D01*
X27899997Y-3930035D01*
X27900000Y-3930035D01*
X27900003Y-3930035D01*
X28037176Y-3911975D01*
X28037176Y-3911974D01*
X28037183Y-3911974D01*
X28165018Y-3859024D01*
X28274791Y-3774791D01*
X28359024Y-3665018D01*
X28411974Y-3537183D01*
X28430035Y-3400000D01*
X28411974Y-3262817D01*
X28359024Y-3134983D01*
X28359024Y-3134982D01*
X28322451Y-3087321D01*
X28274791Y-3025209D01*
X28274788Y-3025207D01*
X28274787Y-3025205D01*
X28165021Y-2940978D01*
X28165020Y-2940977D01*
X28165018Y-2940976D01*
X28037183Y-2888026D01*
X28037179Y-2888025D01*
X28037176Y-2888024D01*
X27900003Y-2869965D01*
X27899999Y-2869965D01*
X27762816Y-2888026D01*
X27762815Y-2888026D01*
X27634982Y-2940975D01*
X27525211Y-3025207D01*
X27525207Y-3025211D01*
X27440975Y-3134982D01*
X27388026Y-3262815D01*
X27388026Y-3262816D01*
X27369965Y-3399998D01*
X4730035Y-3399998D01*
X4711974Y-3262817D01*
X4659024Y-3134983D01*
X4659024Y-3134982D01*
X4622451Y-3087321D01*
X4574791Y-3025209D01*
X4574788Y-3025207D01*
X4574787Y-3025205D01*
X4465021Y-2940978D01*
X4465020Y-2940977D01*
X4465018Y-2940976D01*
X4337183Y-2888026D01*
X4337179Y-2888025D01*
X4337176Y-2888024D01*
X4200003Y-2869965D01*
X4199999Y-2869965D01*
X4062816Y-2888026D01*
X4062815Y-2888026D01*
X3934982Y-2940975D01*
X3825211Y-3025207D01*
X3825207Y-3025211D01*
X3740975Y-3134982D01*
X3688026Y-3262815D01*
X3688026Y-3262816D01*
X3669965Y-3399998D01*
X200500Y-3399998D01*
X200500Y-2299998D01*
X15969965Y-2299998D01*
X15969965Y-2300002D01*
X15988024Y-2437176D01*
X15988025Y-2437179D01*
X15988026Y-2437183D01*
X16040976Y-2565018D01*
X16040977Y-2565020D01*
X16040978Y-2565021D01*
X16068202Y-2600500D01*
X16125209Y-2674791D01*
X16234982Y-2759024D01*
X16362817Y-2811974D01*
X16362822Y-2811974D01*
X16362823Y-2811975D01*
X16499997Y-2830035D01*
X16500000Y-2830035D01*
X16500003Y-2830035D01*
X16637176Y-2811975D01*
X16637176Y-2811974D01*
X16637183Y-2811974D01*
X16765018Y-2759024D01*
X16874791Y-2674791D01*
X16959024Y-2565018D01*
X17011974Y-2437183D01*
X17011975Y-2437176D01*
X17030035Y-2300002D01*
X17030035Y-2299998D01*
X17025832Y-2268078D01*
X17016869Y-2199998D01*
X23669965Y-2199998D01*
X23669965Y-2200002D01*
X23688024Y-2337176D01*
X23688025Y-2337179D01*
X23688026Y-2337183D01*
X23740976Y-2465018D01*
X23740977Y-2465020D01*
X23740978Y-2465021D01*
X23817709Y-2565018D01*
X23825209Y-2574791D01*
X23934982Y-2659024D01*
X24062817Y-2711974D01*
X24062822Y-2711974D01*
X24062823Y-2711975D01*
X24199997Y-2730035D01*
X24200000Y-2730035D01*
X24200003Y-2730035D01*
X24337176Y-2711975D01*
X24337176Y-2711974D01*
X24337183Y-2711974D01*
X24465018Y-2659024D01*
X24574791Y-2574791D01*
X24659024Y-2465018D01*
X24711974Y-2337183D01*
X24714237Y-2319995D01*
X24730035Y-2200002D01*
X24730035Y-2199998D01*
X24718880Y-2115273D01*
X24711974Y-2062817D01*
X24659024Y-1934983D01*
X24659024Y-1934982D01*
X24622451Y-1887321D01*
X24574791Y-1825209D01*
X24574788Y-1825207D01*
X24574787Y-1825205D01*
X24465021Y-1740978D01*
X24465020Y-1740977D01*
X24465018Y-1740976D01*
X24337183Y-1688026D01*
X24337179Y-1688025D01*
X24337176Y-1688024D01*
X24200003Y-1669965D01*
X24199999Y-1669965D01*
X24062816Y-1688026D01*
X24062815Y-1688026D01*
X23934982Y-1740975D01*
X23825211Y-1825207D01*
X23825207Y-1825211D01*
X23740975Y-1934982D01*
X23688026Y-2062815D01*
X23688026Y-2062816D01*
X23669965Y-2199998D01*
X17016869Y-2199998D01*
X17011974Y-2162817D01*
X16992279Y-2115269D01*
X16959024Y-2034982D01*
X16922451Y-1987321D01*
X16874791Y-1925209D01*
X16874788Y-1925207D01*
X16874787Y-1925205D01*
X16765021Y-1840978D01*
X16765020Y-1840977D01*
X16765018Y-1840976D01*
X16637183Y-1788026D01*
X16637179Y-1788025D01*
X16637176Y-1788024D01*
X16500003Y-1769965D01*
X16499999Y-1769965D01*
X16362816Y-1788026D01*
X16362815Y-1788026D01*
X16234982Y-1840975D01*
X16125211Y-1925207D01*
X16125207Y-1925211D01*
X16040975Y-2034982D01*
X15988026Y-2162815D01*
X15988026Y-2162816D01*
X15969965Y-2299998D01*
X200500Y-2299998D01*
X200500Y-1007324D01*
X201217Y-992721D01*
X209805Y-905519D01*
X214424Y-858618D01*
X220119Y-829988D01*
X257101Y-708078D01*
X268269Y-681115D01*
X328327Y-568754D01*
X344544Y-544484D01*
X425364Y-446004D01*
X446004Y-425364D01*
X544484Y-344544D01*
X568754Y-328327D01*
X681115Y-268269D01*
X708078Y-257101D01*
X829988Y-220119D01*
X858618Y-214424D01*
X979807Y-202488D01*
X992721Y-201217D01*
X1007324Y-200500D01*
X1039882Y-200500D01*
X30918759Y-200500D01*
X30993259Y-220462D01*
G37*
G04 #@! TD.AperFunction*
M02*
