G04 #@! TF.GenerationSoftware,KiCad,Pcbnew,8.0.4*
G04 #@! TF.CreationDate,2024-10-01T15:20:09+01:00*
G04 #@! TF.ProjectId,Mathboard,4d617468-626f-4617-9264-2e6b69636164,rev?*
G04 #@! TF.SameCoordinates,PX501bd00PY28b8ce0*
G04 #@! TF.FileFunction,Copper,L1,Top*
G04 #@! TF.FilePolarity,Positive*
%FSLAX46Y46*%
G04 Gerber Fmt 4.6, Leading zero omitted, Abs format (unit mm)*
G04 Created by KiCad (PCBNEW 8.0.4) date 2024-10-01 15:20:09*
%MOMM*%
%LPD*%
G01*
G04 APERTURE LIST*
G04 #@! TA.AperFunction,ComponentPad*
%ADD10C,2.500000*%
G04 #@! TD*
G04 #@! TA.AperFunction,ComponentPad*
%ADD11O,1.000000X2.000000*%
G04 #@! TD*
G04 #@! TA.AperFunction,ComponentPad*
%ADD12O,1.000000X1.600000*%
G04 #@! TD*
G04 #@! TA.AperFunction,WasherPad*
%ADD13C,1.397000*%
G04 #@! TD*
G04 #@! TA.AperFunction,ViaPad*
%ADD14C,0.450000*%
G04 #@! TD*
G04 #@! TA.AperFunction,ViaPad*
%ADD15C,0.800000*%
G04 #@! TD*
G04 #@! TA.AperFunction,Conductor*
%ADD16C,0.500000*%
G04 #@! TD*
G04 #@! TA.AperFunction,Conductor*
%ADD17C,0.200000*%
G04 #@! TD*
G04 #@! TA.AperFunction,Conductor*
%ADD18C,0.291800*%
G04 #@! TD*
G04 APERTURE END LIST*
D10*
X82900000Y-13000000D03*
X89900000Y-14050000D03*
X22900000Y-51000000D03*
X29900000Y-52050000D03*
X60900000Y-51000000D03*
X67900000Y-52050000D03*
X25900000Y-13000000D03*
X32900000Y-14050000D03*
X46600000Y-70000000D03*
X53600000Y-71050000D03*
X3900000Y-51000000D03*
X10900000Y-52050000D03*
X44900000Y-13000000D03*
X51900000Y-14050000D03*
X63808000Y-13000000D03*
X70808000Y-14050000D03*
X71900000Y-32000000D03*
X78900000Y-33050000D03*
X79900000Y-51000000D03*
X86900000Y-52050000D03*
X33900000Y-32000000D03*
X40900000Y-33050000D03*
X41900000Y-51000000D03*
X48900000Y-52050000D03*
X52900000Y-32000000D03*
X59900000Y-33050000D03*
X6900000Y-13000000D03*
X13900000Y-14050000D03*
X75200000Y-70000000D03*
X82200000Y-71050000D03*
X14900000Y-32000000D03*
X21900000Y-33050000D03*
D11*
X35080000Y-1200000D03*
D12*
X35080000Y-5200000D03*
D11*
X46320000Y-1200000D03*
D12*
X46320000Y-5200000D03*
D13*
X56099999Y-1795300D03*
X61100000Y-1795300D03*
D14*
X20300000Y-65400000D03*
X22900000Y-62800000D03*
D15*
X31000000Y-54550000D03*
X28900000Y-54550000D03*
X29900000Y-59300000D03*
X40000000Y-14900000D03*
X36562500Y-11400000D03*
X36500000Y-15100000D03*
X44100000Y-17700000D03*
X63800000Y-17700000D03*
D14*
X21700000Y-61600000D03*
D15*
X25900000Y-17700000D03*
X11530000Y-17700000D03*
X82800000Y-17700000D03*
D14*
X19800000Y-51550000D03*
X20700000Y-61600000D03*
D15*
X72200000Y-21800000D03*
X34200000Y-21800000D03*
X15200000Y-21800000D03*
X53200000Y-21800000D03*
D14*
X19750000Y-52800000D03*
D15*
X23200000Y-40800000D03*
X42200000Y-40800000D03*
X61200000Y-40800000D03*
X80200000Y-40800000D03*
D14*
X20700000Y-59600000D03*
D15*
X8650000Y-40800000D03*
D14*
X20600000Y-53350000D03*
D15*
X43700000Y-62100000D03*
X72600000Y-62200000D03*
D14*
X19700000Y-61600000D03*
X24000374Y-66698309D03*
X23700000Y-63100000D03*
D15*
X54900000Y-59000000D03*
D14*
X23900000Y-62400000D03*
X24100000Y-61697639D03*
D15*
X43100000Y-7800000D03*
X37750000Y-7900000D03*
D14*
X24200000Y-2200000D03*
D15*
X41400000Y-13200000D03*
D14*
X16500000Y-2300000D03*
D15*
X80000000Y-1900000D03*
D14*
X37015000Y-9700000D03*
D15*
X91100000Y-5300000D03*
D14*
X24400000Y-58200000D03*
D15*
X34700000Y-59300000D03*
D14*
X22600000Y-70500000D03*
D15*
X88100000Y-4400000D03*
D14*
X60100000Y-5000000D03*
D15*
X81200000Y-4600000D03*
D14*
X18000000Y-58700000D03*
X8400000Y-69400000D03*
D15*
X45480000Y-8360000D03*
D14*
X28200000Y-65200000D03*
X41630000Y-10050000D03*
X22100000Y-58620000D03*
D15*
X34900000Y-7325000D03*
D14*
X4200000Y-5800000D03*
X15500000Y-65100000D03*
X27900000Y-3400000D03*
X27100000Y-62500000D03*
X10300000Y-64070000D03*
X15500000Y-63900000D03*
X24200000Y-63900000D03*
D15*
X40675000Y-62600000D03*
D14*
X22100000Y-56000000D03*
X15500000Y-67200000D03*
X13700000Y-61100000D03*
X30700000Y-62200000D03*
X13280000Y-64070000D03*
X15500000Y-66200000D03*
X91000000Y-2600000D03*
X16600000Y-68300000D03*
D15*
X92500000Y-4600000D03*
D14*
X19000000Y-58700000D03*
X22100000Y-59600000D03*
X10600000Y-69400000D03*
X22599999Y-68247508D03*
X16544576Y-65069111D03*
X24200000Y-64800000D03*
X17200000Y-57700000D03*
X8300000Y-58800000D03*
D15*
X35000000Y-64110000D03*
X31400000Y-60100000D03*
X86900000Y-60100000D03*
D14*
X19018311Y-64830034D03*
X17600000Y-68300000D03*
X18400000Y-68300000D03*
X19001235Y-65698963D03*
X23300000Y-61800000D03*
D15*
X54300000Y-55700000D03*
D14*
X22500000Y-61800000D03*
D15*
X50100000Y-49400000D03*
X52400000Y-53800000D03*
D14*
X23500000Y-59600000D03*
X40958813Y-8890575D03*
X38775000Y-10225000D03*
X40954100Y-8087913D03*
X39808200Y-8098331D03*
X38750000Y-9175000D03*
X19200000Y-62300000D03*
X15300000Y-62600000D03*
X19200000Y-63100000D03*
X12472500Y-66600000D03*
X11200000Y-67200000D03*
X19200000Y-63900000D03*
X21000000Y-68400000D03*
D15*
X88800000Y-66800000D03*
D14*
X31500000Y-700000D03*
X4200000Y-3400000D03*
D16*
X28900000Y-54550000D02*
X31000000Y-54550000D01*
X86760000Y-60240000D02*
X86900000Y-60100000D01*
X31540000Y-60240000D02*
X86760000Y-60240000D01*
X31400000Y-60100000D02*
X31540000Y-60240000D01*
X24984619Y-63725000D02*
X24359619Y-63100000D01*
X28675000Y-63725000D02*
X24984619Y-63725000D01*
X29900000Y-59300000D02*
X29900000Y-62500000D01*
X29900000Y-62500000D02*
X28675000Y-63725000D01*
X24359619Y-63100000D02*
X23700000Y-63100000D01*
X54349999Y-58500000D02*
X54849999Y-59000000D01*
X29100000Y-58500000D02*
X54349999Y-58500000D01*
X23900000Y-62400000D02*
X25200000Y-62400000D01*
X25200000Y-62400000D02*
X29100000Y-58500000D01*
X28800000Y-57000000D02*
X62950000Y-57000000D01*
X62950000Y-57000000D02*
X67900000Y-52050000D01*
X25322462Y-60477538D02*
X28800000Y-57000000D01*
X25320101Y-60477538D02*
X25322462Y-60477538D01*
X24100000Y-61697639D02*
X25320101Y-60477538D01*
X26725000Y-4725000D02*
X24200000Y-2200000D01*
X26725000Y-9525000D02*
X26725000Y-4725000D01*
X29400000Y-12200000D02*
X26725000Y-9525000D01*
X40400000Y-12200000D02*
X29400000Y-12200000D01*
X41400000Y-13200000D02*
X40400000Y-12200000D01*
X80000000Y-8500000D02*
X80000000Y-1900000D01*
X72400000Y-16100000D02*
X80000000Y-8500000D01*
X44300000Y-16100000D02*
X72400000Y-16100000D01*
X41400000Y-13200000D02*
X44300000Y-16100000D01*
X16600000Y-2200000D02*
X24200000Y-2200000D01*
X16500000Y-2300000D02*
X16600000Y-2200000D01*
X11530000Y-17700000D02*
X25900000Y-17700000D01*
X63800000Y-17700000D02*
X44100000Y-17700000D01*
X19900000Y-51550000D02*
X21425000Y-53075000D01*
X21425000Y-61325000D02*
X21700000Y-61600000D01*
X44100000Y-17700000D02*
X25900000Y-17700000D01*
X82800000Y-17700000D02*
X63800000Y-17700000D01*
X19800000Y-51550000D02*
X19900000Y-51550000D01*
X21425000Y-53075000D02*
X21425000Y-61325000D01*
X53200000Y-21800000D02*
X72200000Y-21800000D01*
X19750000Y-60650000D02*
X20700000Y-61600000D01*
X19750000Y-52800000D02*
X19750000Y-60650000D01*
X15200000Y-21800000D02*
X34200000Y-21800000D01*
X34200000Y-21800000D02*
X53200000Y-21800000D01*
X61200000Y-40800000D02*
X80200000Y-40800000D01*
X20600000Y-53350000D02*
X20700000Y-53450000D01*
X42200000Y-40800000D02*
X61200000Y-40800000D01*
X23200000Y-40800000D02*
X42200000Y-40800000D01*
X8650000Y-40800000D02*
X20800000Y-40800000D01*
X20800000Y-40800000D02*
X23200000Y-40800000D01*
X20700000Y-53450000D02*
X20700000Y-59600000D01*
X43700000Y-62100000D02*
X42700000Y-62100000D01*
X24000000Y-65900000D02*
X19700000Y-61600000D01*
X42700000Y-62100000D02*
X38900000Y-65900000D01*
X38900000Y-65900000D02*
X24000000Y-65900000D01*
X52294417Y-62175000D02*
X52319417Y-62200000D01*
X52319417Y-62200000D02*
X72600000Y-62200000D01*
X43700000Y-62100000D02*
X43775000Y-62175000D01*
X43775000Y-62175000D02*
X52294417Y-62175000D01*
X6200000Y-56750000D02*
X10900000Y-52050000D01*
X8700000Y-71100000D02*
X6200000Y-68600000D01*
X21401691Y-66698309D02*
X17000000Y-71100000D01*
X24000374Y-66698309D02*
X21401691Y-66698309D01*
X6200000Y-68600000D02*
X6200000Y-56750000D01*
X17000000Y-71100000D02*
X8700000Y-71100000D01*
D17*
X17775000Y-66073345D02*
X17775000Y-68100000D01*
X17774999Y-68100001D02*
X17774999Y-68125001D01*
X17775000Y-68100000D02*
X17774999Y-68100001D01*
X19018311Y-64830034D02*
X17775000Y-66073345D01*
X17774999Y-68125001D02*
X17600000Y-68300000D01*
X18225000Y-68100000D02*
X18225001Y-68100001D01*
X18225001Y-68125001D02*
X18400000Y-68300000D01*
X18225000Y-66259742D02*
X18225000Y-68100000D01*
X19001235Y-65698963D02*
X18785779Y-65698963D01*
X18785779Y-65698963D02*
X18225000Y-66259742D01*
X18225001Y-68100001D02*
X18225001Y-68125001D01*
D16*
X54200000Y-55700000D02*
X54000000Y-55500000D01*
X28600000Y-55500000D02*
X23300000Y-60800000D01*
X54000000Y-55500000D02*
X28600000Y-55500000D01*
X23300000Y-60800000D02*
X23300000Y-61800000D01*
X42604164Y-49300000D02*
X30056958Y-49300000D01*
X30056958Y-49300000D02*
X22800000Y-56556958D01*
X42729164Y-49425000D02*
X42604164Y-49300000D01*
X22800000Y-59854595D02*
X22500000Y-60154595D01*
X50100000Y-49425000D02*
X42729164Y-49425000D01*
X22800000Y-56556958D02*
X22800000Y-59854595D01*
X22500000Y-60154595D02*
X22500000Y-61800000D01*
X23500000Y-58100000D02*
X23500000Y-59600000D01*
X52400000Y-53800000D02*
X52350000Y-53750000D01*
X52350000Y-53750000D02*
X27850000Y-53750000D01*
X27850000Y-53750000D02*
X23500000Y-58100000D01*
D18*
X39867013Y-9991800D02*
X39008200Y-9991800D01*
X40958813Y-8900000D02*
X39867013Y-9991800D01*
X40958813Y-8890575D02*
X40958813Y-8900000D01*
X39008200Y-9991800D02*
X38775000Y-10225000D01*
X39663303Y-9500000D02*
X39075000Y-9500000D01*
X40375000Y-8665131D02*
X40375000Y-8788303D01*
X40375000Y-8667013D02*
X40375000Y-8788303D01*
X39075000Y-9500000D02*
X38750000Y-9175000D01*
X39808200Y-8098331D02*
X40375000Y-8665131D01*
X40954100Y-8087913D02*
X40375000Y-8667013D01*
X40375000Y-8788303D02*
X39663303Y-9500000D01*
D17*
X15600000Y-62300000D02*
X19200000Y-62300000D01*
X15300000Y-62600000D02*
X15600000Y-62300000D01*
X12848535Y-65855487D02*
X13216232Y-65487791D01*
X17875000Y-64425000D02*
X19200000Y-63100000D01*
X12500000Y-66600000D02*
X12848535Y-66251465D01*
X13513217Y-65586786D02*
X13513216Y-65586784D01*
X14545591Y-64554408D02*
X14633653Y-64466347D01*
X14177895Y-64922102D02*
X14545591Y-64554408D01*
X13414222Y-65487791D02*
X13513217Y-65586786D01*
X14675000Y-64425000D02*
X17875000Y-64425000D01*
X13810200Y-65685778D02*
X14177895Y-65318082D01*
X14633653Y-64466347D02*
X14675000Y-64425000D01*
X12472500Y-66600000D02*
X12500000Y-66600000D01*
X13513216Y-65586784D02*
X13612210Y-65685778D01*
X13216232Y-65487791D02*
G75*
G02*
X13414222Y-65487791I98995J-98995D01*
G01*
X14177895Y-65318082D02*
G75*
G03*
X14177882Y-65120105I-98995J98982D01*
G01*
X13612210Y-65685778D02*
G75*
G03*
X13810200Y-65685778I98995J98995D01*
G01*
X14177895Y-65120092D02*
G75*
G02*
X14177898Y-64922105I99005J98992D01*
G01*
X12848536Y-66053475D02*
G75*
G02*
X12848554Y-65855507I98964J98975D01*
G01*
X12848535Y-66251465D02*
G75*
G03*
X12848506Y-66053505I-99035J98965D01*
G01*
X11200000Y-67200000D02*
X13600000Y-67200000D01*
X17450000Y-65600000D02*
X19150000Y-63900000D01*
X19150000Y-63900000D02*
X19200000Y-63900000D01*
X15200000Y-65600000D02*
X17450000Y-65600000D01*
X13600000Y-67200000D02*
X15200000Y-65600000D01*
D16*
X78500000Y-68300000D02*
X74495836Y-68300000D01*
X49647918Y-68447918D02*
X48475000Y-67275000D01*
X48475000Y-67275000D02*
X25525000Y-67275000D01*
X78800000Y-68600000D02*
X78500000Y-68300000D01*
X21522508Y-68922508D02*
X21000000Y-68400000D01*
X87000000Y-68600000D02*
X78800000Y-68600000D01*
X25525000Y-67275000D02*
X23877492Y-68922508D01*
X88800000Y-66800000D02*
X87000000Y-68600000D01*
X23877492Y-68922508D02*
X21522508Y-68922508D01*
X74347918Y-68447918D02*
X49647918Y-68447918D01*
X74495836Y-68300000D02*
X74347918Y-68447918D01*
X31500000Y-700000D02*
X6900000Y-700000D01*
X6900000Y-700000D02*
X4200000Y-3400000D01*
M02*
