%TF.GenerationSoftware,KiCad,Pcbnew,7.0.10*%
%TF.CreationDate,2024-04-29T20:55:19+02:00*%
%TF.ProjectId,Mathboard,4d617468-626f-4617-9264-2e6b69636164,rev?*%
%TF.SameCoordinates,Original*%
%TF.FileFunction,Copper,L2,Bot*%
%TF.FilePolarity,Positive*%
%FSLAX46Y46*%
G04 Gerber Fmt 4.6, Leading zero omitted, Abs format (unit mm)*
G04 Created by KiCad (PCBNEW 7.0.10) date 2024-04-29 20:55:19*
%MOMM*%
%LPD*%
G01*
G04 APERTURE LIST*
G04 Aperture macros list*
%AMRoundRect*
0 Rectangle with rounded corners*
0 $1 Rounding radius*
0 $2 $3 $4 $5 $6 $7 $8 $9 X,Y pos of 4 corners*
0 Add a 4 corners polygon primitive as box body*
4,1,4,$2,$3,$4,$5,$6,$7,$8,$9,$2,$3,0*
0 Add four circle primitives for the rounded corners*
1,1,$1+$1,$2,$3*
1,1,$1+$1,$4,$5*
1,1,$1+$1,$6,$7*
1,1,$1+$1,$8,$9*
0 Add four rect primitives between the rounded corners*
20,1,$1+$1,$2,$3,$4,$5,0*
20,1,$1+$1,$4,$5,$6,$7,0*
20,1,$1+$1,$6,$7,$8,$9,0*
20,1,$1+$1,$8,$9,$2,$3,0*%
G04 Aperture macros list end*
%TA.AperFunction,ComponentPad*%
%ADD10C,2.500000*%
%TD*%
%TA.AperFunction,SMDPad,CuDef*%
%ADD11RoundRect,0.225000X0.225000X0.375000X-0.225000X0.375000X-0.225000X-0.375000X0.225000X-0.375000X0*%
%TD*%
%TA.AperFunction,SMDPad,CuDef*%
%ADD12RoundRect,0.225000X0.375000X-0.225000X0.375000X0.225000X-0.375000X0.225000X-0.375000X-0.225000X0*%
%TD*%
%TA.AperFunction,ComponentPad*%
%ADD13R,1.700000X1.700000*%
%TD*%
%TA.AperFunction,ComponentPad*%
%ADD14O,1.700000X1.700000*%
%TD*%
%TA.AperFunction,SMDPad,CuDef*%
%ADD15RoundRect,0.225000X-0.375000X0.225000X-0.375000X-0.225000X0.375000X-0.225000X0.375000X0.225000X0*%
%TD*%
%TA.AperFunction,SMDPad,CuDef*%
%ADD16RoundRect,0.225000X-0.225000X-0.375000X0.225000X-0.375000X0.225000X0.375000X-0.225000X0.375000X0*%
%TD*%
%TA.AperFunction,SMDPad,CuDef*%
%ADD17RoundRect,0.225000X0.225000X0.250000X-0.225000X0.250000X-0.225000X-0.250000X0.225000X-0.250000X0*%
%TD*%
%TA.AperFunction,SMDPad,CuDef*%
%ADD18R,0.406400X1.499997*%
%TD*%
%TA.AperFunction,SMDPad,CuDef*%
%ADD19R,0.990600X0.812800*%
%TD*%
%TA.AperFunction,ComponentPad*%
%ADD20C,1.397000*%
%TD*%
%TA.AperFunction,SMDPad,CuDef*%
%ADD21R,1.700000X0.820000*%
%TD*%
%TA.AperFunction,SMDPad,CuDef*%
%ADD22RoundRect,0.205000X0.645000X0.205000X-0.645000X0.205000X-0.645000X-0.205000X0.645000X-0.205000X0*%
%TD*%
%TA.AperFunction,ViaPad*%
%ADD23C,0.800000*%
%TD*%
%TA.AperFunction,Conductor*%
%ADD24C,0.250000*%
%TD*%
G04 APERTURE END LIST*
D10*
%TO.P,SW16,1,1*%
%TO.N,Net-(D16-A)*%
X168000000Y-103300000D03*
%TO.P,SW16,2,2*%
%TO.N,COL4*%
X161000000Y-102250000D03*
%TD*%
%TO.P,SW15,1,1*%
%TO.N,Net-(D15-A)*%
X139400000Y-103300000D03*
%TO.P,SW15,2,2*%
%TO.N,COL2*%
X132400000Y-102250000D03*
%TD*%
%TO.P,SW14,1,1*%
%TO.N,Net-(D14-A)*%
X163900000Y-93700000D03*
%TO.P,SW14,2,2*%
%TO.N,COL4*%
X170900000Y-94750000D03*
%TD*%
%TO.P,SW13,1,1*%
%TO.N,Net-(D13-A)*%
X144900000Y-93700000D03*
%TO.P,SW13,2,2*%
%TO.N,COL3*%
X151900000Y-94750000D03*
%TD*%
%TO.P,SW12,1,1*%
%TO.N,Net-(D12-A)*%
X125900000Y-93700000D03*
%TO.P,SW12,2,2*%
%TO.N,COL2*%
X132900000Y-94750000D03*
%TD*%
%TO.P,SW11,1,1*%
%TO.N,Net-(D11-A)*%
X106900000Y-93700000D03*
%TO.P,SW11,2,2*%
%TO.N,COL1*%
X113900000Y-94750000D03*
%TD*%
%TO.P,SW10,1,1*%
%TO.N,Net-(D10-A)*%
X87900000Y-93700000D03*
%TO.P,SW10,2,2*%
%TO.N,COL0*%
X94900000Y-94750000D03*
%TD*%
%TO.P,SW9,1,1*%
%TO.N,Net-(D9-A)*%
X155900000Y-74700000D03*
%TO.P,SW9,2,2*%
%TO.N,COL4*%
X162900000Y-75750000D03*
%TD*%
%TO.P,SW8,1,1*%
%TO.N,Net-(D8-A)*%
X136900000Y-74700000D03*
%TO.P,SW8,2,2*%
%TO.N,COL3*%
X143900000Y-75750000D03*
%TD*%
%TO.P,SW7,1,1*%
%TO.N,Net-(D7-A)*%
X117900000Y-74700000D03*
%TO.P,SW7,2,2*%
%TO.N,COL2*%
X124900000Y-75750000D03*
%TD*%
%TO.P,SW6,1,1*%
%TO.N,Net-(D6-A)*%
X98900000Y-74700000D03*
%TO.P,SW6,2,2*%
%TO.N,COL1*%
X105900000Y-75750000D03*
%TD*%
%TO.P,SW5,1,1*%
%TO.N,Net-(D5-A)*%
X166600000Y-46600000D03*
%TO.P,SW5,2,2*%
%TO.N,COL4*%
X165550000Y-53600000D03*
%TD*%
%TO.P,SW4,1,1*%
%TO.N,Net-(D4-A)*%
X156908000Y-55400000D03*
%TO.P,SW4,2,2*%
%TO.N,COL3*%
X157958000Y-48400000D03*
%TD*%
%TO.P,SW3,1,1*%
%TO.N,Net-(D3-A)*%
X128900000Y-55700000D03*
%TO.P,SW3,2,2*%
%TO.N,COL2*%
X135900000Y-56750000D03*
%TD*%
%TO.P,SW2,1,1*%
%TO.N,Net-(D2-A)*%
X109900000Y-55700000D03*
%TO.P,SW2,2,2*%
%TO.N,COL1*%
X116900000Y-56750000D03*
%TD*%
%TO.P,SW1,1,1*%
%TO.N,Net-(D1-A)*%
X90900000Y-55700000D03*
%TO.P,SW1,2,2*%
%TO.N,COL0*%
X97900000Y-56750000D03*
%TD*%
D11*
%TO.P,D10,1,K*%
%TO.N,ROW2*%
X93950000Y-84000000D03*
%TO.P,D10,2,A*%
%TO.N,Net-(D10-A)*%
X90650000Y-84000000D03*
%TD*%
D12*
%TO.P,D16,1,K*%
%TO.N,ROW3*%
X171300000Y-106650000D03*
%TO.P,D16,2,A*%
%TO.N,Net-(D16-A)*%
X171300000Y-103350000D03*
%TD*%
D13*
%TO.P,J1,1,Pin_1*%
%TO.N,Net-(J1-Pin_1)*%
X174680000Y-43360000D03*
D14*
%TO.P,J1,2,Pin_2*%
%TO.N,Net-(J1-Pin_2)*%
X172140000Y-43360000D03*
%TO.P,J1,3,Pin_3*%
%TO.N,GND*%
X169600000Y-43360000D03*
%TO.P,J1,4,Pin_4*%
%TO.N,Net-(J1-Pin_4)*%
X167060000Y-43360000D03*
%TO.P,J1,5,Pin_5*%
%TO.N,VDD*%
X164520000Y-43360000D03*
%TO.P,J1,6,Pin_6*%
%TO.N,Net-(J1-Pin_6)*%
X161980000Y-43360000D03*
%TO.P,J1,7,Pin_7*%
%TO.N,Net-(J1-Pin_7)*%
X159440000Y-43360000D03*
%TO.P,J1,8,Pin_8*%
%TO.N,Net-(J1-Pin_8)*%
X156900000Y-43360000D03*
%TO.P,J1,9,Pin_9*%
%TO.N,Net-(J1-Pin_9)*%
X154360000Y-43360000D03*
%TO.P,J1,10,Pin_10*%
%TO.N,Net-(J1-Pin_10)*%
X151820000Y-43360000D03*
%TO.P,J1,11,Pin_11*%
%TO.N,Net-(J1-Pin_11)*%
X149280000Y-43360000D03*
%TO.P,J1,12,Pin_12*%
%TO.N,Net-(J1-Pin_12)*%
X146740000Y-43360000D03*
%TD*%
D15*
%TO.P,D2,1,K*%
%TO.N,ROW0*%
X109300000Y-47500000D03*
%TO.P,D2,2,A*%
%TO.N,Net-(D2-A)*%
X109300000Y-50800000D03*
%TD*%
%TO.P,D7,1,K*%
%TO.N,ROW1*%
X117300000Y-66500000D03*
%TO.P,D7,2,A*%
%TO.N,Net-(D7-A)*%
X117300000Y-69800000D03*
%TD*%
%TO.P,D12,1,K*%
%TO.N,ROW2*%
X125300000Y-85500000D03*
%TO.P,D12,2,A*%
%TO.N,Net-(D12-A)*%
X125300000Y-88800000D03*
%TD*%
%TO.P,D1,1,K*%
%TO.N,ROW0*%
X90300000Y-47500000D03*
%TO.P,D1,2,A*%
%TO.N,Net-(D1-A)*%
X90300000Y-50800000D03*
%TD*%
D16*
%TO.P,D5,1,K*%
%TO.N,ROW0*%
X160850000Y-46600000D03*
%TO.P,D5,2,A*%
%TO.N,Net-(D5-A)*%
X164150000Y-46600000D03*
%TD*%
D13*
%TO.P,J2,1,Pin_1*%
%TO.N,RGB_DIN*%
X174680000Y-58600000D03*
D14*
%TO.P,J2,2,Pin_2*%
%TO.N,Net-(J2-Pin_2)*%
X172140000Y-58600000D03*
%TO.P,J2,3,Pin_3*%
%TO.N,Net-(J2-Pin_3)*%
X169600000Y-58600000D03*
%TO.P,J2,4,Pin_4*%
%TO.N,GND*%
X167060000Y-58600000D03*
%TO.P,J2,5,Pin_5*%
X164520000Y-58600000D03*
%TO.P,J2,6,Pin_6*%
%TO.N,ROW3*%
X161980000Y-58600000D03*
%TO.P,J2,7,Pin_7*%
%TO.N,ROW2*%
X159440000Y-58600000D03*
%TO.P,J2,8,Pin_8*%
%TO.N,ROW1*%
X156900000Y-58600000D03*
%TO.P,J2,9,Pin_9*%
%TO.N,ROW0*%
X154360000Y-58600000D03*
%TO.P,J2,10,Pin_10*%
%TO.N,Net-(J2-Pin_10)*%
X151820000Y-58600000D03*
%TO.P,J2,11,Pin_11*%
%TO.N,Net-(J2-Pin_11)*%
X149280000Y-58600000D03*
%TO.P,J2,12,Pin_12*%
%TO.N,Net-(J2-Pin_12)*%
X146740000Y-58600000D03*
%TD*%
D15*
%TO.P,D9,1,K*%
%TO.N,ROW1*%
X155300000Y-66350000D03*
%TO.P,D9,2,A*%
%TO.N,Net-(D9-A)*%
X155300000Y-69650000D03*
%TD*%
%TO.P,D3,1,K*%
%TO.N,ROW0*%
X128300000Y-47500000D03*
%TO.P,D3,2,A*%
%TO.N,Net-(D3-A)*%
X128300000Y-50800000D03*
%TD*%
%TO.P,D11,1,K*%
%TO.N,ROW2*%
X106300000Y-85500000D03*
%TO.P,D11,2,A*%
%TO.N,Net-(D11-A)*%
X106300000Y-88800000D03*
%TD*%
D17*
%TO.P,C1,1*%
%TO.N,VDD*%
X94882000Y-105410000D03*
%TO.P,C1,2*%
%TO.N,GND*%
X93332000Y-105410000D03*
%TD*%
D15*
%TO.P,D8,1,K*%
%TO.N,ROW1*%
X136300000Y-66500000D03*
%TO.P,D8,2,A*%
%TO.N,Net-(D8-A)*%
X136300000Y-69800000D03*
%TD*%
D13*
%TO.P,J4,1,Pin_1*%
%TO.N,Net-(J4-Pin_1)*%
X144200000Y-58600000D03*
D14*
%TO.P,J4,2,Pin_2*%
%TO.N,COL4*%
X144200000Y-56060000D03*
%TO.P,J4,3,Pin_3*%
%TO.N,COL3*%
X144200000Y-53520000D03*
%TO.P,J4,4,Pin_4*%
%TO.N,COL2*%
X144200000Y-50980000D03*
%TO.P,J4,5,Pin_5*%
%TO.N,COL1*%
X144200000Y-48440000D03*
%TO.P,J4,6,Pin_6*%
%TO.N,COL0*%
X144200000Y-45900000D03*
%TO.P,J4,7,Pin_7*%
%TO.N,Net-(J4-Pin_7)*%
X144200000Y-43360000D03*
%TD*%
D12*
%TO.P,D15,1,K*%
%TO.N,ROW3*%
X142550000Y-106650000D03*
%TO.P,D15,2,A*%
%TO.N,Net-(D15-A)*%
X142550000Y-103350000D03*
%TD*%
D15*
%TO.P,D13,1,K*%
%TO.N,ROW2*%
X144300000Y-85500000D03*
%TO.P,D13,2,A*%
%TO.N,Net-(D13-A)*%
X144300000Y-88800000D03*
%TD*%
%TO.P,D6,1,K*%
%TO.N,ROW1*%
X98300000Y-66500000D03*
%TO.P,D6,2,A*%
%TO.N,Net-(D6-A)*%
X98300000Y-69800000D03*
%TD*%
%TO.P,D4,1,K*%
%TO.N,ROW0*%
X161300000Y-49850000D03*
%TO.P,D4,2,A*%
%TO.N,Net-(D4-A)*%
X161300000Y-53150000D03*
%TD*%
%TO.P,D14,1,K*%
%TO.N,ROW2*%
X163300000Y-85500000D03*
%TO.P,D14,2,A*%
%TO.N,Net-(D14-A)*%
X163300000Y-88800000D03*
%TD*%
D18*
%TO.P,SW17,1,1*%
%TO.N,Net-(J2-Pin_11)*%
X130299999Y-45648000D03*
%TO.P,SW17,2,2*%
%TO.N,Net-(J2-Pin_12)*%
X131799999Y-45648000D03*
%TO.P,SW17,3,3*%
%TO.N,GND*%
X134800001Y-45648000D03*
%TO.P,SW17,4,4*%
%TO.N,Net-(J4-Pin_1)*%
X136300000Y-45648000D03*
D19*
%TO.P,SW17,5*%
%TO.N,N/C*%
X128150000Y-44869500D03*
%TO.P,SW17,6*%
X128150000Y-42926500D03*
D20*
%TO.P,SW17,7*%
X130799999Y-43897500D03*
%TO.P,SW17,8*%
X135800000Y-43897500D03*
D19*
%TO.P,SW17,9*%
X138450000Y-44869500D03*
%TO.P,SW17,10*%
X138450000Y-42926500D03*
%TD*%
D21*
%TO.P,U2,1,VDD*%
%TO.N,VDD*%
X94850000Y-108750000D03*
%TO.P,U2,2,DOUT*%
%TO.N,unconnected-(U2-DOUT-Pad2)*%
X94850000Y-107250000D03*
D22*
%TO.P,U2,3,GND*%
%TO.N,GND*%
X89750000Y-107250000D03*
D21*
%TO.P,U2,4,DIN*%
%TO.N,RGB_DIN*%
X89750000Y-108750000D03*
%TD*%
D23*
%TO.N,GND*%
X141859000Y-60706000D03*
%TO.N,RGB_DIN*%
X170561000Y-64643000D03*
X170561000Y-67691000D03*
%TD*%
D24*
%TO.N,ROW0*%
X154360000Y-58540000D02*
X149800000Y-63100000D01*
X149800000Y-63100000D02*
X139450000Y-63100000D01*
X160850000Y-46600000D02*
X160850000Y-49400000D01*
X129800000Y-49000000D02*
X128300000Y-47500000D01*
X129800000Y-53450000D02*
X129800000Y-49000000D01*
X90300000Y-47500000D02*
X128300000Y-47500000D01*
X154360000Y-55190000D02*
X154360000Y-58540000D01*
X139450000Y-63100000D02*
X129800000Y-53450000D01*
X159700000Y-49850000D02*
X154360000Y-55190000D01*
X161300000Y-49850000D02*
X159700000Y-49850000D01*
X160850000Y-49400000D02*
X161300000Y-49850000D01*
%TO.N,Net-(D1-A)*%
X90300000Y-55100000D02*
X90900000Y-55700000D01*
X90300000Y-50800000D02*
X90300000Y-55100000D01*
%TO.N,Net-(D2-A)*%
X109300000Y-55100000D02*
X109900000Y-55700000D01*
X109300000Y-50800000D02*
X109300000Y-55100000D01*
%TO.N,Net-(D3-A)*%
X128300000Y-50800000D02*
X128300000Y-55100000D01*
X128300000Y-55100000D02*
X128900000Y-55700000D01*
%TO.N,Net-(D4-A)*%
X159050000Y-55400000D02*
X161300000Y-53150000D01*
X156908000Y-55400000D02*
X159050000Y-55400000D01*
%TO.N,ROW1*%
X98300000Y-66500000D02*
X136300000Y-66500000D01*
X155300000Y-65000000D02*
X156900000Y-63400000D01*
X156900000Y-63400000D02*
X156900000Y-58540000D01*
X136450000Y-66350000D02*
X136300000Y-66500000D01*
X155300000Y-66350000D02*
X136450000Y-66350000D01*
X155300000Y-66350000D02*
X155300000Y-65000000D01*
%TO.N,Net-(D5-A)*%
X164150000Y-46600000D02*
X166600000Y-46600000D01*
%TO.N,Net-(D6-A)*%
X98300000Y-69800000D02*
X98300000Y-74100000D01*
X98300000Y-74100000D02*
X98900000Y-74700000D01*
%TO.N,Net-(D7-A)*%
X117300000Y-69800000D02*
X117300000Y-74100000D01*
X117300000Y-74100000D02*
X117900000Y-74700000D01*
%TO.N,Net-(D8-A)*%
X136300000Y-74100000D02*
X136900000Y-74700000D01*
X136300000Y-69800000D02*
X136300000Y-74100000D01*
%TO.N,ROW2*%
X125300000Y-85500000D02*
X144300000Y-85500000D01*
X144300000Y-85500000D02*
X163300000Y-85500000D01*
X163300000Y-85500000D02*
X165050000Y-83750000D01*
X106300000Y-85500000D02*
X125300000Y-85500000D01*
X104800000Y-84000000D02*
X106300000Y-85500000D01*
X165050000Y-83750000D02*
X165050000Y-64150000D01*
X93950000Y-84000000D02*
X104800000Y-84000000D01*
X165050000Y-64150000D02*
X159440000Y-58540000D01*
%TO.N,Net-(D9-A)*%
X155300000Y-69650000D02*
X155300000Y-74100000D01*
X155300000Y-74100000D02*
X155900000Y-74700000D01*
%TO.N,Net-(D10-A)*%
X87900000Y-93700000D02*
X87900000Y-86750000D01*
X87900000Y-86750000D02*
X90650000Y-84000000D01*
%TO.N,Net-(D11-A)*%
X106300000Y-93100000D02*
X106900000Y-93700000D01*
X106300000Y-88800000D02*
X106300000Y-93100000D01*
%TO.N,Net-(D12-A)*%
X125300000Y-88800000D02*
X125300000Y-93100000D01*
X125300000Y-93100000D02*
X125900000Y-93700000D01*
%TO.N,ROW3*%
X142550000Y-106650000D02*
X146900000Y-111000000D01*
X166950000Y-111000000D02*
X171300000Y-106650000D01*
X165600000Y-79367000D02*
X172593000Y-86360000D01*
X146900000Y-111000000D02*
X166950000Y-111000000D01*
X161980000Y-58600000D02*
X165600000Y-62220000D01*
X165600000Y-62220000D02*
X165600000Y-79367000D01*
X172593000Y-86360000D02*
X172593000Y-105357000D01*
X172593000Y-105357000D02*
X171300000Y-106650000D01*
%TO.N,Net-(D13-A)*%
X144300000Y-88800000D02*
X144300000Y-93100000D01*
X144300000Y-93100000D02*
X144900000Y-93700000D01*
%TO.N,Net-(D14-A)*%
X163300000Y-88800000D02*
X163300000Y-93100000D01*
X163300000Y-93100000D02*
X163900000Y-93700000D01*
%TO.N,Net-(D15-A)*%
X139200000Y-103300000D02*
X142500000Y-103300000D01*
X142500000Y-103300000D02*
X142550000Y-103350000D01*
%TO.N,Net-(D16-A)*%
X171300000Y-103350000D02*
X168250000Y-103350000D01*
X168250000Y-103350000D02*
X168200000Y-103300000D01*
%TO.N,VDD*%
X178250000Y-107119000D02*
X178250000Y-72078000D01*
X96012000Y-105410000D02*
X120269000Y-105410000D01*
X120269000Y-105410000D02*
X128905000Y-114046000D01*
X96125000Y-105523000D02*
X96012000Y-105410000D01*
X171323000Y-114046000D02*
X178250000Y-107119000D01*
X177300000Y-48649000D02*
X173451000Y-44800000D01*
X176022000Y-60452000D02*
X177300000Y-59174000D01*
X173451000Y-44800000D02*
X165960000Y-44800000D01*
X94882000Y-105410000D02*
X96012000Y-105410000D01*
X94850000Y-108750000D02*
X95290000Y-108750000D01*
X171958000Y-62484000D02*
X173990000Y-60452000D01*
X178250000Y-72078000D02*
X171958000Y-65786000D01*
X128905000Y-114046000D02*
X171323000Y-114046000D01*
X173990000Y-60452000D02*
X176022000Y-60452000D01*
X165960000Y-44800000D02*
X164520000Y-43360000D01*
X171958000Y-65786000D02*
X171958000Y-62484000D01*
X177300000Y-59174000D02*
X177300000Y-48649000D01*
X96125000Y-107915000D02*
X96125000Y-105523000D01*
X95290000Y-108750000D02*
X96125000Y-107915000D01*
%TO.N,GND*%
X141859000Y-60706000D02*
X138900000Y-57747000D01*
X138900000Y-57747000D02*
X138900000Y-50072182D01*
X94232000Y-104510000D02*
X93332000Y-105410000D01*
X91180000Y-105410000D02*
X93332000Y-105410000D01*
X89750000Y-107250000D02*
X89750000Y-106840000D01*
X170688000Y-113157000D02*
X129413000Y-113157000D01*
X167060000Y-58600000D02*
X167060000Y-62539000D01*
X167060000Y-62539000D02*
X177150000Y-72629000D01*
X134800001Y-45972183D02*
X134800001Y-45648000D01*
X177150000Y-72629000D02*
X177150000Y-106695000D01*
X177150000Y-106695000D02*
X170688000Y-113157000D01*
X134800001Y-45250001D02*
X134800001Y-45148000D01*
X129413000Y-113157000D02*
X120766000Y-104510000D01*
X89750000Y-106840000D02*
X91180000Y-105410000D01*
X138900000Y-50072182D02*
X134800001Y-45972183D01*
X120766000Y-104510000D02*
X94232000Y-104510000D01*
%TO.N,RGB_DIN*%
X89310000Y-108750000D02*
X89750000Y-108750000D01*
X88475000Y-107915000D02*
X89310000Y-108750000D01*
X169926000Y-112141000D02*
X129921000Y-112141000D01*
X91621366Y-103632000D02*
X88475000Y-106778366D01*
X88475000Y-106778366D02*
X88475000Y-107915000D01*
X129921000Y-112141000D02*
X121412000Y-103632000D01*
X176022000Y-73152000D02*
X176022000Y-106045000D01*
X170561000Y-67691000D02*
X176022000Y-73152000D01*
X170561000Y-62719000D02*
X174680000Y-58600000D01*
X121412000Y-103632000D02*
X91621366Y-103632000D01*
X176022000Y-106045000D02*
X169926000Y-112141000D01*
X170561000Y-64643000D02*
X170561000Y-62719000D01*
%TO.N,Net-(J2-Pin_11)*%
X146750000Y-62550000D02*
X149280000Y-60020000D01*
X137800000Y-50800000D02*
X137800000Y-60250000D01*
X130299999Y-46397999D02*
X131552000Y-47650000D01*
X130299999Y-45648000D02*
X130299999Y-46397999D01*
X140100000Y-62550000D02*
X146750000Y-62550000D01*
X149280000Y-60020000D02*
X149280000Y-58600000D01*
X131552000Y-47650000D02*
X134650000Y-47650000D01*
X137800000Y-60250000D02*
X140100000Y-62550000D01*
X134650000Y-47650000D02*
X137800000Y-50800000D01*
%TO.N,Net-(J2-Pin_12)*%
X146050000Y-62000000D02*
X146740000Y-61310000D01*
X138350000Y-59800000D02*
X140550000Y-62000000D01*
X134872999Y-46822999D02*
X137097760Y-49047760D01*
X137097760Y-49047760D02*
X138350000Y-50300000D01*
X132974998Y-46822999D02*
X134872999Y-46822999D01*
X140550000Y-62000000D02*
X146050000Y-62000000D01*
X146740000Y-61310000D02*
X146740000Y-58600000D01*
X131799999Y-45648000D02*
X132974998Y-46822999D01*
X138350000Y-50300000D02*
X138350000Y-59800000D01*
%TO.N,Net-(J4-Pin_1)*%
X140900000Y-58600000D02*
X139450000Y-57150000D01*
X139450000Y-48798000D02*
X136300000Y-45648000D01*
X144200000Y-58600000D02*
X140900000Y-58600000D01*
X139450000Y-57150000D02*
X139450000Y-48798000D01*
%TD*%
M02*
