G04 #@! TF.GenerationSoftware,KiCad,Pcbnew,8.0.4*
G04 #@! TF.CreationDate,2024-10-01T15:20:09+01:00*
G04 #@! TF.ProjectId,Mathboard,4d617468-626f-4617-9264-2e6b69636164,rev?*
G04 #@! TF.SameCoordinates,PX501bd00PY28b8ce0*
G04 #@! TF.FileFunction,Profile,NP*
%FSLAX46Y46*%
G04 Gerber Fmt 4.6, Leading zero omitted, Abs format (unit mm)*
G04 Created by KiCad (PCBNEW 8.0.4) date 2024-10-01 15:20:09*
%MOMM*%
%LPD*%
G01*
G04 APERTURE LIST*
G04 #@! TA.AperFunction,Profile*
%ADD10C,0.100000*%
G04 #@! TD*
G04 #@! TA.AperFunction,Profile*
%ADD11C,0.120000*%
G04 #@! TD*
G04 APERTURE END LIST*
D10*
X292893Y-66192893D02*
G75*
G02*
X10Y-65485786I707107J707093D01*
G01*
X95600000Y-65485786D02*
G75*
G02*
X95307114Y-66192900I-1000000J-14D01*
G01*
X95307107Y-66192893D02*
X88192893Y-73307107D01*
X45400000Y0D02*
X94600000Y0D01*
X45400000Y0D02*
X45400000Y-5700000D01*
X87485786Y-73600000D02*
X8114214Y-73600000D01*
X8114214Y-73600000D02*
G75*
G02*
X7407121Y-73307093I-14J999900D01*
G01*
X7407107Y-73307107D02*
X292893Y-66192893D01*
X95600000Y-1000000D02*
X95600000Y-65485786D01*
X0Y-1000000D02*
G75*
G02*
X1000000Y0I1000000J0D01*
G01*
X36000000Y0D02*
X1000000Y0D01*
X45400000Y-5700000D02*
X36000000Y-5700000D01*
X0Y-65485786D02*
X0Y-1000000D01*
X88192893Y-73307107D02*
G75*
G02*
X87485786Y-73599990I-707093J707107D01*
G01*
X36000000Y-5700000D02*
X36000000Y0D01*
X94600000Y0D02*
G75*
G02*
X95600000Y-1000000I0J-1000000D01*
G01*
D11*
X83800000Y-1200000D02*
X87200000Y-1200000D01*
X83800000Y-4200000D02*
X83800000Y-1200000D01*
X87200000Y-1200000D02*
X87200000Y-4200000D01*
X87200000Y-4200000D02*
X83800000Y-4200000D01*
M02*
