G04 #@! TF.GenerationSoftware,KiCad,Pcbnew,8.0.4*
G04 #@! TF.CreationDate,2025-01-16T10:51:39+00:00*
G04 #@! TF.ProjectId,Mathboard,4d617468-626f-4617-9264-2e6b69636164,rev?*
G04 #@! TF.SameCoordinates,PX501bd00PY28b8ce0*
G04 #@! TF.FileFunction,Legend,Bot*
G04 #@! TF.FilePolarity,Positive*
%FSLAX46Y46*%
G04 Gerber Fmt 4.6, Leading zero omitted, Abs format (unit mm)*
G04 Created by KiCad (PCBNEW 8.0.4) date 2025-01-16 10:51:39*
%MOMM*%
%LPD*%
G01*
G04 APERTURE LIST*
%ADD10C,0.140000*%
%ADD11O,1.000000X1.600000*%
%ADD12O,1.000000X2.000000*%
%ADD13C,1.397000*%
%ADD14C,5.250000*%
G04 APERTURE END LIST*
D10*
X1800000Y-2800000D02*
X1800000Y-1800000D01*
X1800000Y-14800000D02*
X1800000Y-13800000D01*
X1800000Y-14800000D02*
X2800000Y-14800000D01*
X2800000Y-1800000D02*
X1800000Y-1800000D01*
X13800000Y-14800000D02*
X14800000Y-14800000D01*
X14800000Y-1800000D02*
X13800000Y-1800000D01*
X14800000Y-1800000D02*
X14800000Y-2800000D01*
X14800000Y-13800000D02*
X14800000Y-14800000D01*
X61800000Y-40800000D02*
X61800000Y-39800000D01*
X61800000Y-52800000D02*
X61800000Y-51800000D01*
X61800000Y-52800000D02*
X62800000Y-52800000D01*
X62800000Y-39800000D02*
X61800000Y-39800000D01*
X73800000Y-52800000D02*
X74800000Y-52800000D01*
X74800000Y-39800000D02*
X73800000Y-39800000D01*
X74800000Y-39800000D02*
X74800000Y-40800000D01*
X74800000Y-51800000D02*
X74800000Y-52800000D01*
X23800000Y-40800000D02*
X23800000Y-39800000D01*
X23800000Y-52800000D02*
X23800000Y-51800000D01*
X23800000Y-52800000D02*
X24800000Y-52800000D01*
X24800000Y-39800000D02*
X23800000Y-39800000D01*
X35800000Y-52800000D02*
X36800000Y-52800000D01*
X36800000Y-39800000D02*
X35800000Y-39800000D01*
X36800000Y-39800000D02*
X36800000Y-40800000D01*
X36800000Y-51800000D02*
X36800000Y-52800000D01*
X58800000Y-2800000D02*
X58800000Y-1800000D01*
X58800000Y-14800000D02*
X58800000Y-13800000D01*
X58800000Y-14800000D02*
X59800000Y-14800000D01*
X59800000Y-1800000D02*
X58800000Y-1800000D01*
X70800000Y-14800000D02*
X71800000Y-14800000D01*
X71800000Y-1800000D02*
X70800000Y-1800000D01*
X71800000Y-1800000D02*
X71800000Y-2800000D01*
X71800000Y-13800000D02*
X71800000Y-14800000D01*
X35050000Y-59800000D02*
X35050000Y-58800000D01*
X35050000Y-71800000D02*
X35050000Y-70800000D01*
X35050000Y-71800000D02*
X36050000Y-71800000D01*
X36050000Y-58800000D02*
X35050000Y-58800000D01*
X47050000Y-71800000D02*
X48050000Y-71800000D01*
X48050000Y-58800000D02*
X47050000Y-58800000D01*
X48050000Y-58800000D02*
X48050000Y-59800000D01*
X48050000Y-70800000D02*
X48050000Y-71800000D01*
X80800000Y-40800000D02*
X80800000Y-39800000D01*
X80800000Y-52800000D02*
X80800000Y-51800000D01*
X80800000Y-52800000D02*
X81800000Y-52800000D01*
X81800000Y-39800000D02*
X80800000Y-39800000D01*
X92800000Y-52800000D02*
X93800000Y-52800000D01*
X93800000Y-39800000D02*
X92800000Y-39800000D01*
X93800000Y-39800000D02*
X93800000Y-40800000D01*
X93800000Y-51800000D02*
X93800000Y-52800000D01*
X39800000Y-2800000D02*
X39800000Y-1800000D01*
X39800000Y-14800000D02*
X39800000Y-13800000D01*
X39800000Y-14800000D02*
X40800000Y-14800000D01*
X40800000Y-1800000D02*
X39800000Y-1800000D01*
X51800000Y-14800000D02*
X52800000Y-14800000D01*
X52800000Y-1800000D02*
X51800000Y-1800000D01*
X52800000Y-1800000D02*
X52800000Y-2800000D01*
X52800000Y-13800000D02*
X52800000Y-14800000D01*
X20800000Y-2800000D02*
X20800000Y-1800000D01*
X20800000Y-14800000D02*
X20800000Y-13800000D01*
X20800000Y-14800000D02*
X21800000Y-14800000D01*
X21800000Y-1800000D02*
X20800000Y-1800000D01*
X32800000Y-14800000D02*
X33800000Y-14800000D01*
X33800000Y-1800000D02*
X32800000Y-1800000D01*
X33800000Y-1800000D02*
X33800000Y-2800000D01*
X33800000Y-13800000D02*
X33800000Y-14800000D01*
X12800000Y-21800000D02*
X12800000Y-20800000D01*
X12800000Y-33800000D02*
X12800000Y-32800000D01*
X12800000Y-33800000D02*
X13800000Y-33800000D01*
X13800000Y-20800000D02*
X12800000Y-20800000D01*
X24800000Y-33800000D02*
X25800000Y-33800000D01*
X25800000Y-20800000D02*
X24800000Y-20800000D01*
X25800000Y-20800000D02*
X25800000Y-21800000D01*
X25800000Y-32800000D02*
X25800000Y-33800000D01*
X4800000Y-40800000D02*
X4800000Y-39800000D01*
X4800000Y-52800000D02*
X4800000Y-51800000D01*
X4800000Y-52800000D02*
X5800000Y-52800000D01*
X5800000Y-39800000D02*
X4800000Y-39800000D01*
X16800000Y-52800000D02*
X17800000Y-52800000D01*
X17800000Y-39800000D02*
X16800000Y-39800000D01*
X17800000Y-39800000D02*
X17800000Y-40800000D01*
X17800000Y-51800000D02*
X17800000Y-52800000D01*
X50800000Y-21800000D02*
X50800000Y-20800000D01*
X50800000Y-33800000D02*
X50800000Y-32800000D01*
X50800000Y-33800000D02*
X51800000Y-33800000D01*
X51800000Y-20800000D02*
X50800000Y-20800000D01*
X62800000Y-33800000D02*
X63800000Y-33800000D01*
X63800000Y-20800000D02*
X62800000Y-20800000D01*
X63800000Y-20800000D02*
X63800000Y-21800000D01*
X63800000Y-32800000D02*
X63800000Y-33800000D01*
X42800000Y-40800000D02*
X42800000Y-39800000D01*
X42800000Y-52800000D02*
X42800000Y-51800000D01*
X42800000Y-52800000D02*
X43800000Y-52800000D01*
X43800000Y-39800000D02*
X42800000Y-39800000D01*
X54800000Y-52800000D02*
X55800000Y-52800000D01*
X55800000Y-39800000D02*
X54800000Y-39800000D01*
X55800000Y-39800000D02*
X55800000Y-40800000D01*
X55800000Y-51800000D02*
X55800000Y-52800000D01*
X31800000Y-21800000D02*
X31800000Y-20800000D01*
X31800000Y-33800000D02*
X31800000Y-32800000D01*
X31800000Y-33800000D02*
X32800000Y-33800000D01*
X32800000Y-20800000D02*
X31800000Y-20800000D01*
X43800000Y-33800000D02*
X44800000Y-33800000D01*
X44800000Y-20800000D02*
X43800000Y-20800000D01*
X44800000Y-20800000D02*
X44800000Y-21800000D01*
X44800000Y-32800000D02*
X44800000Y-33800000D01*
X77800000Y-2800000D02*
X77800000Y-1800000D01*
X77800000Y-14800000D02*
X77800000Y-13800000D01*
X77800000Y-14800000D02*
X78800000Y-14800000D01*
X78800000Y-1800000D02*
X77800000Y-1800000D01*
X89800000Y-14800000D02*
X90800000Y-14800000D01*
X90800000Y-1800000D02*
X89800000Y-1800000D01*
X90800000Y-1800000D02*
X90800000Y-2800000D01*
X90800000Y-13800000D02*
X90800000Y-14800000D01*
X6550000Y-59800000D02*
X6550000Y-58800000D01*
X6550000Y-71800000D02*
X6550000Y-70800000D01*
X6550000Y-71800000D02*
X7550000Y-71800000D01*
X7550000Y-58800000D02*
X6550000Y-58800000D01*
X18550000Y-71800000D02*
X19550000Y-71800000D01*
X19550000Y-58800000D02*
X18550000Y-58800000D01*
X19550000Y-58800000D02*
X19550000Y-59800000D01*
X19550000Y-70800000D02*
X19550000Y-71800000D01*
X69800000Y-21800000D02*
X69800000Y-20800000D01*
X69800000Y-33800000D02*
X69800000Y-32800000D01*
X69800000Y-33800000D02*
X70800000Y-33800000D01*
X70800000Y-20800000D02*
X69800000Y-20800000D01*
X81800000Y-33800000D02*
X82800000Y-33800000D01*
X82800000Y-20800000D02*
X81800000Y-20800000D01*
X82800000Y-20800000D02*
X82800000Y-21800000D01*
X82800000Y-32800000D02*
X82800000Y-33800000D01*
%LPC*%
D11*
X61420000Y-6800000D03*
D12*
X61420000Y-2800000D03*
D11*
X50180000Y-6800000D03*
D12*
X50180000Y-2800000D03*
D13*
X39500001Y-1795300D03*
X34500000Y-1795300D03*
D14*
X8300000Y-8300000D03*
X68300000Y-46300000D03*
X30300000Y-46300000D03*
X65300000Y-8300000D03*
X41550000Y-65300000D03*
X87300000Y-46300000D03*
X46300000Y-8300000D03*
X27300000Y-8300000D03*
X19300000Y-27300000D03*
X11300000Y-46300000D03*
X57300000Y-27300000D03*
X49300000Y-46300000D03*
X38300000Y-27300000D03*
X84300000Y-8300000D03*
X13050000Y-65300000D03*
X76300000Y-27300000D03*
%LPD*%
M02*
