G04 #@! TF.GenerationSoftware,KiCad,Pcbnew,8.0.4*
G04 #@! TF.CreationDate,2025-01-16T10:51:39+00:00*
G04 #@! TF.ProjectId,Mathboard,4d617468-626f-4617-9264-2e6b69636164,rev?*
G04 #@! TF.SameCoordinates,PX501bd00PY28b8ce0*
G04 #@! TF.FileFunction,Soldermask,Top*
G04 #@! TF.FilePolarity,Negative*
%FSLAX46Y46*%
G04 Gerber Fmt 4.6, Leading zero omitted, Abs format (unit mm)*
G04 Created by KiCad (PCBNEW 8.0.4) date 2025-01-16 10:51:39*
%MOMM*%
%LPD*%
G01*
G04 APERTURE LIST*
G04 Aperture macros list*
%AMRoundRect*
0 Rectangle with rounded corners*
0 $1 Rounding radius*
0 $2 $3 $4 $5 $6 $7 $8 $9 X,Y pos of 4 corners*
0 Add a 4 corners polygon primitive as box body*
4,1,4,$2,$3,$4,$5,$6,$7,$8,$9,$2,$3,0*
0 Add four circle primitives for the rounded corners*
1,1,$1+$1,$2,$3*
1,1,$1+$1,$4,$5*
1,1,$1+$1,$6,$7*
1,1,$1+$1,$8,$9*
0 Add four rect primitives between the rounded corners*
20,1,$1+$1,$2,$3,$4,$5,0*
20,1,$1+$1,$4,$5,$6,$7,0*
20,1,$1+$1,$6,$7,$8,$9,0*
20,1,$1+$1,$8,$9,$2,$3,0*%
G04 Aperture macros list end*
%ADD10C,0.010000*%
%ADD11RoundRect,0.225000X0.375000X-0.225000X0.375000X0.225000X-0.375000X0.225000X-0.375000X-0.225000X0*%
%ADD12RoundRect,0.135000X0.135000X0.185000X-0.135000X0.185000X-0.135000X-0.185000X0.135000X-0.185000X0*%
%ADD13R,1.150000X1.000000*%
%ADD14RoundRect,0.140000X-0.140000X-0.170000X0.140000X-0.170000X0.140000X0.170000X-0.140000X0.170000X0*%
%ADD15RoundRect,0.135000X0.185000X-0.135000X0.185000X0.135000X-0.185000X0.135000X-0.185000X-0.135000X0*%
%ADD16RoundRect,0.140000X0.170000X-0.140000X0.170000X0.140000X-0.170000X0.140000X-0.170000X-0.140000X0*%
%ADD17R,0.600000X1.240000*%
%ADD18R,0.300000X1.240000*%
%ADD19O,1.000000X1.600000*%
%ADD20O,1.000000X2.000000*%
%ADD21RoundRect,0.225000X-0.375000X0.225000X-0.375000X-0.225000X0.375000X-0.225000X0.375000X0.225000X0*%
%ADD22RoundRect,0.200000X0.335876X0.053033X0.053033X0.335876X-0.335876X-0.053033X-0.053033X-0.335876X0*%
%ADD23RoundRect,0.140000X-0.170000X0.140000X-0.170000X-0.140000X0.170000X-0.140000X0.170000X0.140000X0*%
%ADD24RoundRect,0.093750X0.156250X0.093750X-0.156250X0.093750X-0.156250X-0.093750X0.156250X-0.093750X0*%
%ADD25RoundRect,0.075000X0.250000X0.075000X-0.250000X0.075000X-0.250000X-0.075000X0.250000X-0.075000X0*%
%ADD26RoundRect,0.135000X-0.135000X-0.185000X0.135000X-0.185000X0.135000X0.185000X-0.135000X0.185000X0*%
%ADD27RoundRect,0.125000X-0.125000X0.200000X-0.125000X-0.200000X0.125000X-0.200000X0.125000X0.200000X0*%
%ADD28R,4.300000X3.400000*%
%ADD29RoundRect,0.140000X0.140000X0.170000X-0.140000X0.170000X-0.140000X-0.170000X0.140000X-0.170000X0*%
%ADD30RoundRect,0.100000X-0.225000X-0.100000X0.225000X-0.100000X0.225000X0.100000X-0.225000X0.100000X0*%
%ADD31RoundRect,0.225000X-0.250000X0.225000X-0.250000X-0.225000X0.250000X-0.225000X0.250000X0.225000X0*%
%ADD32RoundRect,0.135000X-0.185000X0.135000X-0.185000X-0.135000X0.185000X-0.135000X0.185000X0.135000X0*%
%ADD33RoundRect,0.085000X0.265000X0.085000X-0.265000X0.085000X-0.265000X-0.085000X0.265000X-0.085000X0*%
%ADD34RoundRect,0.218750X-0.218750X-0.256250X0.218750X-0.256250X0.218750X0.256250X-0.218750X0.256250X0*%
%ADD35RoundRect,0.150000X0.150000X-0.587500X0.150000X0.587500X-0.150000X0.587500X-0.150000X-0.587500X0*%
%ADD36RoundRect,0.050000X-0.050000X0.387500X-0.050000X-0.387500X0.050000X-0.387500X0.050000X0.387500X0*%
%ADD37RoundRect,0.050000X-0.387500X0.050000X-0.387500X-0.050000X0.387500X-0.050000X0.387500X0.050000X0*%
%ADD38R,3.200000X3.200000*%
%ADD39RoundRect,0.085000X-0.265000X-0.085000X0.265000X-0.085000X0.265000X0.085000X-0.265000X0.085000X0*%
%ADD40R,0.750000X1.000000*%
%ADD41R,0.650000X0.650000*%
%ADD42RoundRect,0.225000X0.250000X-0.225000X0.250000X0.225000X-0.250000X0.225000X-0.250000X-0.225000X0*%
%ADD43RoundRect,0.085000X0.085000X-0.265000X0.085000X0.265000X-0.085000X0.265000X-0.085000X-0.265000X0*%
%ADD44R,1.000000X0.850000*%
%ADD45C,1.397000*%
%ADD46R,0.800000X1.600000*%
%ADD47R,1.500000X0.820000*%
%ADD48R,1.500000X0.810000*%
%ADD49RoundRect,0.205000X0.545000X0.205000X-0.545000X0.205000X-0.545000X-0.205000X0.545000X-0.205000X0*%
%ADD50C,5.250000*%
%ADD51C,2.500000*%
G04 APERTURE END LIST*
D10*
X32163637Y-66187472D02*
X32249290Y-66213641D01*
X32304437Y-66246707D01*
X32322401Y-66272855D01*
X32317457Y-66303852D01*
X32285372Y-66352547D01*
X32258243Y-66387035D01*
X32202317Y-66449383D01*
X32160299Y-66475615D01*
X32124480Y-66473903D01*
X32018224Y-66446863D01*
X31940189Y-66448091D01*
X31876820Y-66478735D01*
X31855546Y-66496670D01*
X31787451Y-66559779D01*
X31787451Y-67383922D01*
X31513529Y-67383922D01*
X31513529Y-66188628D01*
X31650490Y-66188628D01*
X31732719Y-66191879D01*
X31775144Y-66203426D01*
X31787445Y-66225952D01*
X31787451Y-66226620D01*
X31793260Y-66250215D01*
X31819531Y-66247138D01*
X31855931Y-66230115D01*
X31931111Y-66198439D01*
X31992158Y-66179381D01*
X32070708Y-66174496D01*
X32163637Y-66187472D01*
G36*
X32163637Y-66187472D02*
G01*
X32249290Y-66213641D01*
X32304437Y-66246707D01*
X32322401Y-66272855D01*
X32317457Y-66303852D01*
X32285372Y-66352547D01*
X32258243Y-66387035D01*
X32202317Y-66449383D01*
X32160299Y-66475615D01*
X32124480Y-66473903D01*
X32018224Y-66446863D01*
X31940189Y-66448091D01*
X31876820Y-66478735D01*
X31855546Y-66496670D01*
X31787451Y-66559779D01*
X31787451Y-67383922D01*
X31513529Y-67383922D01*
X31513529Y-66188628D01*
X31650490Y-66188628D01*
X31732719Y-66191879D01*
X31775144Y-66203426D01*
X31787445Y-66225952D01*
X31787451Y-66226620D01*
X31793260Y-66250215D01*
X31819531Y-66247138D01*
X31855931Y-66230115D01*
X31931111Y-66198439D01*
X31992158Y-66179381D01*
X32070708Y-66174496D01*
X32163637Y-66187472D01*
G37*
X31838446Y-68055883D02*
X31934177Y-68074755D01*
X31988677Y-68102699D01*
X32046008Y-68149123D01*
X31964441Y-68252111D01*
X31914150Y-68314479D01*
X31880001Y-68344907D01*
X31846063Y-68349555D01*
X31796406Y-68334586D01*
X31773096Y-68326117D01*
X31678063Y-68313622D01*
X31591032Y-68340406D01*
X31527138Y-68400915D01*
X31516759Y-68420208D01*
X31505456Y-68471314D01*
X31496732Y-68565500D01*
X31490997Y-68696089D01*
X31488660Y-68856405D01*
X31488627Y-68879211D01*
X31488627Y-69276471D01*
X31214705Y-69276471D01*
X31214705Y-68056275D01*
X31351666Y-68056275D01*
X31430638Y-68058337D01*
X31471779Y-68067513D01*
X31486992Y-68088290D01*
X31488627Y-68107886D01*
X31488627Y-68159497D01*
X31554240Y-68107886D01*
X31629475Y-68072675D01*
X31730544Y-68055265D01*
X31838446Y-68055883D01*
G36*
X31838446Y-68055883D02*
G01*
X31934177Y-68074755D01*
X31988677Y-68102699D01*
X32046008Y-68149123D01*
X31964441Y-68252111D01*
X31914150Y-68314479D01*
X31880001Y-68344907D01*
X31846063Y-68349555D01*
X31796406Y-68334586D01*
X31773096Y-68326117D01*
X31678063Y-68313622D01*
X31591032Y-68340406D01*
X31527138Y-68400915D01*
X31516759Y-68420208D01*
X31505456Y-68471314D01*
X31496732Y-68565500D01*
X31490997Y-68696089D01*
X31488660Y-68856405D01*
X31488627Y-68879211D01*
X31488627Y-69276471D01*
X31214705Y-69276471D01*
X31214705Y-68056275D01*
X31351666Y-68056275D01*
X31430638Y-68058337D01*
X31471779Y-68067513D01*
X31486992Y-68088290D01*
X31488627Y-68107886D01*
X31488627Y-68159497D01*
X31554240Y-68107886D01*
X31629475Y-68072675D01*
X31730544Y-68055265D01*
X31838446Y-68055883D01*
G37*
X26632764Y-68058921D02*
X26670030Y-68070091D01*
X26682043Y-68094633D01*
X26682549Y-68105712D01*
X26684704Y-68136572D01*
X26699551Y-68141417D01*
X26739657Y-68120260D01*
X26763480Y-68105806D01*
X26838638Y-68074850D01*
X26928406Y-68059544D01*
X27022529Y-68058367D01*
X27110754Y-68069799D01*
X27182826Y-68092320D01*
X27228492Y-68124409D01*
X27237498Y-68164545D01*
X27232953Y-68175415D01*
X27199821Y-68220534D01*
X27148445Y-68276026D01*
X27139152Y-68284996D01*
X27090182Y-68326245D01*
X27047931Y-68339572D01*
X26988841Y-68330271D01*
X26965169Y-68324090D01*
X26891504Y-68309246D01*
X26839710Y-68315921D01*
X26795969Y-68339465D01*
X26755902Y-68371061D01*
X26726392Y-68410798D01*
X26705884Y-68466252D01*
X26692824Y-68545003D01*
X26685656Y-68654629D01*
X26682824Y-68802706D01*
X26682549Y-68892111D01*
X26682549Y-69276471D01*
X26433529Y-69276471D01*
X26433529Y-68056275D01*
X26558039Y-68056275D01*
X26632764Y-68058921D01*
G36*
X26632764Y-68058921D02*
G01*
X26670030Y-68070091D01*
X26682043Y-68094633D01*
X26682549Y-68105712D01*
X26684704Y-68136572D01*
X26699551Y-68141417D01*
X26739657Y-68120260D01*
X26763480Y-68105806D01*
X26838638Y-68074850D01*
X26928406Y-68059544D01*
X27022529Y-68058367D01*
X27110754Y-68069799D01*
X27182826Y-68092320D01*
X27228492Y-68124409D01*
X27237498Y-68164545D01*
X27232953Y-68175415D01*
X27199821Y-68220534D01*
X27148445Y-68276026D01*
X27139152Y-68284996D01*
X27090182Y-68326245D01*
X27047931Y-68339572D01*
X26988841Y-68330271D01*
X26965169Y-68324090D01*
X26891504Y-68309246D01*
X26839710Y-68315921D01*
X26795969Y-68339465D01*
X26755902Y-68371061D01*
X26726392Y-68410798D01*
X26705884Y-68466252D01*
X26692824Y-68545003D01*
X26685656Y-68654629D01*
X26682824Y-68802706D01*
X26682549Y-68892111D01*
X26682549Y-69276471D01*
X26433529Y-69276471D01*
X26433529Y-68056275D01*
X26558039Y-68056275D01*
X26632764Y-68058921D01*
G37*
X30567254Y-66576245D02*
X30569608Y-66758879D01*
X30578207Y-66897600D01*
X30595360Y-66998147D01*
X30623374Y-67066254D01*
X30664557Y-67107659D01*
X30721217Y-67128097D01*
X30791372Y-67133318D01*
X30864848Y-67127468D01*
X30920657Y-67106093D01*
X30961109Y-67063458D01*
X30988509Y-66993825D01*
X31005167Y-66891460D01*
X31013389Y-66750624D01*
X31015490Y-66576245D01*
X31015490Y-66188628D01*
X31289411Y-66188628D01*
X31289411Y-67383922D01*
X31152451Y-67383922D01*
X31069884Y-67380576D01*
X31027368Y-67368826D01*
X31015490Y-67346520D01*
X31008336Y-67326654D01*
X30979865Y-67330857D01*
X30922476Y-67358971D01*
X30790945Y-67402342D01*
X30651438Y-67399270D01*
X30517765Y-67352174D01*
X30454108Y-67314971D01*
X30405553Y-67274691D01*
X30370081Y-67224291D01*
X30345674Y-67156729D01*
X30330313Y-67064965D01*
X30321982Y-66941955D01*
X30318662Y-66780659D01*
X30318235Y-66655928D01*
X30318235Y-66188628D01*
X30567254Y-66188628D01*
X30567254Y-66576245D01*
G36*
X30567254Y-66576245D02*
G01*
X30569608Y-66758879D01*
X30578207Y-66897600D01*
X30595360Y-66998147D01*
X30623374Y-67066254D01*
X30664557Y-67107659D01*
X30721217Y-67128097D01*
X30791372Y-67133318D01*
X30864848Y-67127468D01*
X30920657Y-67106093D01*
X30961109Y-67063458D01*
X30988509Y-66993825D01*
X31005167Y-66891460D01*
X31013389Y-66750624D01*
X31015490Y-66576245D01*
X31015490Y-66188628D01*
X31289411Y-66188628D01*
X31289411Y-67383922D01*
X31152451Y-67383922D01*
X31069884Y-67380576D01*
X31027368Y-67368826D01*
X31015490Y-67346520D01*
X31008336Y-67326654D01*
X30979865Y-67330857D01*
X30922476Y-67358971D01*
X30790945Y-67402342D01*
X30651438Y-67399270D01*
X30517765Y-67352174D01*
X30454108Y-67314971D01*
X30405553Y-67274691D01*
X30370081Y-67224291D01*
X30345674Y-67156729D01*
X30330313Y-67064965D01*
X30321982Y-66941955D01*
X30318662Y-66780659D01*
X30318235Y-66655928D01*
X30318235Y-66188628D01*
X30567254Y-66188628D01*
X30567254Y-66576245D01*
G37*
X27106760Y-66209199D02*
X27168736Y-66238802D01*
X27228759Y-66281561D01*
X27274486Y-66330775D01*
X27307793Y-66393544D01*
X27330555Y-66476971D01*
X27344647Y-66588159D01*
X27351942Y-66734209D01*
X27354318Y-66922223D01*
X27354355Y-66941912D01*
X27354902Y-67383922D01*
X27080980Y-67383922D01*
X27080980Y-66976435D01*
X27080785Y-66825471D01*
X27079436Y-66716056D01*
X27075788Y-66639933D01*
X27068696Y-66588848D01*
X27057013Y-66554545D01*
X27039594Y-66528768D01*
X27015329Y-66503298D01*
X26930435Y-66448571D01*
X26837761Y-66438416D01*
X26749473Y-66473017D01*
X26718770Y-66498770D01*
X26696229Y-66522982D01*
X26680046Y-66548912D01*
X26669168Y-66584708D01*
X26662542Y-66638519D01*
X26659115Y-66718493D01*
X26657834Y-66832779D01*
X26657647Y-66971907D01*
X26657647Y-67383922D01*
X26383725Y-67383922D01*
X26383725Y-66188628D01*
X26520686Y-66188628D01*
X26602916Y-66191879D01*
X26645340Y-66203426D01*
X26657641Y-66225952D01*
X26657647Y-66226620D01*
X26663354Y-66248681D01*
X26688527Y-66246177D01*
X26738578Y-66221937D01*
X26852094Y-66186271D01*
X26981945Y-66182305D01*
X27106760Y-66209199D01*
G36*
X27106760Y-66209199D02*
G01*
X27168736Y-66238802D01*
X27228759Y-66281561D01*
X27274486Y-66330775D01*
X27307793Y-66393544D01*
X27330555Y-66476971D01*
X27344647Y-66588159D01*
X27351942Y-66734209D01*
X27354318Y-66922223D01*
X27354355Y-66941912D01*
X27354902Y-67383922D01*
X27080980Y-67383922D01*
X27080980Y-66976435D01*
X27080785Y-66825471D01*
X27079436Y-66716056D01*
X27075788Y-66639933D01*
X27068696Y-66588848D01*
X27057013Y-66554545D01*
X27039594Y-66528768D01*
X27015329Y-66503298D01*
X26930435Y-66448571D01*
X26837761Y-66438416D01*
X26749473Y-66473017D01*
X26718770Y-66498770D01*
X26696229Y-66522982D01*
X26680046Y-66548912D01*
X26669168Y-66584708D01*
X26662542Y-66638519D01*
X26659115Y-66718493D01*
X26657834Y-66832779D01*
X26657647Y-66971907D01*
X26657647Y-67383922D01*
X26383725Y-67383922D01*
X26383725Y-66188628D01*
X26520686Y-66188628D01*
X26602916Y-66191879D01*
X26645340Y-66203426D01*
X26657641Y-66225952D01*
X26657647Y-66226620D01*
X26663354Y-66248681D01*
X26688527Y-66246177D01*
X26738578Y-66221937D01*
X26852094Y-66186271D01*
X26981945Y-66182305D01*
X27106760Y-66209199D01*
G37*
X32990976Y-66199056D02*
X33135256Y-66260348D01*
X33180699Y-66290185D01*
X33238779Y-66336036D01*
X33275238Y-66372089D01*
X33281568Y-66383832D01*
X33263693Y-66409889D01*
X33217950Y-66454105D01*
X33181328Y-66484965D01*
X33081088Y-66565520D01*
X33001935Y-66498918D01*
X32940769Y-66455921D01*
X32881129Y-66441079D01*
X32812872Y-66444704D01*
X32704482Y-66471652D01*
X32629872Y-66527587D01*
X32584530Y-66618014D01*
X32563947Y-66748435D01*
X32563942Y-66748517D01*
X32565722Y-66894290D01*
X32593387Y-67001245D01*
X32648571Y-67074064D01*
X32686192Y-67098723D01*
X32786105Y-67129431D01*
X32892822Y-67129449D01*
X32985669Y-67099655D01*
X33007647Y-67085098D01*
X33062765Y-67047914D01*
X33105859Y-67041820D01*
X33152335Y-67069496D01*
X33203716Y-67119205D01*
X33285046Y-67203116D01*
X33194749Y-67277546D01*
X33055236Y-67361549D01*
X32897912Y-67402947D01*
X32733503Y-67399950D01*
X32625531Y-67372500D01*
X32499331Y-67304620D01*
X32398401Y-67197831D01*
X32352548Y-67122451D01*
X32315410Y-67014297D01*
X32296827Y-66877318D01*
X32296684Y-66728864D01*
X32314865Y-66586281D01*
X32351255Y-66466918D01*
X32356987Y-66454680D01*
X32441865Y-66334655D01*
X32556782Y-66247267D01*
X32692659Y-66194329D01*
X32840417Y-66177654D01*
X32990976Y-66199056D01*
G36*
X32990976Y-66199056D02*
G01*
X33135256Y-66260348D01*
X33180699Y-66290185D01*
X33238779Y-66336036D01*
X33275238Y-66372089D01*
X33281568Y-66383832D01*
X33263693Y-66409889D01*
X33217950Y-66454105D01*
X33181328Y-66484965D01*
X33081088Y-66565520D01*
X33001935Y-66498918D01*
X32940769Y-66455921D01*
X32881129Y-66441079D01*
X32812872Y-66444704D01*
X32704482Y-66471652D01*
X32629872Y-66527587D01*
X32584530Y-66618014D01*
X32563947Y-66748435D01*
X32563942Y-66748517D01*
X32565722Y-66894290D01*
X32593387Y-67001245D01*
X32648571Y-67074064D01*
X32686192Y-67098723D01*
X32786105Y-67129431D01*
X32892822Y-67129449D01*
X32985669Y-67099655D01*
X33007647Y-67085098D01*
X33062765Y-67047914D01*
X33105859Y-67041820D01*
X33152335Y-67069496D01*
X33203716Y-67119205D01*
X33285046Y-67203116D01*
X33194749Y-67277546D01*
X33055236Y-67361549D01*
X32897912Y-67402947D01*
X32733503Y-67399950D01*
X32625531Y-67372500D01*
X32499331Y-67304620D01*
X32398401Y-67197831D01*
X32352548Y-67122451D01*
X32315410Y-67014297D01*
X32296827Y-66877318D01*
X32296684Y-66728864D01*
X32314865Y-66586281D01*
X32351255Y-66466918D01*
X32356987Y-66454680D01*
X32441865Y-66334655D01*
X32556782Y-66247267D01*
X32692659Y-66194329D01*
X32840417Y-66177654D01*
X32990976Y-66199056D01*
G37*
X29809547Y-66203364D02*
X29935502Y-66271959D01*
X30034047Y-66380245D01*
X30080478Y-66468315D01*
X30100412Y-66546101D01*
X30113328Y-66656993D01*
X30118863Y-66784738D01*
X30116654Y-66913084D01*
X30106337Y-67025779D01*
X30094286Y-67085969D01*
X30053634Y-67168311D01*
X29983230Y-67255770D01*
X29898382Y-67332251D01*
X29814397Y-67381655D01*
X29812349Y-67382439D01*
X29708134Y-67404027D01*
X29584627Y-67404562D01*
X29467261Y-67384908D01*
X29421942Y-67369155D01*
X29305220Y-67302966D01*
X29221624Y-67216246D01*
X29166701Y-67101438D01*
X29135995Y-66950982D01*
X29129047Y-66872173D01*
X29129933Y-66773145D01*
X29396862Y-66773145D01*
X29405854Y-66917645D01*
X29431736Y-67027760D01*
X29472868Y-67098116D01*
X29502172Y-67118235D01*
X29577251Y-67132265D01*
X29666494Y-67128111D01*
X29743650Y-67107922D01*
X29763883Y-67096815D01*
X29817265Y-67032123D01*
X29852500Y-66933119D01*
X29867498Y-66812632D01*
X29860172Y-66683494D01*
X29843799Y-66605775D01*
X29796790Y-66515771D01*
X29722582Y-66459509D01*
X29633209Y-66440057D01*
X29540707Y-66460481D01*
X29469653Y-66510437D01*
X29432312Y-66551655D01*
X29410518Y-66592281D01*
X29400130Y-66647264D01*
X29397006Y-66731549D01*
X29396862Y-66773145D01*
X29129933Y-66773145D01*
X29130930Y-66661874D01*
X29165180Y-66489423D01*
X29231802Y-66354814D01*
X29330799Y-66258040D01*
X29462175Y-66199094D01*
X29490385Y-66192259D01*
X29659926Y-66176213D01*
X29809547Y-66203364D01*
G36*
X29809547Y-66203364D02*
G01*
X29935502Y-66271959D01*
X30034047Y-66380245D01*
X30080478Y-66468315D01*
X30100412Y-66546101D01*
X30113328Y-66656993D01*
X30118863Y-66784738D01*
X30116654Y-66913084D01*
X30106337Y-67025779D01*
X30094286Y-67085969D01*
X30053634Y-67168311D01*
X29983230Y-67255770D01*
X29898382Y-67332251D01*
X29814397Y-67381655D01*
X29812349Y-67382439D01*
X29708134Y-67404027D01*
X29584627Y-67404562D01*
X29467261Y-67384908D01*
X29421942Y-67369155D01*
X29305220Y-67302966D01*
X29221624Y-67216246D01*
X29166701Y-67101438D01*
X29135995Y-66950982D01*
X29129047Y-66872173D01*
X29129933Y-66773145D01*
X29396862Y-66773145D01*
X29405854Y-66917645D01*
X29431736Y-67027760D01*
X29472868Y-67098116D01*
X29502172Y-67118235D01*
X29577251Y-67132265D01*
X29666494Y-67128111D01*
X29743650Y-67107922D01*
X29763883Y-67096815D01*
X29817265Y-67032123D01*
X29852500Y-66933119D01*
X29867498Y-66812632D01*
X29860172Y-66683494D01*
X29843799Y-66605775D01*
X29796790Y-66515771D01*
X29722582Y-66459509D01*
X29633209Y-66440057D01*
X29540707Y-66460481D01*
X29469653Y-66510437D01*
X29432312Y-66551655D01*
X29410518Y-66592281D01*
X29400130Y-66647264D01*
X29397006Y-66731549D01*
X29396862Y-66773145D01*
X29129933Y-66773145D01*
X29130930Y-66661874D01*
X29165180Y-66489423D01*
X29231802Y-66354814D01*
X29330799Y-66258040D01*
X29462175Y-66199094D01*
X29490385Y-66192259D01*
X29659926Y-66176213D01*
X29809547Y-66203364D01*
G37*
X29157528Y-68061332D02*
X29256014Y-68068726D01*
X29384776Y-68454706D01*
X29513537Y-68840686D01*
X29553911Y-68703726D01*
X29578207Y-68619083D01*
X29610167Y-68504697D01*
X29644679Y-68378963D01*
X29662928Y-68311520D01*
X29731571Y-68056275D01*
X30014773Y-68056275D01*
X29930122Y-68323971D01*
X29888435Y-68455638D01*
X29838074Y-68614458D01*
X29785481Y-68780128D01*
X29738530Y-68927843D01*
X29631589Y-69264020D01*
X29400661Y-69279044D01*
X29338050Y-69072316D01*
X29299438Y-68943896D01*
X29257300Y-68802322D01*
X29220472Y-68677285D01*
X29219018Y-68672309D01*
X29191511Y-68587586D01*
X29167242Y-68529778D01*
X29150243Y-68507918D01*
X29146750Y-68510446D01*
X29134490Y-68544336D01*
X29111195Y-68616930D01*
X29079700Y-68719101D01*
X29042842Y-68841720D01*
X29022899Y-68909167D01*
X28914895Y-69276471D01*
X28685679Y-69276471D01*
X28502439Y-68697500D01*
X28450963Y-68535091D01*
X28404070Y-68387602D01*
X28363977Y-68261960D01*
X28332897Y-68165095D01*
X28313045Y-68103934D01*
X28307011Y-68086065D01*
X28311788Y-68067768D01*
X28349297Y-68059755D01*
X28427355Y-68060557D01*
X28439574Y-68061163D01*
X28584326Y-68068726D01*
X28679130Y-68417353D01*
X28713977Y-68544497D01*
X28745117Y-68656265D01*
X28769809Y-68742953D01*
X28785312Y-68794856D01*
X28788176Y-68803318D01*
X28800046Y-68793587D01*
X28823983Y-68743172D01*
X28857239Y-68658935D01*
X28897064Y-68547741D01*
X28930730Y-68447297D01*
X29059041Y-68053939D01*
X29157528Y-68061332D01*
G36*
X29157528Y-68061332D02*
G01*
X29256014Y-68068726D01*
X29384776Y-68454706D01*
X29513537Y-68840686D01*
X29553911Y-68703726D01*
X29578207Y-68619083D01*
X29610167Y-68504697D01*
X29644679Y-68378963D01*
X29662928Y-68311520D01*
X29731571Y-68056275D01*
X30014773Y-68056275D01*
X29930122Y-68323971D01*
X29888435Y-68455638D01*
X29838074Y-68614458D01*
X29785481Y-68780128D01*
X29738530Y-68927843D01*
X29631589Y-69264020D01*
X29400661Y-69279044D01*
X29338050Y-69072316D01*
X29299438Y-68943896D01*
X29257300Y-68802322D01*
X29220472Y-68677285D01*
X29219018Y-68672309D01*
X29191511Y-68587586D01*
X29167242Y-68529778D01*
X29150243Y-68507918D01*
X29146750Y-68510446D01*
X29134490Y-68544336D01*
X29111195Y-68616930D01*
X29079700Y-68719101D01*
X29042842Y-68841720D01*
X29022899Y-68909167D01*
X28914895Y-69276471D01*
X28685679Y-69276471D01*
X28502439Y-68697500D01*
X28450963Y-68535091D01*
X28404070Y-68387602D01*
X28363977Y-68261960D01*
X28332897Y-68165095D01*
X28313045Y-68103934D01*
X28307011Y-68086065D01*
X28311788Y-68067768D01*
X28349297Y-68059755D01*
X28427355Y-68060557D01*
X28439574Y-68061163D01*
X28584326Y-68068726D01*
X28679130Y-68417353D01*
X28713977Y-68544497D01*
X28745117Y-68656265D01*
X28769809Y-68742953D01*
X28785312Y-68794856D01*
X28788176Y-68803318D01*
X28800046Y-68793587D01*
X28823983Y-68743172D01*
X28857239Y-68658935D01*
X28897064Y-68547741D01*
X28930730Y-68447297D01*
X29059041Y-68053939D01*
X29157528Y-68061332D01*
G37*
X23573247Y-66201568D02*
X23703522Y-66259163D01*
X23802419Y-66355334D01*
X23870082Y-66490229D01*
X23906655Y-66663996D01*
X23909276Y-66691126D01*
X23911330Y-66882408D01*
X23884699Y-67050073D01*
X23831001Y-67185967D01*
X23802247Y-67229681D01*
X23702091Y-67322198D01*
X23574537Y-67382119D01*
X23431837Y-67406985D01*
X23286240Y-67394339D01*
X23175562Y-67355391D01*
X23080384Y-67289755D01*
X23002594Y-67203699D01*
X23001249Y-67201685D01*
X22969657Y-67148570D01*
X22949127Y-67095160D01*
X22936695Y-67027754D01*
X22929397Y-66932653D01*
X22926182Y-66854666D01*
X22924844Y-66783944D01*
X23173814Y-66783944D01*
X23176247Y-66854348D01*
X23185080Y-66948068D01*
X23200664Y-67008214D01*
X23228766Y-67051006D01*
X23255086Y-67076002D01*
X23348392Y-67128338D01*
X23446020Y-67135333D01*
X23536942Y-67097676D01*
X23582402Y-67055479D01*
X23615162Y-67012956D01*
X23634323Y-66972267D01*
X23642733Y-66919314D01*
X23643237Y-66839997D01*
X23640645Y-66766950D01*
X23635071Y-66662601D01*
X23626234Y-66594920D01*
X23610307Y-66550774D01*
X23583462Y-66517031D01*
X23562189Y-66497746D01*
X23473206Y-66447086D01*
X23377211Y-66444560D01*
X23296719Y-66474567D01*
X23228053Y-66537231D01*
X23187144Y-66640168D01*
X23173814Y-66783944D01*
X22924844Y-66783944D01*
X22923246Y-66699582D01*
X22928260Y-66583600D01*
X22943283Y-66496367D01*
X22970376Y-66427530D01*
X23011600Y-66366737D01*
X23026885Y-66348686D01*
X23122454Y-66258746D01*
X23224961Y-66206211D01*
X23350321Y-66184201D01*
X23411450Y-66182402D01*
X23573247Y-66201568D01*
G36*
X23573247Y-66201568D02*
G01*
X23703522Y-66259163D01*
X23802419Y-66355334D01*
X23870082Y-66490229D01*
X23906655Y-66663996D01*
X23909276Y-66691126D01*
X23911330Y-66882408D01*
X23884699Y-67050073D01*
X23831001Y-67185967D01*
X23802247Y-67229681D01*
X23702091Y-67322198D01*
X23574537Y-67382119D01*
X23431837Y-67406985D01*
X23286240Y-67394339D01*
X23175562Y-67355391D01*
X23080384Y-67289755D01*
X23002594Y-67203699D01*
X23001249Y-67201685D01*
X22969657Y-67148570D01*
X22949127Y-67095160D01*
X22936695Y-67027754D01*
X22929397Y-66932653D01*
X22926182Y-66854666D01*
X22924844Y-66783944D01*
X23173814Y-66783944D01*
X23176247Y-66854348D01*
X23185080Y-66948068D01*
X23200664Y-67008214D01*
X23228766Y-67051006D01*
X23255086Y-67076002D01*
X23348392Y-67128338D01*
X23446020Y-67135333D01*
X23536942Y-67097676D01*
X23582402Y-67055479D01*
X23615162Y-67012956D01*
X23634323Y-66972267D01*
X23642733Y-66919314D01*
X23643237Y-66839997D01*
X23640645Y-66766950D01*
X23635071Y-66662601D01*
X23626234Y-66594920D01*
X23610307Y-66550774D01*
X23583462Y-66517031D01*
X23562189Y-66497746D01*
X23473206Y-66447086D01*
X23377211Y-66444560D01*
X23296719Y-66474567D01*
X23228053Y-66537231D01*
X23187144Y-66640168D01*
X23173814Y-66783944D01*
X22924844Y-66783944D01*
X22923246Y-66699582D01*
X22928260Y-66583600D01*
X22943283Y-66496367D01*
X22970376Y-66427530D01*
X23011600Y-66366737D01*
X23026885Y-66348686D01*
X23122454Y-66258746D01*
X23224961Y-66206211D01*
X23350321Y-66184201D01*
X23411450Y-66182402D01*
X23573247Y-66201568D01*
G37*
X28201568Y-69276471D02*
X28064607Y-69276471D01*
X27985111Y-69274140D01*
X27943708Y-69264488D01*
X27928801Y-69243525D01*
X27927647Y-69229351D01*
X27925133Y-69200927D01*
X27909280Y-69195475D01*
X27867621Y-69212998D01*
X27835224Y-69229351D01*
X27710849Y-69268103D01*
X27575646Y-69270346D01*
X27465726Y-69241444D01*
X27363366Y-69171619D01*
X27285340Y-69068555D01*
X27242614Y-68946989D01*
X27241526Y-68940192D01*
X27235178Y-68866032D01*
X27232021Y-68759570D01*
X27232275Y-68679052D01*
X27504289Y-68679052D01*
X27510590Y-68786070D01*
X27524925Y-68874278D01*
X27544331Y-68924090D01*
X27617746Y-68992162D01*
X27704914Y-69016564D01*
X27794804Y-68996831D01*
X27871617Y-68937968D01*
X27900708Y-68898379D01*
X27917717Y-68851138D01*
X27925684Y-68782181D01*
X27927647Y-68678607D01*
X27924134Y-68576039D01*
X27914857Y-68485921D01*
X27901706Y-68425613D01*
X27899514Y-68420208D01*
X27846478Y-68355940D01*
X27769067Y-68320656D01*
X27682454Y-68314959D01*
X27601807Y-68339453D01*
X27542297Y-68394742D01*
X27536124Y-68405743D01*
X27516801Y-68472827D01*
X27506274Y-68569284D01*
X27504289Y-68679052D01*
X27232275Y-68679052D01*
X27232404Y-68638225D01*
X27234194Y-68572918D01*
X27246373Y-68411355D01*
X27271685Y-68290053D01*
X27313793Y-68200379D01*
X27376359Y-68133699D01*
X27437100Y-68094557D01*
X27521964Y-68067040D01*
X27627515Y-68057603D01*
X27735598Y-68065290D01*
X27828058Y-68089146D01*
X27876910Y-68117685D01*
X27927647Y-68163601D01*
X27927647Y-67583137D01*
X28201568Y-67583137D01*
X28201568Y-69276471D01*
G36*
X28201568Y-69276471D02*
G01*
X28064607Y-69276471D01*
X27985111Y-69274140D01*
X27943708Y-69264488D01*
X27928801Y-69243525D01*
X27927647Y-69229351D01*
X27925133Y-69200927D01*
X27909280Y-69195475D01*
X27867621Y-69212998D01*
X27835224Y-69229351D01*
X27710849Y-69268103D01*
X27575646Y-69270346D01*
X27465726Y-69241444D01*
X27363366Y-69171619D01*
X27285340Y-69068555D01*
X27242614Y-68946989D01*
X27241526Y-68940192D01*
X27235178Y-68866032D01*
X27232021Y-68759570D01*
X27232275Y-68679052D01*
X27504289Y-68679052D01*
X27510590Y-68786070D01*
X27524925Y-68874278D01*
X27544331Y-68924090D01*
X27617746Y-68992162D01*
X27704914Y-69016564D01*
X27794804Y-68996831D01*
X27871617Y-68937968D01*
X27900708Y-68898379D01*
X27917717Y-68851138D01*
X27925684Y-68782181D01*
X27927647Y-68678607D01*
X27924134Y-68576039D01*
X27914857Y-68485921D01*
X27901706Y-68425613D01*
X27899514Y-68420208D01*
X27846478Y-68355940D01*
X27769067Y-68320656D01*
X27682454Y-68314959D01*
X27601807Y-68339453D01*
X27542297Y-68394742D01*
X27536124Y-68405743D01*
X27516801Y-68472827D01*
X27506274Y-68569284D01*
X27504289Y-68679052D01*
X27232275Y-68679052D01*
X27232404Y-68638225D01*
X27234194Y-68572918D01*
X27246373Y-68411355D01*
X27271685Y-68290053D01*
X27313793Y-68200379D01*
X27376359Y-68133699D01*
X27437100Y-68094557D01*
X27521964Y-68067040D01*
X27627515Y-68057603D01*
X27735598Y-68065290D01*
X27828058Y-68089146D01*
X27876910Y-68117685D01*
X27927647Y-68163601D01*
X27927647Y-67583137D01*
X28201568Y-67583137D01*
X28201568Y-69276471D01*
G37*
X33903287Y-66184355D02*
X33967051Y-66199845D01*
X34089300Y-66256569D01*
X34193834Y-66343202D01*
X34266180Y-66447074D01*
X34276119Y-66470396D01*
X34289754Y-66531484D01*
X34299298Y-66621853D01*
X34302549Y-66713190D01*
X34302549Y-66885882D01*
X33941470Y-66885882D01*
X33792546Y-66886445D01*
X33687632Y-66889864D01*
X33620937Y-66898731D01*
X33586666Y-66915641D01*
X33579028Y-66943189D01*
X33592229Y-66983968D01*
X33615877Y-67031683D01*
X33681843Y-67111314D01*
X33773512Y-67150987D01*
X33885555Y-67149695D01*
X34012472Y-67106514D01*
X34122158Y-67053224D01*
X34213173Y-67125191D01*
X34304188Y-67197157D01*
X34218563Y-67276269D01*
X34104250Y-67351017D01*
X33963666Y-67396084D01*
X33812449Y-67408696D01*
X33666236Y-67386079D01*
X33642647Y-67378405D01*
X33514141Y-67311296D01*
X33418551Y-67211247D01*
X33353861Y-67075271D01*
X33318057Y-66900380D01*
X33317640Y-66896632D01*
X33314434Y-66706032D01*
X33327393Y-66638035D01*
X33580392Y-66638035D01*
X33603627Y-66648491D01*
X33666710Y-66656500D01*
X33759706Y-66661073D01*
X33818638Y-66661765D01*
X33928537Y-66661332D01*
X33997252Y-66658578D01*
X34033405Y-66651321D01*
X34045615Y-66637376D01*
X34042504Y-66614562D01*
X34039894Y-66605735D01*
X33995344Y-66522800D01*
X33925279Y-66455960D01*
X33863446Y-66426589D01*
X33781301Y-66428362D01*
X33698062Y-66464990D01*
X33628238Y-66525634D01*
X33586337Y-66599456D01*
X33580392Y-66638035D01*
X33327393Y-66638035D01*
X33346385Y-66538395D01*
X33409773Y-66397711D01*
X33500878Y-66287974D01*
X33615978Y-66213174D01*
X33751355Y-66177304D01*
X33903287Y-66184355D01*
G36*
X33903287Y-66184355D02*
G01*
X33967051Y-66199845D01*
X34089300Y-66256569D01*
X34193834Y-66343202D01*
X34266180Y-66447074D01*
X34276119Y-66470396D01*
X34289754Y-66531484D01*
X34299298Y-66621853D01*
X34302549Y-66713190D01*
X34302549Y-66885882D01*
X33941470Y-66885882D01*
X33792546Y-66886445D01*
X33687632Y-66889864D01*
X33620937Y-66898731D01*
X33586666Y-66915641D01*
X33579028Y-66943189D01*
X33592229Y-66983968D01*
X33615877Y-67031683D01*
X33681843Y-67111314D01*
X33773512Y-67150987D01*
X33885555Y-67149695D01*
X34012472Y-67106514D01*
X34122158Y-67053224D01*
X34213173Y-67125191D01*
X34304188Y-67197157D01*
X34218563Y-67276269D01*
X34104250Y-67351017D01*
X33963666Y-67396084D01*
X33812449Y-67408696D01*
X33666236Y-67386079D01*
X33642647Y-67378405D01*
X33514141Y-67311296D01*
X33418551Y-67211247D01*
X33353861Y-67075271D01*
X33318057Y-66900380D01*
X33317640Y-66896632D01*
X33314434Y-66706032D01*
X33327393Y-66638035D01*
X33580392Y-66638035D01*
X33603627Y-66648491D01*
X33666710Y-66656500D01*
X33759706Y-66661073D01*
X33818638Y-66661765D01*
X33928537Y-66661332D01*
X33997252Y-66658578D01*
X34033405Y-66651321D01*
X34045615Y-66637376D01*
X34042504Y-66614562D01*
X34039894Y-66605735D01*
X33995344Y-66522800D01*
X33925279Y-66455960D01*
X33863446Y-66426589D01*
X33781301Y-66428362D01*
X33698062Y-66464990D01*
X33628238Y-66525634D01*
X33586337Y-66599456D01*
X33580392Y-66638035D01*
X33327393Y-66638035D01*
X33346385Y-66538395D01*
X33409773Y-66397711D01*
X33500878Y-66287974D01*
X33615978Y-66213174D01*
X33751355Y-66177304D01*
X33903287Y-66184355D01*
G37*
X28627759Y-66184345D02*
X28722059Y-66202229D01*
X28819890Y-66239633D01*
X28830343Y-66244402D01*
X28904531Y-66283412D01*
X28955910Y-66319664D01*
X28972517Y-66342887D01*
X28956702Y-66380761D01*
X28918288Y-66436644D01*
X28901237Y-66457505D01*
X28830969Y-66539618D01*
X28740379Y-66486168D01*
X28654164Y-66450561D01*
X28554549Y-66431529D01*
X28459019Y-66430326D01*
X28385061Y-66448210D01*
X28367312Y-66459373D01*
X28333512Y-66510553D01*
X28329404Y-66569509D01*
X28354696Y-66615567D01*
X28369656Y-66624499D01*
X28414486Y-66635592D01*
X28493286Y-66648630D01*
X28590426Y-66661088D01*
X28608346Y-66663042D01*
X28764365Y-66690030D01*
X28877523Y-66735873D01*
X28952569Y-66804803D01*
X28994253Y-66901054D01*
X29007238Y-67018617D01*
X28989299Y-67152254D01*
X28931050Y-67257195D01*
X28832255Y-67333630D01*
X28692682Y-67381748D01*
X28537745Y-67400732D01*
X28411398Y-67400504D01*
X28308913Y-67383262D01*
X28238921Y-67359457D01*
X28150483Y-67317978D01*
X28068754Y-67269842D01*
X28039705Y-67248655D01*
X27965000Y-67187676D01*
X28055098Y-67096508D01*
X28145196Y-67005339D01*
X28247632Y-67073128D01*
X28350374Y-67124042D01*
X28460087Y-67150673D01*
X28565551Y-67153483D01*
X28655546Y-67132935D01*
X28718854Y-67089493D01*
X28739296Y-67052838D01*
X28736229Y-66994053D01*
X28685434Y-66949099D01*
X28587048Y-66918057D01*
X28479256Y-66903710D01*
X28313365Y-66876337D01*
X28190124Y-66824693D01*
X28107886Y-66747266D01*
X28065001Y-66642544D01*
X28059060Y-66518387D01*
X28088406Y-66388702D01*
X28155309Y-66290677D01*
X28260371Y-66223866D01*
X28404190Y-66187820D01*
X28510738Y-66180754D01*
X28627759Y-66184345D01*
G36*
X28627759Y-66184345D02*
G01*
X28722059Y-66202229D01*
X28819890Y-66239633D01*
X28830343Y-66244402D01*
X28904531Y-66283412D01*
X28955910Y-66319664D01*
X28972517Y-66342887D01*
X28956702Y-66380761D01*
X28918288Y-66436644D01*
X28901237Y-66457505D01*
X28830969Y-66539618D01*
X28740379Y-66486168D01*
X28654164Y-66450561D01*
X28554549Y-66431529D01*
X28459019Y-66430326D01*
X28385061Y-66448210D01*
X28367312Y-66459373D01*
X28333512Y-66510553D01*
X28329404Y-66569509D01*
X28354696Y-66615567D01*
X28369656Y-66624499D01*
X28414486Y-66635592D01*
X28493286Y-66648630D01*
X28590426Y-66661088D01*
X28608346Y-66663042D01*
X28764365Y-66690030D01*
X28877523Y-66735873D01*
X28952569Y-66804803D01*
X28994253Y-66901054D01*
X29007238Y-67018617D01*
X28989299Y-67152254D01*
X28931050Y-67257195D01*
X28832255Y-67333630D01*
X28692682Y-67381748D01*
X28537745Y-67400732D01*
X28411398Y-67400504D01*
X28308913Y-67383262D01*
X28238921Y-67359457D01*
X28150483Y-67317978D01*
X28068754Y-67269842D01*
X28039705Y-67248655D01*
X27965000Y-67187676D01*
X28055098Y-67096508D01*
X28145196Y-67005339D01*
X28247632Y-67073128D01*
X28350374Y-67124042D01*
X28460087Y-67150673D01*
X28565551Y-67153483D01*
X28655546Y-67132935D01*
X28718854Y-67089493D01*
X28739296Y-67052838D01*
X28736229Y-66994053D01*
X28685434Y-66949099D01*
X28587048Y-66918057D01*
X28479256Y-66903710D01*
X28313365Y-66876337D01*
X28190124Y-66824693D01*
X28107886Y-66747266D01*
X28065001Y-66642544D01*
X28059060Y-66518387D01*
X28088406Y-66388702D01*
X28155309Y-66290677D01*
X28260371Y-66223866D01*
X28404190Y-66187820D01*
X28510738Y-66180754D01*
X28627759Y-66184345D01*
G37*
X32625307Y-68062784D02*
X32744337Y-68093731D01*
X32844021Y-68157600D01*
X32892288Y-68205313D01*
X32971408Y-68318106D01*
X33016752Y-68448950D01*
X33032330Y-68609792D01*
X33032410Y-68622794D01*
X33032549Y-68753530D01*
X32280091Y-68753530D01*
X32296130Y-68822010D01*
X32325091Y-68884031D01*
X32375778Y-68948654D01*
X32386379Y-68958971D01*
X32477494Y-69014805D01*
X32581400Y-69024275D01*
X32701000Y-68987540D01*
X32721274Y-68977647D01*
X32783456Y-68947574D01*
X32825106Y-68930440D01*
X32832373Y-68928855D01*
X32857740Y-68944242D01*
X32906120Y-68981887D01*
X32930679Y-69002459D01*
X32981570Y-69049714D01*
X32998281Y-69080917D01*
X32986683Y-69109620D01*
X32980483Y-69117468D01*
X32938493Y-69151819D01*
X32869206Y-69193565D01*
X32820882Y-69217935D01*
X32683711Y-69260873D01*
X32531847Y-69274786D01*
X32388024Y-69258300D01*
X32347745Y-69246496D01*
X32223078Y-69179689D01*
X32130671Y-69076892D01*
X32069990Y-68937105D01*
X32040498Y-68759330D01*
X32037260Y-68666373D01*
X32046714Y-68531033D01*
X32285490Y-68531033D01*
X32308584Y-68541038D01*
X32370662Y-68548888D01*
X32460914Y-68553521D01*
X32522058Y-68554314D01*
X32632040Y-68553549D01*
X32701457Y-68549970D01*
X32739538Y-68541649D01*
X32755515Y-68526657D01*
X32758627Y-68504903D01*
X32737278Y-68437892D01*
X32683529Y-68371664D01*
X32612822Y-68320832D01*
X32542089Y-68300038D01*
X32446016Y-68318484D01*
X32362849Y-68371811D01*
X32305186Y-68448677D01*
X32285490Y-68531033D01*
X32046714Y-68531033D01*
X32051028Y-68469291D01*
X32093520Y-68312271D01*
X32165635Y-68194069D01*
X32268273Y-68113440D01*
X32402332Y-68069139D01*
X32474957Y-68060607D01*
X32625307Y-68062784D01*
G36*
X32625307Y-68062784D02*
G01*
X32744337Y-68093731D01*
X32844021Y-68157600D01*
X32892288Y-68205313D01*
X32971408Y-68318106D01*
X33016752Y-68448950D01*
X33032330Y-68609792D01*
X33032410Y-68622794D01*
X33032549Y-68753530D01*
X32280091Y-68753530D01*
X32296130Y-68822010D01*
X32325091Y-68884031D01*
X32375778Y-68948654D01*
X32386379Y-68958971D01*
X32477494Y-69014805D01*
X32581400Y-69024275D01*
X32701000Y-68987540D01*
X32721274Y-68977647D01*
X32783456Y-68947574D01*
X32825106Y-68930440D01*
X32832373Y-68928855D01*
X32857740Y-68944242D01*
X32906120Y-68981887D01*
X32930679Y-69002459D01*
X32981570Y-69049714D01*
X32998281Y-69080917D01*
X32986683Y-69109620D01*
X32980483Y-69117468D01*
X32938493Y-69151819D01*
X32869206Y-69193565D01*
X32820882Y-69217935D01*
X32683711Y-69260873D01*
X32531847Y-69274786D01*
X32388024Y-69258300D01*
X32347745Y-69246496D01*
X32223078Y-69179689D01*
X32130671Y-69076892D01*
X32069990Y-68937105D01*
X32040498Y-68759330D01*
X32037260Y-68666373D01*
X32046714Y-68531033D01*
X32285490Y-68531033D01*
X32308584Y-68541038D01*
X32370662Y-68548888D01*
X32460914Y-68553521D01*
X32522058Y-68554314D01*
X32632040Y-68553549D01*
X32701457Y-68549970D01*
X32739538Y-68541649D01*
X32755515Y-68526657D01*
X32758627Y-68504903D01*
X32737278Y-68437892D01*
X32683529Y-68371664D01*
X32612822Y-68320832D01*
X32542089Y-68300038D01*
X32446016Y-68318484D01*
X32362849Y-68371811D01*
X32305186Y-68448677D01*
X32285490Y-68531033D01*
X32046714Y-68531033D01*
X32051028Y-68469291D01*
X32093520Y-68312271D01*
X32165635Y-68194069D01*
X32268273Y-68113440D01*
X32402332Y-68069139D01*
X32474957Y-68060607D01*
X32625307Y-68062784D01*
G37*
X25913204Y-66216354D02*
X25938019Y-66228037D01*
X26023906Y-66290951D01*
X26105121Y-66382769D01*
X26165764Y-66483868D01*
X26183012Y-66530349D01*
X26198749Y-66613376D01*
X26208133Y-66713713D01*
X26209272Y-66755147D01*
X26209411Y-66885882D01*
X25456953Y-66885882D01*
X25472993Y-66954363D01*
X25512363Y-67035355D01*
X25581194Y-67105351D01*
X25663081Y-67150441D01*
X25715263Y-67159804D01*
X25786029Y-67148441D01*
X25870460Y-67119943D01*
X25899142Y-67106831D01*
X26005209Y-67053858D01*
X26095728Y-67122901D01*
X26147961Y-67169597D01*
X26175753Y-67208140D01*
X26177160Y-67219452D01*
X26152332Y-67246868D01*
X26097917Y-67288532D01*
X26048528Y-67321037D01*
X25915252Y-67379468D01*
X25765839Y-67405915D01*
X25617751Y-67399039D01*
X25499705Y-67363096D01*
X25378018Y-67286101D01*
X25291540Y-67184728D01*
X25237441Y-67053570D01*
X25212891Y-66887224D01*
X25210714Y-66811108D01*
X25219427Y-66636685D01*
X25220497Y-66631611D01*
X25469827Y-66631611D01*
X25476694Y-66647968D01*
X25504917Y-66656988D01*
X25563127Y-66660854D01*
X25659958Y-66661749D01*
X25697243Y-66661765D01*
X25810683Y-66660413D01*
X25882622Y-66655505D01*
X25921313Y-66645760D01*
X25935005Y-66629899D01*
X25935490Y-66624805D01*
X25919863Y-66584326D01*
X25880753Y-66527621D01*
X25863939Y-66507766D01*
X25801519Y-66451611D01*
X25736453Y-66429532D01*
X25701397Y-66427686D01*
X25606558Y-66450766D01*
X25527027Y-66512759D01*
X25476577Y-66602802D01*
X25475683Y-66605735D01*
X25469827Y-66631611D01*
X25220497Y-66631611D01*
X25248399Y-66499343D01*
X25300590Y-66389461D01*
X25364421Y-66311461D01*
X25482433Y-66226882D01*
X25621158Y-66181686D01*
X25768710Y-66177600D01*
X25913204Y-66216354D01*
G36*
X25913204Y-66216354D02*
G01*
X25938019Y-66228037D01*
X26023906Y-66290951D01*
X26105121Y-66382769D01*
X26165764Y-66483868D01*
X26183012Y-66530349D01*
X26198749Y-66613376D01*
X26208133Y-66713713D01*
X26209272Y-66755147D01*
X26209411Y-66885882D01*
X25456953Y-66885882D01*
X25472993Y-66954363D01*
X25512363Y-67035355D01*
X25581194Y-67105351D01*
X25663081Y-67150441D01*
X25715263Y-67159804D01*
X25786029Y-67148441D01*
X25870460Y-67119943D01*
X25899142Y-67106831D01*
X26005209Y-67053858D01*
X26095728Y-67122901D01*
X26147961Y-67169597D01*
X26175753Y-67208140D01*
X26177160Y-67219452D01*
X26152332Y-67246868D01*
X26097917Y-67288532D01*
X26048528Y-67321037D01*
X25915252Y-67379468D01*
X25765839Y-67405915D01*
X25617751Y-67399039D01*
X25499705Y-67363096D01*
X25378018Y-67286101D01*
X25291540Y-67184728D01*
X25237441Y-67053570D01*
X25212891Y-66887224D01*
X25210714Y-66811108D01*
X25219427Y-66636685D01*
X25220497Y-66631611D01*
X25469827Y-66631611D01*
X25476694Y-66647968D01*
X25504917Y-66656988D01*
X25563127Y-66660854D01*
X25659958Y-66661749D01*
X25697243Y-66661765D01*
X25810683Y-66660413D01*
X25882622Y-66655505D01*
X25921313Y-66645760D01*
X25935005Y-66629899D01*
X25935490Y-66624805D01*
X25919863Y-66584326D01*
X25880753Y-66527621D01*
X25863939Y-66507766D01*
X25801519Y-66451611D01*
X25736453Y-66429532D01*
X25701397Y-66427686D01*
X25606558Y-66450766D01*
X25527027Y-66512759D01*
X25476577Y-66602802D01*
X25475683Y-66605735D01*
X25469827Y-66631611D01*
X25220497Y-66631611D01*
X25248399Y-66499343D01*
X25300590Y-66389461D01*
X25364421Y-66311461D01*
X25482433Y-66226882D01*
X25621158Y-66181686D01*
X25768710Y-66177600D01*
X25913204Y-66216354D01*
G37*
X30656459Y-68063669D02*
X30761420Y-68089163D01*
X30791761Y-68102669D01*
X30850573Y-68138046D01*
X30895709Y-68177890D01*
X30929106Y-68229120D01*
X30952701Y-68298654D01*
X30968433Y-68393409D01*
X30978239Y-68520305D01*
X30984057Y-68686258D01*
X30986266Y-68797108D01*
X30994396Y-69276471D01*
X30855531Y-69276471D01*
X30771287Y-69272938D01*
X30727884Y-69260866D01*
X30716666Y-69240594D01*
X30710744Y-69218674D01*
X30684266Y-69222865D01*
X30648186Y-69240441D01*
X30557862Y-69267382D01*
X30441777Y-69274642D01*
X30319680Y-69262767D01*
X30211321Y-69232305D01*
X30201602Y-69228077D01*
X30102568Y-69158505D01*
X30037281Y-69061789D01*
X30007240Y-68948738D01*
X30009535Y-68908122D01*
X30254633Y-68908122D01*
X30276229Y-68962782D01*
X30340259Y-69001952D01*
X30443565Y-69022974D01*
X30498774Y-69025766D01*
X30590782Y-69018620D01*
X30651941Y-68990848D01*
X30666862Y-68977647D01*
X30707287Y-68905829D01*
X30716666Y-68840686D01*
X30716666Y-68753530D01*
X30595269Y-68753530D01*
X30454153Y-68760722D01*
X30355173Y-68783345D01*
X30292633Y-68822964D01*
X30278631Y-68840628D01*
X30254633Y-68908122D01*
X30009535Y-68908122D01*
X30013941Y-68830157D01*
X30058880Y-68716855D01*
X30120196Y-68640285D01*
X30157332Y-68607181D01*
X30193687Y-68585425D01*
X30240990Y-68572161D01*
X30310973Y-68564528D01*
X30415364Y-68559670D01*
X30456770Y-68558273D01*
X30716666Y-68549780D01*
X30716285Y-68471116D01*
X30706219Y-68388428D01*
X30669829Y-68338431D01*
X30596311Y-68306489D01*
X30594339Y-68305920D01*
X30490105Y-68293361D01*
X30388108Y-68309766D01*
X30312305Y-68349657D01*
X30281890Y-68369354D01*
X30249132Y-68366629D01*
X30198721Y-68338091D01*
X30169119Y-68317950D01*
X30111218Y-68274919D01*
X30075352Y-68242662D01*
X30069597Y-68233427D01*
X30093295Y-68185636D01*
X30163313Y-68128562D01*
X30193725Y-68109305D01*
X30281155Y-68076140D01*
X30398983Y-68057350D01*
X30529866Y-68053129D01*
X30656459Y-68063669D01*
G36*
X30656459Y-68063669D02*
G01*
X30761420Y-68089163D01*
X30791761Y-68102669D01*
X30850573Y-68138046D01*
X30895709Y-68177890D01*
X30929106Y-68229120D01*
X30952701Y-68298654D01*
X30968433Y-68393409D01*
X30978239Y-68520305D01*
X30984057Y-68686258D01*
X30986266Y-68797108D01*
X30994396Y-69276471D01*
X30855531Y-69276471D01*
X30771287Y-69272938D01*
X30727884Y-69260866D01*
X30716666Y-69240594D01*
X30710744Y-69218674D01*
X30684266Y-69222865D01*
X30648186Y-69240441D01*
X30557862Y-69267382D01*
X30441777Y-69274642D01*
X30319680Y-69262767D01*
X30211321Y-69232305D01*
X30201602Y-69228077D01*
X30102568Y-69158505D01*
X30037281Y-69061789D01*
X30007240Y-68948738D01*
X30009535Y-68908122D01*
X30254633Y-68908122D01*
X30276229Y-68962782D01*
X30340259Y-69001952D01*
X30443565Y-69022974D01*
X30498774Y-69025766D01*
X30590782Y-69018620D01*
X30651941Y-68990848D01*
X30666862Y-68977647D01*
X30707287Y-68905829D01*
X30716666Y-68840686D01*
X30716666Y-68753530D01*
X30595269Y-68753530D01*
X30454153Y-68760722D01*
X30355173Y-68783345D01*
X30292633Y-68822964D01*
X30278631Y-68840628D01*
X30254633Y-68908122D01*
X30009535Y-68908122D01*
X30013941Y-68830157D01*
X30058880Y-68716855D01*
X30120196Y-68640285D01*
X30157332Y-68607181D01*
X30193687Y-68585425D01*
X30240990Y-68572161D01*
X30310973Y-68564528D01*
X30415364Y-68559670D01*
X30456770Y-68558273D01*
X30716666Y-68549780D01*
X30716285Y-68471116D01*
X30706219Y-68388428D01*
X30669829Y-68338431D01*
X30596311Y-68306489D01*
X30594339Y-68305920D01*
X30490105Y-68293361D01*
X30388108Y-68309766D01*
X30312305Y-68349657D01*
X30281890Y-68369354D01*
X30249132Y-68366629D01*
X30198721Y-68338091D01*
X30169119Y-68317950D01*
X30111218Y-68274919D01*
X30075352Y-68242662D01*
X30069597Y-68233427D01*
X30093295Y-68185636D01*
X30163313Y-68128562D01*
X30193725Y-68109305D01*
X30281155Y-68076140D01*
X30398983Y-68057350D01*
X30529866Y-68053129D01*
X30656459Y-68063669D01*
G37*
X25858720Y-68065922D02*
X25975870Y-68097180D01*
X26065051Y-68153837D01*
X26127984Y-68228045D01*
X26147548Y-68259716D01*
X26161992Y-68292891D01*
X26172089Y-68335329D01*
X26178615Y-68394788D01*
X26182342Y-68479029D01*
X26184046Y-68595810D01*
X26184500Y-68752890D01*
X26184509Y-68794565D01*
X26184509Y-69276471D01*
X26064980Y-69276471D01*
X25988739Y-69271131D01*
X25932366Y-69257604D01*
X25918242Y-69249262D01*
X25879630Y-69234864D01*
X25840192Y-69249262D01*
X25775262Y-69267237D01*
X25680945Y-69274472D01*
X25576407Y-69271333D01*
X25480811Y-69258186D01*
X25425000Y-69241318D01*
X25316998Y-69171986D01*
X25249503Y-69075772D01*
X25219159Y-68947844D01*
X25218877Y-68944559D01*
X25221540Y-68887808D01*
X25462353Y-68887808D01*
X25483405Y-68952358D01*
X25517697Y-68988686D01*
X25586532Y-69016162D01*
X25677390Y-69027129D01*
X25770042Y-69021731D01*
X25844256Y-69000110D01*
X25865049Y-68986239D01*
X25901381Y-68922143D01*
X25910588Y-68849278D01*
X25910588Y-68753530D01*
X25772827Y-68753530D01*
X25641953Y-68763605D01*
X25542741Y-68792148D01*
X25481023Y-68836639D01*
X25462353Y-68887808D01*
X25221540Y-68887808D01*
X25225436Y-68804790D01*
X25271534Y-68694282D01*
X25358200Y-68610712D01*
X25370179Y-68603110D01*
X25421655Y-68578357D01*
X25485368Y-68563368D01*
X25574435Y-68556082D01*
X25680245Y-68554407D01*
X25910588Y-68554314D01*
X25910588Y-68457755D01*
X25900817Y-68382836D01*
X25875884Y-68332644D01*
X25872965Y-68329972D01*
X25817481Y-68308015D01*
X25733727Y-68299505D01*
X25641167Y-68303687D01*
X25559270Y-68319809D01*
X25510673Y-68343990D01*
X25484341Y-68363359D01*
X25456535Y-68367057D01*
X25418161Y-68351188D01*
X25360125Y-68311855D01*
X25273331Y-68245164D01*
X25265365Y-68238916D01*
X25269447Y-68215800D01*
X25303501Y-68177352D01*
X25355260Y-68134627D01*
X25412455Y-68098679D01*
X25430425Y-68090191D01*
X25495972Y-68073252D01*
X25592020Y-68061170D01*
X25699329Y-68056323D01*
X25704347Y-68056313D01*
X25858720Y-68065922D01*
G36*
X25858720Y-68065922D02*
G01*
X25975870Y-68097180D01*
X26065051Y-68153837D01*
X26127984Y-68228045D01*
X26147548Y-68259716D01*
X26161992Y-68292891D01*
X26172089Y-68335329D01*
X26178615Y-68394788D01*
X26182342Y-68479029D01*
X26184046Y-68595810D01*
X26184500Y-68752890D01*
X26184509Y-68794565D01*
X26184509Y-69276471D01*
X26064980Y-69276471D01*
X25988739Y-69271131D01*
X25932366Y-69257604D01*
X25918242Y-69249262D01*
X25879630Y-69234864D01*
X25840192Y-69249262D01*
X25775262Y-69267237D01*
X25680945Y-69274472D01*
X25576407Y-69271333D01*
X25480811Y-69258186D01*
X25425000Y-69241318D01*
X25316998Y-69171986D01*
X25249503Y-69075772D01*
X25219159Y-68947844D01*
X25218877Y-68944559D01*
X25221540Y-68887808D01*
X25462353Y-68887808D01*
X25483405Y-68952358D01*
X25517697Y-68988686D01*
X25586532Y-69016162D01*
X25677390Y-69027129D01*
X25770042Y-69021731D01*
X25844256Y-69000110D01*
X25865049Y-68986239D01*
X25901381Y-68922143D01*
X25910588Y-68849278D01*
X25910588Y-68753530D01*
X25772827Y-68753530D01*
X25641953Y-68763605D01*
X25542741Y-68792148D01*
X25481023Y-68836639D01*
X25462353Y-68887808D01*
X25221540Y-68887808D01*
X25225436Y-68804790D01*
X25271534Y-68694282D01*
X25358200Y-68610712D01*
X25370179Y-68603110D01*
X25421655Y-68578357D01*
X25485368Y-68563368D01*
X25574435Y-68556082D01*
X25680245Y-68554407D01*
X25910588Y-68554314D01*
X25910588Y-68457755D01*
X25900817Y-68382836D01*
X25875884Y-68332644D01*
X25872965Y-68329972D01*
X25817481Y-68308015D01*
X25733727Y-68299505D01*
X25641167Y-68303687D01*
X25559270Y-68319809D01*
X25510673Y-68343990D01*
X25484341Y-68363359D01*
X25456535Y-68367057D01*
X25418161Y-68351188D01*
X25360125Y-68311855D01*
X25273331Y-68245164D01*
X25265365Y-68238916D01*
X25269447Y-68215800D01*
X25303501Y-68177352D01*
X25355260Y-68134627D01*
X25412455Y-68098679D01*
X25430425Y-68090191D01*
X25495972Y-68073252D01*
X25592020Y-68061170D01*
X25699329Y-68056323D01*
X25704347Y-68056313D01*
X25858720Y-68065922D01*
G37*
X24819909Y-66209560D02*
X24872412Y-66235499D01*
X24937158Y-66280700D01*
X24984347Y-66329991D01*
X25016665Y-66391885D01*
X25036797Y-66474896D01*
X25047430Y-66587538D01*
X25051247Y-66738324D01*
X25051470Y-66803149D01*
X25050818Y-66945221D01*
X25048112Y-67046757D01*
X25042224Y-67117015D01*
X25032027Y-67165256D01*
X25016394Y-67200738D01*
X25000128Y-67224943D01*
X24896295Y-67327929D01*
X24774021Y-67389874D01*
X24642114Y-67408506D01*
X24509384Y-67381549D01*
X24467333Y-67362486D01*
X24366666Y-67310015D01*
X24366666Y-68132259D01*
X24440135Y-68094267D01*
X24536941Y-68064872D01*
X24655928Y-68057342D01*
X24774745Y-68071245D01*
X24864473Y-68102476D01*
X24938899Y-68161954D01*
X25002490Y-68247066D01*
X25007271Y-68255805D01*
X25027437Y-68296966D01*
X25042165Y-68338454D01*
X25052303Y-68388713D01*
X25058699Y-68456184D01*
X25062201Y-68549309D01*
X25063658Y-68676531D01*
X25063921Y-68819701D01*
X25063921Y-69276471D01*
X24790000Y-69276471D01*
X24790000Y-68434231D01*
X24713383Y-68369763D01*
X24633793Y-68318194D01*
X24558422Y-68308818D01*
X24482633Y-68332947D01*
X24442241Y-68356574D01*
X24412179Y-68390227D01*
X24390797Y-68441087D01*
X24376450Y-68516334D01*
X24367490Y-68623146D01*
X24362270Y-68768704D01*
X24360431Y-68865588D01*
X24354215Y-69264020D01*
X24223480Y-69271547D01*
X24092745Y-69279073D01*
X24092745Y-66806582D01*
X24366666Y-66806582D01*
X24373650Y-66944423D01*
X24397182Y-67040107D01*
X24441135Y-67099641D01*
X24509382Y-67129029D01*
X24578333Y-67134902D01*
X24656386Y-67128154D01*
X24708189Y-67101594D01*
X24740583Y-67066499D01*
X24766084Y-67028752D01*
X24781265Y-66986700D01*
X24788019Y-66927779D01*
X24788241Y-66839428D01*
X24785968Y-66765448D01*
X24780749Y-66654000D01*
X24772979Y-66580833D01*
X24759895Y-66534422D01*
X24738732Y-66503244D01*
X24718760Y-66485223D01*
X24635314Y-66445925D01*
X24536551Y-66439579D01*
X24479841Y-66453116D01*
X24423692Y-66501233D01*
X24386499Y-66594833D01*
X24368472Y-66733254D01*
X24366666Y-66806582D01*
X24092745Y-66806582D01*
X24092745Y-66188628D01*
X24229705Y-66188628D01*
X24311935Y-66191879D01*
X24354360Y-66203426D01*
X24366661Y-66225952D01*
X24366666Y-66226620D01*
X24372374Y-66248681D01*
X24397547Y-66246176D01*
X24447598Y-66221935D01*
X24564219Y-66184851D01*
X24695429Y-66180953D01*
X24819909Y-66209560D01*
G36*
X24819909Y-66209560D02*
G01*
X24872412Y-66235499D01*
X24937158Y-66280700D01*
X24984347Y-66329991D01*
X25016665Y-66391885D01*
X25036797Y-66474896D01*
X25047430Y-66587538D01*
X25051247Y-66738324D01*
X25051470Y-66803149D01*
X25050818Y-66945221D01*
X25048112Y-67046757D01*
X25042224Y-67117015D01*
X25032027Y-67165256D01*
X25016394Y-67200738D01*
X25000128Y-67224943D01*
X24896295Y-67327929D01*
X24774021Y-67389874D01*
X24642114Y-67408506D01*
X24509384Y-67381549D01*
X24467333Y-67362486D01*
X24366666Y-67310015D01*
X24366666Y-68132259D01*
X24440135Y-68094267D01*
X24536941Y-68064872D01*
X24655928Y-68057342D01*
X24774745Y-68071245D01*
X24864473Y-68102476D01*
X24938899Y-68161954D01*
X25002490Y-68247066D01*
X25007271Y-68255805D01*
X25027437Y-68296966D01*
X25042165Y-68338454D01*
X25052303Y-68388713D01*
X25058699Y-68456184D01*
X25062201Y-68549309D01*
X25063658Y-68676531D01*
X25063921Y-68819701D01*
X25063921Y-69276471D01*
X24790000Y-69276471D01*
X24790000Y-68434231D01*
X24713383Y-68369763D01*
X24633793Y-68318194D01*
X24558422Y-68308818D01*
X24482633Y-68332947D01*
X24442241Y-68356574D01*
X24412179Y-68390227D01*
X24390797Y-68441087D01*
X24376450Y-68516334D01*
X24367490Y-68623146D01*
X24362270Y-68768704D01*
X24360431Y-68865588D01*
X24354215Y-69264020D01*
X24223480Y-69271547D01*
X24092745Y-69279073D01*
X24092745Y-66806582D01*
X24366666Y-66806582D01*
X24373650Y-66944423D01*
X24397182Y-67040107D01*
X24441135Y-67099641D01*
X24509382Y-67129029D01*
X24578333Y-67134902D01*
X24656386Y-67128154D01*
X24708189Y-67101594D01*
X24740583Y-67066499D01*
X24766084Y-67028752D01*
X24781265Y-66986700D01*
X24788019Y-66927779D01*
X24788241Y-66839428D01*
X24785968Y-66765448D01*
X24780749Y-66654000D01*
X24772979Y-66580833D01*
X24759895Y-66534422D01*
X24738732Y-66503244D01*
X24718760Y-66485223D01*
X24635314Y-66445925D01*
X24536551Y-66439579D01*
X24479841Y-66453116D01*
X24423692Y-66501233D01*
X24386499Y-66594833D01*
X24368472Y-66733254D01*
X24366666Y-66806582D01*
X24092745Y-66806582D01*
X24092745Y-66188628D01*
X24229705Y-66188628D01*
X24311935Y-66191879D01*
X24354360Y-66203426D01*
X24366661Y-66225952D01*
X24366666Y-66226620D01*
X24372374Y-66248681D01*
X24397547Y-66246176D01*
X24447598Y-66221935D01*
X24564219Y-66184851D01*
X24695429Y-66180953D01*
X24819909Y-66209560D01*
G37*
X29346535Y-57933172D02*
X29459117Y-58530363D01*
X29874531Y-58701610D01*
X30289944Y-58872857D01*
X30788302Y-58533978D01*
X30927868Y-58439622D01*
X31054028Y-58355375D01*
X31160895Y-58285083D01*
X31242582Y-58232592D01*
X31293201Y-58201749D01*
X31306986Y-58195098D01*
X31331820Y-58212203D01*
X31384888Y-58259489D01*
X31460240Y-58330917D01*
X31551929Y-58420445D01*
X31654007Y-58522034D01*
X31760526Y-58629643D01*
X31865536Y-58737232D01*
X31963091Y-58838760D01*
X32047242Y-58928186D01*
X32112040Y-58999471D01*
X32151538Y-59046573D01*
X32160980Y-59062337D01*
X32147391Y-59091398D01*
X32109293Y-59155066D01*
X32050694Y-59247112D01*
X31975597Y-59361309D01*
X31888009Y-59491429D01*
X31837254Y-59565646D01*
X31744745Y-59701167D01*
X31662540Y-59823461D01*
X31594630Y-59926440D01*
X31545000Y-60004018D01*
X31517640Y-60050106D01*
X31513529Y-60059792D01*
X31522849Y-60087319D01*
X31548254Y-60151473D01*
X31585911Y-60243235D01*
X31631986Y-60353584D01*
X31682646Y-60473500D01*
X31734059Y-60593964D01*
X31782389Y-60705954D01*
X31823806Y-60800452D01*
X31854474Y-60868437D01*
X31870562Y-60900888D01*
X31871511Y-60902165D01*
X31896772Y-60908362D01*
X31964046Y-60922185D01*
X32066360Y-60942277D01*
X32196741Y-60967279D01*
X32348216Y-60995831D01*
X32436594Y-61012296D01*
X32598452Y-61043114D01*
X32744649Y-61072439D01*
X32867787Y-61098666D01*
X32960469Y-61120191D01*
X33015301Y-61135410D01*
X33026323Y-61140238D01*
X33037119Y-61172919D01*
X33045829Y-61246730D01*
X33052460Y-61353037D01*
X33057018Y-61483212D01*
X33059509Y-61628621D01*
X33059938Y-61780635D01*
X33058311Y-61930622D01*
X33054635Y-62069951D01*
X33048915Y-62189990D01*
X33041158Y-62282110D01*
X33031368Y-62337677D01*
X33025496Y-62349245D01*
X32990399Y-62363110D01*
X32916028Y-62382933D01*
X32812223Y-62406384D01*
X32688819Y-62431136D01*
X32645741Y-62439143D01*
X32438047Y-62477186D01*
X32273984Y-62507824D01*
X32148130Y-62532274D01*
X32055065Y-62551754D01*
X31989367Y-62567481D01*
X31945617Y-62580673D01*
X31918392Y-62592549D01*
X31902272Y-62604325D01*
X31900017Y-62606653D01*
X31877503Y-62644145D01*
X31843158Y-62717110D01*
X31800411Y-62816612D01*
X31752692Y-62933718D01*
X31703430Y-63059493D01*
X31656055Y-63185002D01*
X31613995Y-63301310D01*
X31580680Y-63399484D01*
X31559541Y-63470588D01*
X31554005Y-63505687D01*
X31554466Y-63506917D01*
X31573223Y-63535606D01*
X31615776Y-63598730D01*
X31677653Y-63689718D01*
X31754382Y-63802000D01*
X31841491Y-63929005D01*
X31866299Y-63965098D01*
X31954753Y-64095948D01*
X32032588Y-64215336D01*
X32095566Y-64316407D01*
X32139445Y-64392304D01*
X32159985Y-64436172D01*
X32160980Y-64441562D01*
X32143722Y-64469889D01*
X32096036Y-64526006D01*
X32024050Y-64603882D01*
X31933897Y-64697485D01*
X31831705Y-64800786D01*
X31723606Y-64907751D01*
X31615728Y-65012351D01*
X31514204Y-65108554D01*
X31425162Y-65190329D01*
X31354733Y-65251645D01*
X31309047Y-65286471D01*
X31296409Y-65292157D01*
X31266991Y-65278765D01*
X31206761Y-65242644D01*
X31125530Y-65189881D01*
X31063030Y-65147412D01*
X30949785Y-65069485D01*
X30815674Y-64977729D01*
X30681155Y-64886120D01*
X30608833Y-64837091D01*
X30364038Y-64671515D01*
X30158551Y-64782620D01*
X30064936Y-64831293D01*
X29985330Y-64869126D01*
X29931467Y-64890703D01*
X29917757Y-64893706D01*
X29901270Y-64871538D01*
X29868745Y-64808894D01*
X29822609Y-64711554D01*
X29765290Y-64585294D01*
X29699216Y-64435895D01*
X29626815Y-64269133D01*
X29550516Y-64090787D01*
X29472746Y-63906636D01*
X29395934Y-63722457D01*
X29322506Y-63544030D01*
X29254892Y-63377132D01*
X29195520Y-63227542D01*
X29146816Y-63101038D01*
X29111210Y-63003399D01*
X29091130Y-62940402D01*
X29087900Y-62918766D01*
X29113496Y-62891169D01*
X29169539Y-62846370D01*
X29244311Y-62793679D01*
X29250587Y-62789510D01*
X29443845Y-62634814D01*
X29599674Y-62454336D01*
X29716724Y-62253847D01*
X29793645Y-62039119D01*
X29829086Y-61815922D01*
X29821697Y-61590026D01*
X29770127Y-61367204D01*
X29673026Y-61153224D01*
X29644458Y-61106409D01*
X29495868Y-60917363D01*
X29320327Y-60765557D01*
X29123910Y-60651779D01*
X28912693Y-60576820D01*
X28692753Y-60541467D01*
X28470163Y-60546512D01*
X28251001Y-60592744D01*
X28041342Y-60680951D01*
X27847261Y-60811924D01*
X27787226Y-60865082D01*
X27634435Y-61031484D01*
X27523097Y-61206657D01*
X27446723Y-61403011D01*
X27404187Y-61597462D01*
X27393686Y-61816087D01*
X27428701Y-62035797D01*
X27505673Y-62249165D01*
X27621047Y-62448767D01*
X27771266Y-62627174D01*
X27952773Y-62776962D01*
X27976627Y-62792751D01*
X28052201Y-62844457D01*
X28109651Y-62889257D01*
X28137117Y-62917862D01*
X28137517Y-62918766D01*
X28131620Y-62949709D01*
X28108245Y-63019936D01*
X28069821Y-63123670D01*
X28018777Y-63255135D01*
X27957542Y-63408552D01*
X27888544Y-63578146D01*
X27814214Y-63758138D01*
X27736978Y-63942753D01*
X27659268Y-64126213D01*
X27583511Y-64302741D01*
X27512137Y-64466559D01*
X27447574Y-64611892D01*
X27392252Y-64732962D01*
X27348600Y-64823992D01*
X27319046Y-64879205D01*
X27307144Y-64893706D01*
X27270777Y-64882414D01*
X27202730Y-64852130D01*
X27114737Y-64808265D01*
X27066351Y-64782620D01*
X26860863Y-64671515D01*
X26616068Y-64837091D01*
X26491106Y-64921915D01*
X26354295Y-65015261D01*
X26226089Y-65103153D01*
X26161871Y-65147412D01*
X26071551Y-65208063D01*
X25995071Y-65256126D01*
X25942407Y-65285515D01*
X25925302Y-65291727D01*
X25900405Y-65274968D01*
X25845305Y-65228181D01*
X25765343Y-65156225D01*
X25665861Y-65063957D01*
X25552200Y-64956235D01*
X25480315Y-64887071D01*
X25354551Y-64763502D01*
X25245863Y-64652979D01*
X25158645Y-64560230D01*
X25097289Y-64489982D01*
X25066191Y-64446965D01*
X25063208Y-64438235D01*
X25077053Y-64405029D01*
X25115312Y-64337887D01*
X25173742Y-64243608D01*
X25248097Y-64128990D01*
X25334135Y-64000828D01*
X25358603Y-63965098D01*
X25447755Y-63835234D01*
X25527738Y-63718314D01*
X25594080Y-63620907D01*
X25642311Y-63549584D01*
X25667957Y-63510915D01*
X25670435Y-63506917D01*
X25666729Y-63476100D01*
X25647061Y-63408344D01*
X25614860Y-63312584D01*
X25573555Y-63197754D01*
X25526575Y-63072789D01*
X25477349Y-62946624D01*
X25429308Y-62828193D01*
X25385881Y-62726430D01*
X25350496Y-62650271D01*
X25326584Y-62608649D01*
X25324884Y-62606653D01*
X25310262Y-62594758D01*
X25285565Y-62582995D01*
X25245372Y-62570146D01*
X25184263Y-62554994D01*
X25096817Y-62536321D01*
X24977612Y-62512910D01*
X24821227Y-62483542D01*
X24622243Y-62447000D01*
X24579160Y-62439143D01*
X24451471Y-62414472D01*
X24340153Y-62390338D01*
X24255045Y-62369069D01*
X24205983Y-62352993D01*
X24199405Y-62349245D01*
X24188564Y-62316018D01*
X24179753Y-62241766D01*
X24172976Y-62135121D01*
X24168240Y-62004712D01*
X24165550Y-61859172D01*
X24164913Y-61707131D01*
X24166334Y-61557221D01*
X24169820Y-61418073D01*
X24175376Y-61298317D01*
X24183008Y-61206586D01*
X24192722Y-61151511D01*
X24198578Y-61140238D01*
X24231180Y-61128868D01*
X24305418Y-61110369D01*
X24413896Y-61086347D01*
X24549217Y-61058407D01*
X24703985Y-61028153D01*
X24788308Y-61012296D01*
X24948296Y-60982389D01*
X25090967Y-60955295D01*
X25209348Y-60932376D01*
X25296465Y-60914988D01*
X25345345Y-60904492D01*
X25353390Y-60902165D01*
X25366987Y-60875931D01*
X25395729Y-60812740D01*
X25435785Y-60721622D01*
X25483324Y-60611602D01*
X25534515Y-60491710D01*
X25585526Y-60370972D01*
X25632526Y-60258416D01*
X25671684Y-60163071D01*
X25699169Y-60093962D01*
X25711149Y-60060119D01*
X25711372Y-60058640D01*
X25697791Y-60031942D01*
X25659715Y-59970505D01*
X25601147Y-59880434D01*
X25526088Y-59767835D01*
X25438540Y-59638815D01*
X25387647Y-59564706D01*
X25294909Y-59428822D01*
X25212541Y-59305454D01*
X25144561Y-59200842D01*
X25094988Y-59121228D01*
X25067842Y-59072852D01*
X25063921Y-59062007D01*
X25080775Y-59036765D01*
X25127368Y-58982869D01*
X25197749Y-58906358D01*
X25285965Y-58813268D01*
X25386065Y-58709640D01*
X25492098Y-58601509D01*
X25598111Y-58494915D01*
X25698152Y-58395895D01*
X25786270Y-58310487D01*
X25856513Y-58244730D01*
X25902928Y-58204661D01*
X25918456Y-58195098D01*
X25943739Y-58208545D01*
X26004211Y-58246320D01*
X26093992Y-58304580D01*
X26207203Y-58379479D01*
X26337964Y-58467170D01*
X26436600Y-58533978D01*
X26934957Y-58872857D01*
X27350371Y-58701610D01*
X27765784Y-58530363D01*
X27878366Y-57933172D01*
X27990949Y-57335980D01*
X29233952Y-57335980D01*
X29346535Y-57933172D01*
G36*
X29346535Y-57933172D02*
G01*
X29459117Y-58530363D01*
X29874531Y-58701610D01*
X30289944Y-58872857D01*
X30788302Y-58533978D01*
X30927868Y-58439622D01*
X31054028Y-58355375D01*
X31160895Y-58285083D01*
X31242582Y-58232592D01*
X31293201Y-58201749D01*
X31306986Y-58195098D01*
X31331820Y-58212203D01*
X31384888Y-58259489D01*
X31460240Y-58330917D01*
X31551929Y-58420445D01*
X31654007Y-58522034D01*
X31760526Y-58629643D01*
X31865536Y-58737232D01*
X31963091Y-58838760D01*
X32047242Y-58928186D01*
X32112040Y-58999471D01*
X32151538Y-59046573D01*
X32160980Y-59062337D01*
X32147391Y-59091398D01*
X32109293Y-59155066D01*
X32050694Y-59247112D01*
X31975597Y-59361309D01*
X31888009Y-59491429D01*
X31837254Y-59565646D01*
X31744745Y-59701167D01*
X31662540Y-59823461D01*
X31594630Y-59926440D01*
X31545000Y-60004018D01*
X31517640Y-60050106D01*
X31513529Y-60059792D01*
X31522849Y-60087319D01*
X31548254Y-60151473D01*
X31585911Y-60243235D01*
X31631986Y-60353584D01*
X31682646Y-60473500D01*
X31734059Y-60593964D01*
X31782389Y-60705954D01*
X31823806Y-60800452D01*
X31854474Y-60868437D01*
X31870562Y-60900888D01*
X31871511Y-60902165D01*
X31896772Y-60908362D01*
X31964046Y-60922185D01*
X32066360Y-60942277D01*
X32196741Y-60967279D01*
X32348216Y-60995831D01*
X32436594Y-61012296D01*
X32598452Y-61043114D01*
X32744649Y-61072439D01*
X32867787Y-61098666D01*
X32960469Y-61120191D01*
X33015301Y-61135410D01*
X33026323Y-61140238D01*
X33037119Y-61172919D01*
X33045829Y-61246730D01*
X33052460Y-61353037D01*
X33057018Y-61483212D01*
X33059509Y-61628621D01*
X33059938Y-61780635D01*
X33058311Y-61930622D01*
X33054635Y-62069951D01*
X33048915Y-62189990D01*
X33041158Y-62282110D01*
X33031368Y-62337677D01*
X33025496Y-62349245D01*
X32990399Y-62363110D01*
X32916028Y-62382933D01*
X32812223Y-62406384D01*
X32688819Y-62431136D01*
X32645741Y-62439143D01*
X32438047Y-62477186D01*
X32273984Y-62507824D01*
X32148130Y-62532274D01*
X32055065Y-62551754D01*
X31989367Y-62567481D01*
X31945617Y-62580673D01*
X31918392Y-62592549D01*
X31902272Y-62604325D01*
X31900017Y-62606653D01*
X31877503Y-62644145D01*
X31843158Y-62717110D01*
X31800411Y-62816612D01*
X31752692Y-62933718D01*
X31703430Y-63059493D01*
X31656055Y-63185002D01*
X31613995Y-63301310D01*
X31580680Y-63399484D01*
X31559541Y-63470588D01*
X31554005Y-63505687D01*
X31554466Y-63506917D01*
X31573223Y-63535606D01*
X31615776Y-63598730D01*
X31677653Y-63689718D01*
X31754382Y-63802000D01*
X31841491Y-63929005D01*
X31866299Y-63965098D01*
X31954753Y-64095948D01*
X32032588Y-64215336D01*
X32095566Y-64316407D01*
X32139445Y-64392304D01*
X32159985Y-64436172D01*
X32160980Y-64441562D01*
X32143722Y-64469889D01*
X32096036Y-64526006D01*
X32024050Y-64603882D01*
X31933897Y-64697485D01*
X31831705Y-64800786D01*
X31723606Y-64907751D01*
X31615728Y-65012351D01*
X31514204Y-65108554D01*
X31425162Y-65190329D01*
X31354733Y-65251645D01*
X31309047Y-65286471D01*
X31296409Y-65292157D01*
X31266991Y-65278765D01*
X31206761Y-65242644D01*
X31125530Y-65189881D01*
X31063030Y-65147412D01*
X30949785Y-65069485D01*
X30815674Y-64977729D01*
X30681155Y-64886120D01*
X30608833Y-64837091D01*
X30364038Y-64671515D01*
X30158551Y-64782620D01*
X30064936Y-64831293D01*
X29985330Y-64869126D01*
X29931467Y-64890703D01*
X29917757Y-64893706D01*
X29901270Y-64871538D01*
X29868745Y-64808894D01*
X29822609Y-64711554D01*
X29765290Y-64585294D01*
X29699216Y-64435895D01*
X29626815Y-64269133D01*
X29550516Y-64090787D01*
X29472746Y-63906636D01*
X29395934Y-63722457D01*
X29322506Y-63544030D01*
X29254892Y-63377132D01*
X29195520Y-63227542D01*
X29146816Y-63101038D01*
X29111210Y-63003399D01*
X29091130Y-62940402D01*
X29087900Y-62918766D01*
X29113496Y-62891169D01*
X29169539Y-62846370D01*
X29244311Y-62793679D01*
X29250587Y-62789510D01*
X29443845Y-62634814D01*
X29599674Y-62454336D01*
X29716724Y-62253847D01*
X29793645Y-62039119D01*
X29829086Y-61815922D01*
X29821697Y-61590026D01*
X29770127Y-61367204D01*
X29673026Y-61153224D01*
X29644458Y-61106409D01*
X29495868Y-60917363D01*
X29320327Y-60765557D01*
X29123910Y-60651779D01*
X28912693Y-60576820D01*
X28692753Y-60541467D01*
X28470163Y-60546512D01*
X28251001Y-60592744D01*
X28041342Y-60680951D01*
X27847261Y-60811924D01*
X27787226Y-60865082D01*
X27634435Y-61031484D01*
X27523097Y-61206657D01*
X27446723Y-61403011D01*
X27404187Y-61597462D01*
X27393686Y-61816087D01*
X27428701Y-62035797D01*
X27505673Y-62249165D01*
X27621047Y-62448767D01*
X27771266Y-62627174D01*
X27952773Y-62776962D01*
X27976627Y-62792751D01*
X28052201Y-62844457D01*
X28109651Y-62889257D01*
X28137117Y-62917862D01*
X28137517Y-62918766D01*
X28131620Y-62949709D01*
X28108245Y-63019936D01*
X28069821Y-63123670D01*
X28018777Y-63255135D01*
X27957542Y-63408552D01*
X27888544Y-63578146D01*
X27814214Y-63758138D01*
X27736978Y-63942753D01*
X27659268Y-64126213D01*
X27583511Y-64302741D01*
X27512137Y-64466559D01*
X27447574Y-64611892D01*
X27392252Y-64732962D01*
X27348600Y-64823992D01*
X27319046Y-64879205D01*
X27307144Y-64893706D01*
X27270777Y-64882414D01*
X27202730Y-64852130D01*
X27114737Y-64808265D01*
X27066351Y-64782620D01*
X26860863Y-64671515D01*
X26616068Y-64837091D01*
X26491106Y-64921915D01*
X26354295Y-65015261D01*
X26226089Y-65103153D01*
X26161871Y-65147412D01*
X26071551Y-65208063D01*
X25995071Y-65256126D01*
X25942407Y-65285515D01*
X25925302Y-65291727D01*
X25900405Y-65274968D01*
X25845305Y-65228181D01*
X25765343Y-65156225D01*
X25665861Y-65063957D01*
X25552200Y-64956235D01*
X25480315Y-64887071D01*
X25354551Y-64763502D01*
X25245863Y-64652979D01*
X25158645Y-64560230D01*
X25097289Y-64489982D01*
X25066191Y-64446965D01*
X25063208Y-64438235D01*
X25077053Y-64405029D01*
X25115312Y-64337887D01*
X25173742Y-64243608D01*
X25248097Y-64128990D01*
X25334135Y-64000828D01*
X25358603Y-63965098D01*
X25447755Y-63835234D01*
X25527738Y-63718314D01*
X25594080Y-63620907D01*
X25642311Y-63549584D01*
X25667957Y-63510915D01*
X25670435Y-63506917D01*
X25666729Y-63476100D01*
X25647061Y-63408344D01*
X25614860Y-63312584D01*
X25573555Y-63197754D01*
X25526575Y-63072789D01*
X25477349Y-62946624D01*
X25429308Y-62828193D01*
X25385881Y-62726430D01*
X25350496Y-62650271D01*
X25326584Y-62608649D01*
X25324884Y-62606653D01*
X25310262Y-62594758D01*
X25285565Y-62582995D01*
X25245372Y-62570146D01*
X25184263Y-62554994D01*
X25096817Y-62536321D01*
X24977612Y-62512910D01*
X24821227Y-62483542D01*
X24622243Y-62447000D01*
X24579160Y-62439143D01*
X24451471Y-62414472D01*
X24340153Y-62390338D01*
X24255045Y-62369069D01*
X24205983Y-62352993D01*
X24199405Y-62349245D01*
X24188564Y-62316018D01*
X24179753Y-62241766D01*
X24172976Y-62135121D01*
X24168240Y-62004712D01*
X24165550Y-61859172D01*
X24164913Y-61707131D01*
X24166334Y-61557221D01*
X24169820Y-61418073D01*
X24175376Y-61298317D01*
X24183008Y-61206586D01*
X24192722Y-61151511D01*
X24198578Y-61140238D01*
X24231180Y-61128868D01*
X24305418Y-61110369D01*
X24413896Y-61086347D01*
X24549217Y-61058407D01*
X24703985Y-61028153D01*
X24788308Y-61012296D01*
X24948296Y-60982389D01*
X25090967Y-60955295D01*
X25209348Y-60932376D01*
X25296465Y-60914988D01*
X25345345Y-60904492D01*
X25353390Y-60902165D01*
X25366987Y-60875931D01*
X25395729Y-60812740D01*
X25435785Y-60721622D01*
X25483324Y-60611602D01*
X25534515Y-60491710D01*
X25585526Y-60370972D01*
X25632526Y-60258416D01*
X25671684Y-60163071D01*
X25699169Y-60093962D01*
X25711149Y-60060119D01*
X25711372Y-60058640D01*
X25697791Y-60031942D01*
X25659715Y-59970505D01*
X25601147Y-59880434D01*
X25526088Y-59767835D01*
X25438540Y-59638815D01*
X25387647Y-59564706D01*
X25294909Y-59428822D01*
X25212541Y-59305454D01*
X25144561Y-59200842D01*
X25094988Y-59121228D01*
X25067842Y-59072852D01*
X25063921Y-59062007D01*
X25080775Y-59036765D01*
X25127368Y-58982869D01*
X25197749Y-58906358D01*
X25285965Y-58813268D01*
X25386065Y-58709640D01*
X25492098Y-58601509D01*
X25598111Y-58494915D01*
X25698152Y-58395895D01*
X25786270Y-58310487D01*
X25856513Y-58244730D01*
X25902928Y-58204661D01*
X25918456Y-58195098D01*
X25943739Y-58208545D01*
X26004211Y-58246320D01*
X26093992Y-58304580D01*
X26207203Y-58379479D01*
X26337964Y-58467170D01*
X26436600Y-58533978D01*
X26934957Y-58872857D01*
X27350371Y-58701610D01*
X27765784Y-58530363D01*
X27878366Y-57933172D01*
X27990949Y-57335980D01*
X29233952Y-57335980D01*
X29346535Y-57933172D01*
G37*
D11*
X91700000Y-56850000D03*
X91700000Y-53550000D03*
D12*
X68510000Y-4300000D03*
X67490000Y-4300000D03*
X67400000Y-69800000D03*
X66380000Y-69800000D03*
D13*
X65825000Y-63000000D03*
X67575000Y-63000000D03*
X67575000Y-61600000D03*
X65825000Y-61600000D03*
D14*
X3520000Y-7800000D03*
X4480000Y-7800000D03*
D15*
X54700000Y-11910000D03*
X54700000Y-10890000D03*
D16*
X77800000Y-69480000D03*
X77800000Y-68520000D03*
D17*
X59000000Y-8125000D03*
X58200000Y-8125000D03*
D18*
X57050000Y-8125000D03*
X56050000Y-8125000D03*
X55550000Y-8125000D03*
X54550000Y-8125000D03*
D17*
X53400000Y-8125000D03*
X52600000Y-8125000D03*
X52600000Y-8125000D03*
X53400000Y-8125000D03*
D18*
X54050000Y-8125000D03*
X55050000Y-8125000D03*
X56550000Y-8125000D03*
X57550000Y-8125000D03*
D17*
X58200000Y-8125000D03*
X59000000Y-8125000D03*
D19*
X61420000Y-6800000D03*
D20*
X61420000Y-2800000D03*
D19*
X50180000Y-6800000D03*
D20*
X50180000Y-2800000D03*
D21*
X17500000Y-63550000D03*
X17500000Y-66850000D03*
D22*
X82983363Y-70683363D03*
X81816637Y-69516637D03*
D15*
X60400000Y-62810000D03*
X60400000Y-61790000D03*
D23*
X69900000Y-56720000D03*
X69900000Y-57680000D03*
D24*
X61404100Y-12037500D03*
D25*
X61479100Y-11500000D03*
D24*
X61404100Y-10962500D03*
X59704100Y-10962500D03*
D25*
X59629100Y-11500000D03*
D24*
X59704100Y-12037500D03*
D15*
X59300000Y-61510000D03*
X59300000Y-60490000D03*
D26*
X67490000Y-3300000D03*
X68510000Y-3300000D03*
X65890000Y-64300000D03*
X66910000Y-64300000D03*
D27*
X85675000Y-60325000D03*
X84405000Y-60325000D03*
X83135000Y-60325000D03*
X81865000Y-60325000D03*
X81865000Y-67825000D03*
X83135000Y-67825000D03*
X84405000Y-67825000D03*
X85675000Y-67825000D03*
D28*
X83770000Y-64075000D03*
D29*
X69280000Y-65400000D03*
X68320000Y-65400000D03*
D14*
X51320000Y-9500000D03*
X52280000Y-9500000D03*
D11*
X69700000Y-19250000D03*
X69700000Y-15950000D03*
D30*
X64350000Y-3150000D03*
X64350000Y-3800000D03*
X64350000Y-4450000D03*
X66250000Y-4450000D03*
X66250000Y-3150000D03*
D29*
X59530000Y-17550000D03*
X58570000Y-17550000D03*
D23*
X73000000Y-68820000D03*
X73000000Y-69780000D03*
D21*
X61500000Y-25650000D03*
X61500000Y-28950000D03*
D23*
X56850000Y-15230000D03*
X56850000Y-14270000D03*
D21*
X53400000Y-44650000D03*
X53400000Y-47950000D03*
D31*
X64300000Y-61525000D03*
X64300000Y-63075000D03*
D32*
X71910000Y-56690000D03*
X71910000Y-57710000D03*
D33*
X75560000Y-57700000D03*
X75560000Y-57200000D03*
X75560000Y-56700000D03*
X74060000Y-56700000D03*
X74060000Y-57200000D03*
X74060000Y-57700000D03*
D11*
X88700000Y-18750000D03*
X88700000Y-15450000D03*
X12700000Y-19150000D03*
X12700000Y-15850000D03*
D21*
X23500000Y-25650000D03*
X23500000Y-28950000D03*
D34*
X53400000Y-10712499D03*
X53400000Y-12287501D03*
D35*
X58100000Y-16287500D03*
X60000000Y-16287500D03*
X59050000Y-14412500D03*
D12*
X86710000Y-59200000D03*
X85690000Y-59200000D03*
D15*
X57250000Y-11910000D03*
X57250000Y-10890000D03*
D11*
X50700000Y-19150000D03*
X50700000Y-15850000D03*
D12*
X67400000Y-71000000D03*
X66380000Y-71000000D03*
X79910000Y-57100000D03*
X78890000Y-57100000D03*
D14*
X78620000Y-63500000D03*
X79580000Y-63500000D03*
D21*
X55050000Y-17450000D03*
X55050000Y-14150000D03*
X72400000Y-44750000D03*
X72400000Y-48050000D03*
D16*
X78600000Y-67180000D03*
X78600000Y-66220000D03*
D15*
X72910000Y-57710000D03*
X72910000Y-56690000D03*
D36*
X76600000Y-60662500D03*
X76200000Y-60662500D03*
X75800000Y-60662500D03*
X75400000Y-60662500D03*
X75000000Y-60662500D03*
X74600000Y-60662500D03*
X74200000Y-60662500D03*
X73800000Y-60662500D03*
X73400000Y-60662500D03*
X73000000Y-60662500D03*
X72600000Y-60662500D03*
X72200000Y-60662500D03*
X71800000Y-60662500D03*
X71400000Y-60662500D03*
D37*
X70562500Y-61500000D03*
X70562500Y-61900000D03*
X70562500Y-62300000D03*
X70562500Y-62700000D03*
X70562500Y-63100000D03*
X70562500Y-63500000D03*
X70562500Y-63900000D03*
X70562500Y-64300000D03*
X70562500Y-64700000D03*
X70562500Y-65100000D03*
X70562500Y-65500000D03*
X70562500Y-65900000D03*
X70562500Y-66300000D03*
X70562500Y-66700000D03*
D36*
X71400000Y-67537500D03*
X71800000Y-67537500D03*
X72200000Y-67537500D03*
X72600000Y-67537500D03*
X73000000Y-67537500D03*
X73400000Y-67537500D03*
X73800000Y-67537500D03*
X74200000Y-67537500D03*
X74600000Y-67537500D03*
X75000000Y-67537500D03*
X75400000Y-67537500D03*
X75800000Y-67537500D03*
X76200000Y-67537500D03*
X76600000Y-67537500D03*
D37*
X77437500Y-66700000D03*
X77437500Y-66300000D03*
X77437500Y-65900000D03*
X77437500Y-65500000D03*
X77437500Y-65100000D03*
X77437500Y-64700000D03*
X77437500Y-64300000D03*
X77437500Y-63900000D03*
X77437500Y-63500000D03*
X77437500Y-63100000D03*
X77437500Y-62700000D03*
X77437500Y-62300000D03*
X77437500Y-61900000D03*
X77437500Y-61500000D03*
D38*
X74000000Y-64100000D03*
D29*
X69280000Y-64500000D03*
X68320000Y-64500000D03*
D22*
X81993414Y-71673312D03*
X80826688Y-70506586D03*
D14*
X76600000Y-59400000D03*
X77560000Y-59400000D03*
D39*
X60350000Y-60040000D03*
X60350000Y-60540000D03*
X60350000Y-61040000D03*
X61850000Y-61040000D03*
X61850000Y-60540000D03*
X61850000Y-60040000D03*
D31*
X14400000Y-2525000D03*
X14400000Y-4075000D03*
D21*
X42500000Y-25650000D03*
X42500000Y-28950000D03*
X46500000Y-63650000D03*
X46500000Y-66950000D03*
D29*
X85680000Y-69000000D03*
X84720000Y-69000000D03*
D23*
X77000000Y-68520000D03*
X77000000Y-69480000D03*
D40*
X45965000Y-38370000D03*
X45965000Y-32370000D03*
X49715000Y-38370000D03*
X49715000Y-32370000D03*
D41*
X66125000Y-550000D03*
X64675000Y-550000D03*
D42*
X69100000Y-63075000D03*
X69100000Y-61525000D03*
D14*
X78620000Y-64400000D03*
X79580000Y-64400000D03*
D12*
X77720000Y-57700000D03*
X76700000Y-57700000D03*
D21*
X34400000Y-44750000D03*
X34400000Y-48050000D03*
X80500000Y-25650000D03*
X80500000Y-28950000D03*
D11*
X31800000Y-19050000D03*
X31800000Y-15750000D03*
D23*
X70910000Y-56720000D03*
X70910000Y-57680000D03*
D43*
X3800000Y-6650000D03*
X4300000Y-6650000D03*
X4800000Y-6650000D03*
X4800000Y-5150000D03*
X4300000Y-5150000D03*
X3800000Y-5150000D03*
D16*
X73000000Y-59580000D03*
X73000000Y-58620000D03*
D12*
X71910000Y-58700000D03*
X70890000Y-58700000D03*
D21*
X15300000Y-44650000D03*
X15300000Y-47950000D03*
D44*
X42150000Y-2900000D03*
X42150000Y-700000D03*
D45*
X39500001Y-1795300D03*
X34500000Y-1795300D03*
D44*
X31850000Y-2900000D03*
X31850000Y-700000D03*
D46*
X40000001Y-3545800D03*
X38500001Y-3545800D03*
X35499999Y-3545800D03*
X34000000Y-3545800D03*
D12*
X67400000Y-68600000D03*
X66380000Y-68600000D03*
D47*
X12750000Y-2550000D03*
D48*
X12750000Y-4045000D03*
D49*
X7450000Y-4050000D03*
D47*
X7450000Y-2550000D03*
D50*
X8300000Y-8300000D03*
D51*
X12700000Y-13000000D03*
X5700000Y-14050000D03*
D50*
X68300000Y-46300000D03*
D51*
X72700000Y-51000000D03*
X65700000Y-52050000D03*
D50*
X30300000Y-46300000D03*
D51*
X34700000Y-51000000D03*
X27700000Y-52050000D03*
D50*
X65300000Y-8300000D03*
D51*
X69700000Y-13000000D03*
X62700000Y-14050000D03*
D50*
X41550000Y-65300000D03*
D51*
X45950000Y-70000000D03*
X38950000Y-71050000D03*
D50*
X87300000Y-46300000D03*
D51*
X91700000Y-51000000D03*
X84700000Y-52050000D03*
D50*
X46300000Y-8300000D03*
D51*
X50700000Y-13000000D03*
X43700000Y-14050000D03*
D50*
X27300000Y-8300000D03*
D51*
X31700000Y-13000000D03*
X24700000Y-14050000D03*
D50*
X19300000Y-27300000D03*
D51*
X23700000Y-32000000D03*
X16700000Y-33050000D03*
D50*
X11300000Y-46300000D03*
D51*
X15700000Y-51000000D03*
X8700000Y-52050000D03*
D50*
X57300000Y-27300000D03*
D51*
X61700000Y-32000000D03*
X54700000Y-33050000D03*
D50*
X49300000Y-46300000D03*
D51*
X53700000Y-51000000D03*
X46700000Y-52050000D03*
D50*
X38300000Y-27300000D03*
D51*
X42700000Y-32000000D03*
X35700000Y-33050000D03*
D50*
X84300000Y-8300000D03*
D51*
X88700000Y-13000000D03*
X81700000Y-14050000D03*
D50*
X13050000Y-65300000D03*
D51*
X17450000Y-70000000D03*
X10450000Y-71050000D03*
D50*
X76300000Y-27300000D03*
D51*
X80700000Y-32000000D03*
X73700000Y-33050000D03*
M02*
