M48
; DRILL file {KiCad 8.0.4} date 2025-02-13T17:40:10+0000
; FORMAT={-:-/ absolute / metric / decimal}
; #@! TF.CreationDate,2025-02-13T17:40:10+00:00
; #@! TF.GenerationSoftware,Kicad,Pcbnew,8.0.4
; #@! TF.FileFunction,Plated,1,4,PTH
FMAT,2
METRIC
; #@! TA.AperFunction,Plated,PTH,ViaDrill
T1C0.300
; #@! TA.AperFunction,Plated,PTH,ViaDrill
T2C0.400
; #@! TA.AperFunction,Plated,PTH,ComponentDrill
T3C0.600
; #@! TA.AperFunction,Plated,PTH,ComponentDrill
T4C1.500
; #@! TA.AperFunction,Plated,PTH,ComponentDrill
T5C2.700
%
G90
G05
T1
X4.3Y-4.4
X35.5Y-5.0
X39.85Y-6.55
X41.1Y-9.9
X44.5Y-0.85
X51.5Y-10.6
X55.3Y-19.15
X55.479Y-9.325
X56.55Y-9.9
X57.121Y-9.2
X64.9Y-62.2
X66.4Y-67.6
X68.5Y-62.5
X71.2Y-58.2
X71.5Y-61.698
X71.5Y-64.3
X71.6Y-66.698
X71.7Y-62.4
X71.9Y-63.1
X72.1Y-59.6
X72.3Y-61.8
X72.8Y-64.2
X73.0Y-70.5
X73.0Y-68.248
X73.1Y-61.8
X73.3Y-56.0
X73.5Y-58.62
X73.5Y-59.6
X73.9Y-61.6
X74.9Y-61.6
X75.0Y-59.5
X75.3Y-65.4
X76.3Y-63.3
X76.6Y-58.7
X78.1Y-64.4
X78.2Y-59.1
X78.4Y-58.1
X83.32Y-64.07
X86.3Y-64.07
T2
X2.7Y-5.1
X2.8Y-7.8
X4.5Y-8.7
X6.2Y-4.0
X11.0Y-60.24
X12.1Y-58.8
X12.1Y-61.6
X13.5Y-59.1
X13.5Y-61.2
X14.4Y-5.2
X15.6Y-2.5
X28.1Y-20.1
X28.2Y-18.5
X29.4Y-21.4
X30.8Y-20.1
X44.0Y-56.4
X44.5Y-52.2
X44.8Y-55.5
X44.8Y-57.275
X44.8Y-58.6
X44.9Y-53.75
X46.0Y-35.4
X46.6Y-54.6
X46.6Y-56.4
X49.526Y-23.0
X50.7Y-21.9
X50.8Y-24.175
X51.6Y-8.1
X52.12Y-23.0
X53.4Y-9.2
X58.2Y-9.082
X58.462Y-17.4
X58.462Y-20.8
X59.3Y-62.8
X59.9Y-8.1
X60.9Y-59.3
X64.2Y-60.1
X67.7Y-64.9
X75.8Y-45.7
X76.6Y-44.7
X77.3Y-55.9
X77.4Y-67.5
X77.4Y-70.3
X77.7Y-45.7
X78.656Y-68.299
X78.8Y-44.7
X79.7Y-45.8
X80.077Y-64.923
X82.995Y-61.2
X83.1Y-21.8
X83.1Y-23.2
X85.0Y-21.8
X85.3Y-22.98
X85.3Y-25.48
X86.0Y-68.9
X86.825Y-57.475
X87.8Y-68.0
T4
X5.7Y-14.05
X8.7Y-52.05
X10.45Y-71.05
X12.7Y-13.0
X15.7Y-51.0
X16.7Y-33.05
X17.45Y-70.0
X23.7Y-32.0
X24.7Y-14.05
X27.7Y-52.05
X31.7Y-13.0
X34.7Y-51.0
X35.7Y-33.05
X38.95Y-71.05
X42.7Y-32.0
X43.7Y-14.05
X45.95Y-70.0
X46.7Y-52.05
X50.7Y-13.0
X53.7Y-51.0
X54.7Y-33.05
X61.7Y-32.0
X62.7Y-14.05
X65.7Y-52.05
X69.7Y-13.0
X72.7Y-51.0
X73.7Y-33.05
X80.7Y-32.0
X81.7Y-14.05
X84.7Y-52.05
X88.7Y-13.0
X91.7Y-51.0
T5
X74.8Y-5.0
T3
X50.18Y-3.35G85X50.18Y-2.35
G05
X50.18Y-7.15G85X50.18Y-6.55
G05
X61.42Y-3.35G85X61.42Y-2.35
G05
X61.42Y-7.15G85X61.42Y-6.55
G05
M30
