%TF.GenerationSoftware,KiCad,Pcbnew,8.0.4*%
%TF.CreationDate,2024-10-21T08:48:38+01:00*%
%TF.ProjectId,Mathboard,4d617468-626f-4617-9264-2e6b69636164,rev?*%
%TF.SameCoordinates,PX501bd00PY28b8ce0*%
%TF.FileFunction,Drillmap*%
%TF.FilePolarity,Positive*%
%FSLAX45Y45*%
G04 Gerber Fmt 4.5, Leading zero omitted, Abs format (unit mm)*
G04 Created by KiCad (PCBNEW 8.0.4) date 2024-10-21 08:48:38*
%MOMM*%
%LPD*%
G01*
G04 APERTURE LIST*
%ADD10C,0.100000*%
%ADD11C,0.120000*%
%ADD12C,0.200000*%
%ADD13C,0.150000*%
G04 APERTURE END LIST*
D10*
X1Y-2564745D02*
G75*
G02*
X230847Y-2202273I399989J5D01*
G01*
X9080000Y-6904315D02*
G75*
G02*
X8962840Y-7187155I-400000J5D01*
G01*
X230846Y-1717728D02*
X364576Y-1778763D01*
X9329154Y-1717728D02*
X9195424Y-1778763D01*
X597157Y-7187157D02*
G75*
G02*
X479998Y-6904315I282823J282837D01*
G01*
X977107Y-7360000D02*
G75*
G02*
X623551Y-7213556I3J500020D01*
G01*
X623553Y-7213553D02*
X597157Y-7187157D01*
X364576Y-1778763D02*
G75*
G02*
X364576Y-2141237I-84576J-181237D01*
G01*
X500000Y0D02*
X5110000Y0D01*
X5110000Y-570000D02*
X5110000Y0D01*
X8936447Y-7213553D02*
G75*
G02*
X8582893Y-7360002I-353557J353553D01*
G01*
X480000Y-6904315D02*
X480000Y-6360000D01*
X230846Y-6117728D02*
G75*
G02*
X2Y-5755255I169164J362478D01*
G01*
X8582893Y-7360000D02*
X977107Y-7360000D01*
X1Y-1355255D02*
X0Y-500000D01*
X9560000Y-1355255D02*
X9560000Y-500000D01*
X9195424Y-2141237D02*
G75*
G02*
X9195424Y-1778763I84576J181237D01*
G01*
X9329154Y-2202272D02*
X9195424Y-2141237D01*
X9195424Y-6178763D02*
X9329154Y-6117728D01*
X9559999Y-5755255D02*
G75*
G02*
X9329154Y-6117729I-400009J5D01*
G01*
X230846Y-1717728D02*
G75*
G02*
X2Y-1355255I169164J362478D01*
G01*
X364576Y-6178763D02*
G75*
G02*
X480000Y-6360000I-84576J-181237D01*
G01*
X9080000Y-6360000D02*
G75*
G02*
X9195424Y-6178763I200000J0D01*
G01*
X1Y-5755255D02*
X1Y-2564745D01*
X9060000Y0D02*
G75*
G02*
X9560000Y-500000I0J-500000D01*
G01*
X9560000Y-1355255D02*
G75*
G02*
X9329155Y-1717729I-400010J5D01*
G01*
X0Y-500000D02*
G75*
G02*
X500000Y0I500000J0D01*
G01*
X9060000Y0D02*
X6050000Y0D01*
X230846Y-6117728D02*
X364576Y-6178763D01*
X6050000Y-570000D02*
X5110000Y-570000D01*
X9560000Y-2564745D02*
X9559999Y-5755255D01*
X9080000Y-6360000D02*
X9080000Y-6904315D01*
X9329154Y-2202272D02*
G75*
G02*
X9559999Y-2564745I-169164J-362478D01*
G01*
X230846Y-2202272D02*
X364576Y-2141237D01*
X6050000Y0D02*
X6050000Y-570000D01*
X8962843Y-7187157D02*
X8936447Y-7213553D01*
D11*
X840000Y-120000D02*
X1180000Y-120000D01*
X840000Y-420000D02*
X840000Y-120000D01*
X1180000Y-120000D02*
X1180000Y-420000D01*
X1180000Y-420000D02*
X840000Y-420000D01*
D12*
D10*
X415000Y-425000D02*
X445000Y-455000D01*
X445000Y-425000D02*
X415000Y-455000D01*
X3535000Y-485000D02*
X3565000Y-515000D01*
X3565000Y-485000D02*
X3535000Y-515000D01*
X5472000Y-990000D02*
X5502000Y-1020000D01*
X5502000Y-990000D02*
X5472000Y-1020000D01*
X5539119Y-874057D02*
X5569119Y-904057D01*
X5569119Y-874057D02*
X5539119Y-904057D01*
X5539590Y-793791D02*
X5569590Y-823791D01*
X5569590Y-793791D02*
X5539590Y-823791D01*
X5654180Y-794833D02*
X5684180Y-824833D01*
X5684180Y-794833D02*
X5654180Y-824833D01*
X5757500Y-1007500D02*
X5787500Y-1037500D01*
X5787500Y-1007500D02*
X5757500Y-1037500D01*
X5760000Y-902500D02*
X5790000Y-932500D01*
X5790000Y-902500D02*
X5760000Y-932500D01*
X5933500Y-955000D02*
X5963500Y-985000D01*
X5963500Y-955000D02*
X5933500Y-985000D01*
X6340000Y-430000D02*
X6370000Y-460000D01*
X6370000Y-430000D02*
X6340000Y-460000D01*
X6375000Y-55000D02*
X6405000Y-85000D01*
X6405000Y-55000D02*
X6375000Y-85000D01*
X6475000Y-6205000D02*
X6505000Y-6235000D01*
X6505000Y-6205000D02*
X6475000Y-6235000D01*
X6675000Y-305000D02*
X6705000Y-335000D01*
X6705000Y-305000D02*
X6675000Y-335000D01*
X6725000Y-6505000D02*
X6755000Y-6535000D01*
X6755000Y-6505000D02*
X6725000Y-6535000D01*
X6835000Y-6235000D02*
X6865000Y-6265000D01*
X6865000Y-6235000D02*
X6835000Y-6265000D01*
X7105000Y-5805000D02*
X7135000Y-5835000D01*
X7135000Y-5805000D02*
X7105000Y-5835000D01*
X7135000Y-6154764D02*
X7165000Y-6184764D01*
X7165000Y-6154764D02*
X7135000Y-6184764D01*
X7135000Y-6415000D02*
X7165000Y-6445000D01*
X7165000Y-6415000D02*
X7135000Y-6445000D01*
X7144963Y-6654831D02*
X7174963Y-6684831D01*
X7174963Y-6654831D02*
X7144963Y-6684831D01*
X7155000Y-6225000D02*
X7185000Y-6255000D01*
X7185000Y-6225000D02*
X7155000Y-6255000D01*
X7175000Y-6295000D02*
X7205000Y-6325000D01*
X7205000Y-6295000D02*
X7175000Y-6325000D01*
X7195000Y-5945000D02*
X7225000Y-5975000D01*
X7225000Y-5945000D02*
X7195000Y-5975000D01*
X7215000Y-6165000D02*
X7245000Y-6195000D01*
X7245000Y-6165000D02*
X7215000Y-6195000D01*
X7255000Y-6265000D02*
X7285000Y-6295000D01*
X7285000Y-6265000D02*
X7255000Y-6295000D01*
X7285000Y-7035000D02*
X7315000Y-7065000D01*
X7315000Y-7035000D02*
X7285000Y-7065000D01*
X7285000Y-6809751D02*
X7315000Y-6839751D01*
X7315000Y-6809751D02*
X7285000Y-6839751D01*
X7295000Y-6165000D02*
X7325000Y-6195000D01*
X7325000Y-6165000D02*
X7295000Y-6195000D01*
X7335000Y-5585000D02*
X7365000Y-5615000D01*
X7365000Y-5585000D02*
X7335000Y-5615000D01*
X7335000Y-5847000D02*
X7365000Y-5877000D01*
X7365000Y-5847000D02*
X7335000Y-5877000D01*
X7335000Y-5945000D02*
X7365000Y-5975000D01*
X7365000Y-5945000D02*
X7335000Y-5975000D01*
X7375000Y-6145000D02*
X7405000Y-6175000D01*
X7405000Y-6145000D02*
X7375000Y-6175000D01*
X7445000Y-6825000D02*
X7475000Y-6855000D01*
X7475000Y-6825000D02*
X7445000Y-6855000D01*
X7475000Y-5945000D02*
X7505000Y-5975000D01*
X7505000Y-5945000D02*
X7475000Y-5975000D01*
X7475000Y-6145000D02*
X7505000Y-6175000D01*
X7505000Y-6145000D02*
X7475000Y-6175000D01*
X7485000Y-5320000D02*
X7515000Y-5350000D01*
X7515000Y-5320000D02*
X7485000Y-5350000D01*
X7515000Y-6525000D02*
X7545000Y-6555000D01*
X7545000Y-6525000D02*
X7515000Y-6555000D01*
X7565000Y-5140000D02*
X7595000Y-5170000D01*
X7595000Y-5140000D02*
X7565000Y-5170000D01*
X7570000Y-5265000D02*
X7600000Y-5295000D01*
X7600000Y-5265000D02*
X7570000Y-5295000D01*
X7575000Y-6145000D02*
X7605000Y-6175000D01*
X7605000Y-6145000D02*
X7575000Y-6175000D01*
X7614725Y-6356650D02*
X7644725Y-6386650D01*
X7644725Y-6356650D02*
X7614725Y-6386650D01*
X7625000Y-6215000D02*
X7655000Y-6245000D01*
X7655000Y-6215000D02*
X7625000Y-6245000D01*
X7625000Y-6295000D02*
X7655000Y-6325000D01*
X7655000Y-6295000D02*
X7625000Y-6325000D01*
X7645000Y-5855000D02*
X7675000Y-5885000D01*
X7675000Y-5855000D02*
X7645000Y-5885000D01*
X7745000Y-5855000D02*
X7775000Y-5885000D01*
X7775000Y-5855000D02*
X7745000Y-5885000D01*
X7795000Y-6435000D02*
X7825000Y-6465000D01*
X7825000Y-6435000D02*
X7795000Y-6465000D01*
X7825000Y-5795000D02*
X7855000Y-5825000D01*
X7855000Y-5795000D02*
X7825000Y-5825000D01*
X8015000Y-6245000D02*
X8045000Y-6275000D01*
X8045000Y-6245000D02*
X8015000Y-6275000D01*
X8175000Y-6095000D02*
X8205000Y-6125000D01*
X8205000Y-6095000D02*
X8175000Y-6125000D01*
X8217000Y-6392000D02*
X8247000Y-6422000D01*
X8247000Y-6392000D02*
X8217000Y-6422000D01*
X8297750Y-6645000D02*
X8327750Y-6675000D01*
X8327750Y-6645000D02*
X8297750Y-6675000D01*
X8401250Y-6885000D02*
X8431250Y-6915000D01*
X8431250Y-6885000D02*
X8401250Y-6915000D01*
X8425000Y-6705000D02*
X8455000Y-6735000D01*
X8455000Y-6705000D02*
X8425000Y-6735000D01*
X8515000Y-6392000D02*
X8545000Y-6422000D01*
X8545000Y-6392000D02*
X8515000Y-6422000D01*
X8621250Y-6885000D02*
X8651250Y-6915000D01*
X8651250Y-6885000D02*
X8621250Y-6915000D01*
X8665000Y-5825000D02*
X8695000Y-5855000D01*
X8695000Y-5825000D02*
X8665000Y-5855000D01*
X290000Y-510000D02*
G75*
G02*
X250000Y-510000I-20000J0D01*
G01*
X250000Y-510000D02*
G75*
G02*
X290000Y-510000I20000J0D01*
G01*
X300000Y-780000D02*
G75*
G02*
X260000Y-780000I-20000J0D01*
G01*
X260000Y-780000D02*
G75*
G02*
X300000Y-780000I20000J0D01*
G01*
X470000Y-870000D02*
G75*
G02*
X430000Y-870000I-20000J0D01*
G01*
X430000Y-870000D02*
G75*
G02*
X470000Y-870000I20000J0D01*
G01*
X640000Y-340000D02*
G75*
G02*
X600000Y-340000I-20000J0D01*
G01*
X600000Y-340000D02*
G75*
G02*
X640000Y-340000I20000J0D01*
G01*
X740000Y-6490000D02*
G75*
G02*
X700000Y-6490000I-20000J0D01*
G01*
X700000Y-6490000D02*
G75*
G02*
X740000Y-6490000I20000J0D01*
G01*
X890000Y-6010000D02*
G75*
G02*
X850000Y-6010000I-20000J0D01*
G01*
X850000Y-6010000D02*
G75*
G02*
X890000Y-6010000I20000J0D01*
G01*
X1300000Y-1770000D02*
G75*
G02*
X1260000Y-1770000I-20000J0D01*
G01*
X1260000Y-1770000D02*
G75*
G02*
X1300000Y-1770000I20000J0D01*
G01*
X1460000Y-460000D02*
G75*
G02*
X1420000Y-460000I-20000J0D01*
G01*
X1420000Y-460000D02*
G75*
G02*
X1460000Y-460000I20000J0D01*
G01*
X1560000Y-4310000D02*
G75*
G02*
X1520000Y-4310000I-20000J0D01*
G01*
X1520000Y-4310000D02*
G75*
G02*
X1560000Y-4310000I20000J0D01*
G01*
X1580000Y-190000D02*
G75*
G02*
X1540000Y-190000I-20000J0D01*
G01*
X1540000Y-190000D02*
G75*
G02*
X1580000Y-190000I20000J0D01*
G01*
X1770000Y-6220000D02*
G75*
G02*
X1730000Y-6220000I-20000J0D01*
G01*
X1730000Y-6220000D02*
G75*
G02*
X1770000Y-6220000I20000J0D01*
G01*
X2370000Y-2430000D02*
G75*
G02*
X2330000Y-2430000I-20000J0D01*
G01*
X2330000Y-2430000D02*
G75*
G02*
X2370000Y-2430000I20000J0D01*
G01*
X3200000Y-1770000D02*
G75*
G02*
X3160000Y-1770000I-20000J0D01*
G01*
X3160000Y-1770000D02*
G75*
G02*
X3200000Y-1770000I20000J0D01*
G01*
X3460000Y-4320000D02*
G75*
G02*
X3420000Y-4320000I-20000J0D01*
G01*
X3420000Y-4320000D02*
G75*
G02*
X3460000Y-4320000I20000J0D01*
G01*
X4150000Y-5540000D02*
G75*
G02*
X4110000Y-5540000I-20000J0D01*
G01*
X4110000Y-5540000D02*
G75*
G02*
X4150000Y-5540000I20000J0D01*
G01*
X4270000Y-2420000D02*
G75*
G02*
X4230000Y-2420000I-20000J0D01*
G01*
X4230000Y-2420000D02*
G75*
G02*
X4270000Y-2420000I20000J0D01*
G01*
X4360000Y-5375000D02*
G75*
G02*
X4320000Y-5375000I-20000J0D01*
G01*
X4320000Y-5375000D02*
G75*
G02*
X4360000Y-5375000I20000J0D01*
G01*
X4490000Y-5850000D02*
G75*
G02*
X4450000Y-5850000I-20000J0D01*
G01*
X4450000Y-5850000D02*
G75*
G02*
X4490000Y-5850000I20000J0D01*
G01*
X4570000Y-4940000D02*
G75*
G02*
X4530000Y-4940000I-20000J0D01*
G01*
X4530000Y-4940000D02*
G75*
G02*
X4570000Y-4940000I20000J0D01*
G01*
X4670000Y-6210000D02*
G75*
G02*
X4630000Y-6210000I-20000J0D01*
G01*
X4630000Y-6210000D02*
G75*
G02*
X4670000Y-6210000I20000J0D01*
G01*
X5090000Y-1770000D02*
G75*
G02*
X5050000Y-1770000I-20000J0D01*
G01*
X5050000Y-1770000D02*
G75*
G02*
X5090000Y-1770000I20000J0D01*
G01*
X5180000Y-650000D02*
G75*
G02*
X5140000Y-650000I-20000J0D01*
G01*
X5140000Y-650000D02*
G75*
G02*
X5180000Y-650000I20000J0D01*
G01*
X5360000Y-780000D02*
G75*
G02*
X5320000Y-780000I-20000J0D01*
G01*
X5320000Y-780000D02*
G75*
G02*
X5360000Y-780000I20000J0D01*
G01*
X5360000Y-4320000D02*
G75*
G02*
X5320000Y-4320000I-20000J0D01*
G01*
X5320000Y-4320000D02*
G75*
G02*
X5360000Y-4320000I20000J0D01*
G01*
X5420000Y-1340000D02*
G75*
G02*
X5380000Y-1340000I-20000J0D01*
G01*
X5380000Y-1340000D02*
G75*
G02*
X5420000Y-1340000I20000J0D01*
G01*
X5512500Y-6320000D02*
G75*
G02*
X5472500Y-6320000I-20000J0D01*
G01*
X5472500Y-6320000D02*
G75*
G02*
X5512500Y-6320000I20000J0D01*
G01*
X5610000Y-1540000D02*
G75*
G02*
X5570000Y-1540000I-20000J0D01*
G01*
X5570000Y-1540000D02*
G75*
G02*
X5610000Y-1540000I20000J0D01*
G01*
X5895000Y-790000D02*
G75*
G02*
X5855000Y-790000I-20000J0D01*
G01*
X5855000Y-790000D02*
G75*
G02*
X5895000Y-790000I20000J0D01*
G01*
X5950000Y-1150000D02*
G75*
G02*
X5910000Y-1150000I-20000J0D01*
G01*
X5910000Y-1150000D02*
G75*
G02*
X5950000Y-1150000I20000J0D01*
G01*
X5950000Y-1490000D02*
G75*
G02*
X5910000Y-1490000I-20000J0D01*
G01*
X5910000Y-1490000D02*
G75*
G02*
X5950000Y-1490000I20000J0D01*
G01*
X6080000Y-6411000D02*
G75*
G02*
X6040000Y-6411000I-20000J0D01*
G01*
X6040000Y-6411000D02*
G75*
G02*
X6080000Y-6411000I20000J0D01*
G01*
X6110000Y-5930000D02*
G75*
G02*
X6070000Y-5930000I-20000J0D01*
G01*
X6070000Y-5930000D02*
G75*
G02*
X6110000Y-5930000I20000J0D01*
G01*
X6170000Y-2430000D02*
G75*
G02*
X6130000Y-2430000I-20000J0D01*
G01*
X6130000Y-2430000D02*
G75*
G02*
X6170000Y-2430000I20000J0D01*
G01*
X6180000Y-732500D02*
G75*
G02*
X6140000Y-732500I-20000J0D01*
G01*
X6140000Y-732500D02*
G75*
G02*
X6180000Y-732500I20000J0D01*
G01*
X6440000Y-6010000D02*
G75*
G02*
X6400000Y-6010000I-20000J0D01*
G01*
X6400000Y-6010000D02*
G75*
G02*
X6440000Y-6010000I20000J0D01*
G01*
X6480000Y-5455000D02*
G75*
G02*
X6440000Y-5455000I-20000J0D01*
G01*
X6440000Y-5455000D02*
G75*
G02*
X6480000Y-5455000I20000J0D01*
G01*
X6590000Y-5930000D02*
G75*
G02*
X6550000Y-5930000I-20000J0D01*
G01*
X6550000Y-5930000D02*
G75*
G02*
X6590000Y-5930000I20000J0D01*
G01*
X6690000Y-5455000D02*
G75*
G02*
X6650000Y-5455000I-20000J0D01*
G01*
X6650000Y-5455000D02*
G75*
G02*
X6690000Y-5455000I20000J0D01*
G01*
X6990000Y-1770000D02*
G75*
G02*
X6950000Y-1770000I-20000J0D01*
G01*
X6950000Y-1770000D02*
G75*
G02*
X6990000Y-1770000I20000J0D01*
G01*
X7260000Y-4330000D02*
G75*
G02*
X7220000Y-4330000I-20000J0D01*
G01*
X7220000Y-4330000D02*
G75*
G02*
X7260000Y-4330000I20000J0D01*
G01*
X7760000Y-6750000D02*
G75*
G02*
X7720000Y-6750000I-20000J0D01*
G01*
X7720000Y-6750000D02*
G75*
G02*
X7760000Y-6750000I20000J0D01*
G01*
X7760000Y-7030000D02*
G75*
G02*
X7720000Y-7030000I-20000J0D01*
G01*
X7720000Y-7030000D02*
G75*
G02*
X7760000Y-7030000I20000J0D01*
G01*
X7970000Y-6720000D02*
G75*
G02*
X7930000Y-6720000I-20000J0D01*
G01*
X7930000Y-6720000D02*
G75*
G02*
X7970000Y-6720000I20000J0D01*
G01*
X8050000Y-6480000D02*
G75*
G02*
X8010000Y-6480000I-20000J0D01*
G01*
X8010000Y-6480000D02*
G75*
G02*
X8050000Y-6480000I20000J0D01*
G01*
X8070000Y-2430000D02*
G75*
G02*
X8030000Y-2430000I-20000J0D01*
G01*
X8030000Y-2430000D02*
G75*
G02*
X8070000Y-2430000I20000J0D01*
G01*
X8890000Y-1770000D02*
G75*
G02*
X8850000Y-1770000I-20000J0D01*
G01*
X8850000Y-1770000D02*
G75*
G02*
X8890000Y-1770000I20000J0D01*
G01*
X9190000Y-5810000D02*
G75*
G02*
X9150000Y-5810000I-20000J0D01*
G01*
X9150000Y-5810000D02*
G75*
G02*
X9190000Y-5810000I20000J0D01*
G01*
X5018000Y-90000D02*
X5018000Y-150000D01*
X4988000Y-120000D02*
X5048000Y-120000D01*
X5048000Y-170000D02*
X5048000Y-70000D01*
X4988000Y-70000D02*
G75*
G02*
X5048000Y-70000I30000J0D01*
G01*
X4988000Y-70000D02*
X4988000Y-170000D01*
X4988000Y-170000D02*
G75*
G03*
X5048000Y-170000I30000J0D01*
G01*
X5018000Y-490000D02*
X5018000Y-550000D01*
X4988000Y-520000D02*
X5048000Y-520000D01*
X5048000Y-550000D02*
X5048000Y-490000D01*
X4988000Y-490000D02*
G75*
G02*
X5048000Y-490000I30000J0D01*
G01*
X4988000Y-490000D02*
X4988000Y-550000D01*
X4988000Y-550000D02*
G75*
G03*
X5048000Y-550000I30000J0D01*
G01*
X6142000Y-90000D02*
X6142000Y-150000D01*
X6112000Y-120000D02*
X6172000Y-120000D01*
X6172000Y-170000D02*
X6172000Y-70000D01*
X6112000Y-70000D02*
G75*
G02*
X6172000Y-70000I30000J0D01*
G01*
X6112000Y-70000D02*
X6112000Y-170000D01*
X6112000Y-170000D02*
G75*
G03*
X6172000Y-170000I30000J0D01*
G01*
X6142000Y-490000D02*
X6142000Y-550000D01*
X6112000Y-520000D02*
X6172000Y-520000D01*
X6172000Y-550000D02*
X6172000Y-490000D01*
X6112000Y-490000D02*
G75*
G02*
X6172000Y-490000I30000J0D01*
G01*
X6112000Y-490000D02*
X6112000Y-550000D01*
X6112000Y-550000D02*
G75*
G03*
X6172000Y-550000I30000J0D01*
G01*
D13*
X623034Y-1458033D02*
X623034Y-1351967D01*
X516966Y-1351967D01*
X516966Y-1458033D01*
X623034Y-1458033D01*
X923033Y-5258034D02*
X923033Y-5151967D01*
X816966Y-5151967D01*
X816966Y-5258034D01*
X923033Y-5258034D01*
X1098034Y-7158033D02*
X1098034Y-7051966D01*
X991966Y-7051966D01*
X991966Y-7158033D01*
X1098034Y-7158033D01*
X1323034Y-1353034D02*
X1323034Y-1246967D01*
X1216967Y-1246967D01*
X1216967Y-1353034D01*
X1323034Y-1353034D01*
X1623033Y-5153034D02*
X1623033Y-5046967D01*
X1516966Y-5046967D01*
X1516966Y-5153034D01*
X1623033Y-5153034D01*
X1723033Y-3358033D02*
X1723033Y-3251966D01*
X1616966Y-3251966D01*
X1616966Y-3358033D01*
X1723033Y-3358033D01*
X1798033Y-7053033D02*
X1798033Y-6946966D01*
X1691966Y-6946966D01*
X1691966Y-7053033D01*
X1798033Y-7053033D01*
X2423034Y-3253033D02*
X2423034Y-3146966D01*
X2316967Y-3146966D01*
X2316967Y-3253033D01*
X2423034Y-3253033D01*
X2523034Y-1458033D02*
X2523034Y-1351967D01*
X2416967Y-1351967D01*
X2416967Y-1458033D01*
X2523034Y-1458033D01*
X2823033Y-5258034D02*
X2823033Y-5151967D01*
X2716967Y-5151967D01*
X2716967Y-5258034D01*
X2823033Y-5258034D01*
X3223033Y-1353034D02*
X3223033Y-1246967D01*
X3116966Y-1246967D01*
X3116966Y-1353034D01*
X3223033Y-1353034D01*
X3523033Y-5153034D02*
X3523033Y-5046967D01*
X3416966Y-5046967D01*
X3416966Y-5153034D01*
X3523033Y-5153034D01*
X3623033Y-3358033D02*
X3623033Y-3251966D01*
X3516966Y-3251966D01*
X3516966Y-3358033D01*
X3623033Y-3358033D01*
X3948033Y-7158033D02*
X3948033Y-7051966D01*
X3841966Y-7051966D01*
X3841966Y-7158033D01*
X3948033Y-7158033D01*
X4323034Y-3253033D02*
X4323034Y-3146966D01*
X4216967Y-3146966D01*
X4216967Y-3253033D01*
X4323034Y-3253033D01*
X4423034Y-1458033D02*
X4423034Y-1351967D01*
X4316967Y-1351967D01*
X4316967Y-1458033D01*
X4423034Y-1458033D01*
X4648034Y-7053033D02*
X4648034Y-6946966D01*
X4541967Y-6946966D01*
X4541967Y-7053033D01*
X4648034Y-7053033D01*
X4723034Y-5258034D02*
X4723034Y-5151967D01*
X4616967Y-5151967D01*
X4616967Y-5258034D01*
X4723034Y-5258034D01*
X5123034Y-1353034D02*
X5123034Y-1246967D01*
X5016967Y-1246967D01*
X5016967Y-1353034D01*
X5123034Y-1353034D01*
X5423034Y-5153034D02*
X5423034Y-5046967D01*
X5316967Y-5046967D01*
X5316967Y-5153034D01*
X5423034Y-5153034D01*
X5523034Y-3358033D02*
X5523034Y-3251966D01*
X5416967Y-3251966D01*
X5416967Y-3358033D01*
X5523034Y-3358033D01*
X6223033Y-3253033D02*
X6223033Y-3146966D01*
X6116966Y-3146966D01*
X6116966Y-3253033D01*
X6223033Y-3253033D01*
X6323033Y-1458033D02*
X6323033Y-1351967D01*
X6216966Y-1351967D01*
X6216966Y-1458033D01*
X6323033Y-1458033D01*
X6623033Y-5258034D02*
X6623033Y-5151967D01*
X6516966Y-5151967D01*
X6516966Y-5258034D01*
X6623033Y-5258034D01*
X7023033Y-1353034D02*
X7023033Y-1246967D01*
X6916966Y-1246967D01*
X6916966Y-1353034D01*
X7023033Y-1353034D01*
X7323033Y-5153034D02*
X7323033Y-5046967D01*
X7216966Y-5046967D01*
X7216966Y-5153034D01*
X7323033Y-5153034D01*
X7423033Y-3358033D02*
X7423033Y-3251966D01*
X7316966Y-3251966D01*
X7316966Y-3358033D01*
X7423033Y-3358033D01*
X8123033Y-3253033D02*
X8123033Y-3146966D01*
X8016966Y-3146966D01*
X8016966Y-3253033D01*
X8123033Y-3253033D01*
X8223033Y-1458033D02*
X8223033Y-1351967D01*
X8116966Y-1351967D01*
X8116966Y-1458033D01*
X8223033Y-1458033D01*
X8523034Y-5258034D02*
X8523034Y-5151967D01*
X8416967Y-5151967D01*
X8416967Y-5258034D01*
X8523034Y-5258034D01*
X8923034Y-1353034D02*
X8923034Y-1246967D01*
X8816967Y-1246967D01*
X8816967Y-1353034D01*
X8923034Y-1353034D01*
X9223034Y-5153034D02*
X9223034Y-5046967D01*
X9116967Y-5046967D01*
X9116967Y-5153034D01*
X9223034Y-5153034D01*
D12*
X255777Y-7676484D02*
X255777Y-7476484D01*
X255777Y-7476484D02*
X303396Y-7476484D01*
X303396Y-7476484D02*
X331967Y-7486008D01*
X331967Y-7486008D02*
X351015Y-7505055D01*
X351015Y-7505055D02*
X360539Y-7524103D01*
X360539Y-7524103D02*
X370062Y-7562198D01*
X370062Y-7562198D02*
X370062Y-7590769D01*
X370062Y-7590769D02*
X360539Y-7628865D01*
X360539Y-7628865D02*
X351015Y-7647912D01*
X351015Y-7647912D02*
X331967Y-7666960D01*
X331967Y-7666960D02*
X303396Y-7676484D01*
X303396Y-7676484D02*
X255777Y-7676484D01*
X455777Y-7676484D02*
X455777Y-7543150D01*
X455777Y-7581246D02*
X465301Y-7562198D01*
X465301Y-7562198D02*
X474824Y-7552674D01*
X474824Y-7552674D02*
X493872Y-7543150D01*
X493872Y-7543150D02*
X512920Y-7543150D01*
X579586Y-7676484D02*
X579586Y-7543150D01*
X579586Y-7476484D02*
X570063Y-7486008D01*
X570063Y-7486008D02*
X579586Y-7495531D01*
X579586Y-7495531D02*
X589110Y-7486008D01*
X589110Y-7486008D02*
X579586Y-7476484D01*
X579586Y-7476484D02*
X579586Y-7495531D01*
X703396Y-7676484D02*
X684348Y-7666960D01*
X684348Y-7666960D02*
X674824Y-7647912D01*
X674824Y-7647912D02*
X674824Y-7476484D01*
X808158Y-7676484D02*
X789110Y-7666960D01*
X789110Y-7666960D02*
X779586Y-7647912D01*
X779586Y-7647912D02*
X779586Y-7476484D01*
X1036729Y-7676484D02*
X1036729Y-7476484D01*
X1036729Y-7476484D02*
X1103396Y-7619341D01*
X1103396Y-7619341D02*
X1170063Y-7476484D01*
X1170063Y-7476484D02*
X1170063Y-7676484D01*
X1351015Y-7676484D02*
X1351015Y-7571722D01*
X1351015Y-7571722D02*
X1341491Y-7552674D01*
X1341491Y-7552674D02*
X1322444Y-7543150D01*
X1322444Y-7543150D02*
X1284348Y-7543150D01*
X1284348Y-7543150D02*
X1265301Y-7552674D01*
X1351015Y-7666960D02*
X1331967Y-7676484D01*
X1331967Y-7676484D02*
X1284348Y-7676484D01*
X1284348Y-7676484D02*
X1265301Y-7666960D01*
X1265301Y-7666960D02*
X1255777Y-7647912D01*
X1255777Y-7647912D02*
X1255777Y-7628865D01*
X1255777Y-7628865D02*
X1265301Y-7609817D01*
X1265301Y-7609817D02*
X1284348Y-7600293D01*
X1284348Y-7600293D02*
X1331967Y-7600293D01*
X1331967Y-7600293D02*
X1351015Y-7590769D01*
X1446253Y-7543150D02*
X1446253Y-7743150D01*
X1446253Y-7552674D02*
X1465301Y-7543150D01*
X1465301Y-7543150D02*
X1503396Y-7543150D01*
X1503396Y-7543150D02*
X1522443Y-7552674D01*
X1522443Y-7552674D02*
X1531967Y-7562198D01*
X1531967Y-7562198D02*
X1541491Y-7581246D01*
X1541491Y-7581246D02*
X1541491Y-7638388D01*
X1541491Y-7638388D02*
X1531967Y-7657436D01*
X1531967Y-7657436D02*
X1522443Y-7666960D01*
X1522443Y-7666960D02*
X1503396Y-7676484D01*
X1503396Y-7676484D02*
X1465301Y-7676484D01*
X1465301Y-7676484D02*
X1446253Y-7666960D01*
X1627205Y-7657436D02*
X1636729Y-7666960D01*
X1636729Y-7666960D02*
X1627205Y-7676484D01*
X1627205Y-7676484D02*
X1617682Y-7666960D01*
X1617682Y-7666960D02*
X1627205Y-7657436D01*
X1627205Y-7657436D02*
X1627205Y-7676484D01*
X1627205Y-7552674D02*
X1636729Y-7562198D01*
X1636729Y-7562198D02*
X1627205Y-7571722D01*
X1627205Y-7571722D02*
X1617682Y-7562198D01*
X1617682Y-7562198D02*
X1627205Y-7552674D01*
X1627205Y-7552674D02*
X1627205Y-7571722D01*
D10*
X-35000Y-7990000D02*
X-5000Y-8020000D01*
X-5000Y-7990000D02*
X-35000Y-8020000D01*
D12*
X293872Y-7896484D02*
X312920Y-7896484D01*
X312920Y-7896484D02*
X331967Y-7906008D01*
X331967Y-7906008D02*
X341491Y-7915531D01*
X341491Y-7915531D02*
X351015Y-7934579D01*
X351015Y-7934579D02*
X360539Y-7972674D01*
X360539Y-7972674D02*
X360539Y-8020293D01*
X360539Y-8020293D02*
X351015Y-8058388D01*
X351015Y-8058388D02*
X341491Y-8077436D01*
X341491Y-8077436D02*
X331967Y-8086960D01*
X331967Y-8086960D02*
X312920Y-8096484D01*
X312920Y-8096484D02*
X293872Y-8096484D01*
X293872Y-8096484D02*
X274824Y-8086960D01*
X274824Y-8086960D02*
X265301Y-8077436D01*
X265301Y-8077436D02*
X255777Y-8058388D01*
X255777Y-8058388D02*
X246253Y-8020293D01*
X246253Y-8020293D02*
X246253Y-7972674D01*
X246253Y-7972674D02*
X255777Y-7934579D01*
X255777Y-7934579D02*
X265301Y-7915531D01*
X265301Y-7915531D02*
X274824Y-7906008D01*
X274824Y-7906008D02*
X293872Y-7896484D01*
X446253Y-8077436D02*
X455777Y-8086960D01*
X455777Y-8086960D02*
X446253Y-8096484D01*
X446253Y-8096484D02*
X436729Y-8086960D01*
X436729Y-8086960D02*
X446253Y-8077436D01*
X446253Y-8077436D02*
X446253Y-8096484D01*
X522443Y-7896484D02*
X646253Y-7896484D01*
X646253Y-7896484D02*
X579586Y-7972674D01*
X579586Y-7972674D02*
X608158Y-7972674D01*
X608158Y-7972674D02*
X627205Y-7982198D01*
X627205Y-7982198D02*
X636729Y-7991722D01*
X636729Y-7991722D02*
X646253Y-8010769D01*
X646253Y-8010769D02*
X646253Y-8058388D01*
X646253Y-8058388D02*
X636729Y-8077436D01*
X636729Y-8077436D02*
X627205Y-8086960D01*
X627205Y-8086960D02*
X608158Y-8096484D01*
X608158Y-8096484D02*
X551015Y-8096484D01*
X551015Y-8096484D02*
X531967Y-8086960D01*
X531967Y-8086960D02*
X522443Y-8077436D01*
X770062Y-7896484D02*
X789110Y-7896484D01*
X789110Y-7896484D02*
X808158Y-7906008D01*
X808158Y-7906008D02*
X817682Y-7915531D01*
X817682Y-7915531D02*
X827205Y-7934579D01*
X827205Y-7934579D02*
X836729Y-7972674D01*
X836729Y-7972674D02*
X836729Y-8020293D01*
X836729Y-8020293D02*
X827205Y-8058388D01*
X827205Y-8058388D02*
X817682Y-8077436D01*
X817682Y-8077436D02*
X808158Y-8086960D01*
X808158Y-8086960D02*
X789110Y-8096484D01*
X789110Y-8096484D02*
X770062Y-8096484D01*
X770062Y-8096484D02*
X751015Y-8086960D01*
X751015Y-8086960D02*
X741491Y-8077436D01*
X741491Y-8077436D02*
X731967Y-8058388D01*
X731967Y-8058388D02*
X722443Y-8020293D01*
X722443Y-8020293D02*
X722443Y-7972674D01*
X722443Y-7972674D02*
X731967Y-7934579D01*
X731967Y-7934579D02*
X741491Y-7915531D01*
X741491Y-7915531D02*
X751015Y-7906008D01*
X751015Y-7906008D02*
X770062Y-7896484D01*
X960539Y-7896484D02*
X979586Y-7896484D01*
X979586Y-7896484D02*
X998634Y-7906008D01*
X998634Y-7906008D02*
X1008158Y-7915531D01*
X1008158Y-7915531D02*
X1017682Y-7934579D01*
X1017682Y-7934579D02*
X1027205Y-7972674D01*
X1027205Y-7972674D02*
X1027205Y-8020293D01*
X1027205Y-8020293D02*
X1017682Y-8058388D01*
X1017682Y-8058388D02*
X1008158Y-8077436D01*
X1008158Y-8077436D02*
X998634Y-8086960D01*
X998634Y-8086960D02*
X979586Y-8096484D01*
X979586Y-8096484D02*
X960539Y-8096484D01*
X960539Y-8096484D02*
X941491Y-8086960D01*
X941491Y-8086960D02*
X931967Y-8077436D01*
X931967Y-8077436D02*
X922443Y-8058388D01*
X922443Y-8058388D02*
X912920Y-8020293D01*
X912920Y-8020293D02*
X912920Y-7972674D01*
X912920Y-7972674D02*
X922443Y-7934579D01*
X922443Y-7934579D02*
X931967Y-7915531D01*
X931967Y-7915531D02*
X941491Y-7906008D01*
X941491Y-7906008D02*
X960539Y-7896484D01*
X1112920Y-8096484D02*
X1112920Y-7963150D01*
X1112920Y-7982198D02*
X1122444Y-7972674D01*
X1122444Y-7972674D02*
X1141491Y-7963150D01*
X1141491Y-7963150D02*
X1170063Y-7963150D01*
X1170063Y-7963150D02*
X1189110Y-7972674D01*
X1189110Y-7972674D02*
X1198634Y-7991722D01*
X1198634Y-7991722D02*
X1198634Y-8096484D01*
X1198634Y-7991722D02*
X1208158Y-7972674D01*
X1208158Y-7972674D02*
X1227205Y-7963150D01*
X1227205Y-7963150D02*
X1255777Y-7963150D01*
X1255777Y-7963150D02*
X1274825Y-7972674D01*
X1274825Y-7972674D02*
X1284348Y-7991722D01*
X1284348Y-7991722D02*
X1284348Y-8096484D01*
X1379586Y-8096484D02*
X1379586Y-7963150D01*
X1379586Y-7982198D02*
X1389110Y-7972674D01*
X1389110Y-7972674D02*
X1408158Y-7963150D01*
X1408158Y-7963150D02*
X1436729Y-7963150D01*
X1436729Y-7963150D02*
X1455777Y-7972674D01*
X1455777Y-7972674D02*
X1465301Y-7991722D01*
X1465301Y-7991722D02*
X1465301Y-8096484D01*
X1465301Y-7991722D02*
X1474824Y-7972674D01*
X1474824Y-7972674D02*
X1493872Y-7963150D01*
X1493872Y-7963150D02*
X1522443Y-7963150D01*
X1522443Y-7963150D02*
X1541491Y-7972674D01*
X1541491Y-7972674D02*
X1551015Y-7991722D01*
X1551015Y-7991722D02*
X1551015Y-8096484D01*
X1941491Y-7886960D02*
X1770063Y-8144103D01*
X2198634Y-7896484D02*
X2217682Y-7896484D01*
X2217682Y-7896484D02*
X2236729Y-7906008D01*
X2236729Y-7906008D02*
X2246253Y-7915531D01*
X2246253Y-7915531D02*
X2255777Y-7934579D01*
X2255777Y-7934579D02*
X2265301Y-7972674D01*
X2265301Y-7972674D02*
X2265301Y-8020293D01*
X2265301Y-8020293D02*
X2255777Y-8058388D01*
X2255777Y-8058388D02*
X2246253Y-8077436D01*
X2246253Y-8077436D02*
X2236729Y-8086960D01*
X2236729Y-8086960D02*
X2217682Y-8096484D01*
X2217682Y-8096484D02*
X2198634Y-8096484D01*
X2198634Y-8096484D02*
X2179587Y-8086960D01*
X2179587Y-8086960D02*
X2170063Y-8077436D01*
X2170063Y-8077436D02*
X2160539Y-8058388D01*
X2160539Y-8058388D02*
X2151015Y-8020293D01*
X2151015Y-8020293D02*
X2151015Y-7972674D01*
X2151015Y-7972674D02*
X2160539Y-7934579D01*
X2160539Y-7934579D02*
X2170063Y-7915531D01*
X2170063Y-7915531D02*
X2179587Y-7906008D01*
X2179587Y-7906008D02*
X2198634Y-7896484D01*
X2351015Y-8077436D02*
X2360539Y-8086960D01*
X2360539Y-8086960D02*
X2351015Y-8096484D01*
X2351015Y-8096484D02*
X2341491Y-8086960D01*
X2341491Y-8086960D02*
X2351015Y-8077436D01*
X2351015Y-8077436D02*
X2351015Y-8096484D01*
X2484348Y-7896484D02*
X2503396Y-7896484D01*
X2503396Y-7896484D02*
X2522444Y-7906008D01*
X2522444Y-7906008D02*
X2531968Y-7915531D01*
X2531968Y-7915531D02*
X2541491Y-7934579D01*
X2541491Y-7934579D02*
X2551015Y-7972674D01*
X2551015Y-7972674D02*
X2551015Y-8020293D01*
X2551015Y-8020293D02*
X2541491Y-8058388D01*
X2541491Y-8058388D02*
X2531968Y-8077436D01*
X2531968Y-8077436D02*
X2522444Y-8086960D01*
X2522444Y-8086960D02*
X2503396Y-8096484D01*
X2503396Y-8096484D02*
X2484348Y-8096484D01*
X2484348Y-8096484D02*
X2465301Y-8086960D01*
X2465301Y-8086960D02*
X2455777Y-8077436D01*
X2455777Y-8077436D02*
X2446253Y-8058388D01*
X2446253Y-8058388D02*
X2436729Y-8020293D01*
X2436729Y-8020293D02*
X2436729Y-7972674D01*
X2436729Y-7972674D02*
X2446253Y-7934579D01*
X2446253Y-7934579D02*
X2455777Y-7915531D01*
X2455777Y-7915531D02*
X2465301Y-7906008D01*
X2465301Y-7906008D02*
X2484348Y-7896484D01*
X2741491Y-8096484D02*
X2627206Y-8096484D01*
X2684348Y-8096484D02*
X2684348Y-7896484D01*
X2684348Y-7896484D02*
X2665301Y-7925055D01*
X2665301Y-7925055D02*
X2646253Y-7944103D01*
X2646253Y-7944103D02*
X2627206Y-7953627D01*
X2931967Y-8096484D02*
X2817682Y-8096484D01*
X2874825Y-8096484D02*
X2874825Y-7896484D01*
X2874825Y-7896484D02*
X2855777Y-7925055D01*
X2855777Y-7925055D02*
X2836729Y-7944103D01*
X2836729Y-7944103D02*
X2817682Y-7953627D01*
X3046253Y-7982198D02*
X3027206Y-7972674D01*
X3027206Y-7972674D02*
X3017682Y-7963150D01*
X3017682Y-7963150D02*
X3008158Y-7944103D01*
X3008158Y-7944103D02*
X3008158Y-7934579D01*
X3008158Y-7934579D02*
X3017682Y-7915531D01*
X3017682Y-7915531D02*
X3027206Y-7906008D01*
X3027206Y-7906008D02*
X3046253Y-7896484D01*
X3046253Y-7896484D02*
X3084348Y-7896484D01*
X3084348Y-7896484D02*
X3103396Y-7906008D01*
X3103396Y-7906008D02*
X3112920Y-7915531D01*
X3112920Y-7915531D02*
X3122444Y-7934579D01*
X3122444Y-7934579D02*
X3122444Y-7944103D01*
X3122444Y-7944103D02*
X3112920Y-7963150D01*
X3112920Y-7963150D02*
X3103396Y-7972674D01*
X3103396Y-7972674D02*
X3084348Y-7982198D01*
X3084348Y-7982198D02*
X3046253Y-7982198D01*
X3046253Y-7982198D02*
X3027206Y-7991722D01*
X3027206Y-7991722D02*
X3017682Y-8001246D01*
X3017682Y-8001246D02*
X3008158Y-8020293D01*
X3008158Y-8020293D02*
X3008158Y-8058388D01*
X3008158Y-8058388D02*
X3017682Y-8077436D01*
X3017682Y-8077436D02*
X3027206Y-8086960D01*
X3027206Y-8086960D02*
X3046253Y-8096484D01*
X3046253Y-8096484D02*
X3084348Y-8096484D01*
X3084348Y-8096484D02*
X3103396Y-8086960D01*
X3103396Y-8086960D02*
X3112920Y-8077436D01*
X3112920Y-8077436D02*
X3122444Y-8058388D01*
X3122444Y-8058388D02*
X3122444Y-8020293D01*
X3122444Y-8020293D02*
X3112920Y-8001246D01*
X3112920Y-8001246D02*
X3103396Y-7991722D01*
X3103396Y-7991722D02*
X3084348Y-7982198D01*
X3198634Y-7896484D02*
X3198634Y-7934579D01*
X3274825Y-7896484D02*
X3274825Y-7934579D01*
X3570063Y-8172674D02*
X3560539Y-8163150D01*
X3560539Y-8163150D02*
X3541491Y-8134579D01*
X3541491Y-8134579D02*
X3531968Y-8115531D01*
X3531968Y-8115531D02*
X3522444Y-8086960D01*
X3522444Y-8086960D02*
X3512920Y-8039341D01*
X3512920Y-8039341D02*
X3512920Y-8001246D01*
X3512920Y-8001246D02*
X3522444Y-7953627D01*
X3522444Y-7953627D02*
X3531968Y-7925055D01*
X3531968Y-7925055D02*
X3541491Y-7906008D01*
X3541491Y-7906008D02*
X3560539Y-7877436D01*
X3560539Y-7877436D02*
X3570063Y-7867912D01*
X3741491Y-7896484D02*
X3646253Y-7896484D01*
X3646253Y-7896484D02*
X3636729Y-7991722D01*
X3636729Y-7991722D02*
X3646253Y-7982198D01*
X3646253Y-7982198D02*
X3665301Y-7972674D01*
X3665301Y-7972674D02*
X3712920Y-7972674D01*
X3712920Y-7972674D02*
X3731968Y-7982198D01*
X3731968Y-7982198D02*
X3741491Y-7991722D01*
X3741491Y-7991722D02*
X3751015Y-8010769D01*
X3751015Y-8010769D02*
X3751015Y-8058388D01*
X3751015Y-8058388D02*
X3741491Y-8077436D01*
X3741491Y-8077436D02*
X3731968Y-8086960D01*
X3731968Y-8086960D02*
X3712920Y-8096484D01*
X3712920Y-8096484D02*
X3665301Y-8096484D01*
X3665301Y-8096484D02*
X3646253Y-8086960D01*
X3646253Y-8086960D02*
X3636729Y-8077436D01*
X3931968Y-7896484D02*
X3836729Y-7896484D01*
X3836729Y-7896484D02*
X3827206Y-7991722D01*
X3827206Y-7991722D02*
X3836729Y-7982198D01*
X3836729Y-7982198D02*
X3855777Y-7972674D01*
X3855777Y-7972674D02*
X3903396Y-7972674D01*
X3903396Y-7972674D02*
X3922444Y-7982198D01*
X3922444Y-7982198D02*
X3931968Y-7991722D01*
X3931968Y-7991722D02*
X3941491Y-8010769D01*
X3941491Y-8010769D02*
X3941491Y-8058388D01*
X3941491Y-8058388D02*
X3931968Y-8077436D01*
X3931968Y-8077436D02*
X3922444Y-8086960D01*
X3922444Y-8086960D02*
X3903396Y-8096484D01*
X3903396Y-8096484D02*
X3855777Y-8096484D01*
X3855777Y-8096484D02*
X3836729Y-8086960D01*
X3836729Y-8086960D02*
X3827206Y-8077436D01*
X4179587Y-8096484D02*
X4179587Y-7896484D01*
X4265301Y-8096484D02*
X4265301Y-7991722D01*
X4265301Y-7991722D02*
X4255777Y-7972674D01*
X4255777Y-7972674D02*
X4236730Y-7963150D01*
X4236730Y-7963150D02*
X4208158Y-7963150D01*
X4208158Y-7963150D02*
X4189110Y-7972674D01*
X4189110Y-7972674D02*
X4179587Y-7982198D01*
X4389111Y-8096484D02*
X4370063Y-8086960D01*
X4370063Y-8086960D02*
X4360539Y-8077436D01*
X4360539Y-8077436D02*
X4351015Y-8058388D01*
X4351015Y-8058388D02*
X4351015Y-8001246D01*
X4351015Y-8001246D02*
X4360539Y-7982198D01*
X4360539Y-7982198D02*
X4370063Y-7972674D01*
X4370063Y-7972674D02*
X4389111Y-7963150D01*
X4389111Y-7963150D02*
X4417682Y-7963150D01*
X4417682Y-7963150D02*
X4436730Y-7972674D01*
X4436730Y-7972674D02*
X4446253Y-7982198D01*
X4446253Y-7982198D02*
X4455777Y-8001246D01*
X4455777Y-8001246D02*
X4455777Y-8058388D01*
X4455777Y-8058388D02*
X4446253Y-8077436D01*
X4446253Y-8077436D02*
X4436730Y-8086960D01*
X4436730Y-8086960D02*
X4417682Y-8096484D01*
X4417682Y-8096484D02*
X4389111Y-8096484D01*
X4570063Y-8096484D02*
X4551015Y-8086960D01*
X4551015Y-8086960D02*
X4541492Y-8067912D01*
X4541492Y-8067912D02*
X4541492Y-7896484D01*
X4722444Y-8086960D02*
X4703396Y-8096484D01*
X4703396Y-8096484D02*
X4665301Y-8096484D01*
X4665301Y-8096484D02*
X4646253Y-8086960D01*
X4646253Y-8086960D02*
X4636730Y-8067912D01*
X4636730Y-8067912D02*
X4636730Y-7991722D01*
X4636730Y-7991722D02*
X4646253Y-7972674D01*
X4646253Y-7972674D02*
X4665301Y-7963150D01*
X4665301Y-7963150D02*
X4703396Y-7963150D01*
X4703396Y-7963150D02*
X4722444Y-7972674D01*
X4722444Y-7972674D02*
X4731968Y-7991722D01*
X4731968Y-7991722D02*
X4731968Y-8010769D01*
X4731968Y-8010769D02*
X4636730Y-8029817D01*
X4808158Y-8086960D02*
X4827206Y-8096484D01*
X4827206Y-8096484D02*
X4865301Y-8096484D01*
X4865301Y-8096484D02*
X4884349Y-8086960D01*
X4884349Y-8086960D02*
X4893873Y-8067912D01*
X4893873Y-8067912D02*
X4893873Y-8058388D01*
X4893873Y-8058388D02*
X4884349Y-8039341D01*
X4884349Y-8039341D02*
X4865301Y-8029817D01*
X4865301Y-8029817D02*
X4836730Y-8029817D01*
X4836730Y-8029817D02*
X4817682Y-8020293D01*
X4817682Y-8020293D02*
X4808158Y-8001246D01*
X4808158Y-8001246D02*
X4808158Y-7991722D01*
X4808158Y-7991722D02*
X4817682Y-7972674D01*
X4817682Y-7972674D02*
X4836730Y-7963150D01*
X4836730Y-7963150D02*
X4865301Y-7963150D01*
X4865301Y-7963150D02*
X4884349Y-7972674D01*
X4960539Y-8172674D02*
X4970063Y-8163150D01*
X4970063Y-8163150D02*
X4989111Y-8134579D01*
X4989111Y-8134579D02*
X4998634Y-8115531D01*
X4998634Y-8115531D02*
X5008158Y-8086960D01*
X5008158Y-8086960D02*
X5017682Y-8039341D01*
X5017682Y-8039341D02*
X5017682Y-8001246D01*
X5017682Y-8001246D02*
X5008158Y-7953627D01*
X5008158Y-7953627D02*
X4998634Y-7925055D01*
X4998634Y-7925055D02*
X4989111Y-7906008D01*
X4989111Y-7906008D02*
X4970063Y-7877436D01*
X4970063Y-7877436D02*
X4960539Y-7867912D01*
D10*
X-5000Y-8269000D02*
G75*
G02*
X-45000Y-8269000I-20000J0D01*
G01*
X-45000Y-8269000D02*
G75*
G02*
X-5000Y-8269000I20000J0D01*
G01*
D12*
X293872Y-8160484D02*
X312920Y-8160484D01*
X312920Y-8160484D02*
X331967Y-8170008D01*
X331967Y-8170008D02*
X341491Y-8179531D01*
X341491Y-8179531D02*
X351015Y-8198579D01*
X351015Y-8198579D02*
X360539Y-8236674D01*
X360539Y-8236674D02*
X360539Y-8284293D01*
X360539Y-8284293D02*
X351015Y-8322388D01*
X351015Y-8322388D02*
X341491Y-8341436D01*
X341491Y-8341436D02*
X331967Y-8350960D01*
X331967Y-8350960D02*
X312920Y-8360484D01*
X312920Y-8360484D02*
X293872Y-8360484D01*
X293872Y-8360484D02*
X274824Y-8350960D01*
X274824Y-8350960D02*
X265301Y-8341436D01*
X265301Y-8341436D02*
X255777Y-8322388D01*
X255777Y-8322388D02*
X246253Y-8284293D01*
X246253Y-8284293D02*
X246253Y-8236674D01*
X246253Y-8236674D02*
X255777Y-8198579D01*
X255777Y-8198579D02*
X265301Y-8179531D01*
X265301Y-8179531D02*
X274824Y-8170008D01*
X274824Y-8170008D02*
X293872Y-8160484D01*
X446253Y-8341436D02*
X455777Y-8350960D01*
X455777Y-8350960D02*
X446253Y-8360484D01*
X446253Y-8360484D02*
X436729Y-8350960D01*
X436729Y-8350960D02*
X446253Y-8341436D01*
X446253Y-8341436D02*
X446253Y-8360484D01*
X627205Y-8227150D02*
X627205Y-8360484D01*
X579586Y-8150960D02*
X531967Y-8293817D01*
X531967Y-8293817D02*
X655777Y-8293817D01*
X770062Y-8160484D02*
X789110Y-8160484D01*
X789110Y-8160484D02*
X808158Y-8170008D01*
X808158Y-8170008D02*
X817682Y-8179531D01*
X817682Y-8179531D02*
X827205Y-8198579D01*
X827205Y-8198579D02*
X836729Y-8236674D01*
X836729Y-8236674D02*
X836729Y-8284293D01*
X836729Y-8284293D02*
X827205Y-8322388D01*
X827205Y-8322388D02*
X817682Y-8341436D01*
X817682Y-8341436D02*
X808158Y-8350960D01*
X808158Y-8350960D02*
X789110Y-8360484D01*
X789110Y-8360484D02*
X770062Y-8360484D01*
X770062Y-8360484D02*
X751015Y-8350960D01*
X751015Y-8350960D02*
X741491Y-8341436D01*
X741491Y-8341436D02*
X731967Y-8322388D01*
X731967Y-8322388D02*
X722443Y-8284293D01*
X722443Y-8284293D02*
X722443Y-8236674D01*
X722443Y-8236674D02*
X731967Y-8198579D01*
X731967Y-8198579D02*
X741491Y-8179531D01*
X741491Y-8179531D02*
X751015Y-8170008D01*
X751015Y-8170008D02*
X770062Y-8160484D01*
X960539Y-8160484D02*
X979586Y-8160484D01*
X979586Y-8160484D02*
X998634Y-8170008D01*
X998634Y-8170008D02*
X1008158Y-8179531D01*
X1008158Y-8179531D02*
X1017682Y-8198579D01*
X1017682Y-8198579D02*
X1027205Y-8236674D01*
X1027205Y-8236674D02*
X1027205Y-8284293D01*
X1027205Y-8284293D02*
X1017682Y-8322388D01*
X1017682Y-8322388D02*
X1008158Y-8341436D01*
X1008158Y-8341436D02*
X998634Y-8350960D01*
X998634Y-8350960D02*
X979586Y-8360484D01*
X979586Y-8360484D02*
X960539Y-8360484D01*
X960539Y-8360484D02*
X941491Y-8350960D01*
X941491Y-8350960D02*
X931967Y-8341436D01*
X931967Y-8341436D02*
X922443Y-8322388D01*
X922443Y-8322388D02*
X912920Y-8284293D01*
X912920Y-8284293D02*
X912920Y-8236674D01*
X912920Y-8236674D02*
X922443Y-8198579D01*
X922443Y-8198579D02*
X931967Y-8179531D01*
X931967Y-8179531D02*
X941491Y-8170008D01*
X941491Y-8170008D02*
X960539Y-8160484D01*
X1112920Y-8360484D02*
X1112920Y-8227150D01*
X1112920Y-8246198D02*
X1122444Y-8236674D01*
X1122444Y-8236674D02*
X1141491Y-8227150D01*
X1141491Y-8227150D02*
X1170063Y-8227150D01*
X1170063Y-8227150D02*
X1189110Y-8236674D01*
X1189110Y-8236674D02*
X1198634Y-8255722D01*
X1198634Y-8255722D02*
X1198634Y-8360484D01*
X1198634Y-8255722D02*
X1208158Y-8236674D01*
X1208158Y-8236674D02*
X1227205Y-8227150D01*
X1227205Y-8227150D02*
X1255777Y-8227150D01*
X1255777Y-8227150D02*
X1274825Y-8236674D01*
X1274825Y-8236674D02*
X1284348Y-8255722D01*
X1284348Y-8255722D02*
X1284348Y-8360484D01*
X1379586Y-8360484D02*
X1379586Y-8227150D01*
X1379586Y-8246198D02*
X1389110Y-8236674D01*
X1389110Y-8236674D02*
X1408158Y-8227150D01*
X1408158Y-8227150D02*
X1436729Y-8227150D01*
X1436729Y-8227150D02*
X1455777Y-8236674D01*
X1455777Y-8236674D02*
X1465301Y-8255722D01*
X1465301Y-8255722D02*
X1465301Y-8360484D01*
X1465301Y-8255722D02*
X1474824Y-8236674D01*
X1474824Y-8236674D02*
X1493872Y-8227150D01*
X1493872Y-8227150D02*
X1522443Y-8227150D01*
X1522443Y-8227150D02*
X1541491Y-8236674D01*
X1541491Y-8236674D02*
X1551015Y-8255722D01*
X1551015Y-8255722D02*
X1551015Y-8360484D01*
X1941491Y-8150960D02*
X1770063Y-8408103D01*
X2198634Y-8160484D02*
X2217682Y-8160484D01*
X2217682Y-8160484D02*
X2236729Y-8170008D01*
X2236729Y-8170008D02*
X2246253Y-8179531D01*
X2246253Y-8179531D02*
X2255777Y-8198579D01*
X2255777Y-8198579D02*
X2265301Y-8236674D01*
X2265301Y-8236674D02*
X2265301Y-8284293D01*
X2265301Y-8284293D02*
X2255777Y-8322388D01*
X2255777Y-8322388D02*
X2246253Y-8341436D01*
X2246253Y-8341436D02*
X2236729Y-8350960D01*
X2236729Y-8350960D02*
X2217682Y-8360484D01*
X2217682Y-8360484D02*
X2198634Y-8360484D01*
X2198634Y-8360484D02*
X2179587Y-8350960D01*
X2179587Y-8350960D02*
X2170063Y-8341436D01*
X2170063Y-8341436D02*
X2160539Y-8322388D01*
X2160539Y-8322388D02*
X2151015Y-8284293D01*
X2151015Y-8284293D02*
X2151015Y-8236674D01*
X2151015Y-8236674D02*
X2160539Y-8198579D01*
X2160539Y-8198579D02*
X2170063Y-8179531D01*
X2170063Y-8179531D02*
X2179587Y-8170008D01*
X2179587Y-8170008D02*
X2198634Y-8160484D01*
X2351015Y-8341436D02*
X2360539Y-8350960D01*
X2360539Y-8350960D02*
X2351015Y-8360484D01*
X2351015Y-8360484D02*
X2341491Y-8350960D01*
X2341491Y-8350960D02*
X2351015Y-8341436D01*
X2351015Y-8341436D02*
X2351015Y-8360484D01*
X2484348Y-8160484D02*
X2503396Y-8160484D01*
X2503396Y-8160484D02*
X2522444Y-8170008D01*
X2522444Y-8170008D02*
X2531968Y-8179531D01*
X2531968Y-8179531D02*
X2541491Y-8198579D01*
X2541491Y-8198579D02*
X2551015Y-8236674D01*
X2551015Y-8236674D02*
X2551015Y-8284293D01*
X2551015Y-8284293D02*
X2541491Y-8322388D01*
X2541491Y-8322388D02*
X2531968Y-8341436D01*
X2531968Y-8341436D02*
X2522444Y-8350960D01*
X2522444Y-8350960D02*
X2503396Y-8360484D01*
X2503396Y-8360484D02*
X2484348Y-8360484D01*
X2484348Y-8360484D02*
X2465301Y-8350960D01*
X2465301Y-8350960D02*
X2455777Y-8341436D01*
X2455777Y-8341436D02*
X2446253Y-8322388D01*
X2446253Y-8322388D02*
X2436729Y-8284293D01*
X2436729Y-8284293D02*
X2436729Y-8236674D01*
X2436729Y-8236674D02*
X2446253Y-8198579D01*
X2446253Y-8198579D02*
X2455777Y-8179531D01*
X2455777Y-8179531D02*
X2465301Y-8170008D01*
X2465301Y-8170008D02*
X2484348Y-8160484D01*
X2741491Y-8360484D02*
X2627206Y-8360484D01*
X2684348Y-8360484D02*
X2684348Y-8160484D01*
X2684348Y-8160484D02*
X2665301Y-8189055D01*
X2665301Y-8189055D02*
X2646253Y-8208103D01*
X2646253Y-8208103D02*
X2627206Y-8217627D01*
X2922444Y-8160484D02*
X2827206Y-8160484D01*
X2827206Y-8160484D02*
X2817682Y-8255722D01*
X2817682Y-8255722D02*
X2827206Y-8246198D01*
X2827206Y-8246198D02*
X2846253Y-8236674D01*
X2846253Y-8236674D02*
X2893872Y-8236674D01*
X2893872Y-8236674D02*
X2912920Y-8246198D01*
X2912920Y-8246198D02*
X2922444Y-8255722D01*
X2922444Y-8255722D02*
X2931967Y-8274769D01*
X2931967Y-8274769D02*
X2931967Y-8322388D01*
X2931967Y-8322388D02*
X2922444Y-8341436D01*
X2922444Y-8341436D02*
X2912920Y-8350960D01*
X2912920Y-8350960D02*
X2893872Y-8360484D01*
X2893872Y-8360484D02*
X2846253Y-8360484D01*
X2846253Y-8360484D02*
X2827206Y-8350960D01*
X2827206Y-8350960D02*
X2817682Y-8341436D01*
X2998634Y-8160484D02*
X3131967Y-8160484D01*
X3131967Y-8160484D02*
X3046253Y-8360484D01*
X3198634Y-8160484D02*
X3198634Y-8198579D01*
X3274825Y-8160484D02*
X3274825Y-8198579D01*
X3570063Y-8436674D02*
X3560539Y-8427150D01*
X3560539Y-8427150D02*
X3541491Y-8398579D01*
X3541491Y-8398579D02*
X3531968Y-8379531D01*
X3531968Y-8379531D02*
X3522444Y-8350960D01*
X3522444Y-8350960D02*
X3512920Y-8303341D01*
X3512920Y-8303341D02*
X3512920Y-8265246D01*
X3512920Y-8265246D02*
X3522444Y-8217627D01*
X3522444Y-8217627D02*
X3531968Y-8189055D01*
X3531968Y-8189055D02*
X3541491Y-8170008D01*
X3541491Y-8170008D02*
X3560539Y-8141436D01*
X3560539Y-8141436D02*
X3570063Y-8131912D01*
X3731968Y-8227150D02*
X3731968Y-8360484D01*
X3684348Y-8150960D02*
X3636729Y-8293817D01*
X3636729Y-8293817D02*
X3760539Y-8293817D01*
X3817682Y-8160484D02*
X3951015Y-8160484D01*
X3951015Y-8160484D02*
X3865301Y-8360484D01*
X4179587Y-8360484D02*
X4179587Y-8160484D01*
X4265301Y-8360484D02*
X4265301Y-8255722D01*
X4265301Y-8255722D02*
X4255777Y-8236674D01*
X4255777Y-8236674D02*
X4236730Y-8227150D01*
X4236730Y-8227150D02*
X4208158Y-8227150D01*
X4208158Y-8227150D02*
X4189110Y-8236674D01*
X4189110Y-8236674D02*
X4179587Y-8246198D01*
X4389111Y-8360484D02*
X4370063Y-8350960D01*
X4370063Y-8350960D02*
X4360539Y-8341436D01*
X4360539Y-8341436D02*
X4351015Y-8322388D01*
X4351015Y-8322388D02*
X4351015Y-8265246D01*
X4351015Y-8265246D02*
X4360539Y-8246198D01*
X4360539Y-8246198D02*
X4370063Y-8236674D01*
X4370063Y-8236674D02*
X4389111Y-8227150D01*
X4389111Y-8227150D02*
X4417682Y-8227150D01*
X4417682Y-8227150D02*
X4436730Y-8236674D01*
X4436730Y-8236674D02*
X4446253Y-8246198D01*
X4446253Y-8246198D02*
X4455777Y-8265246D01*
X4455777Y-8265246D02*
X4455777Y-8322388D01*
X4455777Y-8322388D02*
X4446253Y-8341436D01*
X4446253Y-8341436D02*
X4436730Y-8350960D01*
X4436730Y-8350960D02*
X4417682Y-8360484D01*
X4417682Y-8360484D02*
X4389111Y-8360484D01*
X4570063Y-8360484D02*
X4551015Y-8350960D01*
X4551015Y-8350960D02*
X4541492Y-8331912D01*
X4541492Y-8331912D02*
X4541492Y-8160484D01*
X4722444Y-8350960D02*
X4703396Y-8360484D01*
X4703396Y-8360484D02*
X4665301Y-8360484D01*
X4665301Y-8360484D02*
X4646253Y-8350960D01*
X4646253Y-8350960D02*
X4636730Y-8331912D01*
X4636730Y-8331912D02*
X4636730Y-8255722D01*
X4636730Y-8255722D02*
X4646253Y-8236674D01*
X4646253Y-8236674D02*
X4665301Y-8227150D01*
X4665301Y-8227150D02*
X4703396Y-8227150D01*
X4703396Y-8227150D02*
X4722444Y-8236674D01*
X4722444Y-8236674D02*
X4731968Y-8255722D01*
X4731968Y-8255722D02*
X4731968Y-8274769D01*
X4731968Y-8274769D02*
X4636730Y-8293817D01*
X4808158Y-8350960D02*
X4827206Y-8360484D01*
X4827206Y-8360484D02*
X4865301Y-8360484D01*
X4865301Y-8360484D02*
X4884349Y-8350960D01*
X4884349Y-8350960D02*
X4893873Y-8331912D01*
X4893873Y-8331912D02*
X4893873Y-8322388D01*
X4893873Y-8322388D02*
X4884349Y-8303341D01*
X4884349Y-8303341D02*
X4865301Y-8293817D01*
X4865301Y-8293817D02*
X4836730Y-8293817D01*
X4836730Y-8293817D02*
X4817682Y-8284293D01*
X4817682Y-8284293D02*
X4808158Y-8265246D01*
X4808158Y-8265246D02*
X4808158Y-8255722D01*
X4808158Y-8255722D02*
X4817682Y-8236674D01*
X4817682Y-8236674D02*
X4836730Y-8227150D01*
X4836730Y-8227150D02*
X4865301Y-8227150D01*
X4865301Y-8227150D02*
X4884349Y-8236674D01*
X4960539Y-8436674D02*
X4970063Y-8427150D01*
X4970063Y-8427150D02*
X4989111Y-8398579D01*
X4989111Y-8398579D02*
X4998634Y-8379531D01*
X4998634Y-8379531D02*
X5008158Y-8350960D01*
X5008158Y-8350960D02*
X5017682Y-8303341D01*
X5017682Y-8303341D02*
X5017682Y-8265246D01*
X5017682Y-8265246D02*
X5008158Y-8217627D01*
X5008158Y-8217627D02*
X4998634Y-8189055D01*
X4998634Y-8189055D02*
X4989111Y-8170008D01*
X4989111Y-8170008D02*
X4970063Y-8141436D01*
X4970063Y-8141436D02*
X4960539Y-8131912D01*
D10*
X-35000Y-8503000D02*
X-35000Y-8563000D01*
X-65000Y-8533000D02*
X-5000Y-8533000D01*
D12*
X293872Y-8424484D02*
X312920Y-8424484D01*
X312920Y-8424484D02*
X331967Y-8434008D01*
X331967Y-8434008D02*
X341491Y-8443531D01*
X341491Y-8443531D02*
X351015Y-8462579D01*
X351015Y-8462579D02*
X360539Y-8500674D01*
X360539Y-8500674D02*
X360539Y-8548293D01*
X360539Y-8548293D02*
X351015Y-8586389D01*
X351015Y-8586389D02*
X341491Y-8605436D01*
X341491Y-8605436D02*
X331967Y-8614960D01*
X331967Y-8614960D02*
X312920Y-8624484D01*
X312920Y-8624484D02*
X293872Y-8624484D01*
X293872Y-8624484D02*
X274824Y-8614960D01*
X274824Y-8614960D02*
X265301Y-8605436D01*
X265301Y-8605436D02*
X255777Y-8586389D01*
X255777Y-8586389D02*
X246253Y-8548293D01*
X246253Y-8548293D02*
X246253Y-8500674D01*
X246253Y-8500674D02*
X255777Y-8462579D01*
X255777Y-8462579D02*
X265301Y-8443531D01*
X265301Y-8443531D02*
X274824Y-8434008D01*
X274824Y-8434008D02*
X293872Y-8424484D01*
X446253Y-8605436D02*
X455777Y-8614960D01*
X455777Y-8614960D02*
X446253Y-8624484D01*
X446253Y-8624484D02*
X436729Y-8614960D01*
X436729Y-8614960D02*
X446253Y-8605436D01*
X446253Y-8605436D02*
X446253Y-8624484D01*
X627205Y-8424484D02*
X589110Y-8424484D01*
X589110Y-8424484D02*
X570063Y-8434008D01*
X570063Y-8434008D02*
X560539Y-8443531D01*
X560539Y-8443531D02*
X541491Y-8472103D01*
X541491Y-8472103D02*
X531967Y-8510198D01*
X531967Y-8510198D02*
X531967Y-8586389D01*
X531967Y-8586389D02*
X541491Y-8605436D01*
X541491Y-8605436D02*
X551015Y-8614960D01*
X551015Y-8614960D02*
X570063Y-8624484D01*
X570063Y-8624484D02*
X608158Y-8624484D01*
X608158Y-8624484D02*
X627205Y-8614960D01*
X627205Y-8614960D02*
X636729Y-8605436D01*
X636729Y-8605436D02*
X646253Y-8586389D01*
X646253Y-8586389D02*
X646253Y-8538770D01*
X646253Y-8538770D02*
X636729Y-8519722D01*
X636729Y-8519722D02*
X627205Y-8510198D01*
X627205Y-8510198D02*
X608158Y-8500674D01*
X608158Y-8500674D02*
X570063Y-8500674D01*
X570063Y-8500674D02*
X551015Y-8510198D01*
X551015Y-8510198D02*
X541491Y-8519722D01*
X541491Y-8519722D02*
X531967Y-8538770D01*
X770062Y-8424484D02*
X789110Y-8424484D01*
X789110Y-8424484D02*
X808158Y-8434008D01*
X808158Y-8434008D02*
X817682Y-8443531D01*
X817682Y-8443531D02*
X827205Y-8462579D01*
X827205Y-8462579D02*
X836729Y-8500674D01*
X836729Y-8500674D02*
X836729Y-8548293D01*
X836729Y-8548293D02*
X827205Y-8586389D01*
X827205Y-8586389D02*
X817682Y-8605436D01*
X817682Y-8605436D02*
X808158Y-8614960D01*
X808158Y-8614960D02*
X789110Y-8624484D01*
X789110Y-8624484D02*
X770062Y-8624484D01*
X770062Y-8624484D02*
X751015Y-8614960D01*
X751015Y-8614960D02*
X741491Y-8605436D01*
X741491Y-8605436D02*
X731967Y-8586389D01*
X731967Y-8586389D02*
X722443Y-8548293D01*
X722443Y-8548293D02*
X722443Y-8500674D01*
X722443Y-8500674D02*
X731967Y-8462579D01*
X731967Y-8462579D02*
X741491Y-8443531D01*
X741491Y-8443531D02*
X751015Y-8434008D01*
X751015Y-8434008D02*
X770062Y-8424484D01*
X960539Y-8424484D02*
X979586Y-8424484D01*
X979586Y-8424484D02*
X998634Y-8434008D01*
X998634Y-8434008D02*
X1008158Y-8443531D01*
X1008158Y-8443531D02*
X1017682Y-8462579D01*
X1017682Y-8462579D02*
X1027205Y-8500674D01*
X1027205Y-8500674D02*
X1027205Y-8548293D01*
X1027205Y-8548293D02*
X1017682Y-8586389D01*
X1017682Y-8586389D02*
X1008158Y-8605436D01*
X1008158Y-8605436D02*
X998634Y-8614960D01*
X998634Y-8614960D02*
X979586Y-8624484D01*
X979586Y-8624484D02*
X960539Y-8624484D01*
X960539Y-8624484D02*
X941491Y-8614960D01*
X941491Y-8614960D02*
X931967Y-8605436D01*
X931967Y-8605436D02*
X922443Y-8586389D01*
X922443Y-8586389D02*
X912920Y-8548293D01*
X912920Y-8548293D02*
X912920Y-8500674D01*
X912920Y-8500674D02*
X922443Y-8462579D01*
X922443Y-8462579D02*
X931967Y-8443531D01*
X931967Y-8443531D02*
X941491Y-8434008D01*
X941491Y-8434008D02*
X960539Y-8424484D01*
X1112920Y-8624484D02*
X1112920Y-8491150D01*
X1112920Y-8510198D02*
X1122444Y-8500674D01*
X1122444Y-8500674D02*
X1141491Y-8491150D01*
X1141491Y-8491150D02*
X1170063Y-8491150D01*
X1170063Y-8491150D02*
X1189110Y-8500674D01*
X1189110Y-8500674D02*
X1198634Y-8519722D01*
X1198634Y-8519722D02*
X1198634Y-8624484D01*
X1198634Y-8519722D02*
X1208158Y-8500674D01*
X1208158Y-8500674D02*
X1227205Y-8491150D01*
X1227205Y-8491150D02*
X1255777Y-8491150D01*
X1255777Y-8491150D02*
X1274825Y-8500674D01*
X1274825Y-8500674D02*
X1284348Y-8519722D01*
X1284348Y-8519722D02*
X1284348Y-8624484D01*
X1379586Y-8624484D02*
X1379586Y-8491150D01*
X1379586Y-8510198D02*
X1389110Y-8500674D01*
X1389110Y-8500674D02*
X1408158Y-8491150D01*
X1408158Y-8491150D02*
X1436729Y-8491150D01*
X1436729Y-8491150D02*
X1455777Y-8500674D01*
X1455777Y-8500674D02*
X1465301Y-8519722D01*
X1465301Y-8519722D02*
X1465301Y-8624484D01*
X1465301Y-8519722D02*
X1474824Y-8500674D01*
X1474824Y-8500674D02*
X1493872Y-8491150D01*
X1493872Y-8491150D02*
X1522443Y-8491150D01*
X1522443Y-8491150D02*
X1541491Y-8500674D01*
X1541491Y-8500674D02*
X1551015Y-8519722D01*
X1551015Y-8519722D02*
X1551015Y-8624484D01*
X1941491Y-8414960D02*
X1770063Y-8672103D01*
X2198634Y-8424484D02*
X2217682Y-8424484D01*
X2217682Y-8424484D02*
X2236729Y-8434008D01*
X2236729Y-8434008D02*
X2246253Y-8443531D01*
X2246253Y-8443531D02*
X2255777Y-8462579D01*
X2255777Y-8462579D02*
X2265301Y-8500674D01*
X2265301Y-8500674D02*
X2265301Y-8548293D01*
X2265301Y-8548293D02*
X2255777Y-8586389D01*
X2255777Y-8586389D02*
X2246253Y-8605436D01*
X2246253Y-8605436D02*
X2236729Y-8614960D01*
X2236729Y-8614960D02*
X2217682Y-8624484D01*
X2217682Y-8624484D02*
X2198634Y-8624484D01*
X2198634Y-8624484D02*
X2179587Y-8614960D01*
X2179587Y-8614960D02*
X2170063Y-8605436D01*
X2170063Y-8605436D02*
X2160539Y-8586389D01*
X2160539Y-8586389D02*
X2151015Y-8548293D01*
X2151015Y-8548293D02*
X2151015Y-8500674D01*
X2151015Y-8500674D02*
X2160539Y-8462579D01*
X2160539Y-8462579D02*
X2170063Y-8443531D01*
X2170063Y-8443531D02*
X2179587Y-8434008D01*
X2179587Y-8434008D02*
X2198634Y-8424484D01*
X2351015Y-8605436D02*
X2360539Y-8614960D01*
X2360539Y-8614960D02*
X2351015Y-8624484D01*
X2351015Y-8624484D02*
X2341491Y-8614960D01*
X2341491Y-8614960D02*
X2351015Y-8605436D01*
X2351015Y-8605436D02*
X2351015Y-8624484D01*
X2484348Y-8424484D02*
X2503396Y-8424484D01*
X2503396Y-8424484D02*
X2522444Y-8434008D01*
X2522444Y-8434008D02*
X2531968Y-8443531D01*
X2531968Y-8443531D02*
X2541491Y-8462579D01*
X2541491Y-8462579D02*
X2551015Y-8500674D01*
X2551015Y-8500674D02*
X2551015Y-8548293D01*
X2551015Y-8548293D02*
X2541491Y-8586389D01*
X2541491Y-8586389D02*
X2531968Y-8605436D01*
X2531968Y-8605436D02*
X2522444Y-8614960D01*
X2522444Y-8614960D02*
X2503396Y-8624484D01*
X2503396Y-8624484D02*
X2484348Y-8624484D01*
X2484348Y-8624484D02*
X2465301Y-8614960D01*
X2465301Y-8614960D02*
X2455777Y-8605436D01*
X2455777Y-8605436D02*
X2446253Y-8586389D01*
X2446253Y-8586389D02*
X2436729Y-8548293D01*
X2436729Y-8548293D02*
X2436729Y-8500674D01*
X2436729Y-8500674D02*
X2446253Y-8462579D01*
X2446253Y-8462579D02*
X2455777Y-8443531D01*
X2455777Y-8443531D02*
X2465301Y-8434008D01*
X2465301Y-8434008D02*
X2484348Y-8424484D01*
X2627206Y-8443531D02*
X2636729Y-8434008D01*
X2636729Y-8434008D02*
X2655777Y-8424484D01*
X2655777Y-8424484D02*
X2703396Y-8424484D01*
X2703396Y-8424484D02*
X2722444Y-8434008D01*
X2722444Y-8434008D02*
X2731968Y-8443531D01*
X2731968Y-8443531D02*
X2741491Y-8462579D01*
X2741491Y-8462579D02*
X2741491Y-8481627D01*
X2741491Y-8481627D02*
X2731968Y-8510198D01*
X2731968Y-8510198D02*
X2617682Y-8624484D01*
X2617682Y-8624484D02*
X2741491Y-8624484D01*
X2808158Y-8424484D02*
X2931967Y-8424484D01*
X2931967Y-8424484D02*
X2865301Y-8500674D01*
X2865301Y-8500674D02*
X2893872Y-8500674D01*
X2893872Y-8500674D02*
X2912920Y-8510198D01*
X2912920Y-8510198D02*
X2922444Y-8519722D01*
X2922444Y-8519722D02*
X2931967Y-8538770D01*
X2931967Y-8538770D02*
X2931967Y-8586389D01*
X2931967Y-8586389D02*
X2922444Y-8605436D01*
X2922444Y-8605436D02*
X2912920Y-8614960D01*
X2912920Y-8614960D02*
X2893872Y-8624484D01*
X2893872Y-8624484D02*
X2836729Y-8624484D01*
X2836729Y-8624484D02*
X2817682Y-8614960D01*
X2817682Y-8614960D02*
X2808158Y-8605436D01*
X3103396Y-8424484D02*
X3065301Y-8424484D01*
X3065301Y-8424484D02*
X3046253Y-8434008D01*
X3046253Y-8434008D02*
X3036729Y-8443531D01*
X3036729Y-8443531D02*
X3017682Y-8472103D01*
X3017682Y-8472103D02*
X3008158Y-8510198D01*
X3008158Y-8510198D02*
X3008158Y-8586389D01*
X3008158Y-8586389D02*
X3017682Y-8605436D01*
X3017682Y-8605436D02*
X3027206Y-8614960D01*
X3027206Y-8614960D02*
X3046253Y-8624484D01*
X3046253Y-8624484D02*
X3084348Y-8624484D01*
X3084348Y-8624484D02*
X3103396Y-8614960D01*
X3103396Y-8614960D02*
X3112920Y-8605436D01*
X3112920Y-8605436D02*
X3122444Y-8586389D01*
X3122444Y-8586389D02*
X3122444Y-8538770D01*
X3122444Y-8538770D02*
X3112920Y-8519722D01*
X3112920Y-8519722D02*
X3103396Y-8510198D01*
X3103396Y-8510198D02*
X3084348Y-8500674D01*
X3084348Y-8500674D02*
X3046253Y-8500674D01*
X3046253Y-8500674D02*
X3027206Y-8510198D01*
X3027206Y-8510198D02*
X3017682Y-8519722D01*
X3017682Y-8519722D02*
X3008158Y-8538770D01*
X3198634Y-8424484D02*
X3198634Y-8462579D01*
X3274825Y-8424484D02*
X3274825Y-8462579D01*
X3570063Y-8700674D02*
X3560539Y-8691150D01*
X3560539Y-8691150D02*
X3541491Y-8662579D01*
X3541491Y-8662579D02*
X3531968Y-8643531D01*
X3531968Y-8643531D02*
X3522444Y-8614960D01*
X3522444Y-8614960D02*
X3512920Y-8567341D01*
X3512920Y-8567341D02*
X3512920Y-8529246D01*
X3512920Y-8529246D02*
X3522444Y-8481627D01*
X3522444Y-8481627D02*
X3531968Y-8453055D01*
X3531968Y-8453055D02*
X3541491Y-8434008D01*
X3541491Y-8434008D02*
X3560539Y-8405436D01*
X3560539Y-8405436D02*
X3570063Y-8395912D01*
X3684348Y-8424484D02*
X3703396Y-8424484D01*
X3703396Y-8424484D02*
X3722444Y-8434008D01*
X3722444Y-8434008D02*
X3731968Y-8443531D01*
X3731968Y-8443531D02*
X3741491Y-8462579D01*
X3741491Y-8462579D02*
X3751015Y-8500674D01*
X3751015Y-8500674D02*
X3751015Y-8548293D01*
X3751015Y-8548293D02*
X3741491Y-8586389D01*
X3741491Y-8586389D02*
X3731968Y-8605436D01*
X3731968Y-8605436D02*
X3722444Y-8614960D01*
X3722444Y-8614960D02*
X3703396Y-8624484D01*
X3703396Y-8624484D02*
X3684348Y-8624484D01*
X3684348Y-8624484D02*
X3665301Y-8614960D01*
X3665301Y-8614960D02*
X3655777Y-8605436D01*
X3655777Y-8605436D02*
X3646253Y-8586389D01*
X3646253Y-8586389D02*
X3636729Y-8548293D01*
X3636729Y-8548293D02*
X3636729Y-8500674D01*
X3636729Y-8500674D02*
X3646253Y-8462579D01*
X3646253Y-8462579D02*
X3655777Y-8443531D01*
X3655777Y-8443531D02*
X3665301Y-8434008D01*
X3665301Y-8434008D02*
X3684348Y-8424484D01*
X3989110Y-8624484D02*
X3989110Y-8424484D01*
X4074825Y-8624484D02*
X4074825Y-8519722D01*
X4074825Y-8519722D02*
X4065301Y-8500674D01*
X4065301Y-8500674D02*
X4046253Y-8491150D01*
X4046253Y-8491150D02*
X4017682Y-8491150D01*
X4017682Y-8491150D02*
X3998634Y-8500674D01*
X3998634Y-8500674D02*
X3989110Y-8510198D01*
X4198634Y-8624484D02*
X4179587Y-8614960D01*
X4179587Y-8614960D02*
X4170063Y-8605436D01*
X4170063Y-8605436D02*
X4160539Y-8586389D01*
X4160539Y-8586389D02*
X4160539Y-8529246D01*
X4160539Y-8529246D02*
X4170063Y-8510198D01*
X4170063Y-8510198D02*
X4179587Y-8500674D01*
X4179587Y-8500674D02*
X4198634Y-8491150D01*
X4198634Y-8491150D02*
X4227206Y-8491150D01*
X4227206Y-8491150D02*
X4246253Y-8500674D01*
X4246253Y-8500674D02*
X4255777Y-8510198D01*
X4255777Y-8510198D02*
X4265301Y-8529246D01*
X4265301Y-8529246D02*
X4265301Y-8586389D01*
X4265301Y-8586389D02*
X4255777Y-8605436D01*
X4255777Y-8605436D02*
X4246253Y-8614960D01*
X4246253Y-8614960D02*
X4227206Y-8624484D01*
X4227206Y-8624484D02*
X4198634Y-8624484D01*
X4379587Y-8624484D02*
X4360539Y-8614960D01*
X4360539Y-8614960D02*
X4351015Y-8595912D01*
X4351015Y-8595912D02*
X4351015Y-8424484D01*
X4531968Y-8614960D02*
X4512920Y-8624484D01*
X4512920Y-8624484D02*
X4474825Y-8624484D01*
X4474825Y-8624484D02*
X4455777Y-8614960D01*
X4455777Y-8614960D02*
X4446253Y-8595912D01*
X4446253Y-8595912D02*
X4446253Y-8519722D01*
X4446253Y-8519722D02*
X4455777Y-8500674D01*
X4455777Y-8500674D02*
X4474825Y-8491150D01*
X4474825Y-8491150D02*
X4512920Y-8491150D01*
X4512920Y-8491150D02*
X4531968Y-8500674D01*
X4531968Y-8500674D02*
X4541492Y-8519722D01*
X4541492Y-8519722D02*
X4541492Y-8538770D01*
X4541492Y-8538770D02*
X4446253Y-8557817D01*
X4617682Y-8614960D02*
X4636730Y-8624484D01*
X4636730Y-8624484D02*
X4674825Y-8624484D01*
X4674825Y-8624484D02*
X4693873Y-8614960D01*
X4693873Y-8614960D02*
X4703396Y-8595912D01*
X4703396Y-8595912D02*
X4703396Y-8586389D01*
X4703396Y-8586389D02*
X4693873Y-8567341D01*
X4693873Y-8567341D02*
X4674825Y-8557817D01*
X4674825Y-8557817D02*
X4646253Y-8557817D01*
X4646253Y-8557817D02*
X4627206Y-8548293D01*
X4627206Y-8548293D02*
X4617682Y-8529246D01*
X4617682Y-8529246D02*
X4617682Y-8519722D01*
X4617682Y-8519722D02*
X4627206Y-8500674D01*
X4627206Y-8500674D02*
X4646253Y-8491150D01*
X4646253Y-8491150D02*
X4674825Y-8491150D01*
X4674825Y-8491150D02*
X4693873Y-8500674D01*
X4941492Y-8548293D02*
X5093873Y-8548293D01*
X5017682Y-8624484D02*
X5017682Y-8472103D01*
X5427206Y-8491150D02*
X5427206Y-8624484D01*
X5379587Y-8414960D02*
X5331968Y-8557817D01*
X5331968Y-8557817D02*
X5455777Y-8557817D01*
X5674825Y-8614960D02*
X5693873Y-8624484D01*
X5693873Y-8624484D02*
X5731968Y-8624484D01*
X5731968Y-8624484D02*
X5751015Y-8614960D01*
X5751015Y-8614960D02*
X5760539Y-8595912D01*
X5760539Y-8595912D02*
X5760539Y-8586389D01*
X5760539Y-8586389D02*
X5751015Y-8567341D01*
X5751015Y-8567341D02*
X5731968Y-8557817D01*
X5731968Y-8557817D02*
X5703396Y-8557817D01*
X5703396Y-8557817D02*
X5684349Y-8548293D01*
X5684349Y-8548293D02*
X5674825Y-8529246D01*
X5674825Y-8529246D02*
X5674825Y-8519722D01*
X5674825Y-8519722D02*
X5684349Y-8500674D01*
X5684349Y-8500674D02*
X5703396Y-8491150D01*
X5703396Y-8491150D02*
X5731968Y-8491150D01*
X5731968Y-8491150D02*
X5751015Y-8500674D01*
X5874825Y-8624484D02*
X5855777Y-8614960D01*
X5855777Y-8614960D02*
X5846254Y-8595912D01*
X5846254Y-8595912D02*
X5846254Y-8424484D01*
X5979587Y-8624484D02*
X5960539Y-8614960D01*
X5960539Y-8614960D02*
X5951015Y-8605436D01*
X5951015Y-8605436D02*
X5941492Y-8586389D01*
X5941492Y-8586389D02*
X5941492Y-8529246D01*
X5941492Y-8529246D02*
X5951015Y-8510198D01*
X5951015Y-8510198D02*
X5960539Y-8500674D01*
X5960539Y-8500674D02*
X5979587Y-8491150D01*
X5979587Y-8491150D02*
X6008158Y-8491150D01*
X6008158Y-8491150D02*
X6027206Y-8500674D01*
X6027206Y-8500674D02*
X6036730Y-8510198D01*
X6036730Y-8510198D02*
X6046254Y-8529246D01*
X6046254Y-8529246D02*
X6046254Y-8586389D01*
X6046254Y-8586389D02*
X6036730Y-8605436D01*
X6036730Y-8605436D02*
X6027206Y-8614960D01*
X6027206Y-8614960D02*
X6008158Y-8624484D01*
X6008158Y-8624484D02*
X5979587Y-8624484D01*
X6103396Y-8491150D02*
X6179587Y-8491150D01*
X6131968Y-8424484D02*
X6131968Y-8595912D01*
X6131968Y-8595912D02*
X6141492Y-8614960D01*
X6141492Y-8614960D02*
X6160539Y-8624484D01*
X6160539Y-8624484D02*
X6179587Y-8624484D01*
X6236730Y-8614960D02*
X6255777Y-8624484D01*
X6255777Y-8624484D02*
X6293873Y-8624484D01*
X6293873Y-8624484D02*
X6312920Y-8614960D01*
X6312920Y-8614960D02*
X6322444Y-8595912D01*
X6322444Y-8595912D02*
X6322444Y-8586389D01*
X6322444Y-8586389D02*
X6312920Y-8567341D01*
X6312920Y-8567341D02*
X6293873Y-8557817D01*
X6293873Y-8557817D02*
X6265301Y-8557817D01*
X6265301Y-8557817D02*
X6246254Y-8548293D01*
X6246254Y-8548293D02*
X6236730Y-8529246D01*
X6236730Y-8529246D02*
X6236730Y-8519722D01*
X6236730Y-8519722D02*
X6246254Y-8500674D01*
X6246254Y-8500674D02*
X6265301Y-8491150D01*
X6265301Y-8491150D02*
X6293873Y-8491150D01*
X6293873Y-8491150D02*
X6312920Y-8500674D01*
X6389111Y-8700674D02*
X6398635Y-8691150D01*
X6398635Y-8691150D02*
X6417682Y-8662579D01*
X6417682Y-8662579D02*
X6427206Y-8643531D01*
X6427206Y-8643531D02*
X6436730Y-8614960D01*
X6436730Y-8614960D02*
X6446254Y-8567341D01*
X6446254Y-8567341D02*
X6446254Y-8529246D01*
X6446254Y-8529246D02*
X6436730Y-8481627D01*
X6436730Y-8481627D02*
X6427206Y-8453055D01*
X6427206Y-8453055D02*
X6417682Y-8434008D01*
X6417682Y-8434008D02*
X6398635Y-8405436D01*
X6398635Y-8405436D02*
X6389111Y-8395912D01*
D13*
X-26966Y-8850034D02*
X-26966Y-8743967D01*
X-133034Y-8743967D01*
X-133034Y-8850034D01*
X-26966Y-8850034D01*
D12*
X360539Y-8888484D02*
X246253Y-8888484D01*
X303396Y-8888484D02*
X303396Y-8688484D01*
X303396Y-8688484D02*
X284348Y-8717055D01*
X284348Y-8717055D02*
X265301Y-8736103D01*
X265301Y-8736103D02*
X246253Y-8745627D01*
X446253Y-8869436D02*
X455777Y-8878960D01*
X455777Y-8878960D02*
X446253Y-8888484D01*
X446253Y-8888484D02*
X436729Y-8878960D01*
X436729Y-8878960D02*
X446253Y-8869436D01*
X446253Y-8869436D02*
X446253Y-8888484D01*
X636729Y-8688484D02*
X541491Y-8688484D01*
X541491Y-8688484D02*
X531967Y-8783722D01*
X531967Y-8783722D02*
X541491Y-8774198D01*
X541491Y-8774198D02*
X560539Y-8764674D01*
X560539Y-8764674D02*
X608158Y-8764674D01*
X608158Y-8764674D02*
X627205Y-8774198D01*
X627205Y-8774198D02*
X636729Y-8783722D01*
X636729Y-8783722D02*
X646253Y-8802770D01*
X646253Y-8802770D02*
X646253Y-8850389D01*
X646253Y-8850389D02*
X636729Y-8869436D01*
X636729Y-8869436D02*
X627205Y-8878960D01*
X627205Y-8878960D02*
X608158Y-8888484D01*
X608158Y-8888484D02*
X560539Y-8888484D01*
X560539Y-8888484D02*
X541491Y-8878960D01*
X541491Y-8878960D02*
X531967Y-8869436D01*
X770062Y-8688484D02*
X789110Y-8688484D01*
X789110Y-8688484D02*
X808158Y-8698008D01*
X808158Y-8698008D02*
X817682Y-8707531D01*
X817682Y-8707531D02*
X827205Y-8726579D01*
X827205Y-8726579D02*
X836729Y-8764674D01*
X836729Y-8764674D02*
X836729Y-8812293D01*
X836729Y-8812293D02*
X827205Y-8850389D01*
X827205Y-8850389D02*
X817682Y-8869436D01*
X817682Y-8869436D02*
X808158Y-8878960D01*
X808158Y-8878960D02*
X789110Y-8888484D01*
X789110Y-8888484D02*
X770062Y-8888484D01*
X770062Y-8888484D02*
X751015Y-8878960D01*
X751015Y-8878960D02*
X741491Y-8869436D01*
X741491Y-8869436D02*
X731967Y-8850389D01*
X731967Y-8850389D02*
X722443Y-8812293D01*
X722443Y-8812293D02*
X722443Y-8764674D01*
X722443Y-8764674D02*
X731967Y-8726579D01*
X731967Y-8726579D02*
X741491Y-8707531D01*
X741491Y-8707531D02*
X751015Y-8698008D01*
X751015Y-8698008D02*
X770062Y-8688484D01*
X960539Y-8688484D02*
X979586Y-8688484D01*
X979586Y-8688484D02*
X998634Y-8698008D01*
X998634Y-8698008D02*
X1008158Y-8707531D01*
X1008158Y-8707531D02*
X1017682Y-8726579D01*
X1017682Y-8726579D02*
X1027205Y-8764674D01*
X1027205Y-8764674D02*
X1027205Y-8812293D01*
X1027205Y-8812293D02*
X1017682Y-8850389D01*
X1017682Y-8850389D02*
X1008158Y-8869436D01*
X1008158Y-8869436D02*
X998634Y-8878960D01*
X998634Y-8878960D02*
X979586Y-8888484D01*
X979586Y-8888484D02*
X960539Y-8888484D01*
X960539Y-8888484D02*
X941491Y-8878960D01*
X941491Y-8878960D02*
X931967Y-8869436D01*
X931967Y-8869436D02*
X922443Y-8850389D01*
X922443Y-8850389D02*
X912920Y-8812293D01*
X912920Y-8812293D02*
X912920Y-8764674D01*
X912920Y-8764674D02*
X922443Y-8726579D01*
X922443Y-8726579D02*
X931967Y-8707531D01*
X931967Y-8707531D02*
X941491Y-8698008D01*
X941491Y-8698008D02*
X960539Y-8688484D01*
X1112920Y-8888484D02*
X1112920Y-8755150D01*
X1112920Y-8774198D02*
X1122444Y-8764674D01*
X1122444Y-8764674D02*
X1141491Y-8755150D01*
X1141491Y-8755150D02*
X1170063Y-8755150D01*
X1170063Y-8755150D02*
X1189110Y-8764674D01*
X1189110Y-8764674D02*
X1198634Y-8783722D01*
X1198634Y-8783722D02*
X1198634Y-8888484D01*
X1198634Y-8783722D02*
X1208158Y-8764674D01*
X1208158Y-8764674D02*
X1227205Y-8755150D01*
X1227205Y-8755150D02*
X1255777Y-8755150D01*
X1255777Y-8755150D02*
X1274825Y-8764674D01*
X1274825Y-8764674D02*
X1284348Y-8783722D01*
X1284348Y-8783722D02*
X1284348Y-8888484D01*
X1379586Y-8888484D02*
X1379586Y-8755150D01*
X1379586Y-8774198D02*
X1389110Y-8764674D01*
X1389110Y-8764674D02*
X1408158Y-8755150D01*
X1408158Y-8755150D02*
X1436729Y-8755150D01*
X1436729Y-8755150D02*
X1455777Y-8764674D01*
X1455777Y-8764674D02*
X1465301Y-8783722D01*
X1465301Y-8783722D02*
X1465301Y-8888484D01*
X1465301Y-8783722D02*
X1474824Y-8764674D01*
X1474824Y-8764674D02*
X1493872Y-8755150D01*
X1493872Y-8755150D02*
X1522443Y-8755150D01*
X1522443Y-8755150D02*
X1541491Y-8764674D01*
X1541491Y-8764674D02*
X1551015Y-8783722D01*
X1551015Y-8783722D02*
X1551015Y-8888484D01*
X1941491Y-8678960D02*
X1770063Y-8936103D01*
X2198634Y-8688484D02*
X2217682Y-8688484D01*
X2217682Y-8688484D02*
X2236729Y-8698008D01*
X2236729Y-8698008D02*
X2246253Y-8707531D01*
X2246253Y-8707531D02*
X2255777Y-8726579D01*
X2255777Y-8726579D02*
X2265301Y-8764674D01*
X2265301Y-8764674D02*
X2265301Y-8812293D01*
X2265301Y-8812293D02*
X2255777Y-8850389D01*
X2255777Y-8850389D02*
X2246253Y-8869436D01*
X2246253Y-8869436D02*
X2236729Y-8878960D01*
X2236729Y-8878960D02*
X2217682Y-8888484D01*
X2217682Y-8888484D02*
X2198634Y-8888484D01*
X2198634Y-8888484D02*
X2179587Y-8878960D01*
X2179587Y-8878960D02*
X2170063Y-8869436D01*
X2170063Y-8869436D02*
X2160539Y-8850389D01*
X2160539Y-8850389D02*
X2151015Y-8812293D01*
X2151015Y-8812293D02*
X2151015Y-8764674D01*
X2151015Y-8764674D02*
X2160539Y-8726579D01*
X2160539Y-8726579D02*
X2170063Y-8707531D01*
X2170063Y-8707531D02*
X2179587Y-8698008D01*
X2179587Y-8698008D02*
X2198634Y-8688484D01*
X2351015Y-8869436D02*
X2360539Y-8878960D01*
X2360539Y-8878960D02*
X2351015Y-8888484D01*
X2351015Y-8888484D02*
X2341491Y-8878960D01*
X2341491Y-8878960D02*
X2351015Y-8869436D01*
X2351015Y-8869436D02*
X2351015Y-8888484D01*
X2484348Y-8688484D02*
X2503396Y-8688484D01*
X2503396Y-8688484D02*
X2522444Y-8698008D01*
X2522444Y-8698008D02*
X2531968Y-8707531D01*
X2531968Y-8707531D02*
X2541491Y-8726579D01*
X2541491Y-8726579D02*
X2551015Y-8764674D01*
X2551015Y-8764674D02*
X2551015Y-8812293D01*
X2551015Y-8812293D02*
X2541491Y-8850389D01*
X2541491Y-8850389D02*
X2531968Y-8869436D01*
X2531968Y-8869436D02*
X2522444Y-8878960D01*
X2522444Y-8878960D02*
X2503396Y-8888484D01*
X2503396Y-8888484D02*
X2484348Y-8888484D01*
X2484348Y-8888484D02*
X2465301Y-8878960D01*
X2465301Y-8878960D02*
X2455777Y-8869436D01*
X2455777Y-8869436D02*
X2446253Y-8850389D01*
X2446253Y-8850389D02*
X2436729Y-8812293D01*
X2436729Y-8812293D02*
X2436729Y-8764674D01*
X2436729Y-8764674D02*
X2446253Y-8726579D01*
X2446253Y-8726579D02*
X2455777Y-8707531D01*
X2455777Y-8707531D02*
X2465301Y-8698008D01*
X2465301Y-8698008D02*
X2484348Y-8688484D01*
X2731968Y-8688484D02*
X2636729Y-8688484D01*
X2636729Y-8688484D02*
X2627206Y-8783722D01*
X2627206Y-8783722D02*
X2636729Y-8774198D01*
X2636729Y-8774198D02*
X2655777Y-8764674D01*
X2655777Y-8764674D02*
X2703396Y-8764674D01*
X2703396Y-8764674D02*
X2722444Y-8774198D01*
X2722444Y-8774198D02*
X2731968Y-8783722D01*
X2731968Y-8783722D02*
X2741491Y-8802770D01*
X2741491Y-8802770D02*
X2741491Y-8850389D01*
X2741491Y-8850389D02*
X2731968Y-8869436D01*
X2731968Y-8869436D02*
X2722444Y-8878960D01*
X2722444Y-8878960D02*
X2703396Y-8888484D01*
X2703396Y-8888484D02*
X2655777Y-8888484D01*
X2655777Y-8888484D02*
X2636729Y-8878960D01*
X2636729Y-8878960D02*
X2627206Y-8869436D01*
X2836729Y-8888484D02*
X2874825Y-8888484D01*
X2874825Y-8888484D02*
X2893872Y-8878960D01*
X2893872Y-8878960D02*
X2903396Y-8869436D01*
X2903396Y-8869436D02*
X2922444Y-8840865D01*
X2922444Y-8840865D02*
X2931967Y-8802770D01*
X2931967Y-8802770D02*
X2931967Y-8726579D01*
X2931967Y-8726579D02*
X2922444Y-8707531D01*
X2922444Y-8707531D02*
X2912920Y-8698008D01*
X2912920Y-8698008D02*
X2893872Y-8688484D01*
X2893872Y-8688484D02*
X2855777Y-8688484D01*
X2855777Y-8688484D02*
X2836729Y-8698008D01*
X2836729Y-8698008D02*
X2827206Y-8707531D01*
X2827206Y-8707531D02*
X2817682Y-8726579D01*
X2817682Y-8726579D02*
X2817682Y-8774198D01*
X2817682Y-8774198D02*
X2827206Y-8793246D01*
X2827206Y-8793246D02*
X2836729Y-8802770D01*
X2836729Y-8802770D02*
X2855777Y-8812293D01*
X2855777Y-8812293D02*
X2893872Y-8812293D01*
X2893872Y-8812293D02*
X2912920Y-8802770D01*
X2912920Y-8802770D02*
X2922444Y-8793246D01*
X2922444Y-8793246D02*
X2931967Y-8774198D01*
X3122444Y-8888484D02*
X3008158Y-8888484D01*
X3065301Y-8888484D02*
X3065301Y-8688484D01*
X3065301Y-8688484D02*
X3046253Y-8717055D01*
X3046253Y-8717055D02*
X3027206Y-8736103D01*
X3027206Y-8736103D02*
X3008158Y-8745627D01*
X3198634Y-8688484D02*
X3198634Y-8726579D01*
X3274825Y-8688484D02*
X3274825Y-8726579D01*
X3570063Y-8964674D02*
X3560539Y-8955150D01*
X3560539Y-8955150D02*
X3541491Y-8926579D01*
X3541491Y-8926579D02*
X3531968Y-8907531D01*
X3531968Y-8907531D02*
X3522444Y-8878960D01*
X3522444Y-8878960D02*
X3512920Y-8831341D01*
X3512920Y-8831341D02*
X3512920Y-8793246D01*
X3512920Y-8793246D02*
X3522444Y-8745627D01*
X3522444Y-8745627D02*
X3531968Y-8717055D01*
X3531968Y-8717055D02*
X3541491Y-8698008D01*
X3541491Y-8698008D02*
X3560539Y-8669436D01*
X3560539Y-8669436D02*
X3570063Y-8659912D01*
X3627206Y-8688484D02*
X3751015Y-8688484D01*
X3751015Y-8688484D02*
X3684348Y-8764674D01*
X3684348Y-8764674D02*
X3712920Y-8764674D01*
X3712920Y-8764674D02*
X3731968Y-8774198D01*
X3731968Y-8774198D02*
X3741491Y-8783722D01*
X3741491Y-8783722D02*
X3751015Y-8802770D01*
X3751015Y-8802770D02*
X3751015Y-8850389D01*
X3751015Y-8850389D02*
X3741491Y-8869436D01*
X3741491Y-8869436D02*
X3731968Y-8878960D01*
X3731968Y-8878960D02*
X3712920Y-8888484D01*
X3712920Y-8888484D02*
X3655777Y-8888484D01*
X3655777Y-8888484D02*
X3636729Y-8878960D01*
X3636729Y-8878960D02*
X3627206Y-8869436D01*
X3827206Y-8707531D02*
X3836729Y-8698008D01*
X3836729Y-8698008D02*
X3855777Y-8688484D01*
X3855777Y-8688484D02*
X3903396Y-8688484D01*
X3903396Y-8688484D02*
X3922444Y-8698008D01*
X3922444Y-8698008D02*
X3931968Y-8707531D01*
X3931968Y-8707531D02*
X3941491Y-8726579D01*
X3941491Y-8726579D02*
X3941491Y-8745627D01*
X3941491Y-8745627D02*
X3931968Y-8774198D01*
X3931968Y-8774198D02*
X3817682Y-8888484D01*
X3817682Y-8888484D02*
X3941491Y-8888484D01*
X4179587Y-8888484D02*
X4179587Y-8688484D01*
X4265301Y-8888484D02*
X4265301Y-8783722D01*
X4265301Y-8783722D02*
X4255777Y-8764674D01*
X4255777Y-8764674D02*
X4236730Y-8755150D01*
X4236730Y-8755150D02*
X4208158Y-8755150D01*
X4208158Y-8755150D02*
X4189110Y-8764674D01*
X4189110Y-8764674D02*
X4179587Y-8774198D01*
X4389111Y-8888484D02*
X4370063Y-8878960D01*
X4370063Y-8878960D02*
X4360539Y-8869436D01*
X4360539Y-8869436D02*
X4351015Y-8850389D01*
X4351015Y-8850389D02*
X4351015Y-8793246D01*
X4351015Y-8793246D02*
X4360539Y-8774198D01*
X4360539Y-8774198D02*
X4370063Y-8764674D01*
X4370063Y-8764674D02*
X4389111Y-8755150D01*
X4389111Y-8755150D02*
X4417682Y-8755150D01*
X4417682Y-8755150D02*
X4436730Y-8764674D01*
X4436730Y-8764674D02*
X4446253Y-8774198D01*
X4446253Y-8774198D02*
X4455777Y-8793246D01*
X4455777Y-8793246D02*
X4455777Y-8850389D01*
X4455777Y-8850389D02*
X4446253Y-8869436D01*
X4446253Y-8869436D02*
X4436730Y-8878960D01*
X4436730Y-8878960D02*
X4417682Y-8888484D01*
X4417682Y-8888484D02*
X4389111Y-8888484D01*
X4570063Y-8888484D02*
X4551015Y-8878960D01*
X4551015Y-8878960D02*
X4541492Y-8859912D01*
X4541492Y-8859912D02*
X4541492Y-8688484D01*
X4722444Y-8878960D02*
X4703396Y-8888484D01*
X4703396Y-8888484D02*
X4665301Y-8888484D01*
X4665301Y-8888484D02*
X4646253Y-8878960D01*
X4646253Y-8878960D02*
X4636730Y-8859912D01*
X4636730Y-8859912D02*
X4636730Y-8783722D01*
X4636730Y-8783722D02*
X4646253Y-8764674D01*
X4646253Y-8764674D02*
X4665301Y-8755150D01*
X4665301Y-8755150D02*
X4703396Y-8755150D01*
X4703396Y-8755150D02*
X4722444Y-8764674D01*
X4722444Y-8764674D02*
X4731968Y-8783722D01*
X4731968Y-8783722D02*
X4731968Y-8802770D01*
X4731968Y-8802770D02*
X4636730Y-8821817D01*
X4808158Y-8878960D02*
X4827206Y-8888484D01*
X4827206Y-8888484D02*
X4865301Y-8888484D01*
X4865301Y-8888484D02*
X4884349Y-8878960D01*
X4884349Y-8878960D02*
X4893873Y-8859912D01*
X4893873Y-8859912D02*
X4893873Y-8850389D01*
X4893873Y-8850389D02*
X4884349Y-8831341D01*
X4884349Y-8831341D02*
X4865301Y-8821817D01*
X4865301Y-8821817D02*
X4836730Y-8821817D01*
X4836730Y-8821817D02*
X4817682Y-8812293D01*
X4817682Y-8812293D02*
X4808158Y-8793246D01*
X4808158Y-8793246D02*
X4808158Y-8783722D01*
X4808158Y-8783722D02*
X4817682Y-8764674D01*
X4817682Y-8764674D02*
X4836730Y-8755150D01*
X4836730Y-8755150D02*
X4865301Y-8755150D01*
X4865301Y-8755150D02*
X4884349Y-8764674D01*
X4960539Y-8964674D02*
X4970063Y-8955150D01*
X4970063Y-8955150D02*
X4989111Y-8926579D01*
X4989111Y-8926579D02*
X4998634Y-8907531D01*
X4998634Y-8907531D02*
X5008158Y-8878960D01*
X5008158Y-8878960D02*
X5017682Y-8831341D01*
X5017682Y-8831341D02*
X5017682Y-8793246D01*
X5017682Y-8793246D02*
X5008158Y-8745627D01*
X5008158Y-8745627D02*
X4998634Y-8717055D01*
X4998634Y-8717055D02*
X4989111Y-8698008D01*
X4989111Y-8698008D02*
X4970063Y-8669436D01*
X4970063Y-8669436D02*
X4960539Y-8659912D01*
M02*
