G04 #@! TF.GenerationSoftware,KiCad,Pcbnew,8.0.4*
G04 #@! TF.CreationDate,2025-01-16T10:51:39+00:00*
G04 #@! TF.ProjectId,Mathboard,4d617468-626f-4617-9264-2e6b69636164,rev?*
G04 #@! TF.SameCoordinates,PX501bd00PY28b8ce0*
G04 #@! TF.FileFunction,Copper,L4,Bot*
G04 #@! TF.FilePolarity,Positive*
%FSLAX46Y46*%
G04 Gerber Fmt 4.6, Leading zero omitted, Abs format (unit mm)*
G04 Created by KiCad (PCBNEW 8.0.4) date 2025-01-16 10:51:39*
%MOMM*%
%LPD*%
G01*
G04 APERTURE LIST*
G04 #@! TA.AperFunction,ComponentPad*
%ADD10O,1.000000X1.600000*%
G04 #@! TD*
G04 #@! TA.AperFunction,ComponentPad*
%ADD11O,1.000000X2.000000*%
G04 #@! TD*
G04 #@! TA.AperFunction,WasherPad*
%ADD12C,1.397000*%
G04 #@! TD*
G04 #@! TA.AperFunction,ComponentPad*
%ADD13C,2.500000*%
G04 #@! TD*
G04 #@! TA.AperFunction,ViaPad*
%ADD14C,0.800000*%
G04 #@! TD*
G04 #@! TA.AperFunction,ViaPad*
%ADD15C,0.450000*%
G04 #@! TD*
G04 #@! TA.AperFunction,Conductor*
%ADD16C,0.500000*%
G04 #@! TD*
G04 #@! TA.AperFunction,Conductor*
%ADD17C,0.291800*%
G04 #@! TD*
G04 #@! TA.AperFunction,Conductor*
%ADD18C,0.200000*%
G04 #@! TD*
G04 APERTURE END LIST*
D10*
X61420000Y-6800000D03*
D11*
X61420000Y-2800000D03*
D10*
X50180000Y-6800000D03*
D11*
X50180000Y-2800000D03*
D12*
X39500001Y-1795300D03*
X34500000Y-1795300D03*
D13*
X12700000Y-13000000D03*
X5700000Y-14050000D03*
X72700000Y-51000000D03*
X65700000Y-52050000D03*
X34700000Y-51000000D03*
X27700000Y-52050000D03*
X69700000Y-13000000D03*
X62700000Y-14050000D03*
X45950000Y-70000000D03*
X38950000Y-71050000D03*
X91700000Y-51000000D03*
X84700000Y-52050000D03*
X50700000Y-13000000D03*
X43700000Y-14050000D03*
X31700000Y-13000000D03*
X24700000Y-14050000D03*
X23700000Y-32000000D03*
X16700000Y-33050000D03*
X15700000Y-51000000D03*
X8700000Y-52050000D03*
X61700000Y-32000000D03*
X54700000Y-33050000D03*
X53700000Y-51000000D03*
X46700000Y-52050000D03*
X42700000Y-32000000D03*
X35700000Y-33050000D03*
X88700000Y-13000000D03*
X81700000Y-14050000D03*
X17450000Y-70000000D03*
X10450000Y-71050000D03*
X80700000Y-32000000D03*
X73700000Y-33050000D03*
D14*
X50700000Y-17700000D03*
X31800000Y-17700000D03*
D15*
X73900000Y-61600000D03*
D14*
X69700000Y-17700000D03*
X88700000Y-17700000D03*
X12800000Y-17700000D03*
D15*
X75800000Y-51550000D03*
X74900000Y-61600000D03*
D14*
X23500000Y-24300000D03*
X61500000Y-24300000D03*
X80500000Y-24300000D03*
X42500000Y-24200000D03*
D15*
X75850000Y-52800000D03*
D14*
X72400000Y-43300000D03*
X53400000Y-43200000D03*
X34400000Y-43200000D03*
X15400000Y-43100000D03*
D15*
X74900000Y-59600000D03*
D14*
X91700000Y-58100000D03*
D15*
X75000000Y-53350000D03*
D14*
X46500000Y-62100000D03*
X17500000Y-62200000D03*
D15*
X75900000Y-61600000D03*
X71599626Y-66698309D03*
X71900000Y-63100000D03*
D14*
X65700000Y-59300000D03*
X44700000Y-58500000D03*
D15*
X71700000Y-62400000D03*
X71500000Y-61697639D03*
D14*
X53400000Y-9600000D03*
X58750000Y-9700000D03*
X57950000Y-13450000D03*
X2700000Y-5100000D03*
X15600000Y-2500000D03*
X57350000Y-16250000D03*
D15*
X63900000Y-700000D03*
D14*
X4500000Y-8700000D03*
D15*
X71200000Y-58200000D03*
D14*
X60900000Y-59300000D03*
D15*
X73000000Y-70500000D03*
D14*
X51600000Y-8300000D03*
X6200000Y-4000000D03*
D15*
X35500000Y-5000000D03*
D14*
X14400000Y-5200000D03*
D15*
X77600000Y-58700000D03*
X84162500Y-69000000D03*
X67400000Y-65200000D03*
X55650000Y-11910000D03*
X73500000Y-58620000D03*
X63550000Y-4450000D03*
X68500000Y-62500000D03*
X85300000Y-64070000D03*
D14*
X77400000Y-70300000D03*
X80300000Y-64800000D03*
X46000000Y-35400000D03*
D15*
X73500000Y-56000000D03*
D14*
X79500000Y-67200000D03*
D15*
X66400000Y-67600000D03*
X81900000Y-61100000D03*
X72700000Y-62800000D03*
X75300000Y-65400000D03*
X64900000Y-62200000D03*
X82320000Y-64070000D03*
X4300000Y-4400000D03*
D14*
X2800000Y-7800000D03*
D15*
X66900000Y-3200000D03*
D14*
X77400000Y-67500000D03*
D15*
X76600000Y-58700000D03*
X78100000Y-64500000D03*
X73500000Y-59600000D03*
X86362500Y-69000000D03*
X73000001Y-68247508D03*
X71500000Y-64300000D03*
X78400000Y-58100000D03*
X86800000Y-58400000D03*
D14*
X59300000Y-62800000D03*
X59050000Y-16250000D03*
X64200000Y-60100000D03*
X8700000Y-60100000D03*
X64600000Y-54550000D03*
X66700000Y-54550000D03*
X58700000Y-35600000D03*
X49715000Y-35200000D03*
D15*
X72300000Y-61800000D03*
D14*
X41300000Y-55400000D03*
D15*
X73100000Y-61800000D03*
D14*
X45500000Y-49400000D03*
X43400000Y-53750000D03*
D15*
X72100000Y-59600000D03*
X55541187Y-10690575D03*
X58998569Y-12075000D03*
X55545900Y-9887913D03*
X56691800Y-9898331D03*
X59000000Y-10925000D03*
X76400000Y-62300000D03*
X80300000Y-62600000D03*
X76400000Y-63100000D03*
X83127500Y-66600000D03*
X84400000Y-67200000D03*
X76297250Y-63716498D03*
X74600000Y-68400000D03*
D14*
X7200000Y-64900000D03*
X60100000Y-8300000D03*
D16*
X55300000Y-16100000D02*
X23200000Y-16100000D01*
X15600000Y-8500000D02*
X15600000Y-2500000D01*
X57950000Y-13450000D02*
X55300000Y-16100000D01*
X23200000Y-16100000D02*
X15600000Y-8500000D01*
D17*
X56736697Y-11200000D02*
X56125000Y-10588303D01*
X58725000Y-11200000D02*
X56736697Y-11200000D01*
X59000000Y-10925000D02*
X58725000Y-11200000D01*
X55541187Y-10700000D02*
X55541187Y-10690575D01*
X56632987Y-11791800D02*
X55541187Y-10700000D01*
X58715369Y-11791800D02*
X56632987Y-11791800D01*
X58998569Y-12075000D02*
X58715369Y-11791800D01*
D16*
X50700000Y-17700000D02*
X69700000Y-17700000D01*
X88700000Y-17700000D02*
X69700000Y-17700000D01*
X75700000Y-51550000D02*
X74175000Y-53075000D01*
X74175000Y-61325000D02*
X73900000Y-61600000D01*
X12800000Y-17700000D02*
X31800000Y-17700000D01*
X75800000Y-51550000D02*
X75700000Y-51550000D01*
X74175000Y-53075000D02*
X74175000Y-61325000D01*
X31800000Y-17700000D02*
X50700000Y-17700000D01*
X42475000Y-24175000D02*
X23625000Y-24175000D01*
X42525000Y-24175000D02*
X42500000Y-24200000D01*
X42500000Y-24200000D02*
X42475000Y-24175000D01*
X23625000Y-24175000D02*
X23500000Y-24300000D01*
X80500000Y-24300000D02*
X80375000Y-24175000D01*
X80375000Y-24175000D02*
X61625000Y-24175000D01*
X61625000Y-24175000D02*
X61500000Y-24300000D01*
X61500000Y-24300000D02*
X61375000Y-24175000D01*
X75850000Y-60650000D02*
X74900000Y-61600000D01*
X75850000Y-52800000D02*
X75850000Y-60650000D01*
X61375000Y-24175000D02*
X42525000Y-24175000D01*
X53400000Y-43200000D02*
X50619417Y-43200000D01*
X34300000Y-43100000D02*
X34400000Y-43200000D01*
X75000000Y-53350000D02*
X74900000Y-53450000D01*
X53425000Y-43175000D02*
X53400000Y-43200000D01*
X72400000Y-43300000D02*
X72275000Y-43175000D01*
X79200000Y-43300000D02*
X91700000Y-55800000D01*
X91700000Y-55800000D02*
X91700000Y-58100000D01*
X47980583Y-43200000D02*
X34400000Y-43200000D01*
X72400000Y-43300000D02*
X79200000Y-43300000D01*
X72275000Y-43175000D02*
X53425000Y-43175000D01*
X15400000Y-43100000D02*
X34300000Y-43100000D01*
X50594417Y-43175000D02*
X48005583Y-43175000D01*
X48005583Y-43175000D02*
X47980583Y-43200000D01*
X50619417Y-43200000D02*
X50594417Y-43175000D01*
X74900000Y-53450000D02*
X74900000Y-59600000D01*
X49700000Y-62100000D02*
X53600000Y-66000000D01*
X71500000Y-66000000D02*
X75900000Y-61600000D01*
X17600000Y-62100000D02*
X17500000Y-62200000D01*
X46500000Y-62100000D02*
X49700000Y-62100000D01*
X46500000Y-62100000D02*
X17600000Y-62100000D01*
X53600000Y-66000000D02*
X71500000Y-66000000D01*
X86000000Y-53350000D02*
X84700000Y-52050000D01*
X86000000Y-67200000D02*
X86000000Y-53350000D01*
X75800000Y-68300000D02*
X84900000Y-68300000D01*
X71599626Y-66698309D02*
X74198309Y-66698309D01*
X74198309Y-66698309D02*
X75800000Y-68300000D01*
X84900000Y-68300000D02*
X86000000Y-67200000D01*
X65700000Y-59300000D02*
X65700000Y-62500000D01*
X66925000Y-63725000D02*
X70615381Y-63725000D01*
X70615381Y-63725000D02*
X71240381Y-63100000D01*
X65700000Y-62500000D02*
X66925000Y-63725000D01*
X71240381Y-63100000D02*
X71900000Y-63100000D01*
X70400000Y-62400000D02*
X71700000Y-62400000D01*
X44700000Y-58500000D02*
X66500000Y-58500000D01*
X66500000Y-58500000D02*
X70400000Y-62400000D01*
X32650000Y-57000000D02*
X27700000Y-52050000D01*
X71500000Y-61697639D02*
X70279899Y-60477538D01*
X70279899Y-60477538D02*
X70277538Y-60477538D01*
X70277538Y-60477538D02*
X66800000Y-57000000D01*
X66800000Y-57000000D02*
X32650000Y-57000000D01*
X53400000Y-9600000D02*
X54200000Y-8800000D01*
X54200000Y-8800000D02*
X57850000Y-8800000D01*
X57850000Y-8800000D02*
X58750000Y-9700000D01*
X2700000Y-5100000D02*
X2700000Y-4100000D01*
X5450000Y-1350000D02*
X14450000Y-1350000D01*
X14450000Y-1350000D02*
X15600000Y-2500000D01*
X2700000Y-4100000D02*
X5450000Y-1350000D01*
X8840000Y-60240000D02*
X8700000Y-60100000D01*
X64060000Y-60240000D02*
X8840000Y-60240000D01*
X64200000Y-60100000D02*
X64060000Y-60240000D01*
X66700000Y-54550000D02*
X64600000Y-54550000D01*
X49715000Y-35200000D02*
X58300000Y-35200000D01*
X58300000Y-35200000D02*
X58700000Y-35600000D01*
X41400000Y-55500000D02*
X67000000Y-55500000D01*
X72300000Y-60800000D02*
X72300000Y-61800000D01*
X67000000Y-55500000D02*
X72300000Y-60800000D01*
X41300000Y-55400000D02*
X41400000Y-55500000D01*
X52995836Y-49300000D02*
X65543042Y-49300000D01*
X65543042Y-49300000D02*
X72800000Y-56556958D01*
X52870836Y-49425000D02*
X52995836Y-49300000D01*
X72800000Y-59854595D02*
X73100000Y-60154595D01*
X45500000Y-49425000D02*
X52870836Y-49425000D01*
X72800000Y-56556958D02*
X72800000Y-59854595D01*
X73100000Y-60154595D02*
X73100000Y-61800000D01*
X67750000Y-53750000D02*
X72100000Y-58100000D01*
X43400000Y-53750000D02*
X67750000Y-53750000D01*
X72100000Y-58100000D02*
X72100000Y-59600000D01*
D17*
X56125000Y-10465131D02*
X56125000Y-10588303D01*
X56125000Y-10467013D02*
X56125000Y-10588303D01*
X56691800Y-9898331D02*
X56125000Y-10465131D01*
X55545900Y-9887913D02*
X56125000Y-10467013D01*
D18*
X80000000Y-62300000D02*
X78900000Y-62300000D01*
X78690000Y-62090000D02*
X77960000Y-62090000D01*
X77020000Y-62300000D02*
X76600000Y-62300000D01*
X77750000Y-62300000D02*
X77020000Y-62300000D01*
X80300000Y-62600000D02*
X80000000Y-62300000D01*
X76600000Y-62300000D02*
X76400000Y-62300000D01*
X77855000Y-62195000D02*
G75*
G02*
X77750000Y-62300000I-105000J0D01*
G01*
X78900000Y-62300000D02*
G75*
G02*
X78795000Y-62195000I0J105000D01*
G01*
X78795000Y-62195000D02*
G75*
G03*
X78690000Y-62090000I-105000J0D01*
G01*
X77960000Y-62090000D02*
G75*
G03*
X77855000Y-62195000I0J-105000D01*
G01*
X82107995Y-65607996D02*
X82107995Y-65607995D01*
X83127500Y-66600000D02*
X83100000Y-66600000D01*
X81464527Y-64964527D02*
X81202898Y-64702898D01*
X81202898Y-64702898D02*
X80966347Y-64466347D01*
X81980717Y-65735277D02*
X82107995Y-65607996D01*
X82235274Y-65226157D02*
X81973644Y-64964527D01*
X82107995Y-65607995D02*
X82235274Y-65480715D01*
X80966347Y-64466347D02*
X79600000Y-63100000D01*
X82242347Y-66251465D02*
X81980717Y-65989835D01*
X79600000Y-63100000D02*
X76400000Y-63100000D01*
X83100000Y-66600000D02*
X82751465Y-66251465D01*
X81980717Y-65989835D02*
G75*
G02*
X81980761Y-65735321I127283J127235D01*
G01*
X82496905Y-66251464D02*
G75*
G02*
X82242321Y-66251491I-127305J127264D01*
G01*
X81973644Y-64964527D02*
G75*
G03*
X81719086Y-64964527I-127279J-127278D01*
G01*
X81719086Y-64964527D02*
G75*
G02*
X81464528Y-64964527I-127279J127279D01*
G01*
X82235274Y-65480715D02*
G75*
G03*
X82235310Y-65226121I-127274J127315D01*
G01*
X82751465Y-66251465D02*
G75*
G03*
X82496921Y-66251479I-127265J-127235D01*
G01*
X80400000Y-65600000D02*
X82000000Y-67200000D01*
X76297250Y-63716498D02*
X76297250Y-63747250D01*
X82000000Y-67200000D02*
X84400000Y-67200000D01*
X78150000Y-65600000D02*
X80400000Y-65600000D01*
X76297250Y-63747250D02*
X78150000Y-65600000D01*
D16*
X7200000Y-64900000D02*
X11200000Y-68900000D01*
X39300000Y-68000000D02*
X43300000Y-72000000D01*
X16300000Y-68000000D02*
X39300000Y-68000000D01*
X11200000Y-68900000D02*
X15400000Y-68900000D01*
X15400000Y-68900000D02*
X16300000Y-68000000D01*
X43300000Y-72000000D02*
X72500000Y-72000000D01*
X72500000Y-72000000D02*
X74600000Y-69900000D01*
X74600000Y-69900000D02*
X74600000Y-68400000D01*
M02*
