G04 #@! TF.GenerationSoftware,KiCad,Pcbnew,8.0.4*
G04 #@! TF.CreationDate,2025-02-13T17:40:08+00:00*
G04 #@! TF.ProjectId,Mathboard,4d617468-626f-4617-9264-2e6b69636164,rev?*
G04 #@! TF.SameCoordinates,PX501bd00PY28b8ce0*
G04 #@! TF.FileFunction,Paste,Top*
G04 #@! TF.FilePolarity,Positive*
%FSLAX46Y46*%
G04 Gerber Fmt 4.6, Leading zero omitted, Abs format (unit mm)*
G04 Created by KiCad (PCBNEW 8.0.4) date 2025-02-13 17:40:08*
%MOMM*%
%LPD*%
G01*
G04 APERTURE LIST*
G04 Aperture macros list*
%AMRoundRect*
0 Rectangle with rounded corners*
0 $1 Rounding radius*
0 $2 $3 $4 $5 $6 $7 $8 $9 X,Y pos of 4 corners*
0 Add a 4 corners polygon primitive as box body*
4,1,4,$2,$3,$4,$5,$6,$7,$8,$9,$2,$3,0*
0 Add four circle primitives for the rounded corners*
1,1,$1+$1,$2,$3*
1,1,$1+$1,$4,$5*
1,1,$1+$1,$6,$7*
1,1,$1+$1,$8,$9*
0 Add four rect primitives between the rounded corners*
20,1,$1+$1,$2,$3,$4,$5,0*
20,1,$1+$1,$4,$5,$6,$7,0*
20,1,$1+$1,$6,$7,$8,$9,0*
20,1,$1+$1,$8,$9,$2,$3,0*%
G04 Aperture macros list end*
%ADD10R,0.600000X1.240000*%
%ADD11R,0.300000X1.240000*%
%ADD12RoundRect,0.225000X0.375000X-0.225000X0.375000X0.225000X-0.375000X0.225000X-0.375000X-0.225000X0*%
%ADD13R,0.500000X0.600000*%
%ADD14RoundRect,0.140000X-0.170000X0.140000X-0.170000X-0.140000X0.170000X-0.140000X0.170000X0.140000X0*%
%ADD15RoundRect,0.225000X-0.250000X0.225000X-0.250000X-0.225000X0.250000X-0.225000X0.250000X0.225000X0*%
%ADD16RoundRect,0.225000X-0.225000X-0.375000X0.225000X-0.375000X0.225000X0.375000X-0.225000X0.375000X0*%
%ADD17RoundRect,0.135000X0.185000X-0.135000X0.185000X0.135000X-0.185000X0.135000X-0.185000X-0.135000X0*%
%ADD18RoundRect,0.135000X0.135000X0.185000X-0.135000X0.185000X-0.135000X-0.185000X0.135000X-0.185000X0*%
%ADD19R,1.150000X1.000000*%
%ADD20RoundRect,0.140000X-0.140000X-0.170000X0.140000X-0.170000X0.140000X0.170000X-0.140000X0.170000X0*%
%ADD21RoundRect,0.140000X0.170000X-0.140000X0.170000X0.140000X-0.170000X0.140000X-0.170000X-0.140000X0*%
%ADD22RoundRect,0.225000X-0.375000X0.225000X-0.375000X-0.225000X0.375000X-0.225000X0.375000X0.225000X0*%
%ADD23RoundRect,0.200000X0.335876X0.053033X0.053033X0.335876X-0.335876X-0.053033X-0.053033X-0.335876X0*%
%ADD24RoundRect,0.135000X-0.185000X0.135000X-0.185000X-0.135000X0.185000X-0.135000X0.185000X0.135000X0*%
%ADD25RoundRect,0.135000X-0.135000X-0.185000X0.135000X-0.185000X0.135000X0.185000X-0.135000X0.185000X0*%
%ADD26RoundRect,0.125000X-0.125000X0.200000X-0.125000X-0.200000X0.125000X-0.200000X0.125000X0.200000X0*%
%ADD27RoundRect,0.250000X-0.615000X0.435000X-0.615000X-0.435000X0.615000X-0.435000X0.615000X0.435000X0*%
%ADD28RoundRect,0.140000X0.140000X0.170000X-0.140000X0.170000X-0.140000X-0.170000X0.140000X-0.170000X0*%
%ADD29RoundRect,0.100000X-0.100000X0.225000X-0.100000X-0.225000X0.100000X-0.225000X0.100000X0.225000X0*%
%ADD30RoundRect,0.225000X0.225000X0.375000X-0.225000X0.375000X-0.225000X-0.375000X0.225000X-0.375000X0*%
%ADD31RoundRect,0.085000X0.265000X0.085000X-0.265000X0.085000X-0.265000X-0.085000X0.265000X-0.085000X0*%
%ADD32RoundRect,0.050000X-0.387500X0.050000X-0.387500X-0.050000X0.387500X-0.050000X0.387500X0.050000X0*%
%ADD33RoundRect,0.050000X-0.050000X0.387500X-0.050000X-0.387500X0.050000X-0.387500X0.050000X0.387500X0*%
%ADD34RoundRect,0.249999X-0.395001X0.395001X-0.395001X-0.395001X0.395001X-0.395001X0.395001X0.395001X0*%
%ADD35RoundRect,0.085000X-0.265000X-0.085000X0.265000X-0.085000X0.265000X0.085000X-0.265000X0.085000X0*%
%ADD36R,0.750000X1.000000*%
%ADD37R,0.650000X0.650000*%
%ADD38RoundRect,0.225000X0.250000X-0.225000X0.250000X0.225000X-0.250000X0.225000X-0.250000X-0.225000X0*%
%ADD39RoundRect,0.085000X0.085000X-0.265000X0.085000X0.265000X-0.085000X0.265000X-0.085000X-0.265000X0*%
%ADD40R,0.800000X1.600000*%
%ADD41R,1.000000X0.850000*%
%ADD42R,1.500000X0.820000*%
%ADD43R,1.500000X0.810000*%
%ADD44RoundRect,0.205000X0.545000X0.205000X-0.545000X0.205000X-0.545000X-0.205000X0.545000X-0.205000X0*%
%ADD45RoundRect,0.147500X-0.172500X0.147500X-0.172500X-0.147500X0.172500X-0.147500X0.172500X0.147500X0*%
%ADD46RoundRect,0.150000X0.587500X0.150000X-0.587500X0.150000X-0.587500X-0.150000X0.587500X-0.150000X0*%
%ADD47RoundRect,0.147500X-0.147500X-0.172500X0.147500X-0.172500X0.147500X0.172500X-0.147500X0.172500X0*%
%ADD48RoundRect,0.093750X0.093750X-0.156250X0.093750X0.156250X-0.093750X0.156250X-0.093750X-0.156250X0*%
%ADD49RoundRect,0.075000X0.075000X-0.250000X0.075000X0.250000X-0.075000X0.250000X-0.075000X-0.250000X0*%
G04 APERTURE END LIST*
D10*
X59000000Y-8175000D03*
X58200000Y-8175000D03*
D11*
X57050000Y-8175000D03*
X56050000Y-8175000D03*
X55550000Y-8175000D03*
X54550000Y-8175000D03*
D10*
X53400000Y-8175000D03*
X52600000Y-8175000D03*
X52600000Y-8175000D03*
X53400000Y-8175000D03*
D11*
X54050000Y-8175000D03*
X55050000Y-8175000D03*
X56550000Y-8175000D03*
X57550000Y-8175000D03*
D10*
X58200000Y-8175000D03*
X59000000Y-8175000D03*
D12*
X53100000Y-19150000D03*
X53100000Y-15850000D03*
D13*
X57600000Y-11050000D03*
X58400000Y-11050000D03*
D14*
X56350000Y-20220000D03*
X56350000Y-21180000D03*
D15*
X54150000Y-10975000D03*
X54150000Y-12525000D03*
D16*
X87450000Y-54900000D03*
X90750000Y-54900000D03*
D17*
X40000000Y-11510000D03*
X40000000Y-10490000D03*
D18*
X67400000Y-69800000D03*
X66380000Y-69800000D03*
D19*
X65825000Y-63000000D03*
X67575000Y-63000000D03*
X67575000Y-61600000D03*
X65825000Y-61600000D03*
D20*
X3520000Y-7800000D03*
X4480000Y-7800000D03*
D21*
X77800000Y-69480000D03*
X77800000Y-68520000D03*
D22*
X17500000Y-63550000D03*
X17500000Y-66850000D03*
D23*
X81883363Y-70683363D03*
X80716637Y-69516637D03*
D17*
X60400000Y-62810000D03*
X60400000Y-61790000D03*
D14*
X69900000Y-56720000D03*
X69900000Y-57680000D03*
D17*
X59300000Y-61510000D03*
X59300000Y-60490000D03*
D24*
X41000000Y-10490000D03*
X41000000Y-11510000D03*
D25*
X65890000Y-64300000D03*
X66910000Y-64300000D03*
D26*
X86805000Y-67825000D03*
X85535000Y-67825000D03*
X84265000Y-67825000D03*
X82995000Y-67825000D03*
X82995000Y-60325000D03*
X84265000Y-60325000D03*
X85535000Y-60325000D03*
X86805000Y-60325000D03*
D27*
X83825000Y-64925000D03*
X85975000Y-64925000D03*
X83825000Y-63225000D03*
X85975000Y-63225000D03*
D28*
X69280000Y-65400000D03*
X68320000Y-65400000D03*
D14*
X14400000Y-2920000D03*
X14400000Y-3880000D03*
D12*
X69700000Y-19250000D03*
X69700000Y-15950000D03*
D29*
X41150000Y-7350000D03*
X40500000Y-7350000D03*
X39850000Y-7350000D03*
X39850000Y-9250000D03*
X41150000Y-9250000D03*
D14*
X73000000Y-68820000D03*
X73000000Y-69780000D03*
D22*
X52400000Y-28350000D03*
X52400000Y-25050000D03*
D30*
X63450000Y-49300000D03*
X60150000Y-49300000D03*
D15*
X64300000Y-61525000D03*
X64300000Y-63075000D03*
D24*
X71910000Y-56690000D03*
X71910000Y-57710000D03*
D21*
X47400000Y-55900000D03*
X47400000Y-54940000D03*
D31*
X75560000Y-57700000D03*
X75560000Y-57200000D03*
X75560000Y-56700000D03*
X74060000Y-56700000D03*
X74060000Y-57200000D03*
X74060000Y-57700000D03*
D16*
X86450000Y-21800000D03*
X89750000Y-21800000D03*
D21*
X85300000Y-24660000D03*
X85300000Y-23700000D03*
D30*
X27150000Y-18500000D03*
X23850000Y-18500000D03*
X27150000Y-21400000D03*
X23850000Y-21400000D03*
D24*
X86825000Y-58265000D03*
X86825000Y-59285000D03*
D12*
X50700000Y-19150000D03*
X50700000Y-15850000D03*
D18*
X67400000Y-71000000D03*
X66380000Y-71000000D03*
X79910000Y-57000000D03*
X78890000Y-57000000D03*
D30*
X78450000Y-50900000D03*
X75150000Y-50900000D03*
D21*
X78600000Y-67480000D03*
X78600000Y-66520000D03*
D17*
X72910000Y-57710000D03*
X72910000Y-56690000D03*
D32*
X77437500Y-61500000D03*
X77437500Y-61900000D03*
X77437500Y-62300000D03*
X77437500Y-62700000D03*
X77437500Y-63100000D03*
X77437500Y-63500000D03*
X77437500Y-63900000D03*
X77437500Y-64300000D03*
X77437500Y-64700000D03*
X77437500Y-65100000D03*
X77437500Y-65500000D03*
X77437500Y-65900000D03*
X77437500Y-66300000D03*
X77437500Y-66700000D03*
D33*
X76600000Y-67537500D03*
X76200000Y-67537500D03*
X75800000Y-67537500D03*
X75400000Y-67537500D03*
X75000000Y-67537500D03*
X74600000Y-67537500D03*
X74200000Y-67537500D03*
X73800000Y-67537500D03*
X73400000Y-67537500D03*
X73000000Y-67537500D03*
X72600000Y-67537500D03*
X72200000Y-67537500D03*
X71800000Y-67537500D03*
X71400000Y-67537500D03*
D32*
X70562500Y-66700000D03*
X70562500Y-66300000D03*
X70562500Y-65900000D03*
X70562500Y-65500000D03*
X70562500Y-65100000D03*
X70562500Y-64700000D03*
X70562500Y-64300000D03*
X70562500Y-63900000D03*
X70562500Y-63500000D03*
X70562500Y-63100000D03*
X70562500Y-62700000D03*
X70562500Y-62300000D03*
X70562500Y-61900000D03*
X70562500Y-61500000D03*
D33*
X71400000Y-60662500D03*
X71800000Y-60662500D03*
X72200000Y-60662500D03*
X72600000Y-60662500D03*
X73000000Y-60662500D03*
X73400000Y-60662500D03*
X73800000Y-60662500D03*
X74200000Y-60662500D03*
X74600000Y-60662500D03*
X75000000Y-60662500D03*
X75400000Y-60662500D03*
X75800000Y-60662500D03*
X76200000Y-60662500D03*
X76600000Y-60662500D03*
D34*
X73200000Y-64900000D03*
X74800000Y-64900000D03*
X73200000Y-63300000D03*
X74800000Y-63300000D03*
D28*
X69280000Y-64500000D03*
X68320000Y-64500000D03*
D23*
X80893414Y-71673312D03*
X79726688Y-70506586D03*
D20*
X76600000Y-59400000D03*
X77560000Y-59400000D03*
X29880000Y-20100000D03*
X28920000Y-20100000D03*
D35*
X60350000Y-60040000D03*
X60350000Y-60540000D03*
X60350000Y-61040000D03*
X61850000Y-61040000D03*
X61850000Y-60540000D03*
X61850000Y-60040000D03*
D28*
X78180000Y-44700000D03*
X77220000Y-44700000D03*
D16*
X32350000Y-21300000D03*
X35650000Y-21300000D03*
X43050000Y-60900000D03*
X46350000Y-60900000D03*
D20*
X86820000Y-68900000D03*
X87780000Y-68900000D03*
D14*
X76900000Y-68520000D03*
X76900000Y-69480000D03*
D36*
X45965000Y-38370000D03*
X45965000Y-32370000D03*
X49715000Y-38370000D03*
X49715000Y-32370000D03*
D37*
X46725000Y-700000D03*
X45275000Y-700000D03*
D38*
X69100000Y-63075000D03*
X69100000Y-61525000D03*
D20*
X78620000Y-64300000D03*
X79580000Y-64300000D03*
D21*
X12100000Y-60680000D03*
X12100000Y-59720000D03*
D18*
X77720000Y-57700000D03*
X76700000Y-57700000D03*
D30*
X38050000Y-54200000D03*
X34750000Y-54200000D03*
D22*
X80500000Y-25650000D03*
X80500000Y-28950000D03*
D16*
X29450000Y-18500000D03*
X32750000Y-18500000D03*
D14*
X70910000Y-56720000D03*
X70910000Y-57680000D03*
D39*
X3800000Y-6650000D03*
X4300000Y-6650000D03*
X4800000Y-6650000D03*
X4800000Y-5150000D03*
X4300000Y-5150000D03*
X3800000Y-5150000D03*
D21*
X73000000Y-59580000D03*
X73000000Y-58620000D03*
D18*
X71910000Y-58700000D03*
X70890000Y-58700000D03*
D12*
X15700000Y-56950000D03*
X15700000Y-53650000D03*
D40*
X34000000Y-3545800D03*
X35499999Y-3545800D03*
X38500001Y-3545800D03*
X40000001Y-3545800D03*
D41*
X31850000Y-700000D03*
X31850000Y-2900000D03*
X42150000Y-700000D03*
X42150000Y-2900000D03*
D18*
X67400000Y-68600000D03*
X66380000Y-68600000D03*
D42*
X12750000Y-2550000D03*
D43*
X12750000Y-4045000D03*
D44*
X7450000Y-4050000D03*
D42*
X7450000Y-2550000D03*
D28*
X51280000Y-23000000D03*
X50320000Y-23000000D03*
D25*
X49790000Y-10600000D03*
X50810000Y-10600000D03*
D45*
X52900000Y-11015000D03*
X52900000Y-11985000D03*
D46*
X58500000Y-20050000D03*
X58500000Y-18150000D03*
X56625000Y-19100000D03*
D47*
X57590000Y-10000000D03*
X58560000Y-10000000D03*
D14*
X59950000Y-18670000D03*
X59950000Y-19630000D03*
D21*
X54200000Y-14880000D03*
X54200000Y-13920000D03*
D48*
X55462500Y-12350000D03*
D49*
X56000000Y-12425000D03*
D48*
X56537500Y-12350000D03*
X56537500Y-10650000D03*
D49*
X56000000Y-10575000D03*
D48*
X55462500Y-10650000D03*
D25*
X49790000Y-9600000D03*
X50810000Y-9600000D03*
M02*
