  0
SECTION
  2
HEADER
  9
$ACADVER
  1
AC1014
  9
$HANDSEED
  5
FFFF
  9
$MEASUREMENT
 70
     1
  0
ENDSEC
  0
SECTION
  2
TABLES
  0
TABLE
  2
VPORT
  5
8
330
0
100
AcDbSymbolTable
 70
     4
  0
VPORT
  5
2E
330
8
100
AcDbSymbolTableRecord
100
AcDbViewportTableRecord
  2
*ACTIVE
 70
     0
 10
0.0
 20
0.0
 11
1.0
 21
1.0
 12
210.0
 22
148.5
 13
0.0
 23
0.0
 14
10.0
 24
10.0
 15
10.0
 25
10.0
 16
0.0
 26
0.0
 36
1.0
 17
0.0
 27
0.0
 37
0.0
 40
341.0
 41
1.24
 42
50.0
 43
0.0
 44
0.0
 50
0.0
 51
0.0
 71
     0
 72
   100
 73
     1
 74
     3
 75
     0
 76
     0
 77
     0
 78
     0
  0
ENDTAB
  0
TABLE
  2
LTYPE
  5
5
330
0
100
AcDbSymbolTable
 70
     1
  0
LTYPE
  5
14
330
5
100
AcDbSymbolTableRecord
100
AcDbLinetypeTableRecord
  2
BYBLOCK
 70
     0
  3

 72
    65
 73
     0
 40
0.0
  0
LTYPE
  5
15
330
5
100
AcDbSymbolTableRecord
100
AcDbLinetypeTableRecord
  2
BYLAYER
 70
     0
  3

 72
    65
 73
     0
 40
0.0
  0
LTYPE
  5
16
330
5
100
AcDbSymbolTableRecord
100
AcDbLinetypeTableRecord
  2
CONTINUOUS
 70
     0
  3
Solid line
 72
    65
 73
     0
 40
0.0
  0
ENDTAB
  0
TABLE
  2
LAYER
  5
2
100
AcDbSymbolTable
 70
1
  0
LAYER
  5
50
100
AcDbSymbolTableRecord
100
AcDbLayerTableRecord
  2
0
 70
0
  6
CONTINUOUS
  0
ENDTAB
  0
TABLE
  2
STYLE
  5
3
330
0
100
AcDbSymbolTable
 70
     1
  0
STYLE
  5
11
330
3
100
AcDbSymbolTableRecord
100
AcDbTextStyleTableRecord
  2
STANDARD
 70
     0
 40
0.0
 41
1.0
 50
0.0
 71
     0
 42
2.5
  3
txt
  4

  0
ENDTAB
  0
TABLE
  2
VIEW
  5
6
330
0
100
AcDbSymbolTable
 70
     0
  0
ENDTAB
  0
TABLE
  2
UCS
  5
7
330
0
100
AcDbSymbolTable
 70
     0
  0
ENDTAB
  0
TABLE
  2
APPID
  5
9
330
0
100
AcDbSymbolTable
 70
     2
  0
APPID
  5
12
330
9
100
AcDbSymbolTableRecord
100
AcDbRegAppTableRecord
  2
ACAD
 70
     0
  0
ENDTAB
  0
TABLE
  2
DIMSTYLE
  5
A
330
0
100
AcDbSymbolTable
 70
     1
  0
DIMSTYLE
105
27
330
A
100
AcDbSymbolTableRecord
100
AcDbDimStyleTableRecord
  2
ISO-25
 70
     0
  3

  4

  5

  6

  7

 40
1.0
 41
2.5
 42
0.625
 43
3.75
 44
1.25
 45
0.0
 46
0.0
 47
0.0
 48
0.0
140
2.5
141
2.5
142
0.0
143
0.03937007874016
144
1.0
145
0.0
146
1.0
147
0.625
 71
     0
 72
     0
 73
     0
 74
     0
 75
     0
 76
     0
 77
     1
 78
     8
170
     0
171
     3
172
     1
173
     0
174
     0
175
     0
176
     0
177
     0
178
     0
270
     2
271
     2
272
     2
273
     2
274
     3
340
11
275
     0
280
     0
281
     0
282
     0
283
     0
284
     8
285
     0
286
     0
287
     3
288
     0
  0
ENDTAB
  0
TABLE
  2
BLOCK_RECORD
  5
1
330
0
100
AcDbSymbolTable
 70
     1
  0
BLOCK_RECORD
  5
1F
330
1
100
AcDbSymbolTableRecord
100
AcDbBlockTableRecord
  2
*MODEL_SPACE
  0
BLOCK_RECORD
  5
1B
330
1
100
AcDbSymbolTableRecord
100
AcDbBlockTableRecord
  2
*PAPER_SPACE
  0
ENDTAB
  0
ENDSEC
  0
SECTION
  2
BLOCKS
  0
BLOCK
  5
20
330
1F
100
AcDbEntity
  8
0
100
AcDbBlockBegin
  2
*MODEL_SPACE
 70
     0
 10
0.0
 20
0.0
 30
0.0
  3
*MODEL_SPACE
  1

  0
ENDBLK
  5
21
330
1F
100
AcDbEntity
  8
0
100
AcDbBlockEnd
  0
BLOCK
  5
1C
330
1B
100
AcDbEntity
 67
     1
  8
0
100
AcDbBlockBegin
  2
*PAPER_SPACE
  1

  0
ENDBLK
  5
1D
330
1B
100
AcDbEntity
 67
     1
  8
0
100
AcDbBlockEnd
  0
ENDSEC
  0
SECTION
  2
ENTITIES
  0
SPLINE
  5
100
100
AcDbEntity
  8
0
 62
7
100
AcDbSpline
 70
8
 71
3
 72
8
 73
4
 74
0
 40
0
 40
0
 40
0
 40
0
 40
1
 40
1
 40
1
 40
1
 10
41.672522
 20
70.086445
 30
0.0
 10
42.226522
 20
70.086445
 30
0.0
 10
42.672522
 20
69.640445
 30
0.0
 10
42.672522
 20
69.086445
 30
0.0
  0
LWPOLYLINE
  5
101
100
AcDbEntity
  8
0
 62
7
100
AcDbPolyline
 90
2
 70
0
 10
35.073563
 20
70.086445
 30
0.0
 10
41.672522
 20
70.086445
 30
0.0
  0
SPLINE
  5
102
100
AcDbEntity
  8
0
 62
7
100
AcDbSpline
 70
8
 71
3
 72
8
 73
4
 74
0
 40
0
 40
0
 40
0
 40
0
 40
1
 40
1
 40
1
 40
1
 10
42.672522
 20
62.487486
 30
0.0
 10
42.672522
 20
61.933486
 30
0.0
 10
42.226522
 20
61.487486
 30
0.0
 10
41.672522
 20
61.487486
 30
0.0
  0
LWPOLYLINE
  5
103
100
AcDbEntity
  8
0
 62
7
100
AcDbPolyline
 90
2
 70
0
 10
42.672522
 20
69.086445
 30
0.0
 10
42.672522
 20
62.487486
 30
0.0
  0
SPLINE
  5
104
100
AcDbEntity
  8
0
 62
7
100
AcDbSpline
 70
8
 71
3
 72
8
 73
4
 74
0
 40
0
 40
0
 40
0
 40
0
 40
1
 40
1
 40
1
 40
1
 10
35.073563
 20
61.487486
 30
0.0
 10
34.519563
 20
61.487486
 30
0.0
 10
34.073563
 20
61.933486
 30
0.0
 10
34.073563
 20
62.487486
 30
0.0
  0
LWPOLYLINE
  5
105
100
AcDbEntity
  8
0
 62
7
100
AcDbPolyline
 90
2
 70
0
 10
41.672522
 20
61.487486
 30
0.0
 10
35.073563
 20
61.487486
 30
0.0
  0
SPLINE
  5
106
100
AcDbEntity
  8
0
 62
7
100
AcDbSpline
 70
8
 71
3
 72
8
 73
4
 74
0
 40
0
 40
0
 40
0
 40
0
 40
1
 40
1
 40
1
 40
1
 10
34.073563
 20
69.086445
 30
0.0
 10
34.073563
 20
69.640445
 30
0.0
 10
34.519563
 20
70.086445
 30
0.0
 10
35.073563
 20
70.086445
 30
0.0
  0
LWPOLYLINE
  5
107
100
AcDbEntity
  8
0
 62
7
100
AcDbPolyline
 90
2
 70
0
 10
34.073563
 20
62.487486
 30
0.0
 10
34.073563
 20
69.086445
 30
0.0
  0
LWPOLYLINE
  5
108
100
AcDbEntity
  8
0
 62
7
100
AcDbPolyline
 90
1
 70
1
 10
35.073563
 20
70.086445
 30
0.0
  0
SPLINE
  5
109
100
AcDbEntity
  8
0
 62
7
100
AcDbSpline
 70
8
 71
3
 72
8
 73
4
 74
0
 40
0
 40
0
 40
0
 40
0
 40
1
 40
1
 40
1
 40
1
 10
69.864762
 20
36.519779
 30
0.0
 10
70.418762
 20
36.519779
 30
0.0
 10
70.864762
 20
36.073779
 30
0.0
 10
70.864762
 20
35.519779
 30
0.0
  0
LWPOLYLINE
  5
10a
100
AcDbEntity
  8
0
 62
7
100
AcDbPolyline
 90
2
 70
0
 10
57.656681
 20
36.519779
 30
0.0
 10
69.864762
 20
36.519779
 30
0.0
  0
SPLINE
  5
10b
100
AcDbEntity
  8
0
 62
7
100
AcDbSpline
 70
8
 71
3
 72
8
 73
4
 74
0
 40
0
 40
0
 40
0
 40
0
 40
1
 40
1
 40
1
 40
1
 10
70.864762
 20
28.920822
 30
0.0
 10
70.864762
 20
28.366822
 30
0.0
 10
70.418762
 20
27.920822
 30
0.0
 10
69.864762
 20
27.920822
 30
0.0
  0
LWPOLYLINE
  5
10c
100
AcDbEntity
  8
0
 62
7
100
AcDbPolyline
 90
2
 70
0
 10
70.864762
 20
35.519779
 30
0.0
 10
70.864762
 20
28.920822
 30
0.0
  0
SPLINE
  5
10d
100
AcDbEntity
  8
0
 62
7
100
AcDbSpline
 70
8
 71
3
 72
8
 73
4
 74
0
 40
0
 40
0
 40
0
 40
0
 40
1
 40
1
 40
1
 40
1
 10
57.656681
 20
27.920822
 30
0.0
 10
57.102681
 20
27.920822
 30
0.0
 10
56.656681
 20
28.366822
 30
0.0
 10
56.656681
 20
28.920822
 30
0.0
  0
LWPOLYLINE
  5
10e
100
AcDbEntity
  8
0
 62
7
100
AcDbPolyline
 90
2
 70
0
 10
69.864762
 20
27.920822
 30
0.0
 10
57.656681
 20
27.920822
 30
0.0
  0
SPLINE
  5
10f
100
AcDbEntity
  8
0
 62
7
100
AcDbSpline
 70
8
 71
3
 72
8
 73
4
 74
0
 40
0
 40
0
 40
0
 40
0
 40
1
 40
1
 40
1
 40
1
 10
56.656681
 20
35.519779
 30
0.0
 10
56.656681
 20
36.073779
 30
0.0
 10
57.102681
 20
36.519779
 30
0.0
 10
57.656681
 20
36.519779
 30
0.0
  0
LWPOLYLINE
  5
110
100
AcDbEntity
  8
0
 62
7
100
AcDbPolyline
 90
2
 70
0
 10
56.656681
 20
28.920822
 30
0.0
 10
56.656681
 20
35.519779
 30
0.0
  0
LWPOLYLINE
  5
111
100
AcDbEntity
  8
0
 62
7
100
AcDbPolyline
 90
1
 70
1
 10
57.656681
 20
36.519779
 30
0.0
  0
SPLINE
  5
112
100
AcDbEntity
  8
0
 62
7
100
AcDbSpline
 70
8
 71
3
 72
8
 73
4
 74
0
 40
0
 40
0
 40
0
 40
0
 40
1
 40
1
 40
1
 40
1
 10
86.513707
 20
36.585926
 30
0.0
 10
87.067707
 20
36.585926
 30
0.0
 10
87.513707
 20
36.139926
 30
0.0
 10
87.513707
 20
35.585926
 30
0.0
  0
LWPOLYLINE
  5
113
100
AcDbEntity
  8
0
 62
7
100
AcDbPolyline
 90
2
 70
0
 10
74.305626
 20
36.585926
 30
0.0
 10
86.513707
 20
36.585926
 30
0.0
  0
SPLINE
  5
114
100
AcDbEntity
  8
0
 62
7
100
AcDbSpline
 70
8
 71
3
 72
8
 73
4
 74
0
 40
0
 40
0
 40
0
 40
0
 40
1
 40
1
 40
1
 40
1
 10
87.513707
 20
28.986969
 30
0.0
 10
87.513707
 20
28.432969
 30
0.0
 10
87.067707
 20
27.986969
 30
0.0
 10
86.513707
 20
27.986969
 30
0.0
  0
LWPOLYLINE
  5
115
100
AcDbEntity
  8
0
 62
7
100
AcDbPolyline
 90
2
 70
0
 10
87.513707
 20
35.585926
 30
0.0
 10
87.513707
 20
28.986969
 30
0.0
  0
SPLINE
  5
116
100
AcDbEntity
  8
0
 62
7
100
AcDbSpline
 70
8
 71
3
 72
8
 73
4
 74
0
 40
0
 40
0
 40
0
 40
0
 40
1
 40
1
 40
1
 40
1
 10
74.305626
 20
27.986969
 30
0.0
 10
73.751626
 20
27.986969
 30
0.0
 10
73.305626
 20
28.432969
 30
0.0
 10
73.305626
 20
28.986969
 30
0.0
  0
LWPOLYLINE
  5
117
100
AcDbEntity
  8
0
 62
7
100
AcDbPolyline
 90
2
 70
0
 10
86.513707
 20
27.986969
 30
0.0
 10
74.305626
 20
27.986969
 30
0.0
  0
SPLINE
  5
118
100
AcDbEntity
  8
0
 62
7
100
AcDbSpline
 70
8
 71
3
 72
8
 73
4
 74
0
 40
0
 40
0
 40
0
 40
0
 40
1
 40
1
 40
1
 40
1
 10
73.305626
 20
35.585926
 30
0.0
 10
73.305626
 20
36.139926
 30
0.0
 10
73.751626
 20
36.585926
 30
0.0
 10
74.305626
 20
36.585926
 30
0.0
  0
LWPOLYLINE
  5
119
100
AcDbEntity
  8
0
 62
7
100
AcDbPolyline
 90
2
 70
0
 10
73.305626
 20
28.986969
 30
0.0
 10
73.305626
 20
35.585926
 30
0.0
  0
LWPOLYLINE
  5
11a
100
AcDbEntity
  8
0
 62
7
100
AcDbPolyline
 90
1
 70
1
 10
74.305626
 20
36.585926
 30
0.0
  0
SPLINE
  5
11b
100
AcDbEntity
  8
0
 62
7
100
AcDbSpline
 70
8
 71
3
 72
8
 73
4
 74
0
 40
0
 40
0
 40
0
 40
0
 40
1
 40
1
 40
1
 40
1
 10
52.851168
 20
70.086445
 30
0.0
 10
53.405168
 20
70.086445
 30
0.0
 10
53.851168
 20
69.640445
 30
0.0
 10
53.851168
 20
69.086445
 30
0.0
  0
LWPOLYLINE
  5
11c
100
AcDbEntity
  8
0
 62
7
100
AcDbPolyline
 90
2
 70
0
 10
46.252209
 20
70.086445
 30
0.0
 10
52.851168
 20
70.086445
 30
0.0
  0
SPLINE
  5
11d
100
AcDbEntity
  8
0
 62
7
100
AcDbSpline
 70
8
 71
3
 72
8
 73
4
 74
0
 40
0
 40
0
 40
0
 40
0
 40
1
 40
1
 40
1
 40
1
 10
53.851168
 20
62.487486
 30
0.0
 10
53.851168
 20
61.933486
 30
0.0
 10
53.405168
 20
61.487486
 30
0.0
 10
52.851168
 20
61.487486
 30
0.0
  0
LWPOLYLINE
  5
11e
100
AcDbEntity
  8
0
 62
7
100
AcDbPolyline
 90
2
 70
0
 10
53.851168
 20
69.086445
 30
0.0
 10
53.851168
 20
62.487486
 30
0.0
  0
SPLINE
  5
11f
100
AcDbEntity
  8
0
 62
7
100
AcDbSpline
 70
8
 71
3
 72
8
 73
4
 74
0
 40
0
 40
0
 40
0
 40
0
 40
1
 40
1
 40
1
 40
1
 10
46.252209
 20
61.487486
 30
0.0
 10
45.698209
 20
61.487486
 30
0.0
 10
45.252209
 20
61.933486
 30
0.0
 10
45.252209
 20
62.487486
 30
0.0
  0
LWPOLYLINE
  5
120
100
AcDbEntity
  8
0
 62
7
100
AcDbPolyline
 90
2
 70
0
 10
52.851168
 20
61.487486
 30
0.0
 10
46.252209
 20
61.487486
 30
0.0
  0
SPLINE
  5
121
100
AcDbEntity
  8
0
 62
7
100
AcDbSpline
 70
8
 71
3
 72
8
 73
4
 74
0
 40
0
 40
0
 40
0
 40
0
 40
1
 40
1
 40
1
 40
1
 10
45.252209
 20
69.086445
 30
0.0
 10
45.252209
 20
69.640445
 30
0.0
 10
45.698209
 20
70.086445
 30
0.0
 10
46.252209
 20
70.086445
 30
0.0
  0
LWPOLYLINE
  5
122
100
AcDbEntity
  8
0
 62
7
100
AcDbPolyline
 90
2
 70
0
 10
45.252209
 20
62.487486
 30
0.0
 10
45.252209
 20
69.086445
 30
0.0
  0
LWPOLYLINE
  5
123
100
AcDbEntity
  8
0
 62
7
100
AcDbPolyline
 90
1
 70
1
 10
46.252209
 20
70.086445
 30
0.0
  0
SPLINE
  5
124
100
AcDbEntity
  8
0
 62
7
100
AcDbSpline
 70
8
 71
3
 72
8
 73
4
 74
0
 40
0
 40
0
 40
0
 40
0
 40
1
 40
1
 40
1
 40
1
 10
64.029814
 20
70.086445
 30
0.0
 10
64.583814
 20
70.086445
 30
0.0
 10
65.029814
 20
69.640445
 30
0.0
 10
65.029814
 20
69.086445
 30
0.0
  0
LWPOLYLINE
  5
125
100
AcDbEntity
  8
0
 62
7
100
AcDbPolyline
 90
2
 70
0
 10
57.430855
 20
70.086445
 30
0.0
 10
64.029814
 20
70.086445
 30
0.0
  0
SPLINE
  5
126
100
AcDbEntity
  8
0
 62
7
100
AcDbSpline
 70
8
 71
3
 72
8
 73
4
 74
0
 40
0
 40
0
 40
0
 40
0
 40
1
 40
1
 40
1
 40
1
 10
65.029814
 20
62.487486
 30
0.0
 10
65.029814
 20
61.933486
 30
0.0
 10
64.583814
 20
61.487486
 30
0.0
 10
64.029814
 20
61.487486
 30
0.0
  0
LWPOLYLINE
  5
127
100
AcDbEntity
  8
0
 62
7
100
AcDbPolyline
 90
2
 70
0
 10
65.029814
 20
69.086445
 30
0.0
 10
65.029814
 20
62.487486
 30
0.0
  0
SPLINE
  5
128
100
AcDbEntity
  8
0
 62
7
100
AcDbSpline
 70
8
 71
3
 72
8
 73
4
 74
0
 40
0
 40
0
 40
0
 40
0
 40
1
 40
1
 40
1
 40
1
 10
57.430855
 20
61.487486
 30
0.0
 10
56.876855
 20
61.487486
 30
0.0
 10
56.430855
 20
61.933486
 30
0.0
 10
56.430855
 20
62.487486
 30
0.0
  0
LWPOLYLINE
  5
129
100
AcDbEntity
  8
0
 62
7
100
AcDbPolyline
 90
2
 70
0
 10
64.029814
 20
61.487486
 30
0.0
 10
57.430855
 20
61.487486
 30
0.0
  0
SPLINE
  5
12a
100
AcDbEntity
  8
0
 62
7
100
AcDbSpline
 70
8
 71
3
 72
8
 73
4
 74
0
 40
0
 40
0
 40
0
 40
0
 40
1
 40
1
 40
1
 40
1
 10
56.430855
 20
69.086445
 30
0.0
 10
56.430855
 20
69.640445
 30
0.0
 10
56.876855
 20
70.086445
 30
0.0
 10
57.430855
 20
70.086445
 30
0.0
  0
LWPOLYLINE
  5
12b
100
AcDbEntity
  8
0
 62
7
100
AcDbPolyline
 90
2
 70
0
 10
56.430855
 20
62.487486
 30
0.0
 10
56.430855
 20
69.086445
 30
0.0
  0
LWPOLYLINE
  5
12c
100
AcDbEntity
  8
0
 62
7
100
AcDbPolyline
 90
1
 70
1
 10
57.430855
 20
70.086445
 30
0.0
  0
SPLINE
  5
12d
100
AcDbEntity
  8
0
 62
7
100
AcDbSpline
 70
8
 71
3
 72
8
 73
4
 74
0
 40
0
 40
0
 40
0
 40
0
 40
1
 40
1
 40
1
 40
1
 10
75.208464
 20
70.086445
 30
0.0
 10
75.762464
 20
70.086445
 30
0.0
 10
76.208464
 20
69.640445
 30
0.0
 10
76.208464
 20
69.086445
 30
0.0
  0
LWPOLYLINE
  5
12e
100
AcDbEntity
  8
0
 62
7
100
AcDbPolyline
 90
2
 70
0
 10
68.609505
 20
70.086445
 30
0.0
 10
75.208464
 20
70.086445
 30
0.0
  0
SPLINE
  5
12f
100
AcDbEntity
  8
0
 62
7
100
AcDbSpline
 70
8
 71
3
 72
8
 73
4
 74
0
 40
0
 40
0
 40
0
 40
0
 40
1
 40
1
 40
1
 40
1
 10
76.208464
 20
62.487486
 30
0.0
 10
76.208464
 20
61.933486
 30
0.0
 10
75.762464
 20
61.487486
 30
0.0
 10
75.208464
 20
61.487486
 30
0.0
  0
LWPOLYLINE
  5
130
100
AcDbEntity
  8
0
 62
7
100
AcDbPolyline
 90
2
 70
0
 10
76.208464
 20
69.086445
 30
0.0
 10
76.208464
 20
62.487486
 30
0.0
  0
SPLINE
  5
131
100
AcDbEntity
  8
0
 62
7
100
AcDbSpline
 70
8
 71
3
 72
8
 73
4
 74
0
 40
0
 40
0
 40
0
 40
0
 40
1
 40
1
 40
1
 40
1
 10
68.609505
 20
61.487486
 30
0.0
 10
68.055505
 20
61.487486
 30
0.0
 10
67.609505
 20
61.933486
 30
0.0
 10
67.609505
 20
62.487486
 30
0.0
  0
LWPOLYLINE
  5
132
100
AcDbEntity
  8
0
 62
7
100
AcDbPolyline
 90
2
 70
0
 10
75.208464
 20
61.487486
 30
0.0
 10
68.609505
 20
61.487486
 30
0.0
  0
SPLINE
  5
133
100
AcDbEntity
  8
0
 62
7
100
AcDbSpline
 70
8
 71
3
 72
8
 73
4
 74
0
 40
0
 40
0
 40
0
 40
0
 40
1
 40
1
 40
1
 40
1
 10
67.609505
 20
69.086445
 30
0.0
 10
67.609505
 20
69.640445
 30
0.0
 10
68.055505
 20
70.086445
 30
0.0
 10
68.609505
 20
70.086445
 30
0.0
  0
LWPOLYLINE
  5
134
100
AcDbEntity
  8
0
 62
7
100
AcDbPolyline
 90
2
 70
0
 10
67.609505
 20
62.487486
 30
0.0
 10
67.609505
 20
69.086445
 30
0.0
  0
LWPOLYLINE
  5
135
100
AcDbEntity
  8
0
 62
7
100
AcDbPolyline
 90
1
 70
1
 10
68.609505
 20
70.086445
 30
0.0
  0
SPLINE
  5
136
100
AcDbEntity
  8
0
 62
7
100
AcDbSpline
 70
8
 71
3
 72
8
 73
4
 74
0
 40
0
 40
0
 40
0
 40
0
 40
1
 40
1
 40
1
 40
1
 10
86.387106
 20
70.086445
 30
0.0
 10
86.941106
 20
70.086445
 30
0.0
 10
87.387106
 20
69.640445
 30
0.0
 10
87.387106
 20
69.086445
 30
0.0
  0
LWPOLYLINE
  5
137
100
AcDbEntity
  8
0
 62
7
100
AcDbPolyline
 90
2
 70
0
 10
79.788147
 20
70.086445
 30
0.0
 10
86.387106
 20
70.086445
 30
0.0
  0
SPLINE
  5
138
100
AcDbEntity
  8
0
 62
7
100
AcDbSpline
 70
8
 71
3
 72
8
 73
4
 74
0
 40
0
 40
0
 40
0
 40
0
 40
1
 40
1
 40
1
 40
1
 10
87.387106
 20
62.487486
 30
0.0
 10
87.387106
 20
61.933486
 30
0.0
 10
86.941106
 20
61.487486
 30
0.0
 10
86.387106
 20
61.487486
 30
0.0
  0
LWPOLYLINE
  5
139
100
AcDbEntity
  8
0
 62
7
100
AcDbPolyline
 90
2
 70
0
 10
87.387106
 20
69.086445
 30
0.0
 10
87.387106
 20
62.487486
 30
0.0
  0
SPLINE
  5
13a
100
AcDbEntity
  8
0
 62
7
100
AcDbSpline
 70
8
 71
3
 72
8
 73
4
 74
0
 40
0
 40
0
 40
0
 40
0
 40
1
 40
1
 40
1
 40
1
 10
79.788147
 20
61.487486
 30
0.0
 10
79.234147
 20
61.487486
 30
0.0
 10
78.788147
 20
61.933486
 30
0.0
 10
78.788147
 20
62.487486
 30
0.0
  0
LWPOLYLINE
  5
13b
100
AcDbEntity
  8
0
 62
7
100
AcDbPolyline
 90
2
 70
0
 10
86.387106
 20
61.487486
 30
0.0
 10
79.788147
 20
61.487486
 30
0.0
  0
SPLINE
  5
13c
100
AcDbEntity
  8
0
 62
7
100
AcDbSpline
 70
8
 71
3
 72
8
 73
4
 74
0
 40
0
 40
0
 40
0
 40
0
 40
1
 40
1
 40
1
 40
1
 10
78.788147
 20
69.086445
 30
0.0
 10
78.788147
 20
69.640445
 30
0.0
 10
79.234147
 20
70.086445
 30
0.0
 10
79.788147
 20
70.086445
 30
0.0
  0
LWPOLYLINE
  5
13d
100
AcDbEntity
  8
0
 62
7
100
AcDbPolyline
 90
2
 70
0
 10
78.788147
 20
62.487486
 30
0.0
 10
78.788147
 20
69.086445
 30
0.0
  0
LWPOLYLINE
  5
13e
100
AcDbEntity
  8
0
 62
7
100
AcDbPolyline
 90
1
 70
1
 10
79.788147
 20
70.086445
 30
0.0
  0
SPLINE
  5
13f
100
AcDbEntity
  8
0
 62
7
100
AcDbSpline
 70
8
 71
3
 72
8
 73
4
 74
0
 40
0
 40
0
 40
0
 40
0
 40
1
 40
1
 40
1
 40
1
 10
53.149259
 20
47.708403
 30
0.0
 10
53.703259
 20
47.708403
 30
0.0
 10
54.149259
 20
47.262403
 30
0.0
 10
54.149259
 20
46.708403
 30
0.0
  0
LWPOLYLINE
  5
140
100
AcDbEntity
  8
0
 62
7
100
AcDbPolyline
 90
2
 70
0
 10
46.550300
 20
47.708403
 30
0.0
 10
53.149259
 20
47.708403
 30
0.0
  0
SPLINE
  5
141
100
AcDbEntity
  8
0
 62
7
100
AcDbSpline
 70
8
 71
3
 72
8
 73
4
 74
0
 40
0
 40
0
 40
0
 40
0
 40
1
 40
1
 40
1
 40
1
 10
54.149259
 20
40.109444
 30
0.0
 10
54.149259
 20
39.555444
 30
0.0
 10
53.703259
 20
39.109444
 30
0.0
 10
53.149259
 20
39.109444
 30
0.0
  0
LWPOLYLINE
  5
142
100
AcDbEntity
  8
0
 62
7
100
AcDbPolyline
 90
2
 70
0
 10
54.149259
 20
46.708403
 30
0.0
 10
54.149259
 20
40.109444
 30
0.0
  0
SPLINE
  5
143
100
AcDbEntity
  8
0
 62
7
100
AcDbSpline
 70
8
 71
3
 72
8
 73
4
 74
0
 40
0
 40
0
 40
0
 40
0
 40
1
 40
1
 40
1
 40
1
 10
46.550300
 20
39.109444
 30
0.0
 10
45.996300
 20
39.109444
 30
0.0
 10
45.550300
 20
39.555444
 30
0.0
 10
45.550300
 20
40.109444
 30
0.0
  0
LWPOLYLINE
  5
144
100
AcDbEntity
  8
0
 62
7
100
AcDbPolyline
 90
2
 70
0
 10
53.149259
 20
39.109444
 30
0.0
 10
46.550300
 20
39.109444
 30
0.0
  0
SPLINE
  5
145
100
AcDbEntity
  8
0
 62
7
100
AcDbSpline
 70
8
 71
3
 72
8
 73
4
 74
0
 40
0
 40
0
 40
0
 40
0
 40
1
 40
1
 40
1
 40
1
 10
45.550300
 20
46.708403
 30
0.0
 10
45.550300
 20
47.262403
 30
0.0
 10
45.996300
 20
47.708403
 30
0.0
 10
46.550300
 20
47.708403
 30
0.0
  0
LWPOLYLINE
  5
146
100
AcDbEntity
  8
0
 62
7
100
AcDbPolyline
 90
2
 70
0
 10
45.550300
 20
40.109444
 30
0.0
 10
45.550300
 20
46.708403
 30
0.0
  0
LWPOLYLINE
  5
147
100
AcDbEntity
  8
0
 62
7
100
AcDbPolyline
 90
1
 70
1
 10
46.550300
 20
47.708403
 30
0.0
  0
SPLINE
  5
148
100
AcDbEntity
  8
0
 62
7
100
AcDbSpline
 70
8
 71
3
 72
8
 73
4
 74
0
 40
0
 40
0
 40
0
 40
0
 40
1
 40
1
 40
1
 40
1
 10
64.327905
 20
47.708403
 30
0.0
 10
64.881905
 20
47.708403
 30
0.0
 10
65.327905
 20
47.262403
 30
0.0
 10
65.327905
 20
46.708403
 30
0.0
  0
LWPOLYLINE
  5
149
100
AcDbEntity
  8
0
 62
7
100
AcDbPolyline
 90
2
 70
0
 10
57.728946
 20
47.708403
 30
0.0
 10
64.327905
 20
47.708403
 30
0.0
  0
SPLINE
  5
14a
100
AcDbEntity
  8
0
 62
7
100
AcDbSpline
 70
8
 71
3
 72
8
 73
4
 74
0
 40
0
 40
0
 40
0
 40
0
 40
1
 40
1
 40
1
 40
1
 10
65.327905
 20
40.109444
 30
0.0
 10
65.327905
 20
39.555444
 30
0.0
 10
64.881905
 20
39.109444
 30
0.0
 10
64.327905
 20
39.109444
 30
0.0
  0
LWPOLYLINE
  5
14b
100
AcDbEntity
  8
0
 62
7
100
AcDbPolyline
 90
2
 70
0
 10
65.327905
 20
46.708403
 30
0.0
 10
65.327905
 20
40.109444
 30
0.0
  0
SPLINE
  5
14c
100
AcDbEntity
  8
0
 62
7
100
AcDbSpline
 70
8
 71
3
 72
8
 73
4
 74
0
 40
0
 40
0
 40
0
 40
0
 40
1
 40
1
 40
1
 40
1
 10
57.728946
 20
39.109444
 30
0.0
 10
57.174946
 20
39.109444
 30
0.0
 10
56.728946
 20
39.555444
 30
0.0
 10
56.728946
 20
40.109444
 30
0.0
  0
LWPOLYLINE
  5
14d
100
AcDbEntity
  8
0
 62
7
100
AcDbPolyline
 90
2
 70
0
 10
64.327905
 20
39.109444
 30
0.0
 10
57.728946
 20
39.109444
 30
0.0
  0
SPLINE
  5
14e
100
AcDbEntity
  8
0
 62
7
100
AcDbSpline
 70
8
 71
3
 72
8
 73
4
 74
0
 40
0
 40
0
 40
0
 40
0
 40
1
 40
1
 40
1
 40
1
 10
56.728946
 20
46.708403
 30
0.0
 10
56.728946
 20
47.262403
 30
0.0
 10
57.174946
 20
47.708403
 30
0.0
 10
57.728946
 20
47.708403
 30
0.0
  0
LWPOLYLINE
  5
14f
100
AcDbEntity
  8
0
 62
7
100
AcDbPolyline
 90
2
 70
0
 10
56.728946
 20
40.109444
 30
0.0
 10
56.728946
 20
46.708403
 30
0.0
  0
LWPOLYLINE
  5
150
100
AcDbEntity
  8
0
 62
7
100
AcDbPolyline
 90
1
 70
1
 10
57.728946
 20
47.708403
 30
0.0
  0
SPLINE
  5
151
100
AcDbEntity
  8
0
 62
7
100
AcDbSpline
 70
8
 71
3
 72
8
 73
4
 74
0
 40
0
 40
0
 40
0
 40
0
 40
1
 40
1
 40
1
 40
1
 10
75.506553
 20
47.708403
 30
0.0
 10
76.060553
 20
47.708403
 30
0.0
 10
76.506553
 20
47.262403
 30
0.0
 10
76.506553
 20
46.708403
 30
0.0
  0
LWPOLYLINE
  5
152
100
AcDbEntity
  8
0
 62
7
100
AcDbPolyline
 90
2
 70
0
 10
68.907594
 20
47.708403
 30
0.0
 10
75.506553
 20
47.708403
 30
0.0
  0
SPLINE
  5
153
100
AcDbEntity
  8
0
 62
7
100
AcDbSpline
 70
8
 71
3
 72
8
 73
4
 74
0
 40
0
 40
0
 40
0
 40
0
 40
1
 40
1
 40
1
 40
1
 10
76.506553
 20
40.109444
 30
0.0
 10
76.506553
 20
39.555444
 30
0.0
 10
76.060553
 20
39.109444
 30
0.0
 10
75.506553
 20
39.109444
 30
0.0
  0
LWPOLYLINE
  5
154
100
AcDbEntity
  8
0
 62
7
100
AcDbPolyline
 90
2
 70
0
 10
76.506553
 20
46.708403
 30
0.0
 10
76.506553
 20
40.109444
 30
0.0
  0
SPLINE
  5
155
100
AcDbEntity
  8
0
 62
7
100
AcDbSpline
 70
8
 71
3
 72
8
 73
4
 74
0
 40
0
 40
0
 40
0
 40
0
 40
1
 40
1
 40
1
 40
1
 10
68.907594
 20
39.109444
 30
0.0
 10
68.353594
 20
39.109444
 30
0.0
 10
67.907594
 20
39.555444
 30
0.0
 10
67.907594
 20
40.109444
 30
0.0
  0
LWPOLYLINE
  5
156
100
AcDbEntity
  8
0
 62
7
100
AcDbPolyline
 90
2
 70
0
 10
75.506553
 20
39.109444
 30
0.0
 10
68.907594
 20
39.109444
 30
0.0
  0
SPLINE
  5
157
100
AcDbEntity
  8
0
 62
7
100
AcDbSpline
 70
8
 71
3
 72
8
 73
4
 74
0
 40
0
 40
0
 40
0
 40
0
 40
1
 40
1
 40
1
 40
1
 10
67.907594
 20
46.708403
 30
0.0
 10
67.907594
 20
47.262403
 30
0.0
 10
68.353594
 20
47.708403
 30
0.0
 10
68.907594
 20
47.708403
 30
0.0
  0
LWPOLYLINE
  5
158
100
AcDbEntity
  8
0
 62
7
100
AcDbPolyline
 90
2
 70
0
 10
67.907594
 20
40.109444
 30
0.0
 10
67.907594
 20
46.708403
 30
0.0
  0
LWPOLYLINE
  5
159
100
AcDbEntity
  8
0
 62
7
100
AcDbPolyline
 90
1
 70
1
 10
68.907594
 20
47.708403
 30
0.0
  0
SPLINE
  5
15a
100
AcDbEntity
  8
0
 62
7
100
AcDbSpline
 70
8
 71
3
 72
8
 73
4
 74
0
 40
0
 40
0
 40
0
 40
0
 40
1
 40
1
 40
1
 40
1
 10
86.685199
 20
47.708403
 30
0.0
 10
87.239199
 20
47.708403
 30
0.0
 10
87.685199
 20
47.262403
 30
0.0
 10
87.685199
 20
46.708403
 30
0.0
  0
LWPOLYLINE
  5
15b
100
AcDbEntity
  8
0
 62
7
100
AcDbPolyline
 90
2
 70
0
 10
80.086240
 20
47.708403
 30
0.0
 10
86.685199
 20
47.708403
 30
0.0
  0
SPLINE
  5
15c
100
AcDbEntity
  8
0
 62
7
100
AcDbSpline
 70
8
 71
3
 72
8
 73
4
 74
0
 40
0
 40
0
 40
0
 40
0
 40
1
 40
1
 40
1
 40
1
 10
87.685199
 20
40.109444
 30
0.0
 10
87.685199
 20
39.555444
 30
0.0
 10
87.239199
 20
39.109444
 30
0.0
 10
86.685199
 20
39.109444
 30
0.0
  0
LWPOLYLINE
  5
15d
100
AcDbEntity
  8
0
 62
7
100
AcDbPolyline
 90
2
 70
0
 10
87.685199
 20
46.708403
 30
0.0
 10
87.685199
 20
40.109444
 30
0.0
  0
SPLINE
  5
15e
100
AcDbEntity
  8
0
 62
7
100
AcDbSpline
 70
8
 71
3
 72
8
 73
4
 74
0
 40
0
 40
0
 40
0
 40
0
 40
1
 40
1
 40
1
 40
1
 10
80.086240
 20
39.109444
 30
0.0
 10
79.532240
 20
39.109444
 30
0.0
 10
79.086240
 20
39.555444
 30
0.0
 10
79.086240
 20
40.109444
 30
0.0
  0
LWPOLYLINE
  5
15f
100
AcDbEntity
  8
0
 62
7
100
AcDbPolyline
 90
2
 70
0
 10
86.685199
 20
39.109444
 30
0.0
 10
80.086240
 20
39.109444
 30
0.0
  0
SPLINE
  5
160
100
AcDbEntity
  8
0
 62
7
100
AcDbSpline
 70
8
 71
3
 72
8
 73
4
 74
0
 40
0
 40
0
 40
0
 40
0
 40
1
 40
1
 40
1
 40
1
 10
79.086240
 20
46.708403
 30
0.0
 10
79.086240
 20
47.262403
 30
0.0
 10
79.532240
 20
47.708403
 30
0.0
 10
80.086240
 20
47.708403
 30
0.0
  0
LWPOLYLINE
  5
161
100
AcDbEntity
  8
0
 62
7
100
AcDbPolyline
 90
2
 70
0
 10
79.086240
 20
40.109444
 30
0.0
 10
79.086240
 20
46.708403
 30
0.0
  0
LWPOLYLINE
  5
162
100
AcDbEntity
  8
0
 62
7
100
AcDbPolyline
 90
1
 70
1
 10
80.086240
 20
47.708403
 30
0.0
  0
SPLINE
  5
163
100
AcDbEntity
  8
0
 62
7
100
AcDbSpline
 70
8
 71
3
 72
8
 73
4
 74
0
 40
0
 40
0
 40
0
 40
0
 40
1
 40
1
 40
1
 40
1
 10
41.672959
 20
47.708405
 30
0.0
 10
42.226959
 20
47.708405
 30
0.0
 10
42.672959
 20
47.262405
 30
0.0
 10
42.672959
 20
46.708405
 30
0.0
  0
LWPOLYLINE
  5
164
100
AcDbEntity
  8
0
 62
7
100
AcDbPolyline
 90
2
 70
0
 10
35.074000
 20
47.708405
 30
0.0
 10
41.672959
 20
47.708405
 30
0.0
  0
SPLINE
  5
165
100
AcDbEntity
  8
0
 62
7
100
AcDbSpline
 70
8
 71
3
 72
8
 73
4
 74
0
 40
0
 40
0
 40
0
 40
0
 40
1
 40
1
 40
1
 40
1
 10
42.672959
 20
40.109446
 30
0.0
 10
42.672959
 20
39.555446
 30
0.0
 10
42.226959
 20
39.109446
 30
0.0
 10
41.672959
 20
39.109446
 30
0.0
  0
LWPOLYLINE
  5
166
100
AcDbEntity
  8
0
 62
7
100
AcDbPolyline
 90
2
 70
0
 10
42.672959
 20
46.708405
 30
0.0
 10
42.672959
 20
40.109446
 30
0.0
  0
SPLINE
  5
167
100
AcDbEntity
  8
0
 62
7
100
AcDbSpline
 70
8
 71
3
 72
8
 73
4
 74
0
 40
0
 40
0
 40
0
 40
0
 40
1
 40
1
 40
1
 40
1
 10
35.074000
 20
39.109446
 30
0.0
 10
34.520000
 20
39.109446
 30
0.0
 10
34.074000
 20
39.555446
 30
0.0
 10
34.074000
 20
40.109446
 30
0.0
  0
LWPOLYLINE
  5
168
100
AcDbEntity
  8
0
 62
7
100
AcDbPolyline
 90
2
 70
0
 10
41.672959
 20
39.109446
 30
0.0
 10
35.074000
 20
39.109446
 30
0.0
  0
SPLINE
  5
169
100
AcDbEntity
  8
0
 62
7
100
AcDbSpline
 70
8
 71
3
 72
8
 73
4
 74
0
 40
0
 40
0
 40
0
 40
0
 40
1
 40
1
 40
1
 40
1
 10
34.074000
 20
46.708405
 30
0.0
 10
34.074000
 20
47.262405
 30
0.0
 10
34.520000
 20
47.708405
 30
0.0
 10
35.074000
 20
47.708405
 30
0.0
  0
LWPOLYLINE
  5
16a
100
AcDbEntity
  8
0
 62
7
100
AcDbPolyline
 90
2
 70
0
 10
34.074000
 20
40.109446
 30
0.0
 10
34.074000
 20
46.708405
 30
0.0
  0
LWPOLYLINE
  5
16b
100
AcDbEntity
  8
0
 62
7
100
AcDbPolyline
 90
1
 70
1
 10
35.074000
 20
47.708405
 30
0.0
  0
SPLINE
  5
16c
100
AcDbEntity
  8
0
 62
7
100
AcDbSpline
 70
8
 71
3
 72
8
 73
4
 74
0
 40
0
 40
0
 40
0
 40
0
 40
1
 40
1
 40
1
 40
1
 10
123.763000
 20
69.271989
 30
0.0
 10
123.390613
 20
69.193593
 30
0.0
 10
123.121127
 20
69.105397
 30
0.0
 10
122.954540
 20
69.007402
 30
0.0
  0
SPLINE
  5
16d
100
AcDbEntity
  8
0
 62
7
100
AcDbSpline
 70
8
 71
3
 72
8
 73
4
 74
0
 40
0
 40
0
 40
0
 40
0
 40
1
 40
1
 40
1
 40
1
 10
122.954540
 20
69.007402
 30
0.0
 10
122.797747
 20
68.909407
 30
0.0
 10
122.650753
 20
68.762415
 30
0.0
 10
122.513560
 20
68.566424
 30
0.0
  0
SPLINE
  5
16e
100
AcDbEntity
  8
0
 62
7
100
AcDbSpline
 70
8
 71
3
 72
8
 73
4
 74
0
 40
0
 40
0
 40
0
 40
0
 40
1
 40
1
 40
1
 40
1
 10
122.513560
 20
68.566424
 30
0.0
 10
122.386167
 20
68.370434
 30
0.0
 10
122.253873
 20
68.061749
 30
0.0
 10
122.116680
 20
67.640370
 30
0.0
  0
SPLINE
  5
16f
100
AcDbEntity
  8
0
 62
7
100
AcDbSpline
 70
8
 71
3
 72
8
 73
4
 74
0
 40
0
 40
0
 40
0
 40
0
 40
1
 40
1
 40
1
 40
1
 10
122.116680
 20
67.640370
 30
0.0
 10
121.989287
 20
67.228791
 30
0.0
 10
121.822693
 20
66.552625
 30
0.0
 10
121.616900
 20
65.611872
 30
0.0
  0
LWPOLYLINE
  5
170
100
AcDbEntity
  8
0
 62
7
100
AcDbPolyline
 90
3
 70
0
 10
119.294420
 20
69.992253
 30
0.0
 10
123.924690
 20
69.992253
 30
0.0
 10
123.763000
 20
69.271989
 30
0.0
  0
SPLINE
  5
171
100
AcDbEntity
  8
0
 62
7
100
AcDbSpline
 70
8
 71
3
 72
8
 73
4
 74
0
 40
0
 40
0
 40
0
 40
0
 40
1
 40
1
 40
1
 40
1
 10
119.103330
 20
54.205240
 30
0.0
 10
118.975937
 20
53.627069
 30
0.0
 10
118.892640
 20
53.166492
 30
0.0
 10
118.853440
 20
52.823509
 30
0.0
  0
SPLINE
  5
172
100
AcDbEntity
  8
0
 62
7
100
AcDbSpline
 70
8
 71
3
 72
8
 73
4
 74
0
 40
0
 40
0
 40
0
 40
0
 40
1
 40
1
 40
1
 40
1
 10
118.853440
 20
52.823509
 30
0.0
 10
118.814240
 20
52.490326
 30
0.0
 10
118.794640
 20
52.186541
 30
0.0
 10
118.794640
 20
51.912155
 30
0.0
  0
SPLINE
  5
173
100
AcDbEntity
  8
0
 62
7
100
AcDbSpline
 70
8
 71
3
 72
8
 73
4
 74
0
 40
0
 40
0
 40
0
 40
0
 40
1
 40
1
 40
1
 40
1
 10
118.794640
 20
51.912155
 30
0.0
 10
118.794640
 20
51.471176
 30
0.0
 10
118.902437
 20
51.157592
 30
0.0
 10
119.118030
 20
50.971401
 30
0.0
  0
SPLINE
  5
174
100
AcDbEntity
  8
0
 62
7
100
AcDbSpline
 70
8
 71
3
 72
8
 73
4
 74
0
 40
0
 40
0
 40
0
 40
0
 40
1
 40
1
 40
1
 40
1
 10
119.118030
 20
50.971401
 30
0.0
 10
119.343417
 20
50.795010
 30
0.0
 10
119.715797
 20
50.687216
 30
0.0
 10
120.235170
 20
50.648018
 30
0.0
  0
LWPOLYLINE
  5
175
100
AcDbEntity
  8
0
 62
7
100
AcDbPolyline
 90
2
 70
0
 10
121.616900
 20
65.611872
 30
0.0
 10
119.103330
 20
54.205240
 30
0.0
  0
SPLINE
  5
176
100
AcDbEntity
  8
0
 62
7
100
AcDbSpline
 70
8
 71
3
 72
8
 73
4
 74
0
 40
0
 40
0
 40
0
 40
0
 40
1
 40
1
 40
1
 40
1
 10
114.355470
 20
50.648018
 30
0.0
 10
114.727850
 20
50.706811
 30
0.0
 10
115.007133
 20
50.799907
 30
0.0
 10
115.193320
 20
50.927304
 30
0.0
  0
SPLINE
  5
177
100
AcDbEntity
  8
0
 62
7
100
AcDbSpline
 70
8
 71
3
 72
8
 73
4
 74
0
 40
0
 40
0
 40
0
 40
0
 40
1
 40
1
 40
1
 40
1
 10
115.193320
 20
50.927304
 30
0.0
 10
115.379513
 20
51.064497
 30
0.0
 10
115.536307
 20
51.250687
 30
0.0
 10
115.663700
 20
51.485876
 30
0.0
  0
SPLINE
  5
178
100
AcDbEntity
  8
0
 62
7
100
AcDbSpline
 70
8
 71
3
 72
8
 73
4
 74
0
 40
0
 40
0
 40
0
 40
0
 40
1
 40
1
 40
1
 40
1
 10
115.663700
 20
51.485876
 30
0.0
 10
115.791093
 20
51.721064
 30
0.0
 10
115.908687
 20
52.005250
 30
0.0
 10
116.016480
 20
52.338433
 30
0.0
  0
SPLINE
  5
179
100
AcDbEntity
  8
0
 62
7
100
AcDbSpline
 70
8
 71
3
 72
8
 73
4
 74
0
 40
0
 40
0
 40
0
 40
0
 40
1
 40
1
 40
1
 40
1
 10
116.016480
 20
52.338433
 30
0.0
 10
116.124273
 20
52.681416
 30
0.0
 10
116.285967
 20
53.337984
 30
0.0
 10
116.501560
 20
54.308135
 30
0.0
  0
LWPOLYLINE
  5
17a
100
AcDbEntity
  8
0
 62
7
100
AcDbPolyline
 90
4
 70
0
 10
120.235170
 20
50.648018
 30
0.0
 10
120.073480
 20
49.927753
 30
0.0
 10
114.193770
 20
49.927753
 30
0.0
 10
114.355470
 20
50.648018
 30
0.0
  0
SPLINE
  5
17b
100
AcDbEntity
  8
0
 62
7
100
AcDbSpline
 70
8
 71
3
 72
8
 73
4
 74
0
 40
0
 40
0
 40
0
 40
0
 40
1
 40
1
 40
1
 40
1
 10
118.456560
 20
63.171793
 30
0.0
 10
118.711347
 20
64.337935
 30
0.0
 10
119.034730
 20
65.587373
 30
0.0
 10
119.426710
 20
66.920106
 30
0.0
  0
LWPOLYLINE
  5
17c
100
AcDbEntity
  8
0
 62
7
100
AcDbPolyline
 90
2
 70
0
 10
116.501560
 20
54.308135
 30
0.0
 10
118.456560
 20
63.171793
 30
0.0
  0
SPLINE
  5
17d
100
AcDbEntity
  8
0
 62
7
100
AcDbSpline
 70
8
 71
3
 72
8
 73
4
 74
0
 40
0
 40
0
 40
0
 40
0
 40
1
 40
1
 40
1
 40
1
 10
119.220920
 20
66.920106
 30
0.0
 10
118.936733
 20
66.390933
 30
0.0
 10
118.652550
 20
65.881358
 30
0.0
 10
118.368370
 20
65.391383
 30
0.0
  0
SPLINE
  5
17e
100
AcDbEntity
  8
0
 62
7
100
AcDbSpline
 70
8
 71
3
 72
8
 73
4
 74
0
 40
0
 40
0
 40
0
 40
0
 40
1
 40
1
 40
1
 40
1
 10
118.368370
 20
65.391383
 30
0.0
 10
118.093983
 20
64.911206
 30
0.0
 10
117.682403
 20
64.215441
 30
0.0
 10
117.133630
 20
63.304087
 30
0.0
  0
LWPOLYLINE
  5
17f
100
AcDbEntity
  8
0
 62
7
100
AcDbPolyline
 90
2
 70
0
 10
119.426710
 20
66.920106
 30
0.0
 10
119.220920
 20
66.920106
 30
0.0
  0
SPLINE
  5
180
100
AcDbEntity
  8
0
 62
7
100
AcDbSpline
 70
8
 71
3
 72
8
 73
4
 74
0
 40
0
 40
0
 40
0
 40
0
 40
1
 40
1
 40
1
 40
1
 10
106.741250
 20
67.243490
 30
0.0
 10
106.368863
 20
64.783813
 30
0.0
 10
105.996480
 20
62.701417
 30
0.0
 10
105.624100
 20
60.996302
 30
0.0
  0
LWPOLYLINE
  5
181
100
AcDbEntity
  8
0
 62
7
100
AcDbPolyline
 90
6
 70
0
 10
117.133630
 20
63.304087
 30
0.0
 10
110.445460
 20
52.264937
 30
0.0
 10
108.843240
 20
52.264937
 30
0.0
 10
107.432110
 20
63.289387
 30
0.0
 10
107.035230
 20
67.243490
 30
0.0
 10
106.741250
 20
67.243490
 30
0.0
  0
SPLINE
  5
182
100
AcDbEntity
  8
0
 62
7
100
AcDbSpline
 70
8
 71
3
 72
8
 73
4
 74
0
 40
0
 40
0
 40
0
 40
0
 40
1
 40
1
 40
1
 40
1
 10
104.212970
 20
54.587421
 30
0.0
 10
104.046377
 20
53.842658
 30
0.0
 10
103.938583
 20
53.288986
 30
0.0
 10
103.889590
 20
52.926404
 30
0.0
  0
SPLINE
  5
183
100
AcDbEntity
  8
0
 62
7
100
AcDbSpline
 70
8
 71
3
 72
8
 73
4
 74
0
 40
0
 40
0
 40
0
 40
0
 40
1
 40
1
 40
1
 40
1
 10
103.889590
 20
52.926404
 30
0.0
 10
103.840590
 20
52.563822
 30
0.0
 10
103.816090
 20
52.225739
 30
0.0
 10
103.816090
 20
51.912155
 30
0.0
  0
SPLINE
  5
184
100
AcDbEntity
  8
0
 62
7
100
AcDbSpline
 70
8
 71
3
 72
8
 73
4
 74
0
 40
0
 40
0
 40
0
 40
0
 40
1
 40
1
 40
1
 40
1
 10
103.816090
 20
51.912155
 30
0.0
 10
103.816090
 20
51.471176
 30
0.0
 10
103.923883
 20
51.157592
 30
0.0
 10
104.139470
 20
50.971401
 30
0.0
  0
SPLINE
  5
185
100
AcDbEntity
  8
0
 62
7
100
AcDbSpline
 70
8
 71
3
 72
8
 73
4
 74
0
 40
0
 40
0
 40
0
 40
0
 40
1
 40
1
 40
1
 40
1
 10
104.139470
 20
50.971401
 30
0.0
 10
104.364863
 20
50.795010
 30
0.0
 10
104.737247
 20
50.687216
 30
0.0
 10
105.256620
 20
50.648018
 30
0.0
  0
LWPOLYLINE
  5
186
100
AcDbEntity
  8
0
 62
7
100
AcDbPolyline
 90
2
 70
0
 10
105.624100
 20
60.996302
 30
0.0
 10
104.212970
 20
54.587421
 30
0.0
  0
SPLINE
  5
187
100
AcDbEntity
  8
0
 62
7
100
AcDbSpline
 70
8
 71
3
 72
8
 73
4
 74
0
 40
0
 40
0
 40
0
 40
0
 40
1
 40
1
 40
1
 40
1
 10
100.111880
 20
50.648018
 30
0.0
 10
100.484260
 20
50.706811
 30
0.0
 10
100.763543
 20
50.799907
 30
0.0
 10
100.949730
 20
50.927304
 30
0.0
  0
SPLINE
  5
188
100
AcDbEntity
  8
0
 62
7
100
AcDbSpline
 70
8
 71
3
 72
8
 73
4
 74
0
 40
0
 40
0
 40
0
 40
0
 40
1
 40
1
 40
1
 40
1
 10
100.949730
 20
50.927304
 30
0.0
 10
101.135923
 20
51.064497
 30
0.0
 10
101.292717
 20
51.250687
 30
0.0
 10
101.420110
 20
51.485876
 30
0.0
  0
SPLINE
  5
189
100
AcDbEntity
  8
0
 62
7
100
AcDbSpline
 70
8
 71
3
 72
8
 73
4
 74
0
 40
0
 40
0
 40
0
 40
0
 40
1
 40
1
 40
1
 40
1
 10
101.420110
 20
51.485876
 30
0.0
 10
101.547503
 20
51.721064
 30
0.0
 10
101.665097
 20
52.005250
 30
0.0
 10
101.772890
 20
52.338433
 30
0.0
  0
SPLINE
  5
18a
100
AcDbEntity
  8
0
 62
7
100
AcDbSpline
 70
8
 71
3
 72
8
 73
4
 74
0
 40
0
 40
0
 40
0
 40
0
 40
1
 40
1
 40
1
 40
1
 10
101.772890
 20
52.338433
 30
0.0
 10
101.880683
 20
52.681416
 30
0.0
 10
102.042377
 20
53.337984
 30
0.0
 10
102.257970
 20
54.308135
 30
0.0
  0
LWPOLYLINE
  5
18b
100
AcDbEntity
  8
0
 62
7
100
AcDbPolyline
 90
4
 70
0
 10
105.256620
 20
50.648018
 30
0.0
 10
105.094930
 20
49.927753
 30
0.0
 10
99.950184
 20
49.927753
 30
0.0
 10
100.111880
 20
50.648018
 30
0.0
  0
SPLINE
  5
18c
100
AcDbEntity
  8
0
 62
7
100
AcDbSpline
 70
8
 71
3
 72
8
 73
4
 74
0
 40
0
 40
0
 40
0
 40
0
 40
1
 40
1
 40
1
 40
1
 10
104.756840
 20
65.626571
 30
0.0
 10
104.854840
 20
66.047950
 30
0.0
 10
104.933237
 20
66.449730
 30
0.0
 10
104.992030
 20
66.831911
 30
0.0
  0
SPLINE
  5
18d
100
AcDbEntity
  8
0
 62
7
100
AcDbSpline
 70
8
 71
3
 72
8
 73
4
 74
0
 40
0
 40
0
 40
0
 40
0
 40
1
 40
1
 40
1
 40
1
 10
104.992030
 20
66.831911
 30
0.0
 10
105.050830
 20
67.214092
 30
0.0
 10
105.080230
 20
67.601172
 30
0.0
 10
105.080230
 20
67.993153
 30
0.0
  0
SPLINE
  5
18e
100
AcDbEntity
  8
0
 62
7
100
AcDbSpline
 70
8
 71
3
 72
8
 73
4
 74
0
 40
0
 40
0
 40
0
 40
0
 40
1
 40
1
 40
1
 40
1
 10
105.080230
 20
67.993153
 30
0.0
 10
105.080230
 20
68.453730
 30
0.0
 10
104.962637
 20
68.772214
 30
0.0
 10
104.727450
 20
68.948605
 30
0.0
  0
SPLINE
  5
18f
100
AcDbEntity
  8
0
 62
7
100
AcDbSpline
 70
8
 71
3
 72
8
 73
4
 74
0
 40
0
 40
0
 40
0
 40
0
 40
1
 40
1
 40
1
 40
1
 10
104.727450
 20
68.948605
 30
0.0
 10
104.492257
 20
69.134796
 30
0.0
 10
104.129673
 20
69.242590
 30
0.0
 10
103.639700
 20
69.271989
 30
0.0
  0
LWPOLYLINE
  5
190
100
AcDbEntity
  8
0
 62
7
100
AcDbPolyline
 90
2
 70
0
 10
102.257970
 20
54.308135
 30
0.0
 10
104.756840
 20
65.626571
 30
0.0
  0
LWPOLYLINE
  5
191
100
AcDbEntity
  8
0
 62
7
100
AcDbPolyline
 90
5
 70
0
 10
103.639700
 20
69.271989
 30
0.0
 10
103.801390
 20
69.992253
 30
0.0
 10
109.049030
 20
69.992253
 30
0.0
 10
110.724750
 20
55.733964
 30
0.0
 10
119.294420
 20
69.992253
 30
0.0
  0
SPLINE
  5
192
100
AcDbEntity
  8
0
 62
7
100
AcDbSpline
 70
8
 71
3
 72
8
 73
4
 74
0
 40
0
 40
0
 40
0
 40
0
 40
1
 40
1
 40
1
 40
1
 10
135.507710
 20
54.014150
 30
0.0
 10
135.370517
 20
53.426179
 30
0.0
 10
135.277420
 20
52.970502
 30
0.0
 10
135.228420
 20
52.647118
 30
0.0
  0
SPLINE
  5
193
100
AcDbEntity
  8
0
 62
7
100
AcDbSpline
 70
8
 71
3
 72
8
 73
4
 74
0
 40
0
 40
0
 40
0
 40
0
 40
1
 40
1
 40
1
 40
1
 10
135.228420
 20
52.647118
 30
0.0
 10
135.179420
 20
52.333533
 30
0.0
 10
135.154920
 20
52.073846
 30
0.0
 10
135.154920
 20
51.868057
 30
0.0
  0
SPLINE
  5
194
100
AcDbEntity
  8
0
 62
7
100
AcDbSpline
 70
8
 71
3
 72
8
 73
4
 74
0
 40
0
 40
0
 40
0
 40
0
 40
1
 40
1
 40
1
 40
1
 10
135.154920
 20
51.868057
 30
0.0
 10
135.154920
 20
51.466277
 30
0.0
 10
135.267613
 20
51.172292
 30
0.0
 10
135.493000
 20
50.986101
 30
0.0
  0
SPLINE
  5
195
100
AcDbEntity
  8
0
 62
7
100
AcDbSpline
 70
8
 71
3
 72
8
 73
4
 74
0
 40
0
 40
0
 40
0
 40
0
 40
1
 40
1
 40
1
 40
1
 10
135.493000
 20
50.986101
 30
0.0
 10
135.718387
 20
50.809710
 30
0.0
 10
136.149567
 20
50.697015
 30
0.0
 10
136.786540
 20
50.648018
 30
0.0
  0
LWPOLYLINE
  5
196
100
AcDbEntity
  8
0
 62
7
100
AcDbPolyline
 90
4
 70
0
 10
135.463610
 20
63.259989
 30
0.0
 10
136.815950
 20
64.230140
 30
0.0
 10
137.756700
 20
63.994952
 30
0.0
 10
135.507710
 20
54.014150
 30
0.0
  0
SPLINE
  5
197
100
AcDbEntity
  8
0
 62
7
100
AcDbSpline
 70
8
 71
3
 72
8
 73
4
 74
0
 40
0
 40
0
 40
0
 40
0
 40
1
 40
1
 40
1
 40
1
 10
133.185220
 20
53.676070
 30
0.0
 10
132.244467
 20
52.304138
 30
0.0
 10
131.352710
 20
51.299688
 30
0.0
 10
130.509950
 20
50.662720
 30
0.0
  0
SPLINE
  5
198
100
AcDbEntity
  8
0
 62
7
100
AcDbSpline
 70
8
 71
3
 72
8
 73
4
 74
0
 40
0
 40
0
 40
0
 40
0
 40
1
 40
1
 40
1
 40
1
 10
130.509950
 20
50.662720
 30
0.0
 10
129.667190
 20
50.025751
 30
0.0
 10
128.775433
 20
49.707267
 30
0.0
 10
127.834680
 20
49.707267
 30
0.0
  0
SPLINE
  5
199
100
AcDbEntity
  8
0
 62
7
100
AcDbSpline
 70
8
 71
3
 72
8
 73
4
 74
0
 40
0
 40
0
 40
0
 40
0
 40
1
 40
1
 40
1
 40
1
 10
127.834680
 20
49.707267
 30
0.0
 10
126.756733
 20
49.707267
 30
0.0
 10
125.918877
 20
50.113947
 30
0.0
 10
125.321110
 20
50.927307
 30
0.0
  0
SPLINE
  5
19a
100
AcDbEntity
  8
0
 62
7
100
AcDbSpline
 70
8
 71
3
 72
8
 73
4
 74
0
 40
0
 40
0
 40
0
 40
0
 40
1
 40
1
 40
1
 40
1
 10
125.321110
 20
50.927307
 30
0.0
 10
124.733137
 20
51.740666
 30
0.0
 10
124.439150
 20
52.882309
 30
0.0
 10
124.439150
 20
54.352236
 30
0.0
  0
SPLINE
  5
19b
100
AcDbEntity
  8
0
 62
7
100
AcDbSpline
 70
8
 71
3
 72
8
 73
4
 74
0
 40
0
 40
0
 40
0
 40
0
 40
1
 40
1
 40
1
 40
1
 10
124.439150
 20
54.352236
 30
0.0
 10
124.439150
 20
55.292989
 30
0.0
 10
124.546947
 20
56.233742
 30
0.0
 10
124.762540
 20
57.174495
 30
0.0
  0
SPLINE
  5
19c
100
AcDbEntity
  8
0
 62
7
100
AcDbSpline
 70
8
 71
3
 72
8
 73
4
 74
0
 40
0
 40
0
 40
0
 40
0
 40
1
 40
1
 40
1
 40
1
 10
124.762540
 20
57.174495
 30
0.0
 10
124.978127
 20
58.125048
 30
0.0
 10
125.301510
 20
59.021703
 30
0.0
 10
125.732690
 20
59.864461
 30
0.0
  0
SPLINE
  5
19d
100
AcDbEntity
  8
0
 62
7
100
AcDbSpline
 70
8
 71
3
 72
8
 73
4
 74
0
 40
0
 40
0
 40
0
 40
0
 40
1
 40
1
 40
1
 40
1
 10
125.732690
 20
59.864461
 30
0.0
 10
126.173663
 20
60.717018
 30
0.0
 10
126.697937
 20
61.466681
 30
0.0
 10
127.305510
 20
62.113449
 30
0.0
  0
SPLINE
  5
19e
100
AcDbEntity
  8
0
 62
7
100
AcDbSpline
 70
8
 71
3
 72
8
 73
4
 74
0
 40
0
 40
0
 40
0
 40
0
 40
1
 40
1
 40
1
 40
1
 10
127.305510
 20
62.113449
 30
0.0
 10
127.913077
 20
62.760217
 30
0.0
 10
128.613740
 20
63.274691
 30
0.0
 10
129.407500
 20
63.656872
 30
0.0
  0
SPLINE
  5
19f
100
AcDbEntity
  8
0
 62
7
100
AcDbSpline
 70
8
 71
3
 72
8
 73
4
 74
0
 40
0
 40
0
 40
0
 40
0
 40
1
 40
1
 40
1
 40
1
 10
129.407500
 20
63.656872
 30
0.0
 10
130.211060
 20
64.039053
 30
0.0
 10
131.083217
 20
64.230143
 30
0.0
 10
132.023970
 20
64.230143
 30
0.0
  0
SPLINE
  5
1a0
100
AcDbEntity
  8
0
 62
7
100
AcDbSpline
 70
8
 71
3
 72
8
 73
4
 74
0
 40
0
 40
0
 40
0
 40
0
 40
1
 40
1
 40
1
 40
1
 10
132.023970
 20
64.230143
 30
0.0
 10
132.631543
 20
64.230143
 30
0.0
 10
133.209717
 20
64.156647
 30
0.0
 10
133.758490
 20
64.009654
 30
0.0
  0
SPLINE
  5
1a1
100
AcDbEntity
  8
0
 62
7
100
AcDbSpline
 70
8
 71
3
 72
8
 73
4
 74
0
 40
0
 40
0
 40
0
 40
0
 40
1
 40
1
 40
1
 40
1
 10
133.758490
 20
64.009654
 30
0.0
 10
134.307263
 20
63.872461
 30
0.0
 10
134.875633
 20
63.622574
 30
0.0
 10
135.463600
 20
63.259992
 30
0.0
  0
LWPOLYLINE
  5
1a2
100
AcDbEntity
  8
0
 62
7
100
AcDbPolyline
 90
5
 70
0
 10
136.786540
 20
50.648018
 30
0.0
 10
136.654240
 20
49.927753
 30
0.0
 10
132.450250
 20
49.927753
 30
0.0
 10
133.376310
 20
53.617270
 30
0.0
 10
133.185220
 20
53.676070
 30
0.0
  0
SPLINE
  5
1a3
100
AcDbEntity
  8
0
 62
7
100
AcDbSpline
 70
8
 71
3
 72
8
 73
4
 74
0
 40
0
 40
0
 40
0
 40
0
 40
1
 40
1
 40
1
 40
1
 10
134.170080
 20
58.879607
 30
0.0
 10
134.258273
 20
59.281387
 30
0.0
 10
134.317070
 20
59.629270
 30
0.0
 10
134.346470
 20
59.923255
 30
0.0
  0
SPLINE
  5
1a4
100
AcDbEntity
  8
0
 62
7
100
AcDbSpline
 70
8
 71
3
 72
8
 73
4
 74
0
 40
0
 40
0
 40
0
 40
0
 40
1
 40
1
 40
1
 40
1
 10
134.346470
 20
59.923255
 30
0.0
 10
134.375870
 20
60.217240
 30
0.0
 10
134.390570
 20
60.535725
 30
0.0
 10
134.390570
 20
60.878708
 30
0.0
  0
SPLINE
  5
1a5
100
AcDbEntity
  8
0
 62
7
100
AcDbSpline
 70
8
 71
3
 72
8
 73
4
 74
0
 40
0
 40
0
 40
0
 40
0
 40
1
 40
1
 40
1
 40
1
 10
134.390570
 20
60.878708
 30
0.0
 10
134.390570
 20
61.643069
 30
0.0
 10
134.228877
 20
62.196742
 30
0.0
 10
133.905490
 20
62.539725
 30
0.0
  0
SPLINE
  5
1a6
100
AcDbEntity
  8
0
 62
7
100
AcDbSpline
 70
8
 71
3
 72
8
 73
4
 74
0
 40
0
 40
0
 40
0
 40
0
 40
1
 40
1
 40
1
 40
1
 10
133.905490
 20
62.539725
 30
0.0
 10
133.582103
 20
62.892507
 30
0.0
 10
133.043130
 20
63.068898
 30
0.0
 10
132.288570
 20
63.068898
 30
0.0
  0
SPLINE
  5
1a7
100
AcDbEntity
  8
0
 62
7
100
AcDbSpline
 70
8
 71
3
 72
8
 73
4
 74
0
 40
0
 40
0
 40
0
 40
0
 40
1
 40
1
 40
1
 40
1
 10
132.288570
 20
63.068898
 30
0.0
 10
131.876990
 20
63.068898
 30
0.0
 10
131.485010
 20
63.000302
 30
0.0
 10
131.112630
 20
62.863109
 30
0.0
  0
SPLINE
  5
1a8
100
AcDbEntity
  8
0
 62
7
100
AcDbSpline
 70
8
 71
3
 72
8
 73
4
 74
0
 40
0
 40
0
 40
0
 40
0
 40
1
 40
1
 40
1
 40
1
 10
131.112630
 20
62.863109
 30
0.0
 10
130.740250
 20
62.735715
 30
0.0
 10
130.362970
 20
62.515226
 30
0.0
 10
129.980790
 20
62.201642
 30
0.0
  0
SPLINE
  5
1a9
100
AcDbEntity
  8
0
 62
7
100
AcDbSpline
 70
8
 71
3
 72
8
 73
4
 74
0
 40
0
 40
0
 40
0
 40
0
 40
1
 40
1
 40
1
 40
1
 10
129.980790
 20
62.201642
 30
0.0
 10
129.598603
 20
61.897857
 30
0.0
 10
129.231120
 20
61.496077
 30
0.0
 10
128.878340
 20
60.996302
 30
0.0
  0
SPLINE
  5
1aa
100
AcDbEntity
  8
0
 62
7
100
AcDbSpline
 70
8
 71
3
 72
8
 73
4
 74
0
 40
0
 40
0
 40
0
 40
0
 40
1
 40
1
 40
1
 40
1
 10
128.878340
 20
60.996302
 30
0.0
 10
128.535360
 20
60.496527
 30
0.0
 10
128.221777
 20
59.888957
 30
0.0
 10
127.937590
 20
59.173593
 30
0.0
  0
SPLINE
  5
1ab
100
AcDbEntity
  8
0
 62
7
100
AcDbSpline
 70
8
 71
3
 72
8
 73
4
 74
0
 40
0
 40
0
 40
0
 40
0
 40
1
 40
1
 40
1
 40
1
 10
127.937590
 20
59.173593
 30
0.0
 10
127.653403
 20
58.458228
 30
0.0
 10
127.432913
 20
57.688967
 30
0.0
 10
127.276120
 20
56.865808
 30
0.0
  0
SPLINE
  5
1ac
100
AcDbEntity
  8
0
 62
7
100
AcDbSpline
 70
8
 71
3
 72
8
 73
4
 74
0
 40
0
 40
0
 40
0
 40
0
 40
1
 40
1
 40
1
 40
1
 10
127.276120
 20
56.865808
 30
0.0
 10
127.119327
 20
56.052448
 30
0.0
 10
127.040930
 20
55.258687
 30
0.0
 10
127.040930
 20
54.484526
 30
0.0
  0
SPLINE
  5
1ad
100
AcDbEntity
  8
0
 62
7
100
AcDbSpline
 70
8
 71
3
 72
8
 73
4
 74
0
 40
0
 40
0
 40
0
 40
0
 40
1
 40
1
 40
1
 40
1
 10
127.040930
 20
54.484526
 30
0.0
 10
127.040930
 20
53.465377
 30
0.0
 10
127.178123
 20
52.701015
 30
0.0
 10
127.452510
 20
52.191441
 30
0.0
  0
SPLINE
  5
1ae
100
AcDbEntity
  8
0
 62
7
100
AcDbSpline
 70
8
 71
3
 72
8
 73
4
 74
0
 40
0
 40
0
 40
0
 40
0
 40
1
 40
1
 40
1
 40
1
 10
127.452510
 20
52.191441
 30
0.0
 10
127.736697
 20
51.691666
 30
0.0
 10
128.207073
 20
51.441778
 30
0.0
 10
128.863640
 20
51.441778
 30
0.0
  0
SPLINE
  5
1af
100
AcDbEntity
  8
0
 62
7
100
AcDbSpline
 70
8
 71
3
 72
8
 73
4
 74
0
 40
0
 40
0
 40
0
 40
0
 40
1
 40
1
 40
1
 40
1
 10
128.863640
 20
51.441778
 30
0.0
 10
129.167427
 20
51.441778
 30
0.0
 10
129.481010
 20
51.510375
 30
0.0
 10
129.804390
 20
51.647568
 30
0.0
  0
SPLINE
  5
1b0
100
AcDbEntity
  8
0
 62
7
100
AcDbSpline
 70
8
 71
3
 72
8
 73
4
 74
0
 40
0
 40
0
 40
0
 40
0
 40
1
 40
1
 40
1
 40
1
 10
129.804390
 20
51.647568
 30
0.0
 10
130.137577
 20
51.784761
 30
0.0
 10
130.505060
 20
52.034648
 30
0.0
 10
130.906840
 20
52.397230
 30
0.0
  0
SPLINE
  5
1b1
100
AcDbEntity
  8
0
 62
7
100
AcDbSpline
 70
8
 71
3
 72
8
 73
4
 74
0
 40
0
 40
0
 40
0
 40
0
 40
1
 40
1
 40
1
 40
1
 10
130.906840
 20
52.397230
 30
0.0
 10
131.308620
 20
52.769611
 30
0.0
 10
131.764297
 20
53.313484
 30
0.0
 10
132.273870
 20
54.028849
 30
0.0
  0
SPLINE
  5
1b2
100
AcDbEntity
  8
0
 62
7
100
AcDbSpline
 70
8
 71
3
 72
8
 73
4
 74
0
 40
0
 40
0
 40
0
 40
0
 40
1
 40
1
 40
1
 40
1
 10
132.273870
 20
54.028849
 30
0.0
 10
132.734450
 20
54.685416
 30
0.0
 10
133.097033
 20
55.332184
 30
0.0
 10
133.361620
 20
55.969152
 30
0.0
  0
SPLINE
  5
1b3
100
AcDbEntity
  8
0
 62
7
100
AcDbSpline
 70
8
 71
3
 72
8
 73
4
 74
0
 40
0
 40
0
 40
0
 40
0
 40
1
 40
1
 40
1
 40
1
 10
133.361620
 20
55.969152
 30
0.0
 10
133.636007
 20
56.615920
 30
0.0
 10
133.861393
 20
57.375382
 30
0.0
 10
134.037780
 20
58.247539
 30
0.0
  0
LWPOLYLINE
  5
1b4
100
AcDbEntity
  8
0
 62
7
100
AcDbPolyline
 90
1
 70
1
 10
135.463600
 20
63.259992
 30
0.0
  0
SPLINE
  5
1b5
100
AcDbEntity
  8
0
 62
7
100
AcDbSpline
 70
8
 71
3
 72
8
 73
4
 74
0
 40
0
 40
0
 40
0
 40
0
 40
1
 40
1
 40
1
 40
1
 10
148.957540
 20
52.632419
 30
0.0
 10
148.153980
 20
51.662267
 30
0.0
 10
147.360220
 20
50.927304
 30
0.0
 10
146.576260
 20
50.427529
 30
0.0
  0
SPLINE
  5
1b6
100
AcDbEntity
  8
0
 62
7
100
AcDbSpline
 70
8
 71
3
 72
8
 73
4
 74
0
 40
0
 40
0
 40
0
 40
0
 40
1
 40
1
 40
1
 40
1
 10
146.576260
 20
50.427529
 30
0.0
 10
145.792300
 20
49.937553
 30
0.0
 10
144.959340
 20
49.692565
 30
0.0
 10
144.077380
 20
49.692565
 30
0.0
  0
SPLINE
  5
1b7
100
AcDbEntity
  8
0
 62
7
100
AcDbSpline
 70
8
 71
3
 72
8
 73
4
 74
0
 40
0
 40
0
 40
0
 40
0
 40
1
 40
1
 40
1
 40
1
 10
144.077380
 20
49.692565
 30
0.0
 10
143.038633
 20
49.692565
 30
0.0
 10
142.264473
 20
49.957152
 30
0.0
 10
141.754900
 20
50.486326
 30
0.0
  0
SPLINE
  5
1b8
100
AcDbEntity
  8
0
 62
7
100
AcDbSpline
 70
8
 71
3
 72
8
 73
4
 74
0
 40
0
 40
0
 40
0
 40
0
 40
1
 40
1
 40
1
 40
1
 10
141.754900
 20
50.486326
 30
0.0
 10
141.245327
 20
51.015499
 30
0.0
 10
140.990540
 20
51.784761
 30
0.0
 10
140.990540
 20
52.794111
 30
0.0
  0
SPLINE
  5
1b9
100
AcDbEntity
  8
0
 62
7
100
AcDbSpline
 70
8
 71
3
 72
8
 73
4
 74
0
 40
0
 40
0
 40
0
 40
0
 40
1
 40
1
 40
1
 40
1
 10
140.990540
 20
52.794111
 30
0.0
 10
140.990540
 20
53.411480
 30
0.0
 10
141.078733
 20
54.102345
 30
0.0
 10
141.255120
 20
54.866707
 30
0.0
  0
LWPOLYLINE
  5
1ba
100
AcDbEntity
  8
0
 62
7
100
AcDbPolyline
 90
2
 70
0
 10
134.037780
 20
58.247539
 30
0.0
 10
134.170080
 20
58.879607
 30
0.0
  0
SPLINE
  5
1bb
100
AcDbEntity
  8
0
 62
7
100
AcDbSpline
 70
8
 71
3
 72
8
 73
4
 74
0
 40
0
 40
0
 40
0
 40
0
 40
1
 40
1
 40
1
 40
1
 10
141.049330
 20
63.245290
 30
0.0
 10
141.627503
 20
63.313886
 30
0.0
 10
142.083183
 20
63.436380
 30
0.0
 10
142.416370
 20
63.612771
 30
0.0
  0
SPLINE
  5
1bc
100
AcDbEntity
  8
0
 62
7
100
AcDbSpline
 70
8
 71
3
 72
8
 73
4
 74
0
 40
0
 40
0
 40
0
 40
0
 40
1
 40
1
 40
1
 40
1
 10
142.416370
 20
63.612771
 30
0.0
 10
142.759350
 20
63.798962
 30
0.0
 10
143.043533
 20
64.039050
 30
0.0
 10
143.268920
 20
64.333035
 30
0.0
  0
SPLINE
  5
1bd
100
AcDbEntity
  8
0
 62
7
100
AcDbSpline
 70
8
 71
3
 72
8
 73
4
 74
0
 40
0
 40
0
 40
0
 40
0
 40
1
 40
1
 40
1
 40
1
 10
143.268920
 20
64.333035
 30
0.0
 10
143.504113
 20
64.636820
 30
0.0
 10
143.719703
 20
65.028801
 30
0.0
 10
143.915690
 20
65.508977
 30
0.0
  0
SPLINE
  5
1be
100
AcDbEntity
  8
0
 62
7
100
AcDbSpline
 70
8
 71
3
 72
8
 73
4
 74
0
 40
0
 40
0
 40
0
 40
0
 40
1
 40
1
 40
1
 40
1
 10
143.915690
 20
65.508977
 30
0.0
 10
144.111683
 20
65.989153
 30
0.0
 10
144.356670
 20
66.689818
 30
0.0
 10
144.650650
 20
67.610972
 30
0.0
  0
LWPOLYLINE
  5
1bf
100
AcDbEntity
  8
0
 62
7
100
AcDbPolyline
 90
4
 70
0
 10
141.255120
 20
54.866707
 30
0.0
 10
143.077830
 20
62.495627
 30
0.0
 10
140.887640
 20
62.495627
 30
0.0
 10
141.049330
 20
63.245290
 30
0.0
  0
SPLINE
  5
1c0
100
AcDbEntity
  8
0
 62
7
100
AcDbSpline
 70
8
 71
3
 72
8
 73
4
 74
0
 40
0
 40
0
 40
0
 40
0
 40
1
 40
1
 40
1
 40
1
 10
144.121480
 20
56.792311
 30
0.0
 10
143.729500
 20
55.204790
 30
0.0
 10
143.533510
 20
54.019050
 30
0.0
 10
143.533510
 20
53.235089
 30
0.0
  0
SPLINE
  5
1c1
100
AcDbEntity
  8
0
 62
7
100
AcDbSpline
 70
8
 71
3
 72
8
 73
4
 74
0
 40
0
 40
0
 40
0
 40
0
 40
1
 40
1
 40
1
 40
1
 10
143.533510
 20
53.235089
 30
0.0
 10
143.533510
 20
52.637318
 30
0.0
 10
143.660903
 20
52.181641
 30
0.0
 10
143.915690
 20
51.868057
 30
0.0
  0
SPLINE
  5
1c2
100
AcDbEntity
  8
0
 62
7
100
AcDbSpline
 70
8
 71
3
 72
8
 73
4
 74
0
 40
0
 40
0
 40
0
 40
0
 40
1
 40
1
 40
1
 40
1
 10
143.915690
 20
51.868057
 30
0.0
 10
144.180277
 20
51.564272
 30
0.0
 10
144.562457
 20
51.412379
 30
0.0
 10
145.062230
 20
51.412379
 30
0.0
  0
SPLINE
  5
1c3
100
AcDbEntity
  8
0
 62
7
100
AcDbSpline
 70
8
 71
3
 72
8
 73
4
 74
0
 40
0
 40
0
 40
0
 40
0
 40
1
 40
1
 40
1
 40
1
 10
145.062230
 20
51.412379
 30
0.0
 10
145.513010
 20
51.412379
 30
0.0
 10
145.983387
 20
51.583871
 30
0.0
 10
146.473360
 20
51.926854
 30
0.0
  0
SPLINE
  5
1c4
100
AcDbEntity
  8
0
 62
7
100
AcDbSpline
 70
8
 71
3
 72
8
 73
4
 74
0
 40
0
 40
0
 40
0
 40
0
 40
1
 40
1
 40
1
 40
1
 10
146.473360
 20
51.926854
 30
0.0
 10
146.973140
 20
52.279636
 30
0.0
 10
147.517013
 20
52.808810
 30
0.0
 10
148.104980
 20
53.514375
 30
0.0
  0
LWPOLYLINE
  5
1c5
100
AcDbEntity
  8
0
 62
7
100
AcDbPolyline
 90
7
 70
0
 10
144.650650
 20
67.610972
 30
0.0
 10
146.679150
 20
67.610972
 30
0.0
 10
145.870690
 20
63.980253
 30
0.0
 10
150.530360
 20
63.980253
 30
0.0
 10
150.206980
 20
62.495627
 30
0.0
 10
145.532610
 20
62.495627
 30
0.0
 10
144.121480
 20
56.792311
 30
0.0
  0
LWPOLYLINE
  5
1c6
100
AcDbEntity
  8
0
 62
7
100
AcDbPolyline
 90
2
 70
0
 10
148.104980
 20
53.514375
 30
0.0
 10
148.957540
 20
52.632419
 30
0.0
  0
SPLINE
  5
1c7
100
AcDbEntity
  8
0
 62
7
100
AcDbSpline
 70
8
 71
3
 72
8
 73
4
 74
0
 40
0
 40
0
 40
0
 40
0
 40
1
 40
1
 40
1
 40
1
 10
160.378870
 20
57.394981
 30
0.0
 10
160.516063
 20
57.933954
 30
0.0
 10
160.633657
 20
58.477827
 30
0.0
 10
160.731650
 20
59.026600
 30
0.0
  0
SPLINE
  5
1c8
100
AcDbEntity
  8
0
 62
7
100
AcDbSpline
 70
8
 71
3
 72
8
 73
4
 74
0
 40
0
 40
0
 40
0
 40
0
 40
1
 40
1
 40
1
 40
1
 10
160.731650
 20
59.026600
 30
0.0
 10
160.839450
 20
59.585172
 30
0.0
 10
160.893350
 20
60.089847
 30
0.0
 10
160.893350
 20
60.540624
 30
0.0
  0
SPLINE
  5
1c9
100
AcDbEntity
  8
0
 62
7
100
AcDbSpline
 70
8
 71
3
 72
8
 73
4
 74
0
 40
0
 40
0
 40
0
 40
0
 40
1
 40
1
 40
1
 40
1
 10
160.893350
 20
60.540624
 30
0.0
 10
160.893350
 20
61.246189
 30
0.0
 10
160.775753
 20
61.745965
 30
0.0
 10
160.540560
 20
62.039950
 30
0.0
  0
SPLINE
  5
1ca
100
AcDbEntity
  8
0
 62
7
100
AcDbSpline
 70
8
 71
3
 72
8
 73
4
 74
0
 40
0
 40
0
 40
0
 40
0
 40
1
 40
1
 40
1
 40
1
 10
160.540560
 20
62.039950
 30
0.0
 10
160.305373
 20
62.343735
 30
0.0
 10
159.908493
 20
62.495627
 30
0.0
 10
159.349920
 20
62.495627
 30
0.0
  0
SPLINE
  5
1cb
100
AcDbEntity
  8
0
 62
7
100
AcDbSpline
 70
8
 71
3
 72
8
 73
4
 74
0
 40
0
 40
0
 40
0
 40
0
 40
1
 40
1
 40
1
 40
1
 10
159.349920
 20
62.495627
 30
0.0
 10
158.948140
 20
62.495627
 30
0.0
 10
158.502263
 20
62.329035
 30
0.0
 10
158.012290
 20
61.995852
 30
0.0
  0
SPLINE
  5
1cc
100
AcDbEntity
  8
0
 62
7
100
AcDbSpline
 70
8
 71
3
 72
8
 73
4
 74
0
 40
0
 40
0
 40
0
 40
0
 40
1
 40
1
 40
1
 40
1
 10
158.012290
 20
61.995852
 30
0.0
 10
157.532117
 20
61.662669
 30
0.0
 10
157.022543
 20
61.153094
 30
0.0
 10
156.483570
 20
60.467128
 30
0.0
  0
SPLINE
  5
1cd
100
AcDbEntity
  8
0
 62
7
100
AcDbSpline
 70
8
 71
3
 72
8
 73
4
 74
0
 40
0
 40
0
 40
0
 40
0
 40
1
 40
1
 40
1
 40
1
 10
156.483570
 20
60.467128
 30
0.0
 10
155.944597
 20
59.790962
 30
0.0
 10
155.513417
 20
59.139295
 30
0.0
 10
155.190030
 20
58.512126
 30
0.0
  0
SPLINE
  5
1ce
100
AcDbEntity
  8
0
 62
7
100
AcDbSpline
 70
8
 71
3
 72
8
 73
4
 74
0
 40
0
 40
0
 40
0
 40
0
 40
1
 40
1
 40
1
 40
1
 10
155.190030
 20
58.512126
 30
0.0
 10
154.876443
 20
57.894757
 30
0.0
 10
154.626557
 20
57.154893
 30
0.0
 10
154.440370
 20
56.292536
 30
0.0
  0
LWPOLYLINE
  5
1cf
100
AcDbEntity
  8
0
 62
7
100
AcDbPolyline
 90
3
 70
0
 10
163.142330
 20
49.927753
 30
0.0
 10
158.526760
 20
49.927753
 30
0.0
 10
160.378870
 20
57.394981
 30
0.0
  0
SPLINE
  5
1d0
100
AcDbEntity
  8
0
 62
7
100
AcDbSpline
 70
8
 71
3
 72
8
 73
4
 74
0
 40
0
 40
0
 40
0
 40
0
 40
1
 40
1
 40
1
 40
1
 10
154.337470
 20
66.729016
 30
0.0
 10
154.445263
 20
67.218991
 30
0.0
 10
154.518760
 20
67.571774
 30
0.0
 10
154.557960
 20
67.787363
 30
0.0
  0
SPLINE
  5
1d1
100
AcDbEntity
  8
0
 62
7
100
AcDbSpline
 70
8
 71
3
 72
8
 73
4
 74
0
 40
0
 40
0
 40
0
 40
0
 40
1
 40
1
 40
1
 40
1
 10
154.557960
 20
67.787363
 30
0.0
 10
154.606960
 20
68.012752
 30
0.0
 10
154.641260
 20
68.218541
 30
0.0
 10
154.660860
 20
68.404732
 30
0.0
  0
SPLINE
  5
1d2
100
AcDbEntity
  8
0
 62
7
100
AcDbSpline
 70
8
 71
3
 72
8
 73
4
 74
0
 40
0
 40
0
 40
0
 40
0
 40
1
 40
1
 40
1
 40
1
 10
154.660860
 20
68.404732
 30
0.0
 10
154.680460
 20
68.590923
 30
0.0
 10
154.690260
 20
68.757514
 30
0.0
 10
154.690260
 20
68.904507
 30
0.0
  0
SPLINE
  5
1d3
100
AcDbEntity
  8
0
 62
7
100
AcDbSpline
 70
8
 71
3
 72
8
 73
4
 74
0
 40
0
 40
0
 40
0
 40
0
 40
1
 40
1
 40
1
 40
1
 10
154.690260
 20
68.904507
 30
0.0
 10
154.690260
 20
69.316087
 30
0.0
 10
154.562863
 20
69.605173
 30
0.0
 10
154.308070
 20
69.771764
 30
0.0
  0
SPLINE
  5
1d4
100
AcDbEntity
  8
0
 62
7
100
AcDbSpline
 70
8
 71
3
 72
8
 73
4
 74
0
 40
0
 40
0
 40
0
 40
0
 40
1
 40
1
 40
1
 40
1
 10
154.308070
 20
69.771764
 30
0.0
 10
154.063083
 20
69.938356
 30
0.0
 10
153.617207
 20
70.031451
 30
0.0
 10
152.970440
 20
70.051050
 30
0.0
  0
LWPOLYLINE
  5
1d5
100
AcDbEntity
  8
0
 62
7
100
AcDbPolyline
 90
4
 70
0
 10
154.440370
 20
56.292536
 30
0.0
 10
153.102730
 20
49.927753
 30
0.0
 10
150.559760
 20
49.927753
 30
0.0
 10
154.337470
 20
66.729016
 30
0.0
  0
SPLINE
  5
1d6
100
AcDbEntity
  8
0
 62
7
100
AcDbSpline
 70
8
 71
3
 72
8
 73
4
 74
0
 40
0
 40
0
 40
0
 40
0
 40
1
 40
1
 40
1
 40
1
 10
155.366420
 20
60.702313
 30
0.0
 10
156.287573
 20
61.927252
 30
0.0
 10
157.164630
 20
62.819008
 30
0.0
 10
157.997590
 20
63.377580
 30
0.0
  0
SPLINE
  5
1d7
100
AcDbEntity
  8
0
 62
7
100
AcDbSpline
 70
8
 71
3
 72
8
 73
4
 74
0
 40
0
 40
0
 40
0
 40
0
 40
1
 40
1
 40
1
 40
1
 10
157.997590
 20
63.377580
 30
0.0
 10
158.830550
 20
63.936152
 30
0.0
 10
159.678207
 20
64.215438
 30
0.0
 10
160.540560
 20
64.215438
 30
0.0
  0
SPLINE
  5
1d8
100
AcDbEntity
  8
0
 62
7
100
AcDbSpline
 70
8
 71
3
 72
8
 73
4
 74
0
 40
0
 40
0
 40
0
 40
0
 40
1
 40
1
 40
1
 40
1
 10
160.540560
 20
64.215438
 30
0.0
 10
161.491113
 20
64.215438
 30
0.0
 10
162.211380
 20
63.950851
 30
0.0
 10
162.701360
 20
63.421678
 30
0.0
  0
SPLINE
  5
1d9
100
AcDbEntity
  8
0
 62
7
100
AcDbSpline
 70
8
 71
3
 72
8
 73
4
 74
0
 40
0
 40
0
 40
0
 40
0
 40
1
 40
1
 40
1
 40
1
 10
162.701360
 20
63.421678
 30
0.0
 10
163.191333
 20
62.902304
 30
0.0
 10
163.436320
 20
62.128143
 30
0.0
 10
163.436320
 20
61.099194
 30
0.0
  0
SPLINE
  5
1da
100
AcDbEntity
  8
0
 62
7
100
AcDbSpline
 70
8
 71
3
 72
8
 73
4
 74
0
 40
0
 40
0
 40
0
 40
0
 40
1
 40
1
 40
1
 40
1
 10
163.436320
 20
61.099194
 30
0.0
 10
163.436320
 20
60.472025
 30
0.0
 10
163.338323
 20
59.717462
 30
0.0
 10
163.142330
 20
58.835506
 30
0.0
  0
LWPOLYLINE
  5
1db
100
AcDbEntity
  8
0
 62
7
100
AcDbPolyline
 90
6
 70
0
 10
152.970440
 20
70.051050
 30
0.0
 10
153.146830
 20
70.815412
 30
0.0
 10
156.865750
 20
70.947706
 30
0.0
 10
157.718300
 20
70.947706
 30
0.0
 10
155.190030
 20
60.761113
 30
0.0
 10
155.366420
 20
60.702313
 30
0.0
  0
SPLINE
  5
1dc
100
AcDbEntity
  8
0
 62
7
100
AcDbSpline
 70
8
 71
3
 72
8
 73
4
 74
0
 40
0
 40
0
 40
0
 40
0
 40
1
 40
1
 40
1
 40
1
 10
161.907600
 20
53.602567
 30
0.0
 10
161.809600
 20
53.181188
 30
0.0
 10
161.741003
 20
52.843105
 30
0.0
 10
161.701810
 20
52.588318
 30
0.0
  0
SPLINE
  5
1dd
100
AcDbEntity
  8
0
 62
7
100
AcDbSpline
 70
8
 71
3
 72
8
 73
4
 74
0
 40
0
 40
0
 40
0
 40
0
 40
1
 40
1
 40
1
 40
1
 10
161.701810
 20
52.588318
 30
0.0
 10
161.662610
 20
52.333531
 30
0.0
 10
161.643010
 20
52.113042
 30
0.0
 10
161.643010
 20
51.926851
 30
0.0
  0
SPLINE
  5
1de
100
AcDbEntity
  8
0
 62
7
100
AcDbSpline
 70
8
 71
3
 72
8
 73
4
 74
0
 40
0
 40
0
 40
0
 40
0
 40
1
 40
1
 40
1
 40
1
 10
161.643010
 20
51.926851
 30
0.0
 10
161.643010
 20
51.623066
 30
0.0
 10
161.692007
 20
51.387878
 30
0.0
 10
161.790000
 20
51.221286
 30
0.0
  0
SPLINE
  5
1df
100
AcDbEntity
  8
0
 62
7
100
AcDbSpline
 70
8
 71
3
 72
8
 73
4
 74
0
 40
0
 40
0
 40
0
 40
0
 40
1
 40
1
 40
1
 40
1
 10
161.790000
 20
51.221286
 30
0.0
 10
161.897793
 20
51.054694
 30
0.0
 10
162.054587
 20
50.927300
 30
0.0
 10
162.260380
 20
50.839105
 30
0.0
  0
SPLINE
  5
1e0
100
AcDbEntity
  8
0
 62
7
100
AcDbSpline
 70
8
 71
3
 72
8
 73
4
 74
0
 40
0
 40
0
 40
0
 40
0
 40
1
 40
1
 40
1
 40
1
 10
162.260380
 20
50.839105
 30
0.0
 10
162.475967
 20
50.760709
 30
0.0
 10
162.814050
 20
50.697012
 30
0.0
 10
163.274630
 20
50.648015
 30
0.0
  0
LWPOLYLINE
  5
1e1
100
AcDbEntity
  8
0
 62
7
100
AcDbPolyline
 90
2
 70
0
 10
163.142330
 20
58.835506
 30
0.0
 10
161.907600
 20
53.602567
 30
0.0
  0
SPLINE
  5
1e2
100
AcDbEntity
  8
0
 62
7
100
AcDbSpline
 70
8
 71
3
 72
8
 73
4
 74
0
 40
0
 40
0
 40
0
 40
0
 40
1
 40
1
 40
1
 40
1
 10
112.484810
 20
34.657758
 30
0.0
 10
112.484810
 20
33.641098
 30
0.0
 10
112.373747
 20
32.726958
 30
0.0
 10
112.151620
 20
31.915339
 30
0.0
  0
SPLINE
  5
1e3
100
AcDbEntity
  8
0
 62
7
100
AcDbSpline
 70
8
 71
3
 72
8
 73
4
 74
0
 40
0
 40
0
 40
0
 40
0
 40
1
 40
1
 40
1
 40
1
 10
112.151620
 20
31.915339
 30
0.0
 10
111.929493
 20
31.103720
 30
0.0
 10
111.609117
 20
30.411708
 30
0.0
 10
111.190490
 20
29.839303
 30
0.0
  0
SPLINE
  5
1e4
100
AcDbEntity
  8
0
 62
7
100
AcDbSpline
 70
8
 71
3
 72
8
 73
4
 74
0
 40
0
 40
0
 40
0
 40
0
 40
1
 40
1
 40
1
 40
1
 10
111.190490
 20
29.839303
 30
0.0
 10
110.771870
 20
29.266898
 30
0.0
 10
110.254997
 20
28.826915
 30
0.0
 10
109.639870
 20
28.519354
 30
0.0
  0
SPLINE
  5
1e5
100
AcDbEntity
  8
0
 62
7
100
AcDbSpline
 70
8
 71
3
 72
8
 73
4
 74
0
 40
0
 40
0
 40
0
 40
0
 40
1
 40
1
 40
1
 40
1
 10
109.639870
 20
28.519354
 30
0.0
 10
109.033297
 20
28.211793
 30
0.0
 10
108.341287
 20
28.058013
 30
0.0
 10
107.563840
 20
28.058013
 30
0.0
  0
SPLINE
  5
1e6
100
AcDbEntity
  8
0
 62
7
100
AcDbSpline
 70
8
 71
3
 72
8
 73
4
 74
0
 40
0
 40
0
 40
0
 40
0
 40
1
 40
1
 40
1
 40
1
 10
107.563840
 20
28.058013
 30
0.0
 10
107.179387
 20
28.058013
 30
0.0
 10
106.820563
 20
28.096458
 30
0.0
 10
106.487370
 20
28.173348
 30
0.0
  0
SPLINE
  5
1e7
100
AcDbEntity
  8
0
 62
7
100
AcDbSpline
 70
8
 71
3
 72
8
 73
4
 74
0
 40
0
 40
0
 40
0
 40
0
 40
1
 40
1
 40
1
 40
1
 10
106.487370
 20
28.173348
 30
0.0
 10
106.154183
 20
28.241695
 30
0.0
 10
105.833810
 20
28.357031
 30
0.0
 10
105.526250
 20
28.519354
 30
0.0
  0
SPLINE
  5
1e8
100
AcDbEntity
  8
0
 62
7
100
AcDbSpline
 70
8
 71
3
 72
8
 73
4
 74
0
 40
0
 40
0
 40
0
 40
0
 40
1
 40
1
 40
1
 40
1
 10
105.526250
 20
28.519354
 30
0.0
 10
105.227230
 20
28.681678
 30
0.0
 10
104.928210
 20
28.886719
 30
0.0
 10
104.629190
 20
29.134476
 30
0.0
  0
SPLINE
  5
1e9
100
AcDbEntity
  8
0
 62
7
100
AcDbSpline
 70
8
 71
3
 72
8
 73
4
 74
0
 40
0
 40
0
 40
0
 40
0
 40
1
 40
1
 40
1
 40
1
 10
104.629190
 20
29.134476
 30
0.0
 10
104.338717
 20
29.382233
 30
0.0
 10
104.039700
 20
29.681251
 30
0.0
 10
103.732140
 20
30.031529
 30
0.0
  0
LWPOLYLINE
  5
1ea
100
AcDbEntity
  8
0
 62
7
100
AcDbPolyline
 90
2
 70
0
 10
163.274630
 20
50.648015
 30
0.0
 10
163.142330
 20
49.927753
 30
0.0
  0
SPLINE
  5
1eb
100
AcDbEntity
  8
0
 62
7
100
AcDbSpline
 70
8
 71
3
 72
8
 73
4
 74
0
 40
0
 40
0
 40
0
 40
0
 40
1
 40
1
 40
1
 40
1
 10
103.732140
 20
28.788470
 30
0.0
 10
103.732140
 20
28.694493
 30
0.0
 10
103.706507
 20
28.613331
 30
0.0
 10
103.655240
 20
28.544984
 30
0.0
  0
SPLINE
  5
1ec
100
AcDbEntity
  8
0
 62
7
100
AcDbSpline
 70
8
 71
3
 72
8
 73
4
 74
0
 40
0
 40
0
 40
0
 40
0
 40
1
 40
1
 40
1
 40
1
 10
103.655240
 20
28.544984
 30
0.0
 10
103.612507
 20
28.485184
 30
0.0
 10
103.535617
 20
28.433924
 30
0.0
 10
103.424570
 20
28.391204
 30
0.0
  0
SPLINE
  5
1ed
100
AcDbEntity
  8
0
 62
7
100
AcDbSpline
 70
8
 71
3
 72
8
 73
4
 74
0
 40
0
 40
0
 40
0
 40
0
 40
1
 40
1
 40
1
 40
1
 10
103.424570
 20
28.391204
 30
0.0
 10
103.322050
 20
28.348484
 30
0.0
 10
103.181083
 20
28.318584
 30
0.0
 10
103.001670
 20
28.301504
 30
0.0
  0
SPLINE
  5
1ee
100
AcDbEntity
  8
0
 62
7
100
AcDbSpline
 70
8
 71
3
 72
8
 73
4
 74
0
 40
0
 40
0
 40
0
 40
0
 40
1
 40
1
 40
1
 40
1
 10
103.001670
 20
28.301504
 30
0.0
 10
102.822263
 20
28.284417
 30
0.0
 10
102.604410
 20
28.275874
 30
0.0
 10
102.348110
 20
28.275874
 30
0.0
  0
SPLINE
  5
1ef
100
AcDbEntity
  8
0
 62
7
100
AcDbSpline
 70
8
 71
3
 72
8
 73
4
 74
0
 40
0
 40
0
 40
0
 40
0
 40
1
 40
1
 40
1
 40
1
 10
102.348110
 20
28.275874
 30
0.0
 10
102.083263
 20
28.275874
 30
0.0
 10
101.861137
 20
28.284417
 30
0.0
 10
101.681730
 20
28.301504
 30
0.0
  0
SPLINE
  5
1f0
100
AcDbEntity
  8
0
 62
7
100
AcDbSpline
 70
8
 71
3
 72
8
 73
4
 74
0
 40
0
 40
0
 40
0
 40
0
 40
1
 40
1
 40
1
 40
1
 10
101.681730
 20
28.301504
 30
0.0
 10
101.510857
 20
28.318591
 30
0.0
 10
101.369890
 20
28.348491
 30
0.0
 10
101.258830
 20
28.391204
 30
0.0
  0
SPLINE
  5
1f1
100
AcDbEntity
  8
0
 62
7
100
AcDbSpline
 70
8
 71
3
 72
8
 73
4
 74
0
 40
0
 40
0
 40
0
 40
0
 40
1
 40
1
 40
1
 40
1
 10
101.258830
 20
28.391204
 30
0.0
 10
101.156310
 20
28.433924
 30
0.0
 10
101.083690
 20
28.485184
 30
0.0
 10
101.040970
 20
28.544984
 30
0.0
  0
SPLINE
  5
1f2
100
AcDbEntity
  8
0
 62
7
100
AcDbSpline
 70
8
 71
3
 72
8
 73
4
 74
0
 40
0
 40
0
 40
0
 40
0
 40
1
 40
1
 40
1
 40
1
 10
101.040970
 20
28.544984
 30
0.0
 10
100.998237
 20
28.613331
 30
0.0
 10
100.976870
 20
28.694493
 30
0.0
 10
100.976870
 20
28.788470
 30
0.0
  0
LWPOLYLINE
  5
1f3
100
AcDbEntity
  8
0
 62
7
100
AcDbPolyline
 90
2
 70
0
 10
103.732140
 20
30.031529
 30
0.0
 10
103.732140
 20
28.788470
 30
0.0
  0
SPLINE
  5
1f4
100
AcDbEntity
  8
0
 62
7
100
AcDbSpline
 70
8
 71
3
 72
8
 73
4
 74
0
 40
0
 40
0
 40
0
 40
0
 40
1
 40
1
 40
1
 40
1
 10
100.976870
 20
45.640246
 30
0.0
 10
100.976870
 20
45.725679
 30
0.0
 10
101.002503
 20
45.802570
 30
0.0
 10
101.053770
 20
45.870917
 30
0.0
  0
SPLINE
  5
1f5
100
AcDbEntity
  8
0
 62
7
100
AcDbSpline
 70
8
 71
3
 72
8
 73
4
 74
0
 40
0
 40
0
 40
0
 40
0
 40
1
 40
1
 40
1
 40
1
 10
101.053770
 20
45.870917
 30
0.0
 10
101.105037
 20
45.939264
 30
0.0
 10
101.190470
 20
45.994795
 30
0.0
 10
101.310070
 20
46.037512
 30
0.0
  0
SPLINE
  5
1f6
100
AcDbEntity
  8
0
 62
7
100
AcDbSpline
 70
8
 71
3
 72
8
 73
4
 74
0
 40
0
 40
0
 40
0
 40
0
 40
1
 40
1
 40
1
 40
1
 10
101.310070
 20
46.037512
 30
0.0
 10
101.438217
 20
46.088772
 30
0.0
 10
101.604813
 20
46.127217
 30
0.0
 10
101.809860
 20
46.152847
 30
0.0
  0
SPLINE
  5
1f7
100
AcDbEntity
  8
0
 62
7
100
AcDbSpline
 70
8
 71
3
 72
8
 73
4
 74
0
 40
0
 40
0
 40
0
 40
0
 40
1
 40
1
 40
1
 40
1
 10
101.809860
 20
46.152847
 30
0.0
 10
102.014900
 20
46.178480
 30
0.0
 10
102.275470
 20
46.191297
 30
0.0
 10
102.591570
 20
46.191297
 30
0.0
  0
SPLINE
  5
1f8
100
AcDbEntity
  8
0
 62
7
100
AcDbSpline
 70
8
 71
3
 72
8
 73
4
 74
0
 40
0
 40
0
 40
0
 40
0
 40
1
 40
1
 40
1
 40
1
 10
102.591570
 20
46.191297
 30
0.0
 10
102.907677
 20
46.191297
 30
0.0
 10
103.168250
 20
46.178480
 30
0.0
 10
103.373290
 20
46.152847
 30
0.0
  0
SPLINE
  5
1f9
100
AcDbEntity
  8
0
 62
7
100
AcDbSpline
 70
8
 71
3
 72
8
 73
4
 74
0
 40
0
 40
0
 40
0
 40
0
 40
1
 40
1
 40
1
 40
1
 10
103.373290
 20
46.152847
 30
0.0
 10
103.578330
 20
46.127214
 30
0.0
 10
103.740653
 20
46.088769
 30
0.0
 10
103.860260
 20
46.037512
 30
0.0
  0
SPLINE
  5
1fa
100
AcDbEntity
  8
0
 62
7
100
AcDbSpline
 70
8
 71
3
 72
8
 73
4
 74
0
 40
0
 40
0
 40
0
 40
0
 40
1
 40
1
 40
1
 40
1
 10
103.860260
 20
46.037512
 30
0.0
 10
103.988413
 20
45.994792
 30
0.0
 10
104.078120
 20
45.939260
 30
0.0
 10
104.129380
 20
45.870917
 30
0.0
  0
SPLINE
  5
1fb
100
AcDbEntity
  8
0
 62
7
100
AcDbSpline
 70
8
 71
3
 72
8
 73
4
 74
0
 40
0
 40
0
 40
0
 40
0
 40
1
 40
1
 40
1
 40
1
 10
104.129380
 20
45.870917
 30
0.0
 10
104.180647
 20
45.802570
 30
0.0
 10
104.206280
 20
45.725679
 30
0.0
 10
104.206280
 20
45.640246
 30
0.0
  0
LWPOLYLINE
  5
1fc
100
AcDbEntity
  8
0
 62
7
100
AcDbPolyline
 90
2
 70
0
 10
100.976870
 20
28.788470
 30
0.0
 10
100.976870
 20
45.640246
 30
0.0
  0
SPLINE
  5
1fd
100
AcDbEntity
  8
0
 62
7
100
AcDbSpline
 70
8
 71
3
 72
8
 73
4
 74
0
 40
0
 40
0
 40
0
 40
0
 40
1
 40
1
 40
1
 40
1
 10
104.206280
 20
39.322432
 30
0.0
 10
104.496753
 20
39.612906
 30
0.0
 10
104.787227
 20
39.860663
 30
0.0
 10
105.077700
 20
40.065704
 30
0.0
  0
SPLINE
  5
1fe
100
AcDbEntity
  8
0
 62
7
100
AcDbSpline
 70
8
 71
3
 72
8
 73
4
 74
0
 40
0
 40
0
 40
0
 40
0
 40
1
 40
1
 40
1
 40
1
 10
105.077700
 20
40.065704
 30
0.0
 10
105.368173
 20
40.270745
 30
0.0
 10
105.658647
 20
40.437340
 30
0.0
 10
105.949120
 20
40.565491
 30
0.0
  0
SPLINE
  5
1ff
100
AcDbEntity
  8
0
 62
7
100
AcDbSpline
 70
8
 71
3
 72
8
 73
4
 74
0
 40
0
 40
0
 40
0
 40
0
 40
1
 40
1
 40
1
 40
1
 10
105.949120
 20
40.565491
 30
0.0
 10
106.239593
 20
40.702184
 30
0.0
 10
106.538613
 20
40.800433
 30
0.0
 10
106.846180
 20
40.860236
 30
0.0
  0
SPLINE
  5
200
100
AcDbEntity
  8
0
 62
7
100
AcDbSpline
 70
8
 71
3
 72
8
 73
4
 74
0
 40
0
 40
0
 40
0
 40
0
 40
1
 40
1
 40
1
 40
1
 10
106.846180
 20
40.860236
 30
0.0
 10
107.153740
 20
40.920043
 30
0.0
 10
107.478387
 20
40.949946
 30
0.0
 10
107.820120
 20
40.949946
 30
0.0
  0
SPLINE
  5
201
100
AcDbEntity
  8
0
 62
7
100
AcDbSpline
 70
8
 71
3
 72
8
 73
4
 74
0
 40
0
 40
0
 40
0
 40
0
 40
1
 40
1
 40
1
 40
1
 10
107.820120
 20
40.949946
 30
0.0
 10
108.665913
 20
40.949946
 30
0.0
 10
109.383557
 20
40.779079
 30
0.0
 10
109.973050
 20
40.437344
 30
0.0
  0
SPLINE
  5
202
100
AcDbEntity
  8
0
 62
7
100
AcDbSpline
 70
8
 71
3
 72
8
 73
4
 74
0
 40
0
 40
0
 40
0
 40
0
 40
1
 40
1
 40
1
 40
1
 10
109.973050
 20
40.437344
 30
0.0
 10
110.562537
 20
40.104153
 30
0.0
 10
111.040963
 20
39.651355
 30
0.0
 10
111.408330
 20
39.078950
 30
0.0
  0
SPLINE
  5
203
100
AcDbEntity
  8
0
 62
7
100
AcDbSpline
 70
8
 71
3
 72
8
 73
4
 74
0
 40
0
 40
0
 40
0
 40
0
 40
1
 40
1
 40
1
 40
1
 10
111.408330
 20
39.078950
 30
0.0
 10
111.784237
 20
38.506545
 30
0.0
 10
112.057623
 20
37.835892
 30
0.0
 10
112.228490
 20
37.066989
 30
0.0
  0
SPLINE
  5
204
100
AcDbEntity
  8
0
 62
7
100
AcDbSpline
 70
8
 71
3
 72
8
 73
4
 74
0
 40
0
 40
0
 40
0
 40
0
 40
1
 40
1
 40
1
 40
1
 10
112.228490
 20
37.066989
 30
0.0
 10
112.399357
 20
36.306630
 30
0.0
 10
112.484790
 20
35.503555
 30
0.0
 10
112.484790
 20
34.657762
 30
0.0
  0
LWPOLYLINE
  5
205
100
AcDbEntity
  8
0
 62
7
100
AcDbPolyline
 90
2
 70
0
 10
104.206280
 20
45.640246
 30
0.0
 10
104.206280
 20
39.322432
 30
0.0
  0
SPLINE
  5
206
100
AcDbEntity
  8
0
 62
7
100
AcDbSpline
 70
8
 71
3
 72
8
 73
4
 74
0
 40
0
 40
0
 40
0
 40
0
 40
1
 40
1
 40
1
 40
1
 10
109.140090
 20
34.427087
 30
0.0
 10
109.140090
 20
34.914058
 30
0.0
 10
109.101643
 20
35.383943
 30
0.0
 10
109.024750
 20
35.836741
 30
0.0
  0
SPLINE
  5
207
100
AcDbEntity
  8
0
 62
7
100
AcDbSpline
 70
8
 71
3
 72
8
 73
4
 74
0
 40
0
 40
0
 40
0
 40
0
 40
1
 40
1
 40
1
 40
1
 10
109.024750
 20
35.836741
 30
0.0
 10
108.956403
 20
36.289539
 30
0.0
 10
108.832527
 20
36.691077
 30
0.0
 10
108.653120
 20
37.041355
 30
0.0
  0
SPLINE
  5
208
100
AcDbEntity
  8
0
 62
7
100
AcDbSpline
 70
8
 71
3
 72
8
 73
4
 74
0
 40
0
 40
0
 40
0
 40
0
 40
1
 40
1
 40
1
 40
1
 10
108.653120
 20
37.041355
 30
0.0
 10
108.473707
 20
37.391633
 30
0.0
 10
108.238763
 20
37.669292
 30
0.0
 10
107.948290
 20
37.874332
 30
0.0
  0
SPLINE
  5
209
100
AcDbEntity
  8
0
 62
7
100
AcDbSpline
 70
8
 71
3
 72
8
 73
4
 74
0
 40
0
 40
0
 40
0
 40
0
 40
1
 40
1
 40
1
 40
1
 10
107.948290
 20
37.874332
 30
0.0
 10
107.666357
 20
38.087916
 30
0.0
 10
107.307537
 20
38.194708
 30
0.0
 10
106.871830
 20
38.194708
 30
0.0
  0
SPLINE
  5
20a
100
AcDbEntity
  8
0
 62
7
100
AcDbSpline
 70
8
 71
3
 72
8
 73
4
 74
0
 40
0
 40
0
 40
0
 40
0
 40
1
 40
1
 40
1
 40
1
 10
106.871830
 20
38.194708
 30
0.0
 10
106.658243
 20
38.194708
 30
0.0
 10
106.448930
 20
38.164808
 30
0.0
 10
106.243890
 20
38.105008
 30
0.0
  0
SPLINE
  5
20b
100
AcDbEntity
  8
0
 62
7
100
AcDbSpline
 70
8
 71
3
 72
8
 73
4
 74
0
 40
0
 40
0
 40
0
 40
0
 40
1
 40
1
 40
1
 40
1
 10
106.243890
 20
38.105008
 30
0.0
 10
106.038850
 20
38.045201
 30
0.0
 10
105.825267
 20
37.942681
 30
0.0
 10
105.603140
 20
37.797447
 30
0.0
  0
SPLINE
  5
20c
100
AcDbEntity
  8
0
 62
7
100
AcDbSpline
 70
8
 71
3
 72
8
 73
4
 74
0
 40
0
 40
0
 40
0
 40
0
 40
1
 40
1
 40
1
 40
1
 10
105.603140
 20
37.797447
 30
0.0
 10
105.389553
 20
37.652210
 30
0.0
 10
105.167423
 20
37.464257
 30
0.0
 10
104.936750
 20
37.233586
 30
0.0
  0
SPLINE
  5
20d
100
AcDbEntity
  8
0
 62
7
100
AcDbSpline
 70
8
 71
3
 72
8
 73
4
 74
0
 40
0
 40
0
 40
0
 40
0
 40
1
 40
1
 40
1
 40
1
 10
104.936750
 20
37.233586
 30
0.0
 10
104.706083
 20
37.002915
 30
0.0
 10
104.462600
 20
36.716712
 30
0.0
 10
104.206300
 20
36.374978
 30
0.0
  0
LWPOLYLINE
  5
20e
100
AcDbEntity
  8
0
 62
7
100
AcDbPolyline
 90
1
 70
1
 10
112.484790
 20
34.657762
 30
0.0
  0
SPLINE
  5
20f
100
AcDbEntity
  8
0
 62
7
100
AcDbSpline
 70
8
 71
3
 72
8
 73
4
 74
0
 40
0
 40
0
 40
0
 40
0
 40
1
 40
1
 40
1
 40
1
 10
104.206300
 20
32.581727
 30
0.0
 10
104.659093
 20
32.000778
 30
0.0
 10
105.090533
 20
31.556523
 30
0.0
 10
105.500620
 20
31.248962
 30
0.0
  0
SPLINE
  5
210
100
AcDbEntity
  8
0
 62
7
100
AcDbSpline
 70
8
 71
3
 72
8
 73
4
 74
0
 40
0
 40
0
 40
0
 40
0
 40
1
 40
1
 40
1
 40
1
 10
105.500620
 20
31.248962
 30
0.0
 10
105.919240
 20
30.949945
 30
0.0
 10
106.354950
 20
30.800436
 30
0.0
 10
106.807750
 20
30.800436
 30
0.0
  0
SPLINE
  5
211
100
AcDbEntity
  8
0
 62
7
100
AcDbSpline
 70
8
 71
3
 72
8
 73
4
 74
0
 40
0
 40
0
 40
0
 40
0
 40
1
 40
1
 40
1
 40
1
 10
106.807750
 20
30.800436
 30
0.0
 10
107.226377
 20
30.800436
 30
0.0
 10
107.580927
 20
30.907228
 30
0.0
 10
107.871400
 20
31.120812
 30
0.0
  0
SPLINE
  5
212
100
AcDbEntity
  8
0
 62
7
100
AcDbSpline
 70
8
 71
3
 72
8
 73
4
 74
0
 40
0
 40
0
 40
0
 40
0
 40
1
 40
1
 40
1
 40
1
 10
107.871400
 20
31.120812
 30
0.0
 10
108.161873
 20
31.334396
 30
0.0
 10
108.401087
 20
31.612055
 30
0.0
 10
108.589040
 20
31.953790
 30
0.0
  0
SPLINE
  5
213
100
AcDbEntity
  8
0
 62
7
100
AcDbSpline
 70
8
 71
3
 72
8
 73
4
 74
0
 40
0
 40
0
 40
0
 40
0
 40
1
 40
1
 40
1
 40
1
 10
108.589040
 20
31.953790
 30
0.0
 10
108.785540
 20
32.295524
 30
0.0
 10
108.926507
 20
32.684247
 30
0.0
 10
109.011940
 20
33.119958
 30
0.0
  0
SPLINE
  5
214
100
AcDbEntity
  8
0
 62
7
100
AcDbSpline
 70
8
 71
3
 72
8
 73
4
 74
0
 40
0
 40
0
 40
0
 40
0
 40
1
 40
1
 40
1
 40
1
 10
109.011940
 20
33.119958
 30
0.0
 10
109.097373
 20
33.555669
 30
0.0
 10
109.140090
 20
33.991381
 30
0.0
 10
109.140090
 20
34.427092
 30
0.0
  0
LWPOLYLINE
  5
215
100
AcDbEntity
  8
0
 62
7
100
AcDbPolyline
 90
2
 70
0
 10
104.206300
 20
36.374978
 30
0.0
 10
104.206300
 20
32.581727
 30
0.0
  0
SPLINE
  5
216
100
AcDbEntity
  8
0
 62
7
100
AcDbSpline
 70
8
 71
3
 72
8
 73
4
 74
0
 40
0
 40
0
 40
0
 40
0
 40
1
 40
1
 40
1
 40
1
 10
126.619800
 20
34.619313
 30
0.0
 10
126.619800
 20
33.645370
 30
0.0
 10
126.491650
 20
32.756860
 30
0.0
 10
126.235350
 20
31.953785
 30
0.0
  0
SPLINE
  5
217
100
AcDbEntity
  8
0
 62
7
100
AcDbSpline
 70
8
 71
3
 72
8
 73
4
 74
0
 40
0
 40
0
 40
0
 40
0
 40
1
 40
1
 40
1
 40
1
 10
126.235350
 20
31.953785
 30
0.0
 10
125.979050
 20
31.150709
 30
0.0
 10
125.590327
 20
30.458697
 30
0.0
 10
125.069180
 20
29.877748
 30
0.0
  0
SPLINE
  5
218
100
AcDbEntity
  8
0
 62
7
100
AcDbSpline
 70
8
 71
3
 72
8
 73
4
 74
0
 40
0
 40
0
 40
0
 40
0
 40
1
 40
1
 40
1
 40
1
 10
125.069180
 20
29.877748
 30
0.0
 10
124.548033
 20
29.296800
 30
0.0
 10
123.894467
 20
28.848274
 30
0.0
 10
123.108480
 20
28.532169
 30
0.0
  0
SPLINE
  5
219
100
AcDbEntity
  8
0
 62
7
100
AcDbSpline
 70
8
 71
3
 72
8
 73
4
 74
0
 40
0
 40
0
 40
0
 40
0
 40
1
 40
1
 40
1
 40
1
 10
123.108480
 20
28.532169
 30
0.0
 10
122.322493
 20
28.216065
 30
0.0
 10
121.404083
 20
28.058013
 30
0.0
 10
120.353250
 20
28.058013
 30
0.0
  0
SPLINE
  5
21a
100
AcDbEntity
  8
0
 62
7
100
AcDbSpline
 70
8
 71
3
 72
8
 73
4
 74
0
 40
0
 40
0
 40
0
 40
0
 40
1
 40
1
 40
1
 40
1
 10
120.353250
 20
28.058013
 30
0.0
 10
119.336590
 20
28.058013
 30
0.0
 10
118.452350
 20
28.198978
 30
0.0
 10
117.700530
 20
28.480909
 30
0.0
  0
SPLINE
  5
21b
100
AcDbEntity
  8
0
 62
7
100
AcDbSpline
 70
8
 71
3
 72
8
 73
4
 74
0
 40
0
 40
0
 40
0
 40
0
 40
1
 40
1
 40
1
 40
1
 10
117.700530
 20
28.480909
 30
0.0
 10
116.948717
 20
28.762840
 30
0.0
 10
116.325053
 20
29.172921
 30
0.0
 10
115.829540
 20
29.711153
 30
0.0
  0
SPLINE
  5
21c
100
AcDbEntity
  8
0
 62
7
100
AcDbSpline
 70
8
 71
3
 72
8
 73
4
 74
0
 40
0
 40
0
 40
0
 40
0
 40
1
 40
1
 40
1
 40
1
 10
115.829540
 20
29.711153
 30
0.0
 10
115.334027
 20
30.249384
 30
0.0
 10
114.966660
 20
30.911495
 30
0.0
 10
114.727440
 20
31.697484
 30
0.0
  0
SPLINE
  5
21d
100
AcDbEntity
  8
0
 62
7
100
AcDbSpline
 70
8
 71
3
 72
8
 73
4
 74
0
 40
0
 40
0
 40
0
 40
0
 40
1
 40
1
 40
1
 40
1
 10
114.727440
 20
31.697484
 30
0.0
 10
114.488227
 20
32.483473
 30
0.0
 10
114.368620
 20
33.380525
 30
0.0
 10
114.368620
 20
34.388642
 30
0.0
  0
SPLINE
  5
21e
100
AcDbEntity
  8
0
 62
7
100
AcDbSpline
 70
8
 71
3
 72
8
 73
4
 74
0
 40
0
 40
0
 40
0
 40
0
 40
1
 40
1
 40
1
 40
1
 10
114.368620
 20
34.388642
 30
0.0
 10
114.368620
 20
35.362585
 30
0.0
 10
114.496770
 20
36.251094
 30
0.0
 10
114.753070
 20
37.054170
 30
0.0
  0
SPLINE
  5
21f
100
AcDbEntity
  8
0
 62
7
100
AcDbSpline
 70
8
 71
3
 72
8
 73
4
 74
0
 40
0
 40
0
 40
0
 40
0
 40
1
 40
1
 40
1
 40
1
 10
114.753070
 20
37.054170
 30
0.0
 10
115.017917
 20
37.865789
 30
0.0
 10
115.410913
 20
38.557801
 30
0.0
 10
115.932060
 20
39.130206
 30
0.0
  0
SPLINE
  5
220
100
AcDbEntity
  8
0
 62
7
100
AcDbSpline
 70
8
 71
3
 72
8
 73
4
 74
0
 40
0
 40
0
 40
0
 40
0
 40
1
 40
1
 40
1
 40
1
 10
115.932060
 20
39.130206
 30
0.0
 10
116.453207
 20
39.711155
 30
0.0
 10
117.102500
 20
40.159681
 30
0.0
 10
117.879940
 20
40.475785
 30
0.0
  0
SPLINE
  5
221
100
AcDbEntity
  8
0
 62
7
100
AcDbSpline
 70
8
 71
3
 72
8
 73
4
 74
0
 40
0
 40
0
 40
0
 40
0
 40
1
 40
1
 40
1
 40
1
 10
117.879940
 20
40.475785
 30
0.0
 10
118.665933
 20
40.791890
 30
0.0
 10
119.584347
 20
40.949942
 30
0.0
 10
120.635180
 20
40.949942
 30
0.0
  0
SPLINE
  5
222
100
AcDbEntity
  8
0
 62
7
100
AcDbSpline
 70
8
 71
3
 72
8
 73
4
 74
0
 40
0
 40
0
 40
0
 40
0
 40
1
 40
1
 40
1
 40
1
 10
120.635180
 20
40.949942
 30
0.0
 10
121.660380
 20
40.949942
 30
0.0
 10
122.548890
 20
40.808976
 30
0.0
 10
123.300710
 20
40.527045
 30
0.0
  0
SPLINE
  5
223
100
AcDbEntity
  8
0
 62
7
100
AcDbSpline
 70
8
 71
3
 72
8
 73
4
 74
0
 40
0
 40
0
 40
0
 40
0
 40
1
 40
1
 40
1
 40
1
 10
123.300710
 20
40.527045
 30
0.0
 10
124.052523
 20
40.253658
 30
0.0
 10
124.671917
 20
39.847848
 30
0.0
 10
125.158890
 20
39.309617
 30
0.0
  0
SPLINE
  5
224
100
AcDbEntity
  8
0
 62
7
100
AcDbSpline
 70
8
 71
3
 72
8
 73
4
 74
0
 40
0
 40
0
 40
0
 40
0
 40
1
 40
1
 40
1
 40
1
 10
125.158890
 20
39.309617
 30
0.0
 10
125.654403
 20
38.771385
 30
0.0
 10
126.021767
 20
38.109275
 30
0.0
 10
126.260980
 20
37.323286
 30
0.0
  0
SPLINE
  5
225
100
AcDbEntity
  8
0
 62
7
100
AcDbSpline
 70
8
 71
3
 72
8
 73
4
 74
0
 40
0
 40
0
 40
0
 40
0
 40
1
 40
1
 40
1
 40
1
 10
126.260980
 20
37.323286
 30
0.0
 10
126.500193
 20
36.537297
 30
0.0
 10
126.619800
 20
35.635972
 30
0.0
 10
126.619800
 20
34.619313
 30
0.0
  0
LWPOLYLINE
  5
226
100
AcDbEntity
  8
0
 62
7
100
AcDbPolyline
 90
1
 70
1
 10
109.140090
 20
34.427092
 30
0.0
  0
SPLINE
  5
227
100
AcDbEntity
  8
0
 62
7
100
AcDbSpline
 70
8
 71
3
 72
8
 73
4
 74
0
 40
0
 40
0
 40
0
 40
0
 40
1
 40
1
 40
1
 40
1
 10
123.300710
 20
34.491162
 30
0.0
 10
123.300710
 20
35.055024
 30
0.0
 10
123.253720
 20
35.571897
 30
0.0
 10
123.159740
 20
36.041782
 30
0.0
  0
SPLINE
  5
228
100
AcDbEntity
  8
0
 62
7
100
AcDbSpline
 70
8
 71
3
 72
8
 73
4
 74
0
 40
0
 40
0
 40
0
 40
0
 40
1
 40
1
 40
1
 40
1
 10
123.159740
 20
36.041782
 30
0.0
 10
123.074307
 20
36.520210
 30
0.0
 10
122.924797
 20
36.934563
 30
0.0
 10
122.711210
 20
37.284841
 30
0.0
  0
SPLINE
  5
229
100
AcDbEntity
  8
0
 62
7
100
AcDbSpline
 70
8
 71
3
 72
8
 73
4
 74
0
 40
0
 40
0
 40
0
 40
0
 40
1
 40
1
 40
1
 40
1
 10
122.711210
 20
37.284841
 30
0.0
 10
122.497630
 20
37.635118
 30
0.0
 10
122.211430
 20
37.908506
 30
0.0
 10
121.852610
 20
38.105003
 30
0.0
  0
SPLINE
  5
22a
100
AcDbEntity
  8
0
 62
7
100
AcDbSpline
 70
8
 71
3
 72
8
 73
4
 74
0
 40
0
 40
0
 40
0
 40
0
 40
1
 40
1
 40
1
 40
1
 10
121.852610
 20
38.105003
 30
0.0
 10
121.502330
 20
38.301500
 30
0.0
 10
121.058073
 20
38.399749
 30
0.0
 10
120.519840
 20
38.399749
 30
0.0
  0
SPLINE
  5
22b
100
AcDbEntity
  8
0
 62
7
100
AcDbSpline
 70
8
 71
3
 72
8
 73
4
 74
0
 40
0
 40
0
 40
0
 40
0
 40
1
 40
1
 40
1
 40
1
 10
120.519840
 20
38.399749
 30
0.0
 10
120.041413
 20
38.399749
 30
0.0
 10
119.622790
 20
38.310044
 30
0.0
 10
119.263970
 20
38.130633
 30
0.0
  0
SPLINE
  5
22c
100
AcDbEntity
  8
0
 62
7
100
AcDbSpline
 70
8
 71
3
 72
8
 73
4
 74
0
 40
0
 40
0
 40
0
 40
0
 40
1
 40
1
 40
1
 40
1
 10
119.263970
 20
38.130633
 30
0.0
 10
118.905150
 20
37.959766
 30
0.0
 10
118.610403
 20
37.703465
 30
0.0
 10
118.379730
 20
37.361731
 30
0.0
  0
SPLINE
  5
22d
100
AcDbEntity
  8
0
 62
7
100
AcDbSpline
 70
8
 71
3
 72
8
 73
4
 74
0
 40
0
 40
0
 40
0
 40
0
 40
1
 40
1
 40
1
 40
1
 10
118.379730
 20
37.361731
 30
0.0
 10
118.149057
 20
37.028540
 30
0.0
 10
117.973917
 20
36.622730
 30
0.0
 10
117.854310
 20
36.144302
 30
0.0
  0
SPLINE
  5
22e
100
AcDbEntity
  8
0
 62
7
100
AcDbSpline
 70
8
 71
3
 72
8
 73
4
 74
0
 40
0
 40
0
 40
0
 40
0
 40
1
 40
1
 40
1
 40
1
 10
117.854310
 20
36.144302
 30
0.0
 10
117.743250
 20
35.674417
 30
0.0
 10
117.687720
 20
35.136186
 30
0.0
 10
117.687720
 20
34.529607
 30
0.0
  0
SPLINE
  5
22f
100
AcDbEntity
  8
0
 62
7
100
AcDbSpline
 70
8
 71
3
 72
8
 73
4
 74
0
 40
0
 40
0
 40
0
 40
0
 40
1
 40
1
 40
1
 40
1
 10
117.687720
 20
34.529607
 30
0.0
 10
117.687720
 20
33.965746
 30
0.0
 10
117.734707
 20
33.444601
 30
0.0
 10
117.828680
 20
32.966173
 30
0.0
  0
SPLINE
  5
230
100
AcDbEntity
  8
0
 62
7
100
AcDbSpline
 70
8
 71
3
 72
8
 73
4
 74
0
 40
0
 40
0
 40
0
 40
0
 40
1
 40
1
 40
1
 40
1
 10
117.828680
 20
32.966173
 30
0.0
 10
117.922660
 20
32.496288
 30
0.0
 10
118.072170
 20
32.086207
 30
0.0
 10
118.277210
 20
31.735929
 30
0.0
  0
SPLINE
  5
231
100
AcDbEntity
  8
0
 62
7
100
AcDbSpline
 70
8
 71
3
 72
8
 73
4
 74
0
 40
0
 40
0
 40
0
 40
0
 40
1
 40
1
 40
1
 40
1
 10
118.277210
 20
31.735929
 30
0.0
 10
118.490797
 20
31.385651
 30
0.0
 10
118.777000
 20
31.112263
 30
0.0
 10
119.135820
 20
30.915766
 30
0.0
  0
SPLINE
  5
232
100
AcDbEntity
  8
0
 62
7
100
AcDbSpline
 70
8
 71
3
 72
8
 73
4
 74
0
 40
0
 40
0
 40
0
 40
0
 40
1
 40
1
 40
1
 40
1
 10
119.135820
 20
30.915766
 30
0.0
 10
119.494640
 20
30.727813
 30
0.0
 10
119.938893
 20
30.633836
 30
0.0
 10
120.468580
 20
30.633836
 30
0.0
  0
SPLINE
  5
233
100
AcDbEntity
  8
0
 62
7
100
AcDbSpline
 70
8
 71
3
 72
8
 73
4
 74
0
 40
0
 40
0
 40
0
 40
0
 40
1
 40
1
 40
1
 40
1
 10
120.468580
 20
30.633836
 30
0.0
 10
120.955553
 20
30.633836
 30
0.0
 10
121.378450
 20
30.719269
 30
0.0
 10
121.737270
 20
30.890136
 30
0.0
  0
SPLINE
  5
234
100
AcDbEntity
  8
0
 62
7
100
AcDbSpline
 70
8
 71
3
 72
8
 73
4
 74
0
 40
0
 40
0
 40
0
 40
0
 40
1
 40
1
 40
1
 40
1
 10
121.737270
 20
30.890136
 30
0.0
 10
122.096090
 20
31.069547
 30
0.0
 10
122.390837
 20
31.325848
 30
0.0
 10
122.621510
 20
31.659039
 30
0.0
  0
SPLINE
  5
235
100
AcDbEntity
  8
0
 62
7
100
AcDbSpline
 70
8
 71
3
 72
8
 73
4
 74
0
 40
0
 40
0
 40
0
 40
0
 40
1
 40
1
 40
1
 40
1
 10
122.621510
 20
31.659039
 30
0.0
 10
122.852177
 20
31.992230
 30
0.0
 10
123.023043
 20
32.393767
 30
0.0
 10
123.134110
 20
32.863652
 30
0.0
  0
SPLINE
  5
236
100
AcDbEntity
  8
0
 62
7
100
AcDbSpline
 70
8
 71
3
 72
8
 73
4
 74
0
 40
0
 40
0
 40
0
 40
0
 40
1
 40
1
 40
1
 40
1
 10
123.134110
 20
32.863652
 30
0.0
 10
123.245177
 20
33.342081
 30
0.0
 10
123.300710
 20
33.884584
 30
0.0
 10
123.300710
 20
34.491162
 30
0.0
  0
LWPOLYLINE
  5
237
100
AcDbEntity
  8
0
 62
7
100
AcDbPolyline
 90
1
 70
1
 10
126.619800
 20
34.619313
 30
0.0
  0
SPLINE
  5
238
100
AcDbEntity
  8
0
 62
7
100
AcDbSpline
 70
8
 71
3
 72
8
 73
4
 74
0
 40
0
 40
0
 40
0
 40
0
 40
1
 40
1
 40
1
 40
1
 10
138.909420
 20
28.750025
 30
0.0
 10
138.909420
 20
28.630418
 30
0.0
 10
138.866703
 20
28.536441
 30
0.0
 10
138.781270
 20
28.468094
 30
0.0
  0
SPLINE
  5
239
100
AcDbEntity
  8
0
 62
7
100
AcDbSpline
 70
8
 71
3
 72
8
 73
4
 74
0
 40
0
 40
0
 40
0
 40
0
 40
1
 40
1
 40
1
 40
1
 10
138.781270
 20
28.468094
 30
0.0
 10
138.695837
 20
28.399747
 30
0.0
 10
138.559143
 20
28.352759
 30
0.0
 10
138.371190
 20
28.327129
 30
0.0
  0
SPLINE
  5
23a
100
AcDbEntity
  8
0
 62
7
100
AcDbSpline
 70
8
 71
3
 72
8
 73
4
 74
0
 40
0
 40
0
 40
0
 40
0
 40
1
 40
1
 40
1
 40
1
 10
138.371190
 20
28.327129
 30
0.0
 10
138.191777
 20
28.292956
 30
0.0
 10
137.922660
 20
28.275869
 30
0.0
 10
137.563840
 20
28.275869
 30
0.0
  0
SPLINE
  5
23b
100
AcDbEntity
  8
0
 62
7
100
AcDbSpline
 70
8
 71
3
 72
8
 73
4
 74
0
 40
0
 40
0
 40
0
 40
0
 40
1
 40
1
 40
1
 40
1
 10
137.563840
 20
28.275869
 30
0.0
 10
137.179393
 20
28.275869
 30
0.0
 10
136.897463
 20
28.292956
 30
0.0
 10
136.718050
 20
28.327129
 30
0.0
  0
SPLINE
  5
23c
100
AcDbEntity
  8
0
 62
7
100
AcDbSpline
 70
8
 71
3
 72
8
 73
4
 74
0
 40
0
 40
0
 40
0
 40
0
 40
1
 40
1
 40
1
 40
1
 10
136.718050
 20
28.327129
 30
0.0
 10
136.547183
 20
28.352756
 30
0.0
 10
136.423303
 20
28.399744
 30
0.0
 10
136.346410
 20
28.468094
 30
0.0
  0
SPLINE
  5
23d
100
AcDbEntity
  8
0
 62
7
100
AcDbSpline
 70
8
 71
3
 72
8
 73
4
 74
0
 40
0
 40
0
 40
0
 40
0
 40
1
 40
1
 40
1
 40
1
 10
136.346410
 20
28.468094
 30
0.0
 10
136.278063
 20
28.536441
 30
0.0
 10
136.243890
 20
28.630418
 30
0.0
 10
136.243890
 20
28.750025
 30
0.0
  0
LWPOLYLINE
  5
23e
100
AcDbEntity
  8
0
 62
7
100
AcDbPolyline
 90
1
 70
1
 10
123.300710
 20
34.491162
 30
0.0
  0
SPLINE
  5
23f
100
AcDbEntity
  8
0
 62
7
100
AcDbSpline
 70
8
 71
3
 72
8
 73
4
 74
0
 40
0
 40
0
 40
0
 40
0
 40
1
 40
1
 40
1
 40
1
 10
136.243890
 20
29.659893
 30
0.0
 10
135.774010
 20
29.155834
 30
0.0
 10
135.235780
 20
28.762840
 30
0.0
 10
134.629200
 20
28.480909
 30
0.0
  0
SPLINE
  5
240
100
AcDbEntity
  8
0
 62
7
100
AcDbSpline
 70
8
 71
3
 72
8
 73
4
 74
0
 40
0
 40
0
 40
0
 40
0
 40
1
 40
1
 40
1
 40
1
 10
134.629200
 20
28.480909
 30
0.0
 10
134.031167
 20
28.198978
 30
0.0
 10
133.364783
 20
28.058013
 30
0.0
 10
132.630050
 20
28.058013
 30
0.0
  0
SPLINE
  5
241
100
AcDbEntity
  8
0
 62
7
100
AcDbSpline
 70
8
 71
3
 72
8
 73
4
 74
0
 40
0
 40
0
 40
0
 40
0
 40
1
 40
1
 40
1
 40
1
 10
132.630050
 20
28.058013
 30
0.0
 10
132.023477
 20
28.058013
 30
0.0
 10
131.463887
 20
28.139175
 30
0.0
 10
130.951280
 20
28.301499
 30
0.0
  0
SPLINE
  5
242
100
AcDbEntity
  8
0
 62
7
100
AcDbSpline
 70
8
 71
3
 72
8
 73
4
 74
0
 40
0
 40
0
 40
0
 40
0
 40
1
 40
1
 40
1
 40
1
 10
130.951280
 20
28.301499
 30
0.0
 10
130.447227
 20
28.455279
 30
0.0
 10
130.007243
 20
28.685950
 30
0.0
 10
129.631330
 20
28.993511
 30
0.0
  0
SPLINE
  5
243
100
AcDbEntity
  8
0
 62
7
100
AcDbSpline
 70
8
 71
3
 72
8
 73
4
 74
0
 40
0
 40
0
 40
0
 40
0
 40
1
 40
1
 40
1
 40
1
 10
129.631330
 20
28.993511
 30
0.0
 10
129.263970
 20
29.309615
 30
0.0
 10
128.977770
 20
29.698338
 30
0.0
 10
128.772730
 20
30.159679
 30
0.0
  0
SPLINE
  5
244
100
AcDbEntity
  8
0
 62
7
100
AcDbSpline
 70
8
 71
3
 72
8
 73
4
 74
0
 40
0
 40
0
 40
0
 40
0
 40
1
 40
1
 40
1
 40
1
 10
128.772730
 20
30.159679
 30
0.0
 10
128.567690
 20
30.621020
 30
0.0
 10
128.465170
 20
31.159252
 30
0.0
 10
128.465170
 20
31.774374
 30
0.0
  0
SPLINE
  5
245
100
AcDbEntity
  8
0
 62
7
100
AcDbSpline
 70
8
 71
3
 72
8
 73
4
 74
0
 40
0
 40
0
 40
0
 40
0
 40
1
 40
1
 40
1
 40
1
 10
128.465170
 20
31.774374
 30
0.0
 10
128.465170
 20
32.440756
 30
0.0
 10
128.593320
 20
33.017433
 30
0.0
 10
128.849620
 20
33.504404
 30
0.0
  0
SPLINE
  5
246
100
AcDbEntity
  8
0
 62
7
100
AcDbSpline
 70
8
 71
3
 72
8
 73
4
 74
0
 40
0
 40
0
 40
0
 40
0
 40
1
 40
1
 40
1
 40
1
 10
128.849620
 20
33.504404
 30
0.0
 10
129.114460
 20
33.999919
 30
0.0
 10
129.503183
 20
34.405729
 30
0.0
 10
130.015790
 20
34.721833
 30
0.0
  0
SPLINE
  5
247
100
AcDbEntity
  8
0
 62
7
100
AcDbSpline
 70
8
 71
3
 72
8
 73
4
 74
0
 40
0
 40
0
 40
0
 40
0
 40
1
 40
1
 40
1
 40
1
 10
130.015790
 20
34.721833
 30
0.0
 10
130.536930
 20
35.046480
 30
0.0
 10
131.181953
 20
35.285694
 30
0.0
 10
131.950860
 20
35.439475
 30
0.0
  0
SPLINE
  5
248
100
AcDbEntity
  8
0
 62
7
100
AcDbSpline
 70
8
 71
3
 72
8
 73
4
 74
0
 40
0
 40
0
 40
0
 40
0
 40
1
 40
1
 40
1
 40
1
 10
131.950860
 20
35.439475
 30
0.0
 10
132.719760
 20
35.593256
 30
0.0
 10
133.612540
 20
35.670146
 30
0.0
 10
134.629200
 20
35.670146
 30
0.0
  0
LWPOLYLINE
  5
249
100
AcDbEntity
  8
0
 62
7
100
AcDbPolyline
 90
2
 70
0
 10
136.243890
 20
28.750025
 30
0.0
 10
136.243890
 20
29.659893
 30
0.0
  0
SPLINE
  5
24a
100
AcDbEntity
  8
0
 62
7
100
AcDbSpline
 70
8
 71
3
 72
8
 73
4
 74
0
 40
0
 40
0
 40
0
 40
0
 40
1
 40
1
 40
1
 40
1
 10
135.744110
 20
36.362158
 30
0.0
 10
135.744110
 20
36.720979
 30
0.0
 10
135.705663
 20
37.032812
 30
0.0
 10
135.628770
 20
37.297656
 30
0.0
  0
SPLINE
  5
24b
100
AcDbEntity
  8
0
 62
7
100
AcDbSpline
 70
8
 71
3
 72
8
 73
4
 74
0
 40
0
 40
0
 40
0
 40
0
 40
1
 40
1
 40
1
 40
1
 10
135.628770
 20
37.297656
 30
0.0
 10
135.560423
 20
37.571043
 30
0.0
 10
135.440817
 20
37.797442
 30
0.0
 10
135.269950
 20
37.976853
 30
0.0
  0
SPLINE
  5
24c
100
AcDbEntity
  8
0
 62
7
100
AcDbSpline
 70
8
 71
3
 72
8
 73
4
 74
0
 40
0
 40
0
 40
0
 40
0
 40
1
 40
1
 40
1
 40
1
 10
135.269950
 20
37.976853
 30
0.0
 10
135.107630
 20
38.156264
 30
0.0
 10
134.885503
 20
38.288686
 30
0.0
 10
134.603570
 20
38.374119
 30
0.0
  0
SPLINE
  5
24d
100
AcDbEntity
  8
0
 62
7
100
AcDbSpline
 70
8
 71
3
 72
8
 73
4
 74
0
 40
0
 40
0
 40
0
 40
0
 40
1
 40
1
 40
1
 40
1
 10
134.603570
 20
38.374119
 30
0.0
 10
134.330183
 20
38.459552
 30
0.0
 10
133.988450
 20
38.502269
 30
0.0
 10
133.578370
 20
38.502269
 30
0.0
  0
SPLINE
  5
24e
100
AcDbEntity
  8
0
 62
7
100
AcDbSpline
 70
8
 71
3
 72
8
 73
4
 74
0
 40
0
 40
0
 40
0
 40
0
 40
1
 40
1
 40
1
 40
1
 10
133.578370
 20
38.502269
 30
0.0
 10
133.040137
 20
38.502269
 30
0.0
 10
132.557437
 20
38.442466
 30
0.0
 10
132.130270
 20
38.322859
 30
0.0
  0
SPLINE
  5
24f
100
AcDbEntity
  8
0
 62
7
100
AcDbSpline
 70
8
 71
3
 72
8
 73
4
 74
0
 40
0
 40
0
 40
0
 40
0
 40
1
 40
1
 40
1
 40
1
 10
132.130270
 20
38.322859
 30
0.0
 10
131.711643
 20
38.203252
 30
0.0
 10
131.340007
 20
38.070830
 30
0.0
 10
131.015360
 20
37.925593
 30
0.0
  0
SPLINE
  5
250
100
AcDbEntity
  8
0
 62
7
100
AcDbSpline
 70
8
 71
3
 72
8
 73
4
 74
0
 40
0
 40
0
 40
0
 40
0
 40
1
 40
1
 40
1
 40
1
 10
131.015360
 20
37.925593
 30
0.0
 10
130.690713
 20
37.780356
 30
0.0
 10
130.417327
 20
37.647933
 30
0.0
 10
130.195200
 20
37.528326
 30
0.0
  0
SPLINE
  5
251
100
AcDbEntity
  8
0
 62
7
100
AcDbSpline
 70
8
 71
3
 72
8
 73
4
 74
0
 40
0
 40
0
 40
0
 40
0
 40
1
 40
1
 40
1
 40
1
 10
130.195200
 20
37.528326
 30
0.0
 10
129.981613
 20
37.408719
 30
0.0
 10
129.806473
 20
37.348916
 30
0.0
 10
129.669780
 20
37.348916
 30
0.0
  0
SPLINE
  5
252
100
AcDbEntity
  8
0
 62
7
100
AcDbSpline
 70
8
 71
3
 72
8
 73
4
 74
0
 40
0
 40
0
 40
0
 40
0
 40
1
 40
1
 40
1
 40
1
 10
129.669780
 20
37.348916
 30
0.0
 10
129.575800
 20
37.348916
 30
0.0
 10
129.490367
 20
37.378816
 30
0.0
 10
129.413480
 20
37.438616
 30
0.0
  0
SPLINE
  5
253
100
AcDbEntity
  8
0
 62
7
100
AcDbSpline
 70
8
 71
3
 72
8
 73
4
 74
0
 40
0
 40
0
 40
0
 40
0
 40
1
 40
1
 40
1
 40
1
 10
129.413480
 20
37.438616
 30
0.0
 10
129.345133
 20
37.498423
 30
0.0
 10
129.285330
 20
37.583856
 30
0.0
 10
129.234070
 20
37.694917
 30
0.0
  0
SPLINE
  5
254
100
AcDbEntity
  8
0
 62
7
100
AcDbSpline
 70
8
 71
3
 72
8
 73
4
 74
0
 40
0
 40
0
 40
0
 40
0
 40
1
 40
1
 40
1
 40
1
 10
129.234070
 20
37.694917
 30
0.0
 10
129.191337
 20
37.805980
 30
0.0
 10
129.157163
 20
37.942674
 30
0.0
 10
129.131550
 20
38.104998
 30
0.0
  0
SPLINE
  5
255
100
AcDbEntity
  8
0
 62
7
100
AcDbSpline
 70
8
 71
3
 72
8
 73
4
 74
0
 40
0
 40
0
 40
0
 40
0
 40
1
 40
1
 40
1
 40
1
 10
129.131550
 20
38.104998
 30
0.0
 10
129.105883
 20
38.267322
 30
0.0
 10
129.093050
 20
38.446733
 30
0.0
 10
129.093050
 20
38.643230
 30
0.0
  0
SPLINE
  5
256
100
AcDbEntity
  8
0
 62
7
100
AcDbSpline
 70
8
 71
3
 72
8
 73
4
 74
0
 40
0
 40
0
 40
0
 40
0
 40
1
 40
1
 40
1
 40
1
 10
129.093050
 20
38.643230
 30
0.0
 10
129.093050
 20
38.908074
 30
0.0
 10
129.114417
 20
39.117386
 30
0.0
 10
129.157150
 20
39.271167
 30
0.0
  0
SPLINE
  5
257
100
AcDbEntity
  8
0
 62
7
100
AcDbSpline
 70
8
 71
3
 72
8
 73
4
 74
0
 40
0
 40
0
 40
0
 40
0
 40
1
 40
1
 40
1
 40
1
 10
129.157150
 20
39.271167
 30
0.0
 10
129.199883
 20
39.424947
 30
0.0
 10
129.281043
 20
39.561641
 30
0.0
 10
129.400630
 20
39.681248
 30
0.0
  0
SPLINE
  5
258
100
AcDbEntity
  8
0
 62
7
100
AcDbSpline
 70
8
 71
3
 72
8
 73
4
 74
0
 40
0
 40
0
 40
0
 40
0
 40
1
 40
1
 40
1
 40
1
 10
129.400630
 20
39.681248
 30
0.0
 10
129.520237
 20
39.809399
 30
0.0
 10
129.729550
 20
39.946092
 30
0.0
 10
130.028570
 20
40.091329
 30
0.0
  0
SPLINE
  5
259
100
AcDbEntity
  8
0
 62
7
100
AcDbSpline
 70
8
 71
3
 72
8
 73
4
 74
0
 40
0
 40
0
 40
0
 40
0
 40
1
 40
1
 40
1
 40
1
 10
130.028570
 20
40.091329
 30
0.0
 10
130.327590
 20
40.245110
 30
0.0
 10
130.677867
 20
40.386075
 30
0.0
 10
131.079400
 20
40.514225
 30
0.0
  0
SPLINE
  5
25a
100
AcDbEntity
  8
0
 62
7
100
AcDbSpline
 70
8
 71
3
 72
8
 73
4
 74
0
 40
0
 40
0
 40
0
 40
0
 40
1
 40
1
 40
1
 40
1
 10
131.079400
 20
40.514225
 30
0.0
 10
131.480940
 20
40.642376
 30
0.0
 10
131.916653
 20
40.744896
 30
0.0
 10
132.386540
 20
40.821786
 30
0.0
  0
SPLINE
  5
25b
100
AcDbEntity
  8
0
 62
7
100
AcDbSpline
 70
8
 71
3
 72
8
 73
4
 74
0
 40
0
 40
0
 40
0
 40
0
 40
1
 40
1
 40
1
 40
1
 10
132.386540
 20
40.821786
 30
0.0
 10
132.864967
 20
40.907220
 30
0.0
 10
133.356210
 20
40.949937
 30
0.0
 10
133.860270
 20
40.949937
 30
0.0
  0
SPLINE
  5
25c
100
AcDbEntity
  8
0
 62
7
100
AcDbSpline
 70
8
 71
3
 72
8
 73
4
 74
0
 40
0
 40
0
 40
0
 40
0
 40
1
 40
1
 40
1
 40
1
 10
133.860270
 20
40.949937
 30
0.0
 10
134.757323
 20
40.949937
 30
0.0
 10
135.521953
 20
40.860232
 30
0.0
 10
136.154160
 20
40.680821
 30
0.0
  0
SPLINE
  5
25d
100
AcDbEntity
  8
0
 62
7
100
AcDbSpline
 70
8
 71
3
 72
8
 73
4
 74
0
 40
0
 40
0
 40
0
 40
0
 40
1
 40
1
 40
1
 40
1
 10
136.154160
 20
40.680821
 30
0.0
 10
136.794913
 20
40.509954
 30
0.0
 10
137.320330
 20
40.240838
 30
0.0
 10
137.730410
 20
39.873474
 30
0.0
  0
SPLINE
  5
25e
100
AcDbEntity
  8
0
 62
7
100
AcDbSpline
 70
8
 71
3
 72
8
 73
4
 74
0
 40
0
 40
0
 40
0
 40
0
 40
1
 40
1
 40
1
 40
1
 10
137.730410
 20
39.873474
 30
0.0
 10
138.140490
 20
39.514653
 30
0.0
 10
138.439507
 20
39.049039
 30
0.0
 10
138.627460
 20
38.476634
 30
0.0
  0
SPLINE
  5
25f
100
AcDbEntity
  8
0
 62
7
100
AcDbSpline
 70
8
 71
3
 72
8
 73
4
 74
0
 40
0
 40
0
 40
0
 40
0
 40
1
 40
1
 40
1
 40
1
 10
138.627460
 20
38.476634
 30
0.0
 10
138.815413
 20
37.904229
 30
0.0
 10
138.909390
 20
37.225032
 30
0.0
 10
138.909390
 20
36.439043
 30
0.0
  0
LWPOLYLINE
  5
260
100
AcDbEntity
  8
0
 62
7
100
AcDbPolyline
 90
3
 70
0
 10
134.629200
 20
35.670146
 30
0.0
 10
135.744110
 20
35.670146
 30
0.0
 10
135.744110
 20
36.362158
 30
0.0
  0
LWPOLYLINE
  5
261
100
AcDbEntity
  8
0
 62
7
100
AcDbPolyline
 90
2
 70
0
 10
138.909390
 20
36.439043
 30
0.0
 10
138.909420
 20
28.750025
 30
0.0
  0
SPLINE
  5
262
100
AcDbEntity
  8
0
 62
7
100
AcDbSpline
 70
8
 71
3
 72
8
 73
4
 74
0
 40
0
 40
0
 40
0
 40
0
 40
1
 40
1
 40
1
 40
1
 10
134.513860
 20
33.645370
 30
0.0
 10
133.992720
 20
33.645370
 30
0.0
 10
133.548467
 20
33.606925
 30
0.0
 10
133.181100
 20
33.530034
 30
0.0
  0
SPLINE
  5
263
100
AcDbEntity
  8
0
 62
7
100
AcDbSpline
 70
8
 71
3
 72
8
 73
4
 74
0
 40
0
 40
0
 40
0
 40
0
 40
1
 40
1
 40
1
 40
1
 10
133.181100
 20
33.530034
 30
0.0
 10
132.813733
 20
33.453144
 30
0.0
 10
132.514717
 20
33.337809
 30
0.0
 10
132.284050
 20
33.184028
 30
0.0
  0
SPLINE
  5
264
100
AcDbEntity
  8
0
 62
7
100
AcDbSpline
 70
8
 71
3
 72
8
 73
4
 74
0
 40
0
 40
0
 40
0
 40
0
 40
1
 40
1
 40
1
 40
1
 10
132.284050
 20
33.184028
 30
0.0
 10
132.053377
 20
33.030248
 30
0.0
 10
131.882510
 20
32.842294
 30
0.0
 10
131.771450
 20
32.620167
 30
0.0
  0
SPLINE
  5
265
100
AcDbEntity
  8
0
 62
7
100
AcDbSpline
 70
8
 71
3
 72
8
 73
4
 74
0
 40
0
 40
0
 40
0
 40
0
 40
1
 40
1
 40
1
 40
1
 10
131.771450
 20
32.620167
 30
0.0
 10
131.668930
 20
32.406583
 30
0.0
 10
131.617670
 20
32.158825
 30
0.0
 10
131.617670
 20
31.876894
 30
0.0
  0
SPLINE
  5
266
100
AcDbEntity
  8
0
 62
7
100
AcDbSpline
 70
8
 71
3
 72
8
 73
4
 74
0
 40
0
 40
0
 40
0
 40
0
 40
1
 40
1
 40
1
 40
1
 10
131.617670
 20
31.876894
 30
0.0
 10
131.617670
 20
31.398466
 30
0.0
 10
131.767177
 20
31.022558
 30
0.0
 10
132.066190
 20
30.749171
 30
0.0
  0
SPLINE
  5
267
100
AcDbEntity
  8
0
 62
7
100
AcDbSpline
 70
8
 71
3
 72
8
 73
4
 74
0
 40
0
 40
0
 40
0
 40
0
 40
1
 40
1
 40
1
 40
1
 10
132.066190
 20
30.749171
 30
0.0
 10
132.373750
 20
30.475784
 30
0.0
 10
132.796647
 20
30.339090
 30
0.0
 10
133.334880
 20
30.339090
 30
0.0
  0
SPLINE
  5
268
100
AcDbEntity
  8
0
 62
7
100
AcDbSpline
 70
8
 71
3
 72
8
 73
4
 74
0
 40
0
 40
0
 40
0
 40
0
 40
1
 40
1
 40
1
 40
1
 10
133.334880
 20
30.339090
 30
0.0
 10
133.787680
 20
30.339090
 30
0.0
 10
134.202033
 20
30.454425
 30
0.0
 10
134.577940
 20
30.685096
 30
0.0
  0
SPLINE
  5
269
100
AcDbEntity
  8
0
 62
7
100
AcDbSpline
 70
8
 71
3
 72
8
 73
4
 74
0
 40
0
 40
0
 40
0
 40
0
 40
1
 40
1
 40
1
 40
1
 10
134.577940
 20
30.685096
 30
0.0
 10
134.962393
 20
30.915767
 30
0.0
 10
135.351117
 20
31.253229
 30
0.0
 10
135.744110
 20
31.697484
 30
0.0
  0
LWPOLYLINE
  5
26a
100
AcDbEntity
  8
0
 62
7
100
AcDbPolyline
 90
2
 70
0
 10
135.744110
 20
33.645370
 30
0.0
 10
134.513860
 20
33.645370
 30
0.0
  0
SPLINE
  5
26b
100
AcDbEntity
  8
0
 62
7
100
AcDbSpline
 70
8
 71
3
 72
8
 73
4
 74
0
 40
0
 40
0
 40
0
 40
0
 40
1
 40
1
 40
1
 40
1
 10
149.469010
 20
39.155836
 30
0.0
 10
149.469010
 20
38.848275
 30
0.0
 10
149.460477
 20
38.596246
 30
0.0
 10
149.443410
 20
38.399749
 30
0.0
  0
SPLINE
  5
26c
100
AcDbEntity
  8
0
 62
7
100
AcDbSpline
 70
8
 71
3
 72
8
 73
4
 74
0
 40
0
 40
0
 40
0
 40
0
 40
1
 40
1
 40
1
 40
1
 10
149.443410
 20
38.399749
 30
0.0
 10
149.426343
 20
38.203252
 30
0.0
 10
149.400710
 20
38.049471
 30
0.0
 10
149.366510
 20
37.938408
 30
0.0
  0
SPLINE
  5
26d
100
AcDbEntity
  8
0
 62
7
100
AcDbSpline
 70
8
 71
3
 72
8
 73
4
 74
0
 40
0
 40
0
 40
0
 40
0
 40
1
 40
1
 40
1
 40
1
 10
149.366510
 20
37.938408
 30
0.0
 10
149.332310
 20
37.827344
 30
0.0
 10
149.285323
 20
37.750454
 30
0.0
 10
149.225550
 20
37.707737
 30
0.0
  0
SPLINE
  5
26e
100
AcDbEntity
  8
0
 62
7
100
AcDbSpline
 70
8
 71
3
 72
8
 73
4
 74
0
 40
0
 40
0
 40
0
 40
0
 40
1
 40
1
 40
1
 40
1
 10
149.225550
 20
37.707737
 30
0.0
 10
149.174283
 20
37.665017
 30
0.0
 10
149.105937
 20
37.643657
 30
0.0
 10
149.020510
 20
37.643657
 30
0.0
  0
SPLINE
  5
26f
100
AcDbEntity
  8
0
 62
7
100
AcDbSpline
 70
8
 71
3
 72
8
 73
4
 74
0
 40
0
 40
0
 40
0
 40
0
 40
1
 40
1
 40
1
 40
1
 10
149.020510
 20
37.643657
 30
0.0
 10
148.952163
 20
37.643657
 30
0.0
 10
148.875273
 20
37.656474
 30
0.0
 10
148.789840
 20
37.682107
 30
0.0
  0
SPLINE
  5
270
100
AcDbEntity
  8
0
 62
7
100
AcDbSpline
 70
8
 71
3
 72
8
 73
4
 74
0
 40
0
 40
0
 40
0
 40
0
 40
1
 40
1
 40
1
 40
1
 10
148.789840
 20
37.682107
 30
0.0
 10
148.704407
 20
37.716280
 30
0.0
 10
148.606157
 20
37.750454
 30
0.0
 10
148.495090
 20
37.784627
 30
0.0
  0
SPLINE
  5
271
100
AcDbEntity
  8
0
 62
7
100
AcDbSpline
 70
8
 71
3
 72
8
 73
4
 74
0
 40
0
 40
0
 40
0
 40
0
 40
1
 40
1
 40
1
 40
1
 10
148.495090
 20
37.784627
 30
0.0
 10
148.392570
 20
37.818800
 30
0.0
 10
148.277237
 20
37.848704
 30
0.0
 10
148.149090
 20
37.874337
 30
0.0
  0
SPLINE
  5
272
100
AcDbEntity
  8
0
 62
7
100
AcDbSpline
 70
8
 71
3
 72
8
 73
4
 74
0
 40
0
 40
0
 40
0
 40
0
 40
1
 40
1
 40
1
 40
1
 10
148.149090
 20
37.874337
 30
0.0
 10
148.020937
 20
37.908510
 30
0.0
 10
147.879970
 20
37.925597
 30
0.0
 10
147.726190
 20
37.925597
 30
0.0
  0
SPLINE
  5
273
100
AcDbEntity
  8
0
 62
7
100
AcDbSpline
 70
8
 71
3
 72
8
 73
4
 74
0
 40
0
 40
0
 40
0
 40
0
 40
1
 40
1
 40
1
 40
1
 10
147.726190
 20
37.925597
 30
0.0
 10
147.546777
 20
37.925597
 30
0.0
 10
147.367367
 20
37.887152
 30
0.0
 10
147.187960
 20
37.810261
 30
0.0
  0
SPLINE
  5
274
100
AcDbEntity
  8
0
 62
7
100
AcDbSpline
 70
8
 71
3
 72
8
 73
4
 74
0
 40
0
 40
0
 40
0
 40
0
 40
1
 40
1
 40
1
 40
1
 10
147.187960
 20
37.810261
 30
0.0
 10
147.008547
 20
37.741914
 30
0.0
 10
146.820593
 20
37.630851
 30
0.0
 10
146.624100
 20
37.477070
 30
0.0
  0
SPLINE
  5
275
100
AcDbEntity
  8
0
 62
7
100
AcDbSpline
 70
8
 71
3
 72
8
 73
4
 74
0
 40
0
 40
0
 40
0
 40
0
 40
1
 40
1
 40
1
 40
1
 10
146.624100
 20
37.477070
 30
0.0
 10
146.436147
 20
37.323290
 30
0.0
 10
146.235377
 20
37.118249
 30
0.0
 10
146.021790
 20
36.861948
 30
0.0
  0
SPLINE
  5
276
100
AcDbEntity
  8
0
 62
7
100
AcDbSpline
 70
8
 71
3
 72
8
 73
4
 74
0
 40
0
 40
0
 40
0
 40
0
 40
1
 40
1
 40
1
 40
1
 10
146.021790
 20
36.861948
 30
0.0
 10
145.816750
 20
36.605647
 30
0.0
 10
145.594623
 20
36.289543
 30
0.0
 10
145.355410
 20
35.913636
 30
0.0
  0
LWPOLYLINE
  5
277
100
AcDbEntity
  8
0
 62
7
100
AcDbPolyline
 90
2
 70
0
 10
135.744110
 20
31.697484
 30
0.0
 10
135.744110
 20
33.645370
 30
0.0
  0
SPLINE
  5
278
100
AcDbEntity
  8
0
 62
7
100
AcDbSpline
 70
8
 71
3
 72
8
 73
4
 74
0
 40
0
 40
0
 40
0
 40
0
 40
1
 40
1
 40
1
 40
1
 10
145.355410
 20
28.788474
 30
0.0
 10
145.355410
 20
28.703041
 30
0.0
 10
145.329777
 20
28.626150
 30
0.0
 10
145.278510
 20
28.557803
 30
0.0
  0
SPLINE
  5
279
100
AcDbEntity
  8
0
 62
7
100
AcDbSpline
 70
8
 71
3
 72
8
 73
4
 74
0
 40
0
 40
0
 40
0
 40
0
 40
1
 40
1
 40
1
 40
1
 10
145.278510
 20
28.557803
 30
0.0
 10
145.227243
 20
28.497996
 30
0.0
 10
145.137537
 20
28.446736
 30
0.0
 10
145.009390
 20
28.404023
 30
0.0
  0
SPLINE
  5
27a
100
AcDbEntity
  8
0
 62
7
100
AcDbSpline
 70
8
 71
3
 72
8
 73
4
 74
0
 40
0
 40
0
 40
0
 40
0
 40
1
 40
1
 40
1
 40
1
 10
145.009390
 20
28.404023
 30
0.0
 10
144.889783
 20
28.361303
 30
0.0
 10
144.727460
 20
28.331400
 30
0.0
 10
144.522420
 20
28.314313
 30
0.0
  0
SPLINE
  5
27b
100
AcDbEntity
  8
0
 62
7
100
AcDbSpline
 70
8
 71
3
 72
8
 73
4
 74
0
 40
0
 40
0
 40
0
 40
0
 40
1
 40
1
 40
1
 40
1
 10
144.522420
 20
28.314313
 30
0.0
 10
144.317380
 20
28.288686
 30
0.0
 10
144.056807
 20
28.275873
 30
0.0
 10
143.740700
 20
28.275873
 30
0.0
  0
SPLINE
  5
27c
100
AcDbEntity
  8
0
 62
7
100
AcDbSpline
 70
8
 71
3
 72
8
 73
4
 74
0
 40
0
 40
0
 40
0
 40
0
 40
1
 40
1
 40
1
 40
1
 10
143.740700
 20
28.275873
 30
0.0
 10
143.424600
 20
28.275873
 30
0.0
 10
143.164030
 20
28.288686
 30
0.0
 10
142.958990
 20
28.314313
 30
0.0
  0
SPLINE
  5
27d
100
AcDbEntity
  8
0
 62
7
100
AcDbSpline
 70
8
 71
3
 72
8
 73
4
 74
0
 40
0
 40
0
 40
0
 40
0
 40
1
 40
1
 40
1
 40
1
 10
142.958990
 20
28.314313
 30
0.0
 10
142.753943
 20
28.331400
 30
0.0
 10
142.587347
 20
28.361303
 30
0.0
 10
142.459200
 20
28.404023
 30
0.0
  0
SPLINE
  5
27e
100
AcDbEntity
  8
0
 62
7
100
AcDbSpline
 70
8
 71
3
 72
8
 73
4
 74
0
 40
0
 40
0
 40
0
 40
0
 40
1
 40
1
 40
1
 40
1
 10
142.459200
 20
28.404023
 30
0.0
 10
142.339593
 20
28.446736
 30
0.0
 10
142.254160
 20
28.497996
 30
0.0
 10
142.202900
 20
28.557803
 30
0.0
  0
SPLINE
  5
27f
100
AcDbEntity
  8
0
 62
7
100
AcDbSpline
 70
8
 71
3
 72
8
 73
4
 74
0
 40
0
 40
0
 40
0
 40
0
 40
1
 40
1
 40
1
 40
1
 10
142.202900
 20
28.557803
 30
0.0
 10
142.151633
 20
28.626148
 30
0.0
 10
142.126000
 20
28.703037
 30
0.0
 10
142.126000
 20
28.788470
 30
0.0
  0
LWPOLYLINE
  5
280
100
AcDbEntity
  8
0
 62
7
100
AcDbPolyline
 90
2
 70
0
 10
145.355410
 20
35.913636
 30
0.0
 10
145.355410
 20
28.788474
 30
0.0
  0
SPLINE
  5
281
100
AcDbEntity
  8
0
 62
7
100
AcDbSpline
 70
8
 71
3
 72
8
 73
4
 74
0
 40
0
 40
0
 40
0
 40
0
 40
1
 40
1
 40
1
 40
1
 10
142.126000
 20
40.219485
 30
0.0
 10
142.126000
 20
40.304918
 30
0.0
 10
142.147367
 20
40.377537
 30
0.0
 10
142.190100
 20
40.437340
 30
0.0
  0
SPLINE
  5
282
100
AcDbEntity
  8
0
 62
7
100
AcDbSpline
 70
8
 71
3
 72
8
 73
4
 74
0
 40
0
 40
0
 40
0
 40
0
 40
1
 40
1
 40
1
 40
1
 10
142.190100
 20
40.437340
 30
0.0
 10
142.232833
 20
40.505687
 30
0.0
 10
142.309723
 20
40.561219
 30
0.0
 10
142.420770
 20
40.603936
 30
0.0
  0
SPLINE
  5
283
100
AcDbEntity
  8
0
 62
7
100
AcDbSpline
 70
8
 71
3
 72
8
 73
4
 74
0
 40
0
 40
0
 40
0
 40
0
 40
1
 40
1
 40
1
 40
1
 10
142.420770
 20
40.603936
 30
0.0
 10
142.531837
 20
40.646656
 30
0.0
 10
142.672803
 20
40.676559
 30
0.0
 10
142.843670
 20
40.693646
 30
0.0
  0
SPLINE
  5
284
100
AcDbEntity
  8
0
 62
7
100
AcDbSpline
 70
8
 71
3
 72
8
 73
4
 74
0
 40
0
 40
0
 40
0
 40
0
 40
1
 40
1
 40
1
 40
1
 10
142.843670
 20
40.693646
 30
0.0
 10
143.023083
 20
40.719279
 30
0.0
 10
143.245210
 20
40.732096
 30
0.0
 10
143.510050
 20
40.732096
 30
0.0
  0
SPLINE
  5
285
100
AcDbEntity
  8
0
 62
7
100
AcDbSpline
 70
8
 71
3
 72
8
 73
4
 74
0
 40
0
 40
0
 40
0
 40
0
 40
1
 40
1
 40
1
 40
1
 10
143.510050
 20
40.732096
 30
0.0
 10
143.783437
 20
40.732096
 30
0.0
 10
144.009837
 20
40.719279
 30
0.0
 10
144.189250
 20
40.693646
 30
0.0
  0
SPLINE
  5
286
100
AcDbEntity
  8
0
 62
7
100
AcDbSpline
 70
8
 71
3
 72
8
 73
4
 74
0
 40
0
 40
0
 40
0
 40
0
 40
1
 40
1
 40
1
 40
1
 10
144.189250
 20
40.693646
 30
0.0
 10
144.368657
 20
40.676559
 30
0.0
 10
144.505350
 20
40.646656
 30
0.0
 10
144.599330
 20
40.603936
 30
0.0
  0
SPLINE
  5
287
100
AcDbEntity
  8
0
 62
7
100
AcDbSpline
 70
8
 71
3
 72
8
 73
4
 74
0
 40
0
 40
0
 40
0
 40
0
 40
1
 40
1
 40
1
 40
1
 10
144.599330
 20
40.603936
 30
0.0
 10
144.701850
 20
40.561223
 30
0.0
 10
144.774470
 20
40.505691
 30
0.0
 10
144.817190
 20
40.437340
 30
0.0
  0
SPLINE
  5
288
100
AcDbEntity
  8
0
 62
7
100
AcDbSpline
 70
8
 71
3
 72
8
 73
4
 74
0
 40
0
 40
0
 40
0
 40
0
 40
1
 40
1
 40
1
 40
1
 10
144.817190
 20
40.437340
 30
0.0
 10
144.859923
 20
40.377533
 30
0.0
 10
144.881290
 20
40.304915
 30
0.0
 10
144.881290
 20
40.219485
 30
0.0
  0
LWPOLYLINE
  5
289
100
AcDbEntity
  8
0
 62
7
100
AcDbPolyline
 90
2
 70
0
 10
142.126000
 20
28.788470
 30
0.0
 10
142.126000
 20
40.219485
 30
0.0
  0
SPLINE
  5
28a
100
AcDbEntity
  8
0
 62
7
100
AcDbSpline
 70
8
 71
3
 72
8
 73
4
 74
0
 40
0
 40
0
 40
0
 40
0
 40
1
 40
1
 40
1
 40
1
 10
144.881290
 20
38.797015
 30
0.0
 10
145.180310
 20
39.224183
 30
0.0
 10
145.462240
 20
39.574461
 30
0.0
 10
145.727080
 20
39.847848
 30
0.0
  0
SPLINE
  5
28b
100
AcDbEntity
  8
0
 62
7
100
AcDbSpline
 70
8
 71
3
 72
8
 73
4
 74
0
 40
0
 40
0
 40
0
 40
0
 40
1
 40
1
 40
1
 40
1
 10
145.727080
 20
39.847848
 30
0.0
 10
145.991927
 20
40.129779
 30
0.0
 10
146.243957
 20
40.351907
 30
0.0
 10
146.483170
 20
40.514230
 30
0.0
  0
SPLINE
  5
28c
100
AcDbEntity
  8
0
 62
7
100
AcDbSpline
 70
8
 71
3
 72
8
 73
4
 74
0
 40
0
 40
0
 40
0
 40
0
 40
1
 40
1
 40
1
 40
1
 10
146.483170
 20
40.514230
 30
0.0
 10
146.722383
 20
40.676554
 30
0.0
 10
146.961597
 20
40.787618
 30
0.0
 10
147.200810
 20
40.847421
 30
0.0
  0
SPLINE
  5
28d
100
AcDbEntity
  8
0
 62
7
100
AcDbSpline
 70
8
 71
3
 72
8
 73
4
 74
0
 40
0
 40
0
 40
0
 40
0
 40
1
 40
1
 40
1
 40
1
 10
147.200810
 20
40.847421
 30
0.0
 10
147.440023
 20
40.915768
 30
0.0
 10
147.679240
 20
40.949942
 30
0.0
 10
147.918460
 20
40.949942
 30
0.0
  0
SPLINE
  5
28e
100
AcDbEntity
  8
0
 62
7
100
AcDbSpline
 70
8
 71
3
 72
8
 73
4
 74
0
 40
0
 40
0
 40
0
 40
0
 40
1
 40
1
 40
1
 40
1
 10
147.918460
 20
40.949942
 30
0.0
 10
148.029520
 20
40.949942
 30
0.0
 10
148.149127
 20
40.941399
 30
0.0
 10
148.277280
 20
40.924312
 30
0.0
  0
SPLINE
  5
28f
100
AcDbEntity
  8
0
 62
7
100
AcDbSpline
 70
8
 71
3
 72
8
 73
4
 74
0
 40
0
 40
0
 40
0
 40
0
 40
1
 40
1
 40
1
 40
1
 10
148.277280
 20
40.924312
 30
0.0
 10
148.405427
 20
40.915765
 30
0.0
 10
148.537847
 20
40.894405
 30
0.0
 10
148.674540
 20
40.860232
 30
0.0
  0
SPLINE
  5
290
100
AcDbEntity
  8
0
 62
7
100
AcDbSpline
 70
8
 71
3
 72
8
 73
4
 74
0
 40
0
 40
0
 40
0
 40
0
 40
1
 40
1
 40
1
 40
1
 10
148.674540
 20
40.860232
 30
0.0
 10
148.811233
 20
40.834599
 30
0.0
 10
148.930840
 20
40.800425
 30
0.0
 10
149.033360
 20
40.757712
 30
0.0
  0
SPLINE
  5
291
100
AcDbEntity
  8
0
 62
7
100
AcDbSpline
 70
8
 71
3
 72
8
 73
4
 74
0
 40
0
 40
0
 40
0
 40
0
 40
1
 40
1
 40
1
 40
1
 10
149.033360
 20
40.757712
 30
0.0
 10
149.135880
 20
40.723539
 30
0.0
 10
149.208500
 20
40.685094
 30
0.0
 10
149.251220
 20
40.642377
 30
0.0
  0
SPLINE
  5
292
100
AcDbEntity
  8
0
 62
7
100
AcDbSpline
 70
8
 71
3
 72
8
 73
4
 74
0
 40
0
 40
0
 40
0
 40
0
 40
1
 40
1
 40
1
 40
1
 10
149.251220
 20
40.642377
 30
0.0
 10
149.302487
 20
40.599657
 30
0.0
 10
149.336660
 20
40.552668
 30
0.0
 10
149.353740
 20
40.501411
 30
0.0
  0
SPLINE
  5
293
100
AcDbEntity
  8
0
 62
7
100
AcDbSpline
 70
8
 71
3
 72
8
 73
4
 74
0
 40
0
 40
0
 40
0
 40
0
 40
1
 40
1
 40
1
 40
1
 10
149.353740
 20
40.501411
 30
0.0
 10
149.379340
 20
40.450151
 30
0.0
 10
149.400707
 20
40.377533
 30
0.0
 10
149.417840
 20
40.283556
 30
0.0
  0
SPLINE
  5
294
100
AcDbEntity
  8
0
 62
7
100
AcDbSpline
 70
8
 71
3
 72
8
 73
4
 74
0
 40
0
 40
0
 40
0
 40
0
 40
1
 40
1
 40
1
 40
1
 10
149.417840
 20
40.283556
 30
0.0
 10
149.434907
 20
40.198122
 30
0.0
 10
149.447707
 20
40.065700
 30
0.0
 10
149.456240
 20
39.886290
 30
0.0
  0
SPLINE
  5
295
100
AcDbEntity
  8
0
 62
7
100
AcDbSpline
 70
8
 71
3
 72
8
 73
4
 74
0
 40
0
 40
0
 40
0
 40
0
 40
1
 40
1
 40
1
 40
1
 10
149.456240
 20
39.886290
 30
0.0
 10
149.464773
 20
39.706879
 30
0.0
 10
149.469040
 20
39.463393
 30
0.0
 10
149.469040
 20
39.155832
 30
0.0
  0
LWPOLYLINE
  5
296
100
AcDbEntity
  8
0
 62
7
100
AcDbPolyline
 90
2
 70
0
 10
144.881290
 20
40.219485
 30
0.0
 10
144.881290
 20
38.797015
 30
0.0
  0
SPLINE
  5
297
100
AcDbEntity
  8
0
 62
7
100
AcDbSpline
 70
8
 71
3
 72
8
 73
4
 74
0
 40
0
 40
0
 40
0
 40
0
 40
1
 40
1
 40
1
 40
1
 10
161.976490
 20
28.788470
 30
0.0
 10
161.976490
 20
28.694493
 30
0.0
 10
161.955123
 20
28.613331
 30
0.0
 10
161.912390
 20
28.544984
 30
0.0
  0
SPLINE
  5
298
100
AcDbEntity
  8
0
 62
7
100
AcDbSpline
 70
8
 71
3
 72
8
 73
4
 74
0
 40
0
 40
0
 40
0
 40
0
 40
1
 40
1
 40
1
 40
1
 10
161.912390
 20
28.544984
 30
0.0
 10
161.869657
 20
28.485184
 30
0.0
 10
161.797037
 20
28.433924
 30
0.0
 10
161.694530
 20
28.391204
 30
0.0
  0
SPLINE
  5
299
100
AcDbEntity
  8
0
 62
7
100
AcDbSpline
 70
8
 71
3
 72
8
 73
4
 74
0
 40
0
 40
0
 40
0
 40
0
 40
1
 40
1
 40
1
 40
1
 10
161.694530
 20
28.391204
 30
0.0
 10
161.592010
 20
28.348484
 30
0.0
 10
161.451047
 20
28.318584
 30
0.0
 10
161.271640
 20
28.301504
 30
0.0
  0
SPLINE
  5
29a
100
AcDbEntity
  8
0
 62
7
100
AcDbSpline
 70
8
 71
3
 72
8
 73
4
 74
0
 40
0
 40
0
 40
0
 40
0
 40
1
 40
1
 40
1
 40
1
 10
161.271640
 20
28.301504
 30
0.0
 10
161.100767
 20
28.284417
 30
0.0
 10
160.887180
 20
28.275874
 30
0.0
 10
160.630880
 20
28.275874
 30
0.0
  0
SPLINE
  5
29b
100
AcDbEntity
  8
0
 62
7
100
AcDbSpline
 70
8
 71
3
 72
8
 73
4
 74
0
 40
0
 40
0
 40
0
 40
0
 40
1
 40
1
 40
1
 40
1
 10
160.630880
 20
28.275874
 30
0.0
 10
160.357493
 20
28.275874
 30
0.0
 10
160.135367
 20
28.284417
 30
0.0
 10
159.964500
 20
28.301504
 30
0.0
  0
SPLINE
  5
29c
100
AcDbEntity
  8
0
 62
7
100
AcDbSpline
 70
8
 71
3
 72
8
 73
4
 74
0
 40
0
 40
0
 40
0
 40
0
 40
1
 40
1
 40
1
 40
1
 10
159.964500
 20
28.301504
 30
0.0
 10
159.793633
 20
28.318591
 30
0.0
 10
159.652670
 20
28.348491
 30
0.0
 10
159.541610
 20
28.391204
 30
0.0
  0
SPLINE
  5
29d
100
AcDbEntity
  8
0
 62
7
100
AcDbSpline
 70
8
 71
3
 72
8
 73
4
 74
0
 40
0
 40
0
 40
0
 40
0
 40
1
 40
1
 40
1
 40
1
 10
159.541610
 20
28.391204
 30
0.0
 10
159.439083
 20
28.433924
 30
0.0
 10
159.362190
 20
28.485184
 30
0.0
 10
159.310930
 20
28.544984
 30
0.0
  0
SPLINE
  5
29e
100
AcDbEntity
  8
0
 62
7
100
AcDbSpline
 70
8
 71
3
 72
8
 73
4
 74
0
 40
0
 40
0
 40
0
 40
0
 40
1
 40
1
 40
1
 40
1
 10
159.310930
 20
28.544984
 30
0.0
 10
159.268197
 20
28.613331
 30
0.0
 10
159.246830
 20
28.694493
 30
0.0
 10
159.246830
 20
28.788470
 30
0.0
  0
LWPOLYLINE
  5
29f
100
AcDbEntity
  8
0
 62
7
100
AcDbPolyline
 90
1
 70
1
 10
149.469040
 20
39.155832
 30
0.0
  0
SPLINE
  5
2a0
100
AcDbEntity
  8
0
 62
7
100
AcDbSpline
 70
8
 71
3
 72
8
 73
4
 74
0
 40
0
 40
0
 40
0
 40
0
 40
1
 40
1
 40
1
 40
1
 10
159.246830
 20
30.057159
 30
0.0
 10
158.657337
 20
29.424950
 30
0.0
 10
158.037943
 20
28.933707
 30
0.0
 10
157.388650
 20
28.583429
 30
0.0
  0
SPLINE
  5
2a1
100
AcDbEntity
  8
0
 62
7
100
AcDbSpline
 70
8
 71
3
 72
8
 73
4
 74
0
 40
0
 40
0
 40
0
 40
0
 40
1
 40
1
 40
1
 40
1
 10
157.388650
 20
28.583429
 30
0.0
 10
156.747897
 20
28.233152
 30
0.0
 10
156.034527
 20
28.058013
 30
0.0
 10
155.248540
 20
28.058013
 30
0.0
  0
SPLINE
  5
2a2
100
AcDbEntity
  8
0
 62
7
100
AcDbSpline
 70
8
 71
3
 72
8
 73
4
 74
0
 40
0
 40
0
 40
0
 40
0
 40
1
 40
1
 40
1
 40
1
 10
155.248540
 20
28.058013
 30
0.0
 10
154.377113
 20
28.058013
 30
0.0
 10
153.638113
 20
28.224608
 30
0.0
 10
153.031540
 20
28.557799
 30
0.0
  0
SPLINE
  5
2a3
100
AcDbEntity
  8
0
 62
7
100
AcDbSpline
 70
8
 71
3
 72
8
 73
4
 74
0
 40
0
 40
0
 40
0
 40
0
 40
1
 40
1
 40
1
 40
1
 10
153.031540
 20
28.557799
 30
0.0
 10
152.433500
 20
28.899534
 30
0.0
 10
151.942257
 20
29.356603
 30
0.0
 10
151.557810
 20
29.929008
 30
0.0
  0
SPLINE
  5
2a4
100
AcDbEntity
  8
0
 62
7
100
AcDbSpline
 70
8
 71
3
 72
8
 73
4
 74
0
 40
0
 40
0
 40
0
 40
0
 40
1
 40
1
 40
1
 40
1
 10
151.557810
 20
29.929008
 30
0.0
 10
151.181897
 20
30.501413
 30
0.0
 10
150.908507
 20
31.167796
 30
0.0
 10
150.737640
 20
31.928155
 30
0.0
  0
SPLINE
  5
2a5
100
AcDbEntity
  8
0
 62
7
100
AcDbSpline
 70
8
 71
3
 72
8
 73
4
 74
0
 40
0
 40
0
 40
0
 40
0
 40
1
 40
1
 40
1
 40
1
 10
150.737640
 20
31.928155
 30
0.0
 10
150.566773
 20
32.697057
 30
0.0
 10
150.481340
 20
33.504404
 30
0.0
 10
150.481340
 20
34.350197
 30
0.0
  0
SPLINE
  5
2a6
100
AcDbEntity
  8
0
 62
7
100
AcDbSpline
 70
8
 71
3
 72
8
 73
4
 74
0
 40
0
 40
0
 40
0
 40
0
 40
1
 40
1
 40
1
 40
1
 10
150.481340
 20
34.350197
 30
0.0
 10
150.481340
 20
35.366856
 30
0.0
 10
150.588133
 20
36.280996
 30
0.0
 10
150.801720
 20
37.092615
 30
0.0
  0
SPLINE
  5
2a7
100
AcDbEntity
  8
0
 62
7
100
AcDbSpline
 70
8
 71
3
 72
8
 73
4
 74
0
 40
0
 40
0
 40
0
 40
0
 40
1
 40
1
 40
1
 40
1
 10
150.801720
 20
37.092615
 30
0.0
 10
151.023847
 20
37.904234
 30
0.0
 10
151.344223
 20
38.596246
 30
0.0
 10
151.762850
 20
39.168651
 30
0.0
  0
SPLINE
  5
2a8
100
AcDbEntity
  8
0
 62
7
100
AcDbSpline
 70
8
 71
3
 72
8
 73
4
 74
0
 40
0
 40
0
 40
0
 40
0
 40
1
 40
1
 40
1
 40
1
 10
151.762850
 20
39.168651
 30
0.0
 10
152.181470
 20
39.741056
 30
0.0
 10
152.702613
 20
40.181039
 30
0.0
 10
153.326280
 20
40.488600
 30
0.0
  0
SPLINE
  5
2a9
100
AcDbEntity
  8
0
 62
7
100
AcDbSpline
 70
8
 71
3
 72
8
 73
4
 74
0
 40
0
 40
0
 40
0
 40
0
 40
1
 40
1
 40
1
 40
1
 10
153.326280
 20
40.488600
 30
0.0
 10
153.949947
 20
40.796161
 30
0.0
 10
154.667590
 20
40.949942
 30
0.0
 10
155.479210
 20
40.949942
 30
0.0
  0
SPLINE
  5
2aa
100
AcDbEntity
  8
0
 62
7
100
AcDbSpline
 70
8
 71
3
 72
8
 73
4
 74
0
 40
0
 40
0
 40
0
 40
0
 40
1
 40
1
 40
1
 40
1
 10
155.479210
 20
40.949942
 30
0.0
 10
156.119963
 20
40.949942
 30
0.0
 10
156.700910
 20
40.817520
 30
0.0
 10
157.222050
 20
40.552676
 30
0.0
  0
SPLINE
  5
2ab
100
AcDbEntity
  8
0
 62
7
100
AcDbSpline
 70
8
 71
3
 72
8
 73
4
 74
0
 40
0
 40
0
 40
0
 40
0
 40
1
 40
1
 40
1
 40
1
 10
157.222050
 20
40.552676
 30
0.0
 10
157.743197
 20
40.296375
 30
0.0
 10
158.260070
 20
39.916195
 30
0.0
 10
158.772670
 20
39.412137
 30
0.0
  0
LWPOLYLINE
  5
2ac
100
AcDbEntity
  8
0
 62
7
100
AcDbPolyline
 90
2
 70
0
 10
159.246830
 20
28.788470
 30
0.0
 10
159.246830
 20
30.057159
 30
0.0
  0
SPLINE
  5
2ad
100
AcDbEntity
  8
0
 62
7
100
AcDbSpline
 70
8
 71
3
 72
8
 73
4
 74
0
 40
0
 40
0
 40
0
 40
0
 40
1
 40
1
 40
1
 40
1
 10
158.772670
 20
45.601801
 30
0.0
 10
158.772670
 20
45.687234
 30
0.0
 10
158.794037
 20
45.764124
 30
0.0
 10
158.836770
 20
45.832471
 30
0.0
  0
SPLINE
  5
2ae
100
AcDbEntity
  8
0
 62
7
100
AcDbSpline
 70
8
 71
3
 72
8
 73
4
 74
0
 40
0
 40
0
 40
0
 40
0
 40
1
 40
1
 40
1
 40
1
 10
158.836770
 20
45.832471
 30
0.0
 10
158.888037
 20
45.900818
 30
0.0
 10
158.973470
 20
45.956350
 30
0.0
 10
159.093070
 20
45.999067
 30
0.0
  0
SPLINE
  5
2af
100
AcDbEntity
  8
0
 62
7
100
AcDbSpline
 70
8
 71
3
 72
8
 73
4
 74
0
 40
0
 40
0
 40
0
 40
0
 40
1
 40
1
 40
1
 40
1
 10
159.093070
 20
45.999067
 30
0.0
 10
159.221217
 20
46.050327
 30
0.0
 10
159.387813
 20
46.088772
 30
0.0
 10
159.592860
 20
46.114402
 30
0.0
  0
SPLINE
  5
2b0
100
AcDbEntity
  8
0
 62
7
100
AcDbSpline
 70
8
 71
3
 72
8
 73
4
 74
0
 40
0
 40
0
 40
0
 40
0
 40
1
 40
1
 40
1
 40
1
 10
159.592860
 20
46.114402
 30
0.0
 10
159.797900
 20
46.140035
 30
0.0
 10
160.058470
 20
46.152852
 30
0.0
 10
160.374570
 20
46.152852
 30
0.0
  0
SPLINE
  5
2b1
100
AcDbEntity
  8
0
 62
7
100
AcDbSpline
 70
8
 71
3
 72
8
 73
4
 74
0
 40
0
 40
0
 40
0
 40
0
 40
1
 40
1
 40
1
 40
1
 10
160.374570
 20
46.152852
 30
0.0
 10
160.690677
 20
46.152852
 30
0.0
 10
160.951250
 20
46.140035
 30
0.0
 10
161.156290
 20
46.114402
 30
0.0
  0
SPLINE
  5
2b2
100
AcDbEntity
  8
0
 62
7
100
AcDbSpline
 70
8
 71
3
 72
8
 73
4
 74
0
 40
0
 40
0
 40
0
 40
0
 40
1
 40
1
 40
1
 40
1
 10
161.156290
 20
46.114402
 30
0.0
 10
161.361330
 20
46.088775
 30
0.0
 10
161.523653
 20
46.050330
 30
0.0
 10
161.643260
 20
45.999067
 30
0.0
  0
SPLINE
  5
2b3
100
AcDbEntity
  8
0
 62
7
100
AcDbSpline
 70
8
 71
3
 72
8
 73
4
 74
0
 40
0
 40
0
 40
0
 40
0
 40
1
 40
1
 40
1
 40
1
 10
161.643260
 20
45.999067
 30
0.0
 10
161.762867
 20
45.956354
 30
0.0
 10
161.848300
 20
45.900822
 30
0.0
 10
161.899560
 20
45.832471
 30
0.0
  0
SPLINE
  5
2b4
100
AcDbEntity
  8
0
 62
7
100
AcDbSpline
 70
8
 71
3
 72
8
 73
4
 74
0
 40
0
 40
0
 40
0
 40
0
 40
1
 40
1
 40
1
 40
1
 10
161.899560
 20
45.832471
 30
0.0
 10
161.950827
 20
45.764124
 30
0.0
 10
161.976460
 20
45.687234
 30
0.0
 10
161.976460
 20
45.601801
 30
0.0
  0
LWPOLYLINE
  5
2b5
100
AcDbEntity
  8
0
 62
7
100
AcDbPolyline
 90
2
 70
0
 10
158.772670
 20
39.412137
 30
0.0
 10
158.772670
 20
45.601801
 30
0.0
  0
SPLINE
  5
2b6
100
AcDbEntity
  8
0
 62
7
100
AcDbSpline
 70
8
 71
3
 72
8
 73
4
 74
0
 40
0
 40
0
 40
0
 40
0
 40
1
 40
1
 40
1
 40
1
 10
158.772730
 20
36.426233
 30
0.0
 10
158.311390
 20
37.007182
 30
0.0
 10
157.867137
 20
37.451436
 30
0.0
 10
157.439970
 20
37.758997
 30
0.0
  0
SPLINE
  5
2b7
100
AcDbEntity
  8
0
 62
7
100
AcDbSpline
 70
8
 71
3
 72
8
 73
4
 74
0
 40
0
 40
0
 40
0
 40
0
 40
1
 40
1
 40
1
 40
1
 10
157.439970
 20
37.758997
 30
0.0
 10
157.021343
 20
38.066558
 30
0.0
 10
156.581360
 20
38.220339
 30
0.0
 10
156.120020
 20
38.220339
 30
0.0
  0
SPLINE
  5
2b8
100
AcDbEntity
  8
0
 62
7
100
AcDbSpline
 70
8
 71
3
 72
8
 73
4
 74
0
 40
0
 40
0
 40
0
 40
0
 40
1
 40
1
 40
1
 40
1
 10
156.120020
 20
38.220339
 30
0.0
 10
155.701393
 20
38.220339
 30
0.0
 10
155.338300
 20
38.113547
 30
0.0
 10
155.030740
 20
37.899963
 30
0.0
  0
SPLINE
  5
2b9
100
AcDbEntity
  8
0
 62
7
100
AcDbSpline
 70
8
 71
3
 72
8
 73
4
 74
0
 40
0
 40
0
 40
0
 40
0
 40
1
 40
1
 40
1
 40
1
 10
155.030740
 20
37.899963
 30
0.0
 10
154.731727
 20
37.694922
 30
0.0
 10
154.488240
 20
37.417263
 30
0.0
 10
154.300280
 20
37.066985
 30
0.0
  0
SPLINE
  5
2ba
100
AcDbEntity
  8
0
 62
7
100
AcDbSpline
 70
8
 71
3
 72
8
 73
4
 74
0
 40
0
 40
0
 40
0
 40
0
 40
1
 40
1
 40
1
 40
1
 10
154.300280
 20
37.066985
 30
0.0
 10
154.120873
 20
36.716707
 30
0.0
 10
153.984180
 20
36.323712
 30
0.0
 10
153.890200
 20
35.888001
 30
0.0
  0
SPLINE
  5
2bb
100
AcDbEntity
  8
0
 62
7
100
AcDbSpline
 70
8
 71
3
 72
8
 73
4
 74
0
 40
0
 40
0
 40
0
 40
0
 40
1
 40
1
 40
1
 40
1
 10
153.890200
 20
35.888001
 30
0.0
 10
153.804767
 20
35.460834
 30
0.0
 10
153.762050
 20
35.020851
 30
0.0
 10
153.762050
 20
34.568052
 30
0.0
  0
SPLINE
  5
2bc
100
AcDbEntity
  8
0
 62
7
100
AcDbSpline
 70
8
 71
3
 72
8
 73
4
 74
0
 40
0
 40
0
 40
0
 40
0
 40
1
 40
1
 40
1
 40
1
 10
153.762050
 20
34.568052
 30
0.0
 10
153.762050
 20
34.089624
 30
0.0
 10
153.800497
 20
33.624011
 30
0.0
 10
153.877390
 20
33.171213
 30
0.0
  0
SPLINE
  5
2bd
100
AcDbEntity
  8
0
 62
7
100
AcDbSpline
 70
8
 71
3
 72
8
 73
4
 74
0
 40
0
 40
0
 40
0
 40
0
 40
1
 40
1
 40
1
 40
1
 10
153.877390
 20
33.171213
 30
0.0
 10
153.954277
 20
32.718415
 30
0.0
 10
154.078153
 20
32.312606
 30
0.0
 10
154.249020
 20
31.953785
 30
0.0
  0
SPLINE
  5
2be
100
AcDbEntity
  8
0
 62
7
100
AcDbSpline
 70
8
 71
3
 72
8
 73
4
 74
0
 40
0
 40
0
 40
0
 40
0
 40
1
 40
1
 40
1
 40
1
 10
154.249020
 20
31.953785
 30
0.0
 10
154.428433
 20
31.603507
 30
0.0
 10
154.663377
 20
31.321576
 30
0.0
 10
154.953850
 20
31.107992
 30
0.0
  0
SPLINE
  5
2bf
100
AcDbEntity
  8
0
 62
7
100
AcDbSpline
 70
8
 71
3
 72
8
 73
4
 74
0
 40
0
 40
0
 40
0
 40
0
 40
1
 40
1
 40
1
 40
1
 10
154.953850
 20
31.107992
 30
0.0
 10
155.244323
 20
30.894408
 30
0.0
 10
155.611687
 20
30.787616
 30
0.0
 10
156.055940
 20
30.787616
 30
0.0
  0
SPLINE
  5
2c0
100
AcDbEntity
  8
0
 62
7
100
AcDbSpline
 70
8
 71
3
 72
8
 73
4
 74
0
 40
0
 40
0
 40
0
 40
0
 40
1
 40
1
 40
1
 40
1
 10
156.055940
 20
30.787616
 30
0.0
 10
156.278073
 20
30.787616
 30
0.0
 10
156.491660
 20
30.817516
 30
0.0
 10
156.696700
 20
30.877316
 30
0.0
  0
SPLINE
  5
2c1
100
AcDbEntity
  8
0
 62
7
100
AcDbSpline
 70
8
 71
3
 72
8
 73
4
 74
0
 40
0
 40
0
 40
0
 40
0
 40
1
 40
1
 40
1
 40
1
 10
156.696700
 20
30.877316
 30
0.0
 10
156.910280
 20
30.945663
 30
0.0
 10
157.123863
 20
31.052455
 30
0.0
 10
157.337450
 20
31.197692
 30
0.0
  0
SPLINE
  5
2c2
100
AcDbEntity
  8
0
 62
7
100
AcDbSpline
 70
8
 71
3
 72
8
 73
4
 74
0
 40
0
 40
0
 40
0
 40
0
 40
1
 40
1
 40
1
 40
1
 10
157.337450
 20
31.197692
 30
0.0
 10
157.559577
 20
31.342929
 30
0.0
 10
157.785977
 20
31.530883
 30
0.0
 10
158.016650
 20
31.761554
 30
0.0
  0
SPLINE
  5
2c3
100
AcDbEntity
  8
0
 62
7
100
AcDbSpline
 70
8
 71
3
 72
8
 73
4
 74
0
 40
0
 40
0
 40
0
 40
0
 40
1
 40
1
 40
1
 40
1
 10
158.016650
 20
31.761554
 30
0.0
 10
158.247317
 20
32.000768
 30
0.0
 10
158.499343
 20
32.291242
 30
0.0
 10
158.772730
 20
32.632977
 30
0.0
  0
LWPOLYLINE
  5
2c4
100
AcDbEntity
  8
0
 62
7
100
AcDbPolyline
 90
2
 70
0
 10
161.976460
 20
45.601801
 30
0.0
 10
161.976490
 20
28.788470
 30
0.0
  0
LWPOLYLINE
  5
2c5
100
AcDbEntity
  8
0
 62
7
100
AcDbPolyline
 90
2
 70
0
 10
158.772730
 20
32.632977
 30
0.0
 10
158.772730
 20
36.426233
 30
0.0
  0
SPLINE
  5
2c6
100
AcDbEntity
  8
0
 62
7
100
AcDbSpline
 70
8
 71
3
 72
8
 73
4
 74
0
 40
0
 40
0
 40
0
 40
0
 40
1
 40
1
 40
1
 40
1
 10
46.376901
 20
58.903097
 30
0.0
 10
46.930901
 20
58.903097
 30
0.0
 10
47.376901
 20
58.457097
 30
0.0
 10
47.376901
 20
57.903097
 30
0.0
  0
LWPOLYLINE
  5
2c7
100
AcDbEntity
  8
0
 62
7
100
AcDbPolyline
 90
2
 70
0
 10
39.777942
 20
58.903097
 30
0.0
 10
46.376901
 20
58.903097
 30
0.0
  0
SPLINE
  5
2c8
100
AcDbEntity
  8
0
 62
7
100
AcDbSpline
 70
8
 71
3
 72
8
 73
4
 74
0
 40
0
 40
0
 40
0
 40
0
 40
1
 40
1
 40
1
 40
1
 10
47.376901
 20
51.304138
 30
0.0
 10
47.376901
 20
50.750138
 30
0.0
 10
46.930901
 20
50.304138
 30
0.0
 10
46.376901
 20
50.304138
 30
0.0
  0
LWPOLYLINE
  5
2c9
100
AcDbEntity
  8
0
 62
7
100
AcDbPolyline
 90
2
 70
0
 10
47.376901
 20
57.903097
 30
0.0
 10
47.376901
 20
51.304138
 30
0.0
  0
SPLINE
  5
2ca
100
AcDbEntity
  8
0
 62
7
100
AcDbSpline
 70
8
 71
3
 72
8
 73
4
 74
0
 40
0
 40
0
 40
0
 40
0
 40
1
 40
1
 40
1
 40
1
 10
39.777942
 20
50.304138
 30
0.0
 10
39.223942
 20
50.304138
 30
0.0
 10
38.777942
 20
50.750138
 30
0.0
 10
38.777942
 20
51.304138
 30
0.0
  0
LWPOLYLINE
  5
2cb
100
AcDbEntity
  8
0
 62
7
100
AcDbPolyline
 90
2
 70
0
 10
46.376901
 20
50.304138
 30
0.0
 10
39.777942
 20
50.304138
 30
0.0
  0
SPLINE
  5
2cc
100
AcDbEntity
  8
0
 62
7
100
AcDbSpline
 70
8
 71
3
 72
8
 73
4
 74
0
 40
0
 40
0
 40
0
 40
0
 40
1
 40
1
 40
1
 40
1
 10
38.777942
 20
57.903097
 30
0.0
 10
38.777942
 20
58.457097
 30
0.0
 10
39.223942
 20
58.903097
 30
0.0
 10
39.777942
 20
58.903097
 30
0.0
  0
LWPOLYLINE
  5
2cd
100
AcDbEntity
  8
0
 62
7
100
AcDbPolyline
 90
2
 70
0
 10
38.777942
 20
51.304138
 30
0.0
 10
38.777942
 20
57.903097
 30
0.0
  0
LWPOLYLINE
  5
2ce
100
AcDbEntity
  8
0
 62
7
100
AcDbPolyline
 90
1
 70
1
 10
39.777942
 20
58.903097
 30
0.0
  0
SPLINE
  5
2cf
100
AcDbEntity
  8
0
 62
7
100
AcDbSpline
 70
8
 71
3
 72
8
 73
4
 74
0
 40
0
 40
0
 40
0
 40
0
 40
1
 40
1
 40
1
 40
1
 10
57.555548
 20
58.903097
 30
0.0
 10
58.109548
 20
58.903097
 30
0.0
 10
58.555548
 20
58.457097
 30
0.0
 10
58.555548
 20
57.903097
 30
0.0
  0
LWPOLYLINE
  5
2d0
100
AcDbEntity
  8
0
 62
7
100
AcDbPolyline
 90
2
 70
0
 10
50.956589
 20
58.903097
 30
0.0
 10
57.555548
 20
58.903097
 30
0.0
  0
SPLINE
  5
2d1
100
AcDbEntity
  8
0
 62
7
100
AcDbSpline
 70
8
 71
3
 72
8
 73
4
 74
0
 40
0
 40
0
 40
0
 40
0
 40
1
 40
1
 40
1
 40
1
 10
58.555548
 20
51.304138
 30
0.0
 10
58.555548
 20
50.750138
 30
0.0
 10
58.109548
 20
50.304138
 30
0.0
 10
57.555548
 20
50.304138
 30
0.0
  0
LWPOLYLINE
  5
2d2
100
AcDbEntity
  8
0
 62
7
100
AcDbPolyline
 90
2
 70
0
 10
58.555548
 20
57.903097
 30
0.0
 10
58.555548
 20
51.304138
 30
0.0
  0
SPLINE
  5
2d3
100
AcDbEntity
  8
0
 62
7
100
AcDbSpline
 70
8
 71
3
 72
8
 73
4
 74
0
 40
0
 40
0
 40
0
 40
0
 40
1
 40
1
 40
1
 40
1
 10
50.956589
 20
50.304138
 30
0.0
 10
50.402589
 20
50.304138
 30
0.0
 10
49.956589
 20
50.750138
 30
0.0
 10
49.956589
 20
51.304138
 30
0.0
  0
LWPOLYLINE
  5
2d4
100
AcDbEntity
  8
0
 62
7
100
AcDbPolyline
 90
2
 70
0
 10
57.555548
 20
50.304138
 30
0.0
 10
50.956589
 20
50.304138
 30
0.0
  0
SPLINE
  5
2d5
100
AcDbEntity
  8
0
 62
7
100
AcDbSpline
 70
8
 71
3
 72
8
 73
4
 74
0
 40
0
 40
0
 40
0
 40
0
 40
1
 40
1
 40
1
 40
1
 10
49.956589
 20
57.903097
 30
0.0
 10
49.956589
 20
58.457097
 30
0.0
 10
50.402589
 20
58.903097
 30
0.0
 10
50.956589
 20
58.903097
 30
0.0
  0
LWPOLYLINE
  5
2d6
100
AcDbEntity
  8
0
 62
7
100
AcDbPolyline
 90
2
 70
0
 10
49.956589
 20
51.304138
 30
0.0
 10
49.956589
 20
57.903097
 30
0.0
  0
LWPOLYLINE
  5
2d7
100
AcDbEntity
  8
0
 62
7
100
AcDbPolyline
 90
1
 70
1
 10
50.956589
 20
58.903097
 30
0.0
  0
SPLINE
  5
2d8
100
AcDbEntity
  8
0
 62
7
100
AcDbSpline
 70
8
 71
3
 72
8
 73
4
 74
0
 40
0
 40
0
 40
0
 40
0
 40
1
 40
1
 40
1
 40
1
 10
68.734194
 20
58.903097
 30
0.0
 10
69.288194
 20
58.903097
 30
0.0
 10
69.734194
 20
58.457097
 30
0.0
 10
69.734194
 20
57.903097
 30
0.0
  0
LWPOLYLINE
  5
2d9
100
AcDbEntity
  8
0
 62
7
100
AcDbPolyline
 90
2
 70
0
 10
62.135235
 20
58.903097
 30
0.0
 10
68.734194
 20
58.903097
 30
0.0
  0
SPLINE
  5
2da
100
AcDbEntity
  8
0
 62
7
100
AcDbSpline
 70
8
 71
3
 72
8
 73
4
 74
0
 40
0
 40
0
 40
0
 40
0
 40
1
 40
1
 40
1
 40
1
 10
69.734194
 20
51.304138
 30
0.0
 10
69.734194
 20
50.750138
 30
0.0
 10
69.288194
 20
50.304138
 30
0.0
 10
68.734194
 20
50.304138
 30
0.0
  0
LWPOLYLINE
  5
2db
100
AcDbEntity
  8
0
 62
7
100
AcDbPolyline
 90
2
 70
0
 10
69.734194
 20
57.903097
 30
0.0
 10
69.734194
 20
51.304138
 30
0.0
  0
SPLINE
  5
2dc
100
AcDbEntity
  8
0
 62
7
100
AcDbSpline
 70
8
 71
3
 72
8
 73
4
 74
0
 40
0
 40
0
 40
0
 40
0
 40
1
 40
1
 40
1
 40
1
 10
62.135235
 20
50.304138
 30
0.0
 10
61.581235
 20
50.304138
 30
0.0
 10
61.135235
 20
50.750138
 30
0.0
 10
61.135235
 20
51.304138
 30
0.0
  0
LWPOLYLINE
  5
2dd
100
AcDbEntity
  8
0
 62
7
100
AcDbPolyline
 90
2
 70
0
 10
68.734194
 20
50.304138
 30
0.0
 10
62.135235
 20
50.304138
 30
0.0
  0
SPLINE
  5
2de
100
AcDbEntity
  8
0
 62
7
100
AcDbSpline
 70
8
 71
3
 72
8
 73
4
 74
0
 40
0
 40
0
 40
0
 40
0
 40
1
 40
1
 40
1
 40
1
 10
61.135235
 20
57.903097
 30
0.0
 10
61.135235
 20
58.457097
 30
0.0
 10
61.581235
 20
58.903097
 30
0.0
 10
62.135235
 20
58.903097
 30
0.0
  0
LWPOLYLINE
  5
2df
100
AcDbEntity
  8
0
 62
7
100
AcDbPolyline
 90
2
 70
0
 10
61.135235
 20
51.304138
 30
0.0
 10
61.135235
 20
57.903097
 30
0.0
  0
LWPOLYLINE
  5
2e0
100
AcDbEntity
  8
0
 62
7
100
AcDbPolyline
 90
1
 70
1
 10
62.135235
 20
58.903097
 30
0.0
  0
SPLINE
  5
2e1
100
AcDbEntity
  8
0
 62
7
100
AcDbSpline
 70
8
 71
3
 72
8
 73
4
 74
0
 40
0
 40
0
 40
0
 40
0
 40
1
 40
1
 40
1
 40
1
 10
79.912844
 20
58.903097
 30
0.0
 10
80.466844
 20
58.903097
 30
0.0
 10
80.912844
 20
58.457097
 30
0.0
 10
80.912844
 20
57.903097
 30
0.0
  0
LWPOLYLINE
  5
2e2
100
AcDbEntity
  8
0
 62
7
100
AcDbPolyline
 90
2
 70
0
 10
73.313885
 20
58.903097
 30
0.0
 10
79.912844
 20
58.903097
 30
0.0
  0
SPLINE
  5
2e3
100
AcDbEntity
  8
0
 62
7
100
AcDbSpline
 70
8
 71
3
 72
8
 73
4
 74
0
 40
0
 40
0
 40
0
 40
0
 40
1
 40
1
 40
1
 40
1
 10
80.912844
 20
51.304138
 30
0.0
 10
80.912844
 20
50.750138
 30
0.0
 10
80.466844
 20
50.304138
 30
0.0
 10
79.912844
 20
50.304138
 30
0.0
  0
LWPOLYLINE
  5
2e4
100
AcDbEntity
  8
0
 62
7
100
AcDbPolyline
 90
2
 70
0
 10
80.912844
 20
57.903097
 30
0.0
 10
80.912844
 20
51.304138
 30
0.0
  0
SPLINE
  5
2e5
100
AcDbEntity
  8
0
 62
7
100
AcDbSpline
 70
8
 71
3
 72
8
 73
4
 74
0
 40
0
 40
0
 40
0
 40
0
 40
1
 40
1
 40
1
 40
1
 10
73.313885
 20
50.304138
 30
0.0
 10
72.759885
 20
50.304138
 30
0.0
 10
72.313885
 20
50.750138
 30
0.0
 10
72.313885
 20
51.304138
 30
0.0
  0
LWPOLYLINE
  5
2e6
100
AcDbEntity
  8
0
 62
7
100
AcDbPolyline
 90
2
 70
0
 10
79.912844
 20
50.304138
 30
0.0
 10
73.313885
 20
50.304138
 30
0.0
  0
SPLINE
  5
2e7
100
AcDbEntity
  8
0
 62
7
100
AcDbSpline
 70
8
 71
3
 72
8
 73
4
 74
0
 40
0
 40
0
 40
0
 40
0
 40
1
 40
1
 40
1
 40
1
 10
72.313885
 20
57.903097
 30
0.0
 10
72.313885
 20
58.457097
 30
0.0
 10
72.759885
 20
58.903097
 30
0.0
 10
73.313885
 20
58.903097
 30
0.0
  0
LWPOLYLINE
  5
2e8
100
AcDbEntity
  8
0
 62
7
100
AcDbPolyline
 90
2
 70
0
 10
72.313885
 20
51.304138
 30
0.0
 10
72.313885
 20
57.903097
 30
0.0
  0
LWPOLYLINE
  5
2e9
100
AcDbEntity
  8
0
 62
7
100
AcDbPolyline
 90
1
 70
1
 10
73.313885
 20
58.903097
 30
0.0
  0
ENDSEC
  0
SECTION
  2
OBJECTS
  0
DICTIONARY
  5
C
330
0
100
AcDbDictionary
  3
ACAD_GROUP
350
D
  3
ACAD_MLINESTYLE
350
17
  0
DICTIONARY
  5
D
330
C
100
AcDbDictionary
  0
DICTIONARY
  5
1A
330
C
100
AcDbDictionary
  0
DICTIONARY
  5
17
330
C
100
AcDbDictionary
  3
STANDARD
350
18
  0
DICTIONARY
  5
19
330
C
100
AcDbDictionary
  0
ENDSEC
  0
EOF
