<?xml version="1.0" encoding="UTF-8" standalone="no"?>
<!-- Created with Inkscape (http://www.inkscape.org/) -->

<svg
   width="90mm"
   height="52mm"
   viewBox="0 0 90 52"
   version="1.1"
   id="svg3912"
   inkscape:version="1.3.2 (091e20e, 2023-11-25, custom)"
   sodipodi:docname="OEM_R2_front_face_text_as_paths.svg"
   xmlns:inkscape="http://www.inkscape.org/namespaces/inkscape"
   xmlns:sodipodi="http://sodipodi.sourceforge.net/DTD/sodipodi-0.dtd"
   xmlns:xlink="http://www.w3.org/1999/xlink"
   xmlns="http://www.w3.org/2000/svg"
   xmlns:svg="http://www.w3.org/2000/svg">
  <sodipodi:namedview
     id="namedview3914"
     pagecolor="#ffffff"
     bordercolor="#000000"
     borderopacity="0.25"
     inkscape:showpageshadow="2"
     inkscape:pageopacity="0.0"
     inkscape:pagecheckerboard="0"
     inkscape:deskcolor="#d1d1d1"
     inkscape:document-units="mm"
     showgrid="false"
     inkscape:zoom="2.8284271"
     inkscape:cx="120.38493"
     inkscape:cy="107.30345"
     inkscape:window-width="2560"
     inkscape:window-height="1369"
     inkscape:window-x="2552"
     inkscape:window-y="-8"
     inkscape:window-maximized="1"
     inkscape:current-layer="layer3"
     showguides="true" />
  <defs
     id="defs3909" />
  <g
     inkscape:groupmode="layer"
     id="layer4"
     inkscape:label="Undercolor"
     style="display:inline"
     sodipodi:insensitive="true">
    <path
       style="display:inline;fill:#cdfdff;fill-opacity:1;stroke:none;stroke-width:0.1;stroke-linejoin:round;stroke-miterlimit:4;stroke-dasharray:none;stroke-opacity:1"
       d="m 12,15.199932 h 9.2 v -2 l -2.966316,-8.31693 c 0,0 -2.84267,0.775598 -6.233684,0.7779304 z"
       id="path5959-5"
       sodipodi:nodetypes="cccccc"
       inkscape:tile-cx="9.0706699"
       inkscape:tile-cy="4.314586"
       inkscape:tile-w="18.14134"
       inkscape:tile-h="8.614586"
       inkscape:tile-x0="-2.9862664e-09"
       inkscape:tile-y0="3.5889356e-09"
       inkscape:label="path5959" />
    <use
       x="0"
       y="0"
       xlink:href="#path5959-5"
       id="use13"
       transform="translate(22)" />
    <use
       x="0"
       y="0"
       xlink:href="#path5959-5"
       id="use14"
       transform="translate(44)" />
    <use
       x="0"
       y="0"
       xlink:href="#use14"
       id="use15"
       transform="translate(22)" />
    <use
       x="0"
       y="0"
       xlink:href="#path5959-5"
       id="use16"
       transform="translate(0,14.999998)" />
    <use
       x="0"
       y="0"
       xlink:href="#use16"
       id="use17"
       transform="translate(22)" />
    <use
       x="0"
       y="0"
       xlink:href="#use17"
       id="use18"
       transform="translate(22.1)" />
    <use
       x="0"
       y="0"
       xlink:href="#use18"
       id="use19"
       transform="translate(22)" />
    <use
       x="0"
       y="0"
       xlink:href="#path5959-5"
       id="use20"
       transform="translate(0,29.999998)" />
    <use
       x="0"
       y="0"
       xlink:href="#use20"
       id="use21"
       transform="translate(22)" />
    <use
       x="0"
       y="0"
       xlink:href="#use21"
       id="use22"
       transform="translate(22)" />
    <use
       x="0"
       y="0"
       xlink:href="#use22"
       id="use23"
       transform="translate(22)" />
  </g>
  <g
     inkscape:label="Keycaps outline"
     inkscape:groupmode="layer"
     id="layer1"
     style="display:none"
     sodipodi:insensitive="true">
    <path
       id="path1-2"
       style="fill:none;stroke:#000000;stroke-width:0.02"
       d="M 16.980615,5.2645738 19.75,13.19999 v 2 M 7.0181487,5.2620808 4.25,13.19999 v 2 M 3,15.199771 21,15.200209 V 13.19999 L 18.15,4.9999904 c -4.77021,1.2077339 -8.6696799,0.9384887 -12.3,0 L 3,13.19999 Z M 3,13.19999 h 18"
       inkscape:label="Outline"
       sodipodi:nodetypes="ccccccccccccccc" />
    <use
       x="0"
       y="0"
       xlink:href="#path1-2"
       id="use2"
       transform="translate(22,0.0119884)" />
    <use
       x="0"
       y="0"
       xlink:href="#use2"
       id="use3"
       transform="translate(21.91)" />
    <use
       x="0"
       y="0"
       xlink:href="#use2"
       id="use4"
       transform="translate(43.91)" />
    <use
       x="0"
       y="0"
       xlink:href="#path1-2"
       id="use5"
       transform="translate(0,14.999998)" />
    <use
       x="0"
       y="0"
       xlink:href="#use5"
       id="use6"
       transform="translate(22)" />
    <use
       x="0"
       y="0"
       xlink:href="#use5"
       id="use7"
       transform="translate(44)" />
    <use
       x="0"
       y="0"
       xlink:href="#use5"
       id="use8"
       transform="translate(66)" />
    <use
       x="0"
       y="0"
       xlink:href="#path1-2"
       id="use9"
       transform="translate(0,29.999998)" />
    <use
       x="0"
       y="0"
       xlink:href="#use9"
       id="use10"
       transform="translate(22)" />
    <use
       x="0"
       y="0"
       xlink:href="#use9"
       id="use11"
       transform="translate(44)" />
    <use
       x="0"
       y="0"
       xlink:href="#use9"
       id="use12"
       transform="translate(66)" />
  </g>
  <g
     inkscape:groupmode="layer"
     id="layer5"
     inkscape:label="Multitap indicators"
     style="display:inline"
     sodipodi:insensitive="true">
    <circle
       style="display:inline;fill:#ff9ea2;fill-opacity:1;stroke:none;stroke-width:0.0575106;stroke-dasharray:none;stroke-opacity:1"
       id="use23567"
       cy="6.161212"
       cx="60.300194"
       r="0.5" />
    <use
       x="0"
       y="0"
       xlink:href="#use23567"
       id="use15922"
       transform="translate(16.826149,0.44433559)" />
    <use
       x="0"
       y="0"
       xlink:href="#use23567"
       id="use15945"
       transform="translate(22.029887)" />
    <use
       x="0"
       y="0"
       xlink:href="#use23567"
       id="use16089"
       transform="translate(-27.120736,15.475788)" />
    <use
       x="0"
       y="0"
       xlink:href="#use16089"
       id="use16100"
       transform="translate(21.914304)" />
    <use
       x="0"
       y="0"
       xlink:href="#use23567"
       id="use16102"
       transform="translate(16.826149,15.475788)" />
    <use
       x="0"
       y="0"
       xlink:href="#use23567"
       id="use16394"
       transform="translate(-27.120736,30.531351)" />
    <use
       x="0"
       y="0"
       xlink:href="#use23567"
       id="use16396"
       transform="translate(22.205628,30.133788)" />
  </g>
  <g
     inkscape:groupmode="layer"
     id="layer3"
     inkscape:label="Symbols">
    <g
       id="g30"
       inkscape:label="Row 2"
       transform="translate(0,-11.999517)">
      <path
         d="m 8.842052,50.758506 q 0.1405598,0 0.2287542,0.09371 0.09095,0.09371 0.09095,0.242535 0,0.148828 -0.09095,0.242534 -0.088194,0.09371 -0.2287542,0.09371 -0.1405598,0 -0.2315102,-0.09371 -0.088194,-0.09371 -0.088194,-0.242534 0,-0.148828 0.088194,-0.242535 0.09095,-0.09371 0.2315102,-0.09371 z"
         id="text9110"
         style="font-size:5.64444px;font-family:'Cambria Math';-inkscape-font-specification:'Cambria Math, Normal';fill:#279a1d;stroke-width:0.1;stroke-linejoin:round"
         inkscape:label="20"
         aria-label="⋅&#10;" />
      <path
         d="m 15.510849,51.106439 0.881944,0.873675 -0.366558,0.366558 -0.873676,-0.8847 -0.873675,0.8847 -0.366558,-0.366558 0.881944,-0.873675 -0.881944,-0.873676 0.366558,-0.366558 0.873675,0.881944 0.873676,-0.881944 0.366558,0.363802 z"
         id="text9116"
         style="font-size:5.64444px;font-family:'Cambria Math';-inkscape-font-specification:'Cambria Math, Normal';fill:#279a1d;stroke-width:0.1;stroke-linejoin:round"
         inkscape:label="21"
         aria-label="⨯&#10;" />
      <path
         d="m 29.462764,52.841997 v -0.297828 h 2.758832 v 0.297828 z m 1.531689,-1.8855 v 1.289843 h -0.311264 v -1.289843 h -1.220425 v -0.297829 h 1.220425 v -1.289843 h 0.311264 v 1.289843 h 1.224904 v 0.297829 z"
         id="text9122"
         style="font-size:4.58611px;font-family:'Cambria Math';-inkscape-font-specification:'Cambria Math, Normal';fill:#279a1d;stroke-width:0.1;stroke-linejoin:round"
         inkscape:label="22"
         aria-label="±&#10;" />
      <path
         d="m 36.903254,53.238749 h -0.429948 v -4.313256 h 0.429948 z m 0.964626,0 h -0.429948 v -4.313256 h 0.429948 z"
         id="text9128"
         style="font-size:5.64444px;font-family:'Cambria Math';-inkscape-font-specification:'Cambria Math, Normal';fill:#279a1d;stroke-width:0.1;stroke-linejoin:round"
         inkscape:label="23"
         aria-label="∥&#10;" />
      <path
         d="m 54.397297,50.011969 q -0.209807,0 -0.371382,-0.09405 -0.159163,-0.09405 -0.24598,-0.258037 -0.08682,-0.166399 -0.08682,-0.373793 0,-0.204984 0.09164,-0.36897 0.09405,-0.166398 0.26045,-0.255626 0.166398,-0.09164 0.376204,-0.09164 0.207395,0 0.36897,0.09164 0.163987,0.09164 0.253215,0.255626 0.09164,0.163986 0.09164,0.371381 0,0.204983 -0.09646,0.371382 -0.09405,0.163986 -0.26286,0.258037 -0.16881,0.09405 -0.378616,0.09405 z m 0.01447,-1.203372 q -0.135048,0 -0.241157,0.0627 -0.106109,0.06029 -0.163986,0.16881 -0.05788,0.10852 -0.05788,0.248391 0,0.139871 0.05547,0.250803 0.05788,0.108521 0.163987,0.171221 0.10852,0.06029 0.243568,0.06029 0.137459,0 0.243568,-0.06029 0.108521,-0.0627 0.166398,-0.171221 0.05788,-0.110932 0.05788,-0.250803 0,-0.139871 -0.05788,-0.248391 -0.05788,-0.108521 -0.166398,-0.16881 -0.106109,-0.0627 -0.243568,-0.0627 z"
         id="text9134"
         style="font-size:4.93889px;font-family:'Cambria Math';-inkscape-font-specification:'Cambria Math, Normal';fill:#279a1d;stroke-width:0.1;stroke-linejoin:round"
         inkscape:label="24"
         aria-label="°&#10;" />
      <path
         d="m 59.234705,51.41996 q -0.110243,0.220486 -0.237022,0.37207 -0.126779,0.151584 -0.264583,0.248047 -0.135048,0.09646 -0.278364,0.140559 -0.143316,0.04134 -0.286631,0.04134 -0.278364,0 -0.482313,-0.09371 -0.20395,-0.09646 -0.338998,-0.253559 -0.135047,-0.159852 -0.201193,-0.366558 -0.06615,-0.206705 -0.06615,-0.429947 0,-0.239779 0.07166,-0.443728 0.07166,-0.20395 0.20395,-0.352778 0.132291,-0.148828 0.319704,-0.23151 0.190169,-0.08544 0.427192,-0.08544 0.176389,0 0.325217,0.05788 0.151584,0.05512 0.278363,0.157096 0.12678,0.101975 0.23151,0.245291 0.104731,0.14056 0.192926,0.311436 0.115755,-0.23151 0.248046,-0.380338 0.132292,-0.151584 0.275608,-0.237022 0.143316,-0.08819 0.2949,-0.121268 0.15434,-0.03307 0.311436,-0.03307 0.225998,0 0.407899,0.08819 0.184657,0.08819 0.311436,0.242534 0.129536,0.151585 0.198438,0.355534 0.0689,0.201194 0.0689,0.427192 0,0.24529 -0.07166,0.454752 -0.07166,0.209462 -0.20395,0.363802 -0.132291,0.15434 -0.322461,0.242534 -0.190169,0.0882 -0.427191,0.0882 -0.176389,0 -0.322461,-0.06339 -0.143316,-0.06615 -0.264583,-0.173633 -0.118511,-0.110243 -0.21773,-0.256315 -0.09922,-0.148828 -0.181901,-0.314192 z m 0.124024,-0.209462 q 0.06339,0.14056 0.146072,0.272852 0.08268,0.132291 0.187413,0.237022 0.107487,0.101975 0.239778,0.165364 0.132292,0.06063 0.2949,0.06063 0.157096,0 0.28112,-0.06615 0.124023,-0.0689 0.209461,-0.187413 0.08819,-0.121267 0.132292,-0.283875 0.04685,-0.162609 0.04685,-0.355534 0,-0.151584 -0.03858,-0.283876 -0.03858,-0.135047 -0.118511,-0.23151 -0.07993,-0.09922 -0.20395,-0.15434 -0.121267,-0.05788 -0.289387,-0.05788 -0.148828,0 -0.275608,0.06615 -0.126779,0.06615 -0.237022,0.184657 -0.107487,0.115755 -0.201194,0.278364 -0.09095,0.162608 -0.173632,0.355533 z m -0.347266,-0.264583 q -0.162608,-0.37207 -0.388606,-0.534678 -0.223242,-0.165365 -0.487825,-0.165365 -0.137804,0 -0.267339,0.04961 -0.12678,0.04685 -0.225999,0.146072 -0.09646,0.09922 -0.15434,0.253559 -0.05788,0.151584 -0.05788,0.35829 0,0.173633 0.04134,0.322461 0.0441,0.148828 0.129535,0.259071 0.08819,0.107487 0.214974,0.170876 0.129536,0.06063 0.303168,0.06063 0.143316,0 0.256315,-0.06063 0.115755,-0.06339 0.21773,-0.179145 0.104731,-0.118511 0.20395,-0.289387 0.09922,-0.170877 0.214973,-0.391363 z"
         id="text9140"
         style="font-size:5.64444px;font-family:'Cambria Math';-inkscape-font-specification:'Cambria Math, Normal';fill:#279a1d;stroke-width:0.1;stroke-linejoin:round"
         inkscape:label="25"
         aria-label="∞&#10;" />
      <path
         d="m 79.658952,51.702334 -0.02584,-0.0069 q -0.149861,0.153307 -0.282498,0.217041 -0.130913,0.06374 -0.279053,0.06374 -0.130913,0 -0.230821,-0.04995 -0.09991,-0.05168 -0.153307,-0.142972 -0.0534,-0.09302 -0.0534,-0.213596 0,-0.251492 0.248047,-0.387573 0.24977,-0.137804 0.747586,-0.160197 v -0.111966 q 0,-0.179145 -0.03445,-0.282498 -0.03445,-0.103353 -0.10852,-0.151584 -0.07407,-0.04823 -0.198093,-0.04823 -0.134359,0 -0.217042,0.07062 -0.08096,0.07062 -0.122301,0.211873 h -0.225653 v -0.223931 q 0.165364,-0.08613 0.275607,-0.125746 0.110243,-0.04134 0.220487,-0.06373 0.110243,-0.02412 0.223931,-0.02412 0.170532,0 0.273885,0.05512 0.103353,0.0534 0.15503,0.165364 0.05168,0.111966 0.05168,0.33762 v 0.599447 q 0,0.127468 0.0017,0.180867 0.0017,0.05168 0.01034,0.09646 0.0086,0.04479 0.02584,0.07235 0.01723,0.02584 0.04995,0.04479 0.03445,0.01895 0.110243,0.03962 v 0.08441 h -0.471978 z m -0.02928,-0.539158 q -0.349677,0.0034 -0.523655,0.09302 -0.173977,0.08957 -0.173977,0.270441 0,0.09819 0.03962,0.155029 0.03962,0.05684 0.09991,0.07924 0.06029,0.02067 0.142972,0.02067 0.117133,0 0.211873,-0.05684 0.09646,-0.05684 0.149862,-0.144694 0.0534,-0.08785 0.0534,-0.173978 z m 2.21003,-1.679485 -1.24368,3.205663 h -0.27044 l 1.247125,-3.205663 z m 0.70969,1.08865 0.0069,0.0017 q 0.120578,-0.125746 0.199815,-0.18259 0.08096,-0.05684 0.165365,-0.08613 0.08613,-0.03101 0.187758,-0.03101 0.184312,0 0.315226,0.09474 0.132636,0.09302 0.203261,0.280775 0.07235,0.187758 0.07235,0.459921 0,0.280775 -0.08613,0.475423 -0.08441,0.192926 -0.251493,0.292833 -0.165364,0.09819 -0.392741,0.09819 -0.127468,0 -0.241157,-0.02412 -0.111965,-0.02239 -0.235989,-0.08096 l -0.120578,0.105076 -0.118856,-0.02756 v -1.872411 q 0,-0.165364 -0.0034,-0.230821 -0.0017,-0.06546 -0.01378,-0.110243 -0.01033,-0.04651 -0.031,-0.07235 -0.01895,-0.02584 -0.0534,-0.04134 -0.03273,-0.0155 -0.120579,-0.03101 v -0.08957 l 0.416857,-0.01722 h 0.10163 z m 0,0.756199 q 0,0.132637 0.01206,0.211874 0.01206,0.07751 0.03962,0.129191 0.02928,0.05168 0.08268,0.09474 0.05512,0.04306 0.122301,0.06029 0.06718,0.0155 0.149862,0.0155 0.206706,0 0.313504,-0.168809 0.106798,-0.16881 0.106798,-0.50643 0,-0.341064 -0.09819,-0.511597 -0.09646,-0.172255 -0.292834,-0.172255 -0.09819,0 -0.167087,0.03101 -0.0689,0.02928 -0.137804,0.09302 -0.06718,0.06373 -0.09991,0.125746 -0.03101,0.06201 -0.03101,0.141249 z"
         id="text9152"
         style="font-size:3.52778px;font-family:'Cambria Math';-inkscape-font-specification:'Cambria Math, Normal';fill:#279a1d;stroke-width:0.1;stroke-linejoin:round"
         inkscape:label="27"
         aria-label="a/b&#10;" />
      <g
         id="g28"
         inkscape:label="26"
         transform="translate(0.04677216,-0.09354432)">
        <path
           d="m 73.686298,53.315781 h -0.998733 v -4.270367 h 0.998733 v 0.172427 h -0.627007 v 3.925513 h 0.627007 z m 2.21244,-0.172427 h 0.627007 v -3.925513 h -0.627007 v -0.172427 h 0.998733 v 4.270367 h -0.998733 z"
           id="text9146"
           style="font-size:4.58611px;font-family:'Cambria Math';-inkscape-font-specification:'Cambria Math, Normal';fill:#279a1d;stroke-width:0.1;stroke-linejoin:round"
           aria-label="[  ]&#10;" />
        <path
           d="m 72.391709,51.917311 -0.0155,-0.0041 q -0.08992,0.09199 -0.169498,0.130225 -0.07855,0.03824 -0.167432,0.03824 -0.07855,0 -0.138493,-0.02997 -0.05994,-0.03101 -0.09199,-0.08578 -0.03204,-0.05581 -0.03204,-0.128158 0,-0.150896 0.148828,-0.232545 0.149862,-0.08268 0.448552,-0.09612 v -0.06718 q 0,-0.107487 -0.02067,-0.169499 -0.02067,-0.06201 -0.06511,-0.09095 -0.04444,-0.02894 -0.118856,-0.02894 -0.08061,0 -0.130224,0.04237 -0.04858,0.04237 -0.07338,0.127124 h -0.135392 v -0.134359 q 0.09922,-0.05168 0.165364,-0.07545 0.06615,-0.02481 0.132292,-0.03824 0.06615,-0.01447 0.134359,-0.01447 0.10232,0 0.164331,0.03307 0.06201,0.03204 0.09302,0.09922 0.03101,0.06718 0.03101,0.202572 v 0.359669 q 0,0.07648 0.001,0.108521 0.001,0.03101 0.0062,0.05788 0.0052,0.02687 0.0155,0.04341 0.01033,0.0155 0.02997,0.02687 0.02067,0.01137 0.06615,0.02377 v 0.05064 h -0.283187 z m -0.01757,-0.323495 q -0.209806,0.0021 -0.314193,0.05581 -0.104386,0.05374 -0.104386,0.162265 0,0.05891 0.02377,0.09302 0.02377,0.03411 0.05994,0.04754 0.03617,0.0124 0.08578,0.0124 0.07028,0 0.127124,-0.03411 0.05788,-0.03411 0.08992,-0.08682 0.03204,-0.05271 0.03204,-0.104387 z m 1.180292,-0.354501 0.0041,0.001 q 0.07235,-0.07545 0.11989,-0.109554 0.04858,-0.03411 0.09922,-0.05168 0.05168,-0.0186 0.112655,-0.0186 0.110588,0 0.189136,0.05684 0.07958,0.05581 0.121957,0.168466 0.04341,0.112654 0.04341,0.275952 0,0.168466 -0.05168,0.285255 -0.05064,0.115755 -0.150896,0.1757 -0.09922,0.05891 -0.235645,0.05891 -0.07648,0 -0.144694,-0.01447 -0.06718,-0.01344 -0.141594,-0.04857 l -0.07235,0.06305 -0.07131,-0.01654 v -1.123447 q 0,-0.09922 -0.0021,-0.138493 -0.001,-0.03927 -0.0083,-0.06615 -0.0062,-0.0279 -0.0186,-0.04341 -0.01137,-0.0155 -0.03204,-0.02481 -0.01964,-0.0093 -0.07235,-0.0186 v -0.05374 l 0.250115,-0.01034 h 0.06098 z m 0,0.45372 q 0,0.07958 0.0072,0.127124 0.0072,0.04651 0.02377,0.07752 0.01757,0.03101 0.04961,0.05684 0.03307,0.02584 0.07338,0.03617 0.04031,0.0093 0.08992,0.0093 0.124024,0 0.188103,-0.101286 0.06408,-0.101286 0.06408,-0.303858 0,-0.204639 -0.05891,-0.306958 -0.05788,-0.103353 -0.1757,-0.103353 -0.05891,0 -0.100252,0.0186 -0.04134,0.01757 -0.08268,0.05581 -0.04031,0.03824 -0.05994,0.07545 -0.0186,0.03721 -0.0186,0.08475 z"
           id="text16988"
           style="font-size:2.11667px;font-family:'Cambria Math';-inkscape-font-specification:'Cambria Math, Normal';fill:#23631c;fill-opacity:0.439446;stroke-width:0.0975748;stroke-linejoin:round"
           transform="scale(1.024855,0.97574779)"
           aria-label="a b" />
        <path
           d="m 72.602967,53.08131 v 0.216007 h -0.131258 q -0.01757,-0.06718 -0.04341,-0.10542 -0.02584,-0.03927 -0.05994,-0.05478 -0.03411,-0.0155 -0.08475,-0.0155 -0.07235,0 -0.128157,0.04651 -0.05581,0.04651 -0.08888,0.141594 -0.03204,0.09509 -0.03204,0.232544 0,0.08785 0.0124,0.161231 0.0124,0.07235 0.04238,0.124023 0.02997,0.05168 0.07958,0.08062 0.04961,0.02894 0.122991,0.02894 0.07131,0 0.132291,-0.02791 0.06201,-0.0279 0.128158,-0.09818 l 0.05891,0.06821 q -0.05271,0.05788 -0.09302,0.08992 -0.04031,0.03101 -0.08682,0.05271 -0.04547,0.02067 -0.09095,0.02997 -0.04444,0.01034 -0.09715,0.01034 -0.195338,0 -0.298691,-0.129192 -0.103353,-0.130224 -0.103353,-0.375171 0,-0.152962 0.05788,-0.270785 0.05788,-0.118856 0.162264,-0.182935 0.104387,-0.06408 0.240813,-0.06408 0.08475,0 0.156063,0.01034 0.07235,0.0093 0.144694,0.03101 z m 1.327053,-0.159164 q 0,-0.09922 -0.0021,-0.138493 -0.001,-0.03927 -0.0083,-0.06615 -0.0062,-0.0279 -0.0186,-0.04341 -0.01137,-0.0155 -0.03204,-0.02481 -0.01964,-0.0093 -0.07235,-0.0186 v -0.05374 l 0.250115,-0.01033 h 0.06098 v 1.196828 q 0,0.08061 0.0031,0.115755 0.0031,0.03411 0.01344,0.05478 0.01033,0.02067 0.03204,0.03411 0.02274,0.0124 0.07855,0.02377 v 0.05374 l -0.243913,0.01034 h -0.06201 l 0.0124,-0.169499 -0.0155,-0.0041 q -0.06511,0.06925 -0.113689,0.104387 -0.04754,0.03411 -0.102319,0.05478 -0.05374,0.02067 -0.115755,0.02067 -0.169499,0 -0.261484,-0.128158 -0.09198,-0.129191 -0.09198,-0.372071 0,-0.169499 0.05994,-0.287321 0.05994,-0.118856 0.161231,-0.176734 0.102319,-0.05788 0.229443,-0.05788 0.06821,0 0.124024,0.01137 0.05581,0.01034 0.114722,0.03514 z m 0,0.510564 q 0,-0.08062 -0.0072,-0.129191 -0.0072,-0.04858 -0.02481,-0.08165 -0.01654,-0.03307 -0.04548,-0.05581 -0.02894,-0.02274 -0.06408,-0.03307 -0.03411,-0.01034 -0.08268,-0.01034 -0.132292,0 -0.201539,0.106453 -0.06925,0.10542 -0.06925,0.303858 0,0.198438 0.05684,0.301791 0.05684,0.103353 0.1726,0.103353 0.04548,0 0.07545,-0.0072 0.02997,-0.0083 0.05891,-0.0248 0.02894,-0.01757 0.05891,-0.04754 0.02997,-0.02997 0.04341,-0.05478 0.01447,-0.02481 0.0217,-0.05684 0.0072,-0.03204 0.0072,-0.08268 z"
           id="text16988-6"
           style="font-size:2.11667px;font-family:'Cambria Math';-inkscape-font-specification:'Cambria Math, Normal';fill:#23631c;fill-opacity:0.439446;stroke-width:0.0975748;stroke-linejoin:round"
           transform="scale(1.024855,0.97574779)"
           aria-label="c d" />
      </g>
    </g>
    <g
       id="g29"
       inkscape:label="Row 1"
       transform="translate(0,-4.999633)">
      <path
         d="m 9.9609096,26.944297 h 0.4464844 v 2.598978 q 0,0.804774 -0.399631,1.248502 -0.3996309,0.443728 -1.1658195,0.443728 -0.7661887,0 -1.1658195,-0.451997 Q 7.2792493,30.328756 7.2792493,29.42752 v -2.483223 h 0.4464841 v 2.494247 q 0,0.722092 0.2811195,1.069357 0.2838757,0.344509 0.8350906,0.344509 0.5512148,0 0.8350905,-0.344509 0.2838756,-0.347265 0.2838756,-1.069357 z"
         id="text9062"
         style="font-size:5.64444px;font-family:'Cambria Math';-inkscape-font-specification:'Cambria Math, Normal';fill:#279a1d;stroke-width:0.1;stroke-linejoin:round"
         inkscape:label="10"
         aria-label="⋃&#10;" />
      <path
         d="m 14.030006,31.235505 h -0.446484 v -2.598979 q 0,-0.804773 0.39963,-1.248501 0.399631,-0.443728 1.16582,-0.443728 0.766188,0 1.163063,0.454752 0.399631,0.451996 0.399631,1.353233 v 2.483223 h -0.446484 v -2.494248 q 0,-0.722091 -0.283876,-1.0666 -0.281119,-0.347266 -0.832334,-0.347266 -0.551215,0 -0.835091,0.347266 -0.283875,0.344509 -0.283875,1.0666 z"
         id="text9068"
         style="font-size:5.64444px;font-family:'Cambria Math';-inkscape-font-specification:'Cambria Math, Normal';fill:#279a1d;stroke-width:0.1;stroke-linejoin:round"
         inkscape:label="11"
         aria-label="⋂&#10;" />
      <path
         d="m 32.212831,28.895793 v 0.383094 h -2.276517 q 0.01378,0.256315 0.07441,0.454753 0.06063,0.198437 0.1819,0.338997 0.124024,0.137803 0.316949,0.203949 0.195681,0.06615 0.537434,0.06615 h 1.16582 v 0.383094 h -1.176844 q -0.270095,0 -0.468532,-0.03307 -0.198438,-0.03307 -0.35829,-0.107487 -0.159852,-0.07441 -0.303168,-0.223242 -0.14056,-0.151584 -0.228754,-0.333485 -0.0882,-0.1819 -0.132292,-0.410655 -0.0441,-0.228754 -0.0441,-0.496093 0,-0.43546 0.08544,-0.719335 0.08544,-0.286632 0.286632,-0.507118 0.201193,-0.223242 0.482313,-0.319705 0.281119,-0.09646 0.727603,-0.09646 h 1.129991 v 0.383094 h -1.132747 q -0.272851,0 -0.443728,0.03032 -0.16812,0.03032 -0.281119,0.09922 -0.112999,0.06615 -0.206706,0.190169 -0.09095,0.124023 -0.143316,0.305924 -0.05236,0.179145 -0.06614,0.407899 z"
         id="text9074"
         style="font-size:5.64444px;font-family:'Cambria Math';-inkscape-font-specification:'Cambria Math, Normal';fill:#279a1d;stroke-width:0.1;stroke-linejoin:round"
         inkscape:label="12"
         aria-label="∈&#10;" />
      <path
         d="m 38.201767,26.849401 -0.261827,0.655946 q 0.316949,0.206705 0.482313,0.614604 0.165365,0.407899 0.165365,0.972895 0,0.551214 -0.165365,0.959113 -0.162608,0.405143 -0.490581,0.622873 -0.325217,0.21773 -0.793749,0.21773 -0.28112,0 -0.509874,-0.07993 l -0.206706,0.520898 h -0.319704 l 0.259071,-0.650433 q -0.314193,-0.206706 -0.479557,-0.611849 -0.165365,-0.405143 -0.165365,-0.978406 0,-0.551215 0.162609,-0.956358 0.165364,-0.407899 0.490581,-0.625629 0.327973,-0.21773 0.796505,-0.21773 0.283876,0 0.507118,0.07993 l 0.209462,-0.523654 z m -1.675693,3.414776 0.997699,-2.51354 q -0.179145,-0.07441 -0.38585,-0.07441 -0.474045,0 -0.71658,0.35829 -0.242534,0.35829 -0.242534,1.058333 0,0.813042 0.347265,1.171331 z m 1.248502,-2.339907 -0.997699,2.510784 q 0.170876,0.07441 0.38585,0.07441 0.474045,0 0.71658,-0.35829 0.24529,-0.361046 0.24529,-1.058332 0,-0.80753 -0.350021,-1.168576 z"
         id="text9080"
         style="font-size:5.64444px;font-family:'Cambria Math';-inkscape-font-specification:'Cambria Math, Normal';fill:#279a1d;stroke-width:0.1;stroke-linejoin:round"
         inkscape:label="13"
         aria-label="∅&#10;" />
      <path
         d="m 54.533807,30.023586 v 0.366558 h -1.907203 q -0.292144,0 -0.496093,-0.03032 -0.20395,-0.03307 -0.350022,-0.09646 -0.146072,-0.06614 -0.278363,-0.187413 -0.129536,-0.121267 -0.209462,-0.264583 -0.07717,-0.143316 -0.115755,-0.319704 -0.03859,-0.176389 -0.03859,-0.380339 0,-0.496093 0.176389,-0.763432 0.176388,-0.270095 0.471288,-0.407899 0.297656,-0.137804 0.879188,-0.137804 h 1.868618 v 0.366558 h -1.849325 q -0.316949,0 -0.496094,0.03858 -0.179145,0.03583 -0.305924,0.124023 -0.124023,0.08544 -0.206706,0.26734 -0.08268,0.179144 -0.08268,0.482313 0,0.261827 0.05512,0.438215 0.05512,0.173633 0.176388,0.292144 0.121268,0.115755 0.308681,0.165365 0.190169,0.04685 0.518142,0.04685 z"
         id="text9086"
         style="font-size:5.64444px;font-family:'Cambria Math';-inkscape-font-specification:'Cambria Math, Normal';fill:#279a1d;stroke-width:0.1;stroke-linejoin:round"
         inkscape:label="14"
         aria-label="⊂&#10;" />
      <path
         d="m 51.114262,36.876455 -2.259981,-5.129054 h 0.443728 l 2.254469,5.129054 z"
         id="text9092"
         style="font-size:5.64444px;font-family:'Cambria Math';-inkscape-font-specification:'Cambria Math, Normal';fill:#279a1d;stroke-width:0.0848508;stroke-linejoin:round"
         inkscape:label="15"
         transform="scale(1.1785389,0.84850827)"
         aria-label="∖&#10;" />
      <path
         d="m 76.540094,29.622534 v 0.366558 h -1.907203 q -0.292144,0 -0.496094,-0.03032 -0.203949,-0.03307 -0.350021,-0.09646 -0.146072,-0.06614 -0.278364,-0.187413 -0.129535,-0.121267 -0.209461,-0.264583 -0.07717,-0.143316 -0.115756,-0.319704 -0.03858,-0.176389 -0.03858,-0.380339 0,-0.496093 0.176389,-0.763432 0.176389,-0.270095 0.471289,-0.407899 0.297656,-0.137804 0.879188,-0.137804 h 1.868618 v 0.366558 h -1.849326 q -0.316948,0 -0.496093,0.03858 -0.179145,0.03583 -0.305924,0.124023 -0.124024,0.08544 -0.206706,0.26734 -0.08268,0.179144 -0.08268,0.482313 0,0.261827 0.05512,0.438215 0.05512,0.173633 0.176389,0.292144 0.121267,0.115755 0.30868,0.165365 0.190169,0.04685 0.518142,0.04685 z m -3.395484,1.19338 v -0.366558 h 3.395484 v 0.366558 z"
         id="text9098"
         style="font-size:5.64444px;font-family:'Cambria Math';-inkscape-font-specification:'Cambria Math, Normal';fill:#279a1d;stroke-width:0.1;stroke-linejoin:round"
         inkscape:label="16"
         aria-label="⊆&#10;" />
      <path
         d="m 80.144965,30.352419 h 2.031227 v -2.880098 h 0.391363 v 3.246656 h -2.813952 v -3.246656 h 0.391362 z"
         id="text9104"
         style="font-size:5.64444px;font-family:'Cambria Math';-inkscape-font-specification:'Cambria Math, Normal';fill:#279a1d;stroke-width:0.1;stroke-linejoin:round"
         inkscape:label="17"
         aria-label="⊔&#10;" />
    </g>
    <g
       id="g31"
       inkscape:label="Row 0"
       style="display:inline"
       transform="translate(0,2.000002)">
      <g
         id="g9803"
         transform="translate(2.6680956,-4.5436008)"
         style="display:inline"
         inkscape:label="00">
        <path
           d="m 7.3417935,10.936822 q 0,0.15503 -0.1488281,0.15503 -0.1612305,0 -0.1612305,-0.15503 0,-0.155029 0.1612305,-0.155029 0.1488281,0 0.1488281,0.155029 z M 6.8829068,10.632965 q 0,0.151929 -0.1488281,0.151929 -0.1612305,0 -0.1612305,-0.151929 0,-0.15813 0.1612305,-0.15813 0.1488281,0 0.1488281,0.15813 z m 0.7658447,0.762744 q 0,0.15813 -0.1581299,0.15813 -0.1519287,0 -0.1519287,-0.15813 0,-0.151929 0.1581299,-0.151929 0.1519287,0 0.1519287,0.151929 z m 0.1116211,0.539502 q 0,0.155029 -0.1488281,0.155029 -0.1612305,0 -0.1612305,-0.155029 0,-0.155029 0.1612305,-0.155029 0.1488281,0 0.1488281,0.155029 z M 6.3434048,10.518243 q 0,0.15813 -0.1550293,0.15813 -0.1550293,0 -0.1550293,-0.15813 0,-0.151928 0.1550293,-0.151928 0.1550293,0 0.1550293,0.151928 z m -0.5364013,0.114722 q 0,0.151929 -0.1581299,0.151929 -0.1519287,0 -0.1519287,-0.151929 0,-0.15813 0.1519287,-0.15813 0.1581299,0 0.1581299,0.15813 z m 1.841748,1.841748 q 0,0.151929 -0.1581299,0.151929 -0.1519287,0 -0.1519287,-0.151929 0,-0.15813 0.1519287,-0.15813 0.1581299,0 0.1581299,0.15813 z M 5.3481168,10.936822 q 0,0.15503 -0.1550293,0.15503 -0.1550293,0 -0.1550293,-0.145728 0,-0.164331 0.1550293,-0.164331 0.1550293,0 0.1550293,0.155029 z m 1.9936767,2.002979 q 0,0.151929 -0.1488281,0.151929 -0.1612305,0 -0.1612305,-0.151929 0,-0.15813 0.1612305,-0.15813 0.1488281,0 0.1488281,0.15813 z m -0.4588867,0.303857 q 0,0.148828 -0.1488281,0.148828 -0.1612305,0 -0.1612305,-0.148828 0,-0.16123 0.1612305,-0.16123 0.1488281,0 0.1488281,0.16123 z m -1.841748,-1.847949 q 0,0.15813 -0.1488282,0.15813 -0.1612304,0 -0.1612304,-0.15813 0,-0.151929 0.1550293,-0.151929 0.1550293,0 0.1550293,0.151929 z m -0.1116211,0.539502 q 0,0.155029 -0.1488282,0.155029 -0.1612304,0 -0.1612304,-0.155029 0,-0.155029 0.1612304,-0.155029 0.1488282,0 0.1488282,0.155029 z m 1.4138671,1.410767 q 0,0.158129 -0.1550293,0.158129 -0.1550293,0 -0.1550293,-0.158129 0,-0.151929 0.1550293,-0.151929 0.1550293,0 0.1550293,0.151929 z m -1.302246,-0.871265 q 0,0.151929 -0.1550293,0.151929 -0.1550293,0 -0.1550293,-0.151929 0,-0.15813 0.1550293,-0.15813 0.1550293,0 0.1550293,0.15813 z m 0.7658447,0.756543 q 0,0.16123 -0.1581299,0.16123 -0.1519287,0 -0.1519287,-0.148828 0,-0.16123 0.1519287,-0.16123 0.1581299,0 0.1581299,0.148828 z M 5.3481168,12.939801 q 0,0.151929 -0.1550293,0.151929 -0.1550293,0 -0.1550293,-0.151929 0,-0.15813 0.1550293,-0.15813 0.1550293,0 0.1550293,0.15813 z"
           id="text9484-1"
           style="font-size:6.35px;font-family:Candara;-inkscape-font-specification:'Candara, Normal';fill:#23631c;fill-opacity:0.439446;stroke-width:0.1;stroke-linejoin:round"
           aria-label="◌" />
        <path
           d="M 6.4116179,8.9983651 7.0782439,9.9750496 6.8612028,10.151783 6.2038786,9.3983407 H 6.1697722 L 5.512448,10.151783 5.3016081,9.9750496 5.9961394,8.9983651 Z"
           id="text9773"
           style="font-size:6.35px;font-family:'Cambria Math';-inkscape-font-specification:'Cambria Math, Normal';fill:#279a1d;stroke-width:0.1;stroke-linejoin:round"
           aria-label=" ̂" />
      </g>
      <g
         id="g9809"
         transform="translate(1.7125902,-3.8585548)"
         inkscape:label="01">
        <path
           d="m 14.614865,10.235239 q 0,0.15503 -0.148828,0.15503 -0.16123,0 -0.16123,-0.15503 0,-0.155029 0.16123,-0.155029 0.148828,0 0.148828,0.155029 z M 14.155979,9.931382 q 0,0.151929 -0.148829,0.151929 -0.16123,0 -0.16123,-0.151929 0,-0.1581298 0.16123,-0.1581298 0.148829,0 0.148829,0.1581298 z m 0.765844,0.762744 q 0,0.15813 -0.15813,0.15813 -0.151928,0 -0.151928,-0.15813 0,-0.151929 0.15813,-0.151929 0.151928,0 0.151928,0.151929 z m 0.111621,0.539502 q 0,0.155029 -0.148828,0.155029 -0.16123,0 -0.16123,-0.155029 0,-0.155029 0.16123,-0.155029 0.148828,0 0.148828,0.155029 z M 13.616477,9.8166604 q 0,0.1581298 -0.15503,0.1581298 -0.155029,0 -0.155029,-0.1581298 0,-0.1519288 0.155029,-0.1519288 0.15503,0 0.15503,0.1519288 z M 13.080075,9.931382 q 0,0.151929 -0.15813,0.151929 -0.151928,0 -0.151928,-0.151929 0,-0.1581298 0.151928,-0.1581298 0.15813,0 0.15813,0.1581298 z m 1.841748,1.841748 q 0,0.151929 -0.15813,0.151929 -0.151928,0 -0.151928,-0.151929 0,-0.15813 0.151928,-0.15813 0.15813,0 0.15813,0.15813 z m -2.300634,-1.537891 q 0,0.15503 -0.15503,0.15503 -0.155029,0 -0.155029,-0.145728 0,-0.164331 0.155029,-0.164331 0.15503,0 0.15503,0.155029 z m 1.993676,2.002979 q 0,0.151929 -0.148828,0.151929 -0.16123,0 -0.16123,-0.151929 0,-0.15813 0.16123,-0.15813 0.148828,0 0.148828,0.15813 z m -0.458886,0.303857 q 0,0.148828 -0.148829,0.148828 -0.16123,0 -0.16123,-0.148828 0,-0.16123 0.16123,-0.16123 0.148829,0 0.148829,0.16123 z m -1.841748,-1.847949 q 0,0.15813 -0.148829,0.15813 -0.16123,0 -0.16123,-0.15813 0,-0.151929 0.155029,-0.151929 0.15503,0 0.15503,0.151929 z m -0.111622,0.539502 q 0,0.155029 -0.148828,0.155029 -0.16123,0 -0.16123,-0.155029 0,-0.155029 0.16123,-0.155029 0.148828,0 0.148828,0.155029 z m 1.413868,1.410767 q 0,0.15813 -0.15503,0.15813 -0.155029,0 -0.155029,-0.15813 0,-0.151929 0.155029,-0.151929 0.15503,0 0.15503,0.151929 z M 12.314231,11.77313 q 0,0.151929 -0.15503,0.151929 -0.155029,0 -0.155029,-0.151929 0,-0.15813 0.155029,-0.15813 0.15503,0 0.15503,0.15813 z m 0.765844,0.756543 q 0,0.16123 -0.15813,0.16123 -0.151928,0 -0.151928,-0.148828 0,-0.16123 0.151928,-0.16123 0.15813,0 0.15813,0.148828 z m -0.458886,-0.291455 q 0,0.151929 -0.15503,0.151929 -0.155029,0 -0.155029,-0.151929 0,-0.15813 0.155029,-0.15813 0.15503,0 0.15503,0.15813 z"
           id="text9484-1-9"
           style="font-size:6.35px;font-family:Candara;-inkscape-font-specification:'Candara, Normal';fill:#23631c;fill-opacity:0.439446;stroke-width:0.1;stroke-linejoin:round"
           aria-label="◌" />
        <path
           d="m 13.166497,9.6463263 -0.660425,-0.9766845 0.21084,-0.1767334 0.657324,0.7534423 h 0.03411 l 0.657325,-0.7534423 0.21394,0.1767334 -0.697632,0.9766845 z"
           id="text9777"
           style="font-size:6.35px;font-family:'Cambria Math';-inkscape-font-specification:'Cambria Math, Normal';fill:#279a1d;stroke-width:0.1;stroke-linejoin:round"
           aria-label=" ̌" />
      </g>
      <g
         id="g9815"
         transform="translate(3.9970896,-5.3666132)"
         inkscape:label="02">
        <path
           d="m 28.015091,11.731949 q 0,0.15503 -0.148828,0.15503 -0.161231,0 -0.161231,-0.15503 0,-0.155029 0.161231,-0.155029 0.148828,0 0.148828,0.155029 z m -0.458887,-0.303857 q 0,0.151929 -0.148828,0.151929 -0.16123,0 -0.16123,-0.151929 0,-0.15813 0.16123,-0.15813 0.148828,0 0.148828,0.15813 z m 0.765845,0.762744 q 0,0.15813 -0.15813,0.15813 -0.151929,0 -0.151929,-0.15813 0,-0.151929 0.15813,-0.151929 0.151929,0 0.151929,0.151929 z m 0.111621,0.539502 q 0,0.155029 -0.148828,0.155029 -0.161231,0 -0.161231,-0.155029 0,-0.155029 0.161231,-0.155029 0.148828,0 0.148828,0.155029 z M 27.016702,11.31337 q 0,0.15813 -0.155029,0.15813 -0.155029,0 -0.155029,-0.15813 0,-0.151929 0.155029,-0.151929 0.155029,0 0.155029,0.151929 z m -0.536401,0.114722 q 0,0.151929 -0.15813,0.151929 -0.151929,0 -0.151929,-0.151929 0,-0.15813 0.151929,-0.15813 0.15813,0 0.15813,0.15813 z m 1.841748,1.841748 q 0,0.151929 -0.15813,0.151929 -0.151929,0 -0.151929,-0.151929 0,-0.15813 0.151929,-0.15813 0.15813,0 0.15813,0.15813 z m -2.300635,-1.537891 q 0,0.15503 -0.155029,0.15503 -0.155029,0 -0.155029,-0.145728 0,-0.164331 0.155029,-0.164331 0.155029,0 0.155029,0.155029 z m 1.993677,2.002979 q 0,0.151928 -0.148828,0.151928 -0.161231,0 -0.161231,-0.151928 0,-0.15813 0.161231,-0.15813 0.148828,0 0.148828,0.15813 z m -0.458887,0.303857 q 0,0.148828 -0.148828,0.148828 -0.16123,0 -0.16123,-0.148828 0,-0.16123 0.16123,-0.16123 0.148828,0 0.148828,0.16123 z m -1.841748,-1.847949 q 0,0.15813 -0.148828,0.15813 -0.16123,0 -0.16123,-0.15813 0,-0.151929 0.155029,-0.151929 0.155029,0 0.155029,0.151929 z m -0.111621,0.539502 q 0,0.155029 -0.148828,0.155029 -0.161231,0 -0.161231,-0.155029 0,-0.155029 0.161231,-0.155029 0.148828,0 0.148828,0.155029 z m 1.413867,1.410767 q 0,0.158129 -0.155029,0.158129 -0.155029,0 -0.155029,-0.158129 0,-0.151929 0.155029,-0.151929 0.155029,0 0.155029,0.151929 z M 25.714456,13.26984 q 0,0.151929 -0.155029,0.151929 -0.155029,0 -0.155029,-0.151929 0,-0.15813 0.155029,-0.15813 0.155029,0 0.155029,0.15813 z m 0.765845,0.756543 q 0,0.16123 -0.15813,0.16123 -0.151929,0 -0.151929,-0.148828 0,-0.16123 0.151929,-0.16123 0.15813,0 0.15813,0.148828 z m -0.458887,-0.291455 q 0,0.151928 -0.155029,0.151928 -0.155029,0 -0.155029,-0.151928 0,-0.15813 0.155029,-0.15813 0.155029,0 0.155029,0.15813 z"
           id="text9484-1-1"
           style="font-size:6.35px;font-family:Candara;-inkscape-font-specification:'Candara, Normal';fill:#23631c;fill-opacity:0.439446;stroke-width:0.1;stroke-linejoin:round"
           aria-label="◌" />
        <path
           d="m 27.647671,10.164753 0.241846,0.10542 q -0.117822,0.254248 -0.223242,0.393774 -0.108521,0.136426 -0.204639,0.189136 -0.09922,0.04961 -0.223242,0.04961 -0.08372,0 -0.145727,-0.0155 -0.06201,-0.0186 -0.120923,-0.04961 -0.06201,-0.03411 -0.189136,-0.120923 -0.08372,-0.05581 -0.130225,-0.08682 -0.04961,-0.03101 -0.102319,-0.04961 -0.05271,-0.0217 -0.111621,-0.0217 -0.08061,0 -0.133325,0.03101 -0.05581,0.03101 -0.111621,0.108521 -0.05581,0.07751 -0.114722,0.204638 l -0.241846,-0.10542 q 0.148828,-0.297656 0.241846,-0.412378 0.09302,-0.117822 0.192236,-0.167431 0.09612,-0.05271 0.232544,-0.05271 0.07441,0 0.136426,0.0186 0.05891,0.0155 0.111621,0.04341 0.04961,0.02791 0.173633,0.111621 0.08992,0.06201 0.142627,0.09612 0.05271,0.03411 0.10852,0.05581 0.05581,0.0186 0.127124,0.0186 0.09922,0 0.176734,-0.07441 0.07751,-0.07752 0.167431,-0.269751 z"
           id="text9781"
           style="font-size:6.35px;font-family:'Cambria Math';-inkscape-font-specification:'Cambria Math, Normal';fill:#279a1d;stroke-width:0.1;stroke-linejoin:round"
           aria-label=" ̃" />
      </g>
      <g
         id="g9996"
         transform="translate(1.6920404,-5.3666132)"
         inkscape:label="03">
        <path
           d="m 36.62117,11.731949 q 0,0.15503 -0.148828,0.15503 -0.161231,0 -0.161231,-0.15503 0,-0.155029 0.161231,-0.155029 0.148828,0 0.148828,0.155029 z m -0.458887,-0.303857 q 0,0.151929 -0.148828,0.151929 -0.16123,0 -0.16123,-0.151929 0,-0.15813 0.16123,-0.15813 0.148828,0 0.148828,0.15813 z m 0.765845,0.762744 q 0,0.15813 -0.15813,0.15813 -0.151929,0 -0.151929,-0.15813 0,-0.151929 0.15813,-0.151929 0.151929,0 0.151929,0.151929 z m 0.111621,0.539502 q 0,0.155029 -0.148828,0.155029 -0.16123,0 -0.16123,-0.155029 0,-0.155029 0.16123,-0.155029 0.148828,0 0.148828,0.155029 z M 35.622781,11.31337 q 0,0.15813 -0.155029,0.15813 -0.155029,0 -0.155029,-0.15813 0,-0.151929 0.155029,-0.151929 0.155029,0 0.155029,0.151929 z m -0.536401,0.114722 q 0,0.151929 -0.15813,0.151929 -0.151929,0 -0.151929,-0.151929 0,-0.15813 0.151929,-0.15813 0.15813,0 0.15813,0.15813 z m 1.841748,1.841748 q 0,0.151929 -0.15813,0.151929 -0.151929,0 -0.151929,-0.151929 0,-0.15813 0.151929,-0.15813 0.15813,0 0.15813,0.15813 z m -2.300635,-1.537891 q 0,0.15503 -0.155029,0.15503 -0.155029,0 -0.155029,-0.145728 0,-0.164331 0.155029,-0.164331 0.155029,0 0.155029,0.155029 z m 1.993677,2.002979 q 0,0.151928 -0.148828,0.151928 -0.161231,0 -0.161231,-0.151928 0,-0.15813 0.161231,-0.15813 0.148828,0 0.148828,0.15813 z m -0.458887,0.303857 q 0,0.148828 -0.148828,0.148828 -0.16123,0 -0.16123,-0.148828 0,-0.16123 0.16123,-0.16123 0.148828,0 0.148828,0.16123 z m -1.841748,-1.847949 q 0,0.15813 -0.148828,0.15813 -0.16123,0 -0.16123,-0.15813 0,-0.151929 0.155029,-0.151929 0.155029,0 0.155029,0.151929 z m -0.111621,0.539502 q 0,0.155029 -0.148828,0.155029 -0.16123,0 -0.16123,-0.155029 0,-0.155029 0.16123,-0.155029 0.148828,0 0.148828,0.155029 z m 1.413867,1.410767 q 0,0.158129 -0.155029,0.158129 -0.155029,0 -0.155029,-0.158129 0,-0.151929 0.155029,-0.151929 0.155029,0 0.155029,0.151929 z M 34.320535,13.26984 q 0,0.151929 -0.155029,0.151929 -0.155029,0 -0.155029,-0.151929 0,-0.15813 0.155029,-0.15813 0.155029,0 0.155029,0.15813 z m 0.765845,0.756543 q 0,0.16123 -0.15813,0.16123 -0.151929,0 -0.151929,-0.148828 0,-0.16123 0.151929,-0.16123 0.15813,0 0.15813,0.148828 z m -0.458887,-0.291455 q 0,0.151928 -0.155029,0.151928 -0.155029,0 -0.155029,-0.151928 0,-0.15813 0.155029,-0.15813 0.155029,0 0.155029,0.15813 z"
           id="text9484-1-3"
           style="font-size:6.35px;font-family:Candara;-inkscape-font-specification:'Candara, Normal';fill:#23631c;fill-opacity:0.439446;stroke-width:0.1;stroke-linejoin:round"
           aria-label="◌" />
        <path
           d="m 36.287859,10.909419 h -1.63711 v -0.387574 h 1.63711 z"
           id="text9785"
           style="font-size:6.35px;font-family:'Cambria Math';-inkscape-font-specification:'Cambria Math, Normal';fill:#279a1d;stroke-width:0.1;stroke-linejoin:round"
           aria-label=" ̄" />
      </g>
      <g
         id="g9990"
         transform="translate(3.7934649,-5.3335399)"
         inkscape:label="04">
        <g
           id="g9491"
           transform="translate(-1.0184972,6.0854166)">
          <path
             d="M 51.220651,4.224816 50.442404,4.8976431 50.278073,4.711608 50.774167,4.2806265 h -1.891358 v -0.291455 h 1.891358 L 50.278073,3.55819 50.442404,3.3721549 51.220651,4.044982 Z"
             id="text9038"
             style="font-size:6.35px;font-family:'Cambria Math';-inkscape-font-specification:'Cambria Math, Normal';fill:#279a1d;stroke-width:0.1;stroke-linejoin:round"
             aria-label="	⃗&#10;" />
        </g>
        <path
           d="m 50.185101,11.731948 q 0,0.15503 -0.148829,0.15503 -0.16123,0 -0.16123,-0.15503 0,-0.155029 0.16123,-0.155029 0.148829,0 0.148829,0.155029 z m -0.458887,-0.303857 q 0,0.151929 -0.148828,0.151929 -0.161231,0 -0.161231,-0.151929 0,-0.15813 0.161231,-0.15813 0.148828,0 0.148828,0.15813 z m 0.765845,0.762744 q 0,0.15813 -0.15813,0.15813 -0.151929,0 -0.151929,-0.15813 0,-0.151929 0.15813,-0.151929 0.151929,0 0.151929,0.151929 z m 0.111621,0.539502 q 0,0.155029 -0.148829,0.155029 -0.16123,0 -0.16123,-0.155029 0,-0.155029 0.16123,-0.155029 0.148829,0 0.148829,0.155029 z m -1.416968,-1.416968 q 0,0.15813 -0.155029,0.15813 -0.15503,0 -0.15503,-0.15813 0,-0.151928 0.15503,-0.151928 0.155029,0 0.155029,0.151928 z m -0.536402,0.114722 q 0,0.151929 -0.158129,0.151929 -0.151929,0 -0.151929,-0.151929 0,-0.15813 0.151929,-0.15813 0.158129,0 0.158129,0.15813 z m 1.841749,1.841748 q 0,0.151929 -0.15813,0.151929 -0.151929,0 -0.151929,-0.151929 0,-0.15813 0.151929,-0.15813 0.15813,0 0.15813,0.15813 z m -2.300635,-1.537891 q 0,0.15503 -0.15503,0.15503 -0.155029,0 -0.155029,-0.145728 0,-0.164331 0.155029,-0.164331 0.15503,0 0.15503,0.155029 z m 1.993677,2.002979 q 0,0.151929 -0.148829,0.151929 -0.16123,0 -0.16123,-0.151929 0,-0.15813 0.16123,-0.15813 0.148829,0 0.148829,0.15813 z m -0.458887,0.303857 q 0,0.148828 -0.148828,0.148828 -0.161231,0 -0.161231,-0.148828 0,-0.16123 0.161231,-0.16123 0.148828,0 0.148828,0.16123 z m -1.841748,-1.847949 q 0,0.15813 -0.148828,0.15813 -0.161231,0 -0.161231,-0.15813 0,-0.151929 0.155029,-0.151929 0.15503,0 0.15503,0.151929 z m -0.111621,0.539502 q 0,0.155029 -0.148828,0.155029 -0.161231,0 -0.161231,-0.155029 0,-0.155029 0.161231,-0.155029 0.148828,0 0.148828,0.155029 z m 1.413867,1.410767 q 0,0.158129 -0.155029,0.158129 -0.15503,0 -0.15503,-0.158129 0,-0.151929 0.15503,-0.151929 0.155029,0 0.155029,0.151929 z m -1.302246,-0.871265 q 0,0.151929 -0.15503,0.151929 -0.155029,0 -0.155029,-0.151929 0,-0.15813 0.155029,-0.15813 0.15503,0 0.15503,0.15813 z m 0.765844,0.756543 q 0,0.16123 -0.158129,0.16123 -0.151929,0 -0.151929,-0.148828 0,-0.16123 0.151929,-0.16123 0.158129,0 0.158129,0.148828 z m -0.458886,-0.291455 q 0,0.151929 -0.15503,0.151929 -0.155029,0 -0.155029,-0.151929 0,-0.15813 0.155029,-0.15813 0.15503,0 0.15503,0.15813 z"
           id="text9484-1-6"
           style="font-size:6.35px;font-family:Candara;-inkscape-font-specification:'Candara, Normal';fill:#23631c;fill-opacity:0.439446;stroke-width:0.1;stroke-linejoin:round"
           aria-label="◌" />
      </g>
      <g
         id="g9982"
         transform="translate(2.6842879,-5.33354)"
         inkscape:label="05">
        <path
           d="m 57.621872,11.731949 q 0,0.15503 -0.148828,0.15503 -0.161231,0 -0.161231,-0.15503 0,-0.155029 0.161231,-0.155029 0.148828,0 0.148828,0.155029 z m -0.458887,-0.303857 q 0,0.151929 -0.148828,0.151929 -0.16123,0 -0.16123,-0.151929 0,-0.15813 0.16123,-0.15813 0.148828,0 0.148828,0.15813 z m 0.765845,0.762744 q 0,0.15813 -0.15813,0.15813 -0.151929,0 -0.151929,-0.15813 0,-0.151929 0.15813,-0.151929 0.151929,0 0.151929,0.151929 z m 0.111621,0.539502 q 0,0.155029 -0.148828,0.155029 -0.161231,0 -0.161231,-0.155029 0,-0.155029 0.161231,-0.155029 0.148828,0 0.148828,0.155029 z M 56.623483,11.31337 q 0,0.15813 -0.155029,0.15813 -0.155029,0 -0.155029,-0.15813 0,-0.151929 0.155029,-0.151929 0.155029,0 0.155029,0.151929 z m -0.536401,0.114722 q 0,0.151929 -0.15813,0.151929 -0.151929,0 -0.151929,-0.151929 0,-0.15813 0.151929,-0.15813 0.15813,0 0.15813,0.15813 z m 1.841748,1.841748 q 0,0.151929 -0.15813,0.151929 -0.151929,0 -0.151929,-0.151929 0,-0.15813 0.151929,-0.15813 0.15813,0 0.15813,0.15813 z m -2.300635,-1.537891 q 0,0.15503 -0.155029,0.15503 -0.155029,0 -0.155029,-0.145728 0,-0.164331 0.155029,-0.164331 0.155029,0 0.155029,0.155029 z m 1.993677,2.002979 q 0,0.151928 -0.148828,0.151928 -0.161231,0 -0.161231,-0.151928 0,-0.15813 0.161231,-0.15813 0.148828,0 0.148828,0.15813 z m -0.458887,0.303857 q 0,0.148828 -0.148828,0.148828 -0.16123,0 -0.16123,-0.148828 0,-0.16123 0.16123,-0.16123 0.148828,0 0.148828,0.16123 z m -1.841748,-1.847949 q 0,0.15813 -0.148828,0.15813 -0.16123,0 -0.16123,-0.15813 0,-0.151929 0.155029,-0.151929 0.155029,0 0.155029,0.151929 z m -0.111621,0.539502 q 0,0.155029 -0.148828,0.155029 -0.161231,0 -0.161231,-0.155029 0,-0.155029 0.161231,-0.155029 0.148828,0 0.148828,0.155029 z m 1.413867,1.410767 q 0,0.158129 -0.155029,0.158129 -0.155029,0 -0.155029,-0.158129 0,-0.151929 0.155029,-0.151929 0.155029,0 0.155029,0.151929 z M 55.321237,13.26984 q 0,0.151929 -0.155029,0.151929 -0.155029,0 -0.155029,-0.151929 0,-0.15813 0.155029,-0.15813 0.155029,0 0.155029,0.15813 z m 0.765845,0.756543 q 0,0.16123 -0.15813,0.16123 -0.151929,0 -0.151929,-0.148828 0,-0.16123 0.151929,-0.16123 0.15813,0 0.15813,0.148828 z m -0.458887,-0.291455 q 0,0.151928 -0.155029,0.151928 -0.155029,0 -0.155029,-0.151928 0,-0.15813 0.155029,-0.15813 0.155029,0 0.155029,0.15813 z"
           id="text9484-1-32"
           style="font-size:6.35px;font-family:Candara;-inkscape-font-specification:'Candara, Normal';fill:#23631c;fill-opacity:0.439446;stroke-width:0.1;stroke-linejoin:round"
           aria-label="◌" />
        <path
           d="m 56.484472,10.898821 q -0.148828,0 -0.248047,-0.102319 -0.09922,-0.10542 -0.09922,-0.26355 0,-0.15813 0.09922,-0.260449 0.09922,-0.10542 0.248047,-0.10542 0.145727,0 0.244946,0.10542 0.09922,0.102319 0.09922,0.260449 0,0.15813 -0.09922,0.26355 -0.09922,0.102319 -0.244946,0.102319 z"
           id="text9789"
           style="font-size:6.35px;font-family:'Cambria Math';-inkscape-font-specification:'Cambria Math, Normal';fill:#279a1d;stroke-width:0.1;stroke-linejoin:round"
           aria-label=" ̇" />
      </g>
      <g
         id="g9970"
         transform="translate(3.0491218,-5.3692592)"
         inkscape:label="06">
        <path
           d="m 72.448654,11.731949 q 0,0.15503 -0.148828,0.15503 -0.16123,0 -0.16123,-0.15503 0,-0.155029 0.16123,-0.155029 0.148828,0 0.148828,0.155029 z m -0.458887,-0.303857 q 0,0.151929 -0.148828,0.151929 -0.16123,0 -0.16123,-0.151929 0,-0.15813 0.16123,-0.15813 0.148828,0 0.148828,0.15813 z m 0.765845,0.762744 q 0,0.15813 -0.15813,0.15813 -0.151928,0 -0.151928,-0.15813 0,-0.151929 0.158129,-0.151929 0.151929,0 0.151929,0.151929 z m 0.111621,0.539502 q 0,0.155029 -0.148828,0.155029 -0.16123,0 -0.16123,-0.155029 0,-0.155029 0.16123,-0.155029 0.148828,0 0.148828,0.155029 z M 71.450265,11.31337 q 0,0.15813 -0.155029,0.15813 -0.155029,0 -0.155029,-0.15813 0,-0.151929 0.155029,-0.151929 0.155029,0 0.155029,0.151929 z m -0.536401,0.114722 q 0,0.151929 -0.15813,0.151929 -0.151928,0 -0.151928,-0.151929 0,-0.15813 0.151928,-0.15813 0.15813,0 0.15813,0.15813 z m 1.841748,1.841748 q 0,0.151929 -0.15813,0.151929 -0.151928,0 -0.151928,-0.151929 0,-0.15813 0.151928,-0.15813 0.15813,0 0.15813,0.15813 z m -2.300635,-1.537891 q 0,0.15503 -0.155029,0.15503 -0.155029,0 -0.155029,-0.145728 0,-0.164331 0.155029,-0.164331 0.155029,0 0.155029,0.155029 z m 1.993677,2.002979 q 0,0.151928 -0.148828,0.151928 -0.16123,0 -0.16123,-0.151928 0,-0.15813 0.16123,-0.15813 0.148828,0 0.148828,0.15813 z m -0.458887,0.303857 q 0,0.148828 -0.148828,0.148828 -0.16123,0 -0.16123,-0.148828 0,-0.16123 0.16123,-0.16123 0.148828,0 0.148828,0.16123 z m -1.841748,-1.847949 q 0,0.15813 -0.148828,0.15813 -0.16123,0 -0.16123,-0.15813 0,-0.151929 0.155029,-0.151929 0.155029,0 0.155029,0.151929 z m -0.111621,0.539502 q 0,0.155029 -0.148828,0.155029 -0.16123,0 -0.16123,-0.155029 0,-0.155029 0.16123,-0.155029 0.148828,0 0.148828,0.155029 z m 1.413867,1.410767 q 0,0.158129 -0.155029,0.158129 -0.155029,0 -0.155029,-0.158129 0,-0.151929 0.155029,-0.151929 0.155029,0 0.155029,0.151929 z M 70.148019,13.26984 q 0,0.151929 -0.155029,0.151929 -0.155029,0 -0.155029,-0.151929 0,-0.15813 0.155029,-0.15813 0.155029,0 0.155029,0.15813 z m 0.765845,0.756543 q 0,0.16123 -0.15813,0.16123 -0.151928,0 -0.151928,-0.148828 0,-0.16123 0.151928,-0.16123 0.15813,0 0.15813,0.148828 z m -0.458887,-0.291455 q 0,0.151928 -0.155029,0.151928 -0.155029,0 -0.155029,-0.151928 0,-0.15813 0.155029,-0.15813 0.155029,0 0.155029,0.15813 z"
           id="text9484-1-2"
           style="font-size:6.35px;font-family:Candara;-inkscape-font-specification:'Candara, Normal';fill:#23631c;fill-opacity:0.439446;stroke-width:0.1;stroke-linejoin:round"
           aria-label="◌" />
        <path
           d="m 75.280314,14.7503 q -0.300486,0 -0.449747,-0.20818 -0.147297,-0.208179 -0.147297,-0.626503 0,-0.290666 0.07856,-0.483134 0.08052,-0.194432 0.217999,-0.286738 0.139441,-0.09231 0.32209,-0.09231 0.170864,0 0.286738,0.06088 0.115874,0.06088 0.186576,0.170865 0.07267,0.108018 0.102126,0.261207 0.03142,0.151225 0.03142,0.333873 0,0.430107 -0.163008,0.650071 -0.161045,0.219963 -0.465459,0.219963 z m -0.306378,-0.86807 q 0,0.381008 0.07856,0.553837 0.07856,0.172828 0.249423,0.172828 0.161044,0 0.237639,-0.161045 0.07856,-0.161044 0.07856,-0.514557 0,-0.377081 -0.07856,-0.557765 -0.07659,-0.180684 -0.239603,-0.180684 -0.12373,0 -0.196396,0.08249 -0.0707,0.08249 -0.100162,0.233711 -0.02946,0.149261 -0.02946,0.371189 z"
           id="text9793"
           style="font-size:4.02219px;font-family:'Cambria Math';-inkscape-font-specification:'Cambria Math, Normal';fill:#279a1d;stroke-width:0.0633416;stroke-linejoin:round"
           transform="scale(0.97327029,1.0274638)"
           aria-label=" ₀" />
      </g>
      <g
         id="g9976"
         transform="translate(2.1266901,-5.348962)"
         inkscape:label="07">
        <path
           d="m 79.698334,11.731949 q 0,0.15503 -0.148828,0.15503 -0.161231,0 -0.161231,-0.15503 0,-0.155029 0.161231,-0.155029 0.148828,0 0.148828,0.155029 z m -0.458887,-0.303857 q 0,0.151929 -0.148828,0.151929 -0.161231,0 -0.161231,-0.151929 0,-0.15813 0.161231,-0.15813 0.148828,0 0.148828,0.15813 z m 0.765845,0.762744 q 0,0.15813 -0.15813,0.15813 -0.151929,0 -0.151929,-0.15813 0,-0.151929 0.15813,-0.151929 0.151929,0 0.151929,0.151929 z m 0.111621,0.539502 q 0,0.155029 -0.148828,0.155029 -0.161231,0 -0.161231,-0.155029 0,-0.155029 0.161231,-0.155029 0.148828,0 0.148828,0.155029 z M 78.699945,11.31337 q 0,0.15813 -0.155029,0.15813 -0.15503,0 -0.15503,-0.15813 0,-0.151929 0.15503,-0.151929 0.155029,0 0.155029,0.151929 z m -0.536401,0.114722 q 0,0.151929 -0.15813,0.151929 -0.151929,0 -0.151929,-0.151929 0,-0.15813 0.151929,-0.15813 0.15813,0 0.15813,0.15813 z m 1.841748,1.841748 q 0,0.151929 -0.15813,0.151929 -0.151929,0 -0.151929,-0.151929 0,-0.15813 0.151929,-0.15813 0.15813,0 0.15813,0.15813 z m -2.300635,-1.537891 q 0,0.15503 -0.155029,0.15503 -0.15503,0 -0.15503,-0.145728 0,-0.164331 0.15503,-0.164331 0.155029,0 0.155029,0.155029 z m 1.993677,2.002979 q 0,0.151928 -0.148828,0.151928 -0.161231,0 -0.161231,-0.151928 0,-0.15813 0.161231,-0.15813 0.148828,0 0.148828,0.15813 z m -0.458887,0.303857 q 0,0.148828 -0.148828,0.148828 -0.161231,0 -0.161231,-0.148828 0,-0.16123 0.161231,-0.16123 0.148828,0 0.148828,0.16123 z m -1.841748,-1.847949 q 0,0.15813 -0.148828,0.15813 -0.161231,0 -0.161231,-0.15813 0,-0.151929 0.15503,-0.151929 0.155029,0 0.155029,0.151929 z m -0.111621,0.539502 q 0,0.155029 -0.148828,0.155029 -0.161231,0 -0.161231,-0.155029 0,-0.155029 0.161231,-0.155029 0.148828,0 0.148828,0.155029 z m 1.413867,1.410767 q 0,0.158129 -0.155029,0.158129 -0.15503,0 -0.15503,-0.158129 0,-0.151929 0.15503,-0.151929 0.155029,0 0.155029,0.151929 z M 77.397699,13.26984 q 0,0.151929 -0.155029,0.151929 -0.15503,0 -0.15503,-0.151929 0,-0.15813 0.15503,-0.15813 0.155029,0 0.155029,0.15813 z m 0.765845,0.756543 q 0,0.16123 -0.15813,0.16123 -0.151929,0 -0.151929,-0.148828 0,-0.16123 0.151929,-0.16123 0.15813,0 0.15813,0.148828 z m -0.458887,-0.291455 q 0,0.151928 -0.155029,0.151928 -0.15503,0 -0.15503,-0.151928 0,-0.15813 0.15503,-0.15813 0.155029,0 0.155029,0.15813 z"
           id="text9484-1-5"
           style="font-size:6.35px;font-family:Candara;-inkscape-font-specification:'Candara, Normal';fill:#23631c;fill-opacity:0.439446;stroke-width:0.1;stroke-linejoin:round"
           aria-label="◌" />
        <path
           d="m 82.696871,11.824841 q -0.300485,0 -0.449746,-0.20818 -0.147297,-0.208179 -0.147297,-0.626503 0,-0.290666 0.07856,-0.483134 0.08052,-0.194432 0.218,-0.286738 0.139441,-0.09231 0.322089,-0.09231 0.170865,0 0.286738,0.06088 0.115874,0.06088 0.186576,0.170864 0.07267,0.108018 0.102126,0.261207 0.03142,0.151225 0.03142,0.333873 0,0.430107 -0.163009,0.650071 -0.161045,0.219963 -0.465459,0.219963 z m -0.306377,-0.86807 q 0,0.381008 0.07856,0.553837 0.07856,0.172828 0.249423,0.172828 0.161045,0 0.237639,-0.161045 0.07856,-0.161044 0.07856,-0.514557 0,-0.37708 -0.07856,-0.557765 -0.07659,-0.180684 -0.239603,-0.180684 -0.123729,0 -0.196396,0.08249 -0.0707,0.08249 -0.100162,0.233711 -0.02946,0.149261 -0.02946,0.371189 z"
           id="text9793-8"
           style="font-size:4.02219px;font-family:'Cambria Math';-inkscape-font-specification:'Cambria Math, Normal';fill:#279a1d;stroke-width:0.0633416;stroke-linejoin:round"
           transform="scale(0.97327029,1.0274638)"
           aria-label=" ₀" />
      </g>
    </g>
  </g>
  <g
     id="g23"
     inkscape:label="Guidelines"
     transform="translate(3,4.9999324)"
     style="display:none"
     sodipodi:insensitive="true">
    <path
       style="fill:none;stroke:#000000;stroke-width:0.02;stroke-dasharray:none;stroke-opacity:1"
       d="M -3,4.1000696 87,4.1"
       id="path23"
       sodipodi:nodetypes="cc"
       inkscape:label="Horizontal midline" />
    <path
       style="fill:none;stroke:#000000;stroke-width:0.0199792;stroke-dasharray:none;stroke-opacity:1"
       d="M 9,-4.8708171 V 84.942095 M 5.84,-4.8708171 V 84.942095 M 12.16,-4.8708191 V 84.942097"
       id="path24"
       sodipodi:nodetypes="cccccc"
       inkscape:label="Vertical midlines" />
    <use
       x="0"
       y="0"
       xlink:href="#path24"
       id="use24"
       transform="translate(22)" />
    <use
       x="0"
       y="0"
       xlink:href="#path24"
       id="use25"
       transform="translate(44)" />
    <use
       x="0"
       y="0"
       xlink:href="#path24"
       id="use26"
       transform="translate(66)" />
    <use
       x="0"
       y="0"
       xlink:href="#path23"
       id="use27"
       transform="translate(0,15.000068)" />
    <use
       x="0"
       y="0"
       xlink:href="#use27"
       id="use28"
       transform="translate(0,15)" />
  </g>
</svg>
