<?xml version="1.0" encoding="UTF-8" standalone="no"?>
<!-- Created with Inkscape (http://www.inkscape.org/) -->

<svg
   width="84mm"
   height="84mm"
   viewBox="0 0 84 84"
   version="1.1"
   id="svg3912"
   inkscape:version="1.2.1 (9c6d41e410, 2022-07-14)"
   sodipodi:docname="OEM_R2_front_face_text_as_paths.svg"
   xmlns:inkscape="http://www.inkscape.org/namespaces/inkscape"
   xmlns:sodipodi="http://sodipodi.sourceforge.net/DTD/sodipodi-0.dtd"
   xmlns:xlink="http://www.w3.org/1999/xlink"
   xmlns="http://www.w3.org/2000/svg"
   xmlns:svg="http://www.w3.org/2000/svg">
  <sodipodi:namedview
     id="namedview3914"
     pagecolor="#ffffff"
     bordercolor="#000000"
     borderopacity="0.25"
     inkscape:showpageshadow="2"
     inkscape:pageopacity="0.0"
     inkscape:pagecheckerboard="0"
     inkscape:deskcolor="#d1d1d1"
     inkscape:document-units="mm"
     showgrid="false"
     inkscape:zoom="2.8284271"
     inkscape:cx="125.51145"
     inkscape:cy="154.67961"
     inkscape:window-width="1923"
     inkscape:window-height="1230"
     inkscape:window-x="47"
     inkscape:window-y="35"
     inkscape:window-maximized="0"
     inkscape:current-layer="layer3"
     showguides="true" />
  <defs
     id="defs3909" />
  <g
     inkscape:label="Keycaps outline"
     inkscape:groupmode="layer"
     id="layer1"
     style="display:none"
     sodipodi:insensitive="true">
    <g
       id="g9334"
       inkscape:tile-cx="9.0003768"
       inkscape:tile-cy="4.25"
       inkscape:tile-w="18"
       inkscape:tile-h="8.5"
       inkscape:tile-x0="0.00037660493"
       inkscape:tile-y0="0">
      <path
         style="fill:none;fill-opacity:1;stroke:#000000;stroke-width:0.1;stroke-linejoin:round;stroke-miterlimit:4;stroke-dasharray:none;stroke-opacity:1"
         d="M 3.0003766,0 3.7660493e-4,8.5 H 18.000377 l -3,-8.5 c 0,0 -2.689123,1 -6.0000004,1 -3.310877,0 -6,-1 -6,-1 z"
         id="path5959"
         sodipodi:nodetypes="cccczc"
         inkscape:tile-cx="9.0706699"
         inkscape:tile-cy="4.314586"
         inkscape:tile-w="18.14134"
         inkscape:tile-h="8.614586"
         inkscape:tile-x0="-2.9862664e-09"
         inkscape:tile-y0="3.5889356e-09"
         inkscape:label="path5959" />
      <path
         style="fill:#53975f;fill-opacity:1;stroke:#939393;stroke-width:0.1;stroke-linejoin:round;stroke-miterlimit:4;stroke-dasharray:0.1, 0.1;stroke-dashoffset:0;stroke-opacity:1"
         d="M 0.62838541,6.7468749 H 17.363281"
         id="path9322" />
      <path
         style="fill:#53975f;fill-opacity:1;stroke:#939393;stroke-width:0.1;stroke-linejoin:round;stroke-miterlimit:4;stroke-dasharray:0.1, 0.1;stroke-dashoffset:0;stroke-opacity:1"
         d="M 6,0.761 V 6.7637343"
         id="path9324"
         sodipodi:nodetypes="cc" />
      <path
         style="fill:#53975f;fill-opacity:1;stroke:#939393;stroke-width:0.1;stroke-linejoin:round;stroke-miterlimit:4;stroke-dasharray:0.1, 0.1;stroke-dashoffset:0;stroke-opacity:1"
         d="M 12,0.73587238 V 6.7303385"
         id="path9326"
         sodipodi:nodetypes="cc" />
    </g>
    <use
       x="0"
       y="0"
       inkscape:tiled-clone-of="#g9334"
       xlink:href="#g9334"
       id="use9418" />
    <use
       x="0"
       y="0"
       inkscape:tiled-clone-of="#g9334"
       xlink:href="#g9334"
       transform="translate(0,25.166)"
       id="use9420" />
    <use
       x="0"
       y="0"
       inkscape:tiled-clone-of="#g9334"
       xlink:href="#g9334"
       transform="translate(0,50.332)"
       id="use9422" />
    <use
       x="0"
       y="0"
       inkscape:tiled-clone-of="#g9334"
       xlink:href="#g9334"
       transform="translate(0,75.498)"
       id="use9424" />
    <use
       x="0"
       y="0"
       inkscape:tiled-clone-of="#g9334"
       xlink:href="#g9334"
       transform="translate(22)"
       id="use9426" />
    <use
       x="0"
       y="0"
       inkscape:tiled-clone-of="#g9334"
       xlink:href="#g9334"
       transform="translate(22,25.166)"
       id="use9428" />
    <use
       x="0"
       y="0"
       inkscape:tiled-clone-of="#g9334"
       xlink:href="#g9334"
       transform="translate(22,50.332)"
       id="use9430" />
    <use
       x="0"
       y="0"
       inkscape:tiled-clone-of="#g9334"
       xlink:href="#g9334"
       transform="translate(22,75.498)"
       id="use9432" />
    <use
       x="0"
       y="0"
       inkscape:tiled-clone-of="#g9334"
       xlink:href="#g9334"
       transform="translate(44.000001)"
       id="use9434" />
    <use
       x="0"
       y="0"
       inkscape:tiled-clone-of="#g9334"
       xlink:href="#g9334"
       transform="translate(44.000001,25.166)"
       id="use9436" />
    <use
       x="0"
       y="0"
       inkscape:tiled-clone-of="#g9334"
       xlink:href="#g9334"
       transform="translate(44.000001,50.332)"
       id="use9438" />
    <use
       x="0"
       y="0"
       inkscape:tiled-clone-of="#g9334"
       xlink:href="#g9334"
       transform="translate(44.000001,75.498)"
       id="use9440" />
    <use
       x="0"
       y="0"
       inkscape:tiled-clone-of="#g9334"
       xlink:href="#g9334"
       transform="translate(66.000001)"
       id="use9442" />
    <use
       x="0"
       y="0"
       inkscape:tiled-clone-of="#g9334"
       xlink:href="#g9334"
       transform="translate(66.000001,25.166)"
       id="use9444" />
    <use
       x="0"
       y="0"
       inkscape:tiled-clone-of="#g9334"
       xlink:href="#g9334"
       transform="translate(66.000001,50.332)"
       id="use9446" />
    <use
       x="0"
       y="0"
       inkscape:tiled-clone-of="#g9334"
       xlink:href="#g9334"
       transform="translate(66.000001,75.498)"
       id="use9448" />
  </g>
  <g
     inkscape:groupmode="layer"
     id="layer4"
     inkscape:label="Undercolor"
     sodipodi:insensitive="true"
     style="display:inline">
    <path
       style="display:inline;fill:#eafeff;fill-opacity:1;stroke:none;stroke-width:0.1;stroke-linejoin:round;stroke-miterlimit:4;stroke-dasharray:none;stroke-opacity:1"
       d="M 9,8.4999327 17.999823,8.5 l -3,-8.5 C 14.999823,0 12.391014,0.99766758 9,0.99999998 9,1.5507331 9,7.7220314 9,8.4999327 Z"
       id="path5959-5"
       sodipodi:nodetypes="ccccc"
       inkscape:tile-cx="9.0706699"
       inkscape:tile-cy="4.314586"
       inkscape:tile-w="18.14134"
       inkscape:tile-h="8.614586"
       inkscape:tile-x0="-2.9862664e-09"
       inkscape:tile-y0="3.5889356e-09"
       inkscape:label="path5959" />
    <use
       x="0"
       y="0"
       inkscape:tiled-clone-of="#path5959-5"
       xlink:href="#path5959-5"
       id="use14357" />
    <use
       x="0"
       y="0"
       inkscape:tiled-clone-of="#path5959-5"
       xlink:href="#path5959-5"
       transform="translate(0,25.166)"
       id="use14359" />
    <use
       x="0"
       y="0"
       inkscape:tiled-clone-of="#path5959-5"
       xlink:href="#path5959-5"
       transform="translate(0,50.332)"
       id="use14361" />
    <use
       x="0"
       y="0"
       inkscape:tiled-clone-of="#path5959-5"
       xlink:href="#path5959-5"
       transform="translate(21.999823)"
       id="use14363" />
    <use
       x="0"
       y="0"
       inkscape:tiled-clone-of="#path5959-5"
       xlink:href="#path5959-5"
       transform="translate(21.999823,25.166)"
       id="use14365" />
    <use
       x="0"
       y="0"
       inkscape:tiled-clone-of="#path5959-5"
       xlink:href="#path5959-5"
       transform="translate(21.999823,50.332)"
       id="use14367" />
    <use
       x="0"
       y="0"
       inkscape:tiled-clone-of="#path5959-5"
       xlink:href="#path5959-5"
       transform="translate(43.999646)"
       id="use14369" />
    <use
       x="0"
       y="0"
       inkscape:tiled-clone-of="#path5959-5"
       xlink:href="#path5959-5"
       transform="translate(43.999646,25.166)"
       id="use14371" />
    <use
       x="0"
       y="0"
       inkscape:tiled-clone-of="#path5959-5"
       xlink:href="#path5959-5"
       transform="translate(43.999646,50.332)"
       id="use14373" />
    <use
       x="0"
       y="0"
       inkscape:tiled-clone-of="#path5959-5"
       xlink:href="#path5959-5"
       transform="translate(65.999469)"
       id="use14375" />
    <use
       x="0"
       y="0"
       inkscape:tiled-clone-of="#path5959-5"
       xlink:href="#path5959-5"
       transform="translate(65.999469,25.166)"
       id="use14377" />
    <use
       x="0"
       y="0"
       inkscape:tiled-clone-of="#path5959-5"
       xlink:href="#path5959-5"
       transform="translate(65.999469,50.332)"
       id="use14379" />
  </g>
  <g
     inkscape:groupmode="layer"
     id="layer5"
     inkscape:label="Multitap indicators">
    <circle
       style="display:inline;fill:#ff9ea2;fill-opacity:1;stroke:none;stroke-width:0.0575106;stroke-dasharray:none;stroke-opacity:1"
       id="use23567"
       cy="1.8935845"
       cx="58.516277"
       r="0.5" />
    <use
       x="0"
       y="0"
       xlink:href="#use23567"
       id="use15922"
       transform="translate(15.775781)" />
    <use
       x="0"
       y="0"
       xlink:href="#use23567"
       id="use15945"
       transform="translate(22.357292)" />
    <use
       x="0"
       y="0"
       xlink:href="#use23567"
       id="use16089"
       transform="translate(-28.277344,25.168489)" />
    <use
       x="0"
       y="0"
       xlink:href="#use16089"
       id="use16100"
       transform="translate(22.092709)" />
    <use
       x="0"
       y="0"
       xlink:href="#use23567"
       id="use16102"
       transform="translate(15.775781,25.168489)" />
    <use
       x="0"
       y="0"
       xlink:href="#use23567"
       id="use16394"
       transform="translate(-28.310417,50.370053)" />
    <use
       x="0"
       y="0"
       xlink:href="#use23567"
       id="use16396"
       transform="translate(22.158855,50.370053)" />
  </g>
  <g
     inkscape:groupmode="layer"
     id="layer3"
     inkscape:label="Symbols">
    <g
       aria-label="⋃ "
       id="text9062"
       style="font-size:5.64444px;font-family:'Cambria Math';-inkscape-font-specification:'Cambria Math, Normal';fill:#107907;stroke-width:0.1;stroke-linejoin:round">
      <path
         d="m 7.1120882,26.552749 h 0.4464841 v 2.598978 q 0,0.804773 -0.3996308,1.248501 -0.3996308,0.443728 -1.1658194,0.443728 -0.7661887,0 -1.1658195,-0.451996 Q 4.4304279,29.937208 4.4304279,29.035972 V 26.552749 H 4.876912 v 2.494247 q 0,0.722091 0.2811195,1.069357 0.2838757,0.344509 0.8350906,0.344509 0.5512148,0 0.8350905,-0.344509 0.2838756,-0.347266 0.2838756,-1.069357 z"
         id="path531" />
    </g>
    <g
       aria-label="⋂ "
       id="text9068"
       style="font-size:5.64444px;font-family:'Cambria Math';-inkscape-font-specification:'Cambria Math, Normal';fill:#107907;stroke-width:0.1;stroke-linejoin:round">
      <path
         d="M 10.870314,30.843956 H 10.42383 v -2.598978 q 0,-0.804773 0.39963,-1.248501 0.399631,-0.443728 1.16582,-0.443728 0.766189,0 1.163063,0.454752 0.399631,0.451996 0.399631,1.353232 v 2.483223 H 13.10549 v -2.494247 q 0,-0.722091 -0.283876,-1.066601 -0.281119,-0.347265 -0.832334,-0.347265 -0.551215,0 -0.835091,0.347265 -0.283875,0.34451 -0.283875,1.066601 z"
         id="path534" />
    </g>
    <g
       aria-label="∈ "
       id="text9074"
       style="font-size:5.64444px;font-family:'Cambria Math';-inkscape-font-specification:'Cambria Math, Normal';fill:#107907;stroke-width:0.1;stroke-linejoin:round">
      <path
         d="M 29.160381,28.251006 V 28.6341 h -2.276518 q 0.01378,0.256315 0.07441,0.454753 0.06063,0.198437 0.181901,0.338997 0.124024,0.137804 0.316949,0.203949 0.195681,0.06615 0.537434,0.06615 h 1.16582 v 0.383094 h -1.176844 q -0.270095,0 -0.468533,-0.03307 -0.198437,-0.03307 -0.358289,-0.107487 -0.159853,-0.07441 -0.303168,-0.223242 -0.14056,-0.151584 -0.228755,-0.333485 -0.08819,-0.181901 -0.132291,-0.410655 -0.0441,-0.228755 -0.0441,-0.496094 0,-0.43546 0.08544,-0.719335 0.08544,-0.286632 0.286632,-0.507118 0.201193,-0.223242 0.482313,-0.319705 0.281119,-0.09646 0.727603,-0.09646 h 1.129991 v 0.383094 h -1.132747 q -0.272851,0 -0.443728,0.03032 -0.16812,0.03032 -0.281119,0.09922 -0.112999,0.06615 -0.206706,0.190169 -0.09095,0.124023 -0.143316,0.305924 -0.05236,0.179145 -0.06615,0.407899 z"
         id="path537" />
    </g>
    <g
       aria-label="∅ "
       id="text9080"
       style="font-size:5.64444px;font-family:'Cambria Math';-inkscape-font-specification:'Cambria Math, Normal';fill:#107907;stroke-width:0.1;stroke-linejoin:round">
      <path
         d="m 35.064293,26.198938 -0.261827,0.655946 q 0.316949,0.206705 0.482313,0.614604 0.165365,0.407899 0.165365,0.972895 0,0.551214 -0.165365,0.959113 -0.162608,0.405143 -0.490581,0.622873 -0.325217,0.21773 -0.79375,0.21773 -0.281119,0 -0.509873,-0.07993 l -0.206706,0.520898 h -0.319704 l 0.259071,-0.650434 q -0.314193,-0.206705 -0.479557,-0.611848 -0.165365,-0.405143 -0.165365,-0.978406 0,-0.551215 0.162609,-0.956358 0.165364,-0.407899 0.490581,-0.625629 0.327973,-0.21773 0.796505,-0.21773 0.283876,0 0.507118,0.07993 l 0.209462,-0.523654 z m -1.675693,3.414776 0.997699,-2.51354 q -0.179145,-0.07441 -0.385851,-0.07441 -0.474044,0 -0.716579,0.35829 -0.242534,0.35829 -0.242534,1.058333 0,0.813041 0.347265,1.171331 z m 1.248502,-2.339907 -0.997699,2.510784 q 0.170876,0.07441 0.38585,0.07441 0.474045,0 0.716579,-0.35829 0.245291,-0.361046 0.245291,-1.058332 0,-0.80753 -0.350021,-1.168576 z"
         id="path540" />
    </g>
    <g
       aria-label="⊂ "
       id="text9086"
       style="font-size:5.64444px;font-family:'Cambria Math';-inkscape-font-specification:'Cambria Math, Normal';fill:#107907;stroke-width:0.1;stroke-linejoin:round">
      <path
         d="m 51.557199,29.385648 v 0.366558 h -1.907203 q -0.292144,0 -0.496094,-0.03032 -0.203949,-0.03307 -0.350021,-0.09646 -0.146072,-0.06615 -0.278364,-0.187413 -0.129535,-0.121267 -0.209461,-0.264583 -0.07717,-0.143316 -0.115755,-0.319705 -0.03859,-0.176389 -0.03859,-0.380338 0,-0.496094 0.176388,-0.763433 0.176389,-0.270095 0.471289,-0.407899 0.297656,-0.137803 0.879188,-0.137803 h 1.868618 v 0.366557 h -1.849326 q -0.316948,0 -0.496093,0.03859 -0.179145,0.03583 -0.305924,0.124024 -0.124024,0.08544 -0.206706,0.267339 -0.08268,0.179145 -0.08268,0.482313 0,0.261827 0.05512,0.438216 0.05512,0.173633 0.176389,0.292144 0.121267,0.115755 0.30868,0.165364 0.19017,0.04685 0.518142,0.04685 z"
         id="path543" />
    </g>
    <g
       aria-label="∖ "
       transform="scale(1.1785389,0.84850827)"
       id="text9092"
       style="font-size:5.64444px;font-family:'Cambria Math';-inkscape-font-specification:'Cambria Math, Normal';fill:#107907;stroke-width:0.0848508;stroke-linejoin:round">
      <path
         d="m 48.449673,36.455358 -2.259981,-5.129054 h 0.443728 l 2.254469,5.129054 z"
         id="path546" />
    </g>
    <g
       aria-label="⊆ "
       id="text9098"
       style="font-size:5.64444px;font-family:'Cambria Math';-inkscape-font-specification:'Cambria Math, Normal';fill:#107907;stroke-width:0.1;stroke-linejoin:round">
      <path
         d="m 73.540109,28.961212 v 0.366558 h -1.907203 q -0.292144,0 -0.496094,-0.03032 -0.203949,-0.03307 -0.350021,-0.09646 -0.146072,-0.06615 -0.278363,-0.187413 -0.129536,-0.121268 -0.209462,-0.264583 -0.07717,-0.143316 -0.115755,-0.319705 -0.03858,-0.176389 -0.03858,-0.380338 0,-0.496094 0.176388,-0.763433 0.176389,-0.270095 0.471289,-0.407899 0.297656,-0.137804 0.879188,-0.137804 h 1.868618 v 0.366558 h -1.849326 q -0.316948,0 -0.496093,0.03859 -0.179145,0.03583 -0.305924,0.124024 -0.124024,0.08544 -0.206706,0.267339 -0.08268,0.179145 -0.08268,0.482313 0,0.261827 0.05512,0.438216 0.05512,0.173632 0.176389,0.292144 0.121267,0.115755 0.308681,0.165364 0.190169,0.04685 0.518142,0.04685 z m -3.395483,1.193381 v -0.366558 h 3.395483 v 0.366558 z"
         id="path549" />
    </g>
    <g
       aria-label="⊔ "
       id="text9104"
       style="font-size:5.64444px;font-family:'Cambria Math';-inkscape-font-specification:'Cambria Math, Normal';fill:#107907;stroke-width:0.1;stroke-linejoin:round">
      <path
         d="m 76.887717,29.714482 h 2.031227 v -2.880098 h 0.391363 v 3.246655 h -2.813952 v -3.246655 h 0.391362 z"
         id="path552" />
    </g>
    <g
       aria-label="⋅ "
       id="text9110"
       style="font-size:5.64444px;font-family:'Cambria Math';-inkscape-font-specification:'Cambria Math, Normal';fill:#107907;stroke-width:0.1;stroke-linejoin:round">
      <path
         d="m 5.9882159,53.429698 q 0.1405598,0 0.2287542,0.09371 0.09095,0.09371 0.09095,0.242535 0,0.148828 -0.09095,0.242535 -0.088194,0.09371 -0.2287542,0.09371 -0.1405597,0 -0.2315102,-0.09371 -0.088194,-0.09371 -0.088194,-0.242535 0,-0.148828 0.088194,-0.242535 0.09095,-0.09371 0.2315102,-0.09371 z"
         id="path555" />
    </g>
    <g
       aria-label="⨯ "
       id="text9116"
       style="font-size:5.64444px;font-family:'Cambria Math';-inkscape-font-specification:'Cambria Math, Normal';fill:#107907;stroke-width:0.1;stroke-linejoin:round">
      <path
         d="m 12.358838,53.765943 0.881944,0.873675 -0.366558,0.366558 -0.873676,-0.8847 -0.873675,0.8847 -0.366558,-0.366558 0.881944,-0.873675 -0.881944,-0.873676 0.366558,-0.366558 0.873675,0.881944 0.873676,-0.881944 0.366558,0.363802 z"
         id="path558" />
    </g>
    <g
       aria-label="± "
       id="text9122"
       style="font-size:4.58611px;font-family:'Cambria Math';-inkscape-font-specification:'Cambria Math, Normal';fill:#107907;stroke-width:0.1;stroke-linejoin:round">
      <path
         d="m 26.666387,55.367342 v -0.297828 h 2.758832 v 0.297828 z m 1.531689,-1.8855 v 1.289843 h -0.311264 v -1.289843 h -1.220425 v -0.297829 h 1.220425 V 51.89417 h 0.311264 v 1.289843 h 1.224903 v 0.297829 z"
         id="path561" />
    </g>
    <g
       aria-label="∥ "
       id="text9128"
       style="font-size:5.64444px;font-family:'Cambria Math';-inkscape-font-specification:'Cambria Math, Normal';fill:#107907;stroke-width:0.1;stroke-linejoin:round">
      <path
         d="m 33.735545,56.069777 h -0.429948 v -4.313256 h 0.429948 z m 0.964626,0 h -0.429948 v -4.313256 h 0.429948 z"
         id="path564" />
    </g>
    <g
       aria-label="° "
       id="text9134"
       style="font-size:4.93889px;font-family:'Cambria Math';-inkscape-font-specification:'Cambria Math, Normal';fill:#107907;stroke-width:0.1;stroke-linejoin:round">
      <path
         d="m 51.561004,53.302897 q -0.209806,0 -0.371381,-0.09405 -0.159164,-0.09405 -0.24598,-0.258038 -0.08682,-0.166398 -0.08682,-0.373793 0,-0.204983 0.09164,-0.368969 0.09405,-0.166399 0.260449,-0.255627 0.166399,-0.09164 0.376205,-0.09164 0.207395,0 0.36897,0.09164 0.163986,0.09164 0.253214,0.255627 0.09164,0.163986 0.09164,0.371381 0,0.204983 -0.09646,0.371381 -0.09405,0.163987 -0.262861,0.258038 -0.168809,0.09405 -0.378616,0.09405 z m 0.01447,-1.203372 q -0.135048,0 -0.241157,0.0627 -0.106109,0.06029 -0.163987,0.16881 -0.05788,0.10852 -0.05788,0.248391 0,0.139871 0.05547,0.250803 0.05788,0.108521 0.163986,0.171221 0.108521,0.06029 0.243569,0.06029 0.137459,0 0.243568,-0.06029 0.10852,-0.0627 0.166398,-0.171221 0.05788,-0.110932 0.05788,-0.250803 0,-0.139871 -0.05788,-0.248391 -0.05788,-0.108521 -0.166398,-0.16881 -0.106109,-0.0627 -0.243568,-0.0627 z"
         id="path567" />
    </g>
    <g
       aria-label="∞ "
       id="text9140"
       style="font-size:5.64444px;font-family:'Cambria Math';-inkscape-font-specification:'Cambria Math, Normal';fill:#107907;stroke-width:0.1;stroke-linejoin:round">
      <path
         d="m 56.152861,54.371792 q -0.110243,0.220486 -0.237022,0.37207 -0.12678,0.151584 -0.264583,0.248046 -0.135048,0.09646 -0.278364,0.14056 -0.143316,0.04134 -0.286632,0.04134 -0.278363,0 -0.482313,-0.09371 -0.203949,-0.09646 -0.338997,-0.253559 -0.135048,-0.159852 -0.201193,-0.366558 -0.06615,-0.206706 -0.06615,-0.429948 0,-0.239778 0.07166,-0.443728 0.07166,-0.203949 0.203949,-0.352777 0.132292,-0.148828 0.319705,-0.23151 0.190169,-0.08544 0.427191,-0.08544 0.176389,0 0.325217,0.05788 0.151584,0.05512 0.278364,0.157096 0.126779,0.101975 0.23151,0.245291 0.104731,0.14056 0.192925,0.311436 0.115755,-0.23151 0.248047,-0.380338 0.132291,-0.151584 0.275607,-0.237022 0.143316,-0.0882 0.2949,-0.121268 0.15434,-0.03307 0.311437,-0.03307 0.225998,0 0.407899,0.08819 0.184657,0.08819 0.311436,0.242534 0.129536,0.151584 0.198437,0.355534 0.0689,0.201193 0.0689,0.427191 0,0.245291 -0.07166,0.454753 -0.07166,0.209461 -0.203949,0.363801 -0.132292,0.154341 -0.322461,0.242535 -0.190169,0.08819 -0.427191,0.08819 -0.176389,0 -0.322461,-0.06339 -0.143316,-0.06615 -0.264583,-0.173633 -0.118511,-0.110243 -0.21773,-0.256315 -0.09922,-0.148828 -0.181901,-0.314192 z m 0.124023,-0.209462 q 0.06339,0.14056 0.146072,0.272851 0.08268,0.132292 0.187413,0.237023 0.107487,0.101974 0.239779,0.165364 0.132291,0.06063 0.2949,0.06063 0.157096,0 0.281119,-0.06615 0.124024,-0.0689 0.209462,-0.187413 0.08819,-0.121267 0.132292,-0.283876 0.04685,-0.162608 0.04685,-0.355533 0,-0.151584 -0.03858,-0.283876 -0.03859,-0.135048 -0.118511,-0.23151 -0.07993,-0.09922 -0.20395,-0.15434 -0.121267,-0.05788 -0.289388,-0.05788 -0.148828,0 -0.275607,0.06615 -0.12678,0.06615 -0.237023,0.184657 -0.107486,0.115755 -0.201193,0.278363 -0.09095,0.162609 -0.173633,0.355534 z m -0.347265,-0.264583 q -0.162608,-0.37207 -0.388606,-0.534679 -0.223242,-0.165364 -0.487826,-0.165364 -0.137803,0 -0.267339,0.04961 -0.126779,0.04685 -0.225998,0.146072 -0.09646,0.09922 -0.15434,0.253559 -0.05788,0.151584 -0.05788,0.35829 0,0.173632 0.04134,0.32246 0.0441,0.148828 0.129536,0.259071 0.08819,0.107487 0.214974,0.170877 0.129535,0.06063 0.303168,0.06063 0.143316,0 0.256315,-0.06063 0.115755,-0.06339 0.21773,-0.179145 0.104731,-0.118511 0.203949,-0.289388 0.09922,-0.170876 0.214974,-0.391362 z"
         id="path570" />
    </g>
    <g
       aria-label="[  ] "
       id="text9146"
       style="font-size:4.58611px;font-family:'Cambria Math';-inkscape-font-specification:'Cambria Math, Normal';fill:#107907;stroke-width:0.1;stroke-linejoin:round">
      <path
         d="m 70.920169,56.162369 h -0.998733 v -4.270367 h 0.998733 v 0.172427 h -0.627007 v 3.925513 h 0.627007 z"
         id="path573" />
      <path
         d="m 73.132609,55.989942 h 0.627007 v -3.925513 h -0.627007 v -0.172427 h 0.998733 v 4.270367 h -0.998733 z"
         id="path575" />
    </g>
    <g
       aria-label="a/b "
       id="text9152"
       style="font-size:3.52778px;font-family:'Cambria Math';-inkscape-font-specification:'Cambria Math, Normal';fill:#107907;stroke-width:0.1;stroke-linejoin:round">
      <path
         d="m 76.588792,54.361845 -0.02584,-0.0069 q -0.149861,0.153307 -0.282498,0.217041 -0.130913,0.06373 -0.279053,0.06373 -0.130913,0 -0.230821,-0.04995 -0.09991,-0.05168 -0.153307,-0.142971 -0.0534,-0.09302 -0.0534,-0.213596 0,-0.251492 0.248047,-0.387574 0.24977,-0.137804 0.747586,-0.160197 v -0.111965 q 0,-0.179145 -0.03445,-0.282498 -0.03445,-0.103353 -0.10852,-0.151585 -0.07407,-0.04823 -0.198093,-0.04823 -0.134359,0 -0.217042,0.07062 -0.08096,0.07062 -0.1223,0.211874 h -0.225654 v -0.223931 q 0.165364,-0.08613 0.275607,-0.125746 0.110244,-0.04134 0.220487,-0.06373 0.110243,-0.02412 0.223931,-0.02412 0.170532,0 0.273885,0.05512 0.103353,0.0534 0.15503,0.165365 0.05168,0.111965 0.05168,0.337619 v 0.599447 q 0,0.127469 0.0017,0.180868 0.0017,0.05168 0.01033,0.09646 0.0086,0.04479 0.02584,0.07235 0.01723,0.02584 0.04995,0.04479 0.03445,0.01895 0.110243,0.03962 v 0.08441 h -0.471978 z m -0.02928,-0.539158 q -0.349677,0.0034 -0.523655,0.09302 -0.173977,0.08957 -0.173977,0.27044 0,0.09818 0.03962,0.155029 0.03962,0.05684 0.09991,0.07924 0.06029,0.02067 0.142972,0.02067 0.117133,0 0.211874,-0.05684 0.09646,-0.05684 0.149861,-0.144694 0.0534,-0.08785 0.0534,-0.173977 z"
         id="path578" />
      <path
         d="m 78.769538,52.143202 -1.24368,3.205664 h -0.27044 l 1.247125,-3.205664 z"
         id="path580" />
      <path
         d="m 79.479228,53.231853 0.0069,0.0017 q 0.120578,-0.125746 0.199815,-0.182591 0.08096,-0.05684 0.165365,-0.08613 0.08613,-0.03101 0.187758,-0.03101 0.184313,0 0.315226,0.09474 0.132637,0.09302 0.203261,0.280776 0.07235,0.187758 0.07235,0.45992 0,0.280776 -0.08613,0.475424 -0.0844,0.192925 -0.251492,0.292833 -0.165365,0.09819 -0.392742,0.09819 -0.127468,0 -0.241156,-0.02412 -0.111966,-0.02239 -0.23599,-0.08096 L 79.301806,54.63573 79.18295,54.60817 v -1.872411 q 0,-0.165365 -0.0034,-0.230822 -0.0017,-0.06546 -0.01378,-0.110243 -0.01034,-0.04651 -0.03101,-0.07235 -0.01895,-0.02584 -0.0534,-0.04134 -0.03273,-0.0155 -0.120579,-0.03101 v -0.08957 l 0.416857,-0.01723 h 0.10163 z m 0,0.756199 q 0,0.132636 0.01206,0.211873 0.01206,0.07751 0.03962,0.129192 0.02928,0.05168 0.08268,0.09474 0.05512,0.04306 0.122301,0.06029 0.06718,0.0155 0.149862,0.0155 0.206706,0 0.313504,-0.16881 0.106798,-0.16881 0.106798,-0.506429 0,-0.341065 -0.09819,-0.511597 -0.09646,-0.172255 -0.292834,-0.172255 -0.09819,0 -0.167087,0.03101 -0.0689,0.02928 -0.137804,0.09302 -0.06718,0.06374 -0.09991,0.125747 -0.03101,0.06201 -0.03101,0.141249 z"
         id="path582" />
    </g>
    <g
       id="text9624"
       style="font-size:6.35px;font-family:'Cambria Math';-inkscape-font-specification:'Cambria Math, Normal';fill:#107907;stroke-width:0.1;stroke-linejoin:round" />
    <g
       id="g9990"
       transform="translate(0.95882943,-8.4657623)">
      <g
         id="g9491"
         transform="translate(-1.0184972,6.0854166)">
        <g
           aria-label=" ⃗ "
           id="text9038"
           style="font-size:6.35px;font-family:'Cambria Math';-inkscape-font-specification:'Cambria Math, Normal';fill:#107907;stroke-width:0.1;stroke-linejoin:round">
          <path
             d="M 51.220651,4.224816 50.442404,4.8976431 50.278073,4.711608 50.774167,4.2806265 h -1.891358 v -0.291455 h 1.891358 L 50.278073,3.55819 50.442404,3.3721549 51.220651,4.044982 Z"
             id="path586" />
        </g>
      </g>
      <g
         aria-label="◌"
         id="text9484-1-6"
         style="font-size:6.35px;font-family:Candara;-inkscape-font-specification:'Candara, Normal';fill:#23631c;fill-opacity:0.439446;stroke-width:0.1;stroke-linejoin:round">
        <path
           d="m 50.185101,11.731948 q 0,0.15503 -0.148829,0.15503 -0.16123,0 -0.16123,-0.15503 0,-0.155029 0.16123,-0.155029 0.148829,0 0.148829,0.155029 z m -0.458887,-0.303857 q 0,0.151929 -0.148828,0.151929 -0.161231,0 -0.161231,-0.151929 0,-0.15813 0.161231,-0.15813 0.148828,0 0.148828,0.15813 z m 0.765845,0.762744 q 0,0.15813 -0.15813,0.15813 -0.151929,0 -0.151929,-0.15813 0,-0.151929 0.15813,-0.151929 0.151929,0 0.151929,0.151929 z m 0.111621,0.539502 q 0,0.155029 -0.148829,0.155029 -0.16123,0 -0.16123,-0.155029 0,-0.155029 0.16123,-0.155029 0.148829,0 0.148829,0.155029 z m -1.416968,-1.416968 q 0,0.15813 -0.155029,0.15813 -0.15503,0 -0.15503,-0.15813 0,-0.151928 0.15503,-0.151928 0.155029,0 0.155029,0.151928 z m -0.536402,0.114722 q 0,0.151929 -0.158129,0.151929 -0.151929,0 -0.151929,-0.151929 0,-0.15813 0.151929,-0.15813 0.158129,0 0.158129,0.15813 z m 1.841749,1.841748 q 0,0.151929 -0.15813,0.151929 -0.151929,0 -0.151929,-0.151929 0,-0.15813 0.151929,-0.15813 0.15813,0 0.15813,0.15813 z m -2.300635,-1.537891 q 0,0.15503 -0.15503,0.15503 -0.155029,0 -0.155029,-0.145728 0,-0.164331 0.155029,-0.164331 0.15503,0 0.15503,0.155029 z m 1.993677,2.002979 q 0,0.151929 -0.148829,0.151929 -0.16123,0 -0.16123,-0.151929 0,-0.15813 0.16123,-0.15813 0.148829,0 0.148829,0.15813 z m -0.458887,0.303857 q 0,0.148828 -0.148828,0.148828 -0.161231,0 -0.161231,-0.148828 0,-0.16123 0.161231,-0.16123 0.148828,0 0.148828,0.16123 z m -1.841748,-1.847949 q 0,0.15813 -0.148828,0.15813 -0.161231,0 -0.161231,-0.15813 0,-0.151929 0.155029,-0.151929 0.15503,0 0.15503,0.151929 z m -0.111621,0.539502 q 0,0.155029 -0.148828,0.155029 -0.161231,0 -0.161231,-0.155029 0,-0.155029 0.161231,-0.155029 0.148828,0 0.148828,0.155029 z m 1.413867,1.410767 q 0,0.158129 -0.155029,0.158129 -0.15503,0 -0.15503,-0.158129 0,-0.151929 0.15503,-0.151929 0.155029,0 0.155029,0.151929 z m -1.302246,-0.871265 q 0,0.151929 -0.15503,0.151929 -0.155029,0 -0.155029,-0.151929 0,-0.15813 0.155029,-0.15813 0.15503,0 0.15503,0.15813 z m 0.765844,0.756543 q 0,0.16123 -0.158129,0.16123 -0.151929,0 -0.151929,-0.148828 0,-0.16123 0.151929,-0.16123 0.158129,0 0.158129,0.148828 z m -0.458886,-0.291455 q 0,0.151929 -0.15503,0.151929 -0.155029,0 -0.155029,-0.151929 0,-0.15813 0.155029,-0.15813 0.15503,0 0.15503,0.15813 z"
           id="path589" />
      </g>
    </g>
    <g
       id="text9761"
       style="font-size:6.35px;font-family:'Cambria Math';-inkscape-font-specification:'Cambria Math, Normal';fill:#107907;stroke-width:0.1;stroke-linejoin:round" />
    <g
       id="text9765"
       style="font-size:6.35px;font-family:'Cambria Math';-inkscape-font-specification:'Cambria Math, Normal';fill:#107907;stroke-width:0.1;stroke-linejoin:round" />
    <g
       id="text9769"
       style="font-size:6.35px;font-family:'Cambria Math';-inkscape-font-specification:'Cambria Math, Normal';fill:#107907;stroke-width:0.1;stroke-linejoin:round" />
    <g
       id="g9803"
       transform="translate(-0.18708867,-7.6706354)">
      <g
         aria-label="◌"
         id="text9484-1"
         style="font-size:6.35px;font-family:Candara;-inkscape-font-specification:'Candara, Normal';fill:#23631c;fill-opacity:0.439446;stroke-width:0.1;stroke-linejoin:round">
        <path
           d="m 7.3417935,10.936822 q 0,0.15503 -0.1488281,0.15503 -0.1612305,0 -0.1612305,-0.15503 0,-0.155029 0.1612305,-0.155029 0.1488281,0 0.1488281,0.155029 z M 6.8829068,10.632965 q 0,0.151929 -0.1488281,0.151929 -0.1612305,0 -0.1612305,-0.151929 0,-0.15813 0.1612305,-0.15813 0.1488281,0 0.1488281,0.15813 z m 0.7658447,0.762744 q 0,0.15813 -0.1581299,0.15813 -0.1519287,0 -0.1519287,-0.15813 0,-0.151929 0.1581299,-0.151929 0.1519287,0 0.1519287,0.151929 z m 0.1116211,0.539502 q 0,0.155029 -0.1488281,0.155029 -0.1612305,0 -0.1612305,-0.155029 0,-0.155029 0.1612305,-0.155029 0.1488281,0 0.1488281,0.155029 z M 6.3434048,10.518243 q 0,0.15813 -0.1550293,0.15813 -0.1550293,0 -0.1550293,-0.15813 0,-0.151928 0.1550293,-0.151928 0.1550293,0 0.1550293,0.151928 z m -0.5364013,0.114722 q 0,0.151929 -0.1581299,0.151929 -0.1519287,0 -0.1519287,-0.151929 0,-0.15813 0.1519287,-0.15813 0.1581299,0 0.1581299,0.15813 z m 1.841748,1.841748 q 0,0.151929 -0.1581299,0.151929 -0.1519287,0 -0.1519287,-0.151929 0,-0.15813 0.1519287,-0.15813 0.1581299,0 0.1581299,0.15813 z M 5.3481168,10.936822 q 0,0.15503 -0.1550293,0.15503 -0.1550293,0 -0.1550293,-0.145728 0,-0.164331 0.1550293,-0.164331 0.1550293,0 0.1550293,0.155029 z m 1.9936767,2.002979 q 0,0.151929 -0.1488281,0.151929 -0.1612305,0 -0.1612305,-0.151929 0,-0.15813 0.1612305,-0.15813 0.1488281,0 0.1488281,0.15813 z m -0.4588867,0.303857 q 0,0.148828 -0.1488281,0.148828 -0.1612305,0 -0.1612305,-0.148828 0,-0.16123 0.1612305,-0.16123 0.1488281,0 0.1488281,0.16123 z m -1.841748,-1.847949 q 0,0.15813 -0.1488282,0.15813 -0.1612304,0 -0.1612304,-0.15813 0,-0.151929 0.1550293,-0.151929 0.1550293,0 0.1550293,0.151929 z m -0.1116211,0.539502 q 0,0.155029 -0.1488282,0.155029 -0.1612304,0 -0.1612304,-0.155029 0,-0.155029 0.1612304,-0.155029 0.1488282,0 0.1488282,0.155029 z m 1.4138671,1.410767 q 0,0.158129 -0.1550293,0.158129 -0.1550293,0 -0.1550293,-0.158129 0,-0.151929 0.1550293,-0.151929 0.1550293,0 0.1550293,0.151929 z m -1.302246,-0.871265 q 0,0.151929 -0.1550293,0.151929 -0.1550293,0 -0.1550293,-0.151929 0,-0.15813 0.1550293,-0.15813 0.1550293,0 0.1550293,0.15813 z m 0.7658447,0.756543 q 0,0.16123 -0.1581299,0.16123 -0.1519287,0 -0.1519287,-0.148828 0,-0.16123 0.1519287,-0.16123 0.1581299,0 0.1581299,0.148828 z M 5.3481168,12.939801 q 0,0.151929 -0.1550293,0.151929 -0.1550293,0 -0.1550293,-0.151929 0,-0.15813 0.1550293,-0.15813 0.1550293,0 0.1550293,0.15813 z"
           id="path595" />
      </g>
      <g
         aria-label=" ̂"
         id="text9773"
         style="font-size:6.35px;font-family:'Cambria Math';-inkscape-font-specification:'Cambria Math, Normal';fill:#107907;stroke-width:0.1;stroke-linejoin:round">
        <path
           d="M 6.4116179,8.9983651 7.0782439,9.9750496 6.8612028,10.151783 6.2038786,9.3983407 H 6.1697722 L 5.512448,10.151783 5.3016081,9.9750496 5.9961394,8.9983651 Z"
           id="path598" />
      </g>
    </g>
    <g
       id="g9809"
       transform="translate(-1.403165,-7.1561416)">
      <g
         aria-label="◌"
         id="text9484-1-9"
         style="font-size:6.35px;font-family:Candara;-inkscape-font-specification:'Candara, Normal';fill:#23631c;fill-opacity:0.439446;stroke-width:0.1;stroke-linejoin:round">
        <path
           d="m 14.544707,10.422328 q 0,0.15503 -0.148828,0.15503 -0.16123,0 -0.16123,-0.15503 0,-0.155029 0.16123,-0.155029 0.148828,0 0.148828,0.155029 z m -0.458886,-0.303857 q 0,0.151929 -0.148829,0.151929 -0.16123,0 -0.16123,-0.151929 0,-0.1581299 0.16123,-0.1581299 0.148829,0 0.148829,0.1581299 z m 0.765844,0.762744 q 0,0.15813 -0.15813,0.15813 -0.151928,0 -0.151928,-0.15813 0,-0.151929 0.15813,-0.151929 0.151928,0 0.151928,0.151929 z m 0.111621,0.539502 q 0,0.155029 -0.148828,0.155029 -0.16123,0 -0.16123,-0.155029 0,-0.155029 0.16123,-0.155029 0.148828,0 0.148828,0.155029 z m -1.416967,-1.416968 q 0,0.15813 -0.15503,0.15813 -0.155029,0 -0.155029,-0.15813 0,-0.1519284 0.155029,-0.1519284 0.15503,0 0.15503,0.1519284 z m -0.536402,0.114722 q 0,0.151929 -0.15813,0.151929 -0.151928,0 -0.151928,-0.151929 0,-0.1581299 0.151928,-0.1581299 0.15813,0 0.15813,0.1581299 z m 1.841748,1.841748 q 0,0.151929 -0.15813,0.151929 -0.151928,0 -0.151928,-0.151929 0,-0.15813 0.151928,-0.15813 0.15813,0 0.15813,0.15813 z m -2.300634,-1.537891 q 0,0.15503 -0.15503,0.15503 -0.155029,0 -0.155029,-0.145728 0,-0.164331 0.155029,-0.164331 0.15503,0 0.15503,0.155029 z m 1.993676,2.002979 q 0,0.151929 -0.148828,0.151929 -0.16123,0 -0.16123,-0.151929 0,-0.15813 0.16123,-0.15813 0.148828,0 0.148828,0.15813 z m -0.458886,0.303857 q 0,0.148828 -0.148829,0.148828 -0.16123,0 -0.16123,-0.148828 0,-0.16123 0.16123,-0.16123 0.148829,0 0.148829,0.16123 z m -1.841748,-1.847949 q 0,0.15813 -0.148829,0.15813 -0.16123,0 -0.16123,-0.15813 0,-0.151929 0.155029,-0.151929 0.15503,0 0.15503,0.151929 z m -0.111622,0.539502 q 0,0.155029 -0.148828,0.155029 -0.16123,0 -0.16123,-0.155029 0,-0.155029 0.16123,-0.155029 0.148828,0 0.148828,0.155029 z m 1.413868,1.410767 q 0,0.15813 -0.15503,0.15813 -0.155029,0 -0.155029,-0.15813 0,-0.151929 0.155029,-0.151929 0.15503,0 0.15503,0.151929 z m -1.302246,-0.871265 q 0,0.151929 -0.15503,0.151929 -0.155029,0 -0.155029,-0.151929 0,-0.15813 0.155029,-0.15813 0.15503,0 0.15503,0.15813 z m 0.765844,0.756543 q 0,0.16123 -0.15813,0.16123 -0.151928,0 -0.151928,-0.148828 0,-0.16123 0.151928,-0.16123 0.15813,0 0.15813,0.148828 z m -0.458886,-0.291455 q 0,0.151929 -0.15503,0.151929 -0.155029,0 -0.155029,-0.151929 0,-0.15813 0.155029,-0.15813 0.15503,0 0.15503,0.15813 z"
           id="path601" />
      </g>
      <g
         aria-label=" ̌"
         id="text9777"
         style="font-size:6.35px;font-family:'Cambria Math';-inkscape-font-specification:'Cambria Math, Normal';fill:#107907;stroke-width:0.1;stroke-linejoin:round">
        <path
           d="m 13.166497,9.6463263 -0.660425,-0.9766845 0.21084,-0.1767334 0.657324,0.7534423 h 0.03411 l 0.657325,-0.7534423 0.21394,0.1767334 -0.697632,0.9766845 z"
           id="path604" />
      </g>
    </g>
    <g
       id="g9815"
       transform="translate(1.1459181,-8.4657623)">
      <g
         aria-label="◌"
         id="text9484-1-1"
         style="font-size:6.35px;font-family:Candara;-inkscape-font-specification:'Candara, Normal';fill:#23631c;fill-opacity:0.439446;stroke-width:0.1;stroke-linejoin:round">
        <path
           d="m 28.015091,11.731949 q 0,0.15503 -0.148828,0.15503 -0.161231,0 -0.161231,-0.15503 0,-0.155029 0.161231,-0.155029 0.148828,0 0.148828,0.155029 z m -0.458887,-0.303857 q 0,0.151929 -0.148828,0.151929 -0.16123,0 -0.16123,-0.151929 0,-0.15813 0.16123,-0.15813 0.148828,0 0.148828,0.15813 z m 0.765845,0.762744 q 0,0.15813 -0.15813,0.15813 -0.151929,0 -0.151929,-0.15813 0,-0.151929 0.15813,-0.151929 0.151929,0 0.151929,0.151929 z m 0.111621,0.539502 q 0,0.155029 -0.148828,0.155029 -0.161231,0 -0.161231,-0.155029 0,-0.155029 0.161231,-0.155029 0.148828,0 0.148828,0.155029 z M 27.016702,11.31337 q 0,0.15813 -0.155029,0.15813 -0.155029,0 -0.155029,-0.15813 0,-0.151929 0.155029,-0.151929 0.155029,0 0.155029,0.151929 z m -0.536401,0.114722 q 0,0.151929 -0.15813,0.151929 -0.151929,0 -0.151929,-0.151929 0,-0.15813 0.151929,-0.15813 0.15813,0 0.15813,0.15813 z m 1.841748,1.841748 q 0,0.151929 -0.15813,0.151929 -0.151929,0 -0.151929,-0.151929 0,-0.15813 0.151929,-0.15813 0.15813,0 0.15813,0.15813 z m -2.300635,-1.537891 q 0,0.15503 -0.155029,0.15503 -0.155029,0 -0.155029,-0.145728 0,-0.164331 0.155029,-0.164331 0.155029,0 0.155029,0.155029 z m 1.993677,2.002979 q 0,0.151928 -0.148828,0.151928 -0.161231,0 -0.161231,-0.151928 0,-0.15813 0.161231,-0.15813 0.148828,0 0.148828,0.15813 z m -0.458887,0.303857 q 0,0.148828 -0.148828,0.148828 -0.16123,0 -0.16123,-0.148828 0,-0.16123 0.16123,-0.16123 0.148828,0 0.148828,0.16123 z m -1.841748,-1.847949 q 0,0.15813 -0.148828,0.15813 -0.16123,0 -0.16123,-0.15813 0,-0.151929 0.155029,-0.151929 0.155029,0 0.155029,0.151929 z m -0.111621,0.539502 q 0,0.155029 -0.148828,0.155029 -0.161231,0 -0.161231,-0.155029 0,-0.155029 0.161231,-0.155029 0.148828,0 0.148828,0.155029 z m 1.413867,1.410767 q 0,0.158129 -0.155029,0.158129 -0.155029,0 -0.155029,-0.158129 0,-0.151929 0.155029,-0.151929 0.155029,0 0.155029,0.151929 z M 25.714456,13.26984 q 0,0.151929 -0.155029,0.151929 -0.155029,0 -0.155029,-0.151929 0,-0.15813 0.155029,-0.15813 0.155029,0 0.155029,0.15813 z m 0.765845,0.756543 q 0,0.16123 -0.15813,0.16123 -0.151929,0 -0.151929,-0.148828 0,-0.16123 0.151929,-0.16123 0.15813,0 0.15813,0.148828 z m -0.458887,-0.291455 q 0,0.151928 -0.155029,0.151928 -0.155029,0 -0.155029,-0.151928 0,-0.15813 0.155029,-0.15813 0.155029,0 0.155029,0.15813 z"
           id="path607" />
      </g>
      <g
         aria-label=" ̃"
         id="text9781"
         style="font-size:6.35px;font-family:'Cambria Math';-inkscape-font-specification:'Cambria Math, Normal';fill:#107907;stroke-width:0.1;stroke-linejoin:round">
        <path
           d="m 27.647671,10.164753 0.241846,0.10542 q -0.117822,0.254248 -0.223242,0.393774 -0.108521,0.136426 -0.204639,0.189136 -0.09922,0.04961 -0.223242,0.04961 -0.08372,0 -0.145727,-0.0155 -0.06201,-0.0186 -0.120923,-0.04961 -0.06201,-0.03411 -0.189136,-0.120923 -0.08372,-0.05581 -0.130225,-0.08682 -0.04961,-0.03101 -0.102319,-0.04961 -0.05271,-0.0217 -0.111621,-0.0217 -0.08061,0 -0.133325,0.03101 -0.05581,0.03101 -0.111621,0.108521 -0.05581,0.07751 -0.114722,0.204638 l -0.241846,-0.10542 q 0.148828,-0.297656 0.241846,-0.412378 0.09302,-0.117822 0.192236,-0.167431 0.09612,-0.05271 0.232544,-0.05271 0.07441,0 0.136426,0.0186 0.05891,0.0155 0.111621,0.04341 0.04961,0.02791 0.173633,0.111621 0.08992,0.06201 0.142627,0.09612 0.05271,0.03411 0.10852,0.05581 0.05581,0.0186 0.127124,0.0186 0.09922,0 0.176734,-0.07441 0.07751,-0.07752 0.167431,-0.269751 z"
           id="path610" />
      </g>
    </g>
    <g
       id="g9996"
       transform="translate(-1.4733233,-8.4657623)">
      <g
         aria-label="◌"
         id="text9484-1-3"
         style="font-size:6.35px;font-family:Candara;-inkscape-font-specification:'Candara, Normal';fill:#23631c;fill-opacity:0.439446;stroke-width:0.1;stroke-linejoin:round">
        <path
           d="m 36.62117,11.731949 q 0,0.15503 -0.148828,0.15503 -0.161231,0 -0.161231,-0.15503 0,-0.155029 0.161231,-0.155029 0.148828,0 0.148828,0.155029 z m -0.458887,-0.303857 q 0,0.151929 -0.148828,0.151929 -0.16123,0 -0.16123,-0.151929 0,-0.15813 0.16123,-0.15813 0.148828,0 0.148828,0.15813 z m 0.765845,0.762744 q 0,0.15813 -0.15813,0.15813 -0.151929,0 -0.151929,-0.15813 0,-0.151929 0.15813,-0.151929 0.151929,0 0.151929,0.151929 z m 0.111621,0.539502 q 0,0.155029 -0.148828,0.155029 -0.16123,0 -0.16123,-0.155029 0,-0.155029 0.16123,-0.155029 0.148828,0 0.148828,0.155029 z M 35.622781,11.31337 q 0,0.15813 -0.155029,0.15813 -0.155029,0 -0.155029,-0.15813 0,-0.151929 0.155029,-0.151929 0.155029,0 0.155029,0.151929 z m -0.536401,0.114722 q 0,0.151929 -0.15813,0.151929 -0.151929,0 -0.151929,-0.151929 0,-0.15813 0.151929,-0.15813 0.15813,0 0.15813,0.15813 z m 1.841748,1.841748 q 0,0.151929 -0.15813,0.151929 -0.151929,0 -0.151929,-0.151929 0,-0.15813 0.151929,-0.15813 0.15813,0 0.15813,0.15813 z m -2.300635,-1.537891 q 0,0.15503 -0.155029,0.15503 -0.155029,0 -0.155029,-0.145728 0,-0.164331 0.155029,-0.164331 0.155029,0 0.155029,0.155029 z m 1.993677,2.002979 q 0,0.151928 -0.148828,0.151928 -0.161231,0 -0.161231,-0.151928 0,-0.15813 0.161231,-0.15813 0.148828,0 0.148828,0.15813 z m -0.458887,0.303857 q 0,0.148828 -0.148828,0.148828 -0.16123,0 -0.16123,-0.148828 0,-0.16123 0.16123,-0.16123 0.148828,0 0.148828,0.16123 z m -1.841748,-1.847949 q 0,0.15813 -0.148828,0.15813 -0.16123,0 -0.16123,-0.15813 0,-0.151929 0.155029,-0.151929 0.155029,0 0.155029,0.151929 z m -0.111621,0.539502 q 0,0.155029 -0.148828,0.155029 -0.16123,0 -0.16123,-0.155029 0,-0.155029 0.16123,-0.155029 0.148828,0 0.148828,0.155029 z m 1.413867,1.410767 q 0,0.158129 -0.155029,0.158129 -0.155029,0 -0.155029,-0.158129 0,-0.151929 0.155029,-0.151929 0.155029,0 0.155029,0.151929 z M 34.320535,13.26984 q 0,0.151929 -0.155029,0.151929 -0.155029,0 -0.155029,-0.151929 0,-0.15813 0.155029,-0.15813 0.155029,0 0.155029,0.15813 z m 0.765845,0.756543 q 0,0.16123 -0.15813,0.16123 -0.151929,0 -0.151929,-0.148828 0,-0.16123 0.151929,-0.16123 0.15813,0 0.15813,0.148828 z m -0.458887,-0.291455 q 0,0.151928 -0.155029,0.151928 -0.155029,0 -0.155029,-0.151928 0,-0.15813 0.155029,-0.15813 0.155029,0 0.155029,0.15813 z"
           id="path613" />
      </g>
      <g
         aria-label=" ̄"
         id="text9785"
         style="font-size:6.35px;font-family:'Cambria Math';-inkscape-font-specification:'Cambria Math, Normal';fill:#107907;stroke-width:0.1;stroke-linejoin:round">
        <path
           d="m 36.287859,10.909419 h -1.63711 v -0.387574 h 1.63711 z"
           id="path616" />
      </g>
    </g>
    <g
       id="g9982"
       transform="translate(-0.46772167,-8.4657623)">
      <g
         aria-label="◌"
         id="text9484-1-32"
         style="font-size:6.35px;font-family:Candara;-inkscape-font-specification:'Candara, Normal';fill:#23631c;fill-opacity:0.439446;stroke-width:0.1;stroke-linejoin:round">
        <path
           d="m 57.621872,11.731949 q 0,0.15503 -0.148828,0.15503 -0.161231,0 -0.161231,-0.15503 0,-0.155029 0.161231,-0.155029 0.148828,0 0.148828,0.155029 z m -0.458887,-0.303857 q 0,0.151929 -0.148828,0.151929 -0.16123,0 -0.16123,-0.151929 0,-0.15813 0.16123,-0.15813 0.148828,0 0.148828,0.15813 z m 0.765845,0.762744 q 0,0.15813 -0.15813,0.15813 -0.151929,0 -0.151929,-0.15813 0,-0.151929 0.15813,-0.151929 0.151929,0 0.151929,0.151929 z m 0.111621,0.539502 q 0,0.155029 -0.148828,0.155029 -0.161231,0 -0.161231,-0.155029 0,-0.155029 0.161231,-0.155029 0.148828,0 0.148828,0.155029 z M 56.623483,11.31337 q 0,0.15813 -0.155029,0.15813 -0.155029,0 -0.155029,-0.15813 0,-0.151929 0.155029,-0.151929 0.155029,0 0.155029,0.151929 z m -0.536401,0.114722 q 0,0.151929 -0.15813,0.151929 -0.151929,0 -0.151929,-0.151929 0,-0.15813 0.151929,-0.15813 0.15813,0 0.15813,0.15813 z m 1.841748,1.841748 q 0,0.151929 -0.15813,0.151929 -0.151929,0 -0.151929,-0.151929 0,-0.15813 0.151929,-0.15813 0.15813,0 0.15813,0.15813 z m -2.300635,-1.537891 q 0,0.15503 -0.155029,0.15503 -0.155029,0 -0.155029,-0.145728 0,-0.164331 0.155029,-0.164331 0.155029,0 0.155029,0.155029 z m 1.993677,2.002979 q 0,0.151928 -0.148828,0.151928 -0.161231,0 -0.161231,-0.151928 0,-0.15813 0.161231,-0.15813 0.148828,0 0.148828,0.15813 z m -0.458887,0.303857 q 0,0.148828 -0.148828,0.148828 -0.16123,0 -0.16123,-0.148828 0,-0.16123 0.16123,-0.16123 0.148828,0 0.148828,0.16123 z m -1.841748,-1.847949 q 0,0.15813 -0.148828,0.15813 -0.16123,0 -0.16123,-0.15813 0,-0.151929 0.155029,-0.151929 0.155029,0 0.155029,0.151929 z m -0.111621,0.539502 q 0,0.155029 -0.148828,0.155029 -0.161231,0 -0.161231,-0.155029 0,-0.155029 0.161231,-0.155029 0.148828,0 0.148828,0.155029 z m 1.413867,1.410767 q 0,0.158129 -0.155029,0.158129 -0.155029,0 -0.155029,-0.158129 0,-0.151929 0.155029,-0.151929 0.155029,0 0.155029,0.151929 z M 55.321237,13.26984 q 0,0.151929 -0.155029,0.151929 -0.155029,0 -0.155029,-0.151929 0,-0.15813 0.155029,-0.15813 0.155029,0 0.155029,0.15813 z m 0.765845,0.756543 q 0,0.16123 -0.15813,0.16123 -0.151929,0 -0.151929,-0.148828 0,-0.16123 0.151929,-0.16123 0.15813,0 0.15813,0.148828 z m -0.458887,-0.291455 q 0,0.151928 -0.155029,0.151928 -0.155029,0 -0.155029,-0.151928 0,-0.15813 0.155029,-0.15813 0.155029,0 0.155029,0.15813 z"
           id="path619" />
      </g>
      <g
         aria-label=" ̇"
         id="text9789"
         style="font-size:6.35px;font-family:'Cambria Math';-inkscape-font-specification:'Cambria Math, Normal';fill:#107907;stroke-width:0.1;stroke-linejoin:round">
        <path
           d="m 56.484472,10.898821 q -0.148828,0 -0.248047,-0.102319 -0.09922,-0.10542 -0.09922,-0.26355 0,-0.15813 0.09922,-0.260449 0.09922,-0.10542 0.248047,-0.10542 0.145727,0 0.244946,0.10542 0.09922,0.102319 0.09922,0.260449 0,0.15813 -0.09922,0.26355 -0.09922,0.102319 -0.244946,0.102319 z"
           id="path622" />
      </g>
    </g>
    <g
       id="g9970"
       transform="translate(0.7221314,-9.4936688)">
      <g
         aria-label="◌"
         id="text9484-1-2"
         style="font-size:6.35px;font-family:Candara;-inkscape-font-specification:'Candara, Normal';fill:#23631c;fill-opacity:0.439446;stroke-width:0.1;stroke-linejoin:round">
        <path
           d="m 72.448654,11.731949 q 0,0.15503 -0.148828,0.15503 -0.16123,0 -0.16123,-0.15503 0,-0.155029 0.16123,-0.155029 0.148828,0 0.148828,0.155029 z m -0.458887,-0.303857 q 0,0.151929 -0.148828,0.151929 -0.16123,0 -0.16123,-0.151929 0,-0.15813 0.16123,-0.15813 0.148828,0 0.148828,0.15813 z m 0.765845,0.762744 q 0,0.15813 -0.15813,0.15813 -0.151928,0 -0.151928,-0.15813 0,-0.151929 0.158129,-0.151929 0.151929,0 0.151929,0.151929 z m 0.111621,0.539502 q 0,0.155029 -0.148828,0.155029 -0.16123,0 -0.16123,-0.155029 0,-0.155029 0.16123,-0.155029 0.148828,0 0.148828,0.155029 z M 71.450265,11.31337 q 0,0.15813 -0.155029,0.15813 -0.155029,0 -0.155029,-0.15813 0,-0.151929 0.155029,-0.151929 0.155029,0 0.155029,0.151929 z m -0.536401,0.114722 q 0,0.151929 -0.15813,0.151929 -0.151928,0 -0.151928,-0.151929 0,-0.15813 0.151928,-0.15813 0.15813,0 0.15813,0.15813 z m 1.841748,1.841748 q 0,0.151929 -0.15813,0.151929 -0.151928,0 -0.151928,-0.151929 0,-0.15813 0.151928,-0.15813 0.15813,0 0.15813,0.15813 z m -2.300635,-1.537891 q 0,0.15503 -0.155029,0.15503 -0.155029,0 -0.155029,-0.145728 0,-0.164331 0.155029,-0.164331 0.155029,0 0.155029,0.155029 z m 1.993677,2.002979 q 0,0.151928 -0.148828,0.151928 -0.16123,0 -0.16123,-0.151928 0,-0.15813 0.16123,-0.15813 0.148828,0 0.148828,0.15813 z m -0.458887,0.303857 q 0,0.148828 -0.148828,0.148828 -0.16123,0 -0.16123,-0.148828 0,-0.16123 0.16123,-0.16123 0.148828,0 0.148828,0.16123 z m -1.841748,-1.847949 q 0,0.15813 -0.148828,0.15813 -0.16123,0 -0.16123,-0.15813 0,-0.151929 0.155029,-0.151929 0.155029,0 0.155029,0.151929 z m -0.111621,0.539502 q 0,0.155029 -0.148828,0.155029 -0.16123,0 -0.16123,-0.155029 0,-0.155029 0.16123,-0.155029 0.148828,0 0.148828,0.155029 z m 1.413867,1.410767 q 0,0.158129 -0.155029,0.158129 -0.155029,0 -0.155029,-0.158129 0,-0.151929 0.155029,-0.151929 0.155029,0 0.155029,0.151929 z M 70.148019,13.26984 q 0,0.151929 -0.155029,0.151929 -0.155029,0 -0.155029,-0.151929 0,-0.15813 0.155029,-0.15813 0.155029,0 0.155029,0.15813 z m 0.765845,0.756543 q 0,0.16123 -0.15813,0.16123 -0.151928,0 -0.151928,-0.148828 0,-0.16123 0.151928,-0.16123 0.15813,0 0.15813,0.148828 z m -0.458887,-0.291455 q 0,0.151928 -0.155029,0.151928 -0.155029,0 -0.155029,-0.151928 0,-0.15813 0.155029,-0.15813 0.155029,0 0.155029,0.15813 z"
           id="path625" />
      </g>
      <g
         aria-label=" ₀"
         transform="scale(0.97327029,1.0274638)"
         id="text9793"
         style="font-size:4.02219px;font-family:'Cambria Math';-inkscape-font-specification:'Cambria Math, Normal';fill:#107907;stroke-width:0.0633416;stroke-linejoin:round">
        <path
           d="m 75.280314,14.7503 q -0.300486,0 -0.449747,-0.20818 -0.147297,-0.208179 -0.147297,-0.626503 0,-0.290666 0.07856,-0.483134 0.08052,-0.194432 0.217999,-0.286738 0.139441,-0.09231 0.32209,-0.09231 0.170864,0 0.286738,0.06088 0.115874,0.06088 0.186576,0.170865 0.07267,0.108018 0.102126,0.261207 0.03142,0.151225 0.03142,0.333873 0,0.430107 -0.163008,0.650071 -0.161045,0.219963 -0.465459,0.219963 z m -0.306378,-0.86807 q 0,0.381008 0.07856,0.553837 0.07856,0.172828 0.249423,0.172828 0.161044,0 0.237639,-0.161045 0.07856,-0.161044 0.07856,-0.514557 0,-0.377081 -0.07856,-0.557765 -0.07659,-0.180684 -0.239603,-0.180684 -0.12373,0 -0.196396,0.08249 -0.0707,0.08249 -0.100162,0.233711 -0.02946,0.149261 -0.02946,0.371189 z"
           id="path628" />
      </g>
    </g>
    <g
       id="g9976"
       transform="translate(-0.53103033,-9.5064448)">
      <g
         aria-label="◌"
         id="text9484-1-5"
         style="font-size:6.35px;font-family:Candara;-inkscape-font-specification:'Candara, Normal';fill:#23631c;fill-opacity:0.439446;stroke-width:0.1;stroke-linejoin:round">
        <path
           d="m 79.698334,11.731949 q 0,0.15503 -0.148828,0.15503 -0.161231,0 -0.161231,-0.15503 0,-0.155029 0.161231,-0.155029 0.148828,0 0.148828,0.155029 z m -0.458887,-0.303857 q 0,0.151929 -0.148828,0.151929 -0.161231,0 -0.161231,-0.151929 0,-0.15813 0.161231,-0.15813 0.148828,0 0.148828,0.15813 z m 0.765845,0.762744 q 0,0.15813 -0.15813,0.15813 -0.151929,0 -0.151929,-0.15813 0,-0.151929 0.15813,-0.151929 0.151929,0 0.151929,0.151929 z m 0.111621,0.539502 q 0,0.155029 -0.148828,0.155029 -0.161231,0 -0.161231,-0.155029 0,-0.155029 0.161231,-0.155029 0.148828,0 0.148828,0.155029 z M 78.699945,11.31337 q 0,0.15813 -0.155029,0.15813 -0.15503,0 -0.15503,-0.15813 0,-0.151929 0.15503,-0.151929 0.155029,0 0.155029,0.151929 z m -0.536401,0.114722 q 0,0.151929 -0.15813,0.151929 -0.151929,0 -0.151929,-0.151929 0,-0.15813 0.151929,-0.15813 0.15813,0 0.15813,0.15813 z m 1.841748,1.841748 q 0,0.151929 -0.15813,0.151929 -0.151929,0 -0.151929,-0.151929 0,-0.15813 0.151929,-0.15813 0.15813,0 0.15813,0.15813 z m -2.300635,-1.537891 q 0,0.15503 -0.155029,0.15503 -0.15503,0 -0.15503,-0.145728 0,-0.164331 0.15503,-0.164331 0.155029,0 0.155029,0.155029 z m 1.993677,2.002979 q 0,0.151928 -0.148828,0.151928 -0.161231,0 -0.161231,-0.151928 0,-0.15813 0.161231,-0.15813 0.148828,0 0.148828,0.15813 z m -0.458887,0.303857 q 0,0.148828 -0.148828,0.148828 -0.161231,0 -0.161231,-0.148828 0,-0.16123 0.161231,-0.16123 0.148828,0 0.148828,0.16123 z m -1.841748,-1.847949 q 0,0.15813 -0.148828,0.15813 -0.161231,0 -0.161231,-0.15813 0,-0.151929 0.15503,-0.151929 0.155029,0 0.155029,0.151929 z m -0.111621,0.539502 q 0,0.155029 -0.148828,0.155029 -0.161231,0 -0.161231,-0.155029 0,-0.155029 0.161231,-0.155029 0.148828,0 0.148828,0.155029 z m 1.413867,1.410767 q 0,0.158129 -0.155029,0.158129 -0.15503,0 -0.15503,-0.158129 0,-0.151929 0.15503,-0.151929 0.155029,0 0.155029,0.151929 z M 77.397699,13.26984 q 0,0.151929 -0.155029,0.151929 -0.15503,0 -0.15503,-0.151929 0,-0.15813 0.15503,-0.15813 0.155029,0 0.155029,0.15813 z m 0.765845,0.756543 q 0,0.16123 -0.15813,0.16123 -0.151929,0 -0.151929,-0.148828 0,-0.16123 0.151929,-0.16123 0.15813,0 0.15813,0.148828 z m -0.458887,-0.291455 q 0,0.151928 -0.155029,0.151928 -0.15503,0 -0.15503,-0.151928 0,-0.15813 0.15503,-0.15813 0.155029,0 0.155029,0.15813 z"
           id="path631" />
      </g>
      <g
         aria-label=" ₀"
         transform="scale(0.97327029,1.0274638)"
         id="text9793-8"
         style="font-size:4.02219px;font-family:'Cambria Math';-inkscape-font-specification:'Cambria Math, Normal';fill:#107907;stroke-width:0.0633416;stroke-linejoin:round">
        <path
           d="m 82.696871,11.824841 q -0.300485,0 -0.449746,-0.20818 -0.147297,-0.208179 -0.147297,-0.626503 0,-0.290666 0.07856,-0.483134 0.08052,-0.194432 0.218,-0.286738 0.139441,-0.09231 0.322089,-0.09231 0.170865,0 0.286738,0.06088 0.115874,0.06088 0.186576,0.170864 0.07267,0.108018 0.102126,0.261207 0.03142,0.151225 0.03142,0.333873 0,0.430107 -0.163009,0.650071 -0.161045,0.219963 -0.465459,0.219963 z m -0.306377,-0.86807 q 0,0.381008 0.07856,0.553837 0.07856,0.172828 0.249423,0.172828 0.161045,0 0.237639,-0.161045 0.07856,-0.161044 0.07856,-0.514557 0,-0.37708 -0.07856,-0.557765 -0.07659,-0.180684 -0.239603,-0.180684 -0.123729,0 -0.196396,0.08249 -0.0707,0.08249 -0.100162,0.233711 -0.02946,0.149261 -0.02946,0.371189 z"
           id="path634" />
      </g>
    </g>
    <g
       aria-label="a b"
       transform="scale(1.024855,0.97574779)"
       id="text16988"
       style="font-size:2.11667px;font-family:'Cambria Math';-inkscape-font-specification:'Cambria Math, Normal';fill:#23631c;fill-opacity:0.439446;stroke-width:0.0975748;stroke-linejoin:round">
      <path
         d="m 69.692659,54.834654 -0.0155,-0.0041 q -0.08992,0.09198 -0.169499,0.130224 -0.07855,0.03824 -0.167432,0.03824 -0.07855,0 -0.138493,-0.02997 -0.05995,-0.03101 -0.09199,-0.08578 -0.03204,-0.05581 -0.03204,-0.128158 0,-0.150895 0.148828,-0.232544 0.149862,-0.08268 0.448553,-0.09612 v -0.06718 q 0,-0.107487 -0.02067,-0.169499 -0.02067,-0.06201 -0.06511,-0.09095 -0.04444,-0.02894 -0.118856,-0.02894 -0.08062,0 -0.130225,0.04237 -0.04858,0.04238 -0.07338,0.127124 h -0.135392 v -0.134359 q 0.09922,-0.05168 0.165364,-0.07545 0.06615,-0.02481 0.132292,-0.03824 0.06615,-0.01447 0.134359,-0.01447 0.10232,0 0.164332,0.03307 0.06201,0.03204 0.09302,0.09922 0.03101,0.06718 0.03101,0.202571 v 0.359669 q 0,0.07648 0.001,0.108521 0.001,0.03101 0.0062,0.05788 0.0052,0.02687 0.0155,0.04341 0.01033,0.0155 0.02997,0.02687 0.02067,0.01137 0.06615,0.02377 v 0.05064 h -0.283187 z m -0.01757,-0.323495 q -0.209807,0.0021 -0.314194,0.05581 -0.104386,0.05374 -0.104386,0.162265 0,0.05891 0.02377,0.09302 0.02377,0.03411 0.05994,0.04754 0.03617,0.0124 0.08578,0.0124 0.07028,0 0.127124,-0.03411 0.05788,-0.03411 0.08992,-0.08682 0.03204,-0.05271 0.03204,-0.104386 z"
         id="path637" />
      <path
         d="m 70.85538,54.156658 0.0041,0.001 q 0.07235,-0.07545 0.11989,-0.109554 0.04858,-0.03411 0.09922,-0.05168 0.05168,-0.0186 0.112654,-0.0186 0.110588,0 0.189136,0.05684 0.07958,0.05581 0.121957,0.168466 0.04341,0.112655 0.04341,0.275952 0,0.168466 -0.05168,0.285255 -0.05064,0.115755 -0.150896,0.1757 -0.09922,0.05891 -0.235645,0.05891 -0.07648,0 -0.144694,-0.01447 -0.06718,-0.01344 -0.141593,-0.04858 l -0.07235,0.06304 -0.07131,-0.01654 v -1.123448 q 0,-0.09922 -0.0021,-0.138493 -0.001,-0.03927 -0.0083,-0.06615 -0.0062,-0.0279 -0.0186,-0.04341 -0.01137,-0.0155 -0.03204,-0.02481 -0.01964,-0.0093 -0.07235,-0.0186 v -0.05374 l 0.250115,-0.01033 h 0.06098 z m 0,0.45372 q 0,0.07958 0.0072,0.127124 0.0072,0.04651 0.02377,0.07751 0.01757,0.03101 0.04961,0.05684 0.03307,0.02584 0.07338,0.03617 0.04031,0.0093 0.08992,0.0093 0.124024,0 0.188103,-0.101286 0.06408,-0.101286 0.06408,-0.303858 0,-0.204639 -0.05891,-0.306958 -0.05788,-0.103353 -0.1757,-0.103353 -0.05891,0 -0.100252,0.0186 -0.04134,0.01757 -0.08268,0.05581 -0.04031,0.03824 -0.05994,0.07545 -0.0186,0.03721 -0.0186,0.08475 z"
         id="path639" />
    </g>
    <g
       aria-label="c d"
       transform="scale(1.024855,0.97574779)"
       id="text16988-6"
       style="font-size:2.11667px;font-family:'Cambria Math';-inkscape-font-specification:'Cambria Math, Normal';fill:#23631c;fill-opacity:0.439446;stroke-width:0.0975748;stroke-linejoin:round">
      <path
         d="m 69.903916,55.998653 v 0.216008 h -0.131258 q -0.01757,-0.06718 -0.04341,-0.105421 -0.02584,-0.03927 -0.05994,-0.05478 -0.03411,-0.0155 -0.08475,-0.0155 -0.07235,0 -0.128157,0.04651 -0.05581,0.04651 -0.08888,0.141594 -0.03204,0.09508 -0.03204,0.232544 0,0.08785 0.0124,0.161231 0.0124,0.07235 0.04238,0.124024 0.02997,0.05168 0.07958,0.08062 0.04961,0.02894 0.12299,0.02894 0.07131,0 0.132291,-0.02791 0.06201,-0.0279 0.128158,-0.09819 l 0.05891,0.06821 q -0.05271,0.05788 -0.09302,0.08992 -0.04031,0.03101 -0.08682,0.05271 -0.04547,0.02067 -0.09095,0.02997 -0.04444,0.01033 -0.09715,0.01033 -0.195338,0 -0.298691,-0.129191 -0.103353,-0.130225 -0.103353,-0.375172 0,-0.152962 0.05788,-0.270785 0.05788,-0.118856 0.162264,-0.182935 0.104387,-0.06408 0.240813,-0.06408 0.08475,0 0.156063,0.01034 0.07235,0.0093 0.144694,0.03101 z"
         id="path642" />
      <path
         d="m 71.230969,55.839489 q 0,-0.09922 -0.0021,-0.138493 -0.001,-0.03927 -0.0083,-0.06615 -0.0062,-0.0279 -0.0186,-0.04341 -0.01137,-0.0155 -0.03204,-0.02481 -0.01964,-0.0093 -0.07235,-0.0186 v -0.05374 l 0.250114,-0.01033 h 0.06098 v 1.196828 q 0,0.08062 0.0031,0.115755 0.0031,0.03411 0.01344,0.05478 0.01033,0.02067 0.03204,0.03411 0.02274,0.0124 0.07855,0.02377 v 0.05374 l -0.243913,0.01034 h -0.06201 l 0.0124,-0.169499 -0.0155,-0.0041 q -0.06511,0.06925 -0.113688,0.104386 -0.04754,0.03411 -0.10232,0.05478 -0.05374,0.02067 -0.115755,0.02067 -0.169499,0 -0.261483,-0.128158 -0.09198,-0.129191 -0.09198,-0.372071 0,-0.169499 0.05994,-0.287321 0.05994,-0.118856 0.161231,-0.176734 0.102319,-0.05788 0.229444,-0.05788 0.06821,0 0.124023,0.01137 0.05581,0.01034 0.114722,0.03514 z m 0,0.510564 q 0,-0.08062 -0.0072,-0.129191 -0.0072,-0.04858 -0.0248,-0.08165 -0.01654,-0.03307 -0.04548,-0.05581 -0.02894,-0.02274 -0.06408,-0.03307 -0.03411,-0.01033 -0.08268,-0.01033 -0.132292,0 -0.201538,0.106454 -0.06925,0.10542 -0.06925,0.303857 0,0.198438 0.05684,0.301791 0.05684,0.103353 0.1726,0.103353 0.04548,0 0.07545,-0.0072 0.02997,-0.0083 0.05891,-0.02481 0.02894,-0.01757 0.05891,-0.04754 0.02997,-0.02997 0.04341,-0.05478 0.01447,-0.0248 0.0217,-0.05684 0.0072,-0.03204 0.0072,-0.08268 z"
         id="path644" />
    </g>
  </g>
</svg>
