999
"DXF R12 Output" (www.mydxf.blogspot.com)
 0 
SECTION
 2 
HEADER
 9 
$ACADVER
 1 
AC1009
 9 
$EXTMIN
 10 
 0 
 20 
 0 
 9 
$EXTMAX
 10 
 8.5 
 20 
 11 
 0 
ENDSEC
 0 
SECTION
 2 
ENTITIES
0
LINE
8
Layer 1
10
0.793749
20
297.793749
11
-0.793749
21
296.206251
0
LINE
8
Layer 1
10
0.000000
20
298.322915
11
0.000000
21
295.677085
0
LINE
8
Layer 1
10
2.116664
20
295.941668
11
1.058332
21
294.883336
0
LINE
8
Layer 1
10
1.587498
20
296.470834
11
0.529166
21
295.412502
0
LINE
8
Layer 1
10
1.058332
20
297.000000
11
0.000000
21
295.941668
0
LINE
8
0
10
9.304205
20
221.402954
11
7.481588
21
221.583283
0
LINE
8
0
10
7.481588
20
221.583283
11
5.745630
21
222.110799
0
LINE
8
0
10
5.745630
20
222.110799
11
4.145113
21
222.965297
0
LINE
8
0
10
4.145113
20
222.965297
11
2.728817
21
224.126571
0
LINE
8
0
10
2.728817
20
224.126571
11
1.567545
21
225.542868
0
LINE
8
0
10
1.567545
20
225.542868
11
0.713049
21
227.143386
0
LINE
8
0
10
0.713049
20
227.143386
11
0.185535
21
228.879344
0
LINE
8
0
10
0.185535
20
228.879344
11
0.005208
21
230.701961
0
LINE
8
0
10
0.005208
20
230.701961
11
0.005208
21
295.994907
0
LINE
8
0
10
0.005208
20
295.994907
11
0.083786
21
296.384108
0
LINE
8
0
10
0.083786
20
296.384108
11
0.298072
21
296.701933
0
LINE
8
0
10
0.298072
20
296.701933
11
0.615899
21
296.916217
0
LINE
8
0
10
0.615899
20
296.916217
11
1.005101
21
296.994792
0
LINE
8
0
10
1.005101
20
296.994792
11
96.594777
21
296.994792
0
LINE
8
0
10
96.594777
20
296.994792
11
96.983979
21
296.916217
0
LINE
8
0
10
96.983979
20
296.916217
11
97.301806
21
296.701933
0
LINE
8
0
10
97.301806
20
296.701933
11
97.516092
21
296.384108
0
LINE
8
0
10
97.516092
20
296.384108
11
97.594670
21
295.994907
0
LINE
8
0
10
97.594670
20
295.994907
11
97.594670
21
230.701961
0
LINE
8
0
10
97.594670
20
230.701961
11
97.414343
21
228.879344
0
LINE
8
0
10
97.414343
20
228.879344
11
96.886829
21
227.143386
0
LINE
8
0
10
96.886829
20
227.143386
11
96.032333
21
225.542868
0
LINE
8
0
10
96.032333
20
225.542868
11
94.871061
21
224.126571
0
LINE
8
0
10
94.871061
20
224.126571
11
93.454764
21
222.965297
0
LINE
8
0
10
93.454764
20
222.965297
11
91.854248
21
222.110799
0
LINE
8
0
10
91.854248
20
222.110799
11
90.118290
21
221.583283
0
LINE
8
0
10
90.118290
20
221.583283
11
88.295673
21
221.402954
0
LINE
8
0
10
88.295673
20
221.402954
11
9.304205
21
221.402954
0
LINE
8
0
10
1.505039
20
232.401748
11
1.686241
21
233.296384
0
LINE
8
0
10
1.686241
20
233.296384
11
2.179205
21
234.026849
0
LINE
8
0
10
2.179205
20
234.026849
11
2.910024
21
234.519287
0
LINE
8
0
10
2.910024
20
234.519287
11
3.804790
21
234.699846
0
LINE
8
0
10
3.804790
20
234.699846
11
4.699556
21
234.519287
0
LINE
8
0
10
4.699556
20
234.519287
11
5.430375
21
234.026849
0
LINE
8
0
10
5.430375
20
234.026849
11
5.923340
21
233.296384
0
LINE
8
0
10
5.923340
20
233.296384
11
6.104542
21
232.401748
0
LINE
8
0
10
6.104542
20
232.401748
11
5.923340
21
231.507112
0
LINE
8
0
10
5.923340
20
231.507112
11
5.430375
21
230.776648
0
LINE
8
0
10
5.430375
20
230.776648
11
4.699556
21
230.284209
0
LINE
8
0
10
4.699556
20
230.284209
11
3.804790
21
230.103651
0
LINE
8
0
10
3.804790
20
230.103651
11
2.910024
21
230.284209
0
LINE
8
0
10
2.910024
20
230.284209
11
2.179205
21
230.776648
0
LINE
8
0
10
2.179205
20
230.776648
11
1.686241
21
231.507112
0
LINE
8
0
10
1.686241
20
231.507112
11
1.505039
21
232.401748
0
LINE
8
0
10
1.505039
20
232.401748
11
1.505039
21
232.401748
0
LINE
8
0
10
91.495344
20
276.397033
11
91.574951
21
276.997079
0
LINE
8
0
10
91.574951
20
276.997079
11
91.803452
21
277.546909
0
LINE
8
0
10
91.803452
20
277.546909
11
92.165369
21
278.019712
0
LINE
8
0
10
92.165369
20
278.019712
11
92.645220
21
278.388677
0
LINE
8
0
10
92.645220
20
278.388677
11
93.204679
21
278.619758
0
LINE
8
0
10
93.204679
20
278.619758
11
93.795097
21
278.696785
0
LINE
8
0
10
93.795097
20
278.696785
11
94.385515
21
278.619758
0
LINE
8
0
10
94.385515
20
278.619758
11
94.944973
21
278.388677
0
LINE
8
0
10
94.944973
20
278.388677
11
95.424825
21
278.019712
0
LINE
8
0
10
95.424825
20
278.019712
11
95.786741
21
277.546909
0
LINE
8
0
10
95.786741
20
277.546909
11
96.015243
21
276.997079
0
LINE
8
0
10
96.015243
20
276.997079
11
96.094850
21
276.397033
0
LINE
8
0
10
96.094850
20
276.397033
11
96.015243
21
275.796987
0
LINE
8
0
10
96.015243
20
275.796987
11
95.786741
21
275.247156
0
LINE
8
0
10
95.786741
20
275.247156
11
95.424825
21
274.774353
0
LINE
8
0
10
95.424825
20
274.774353
11
94.944973
21
274.405388
0
LINE
8
0
10
94.944973
20
274.405388
11
94.385515
21
274.174307
0
LINE
8
0
10
94.385515
20
274.174307
11
93.795097
21
274.097280
0
LINE
8
0
10
93.795097
20
274.097280
11
93.204679
21
274.174307
0
LINE
8
0
10
93.204679
20
274.174307
11
92.645220
21
274.405388
0
LINE
8
0
10
92.645220
20
274.405388
11
92.165369
21
274.774353
0
LINE
8
0
10
92.165369
20
274.774353
11
91.803452
21
275.247156
0
LINE
8
0
10
91.803452
20
275.247156
11
91.574951
21
275.796987
0
LINE
8
0
10
91.574951
20
275.796987
11
91.495344
21
276.397033
0
LINE
8
0
10
91.495344
20
276.397033
11
91.495344
21
276.397033
0
LINE
8
0
10
1.505047
20
276.397033
11
1.584654
21
276.997079
0
LINE
8
0
10
1.584654
20
276.997079
11
1.813155
21
277.546909
0
LINE
8
0
10
1.813155
20
277.546909
11
2.175072
21
278.019712
0
LINE
8
0
10
2.175072
20
278.019712
11
2.654923
21
278.388677
0
LINE
8
0
10
2.654923
20
278.388677
11
3.214382
21
278.619758
0
LINE
8
0
10
3.214382
20
278.619758
11
3.804800
21
278.696785
0
LINE
8
0
10
3.804800
20
278.696785
11
4.395217
21
278.619758
0
LINE
8
0
10
4.395217
20
278.619758
11
4.954676
21
278.388677
0
LINE
8
0
10
4.954676
20
278.388677
11
5.434528
21
278.019712
0
LINE
8
0
10
5.434528
20
278.019712
11
5.796444
21
277.546909
0
LINE
8
0
10
5.796444
20
277.546909
11
6.024945
21
276.997079
0
LINE
8
0
10
6.024945
20
276.997079
11
6.104552
21
276.397033
0
LINE
8
0
10
6.104552
20
276.397033
11
6.024945
21
275.796987
0
LINE
8
0
10
6.024945
20
275.796987
11
5.796444
21
275.247156
0
LINE
8
0
10
5.796444
20
275.247156
11
5.434528
21
274.774353
0
LINE
8
0
10
5.434528
20
274.774353
11
4.954676
21
274.405388
0
LINE
8
0
10
4.954676
20
274.405388
11
4.395217
21
274.174307
0
LINE
8
0
10
4.395217
20
274.174307
11
3.804800
21
274.097280
0
LINE
8
0
10
3.804800
20
274.097280
11
3.214382
21
274.174307
0
LINE
8
0
10
3.214382
20
274.174307
11
2.654923
21
274.405388
0
LINE
8
0
10
2.654923
20
274.405388
11
2.175072
21
274.774353
0
LINE
8
0
10
2.175072
20
274.774353
11
1.813155
21
275.247156
0
LINE
8
0
10
1.813155
20
275.247156
11
1.584654
21
275.796987
0
LINE
8
0
10
1.584654
20
275.796987
11
1.505047
21
276.397033
0
LINE
8
0
10
1.505047
20
276.397033
11
1.505047
21
276.397033
0
LINE
8
0
10
91.495333
20
232.401775
11
91.676541
21
233.296405
0
LINE
8
0
10
91.676541
20
233.296405
11
92.169506
21
234.026863
0
LINE
8
0
10
92.169506
20
234.026863
11
92.900323
21
234.519297
0
LINE
8
0
10
92.900323
20
234.519297
11
93.795085
21
234.699854
0
LINE
8
0
10
93.795085
20
234.699854
11
94.689847
21
234.519297
0
LINE
8
0
10
94.689847
20
234.519297
11
95.420664
21
234.026863
0
LINE
8
0
10
95.420664
20
234.026863
11
95.913629
21
233.296405
0
LINE
8
0
10
95.913629
20
233.296405
11
96.094836
21
232.401775
0
LINE
8
0
10
96.094836
20
232.401775
11
95.913629
21
231.507145
0
LINE
8
0
10
95.913629
20
231.507145
11
95.420664
21
230.776686
0
LINE
8
0
10
95.420664
20
230.776686
11
94.689847
21
230.284252
0
LINE
8
0
10
94.689847
20
230.284252
11
93.795085
21
230.103696
0
LINE
8
0
10
93.795085
20
230.103696
11
92.900323
21
230.284252
0
LINE
8
0
10
92.900323
20
230.284252
11
92.169506
21
230.776686
0
LINE
8
0
10
92.169506
20
230.776686
11
91.676541
21
231.507145
0
LINE
8
0
10
91.676541
20
231.507145
11
91.495333
21
232.401775
0
LINE
8
0
10
91.495333
20
232.401775
11
91.495333
21
232.401775
0
LINE
8
0
10
57.019277
20
232.805661
11
57.239351
21
233.335150
0
LINE
8
0
10
57.239351
20
233.335150
11
57.769195
21
233.554368
0
LINE
8
0
10
57.769195
20
233.554368
11
58.299039
21
233.335150
0
LINE
8
0
10
58.299039
20
233.335150
11
58.519113
21
232.805661
0
LINE
8
0
10
58.519113
20
232.805661
11
58.299039
21
232.276171
0
LINE
8
0
10
58.299039
20
232.276171
11
57.769195
21
232.056953
0
LINE
8
0
10
57.769195
20
232.056953
11
57.239351
21
232.276171
0
LINE
8
0
10
57.239351
20
232.276171
11
57.019277
21
232.805661
0
LINE
8
0
10
57.019277
20
232.805661
11
57.019277
21
232.805661
0
LINE
8
0
10
92.595208
20
294.995021
11
93.377878
21
294.891186
0
LINE
8
0
10
93.377878
20
294.891186
11
94.095049
21
294.593140
0
LINE
8
0
10
94.095049
20
294.593140
11
94.711750
21
294.121074
0
LINE
8
0
10
94.711750
20
294.121074
11
95.193010
21
293.495179
0
LINE
8
0
10
95.193010
20
293.495179
11
95.494421
21
292.765449
0
LINE
8
0
10
95.494421
20
292.765449
11
95.594891
21
291.995338
0
LINE
8
0
10
95.594891
20
291.995338
11
95.494421
21
291.225226
0
LINE
8
0
10
95.494421
20
291.225226
11
95.193010
21
290.495496
0
LINE
8
0
10
95.193010
20
290.495496
11
94.711750
21
289.869601
0
LINE
8
0
10
94.711750
20
289.869601
11
94.095049
21
289.397536
0
LINE
8
0
10
94.095049
20
289.397536
11
93.377878
21
289.099490
0
LINE
8
0
10
93.377878
20
289.099490
11
92.595208
21
288.995654
0
LINE
8
0
10
92.595208
20
288.995654
11
56.599090
21
288.995654
0
LINE
8
0
10
56.599090
20
288.995654
11
55.816420
21
289.099490
0
LINE
8
0
10
55.816420
20
289.099490
11
55.099248
21
289.397536
0
LINE
8
0
10
55.099248
20
289.397536
11
54.482547
21
289.869601
0
LINE
8
0
10
54.482547
20
289.869601
11
54.001288
21
290.495496
0
LINE
8
0
10
54.001288
20
290.495496
11
53.699877
21
291.225226
0
LINE
8
0
10
53.699877
20
291.225226
11
53.599407
21
291.995338
0
LINE
8
0
10
53.599407
20
291.995338
11
53.699877
21
292.765449
0
LINE
8
0
10
53.699877
20
292.765449
11
54.001288
21
293.495179
0
LINE
8
0
10
54.001288
20
293.495179
11
54.482547
21
294.121074
0
LINE
8
0
10
54.482547
20
294.121074
11
55.099248
21
294.593140
0
LINE
8
0
10
55.099248
20
294.593140
11
55.816420
21
294.891186
0
LINE
8
0
10
55.816420
20
294.891186
11
56.599090
21
294.995021
0
LINE
8
0
10
56.599090
20
294.995021
11
92.595208
21
294.995021
0
LINE
8
0
10
9.004221
20
229.402091
11
45.000340
21
229.402091
0
LINE
8
0
10
45.000340
20
229.402091
11
46.167952
21
229.166361
0
LINE
8
0
10
46.167952
20
229.166361
11
47.121436
21
228.523504
0
LINE
8
0
10
47.121436
20
228.523504
11
47.764293
21
227.570020
0
LINE
8
0
10
47.764293
20
227.570020
11
48.000023
21
226.402408
0
LINE
8
0
10
48.000023
20
226.402408
11
47.764293
21
225.234796
0
LINE
8
0
10
47.764293
20
225.234796
11
47.121436
21
224.281312
0
LINE
8
0
10
47.121436
20
224.281312
11
46.167952
21
223.638455
0
LINE
8
0
10
46.167952
20
223.638455
11
45.000340
21
223.402725
0
LINE
8
0
10
45.000340
20
223.402725
11
9.004221
21
223.402725
0
LINE
8
0
10
9.004221
20
223.402725
11
7.836609
21
223.638455
0
LINE
8
0
10
7.836609
20
223.638455
11
6.883124
21
224.281312
0
LINE
8
0
10
6.883124
20
224.281312
11
6.240268
21
225.234796
0
LINE
8
0
10
6.240268
20
225.234796
11
6.004538
21
226.402408
0
LINE
8
0
10
6.004538
20
226.402408
11
6.240268
21
227.570020
0
LINE
8
0
10
6.240268
20
227.570020
11
6.883124
21
228.523504
0
LINE
8
0
10
6.883124
20
228.523504
11
7.836609
21
229.166361
0
LINE
8
0
10
7.836609
20
229.166361
11
9.004221
21
229.402091
0
LINE
8
0
10
9.004221
20
229.402091
11
9.004221
21
229.402091
0
LINE
8
0
10
88.595639
20
223.402725
11
52.599521
21
223.402725
0
LINE
8
0
10
52.599521
20
223.402725
11
51.431909
21
223.638455
0
LINE
8
0
10
51.431909
20
223.638455
11
50.478425
21
224.281312
0
LINE
8
0
10
50.478425
20
224.281312
11
49.835568
21
225.234796
0
LINE
8
0
10
49.835568
20
225.234796
11
49.599838
21
226.402408
0
LINE
8
0
10
49.599838
20
226.402408
11
49.835568
21
227.570020
0
LINE
8
0
10
49.835568
20
227.570020
11
50.478425
21
228.523504
0
LINE
8
0
10
50.478425
20
228.523504
11
51.431909
21
229.166361
0
LINE
8
0
10
51.431909
20
229.166361
11
52.599521
21
229.402091
0
LINE
8
0
10
52.599521
20
229.402091
11
88.595639
21
229.402091
0
LINE
8
0
10
88.595639
20
229.402091
11
89.763251
21
229.166361
0
LINE
8
0
10
89.763251
20
229.166361
11
90.716735
21
228.523504
0
LINE
8
0
10
90.716735
20
228.523504
11
91.359592
21
227.570020
0
LINE
8
0
10
91.359592
20
227.570020
11
91.595322
21
226.402408
0
LINE
8
0
10
91.595322
20
226.402408
11
91.359592
21
225.234796
0
LINE
8
0
10
91.359592
20
225.234796
11
90.716735
21
224.281312
0
LINE
8
0
10
90.716735
20
224.281312
11
89.763251
21
223.638455
0
LINE
8
0
10
89.763251
20
223.638455
11
88.595639
21
223.402725
0
LINE
8
0
10
88.595639
20
223.402725
11
88.595639
21
223.402725
0
LINE
8
0
10
5.004670
20
288.995654
11
4.222000
21
289.099490
0
LINE
8
0
10
4.222000
20
289.099490
11
3.504829
21
289.397536
0
LINE
8
0
10
3.504829
20
289.397536
11
2.888128
21
289.869601
0
LINE
8
0
10
2.888128
20
289.869601
11
2.406868
21
290.495496
0
LINE
8
0
10
2.406868
20
290.495496
11
2.105457
21
291.225226
0
LINE
8
0
10
2.105457
20
291.225226
11
2.004987
21
291.995338
0
LINE
8
0
10
2.004987
20
291.995338
11
2.105457
21
292.765449
0
LINE
8
0
10
2.105457
20
292.765449
11
2.406868
21
293.495179
0
LINE
8
0
10
2.406868
20
293.495179
11
2.888128
21
294.121074
0
LINE
8
0
10
2.888128
20
294.121074
11
3.504829
21
294.593140
0
LINE
8
0
10
3.504829
20
294.593140
11
4.222000
21
294.891186
0
LINE
8
0
10
4.222000
20
294.891186
11
5.004670
21
294.995021
0
LINE
8
0
10
5.004670
20
294.995021
11
41.000787
21
294.995021
0
LINE
8
0
10
41.000787
20
294.995021
11
41.783457
21
294.891186
0
LINE
8
0
10
41.783457
20
294.891186
11
42.500629
21
294.593140
0
LINE
8
0
10
42.500629
20
294.593140
11
43.117330
21
294.121074
0
LINE
8
0
10
43.117330
20
294.121074
11
43.598589
21
293.495179
0
LINE
8
0
10
43.598589
20
293.495179
11
43.900000
21
292.765449
0
LINE
8
0
10
43.900000
20
292.765449
11
44.000470
21
291.995338
0
LINE
8
0
10
44.000470
20
291.995338
11
43.900000
21
291.225226
0
LINE
8
0
10
43.900000
20
291.225226
11
43.598589
21
290.495496
0
LINE
8
0
10
43.598589
20
290.495496
11
43.117330
21
289.869601
0
LINE
8
0
10
43.117330
20
289.869601
11
42.500629
21
289.397536
0
LINE
8
0
10
42.500629
20
289.397536
11
41.783457
21
289.099490
0
LINE
8
0
10
41.783457
20
289.099490
11
41.000787
21
288.995654
0
LINE
8
0
10
41.000787
20
288.995654
11
5.004670
21
288.995654
 0 
ENDSEC
 0 
EOF