999
"DXF R12 Output" (www.mydxf.blogspot.com)
 0 
SECTION
 2 
HEADER
 9 
$ACADVER
 1 
AC1009
 9 
$EXTMIN
 10 
 0 
 20 
 0 
 9 
$EXTMAX
 10 
 8.5 
 20 
 11 
 0 
ENDSEC
 0 
SECTION
 2 
ENTITIES
0
LINE
8
Layer 1
10
0.793749
20
297.793749
11
-0.793749
21
296.206251
0
LINE
8
Layer 1
10
0.000000
20
298.322915
11
0.000000
21
295.677085
0
LINE
8
Layer 1
10
2.116664
20
295.941668
11
1.058332
21
294.883336
0
LINE
8
Layer 1
10
1.587498
20
296.470834
11
0.529166
21
295.412502
0
LINE
8
Layer 1
10
1.058332
20
297.000000
11
0.000000
21
295.941668
0
LINE
8
0
10
9.328304
20
221.419302
11
7.506799
21
221.599521
0
LINE
8
0
10
7.506799
20
221.599521
11
5.771901
21
222.126716
0
LINE
8
0
10
5.771901
20
222.126716
11
4.172360
21
222.980691
0
LINE
8
0
10
4.172360
20
222.980691
11
2.756928
21
224.141253
0
LINE
8
0
10
2.756928
20
224.141253
11
1.596364
21
225.556687
0
LINE
8
0
10
1.596364
20
225.556687
11
0.742390
21
227.156230
0
LINE
8
0
10
0.742390
20
227.156230
11
0.215198
21
228.891130
0
LINE
8
0
10
0.215198
20
228.891130
11
0.034981
21
230.712638
0
LINE
8
0
10
0.034981
20
295.965743
11
0.113512
21
296.354707
0
LINE
8
0
10
0.113512
20
296.354707
11
0.327667
21
296.672339
0
LINE
8
0
10
0.327667
20
296.672339
11
0.645300
21
296.886492
0
LINE
8
0
10
0.645300
20
296.886492
11
1.034265
21
296.965019
0
LINE
8
0
10
96.565616
20
296.965019
11
96.954580
21
296.886492
0
LINE
8
0
10
96.954580
20
296.886492
11
97.272212
21
296.672339
0
LINE
8
0
10
97.272212
20
296.672339
11
97.486367
21
296.354707
0
LINE
8
0
10
97.486367
20
296.354707
11
97.564896
21
295.965743
0
LINE
8
0
10
0.034981
20
230.712638
11
0.034981
21
295.965743
0
LINE
8
0
10
97.564896
20
230.712638
11
97.384682
21
228.891130
0
LINE
8
0
10
97.384682
20
228.891130
11
96.857490
21
227.156230
0
LINE
8
0
10
96.857490
20
227.156230
11
96.003516
21
225.556687
0
LINE
8
0
10
96.003516
20
225.556687
11
94.842953
21
224.141253
0
LINE
8
0
10
94.842953
20
224.141253
11
93.427520
21
222.980691
0
LINE
8
0
10
93.427520
20
222.980691
11
91.827980
21
222.126716
0
LINE
8
0
10
91.827980
20
222.126716
11
90.093082
21
221.599521
0
LINE
8
0
10
90.093082
20
221.599521
11
88.271578
21
221.419302
0
LINE
8
0
10
1.034265
20
296.965019
11
96.565616
21
296.965019
0
LINE
8
0
10
1.533897
20
232.411387
11
1.714994
21
233.305476
0
LINE
8
0
10
1.714994
20
233.305476
11
2.207657
21
234.035495
0
LINE
8
0
10
2.207657
20
234.035495
11
2.938027
21
234.527633
0
LINE
8
0
10
2.938027
20
234.527633
11
3.832245
21
234.708082
0
LINE
8
0
10
3.832245
20
234.708082
11
4.726465
21
234.527633
0
LINE
8
0
10
4.726465
20
234.527633
11
5.456838
21
234.035495
0
LINE
8
0
10
5.456838
20
234.035495
11
5.949502
21
233.305476
0
LINE
8
0
10
5.949502
20
233.305476
11
6.130593
21
232.411387
0
LINE
8
0
10
6.130593
20
232.411387
11
5.949507
21
231.517297
0
LINE
8
0
10
5.949507
20
231.517297
11
5.456843
21
230.787278
0
LINE
8
0
10
5.456843
20
230.787278
11
4.726467
21
230.295139
0
LINE
8
0
10
4.726467
20
230.295139
11
3.832245
21
230.114690
0
LINE
8
0
10
3.832245
20
230.114690
11
2.938025
21
230.295139
0
LINE
8
0
10
2.938025
20
230.295139
11
2.207652
21
230.787278
0
LINE
8
0
10
2.207652
20
230.787278
11
1.714988
21
231.517297
0
LINE
8
0
10
1.714988
20
231.517297
11
1.533897
21
232.411387
0
LINE
8
0
10
97.564896
20
295.965743
11
97.564896
21
230.712638
0
LINE
8
0
10
91.469296
20
276.379825
11
91.548854
21
276.979506
0
LINE
8
0
10
91.548854
20
276.979506
11
91.777217
21
277.529001
0
LINE
8
0
10
91.777217
20
277.529001
11
92.138912
21
278.001516
0
LINE
8
0
10
92.138912
20
278.001516
11
92.618469
21
278.370256
0
LINE
8
0
10
92.618469
20
278.370256
11
93.177586
21
278.601197
0
LINE
8
0
10
93.177586
20
278.601197
11
93.767643
21
278.678177
0
LINE
8
0
10
93.767643
20
278.678177
11
94.357701
21
278.601197
0
LINE
8
0
10
94.357701
20
278.601197
11
94.916817
21
278.370256
0
LINE
8
0
10
94.916817
20
278.370256
11
95.396376
21
278.001516
0
LINE
8
0
10
95.396376
20
278.001516
11
95.758072
21
277.529001
0
LINE
8
0
10
95.758072
20
277.529001
11
95.986434
21
276.979506
0
LINE
8
0
10
95.986434
20
276.979506
11
96.065992
21
276.379825
0
LINE
8
0
10
96.065992
20
276.379825
11
95.885377
21
275.485204
0
LINE
8
0
10
95.885377
20
275.485204
11
95.392823
21
274.754647
0
LINE
8
0
10
95.392823
20
274.754647
11
94.662267
21
274.262092
0
LINE
8
0
10
94.662267
20
274.262092
11
93.767644
21
274.081477
0
LINE
8
0
10
93.767644
20
274.081477
11
92.873024
21
274.262092
0
LINE
8
0
10
92.873024
20
274.262092
11
92.142468
21
274.754647
0
LINE
8
0
10
92.142468
20
274.754647
11
91.649912
21
275.485204
0
LINE
8
0
10
91.649912
20
275.485204
11
91.469296
21
276.379825
0
LINE
8
0
10
1.533905
20
276.379825
11
1.613464
21
276.979506
0
LINE
8
0
10
1.613464
20
276.979506
11
1.841825
21
277.529001
0
LINE
8
0
10
1.841825
20
277.529001
11
2.203521
21
278.001516
0
LINE
8
0
10
2.203521
20
278.001516
11
2.683080
21
278.370256
0
LINE
8
0
10
2.683080
20
278.370256
11
3.242197
21
278.601197
0
LINE
8
0
10
3.242197
20
278.601197
11
3.832254
21
278.678177
0
LINE
8
0
10
3.832254
20
278.678177
11
4.422312
21
278.601197
0
LINE
8
0
10
4.422312
20
278.601197
11
4.981430
21
278.370256
0
LINE
8
0
10
4.981430
20
278.370256
11
5.460988
21
278.001516
0
LINE
8
0
10
5.460988
20
278.001516
11
5.822684
21
277.529001
0
LINE
8
0
10
5.822684
20
277.529001
11
6.051046
21
276.979506
0
LINE
8
0
10
6.051046
20
276.979506
11
6.130604
21
276.379825
0
LINE
8
0
10
6.130604
20
276.379825
11
6.051046
21
275.780146
0
LINE
8
0
10
6.051046
20
275.780146
11
5.822684
21
275.230651
0
LINE
8
0
10
5.822684
20
275.230651
11
5.460988
21
274.758137
0
LINE
8
0
10
5.460988
20
274.758137
11
4.981430
21
274.389396
0
LINE
8
0
10
4.981430
20
274.389396
11
4.422312
21
274.158457
0
LINE
8
0
10
4.422312
20
274.158457
11
3.832254
21
274.081477
0
LINE
8
0
10
3.832254
20
274.081477
11
3.242197
21
274.158457
0
LINE
8
0
10
3.242197
20
274.158457
11
2.683080
21
274.389396
0
LINE
8
0
10
2.683080
20
274.389396
11
2.203521
21
274.758137
0
LINE
8
0
10
2.203521
20
274.758137
11
1.841825
21
275.230651
0
LINE
8
0
10
1.841825
20
275.230651
11
1.613464
21
275.780146
0
LINE
8
0
10
1.613464
20
275.780146
11
1.533905
21
276.379825
0
LINE
8
0
10
91.469283
20
232.411413
11
91.650325
21
233.305497
0
LINE
8
0
10
91.650325
20
233.305497
11
92.142996
21
234.035510
0
LINE
8
0
10
92.142996
20
234.035510
11
92.873397
21
234.527643
0
LINE
8
0
10
92.873397
20
234.527643
11
93.767631
21
234.708090
0
LINE
8
0
10
93.767631
20
234.708090
11
94.661846
21
234.527643
0
LINE
8
0
10
94.661846
20
234.527643
11
95.392216
21
234.035510
0
LINE
8
0
10
95.392216
20
234.035510
11
95.884881
21
233.305497
0
LINE
8
0
10
95.884881
20
233.305497
11
96.065978
21
232.411413
0
LINE
8
0
10
96.065978
20
232.411413
11
95.884936
21
231.517330
0
LINE
8
0
10
95.884936
20
231.517330
11
95.392265
21
230.787318
0
LINE
8
0
10
95.392265
20
230.787318
11
94.661864
21
230.295184
0
LINE
8
0
10
94.661864
20
230.295184
11
93.767631
21
230.114738
0
LINE
8
0
10
93.767631
20
230.114738
11
92.873415
21
230.295184
0
LINE
8
0
10
92.873415
20
230.295184
11
92.143044
21
230.787318
0
LINE
8
0
10
92.143044
20
230.787318
11
91.650380
21
231.517330
0
LINE
8
0
10
91.650380
20
231.517330
11
91.469283
21
232.411413
0
LINE
8
0
10
57.014263
20
232.815051
11
57.234250
21
233.344218
0
LINE
8
0
10
57.234250
20
233.344218
11
57.763723
21
233.563302
0
LINE
8
0
10
57.763723
20
233.563302
11
58.293246
21
233.344218
0
LINE
8
0
10
58.293246
20
233.344218
11
58.513184
21
232.815051
0
LINE
8
0
10
58.513184
20
232.815051
11
58.293198
21
232.285882
0
LINE
8
0
10
58.293198
20
232.285882
11
57.763723
21
232.066797
0
LINE
8
0
10
57.763723
20
232.066797
11
57.234203
21
232.285882
0
LINE
8
0
10
57.234203
20
232.285882
11
57.014263
21
232.815051
0
LINE
8
0
10
92.568490
20
294.966469
11
93.350682
21
294.862696
0
LINE
8
0
10
93.350682
20
294.862696
11
94.067415
21
294.564832
0
LINE
8
0
10
94.067415
20
294.564832
11
94.683740
21
294.093054
0
LINE
8
0
10
94.683740
20
294.093054
11
95.164705
21
293.467540
0
LINE
8
0
10
95.164705
20
293.467540
11
95.465931
21
292.738256
0
LINE
8
0
10
95.465931
20
292.738256
11
95.566340
21
291.968615
0
LINE
8
0
10
95.566340
20
291.968615
11
95.465931
21
291.198973
0
LINE
8
0
10
95.465931
20
291.198973
11
95.164705
21
290.469688
0
LINE
8
0
10
95.164705
20
290.469688
11
94.683740
21
289.844176
0
LINE
8
0
10
94.683740
20
289.844176
11
94.067415
21
289.372398
0
LINE
8
0
10
94.067415
20
289.372398
11
93.350682
21
289.074534
0
LINE
8
0
10
93.350682
20
289.074534
11
92.568490
21
288.970762
0
LINE
8
0
10
56.594333
20
288.970762
11
55.812140
21
289.074534
0
LINE
8
0
10
55.812140
20
289.074534
11
55.095406
21
289.372398
0
LINE
8
0
10
55.095406
20
289.372398
11
54.479082
21
289.844176
0
LINE
8
0
10
54.479082
20
289.844176
11
53.998117
21
290.469688
0
LINE
8
0
10
53.998117
20
290.469688
11
53.696890
21
291.198973
0
LINE
8
0
10
53.696890
20
291.198973
11
53.596480
21
291.968615
0
LINE
8
0
10
53.596480
20
291.968615
11
53.696890
21
292.738256
0
LINE
8
0
10
53.696890
20
292.738256
11
53.998117
21
293.467540
0
LINE
8
0
10
53.998117
20
293.467540
11
54.479082
21
294.093054
0
LINE
8
0
10
54.479082
20
294.093054
11
55.095406
21
294.564832
0
LINE
8
0
10
55.095406
20
294.564832
11
55.812140
21
294.862696
0
LINE
8
0
10
55.812140
20
294.862696
11
56.594333
21
294.966469
0
LINE
8
0
10
88.271578
20
221.419302
11
9.328304
21
221.419302
0
LINE
8
0
10
92.568490
20
288.970762
11
56.594333
21
288.970762
0
LINE
8
0
10
45.002660
20
229.413556
11
46.169560
21
229.177970
0
LINE
8
0
10
46.169560
20
229.177970
11
47.122462
21
228.535506
0
LINE
8
0
10
47.122462
20
228.535506
11
47.764927
21
227.582603
0
LINE
8
0
10
47.764927
20
227.582603
11
48.000513
21
226.415704
0
LINE
8
0
10
48.000513
20
226.415704
11
47.764927
21
225.248804
0
LINE
8
0
10
47.764927
20
225.248804
11
47.122462
21
224.295902
0
LINE
8
0
10
47.122462
20
224.295902
11
46.169560
21
223.653437
0
LINE
8
0
10
46.169560
20
223.653437
11
45.002660
21
223.417851
0
LINE
8
0
10
56.594333
20
294.966469
11
92.568490
21
294.966469
0
LINE
8
0
10
9.028502
20
223.417851
11
8.246310
21
223.521623
0
LINE
8
0
10
8.246310
20
223.521623
11
7.529576
21
223.819488
0
LINE
8
0
10
7.529576
20
223.819488
11
6.913251
21
224.291266
0
LINE
8
0
10
6.913251
20
224.291266
11
6.432286
21
224.916778
0
LINE
8
0
10
6.432286
20
224.916778
11
6.131058
21
225.646065
0
LINE
8
0
10
6.131058
20
225.646065
11
6.030649
21
226.415707
0
LINE
8
0
10
6.030649
20
226.415707
11
6.131058
21
227.185347
0
LINE
8
0
10
6.131058
20
227.185347
11
6.432286
21
227.914630
0
LINE
8
0
10
6.432286
20
227.914630
11
6.913251
21
228.540144
0
LINE
8
0
10
6.913251
20
228.540144
11
7.529576
21
229.011922
0
LINE
8
0
10
7.529576
20
229.011922
11
8.246310
21
229.309785
0
LINE
8
0
10
8.246310
20
229.309785
11
9.028502
21
229.413556
0
LINE
8
0
10
9.028502
20
229.413556
11
45.002660
21
229.413556
0
LINE
8
0
10
52.597204
20
223.417851
11
51.815011
21
223.521623
0
LINE
8
0
10
51.815011
20
223.521623
11
51.098278
21
223.819488
0
LINE
8
0
10
51.098278
20
223.819488
11
50.481954
21
224.291266
0
LINE
8
0
10
50.481954
20
224.291266
11
50.000988
21
224.916778
0
LINE
8
0
10
50.000988
20
224.916778
11
49.699760
21
225.646065
0
LINE
8
0
10
49.699760
20
225.646065
11
49.599351
21
226.415707
0
LINE
8
0
10
49.599351
20
226.415707
11
49.699760
21
227.185347
0
LINE
8
0
10
49.699760
20
227.185347
11
50.000988
21
227.914630
0
LINE
8
0
10
50.000988
20
227.914630
11
50.481954
21
228.540144
0
LINE
8
0
10
50.481954
20
228.540144
11
51.098278
21
229.011922
0
LINE
8
0
10
51.098278
20
229.011922
11
51.815011
21
229.309785
0
LINE
8
0
10
51.815011
20
229.309785
11
52.597204
21
229.413556
0
LINE
8
0
10
45.002660
20
223.417851
11
9.028502
21
223.417851
0
LINE
8
0
10
88.571355
20
229.413556
11
89.353551
21
229.309785
0
LINE
8
0
10
89.353551
20
229.309785
11
90.070285
21
229.011922
0
LINE
8
0
10
90.070285
20
229.011922
11
90.686609
21
228.540144
0
LINE
8
0
10
90.686609
20
228.540144
11
91.167573
21
227.914630
0
LINE
8
0
10
91.167573
20
227.914630
11
91.468802
21
227.185347
0
LINE
8
0
10
91.468802
20
227.185347
11
91.569212
21
226.415707
0
LINE
8
0
10
91.569212
20
226.415707
11
91.468802
21
225.646065
0
LINE
8
0
10
91.468802
20
225.646065
11
91.167573
21
224.916778
0
LINE
8
0
10
91.167573
20
224.916778
11
90.686609
21
224.291266
0
LINE
8
0
10
90.686609
20
224.291266
11
90.070285
21
223.819488
0
LINE
8
0
10
90.070285
20
223.819488
11
89.353551
21
223.521623
0
LINE
8
0
10
89.353551
20
223.521623
11
88.571355
21
223.417851
0
LINE
8
0
10
88.571355
20
223.417851
11
52.597204
21
223.417851
0
LINE
8
0
10
5.031393
20
288.970762
11
4.249200
21
289.074534
0
LINE
8
0
10
4.249200
20
289.074534
11
3.532466
21
289.372398
0
LINE
8
0
10
3.532466
20
289.372398
11
2.916141
21
289.844176
0
LINE
8
0
10
2.916141
20
289.844176
11
2.435176
21
290.469688
0
LINE
8
0
10
2.435176
20
290.469688
11
2.133949
21
291.198973
0
LINE
8
0
10
2.133949
20
291.198973
11
2.033540
21
291.968615
0
LINE
8
0
10
2.033540
20
291.968615
11
2.133949
21
292.738256
0
LINE
8
0
10
2.133949
20
292.738256
11
2.435176
21
293.467540
0
LINE
8
0
10
2.435176
20
293.467540
11
2.916141
21
294.093054
0
LINE
8
0
10
2.916141
20
294.093054
11
3.532466
21
294.564832
0
LINE
8
0
10
3.532466
20
294.564832
11
4.249200
21
294.862696
0
LINE
8
0
10
4.249200
20
294.862696
11
5.031393
21
294.966469
0
LINE
8
0
10
41.005547
20
294.966469
11
41.787740
21
294.862696
0
LINE
8
0
10
41.787740
20
294.862696
11
42.504473
21
294.564832
0
LINE
8
0
10
42.504473
20
294.564832
11
43.120798
21
294.093054
0
LINE
8
0
10
43.120798
20
294.093054
11
43.601765
21
293.467540
0
LINE
8
0
10
43.601765
20
293.467540
11
43.902993
21
292.738256
0
LINE
8
0
10
43.902993
20
292.738256
11
44.003402
21
291.968615
0
LINE
8
0
10
44.003402
20
291.968615
11
43.902993
21
291.198973
0
LINE
8
0
10
43.902993
20
291.198973
11
43.601765
21
290.469688
0
LINE
8
0
10
43.601765
20
290.469688
11
43.120798
21
289.844176
0
LINE
8
0
10
43.120798
20
289.844176
11
42.504473
21
289.372398
0
LINE
8
0
10
42.504473
20
289.372398
11
41.787740
21
289.074534
0
LINE
8
0
10
41.787740
20
289.074534
11
41.005547
21
288.970762
0
LINE
8
0
10
52.597204
20
229.413556
11
88.571355
21
229.413556
0
LINE
8
0
10
23.782987
20
275.435729
11
23.781387
21
275.392589
0
LINE
8
0
10
23.781500
20
275.392589
11
23.777200
21
275.366259
0
LINE
8
0
10
23.777153
20
275.366263
11
23.769153
21
275.353083
0
LINE
8
0
10
23.769144
20
275.353097
11
23.757454
21
275.349397
0
LINE
8
0
10
23.757441
20
275.349435
11
23.744261
21
275.351535
0
LINE
8
0
10
23.744273
20
275.351610
11
23.727443
21
275.357410
0
LINE
8
0
10
23.727456
20
275.357444
11
23.707716
21
275.362644
0
LINE
8
0
10
23.707710
20
275.362590
11
23.683580
21
275.365590
0
LINE
8
0
10
23.683583
20
275.365567
11
23.652863
21
275.358967
0
LINE
8
0
10
23.652867
20
275.358931
11
23.620687
21
275.339911
0
LINE
8
0
10
23.620684
20
275.339918
11
23.586314
21
275.304818
0
LINE
8
0
10
23.586319
20
275.304819
11
23.548289
21
275.250709
0
LINE
8
0
10
5.031393
20
294.966469
11
41.005547
21
294.966469
0
LINE
8
0
10
23.548291
20
274.844114
11
23.543991
21
274.830934
0
LINE
8
0
10
23.543944
20
274.830946
11
23.528594
21
274.822146
0
LINE
8
0
10
23.528593
20
274.822135
11
23.500803
21
274.816935
0
LINE
8
0
10
23.500804
20
274.816989
11
23.456194
21
274.814889
0
LINE
8
0
10
23.456197
20
274.814814
11
23.411588
21
274.816914
0
LINE
8
0
10
23.411592
20
274.816989
11
23.383072
21
274.822189
0
LINE
8
0
10
23.383072
20
274.822135
11
23.368443
21
274.830935
0
LINE
8
0
10
23.368440
20
274.830946
11
23.364140
21
274.844126
0
LINE
8
0
10
41.005547
20
288.970762
11
5.031393
21
288.970762
0
LINE
8
0
10
23.364094
20
275.496419
11
23.367794
21
275.508859
0
LINE
8
0
10
23.367753
20
275.508855
11
23.380932
21
275.518355
0
LINE
8
0
10
23.380922
20
275.518351
11
23.405052
21
275.523551
0
LINE
8
0
10
23.405048
20
275.523499
11
23.443079
21
275.525599
0
LINE
8
0
10
23.443075
20
275.525672
11
23.481834
21
275.523572
0
LINE
8
0
10
23.481836
20
275.523499
11
23.505226
21
275.518299
0
LINE
8
0
10
23.505230
20
275.518351
11
23.517660
21
275.508851
0
LINE
8
0
10
23.517665
20
275.508855
11
23.521365
21
275.496415
0
LINE
8
0
10
23.548291
20
275.250706
11
23.548291
21
274.844114
0
LINE
8
0
10
23.521327
20
275.415250
11
23.569597
21
275.475220
0
LINE
8
0
10
23.569593
20
275.475221
11
23.612733
21
275.513251
0
LINE
8
0
10
23.612733
20
275.513247
11
23.653693
21
275.532267
0
LINE
8
0
10
23.653690
20
275.532262
11
23.694650
21
275.538062
0
LINE
8
0
10
23.694645
20
275.538096
11
23.715125
21
275.536496
0
LINE
8
0
10
23.715124
20
275.536610
11
23.737804
21
275.532910
0
LINE
8
0
10
23.737799
20
275.532948
11
23.758279
21
275.527148
0
LINE
8
0
10
23.758277
20
275.527114
11
23.770717
21
275.520514
0
LINE
8
0
10
23.770713
20
275.520478
11
23.776513
21
275.512478
0
LINE
8
0
10
23.776547
20
275.512469
11
23.780247
21
275.500039
0
LINE
8
0
10
23.780209
20
275.500034
11
23.782309
21
275.477364
0
LINE
8
0
10
23.782381
20
275.477361
11
23.783175
21
275.435671
0
LINE
8
0
10
23.364094
20
274.844114
11
23.364094
21
275.496419
0
LINE
8
0
10
24.482094
20
275.189286
11
24.466754
21
275.139556
0
LINE
8
0
10
24.466743
20
275.139557
11
24.425783
21
275.123468
0
LINE
8
0
10
23.521327
20
275.496419
11
23.521327
21
275.415249
0
LINE
8
0
10
24.028700
20
275.123472
11
24.038200
21
275.047412
0
LINE
8
0
10
24.038193
20
275.047417
11
24.069643
21
274.989647
0
LINE
8
0
10
24.069644
20
274.989643
11
24.125224
21
274.953813
0
LINE
8
0
10
24.125220
20
274.953813
11
24.207120
21
274.941373
0
LINE
8
0
10
24.207119
20
274.941377
11
24.291948
21
274.947977
0
LINE
8
0
10
24.291949
20
274.948013
11
24.354839
21
274.963363
0
LINE
8
0
10
24.354835
20
274.963367
11
24.399445
21
274.978717
0
LINE
8
0
10
24.399441
20
274.978718
11
24.427961
21
274.986018
0
LINE
8
0
10
24.427961
20
274.986039
11
24.438941
21
274.983039
0
LINE
8
0
10
24.438944
20
274.983065
11
24.446244
21
274.974265
0
LINE
8
0
10
24.446267
20
274.974257
11
24.449967
21
274.955237
0
LINE
8
0
10
24.449926
20
274.955244
11
24.451526
21
274.925264
0
LINE
8
0
10
24.451413
20
274.925259
11
24.450620
21
274.897469
0
LINE
8
0
10
24.450683
20
274.897470
11
24.448583
21
274.878450
0
LINE
8
0
10
24.448508
20
274.878457
11
24.444208
21
274.864567
0
LINE
8
0
10
24.444161
20
274.864556
11
24.436161
21
274.854366
0
LINE
8
0
10
24.436155
20
274.854374
11
24.410575
21
274.840484
0
LINE
8
0
10
24.410562
20
274.840476
11
24.356452
21
274.822936
0
LINE
8
0
10
24.356449
20
274.822926
11
24.281129
21
274.809036
0
LINE
8
0
10
24.281129
20
274.809025
11
24.190449
21
274.802425
0
LINE
8
0
10
24.190452
20
274.802389
11
24.037614
21
274.824319
0
LINE
8
0
10
24.037614
20
274.824334
11
23.928659
21
274.890884
0
LINE
8
0
10
23.928659
20
274.890882
11
23.862839
21
275.003499
0
LINE
8
0
10
23.862843
20
275.003499
11
23.841623
21
275.162918
0
LINE
8
0
10
23.841632
20
275.162918
11
23.864302
21
275.319413
0
LINE
8
0
10
23.864307
20
275.319413
11
23.930127
21
275.437880
0
LINE
8
0
10
23.930122
20
275.437880
11
24.034698
21
275.512470
0
LINE
8
0
10
24.034698
20
275.512472
11
24.174372
21
275.538052
0
LINE
8
0
10
24.174372
20
275.538062
11
24.314047
21
275.513932
0
LINE
8
0
10
24.314047
20
275.513935
11
24.409847
21
275.446655
0
LINE
8
0
10
24.409847
20
275.446656
11
24.464687
21
275.345742
0
LINE
8
0
10
24.464690
20
275.345742
11
24.482230
21
275.218498
0
LINE
8
0
10
24.303662
20
275.241936
11
24.272212
21
275.363326
0
LINE
8
0
10
24.272212
20
275.363326
11
24.169834
21
275.407936
0
LINE
8
0
10
24.169834
20
275.407932
11
24.108414
21
275.394752
0
LINE
8
0
10
24.108411
20
275.394764
11
24.065271
21
275.358934
0
LINE
8
0
10
24.065271
20
275.358934
11
24.038941
21
275.306274
0
LINE
8
0
10
24.038947
20
275.306276
11
24.028757
21
275.241927
0
LINE
8
0
10
24.425786
20
275.123472
11
24.028700
21
275.123472
0
LINE
8
0
10
25.252137
20
274.585240
11
25.247837
21
274.572060
0
LINE
8
0
10
25.247790
20
274.572072
11
25.233160
21
274.562572
0
LINE
8
0
10
25.233169
20
274.562579
11
25.205379
21
274.555979
0
LINE
8
0
10
25.205382
20
274.555943
11
25.160772
21
274.553843
0
LINE
8
0
10
25.160776
20
274.553768
11
25.116166
21
274.555868
0
LINE
8
0
10
25.116170
20
274.555943
11
25.087651
21
274.562543
0
LINE
8
0
10
25.087651
20
274.562579
11
25.073021
21
274.572079
0
LINE
8
0
10
25.073030
20
274.572072
11
25.069331
21
274.585252
0
LINE
8
0
10
24.482240
20
275.218498
11
24.482100
21
275.189289
0
LINE
8
0
10
25.069368
20
274.895305
11
25.018178
21
274.852895
0
LINE
8
0
10
25.018174
20
274.852898
11
24.968445
21
274.823648
0
LINE
8
0
10
24.968443
20
274.823643
11
24.917254
21
274.807553
0
LINE
8
0
10
24.917248
20
274.807559
11
24.861669
21
274.802359
0
LINE
8
0
10
24.861674
20
274.802410
11
24.739547
21
274.830930
0
LINE
8
0
10
24.739547
20
274.830932
11
24.656917
21
274.909182
0
LINE
8
0
10
24.656915
20
274.909183
11
24.610845
21
275.023266
0
LINE
8
0
10
24.610846
20
275.023266
11
24.596216
21
275.161476
0
LINE
8
0
10
24.596225
20
275.161476
11
24.615245
21
275.317971
0
LINE
8
0
10
24.615238
20
275.317971
11
24.670818
21
275.436438
0
LINE
8
0
10
24.670816
20
275.436438
11
24.760756
21
275.511758
0
LINE
8
0
10
24.760759
20
275.511762
11
24.884346
21
275.538092
0
LINE
8
0
10
24.884346
20
275.538086
11
24.936266
21
275.532286
0
LINE
8
0
10
24.936262
20
275.532252
11
24.985992
21
275.513232
0
LINE
8
0
10
24.985991
20
275.513239
11
25.037191
21
275.478139
0
LINE
8
0
10
25.037187
20
275.478139
11
25.096427
21
275.425489
0
LINE
8
0
10
24.028766
20
275.241925
11
24.303662
21
275.241936
0
LINE
8
0
10
25.096424
20
275.496433
11
25.100124
21
275.508863
0
LINE
8
0
10
25.100083
20
275.508868
11
25.113263
21
275.518368
0
LINE
8
0
10
25.113252
20
275.518361
11
25.137382
21
275.523561
0
LINE
8
0
10
25.137379
20
275.523510
11
25.175409
21
275.525610
0
LINE
8
0
10
25.175408
20
275.525685
11
25.211968
21
275.523585
0
LINE
8
0
10
25.211970
20
275.523510
11
25.236100
21
275.518310
0
LINE
8
0
10
25.236098
20
275.518361
11
25.248528
21
275.508861
0
LINE
8
0
10
25.248533
20
275.508868
11
25.252233
21
275.496438
0
LINE
8
0
10
25.069368
20
274.585240
11
25.069368
21
274.895305
0
LINE
8
0
10
25.069315
20
275.279961
11
24.993266
21
275.356021
0
LINE
8
0
10
24.993262
20
275.356016
11
24.917942
21
275.382346
0
LINE
8
0
10
24.917940
20
275.382339
11
24.855790
21
275.364059
0
LINE
8
0
10
24.855787
20
275.364056
11
24.814097
21
275.316526
0
LINE
8
0
10
24.814096
20
275.316524
11
24.790706
21
275.249244
0
LINE
8
0
10
24.790702
20
275.249243
11
24.783402
21
275.173923
0
LINE
8
0
10
24.783381
20
275.173922
11
24.789981
21
275.093472
0
LINE
8
0
10
24.790017
20
275.093473
11
24.811237
21
275.024733
0
LINE
8
0
10
24.811226
20
275.024729
11
24.851446
21
274.976459
0
LINE
8
0
10
24.851450
20
274.976464
11
24.914340
21
274.958184
0
LINE
8
0
10
24.914336
20
274.958181
11
24.950896
21
274.963381
0
LINE
8
0
10
24.950899
20
274.963330
11
24.987458
21
274.981610
0
LINE
8
0
10
24.987461
20
274.981613
11
25.026221
21
275.013793
0
LINE
8
0
10
25.026220
20
275.013794
11
25.069360
21
275.063524
0
LINE
8
0
10
25.096424
20
275.425492
11
25.096424
21
275.496432
0
LINE
8
0
10
26.055818
20
274.844117
11
26.052118
21
274.830937
0
LINE
8
0
10
26.052159
20
274.830948
11
26.038979
21
274.822148
0
LINE
8
0
10
26.038991
20
274.822138
11
26.014861
21
274.816938
0
LINE
8
0
10
26.014853
20
274.816991
11
25.977553
21
274.814891
0
LINE
8
0
10
25.977557
20
274.814817
11
25.938067
21
274.816917
0
LINE
8
0
10
25.938065
20
274.816991
11
25.914675
21
274.822191
0
LINE
8
0
10
25.914671
20
274.822138
11
25.902241
21
274.830938
0
LINE
8
0
10
25.902236
20
274.830948
11
25.898536
21
274.844128
0
LINE
8
0
10
25.252192
20
275.496433
11
25.252137
21
274.585240
0
LINE
8
0
10
25.898574
20
274.919438
11
25.788154
21
274.831678
0
LINE
8
0
10
25.788154
20
274.831678
11
25.672610
21
274.802428
0
LINE
8
0
10
25.672610
20
274.802426
11
25.559262
21
274.824356
0
LINE
8
0
10
25.559262
20
274.824368
11
25.485402
21
274.884338
0
LINE
8
0
10
25.485404
20
274.884339
11
25.445184
21
274.972099
0
LINE
8
0
10
25.445179
20
274.972096
11
25.433489
21
275.097146
0
LINE
8
0
10
25.069363
20
275.063525
11
25.069315
21
275.279961
0
LINE
8
0
10
25.433477
20
275.496427
11
25.437177
21
275.508867
0
LINE
8
0
10
25.437136
20
275.508863
11
25.451766
21
275.518363
0
LINE
8
0
10
25.451757
20
275.518359
11
25.480277
21
275.523559
0
LINE
8
0
10
25.480279
20
275.523507
11
25.524879
21
275.525607
0
LINE
8
0
10
25.524883
20
275.525682
11
25.569493
21
275.523582
0
LINE
8
0
10
25.569489
20
275.523507
11
25.597279
21
275.518307
0
LINE
8
0
10
25.597278
20
275.518359
11
25.612628
21
275.508859
0
LINE
8
0
10
25.612629
20
275.508863
11
25.616929
21
275.496423
0
LINE
8
0
10
25.898574
20
274.844117
11
25.898574
21
274.919438
0
LINE
8
0
10
25.616976
20
275.127861
11
25.623576
21
275.049611
0
LINE
8
0
10
25.623612
20
275.049610
11
25.643352
21
275.002810
0
LINE
8
0
10
25.643358
20
275.002808
11
25.677728
21
274.972828
0
LINE
8
0
10
25.677724
20
274.972823
11
25.726724
21
274.962633
0
LINE
8
0
10
25.726723
20
274.962642
11
25.796932
21
274.988232
0
LINE
8
0
10
25.796931
20
274.988232
11
25.872991
21
275.062822
0
LINE
8
0
10
25.433477
20
275.097146
11
25.433477
21
275.496427
0
LINE
8
0
10
25.872986
20
275.496475
11
25.876687
21
275.508905
0
LINE
8
0
10
25.876645
20
275.508910
11
25.891275
21
275.518410
0
LINE
8
0
10
25.891279
20
275.518406
11
25.919799
21
275.523606
0
LINE
8
0
10
25.919799
20
275.523555
11
25.964409
21
275.525655
0
LINE
8
0
10
25.964405
20
275.525727
11
26.009005
21
275.523627
0
LINE
8
0
10
26.009008
20
275.523555
11
26.036798
21
275.518355
0
LINE
8
0
10
26.036797
20
275.518406
11
26.051427
21
275.508906
0
LINE
8
0
10
26.051418
20
275.508910
11
26.055718
21
275.496480
0
LINE
8
0
10
25.616976
20
275.496427
11
25.616976
21
275.127861
0
LINE
8
0
10
26.425118
20
274.844117
11
26.420818
21
274.830937
0
LINE
8
0
10
26.420771
20
274.830948
11
26.405421
21
274.822148
0
LINE
8
0
10
26.405418
20
274.822138
11
26.377628
21
274.816938
0
LINE
8
0
10
26.377631
20
274.816991
11
26.333021
21
274.814891
0
LINE
8
0
10
26.333025
20
274.814817
11
26.288415
21
274.816917
0
LINE
8
0
10
26.288419
20
274.816991
11
26.259899
21
274.822191
0
LINE
8
0
10
26.259899
20
274.822138
11
26.245269
21
274.830938
0
LINE
8
0
10
26.245278
20
274.830948
11
26.240978
21
274.844128
0
LINE
8
0
10
25.872986
20
275.062824
11
25.872986
21
275.496475
0
LINE
8
0
10
26.240931
20
275.494959
11
26.245231
21
275.507389
0
LINE
8
0
10
26.245278
20
275.507394
11
26.259908
21
275.516894
0
LINE
8
0
10
26.259899
20
275.516890
11
26.288419
21
275.523490
0
LINE
8
0
10
26.288419
20
275.523523
11
26.333029
21
275.525623
0
LINE
8
0
10
26.333025
20
275.525698
11
26.377635
21
275.523598
0
LINE
8
0
10
26.377631
20
275.523523
11
26.405421
21
275.516923
0
LINE
8
0
10
26.405418
20
275.516890
11
26.420758
21
275.507390
0
LINE
8
0
10
26.420771
20
275.507394
11
26.425071
21
275.494964
0
LINE
8
0
10
26.055765
20
275.496475
11
26.055818
21
274.844117
0
LINE
8
0
10
26.439020
20
275.717270
11
26.416350
21
275.640480
0
LINE
8
0
10
26.416345
20
275.640482
11
26.332245
21
275.619262
0
LINE
8
0
10
26.332247
20
275.619273
11
26.248147
21
275.639753
0
LINE
8
0
10
26.248149
20
275.639749
11
26.226929
21
275.713609
0
LINE
8
0
10
26.226940
20
275.713608
11
26.248870
21
275.790398
0
LINE
8
0
10
26.248882
20
275.790395
11
26.333712
21
275.812325
0
LINE
8
0
10
26.333710
20
275.812337
11
26.417080
21
275.791117
0
LINE
8
0
10
26.417075
20
275.791128
11
26.439005
21
275.717268
0
LINE
8
0
10
26.240931
20
274.844117
11
26.240931
21
275.494959
0
LINE
8
0
10
27.027704
20
275.435724
11
27.026104
21
275.392584
0
LINE
8
0
10
27.026217
20
275.392584
11
27.021917
21
275.366254
0
LINE
8
0
10
27.021870
20
275.366260
11
27.013870
21
275.353080
0
LINE
8
0
10
27.013861
20
275.353092
11
27.002161
21
275.349392
0
LINE
8
0
10
27.002156
20
275.349430
11
26.988976
21
275.351530
0
LINE
8
0
10
26.988990
20
275.351605
11
26.972160
21
275.357405
0
LINE
8
0
10
26.972173
20
275.357439
11
26.952433
21
275.362639
0
LINE
8
0
10
26.952427
20
275.362588
11
26.928297
21
275.365588
0
LINE
8
0
10
26.928300
20
275.365562
11
26.897580
21
275.358962
0
LINE
8
0
10
26.897582
20
275.358926
11
26.865402
21
275.339906
0
LINE
8
0
10
26.865400
20
275.339913
11
26.831030
21
275.304813
0
LINE
8
0
10
26.831034
20
275.304813
11
26.793004
21
275.250704
0
LINE
8
0
10
26.793008
20
274.844109
11
26.788708
21
274.830929
0
LINE
8
0
10
26.788661
20
274.830940
11
26.773311
21
274.822140
0
LINE
8
0
10
26.773307
20
274.822132
11
26.745517
21
274.816932
0
LINE
8
0
10
26.745518
20
274.816984
11
26.700918
21
274.814884
0
LINE
8
0
10
26.700914
20
274.814809
11
26.656304
21
274.816909
0
LINE
8
0
10
26.656308
20
274.816984
11
26.627788
21
274.822184
0
LINE
8
0
10
26.627787
20
274.822132
11
26.613156
21
274.830932
0
LINE
8
0
10
26.613168
20
274.830940
11
26.608868
21
274.844120
0
LINE
8
0
10
26.425118
20
275.494959
11
26.425118
21
274.844117
0
LINE
8
0
10
26.608818
20
275.496414
11
26.612519
21
275.508844
0
LINE
8
0
10
26.612480
20
275.508849
11
26.625660
21
275.518349
0
LINE
8
0
10
26.625648
20
275.518345
11
26.649778
21
275.523545
0
LINE
8
0
10
26.649776
20
275.523494
11
26.687806
21
275.525594
0
LINE
8
0
10
26.687802
20
275.525666
11
26.726562
21
275.523566
0
LINE
8
0
10
26.726563
20
275.523494
11
26.749983
21
275.518294
0
LINE
8
0
10
26.749968
20
275.518345
11
26.762398
21
275.508845
0
LINE
8
0
10
26.762403
20
275.508849
11
26.766103
21
275.496419
0
LINE
8
0
10
26.793008
20
275.250701
11
26.793008
21
274.844109
0
LINE
8
0
10
26.766065
20
275.415248
11
26.814335
21
275.475218
0
LINE
8
0
10
26.814331
20
275.475216
11
26.857471
21
275.513246
0
LINE
8
0
10
26.857474
20
275.513244
11
26.898424
21
275.532264
0
LINE
8
0
10
26.898428
20
275.532257
11
26.939388
21
275.538057
0
LINE
8
0
10
26.939383
20
275.538091
11
26.959863
21
275.536491
0
LINE
8
0
10
26.959862
20
275.536604
11
26.982532
21
275.532904
0
LINE
8
0
10
26.982537
20
275.532942
11
27.003017
21
275.527142
0
LINE
8
0
10
27.003016
20
275.527108
11
27.015446
21
275.520508
0
LINE
8
0
10
27.015451
20
275.520473
11
27.021251
21
275.512473
0
LINE
8
0
10
27.021285
20
275.512466
11
27.024985
21
275.500036
0
LINE
8
0
10
27.024944
20
275.500031
11
27.027044
21
275.477361
0
LINE
8
0
10
27.027119
20
275.477356
11
27.027913
21
275.435666
0
LINE
8
0
10
26.608818
20
274.844109
11
26.608818
21
275.496414
0
LINE
8
0
10
27.726811
20
275.189281
11
27.711471
21
275.139551
0
LINE
8
0
10
27.711458
20
275.139552
11
27.670498
21
275.123463
0
LINE
8
0
10
26.766065
20
275.496414
11
26.766065
21
275.415244
0
LINE
8
0
10
27.273414
20
275.123466
11
27.282914
21
275.047416
0
LINE
8
0
10
27.282910
20
275.047412
11
27.314360
21
274.989642
0
LINE
8
0
10
27.314359
20
274.989640
11
27.369938
21
274.953810
0
LINE
8
0
10
27.369933
20
274.953810
11
27.451834
21
274.941380
0
LINE
8
0
10
27.451835
20
274.941372
11
27.536665
21
274.947972
0
LINE
8
0
10
27.536666
20
274.948008
11
27.599556
21
274.963358
0
LINE
8
0
10
27.599552
20
274.963362
11
27.644152
21
274.978702
0
LINE
8
0
10
27.644156
20
274.978713
11
27.672676
21
274.986013
0
LINE
8
0
10
27.672678
20
274.986036
11
27.683658
21
274.983036
0
LINE
8
0
10
27.683660
20
274.983062
11
27.690960
21
274.974262
0
LINE
8
0
10
27.690981
20
274.974252
11
27.694681
21
274.955232
0
LINE
8
0
10
27.694643
20
274.955239
11
27.696243
21
274.925259
0
LINE
8
0
10
27.696130
20
274.925254
11
27.695337
21
274.897464
0
LINE
8
0
10
27.695397
20
274.897467
11
27.693297
21
274.878447
0
LINE
8
0
10
27.693223
20
274.878452
11
27.688923
21
274.864562
0
LINE
8
0
10
27.688875
20
274.864553
11
27.680875
21
274.854363
0
LINE
8
0
10
27.680869
20
274.854369
11
27.655279
21
274.840479
0
LINE
8
0
10
27.655276
20
274.840471
11
27.601166
21
274.822931
0
LINE
8
0
10
27.601163
20
274.822921
11
27.525843
21
274.809031
0
LINE
8
0
10
27.525842
20
274.809022
11
27.435162
21
274.802422
0
LINE
8
0
10
27.435166
20
274.802386
11
27.282328
21
274.824316
0
LINE
8
0
10
27.282328
20
274.824328
11
27.173373
21
274.890878
0
LINE
8
0
10
27.173373
20
274.890876
11
27.107553
21
275.003494
0
LINE
8
0
10
27.107558
20
275.003494
11
27.086338
21
275.162915
0
LINE
8
0
10
27.086346
20
275.162915
11
27.109026
21
275.319408
0
LINE
8
0
10
27.109021
20
275.319408
11
27.174831
21
275.437875
0
LINE
8
0
10
27.174836
20
275.437875
11
27.279413
21
275.512465
0
LINE
8
0
10
27.279413
20
275.512466
11
27.419088
21
275.538046
0
LINE
8
0
10
27.419088
20
275.538059
11
27.558761
21
275.513929
0
LINE
8
0
10
27.558761
20
275.513932
11
27.654561
21
275.446652
0
LINE
8
0
10
27.654562
20
275.446651
11
27.709412
21
275.345736
0
LINE
8
0
10
27.709407
20
275.345736
11
27.726947
21
275.218493
0
LINE
8
0
10
27.548376
20
275.241930
11
27.516926
21
275.363323
0
LINE
8
0
10
27.516928
20
275.363323
11
27.414551
21
275.407923
0
LINE
8
0
10
27.414551
20
275.407927
11
27.353120
21
275.394747
0
LINE
8
0
10
27.353118
20
275.394761
11
27.309978
21
275.358931
0
LINE
8
0
10
27.309975
20
275.358929
11
27.283645
21
275.306269
0
LINE
8
0
10
27.283651
20
275.306271
11
27.273461
21
275.241921
0
LINE
8
0
10
27.670503
20
275.123466
11
27.273414
21
275.123466
0
LINE
8
0
10
28.337434
20
275.028394
11
28.316214
21
274.930404
0
LINE
8
0
10
28.316223
20
274.930408
11
28.257713
21
274.859478
0
LINE
8
0
10
28.257718
20
274.859481
11
28.167778
21
274.817061
0
LINE
8
0
10
28.167777
20
274.817060
11
28.055159
21
274.802430
0
LINE
8
0
10
28.055159
20
274.802439
11
27.984959
21
274.808239
0
LINE
8
0
10
27.984963
20
274.808273
11
27.925723
21
274.821453
0
LINE
8
0
10
27.925725
20
274.821442
11
27.881855
21
274.838982
0
LINE
8
0
10
27.881852
20
274.838989
11
27.856272
21
274.855079
0
LINE
8
0
10
27.856259
20
274.855076
11
27.843819
21
274.879206
0
LINE
8
0
10
27.843823
20
274.879203
11
27.839523
21
274.928203
0
LINE
8
0
10
27.839476
20
274.928201
11
27.841076
21
274.961831
0
LINE
8
0
10
27.840963
20
274.961835
11
27.845263
21
274.982315
0
LINE
8
0
10
27.845310
20
274.982314
11
27.852610
21
274.992504
0
LINE
8
0
10
27.852631
20
274.992495
11
27.863611
21
274.995495
0
LINE
8
0
10
27.863614
20
274.995469
11
27.887004
21
274.985969
0
LINE
8
0
10
27.887011
20
274.985976
11
27.926501
21
274.966236
0
LINE
8
0
10
27.926503
20
274.966230
11
27.980613
21
274.945750
0
LINE
8
0
10
27.980613
20
274.945751
11
28.051543
21
274.936251
0
LINE
8
0
10
28.051545
20
274.936255
11
28.095415
21
274.941455
0
LINE
8
0
10
28.095416
20
274.941404
11
28.129056
21
274.956034
0
LINE
8
0
10
28.129052
20
274.956025
11
28.150982
21
274.980155
0
LINE
8
0
10
28.150994
20
274.980152
11
28.158293
21
275.013782
0
LINE
8
0
10
28.158315
20
275.013786
11
28.144424
21
275.051076
0
LINE
8
0
10
28.144415
20
275.051079
11
28.108586
21
275.078869
0
LINE
8
0
10
28.108584
20
275.078868
11
28.058124
21
275.100798
0
LINE
8
0
10
28.058123
20
275.100810
11
28.000353
21
275.123480
0
LINE
8
0
10
28.000348
20
275.123485
11
27.942578
21
275.152005
0
LINE
8
0
10
27.942576
20
275.152007
11
27.892116
21
275.191496
0
LINE
8
0
10
27.892112
20
275.191495
11
27.856282
21
275.247805
0
LINE
8
0
10
27.856283
20
275.247806
11
27.843103
21
275.326786
0
LINE
8
0
10
27.843114
20
275.326787
11
27.861394
21
275.412347
0
LINE
8
0
10
27.861397
20
275.412351
11
27.914047
21
275.479631
0
LINE
8
0
10
27.914044
20
275.479629
11
27.997414
21
275.522769
0
LINE
8
0
10
27.997409
20
275.522772
11
28.108563
21
275.538122
0
LINE
8
0
10
28.108563
20
275.538123
11
28.167803
21
275.533823
0
LINE
8
0
10
28.167800
20
275.533776
11
28.220450
21
275.522796
0
LINE
8
0
10
28.220446
20
275.522793
11
28.259936
21
275.508163
0
LINE
8
0
10
28.259939
20
275.508172
11
28.282608
21
275.494992
0
LINE
8
0
10
28.282613
20
275.495006
11
28.292803
21
275.484026
0
LINE
8
0
10
28.292794
20
275.484024
11
28.297094
21
275.470844
0
LINE
8
0
10
28.297141
20
275.470855
11
28.299241
21
275.451835
0
LINE
8
0
10
28.299316
20
275.451842
11
28.300916
21
275.424052
0
LINE
8
0
10
28.300803
20
275.424053
11
28.299203
21
275.391883
0
LINE
8
0
10
28.299316
20
275.391882
11
28.295616
21
275.372142
0
LINE
8
0
10
28.295654
20
275.372137
11
28.289054
21
275.361947
0
LINE
8
0
10
28.289018
20
275.361955
11
28.278828
21
275.359855
0
LINE
8
0
10
28.278837
20
275.359783
11
28.258357
21
275.367083
0
LINE
8
0
10
28.258358
20
275.367104
11
28.223258
21
275.383934
0
LINE
8
0
10
28.223261
20
275.383921
11
28.174991
21
275.400011
0
LINE
8
0
10
28.174994
20
275.400005
11
28.112844
21
275.408005
0
LINE
8
0
10
28.112841
20
275.408014
11
28.069701
21
275.402814
0
LINE
8
0
10
28.069701
20
275.402865
11
28.039721
21
275.388235
0
LINE
8
0
10
28.039716
20
275.388234
11
28.022176
21
275.365564
0
LINE
8
0
10
28.022166
20
275.365570
11
28.016366
21
275.338520
0
LINE
8
0
10
28.016332
20
275.338516
11
28.030222
21
275.300486
0
LINE
8
0
10
28.030230
20
275.300487
11
28.066790
21
275.273427
0
LINE
8
0
10
28.066793
20
275.273431
11
28.117993
21
275.251502
0
LINE
8
0
10
28.117989
20
275.251489
11
28.176500
21
275.228819
0
LINE
8
0
10
28.176495
20
275.228814
11
28.234994
21
275.201024
0
LINE
8
0
10
28.234998
20
275.201025
11
28.286918
21
275.161536
0
LINE
8
0
10
28.286915
20
275.161535
11
28.323475
21
275.105225
0
LINE
8
0
10
28.323478
20
275.105225
11
28.337368
21
275.028436
0
LINE
8
0
10
27.726957
20
275.218493
11
27.726817
21
275.189283
0
LINE
8
0
10
22.774179
20
273.314673
11
22.761749
21
273.286153
0
LINE
8
0
10
22.761744
20
273.286151
11
22.739064
21
273.270061
0
LINE
8
0
10
22.739069
20
273.270067
11
22.699579
21
273.263467
0
LINE
8
0
10
22.699577
20
273.263432
11
22.638147
21
273.261332
0
LINE
8
0
10
22.638145
20
273.261259
11
22.570865
21
273.263359
0
LINE
8
0
10
22.570866
20
273.263432
11
22.531376
21
273.270032
0
LINE
8
0
10
22.531374
20
273.270067
11
22.510154
21
273.286157
0
LINE
8
0
10
22.510163
20
273.286151
11
22.499973
21
273.314671
0
LINE
8
0
10
27.273470
20
275.241919
11
27.548376
21
275.241930
0
LINE
8
0
10
22.203788
20
273.314673
11
22.193598
21
273.286883
0
LINE
8
0
10
22.193605
20
273.286884
11
22.172385
21
273.270794
0
LINE
8
0
10
22.172396
20
273.270800
11
22.133636
21
273.263500
0
LINE
8
0
10
22.133637
20
273.263477
11
22.069287
21
273.261377
0
LINE
8
0
10
22.069285
20
273.261304
11
22.001275
21
273.263404
0
LINE
8
0
10
22.001274
20
273.263477
11
21.961784
21
273.270077
0
LINE
8
0
10
21.961782
20
273.270115
11
21.940562
21
273.286205
0
LINE
8
0
10
21.940570
20
273.286199
11
21.929590
21
273.314719
0
LINE
8
0
10
21.714591
20
274.140339
11
21.707291
21
274.181299
0
LINE
8
0
10
21.707270
20
274.181297
11
21.715270
21
274.204687
0
LINE
8
0
10
21.715279
20
274.204691
11
21.745259
21
274.214191
0
LINE
8
0
10
21.745261
20
274.214187
11
21.803770
21
274.216287
0
LINE
8
0
10
21.803768
20
274.216359
11
21.857877
21
274.214759
0
LINE
8
0
10
21.857881
20
274.214872
11
21.888600
21
274.209672
0
LINE
8
0
10
21.888597
20
274.209723
11
21.902486
21
274.198033
0
LINE
8
0
10
21.902497
20
274.198021
11
21.908297
21
274.176801
0
LINE
8
0
10
22.499981
20
273.314673
11
22.348605
21
273.914327
0
LINE
8
0
10
22.348605
20
273.914327
11
22.347005
21
273.914327
0
LINE
8
0
10
22.347005
20
273.914327
11
22.203675
21
273.314673
0
LINE
8
0
10
22.247646
20
274.171692
11
22.254946
21
274.194362
0
LINE
8
0
10
22.254969
20
274.194367
11
22.271059
21
274.207547
0
LINE
8
0
10
22.271053
20
274.207533
11
22.302503
21
274.214133
0
LINE
8
0
10
22.302502
20
274.214168
11
22.355152
21
274.216268
0
LINE
8
0
10
22.355151
20
274.216343
11
22.410731
21
274.214743
0
LINE
8
0
10
22.410727
20
274.214856
11
22.442907
21
274.208256
0
LINE
8
0
10
22.442908
20
274.208221
11
22.459738
21
274.195041
0
LINE
8
0
10
22.459725
20
274.195052
11
22.467725
21
274.171642
0
LINE
8
0
10
21.929587
20
273.314718
11
21.714591
21
274.140339
0
LINE
8
0
10
22.813658
20
274.174571
11
22.819458
21
274.194311
0
LINE
8
0
10
22.819492
20
274.194317
11
22.833382
21
274.207497
0
LINE
8
0
10
22.833390
20
274.207485
11
22.862640
21
274.214085
0
LINE
8
0
10
22.862643
20
274.214121
11
22.916023
21
274.216221
0
LINE
8
0
10
22.916025
20
274.216293
11
22.965755
21
274.214193
0
LINE
8
0
10
22.965754
20
274.214121
11
22.992084
21
274.204621
0
LINE
8
0
10
22.992080
20
274.204625
11
22.998680
21
274.180495
0
LINE
8
0
10
22.998713
20
274.180498
11
22.991413
21
274.138088
0
LINE
8
0
10
21.908332
20
274.176812
11
22.074333
21
273.452109
0
LINE
8
0
10
22.074333
20
273.452109
11
22.075127
21
273.452109
0
LINE
8
0
10
22.075127
20
273.452109
11
22.247709
21
274.171692
0
LINE
8
0
10
23.308749
20
273.290546
11
23.304449
21
273.277366
0
LINE
8
0
10
23.304402
20
273.277378
11
23.289052
21
273.268578
0
LINE
8
0
10
23.289048
20
273.268570
11
23.261258
21
273.263370
0
LINE
8
0
10
23.261261
20
273.263421
11
23.216651
21
273.261321
0
LINE
8
0
10
23.216655
20
273.261246
11
23.172045
21
273.263346
0
LINE
8
0
10
23.172049
20
273.263421
11
23.143529
21
273.268621
0
LINE
8
0
10
23.143530
20
273.268570
11
23.128900
21
273.277370
0
LINE
8
0
10
23.128898
20
273.277378
11
23.124598
21
273.290558
0
LINE
8
0
10
22.467734
20
274.171645
11
22.646166
21
273.452061
0
LINE
8
0
10
22.646166
20
273.452061
11
22.647766
21
273.452061
0
LINE
8
0
10
22.647766
20
273.452061
11
22.813769
21
274.174571
0
LINE
8
0
10
23.124551
20
273.941388
11
23.128851
21
273.953828
0
LINE
8
0
10
23.128898
20
273.953824
11
23.143528
21
273.963324
0
LINE
8
0
10
23.143530
20
273.963320
11
23.172050
21
273.969920
0
LINE
8
0
10
23.172049
20
273.969955
11
23.216659
21
273.972055
0
LINE
8
0
10
23.216655
20
273.972128
11
23.261265
21
273.970028
0
LINE
8
0
10
23.261261
20
273.969955
11
23.289051
21
273.963355
0
LINE
8
0
10
23.289048
20
273.963320
11
23.304398
21
273.953820
0
LINE
8
0
10
23.304402
20
273.953824
11
23.308702
21
273.941384
0
LINE
8
0
10
22.991392
20
274.138088
11
22.774179
21
273.314673
0
LINE
8
0
10
23.322650
20
274.163699
11
23.299980
21
274.086909
0
LINE
8
0
10
23.299975
20
274.086912
11
23.215875
21
274.065692
0
LINE
8
0
10
23.215877
20
274.065703
11
23.131777
21
274.086183
0
LINE
8
0
10
23.131780
20
274.086182
11
23.110560
21
274.160042
0
LINE
8
0
10
23.110571
20
274.160037
11
23.132501
21
274.236827
0
LINE
8
0
10
23.132512
20
274.236825
11
23.217342
21
274.258755
0
LINE
8
0
10
23.217341
20
274.258767
11
23.300701
21
274.237547
0
LINE
8
0
10
23.300705
20
274.237558
11
23.322635
21
274.163698
0
LINE
8
0
10
23.124551
20
273.290546
11
23.124551
21
273.941388
0
LINE
8
0
10
24.115362
20
273.290546
11
24.111062
21
273.277366
0
LINE
8
0
10
24.111015
20
273.277378
11
24.096385
21
273.268578
0
LINE
8
0
10
24.096381
20
273.268570
11
24.067861
21
273.263370
0
LINE
8
0
10
24.067861
20
273.263421
11
24.023991
21
273.261321
0
LINE
8
0
10
24.023988
20
273.261246
11
23.978648
21
273.263346
0
LINE
8
0
10
23.978652
20
273.263421
11
23.950862
21
273.268621
0
LINE
8
0
10
23.950862
20
273.268570
11
23.936232
21
273.277370
0
LINE
8
0
10
23.936231
20
273.277378
11
23.931931
21
273.290558
0
LINE
8
0
10
23.931881
20
273.662764
11
23.924581
21
273.737354
0
LINE
8
0
10
23.924560
20
273.737355
11
23.904820
21
273.783425
0
LINE
8
0
10
23.904814
20
273.783424
11
23.870444
21
273.813404
0
LINE
8
0
10
23.870448
20
273.813409
11
23.822178
21
273.824389
0
LINE
8
0
10
23.822182
20
273.824392
11
23.751252
21
273.798802
0
LINE
8
0
10
23.751253
20
273.798799
11
23.676663
21
273.724209
0
LINE
8
0
10
23.308749
20
273.941388
11
23.308749
21
273.290546
0
LINE
8
0
10
23.676664
20
273.290557
11
23.672364
21
273.277377
0
LINE
8
0
10
23.672317
20
273.277391
11
23.656967
21
273.268591
0
LINE
8
0
10
23.656963
20
273.268580
11
23.629173
21
273.263380
0
LINE
8
0
10
23.629174
20
273.263434
11
23.584564
21
273.261334
0
LINE
8
0
10
23.584568
20
273.261259
11
23.539968
21
273.263359
0
LINE
8
0
10
23.539964
20
273.263434
11
23.511444
21
273.268634
0
LINE
8
0
10
23.511442
20
273.268580
11
23.496812
21
273.277380
0
LINE
8
0
10
23.496824
20
273.277391
11
23.492524
21
273.290571
0
LINE
8
0
10
23.931881
20
273.290546
11
23.931881
21
273.662764
0
LINE
8
0
10
23.492477
20
273.942862
11
23.496177
21
273.955292
0
LINE
8
0
10
23.496136
20
273.955297
11
23.509316
21
273.964797
0
LINE
8
0
10
23.509306
20
273.964793
11
23.533435
21
273.969993
0
LINE
8
0
10
23.533432
20
273.969942
11
23.571462
21
273.972042
0
LINE
8
0
10
23.571458
20
273.972117
11
23.610218
21
273.970017
0
LINE
8
0
10
23.610219
20
273.969942
11
23.633639
21
273.964742
0
LINE
8
0
10
23.633624
20
273.964793
11
23.646064
21
273.955293
0
LINE
8
0
10
23.646060
20
273.955297
11
23.649760
21
273.942867
0
LINE
8
0
10
23.676664
20
273.724210
11
23.676664
21
273.290557
0
LINE
8
0
10
23.649722
20
273.867540
11
23.759410
21
273.955300
0
LINE
8
0
10
23.759410
20
273.955297
11
23.876417
21
273.984547
0
LINE
8
0
10
23.876417
20
273.984550
11
23.988301
21
273.962620
0
LINE
8
0
10
23.988301
20
273.962608
11
24.062161
21
273.902638
0
LINE
8
0
10
24.062159
20
273.902640
11
24.103119
21
273.814880
0
LINE
8
0
10
24.103114
20
273.814880
11
24.115554
21
273.693487
0
LINE
8
0
10
23.492477
20
273.290557
11
23.492477
21
273.942862
0
LINE
8
0
10
24.961458
20
273.409013
11
24.959859
21
273.377563
0
LINE
8
0
10
24.959971
20
273.377565
11
24.956972
21
273.355635
0
LINE
8
0
10
24.956995
20
273.355623
11
24.951194
21
273.340273
0
LINE
8
0
10
24.951161
20
273.340269
11
24.939471
21
273.324919
0
LINE
8
0
10
24.939459
20
273.324915
11
24.908009
21
273.303695
0
LINE
8
0
10
24.908010
20
273.303706
11
24.851700
21
273.278126
0
LINE
8
0
10
24.851699
20
273.278113
11
24.775649
21
273.258373
0
LINE
8
0
10
24.775647
20
273.258367
11
24.683507
21
273.250367
0
LINE
8
0
10
24.683506
20
273.250361
11
24.507997
21
273.280341
0
LINE
8
0
10
24.507997
20
273.280346
11
24.374904
21
273.369556
0
LINE
8
0
10
24.374904
20
273.369556
11
24.290804
21
273.518739
0
LINE
8
0
10
24.290806
20
273.518739
11
24.261557
21
273.726422
0
LINE
8
0
10
24.261554
20
273.726422
11
24.293734
21
273.940690
0
LINE
8
0
10
24.293735
20
273.940690
11
24.383675
21
274.097916
0
LINE
8
0
10
24.383677
20
274.097916
11
24.521890
21
274.194446
0
LINE
8
0
10
24.521890
20
274.194449
11
24.700325
21
274.227349
0
LINE
8
0
10
24.700325
20
274.227350
11
24.776385
21
274.220750
0
LINE
8
0
10
24.776380
20
274.220714
11
24.843660
21
274.203174
0
LINE
8
0
10
24.843658
20
274.203164
11
24.899968
21
274.179034
0
LINE
8
0
10
24.899967
20
274.179037
11
24.934337
21
274.154907
0
LINE
8
0
10
24.934334
20
274.154912
11
24.948223
21
274.138822
0
LINE
8
0
10
24.948235
20
274.138826
11
24.954035
21
274.121996
0
LINE
8
0
10
24.954069
20
274.122009
11
24.957068
21
274.097879
0
LINE
8
0
10
24.957043
20
274.097881
11
24.958642
21
274.063511
0
LINE
8
0
10
24.958530
20
274.063515
11
24.956930
21
274.026215
0
LINE
8
0
10
24.957043
20
274.026219
11
24.951842
21
274.001349
0
LINE
8
0
10
24.951894
20
274.001361
11
24.943093
21
273.987471
0
LINE
8
0
10
24.943086
20
273.987460
11
24.931395
21
273.983160
0
LINE
8
0
10
24.931381
20
273.983113
11
24.903591
21
273.995553
0
LINE
8
0
10
24.903594
20
273.995549
11
24.859724
21
274.024069
0
LINE
8
0
10
24.859721
20
274.024071
11
24.796101
21
274.052591
0
LINE
8
0
10
24.796102
20
274.052590
11
24.708342
21
274.065770
0
LINE
8
0
10
24.708345
20
274.065758
11
24.607430
21
274.042368
0
LINE
8
0
10
24.607430
20
274.042361
11
24.532110
21
273.976551
0
LINE
8
0
10
24.532109
20
273.976546
11
24.485309
21
273.873435
0
LINE
8
0
10
24.485307
20
273.873435
11
24.469217
21
273.736685
0
LINE
8
0
10
24.469220
20
273.736685
11
24.486050
21
273.591892
0
LINE
8
0
10
24.486037
20
273.591892
11
24.535037
21
273.491710
0
LINE
8
0
10
24.535035
20
273.491710
11
24.611825
21
273.432471
0
LINE
8
0
10
24.611822
20
273.432474
11
24.713470
21
273.413454
0
LINE
8
0
10
24.713470
20
273.413458
11
24.801960
21
273.425148
0
LINE
8
0
10
24.801960
20
273.425163
11
24.865580
21
273.452223
0
LINE
8
0
10
24.865579
20
273.452220
11
24.909449
21
273.478550
0
LINE
8
0
10
24.909451
20
273.478543
11
24.936511
21
273.490233
0
LINE
8
0
10
24.936507
20
273.490245
11
24.948198
21
273.487246
0
LINE
8
0
10
24.948211
20
273.487272
11
24.955511
21
273.475582
0
LINE
8
0
10
24.955532
20
273.475567
11
24.959832
21
273.450697
0
LINE
8
0
10
24.959879
20
273.450709
11
24.961479
21
273.409019
0
LINE
8
0
10
23.649722
20
273.942862
11
23.649722
21
273.867542
0
LINE
8
0
10
25.748321
20
273.623280
11
25.726391
21
273.471172
0
LINE
8
0
10
25.726378
20
273.471172
11
25.659829
21
273.352705
0
LINE
8
0
10
25.659831
20
273.352705
11
25.547946
21
273.275915
0
LINE
8
0
10
25.547946
20
273.275917
11
25.390718
21
273.248857
0
LINE
8
0
10
25.390718
20
273.248861
11
25.239344
21
273.272991
0
LINE
8
0
10
25.239344
20
273.272991
11
25.132572
21
273.343201
0
LINE
8
0
10
25.132572
20
273.343198
11
25.069682
21
273.456548
0
LINE
8
0
10
25.069685
20
273.456548
11
25.049206
21
273.610117
0
LINE
8
0
10
25.049207
20
273.610117
11
25.071137
21
273.762223
0
LINE
8
0
10
25.071150
20
273.762223
11
25.138429
21
273.880690
0
LINE
8
0
10
25.138429
20
273.880690
11
25.249581
21
273.957480
0
LINE
8
0
10
25.249581
20
273.957478
11
25.406807
21
273.984538
0
LINE
8
0
10
25.406807
20
273.984534
11
25.558916
21
273.960404
0
LINE
8
0
10
25.558916
20
273.960407
11
25.664956
21
273.890927
0
LINE
8
0
10
25.664956
20
273.890930
11
25.727846
21
273.777579
0
LINE
8
0
10
25.727842
20
273.777579
11
25.748322
21
273.623280
0
LINE
8
0
10
24.115550
20
273.693487
11
24.115341
21
273.290546
0
LINE
8
0
10
25.558916
20
273.615959
11
25.550916
21
273.704449
0
LINE
8
0
10
25.550910
20
273.704449
11
25.525320
21
273.775379
0
LINE
8
0
10
25.525316
20
273.775378
11
25.476316
21
273.822178
0
LINE
8
0
10
25.476318
20
273.822180
11
25.400268
21
273.839010
0
LINE
8
0
10
25.400264
20
273.838997
11
25.328604
21
273.823647
0
LINE
8
0
10
25.328604
20
273.823643
11
25.278144
21
273.779773
0
LINE
8
0
10
25.278140
20
273.779770
11
25.248160
21
273.710290
0
LINE
8
0
10
25.248155
20
273.710293
11
25.238655
21
273.618153
0
LINE
8
0
10
25.238659
20
273.618156
11
25.246659
21
273.528946
0
LINE
8
0
10
25.246668
20
273.528946
11
25.272248
21
273.458736
0
LINE
8
0
10
25.272261
20
273.458736
11
25.321261
21
273.411936
0
LINE
8
0
10
25.321259
20
273.411934
11
25.397319
21
273.395844
0
LINE
8
0
10
25.397314
20
273.395850
11
25.469704
21
273.410480
0
LINE
8
0
10
25.469706
20
273.410471
11
25.520166
21
273.454341
0
LINE
8
0
10
25.520168
20
273.454342
11
25.549418
21
273.523092
0
LINE
8
0
10
25.549423
20
273.523088
11
25.558923
21
273.615957
0
LINE
8
0
10
26.931538
20
273.290538
11
26.927238
21
273.277358
0
LINE
8
0
10
26.927191
20
273.277370
11
26.912561
21
273.268570
0
LINE
8
0
10
26.912570
20
273.268562
11
26.884780
21
273.263362
0
LINE
8
0
10
26.884781
20
273.263413
11
26.840171
21
273.261313
0
LINE
8
0
10
26.840175
20
273.261238
11
26.794835
21
273.263338
0
LINE
8
0
10
26.794839
20
273.263413
11
26.766319
21
273.268613
0
LINE
8
0
10
26.766319
20
273.268562
11
26.751689
21
273.277362
0
LINE
8
0
10
26.751696
20
273.277370
11
26.747996
21
273.290550
0
LINE
8
0
10
26.748037
20
273.677387
11
26.741437
21
273.737357
0
LINE
8
0
10
26.741401
20
273.737355
11
26.722381
21
273.783425
0
LINE
8
0
10
26.722388
20
273.783424
11
26.690218
21
273.813404
0
LINE
8
0
10
26.690217
20
273.813409
11
26.644147
21
273.824389
0
LINE
8
0
10
26.644148
20
273.824392
11
26.577599
21
273.798802
0
LINE
8
0
10
26.577600
20
273.798802
11
26.504471
21
273.724212
0
LINE
8
0
10
26.504474
20
273.290559
11
26.500174
21
273.277379
0
LINE
8
0
10
26.500128
20
273.277391
11
26.484778
21
273.268591
0
LINE
8
0
10
26.484775
20
273.268583
11
26.456985
21
273.263383
0
LINE
8
0
10
26.456987
20
273.263434
11
26.413117
21
273.261334
0
LINE
8
0
10
26.413114
20
273.261262
11
26.368504
21
273.263362
0
LINE
8
0
10
26.368508
20
273.263434
11
26.339988
21
273.268634
0
LINE
8
0
10
26.339986
20
273.268583
11
26.325356
21
273.277383
0
LINE
8
0
10
26.325368
20
273.277391
11
26.321068
21
273.290571
0
LINE
8
0
10
26.748037
20
273.290538
11
26.748037
21
273.677387
0
LINE
8
0
10
26.321018
20
273.677408
11
26.314418
21
273.737378
0
LINE
8
0
10
26.314385
20
273.737376
11
26.296105
21
273.783446
0
LINE
8
0
10
26.296102
20
273.783448
11
26.263922
21
273.813428
0
LINE
8
0
10
26.263921
20
273.813431
11
26.217851
21
273.824411
0
LINE
8
0
10
26.217852
20
273.824413
11
26.150572
21
273.798833
0
LINE
8
0
10
26.150571
20
273.798823
11
26.078181
21
273.724233
0
LINE
8
0
10
26.504474
20
273.724210
11
26.504474
21
273.290559
0
LINE
8
0
10
26.078178
20
273.290580
11
26.073878
21
273.277400
0
LINE
8
0
10
26.073831
20
273.277412
11
26.058481
21
273.268612
0
LINE
8
0
10
26.058477
20
273.268604
11
26.030687
21
273.263404
0
LINE
8
0
10
26.030691
20
273.263455
11
25.986081
21
273.261355
0
LINE
8
0
10
25.986085
20
273.261283
11
25.941475
21
273.263383
0
LINE
8
0
10
25.941479
20
273.263455
11
25.912959
21
273.268655
0
LINE
8
0
10
25.912959
20
273.268604
11
25.898329
21
273.277404
0
LINE
8
0
10
25.898338
20
273.277412
11
25.894038
21
273.290592
0
LINE
8
0
10
26.321018
20
273.290559
11
26.321018
21
273.677408
0
LINE
8
0
10
25.893991
20
273.942886
11
25.897691
21
273.955316
0
LINE
8
0
10
25.897650
20
273.955321
11
25.910830
21
273.964821
0
LINE
8
0
10
25.910819
20
273.964817
11
25.934949
21
273.970017
0
LINE
8
0
10
25.934957
20
273.969966
11
25.972987
21
273.972066
0
LINE
8
0
10
25.972985
20
273.972138
11
26.011745
21
273.970038
0
LINE
8
0
10
26.011744
20
273.969966
11
26.035164
21
273.964766
0
LINE
8
0
10
26.035152
20
273.964817
11
26.047582
21
273.955317
0
LINE
8
0
10
26.047587
20
273.955321
11
26.051287
21
273.942891
0
LINE
8
0
10
26.078178
20
273.724232
11
26.078178
21
273.290580
0
LINE
8
0
10
26.051249
20
273.867564
11
26.158752
21
273.955324
0
LINE
8
0
10
26.158752
20
273.955321
11
26.271369
21
273.984571
0
LINE
8
0
10
26.271369
20
273.984574
11
26.343759
21
273.975774
0
LINE
8
0
10
26.343762
20
273.975766
11
26.400802
21
273.951636
0
LINE
8
0
10
26.400803
20
273.951638
11
26.444673
21
273.914338
0
LINE
8
0
10
26.444676
20
273.914343
11
26.475396
21
273.865343
0
LINE
8
0
10
26.475395
20
273.865344
11
26.532435
21
273.919454
0
LINE
8
0
10
26.532437
20
273.919457
11
26.588017
21
273.956017
0
LINE
8
0
10
26.588012
20
273.956020
11
26.642851
21
273.977240
0
LINE
8
0
10
26.642854
20
273.977229
11
26.699164
21
273.984529
0
LINE
8
0
10
26.699163
20
273.984550
11
26.808854
21
273.962620
0
LINE
8
0
10
26.808854
20
273.962608
11
26.880514
21
273.902638
0
LINE
8
0
10
26.880513
20
273.902640
11
26.920003
21
273.814880
0
LINE
8
0
10
26.920005
20
273.814880
11
26.931695
21
273.708110
0
LINE
8
0
10
25.893991
20
273.290580
11
25.893991
21
273.942886
0
LINE
8
0
10
27.768859
20
273.626199
11
27.749839
21
273.468973
0
LINE
8
0
10
27.749846
20
273.468973
11
27.695736
21
273.350503
0
LINE
8
0
10
27.695733
20
273.350503
11
27.606513
21
273.275183
0
LINE
8
0
10
27.606511
20
273.275179
11
27.484384
21
273.248849
0
LINE
8
0
10
27.484384
20
273.248856
11
27.431734
21
273.254656
0
LINE
8
0
10
27.431737
20
273.254690
11
27.385667
21
273.270780
0
LINE
8
0
10
27.385668
20
273.270776
11
27.341798
21
273.299296
0
LINE
8
0
10
27.341796
20
273.299296
11
27.296456
21
273.338786
0
LINE
8
0
10
26.051249
20
273.942886
11
26.051249
21
273.867566
0
LINE
8
0
10
27.296457
20
273.031649
11
27.292157
21
273.018469
0
LINE
8
0
10
27.292110
20
273.018480
11
27.276760
21
273.008980
0
LINE
8
0
10
27.276759
20
273.008984
11
27.248969
21
273.002384
0
LINE
8
0
10
27.248970
20
273.002349
11
27.204360
21
273.000249
0
LINE
8
0
10
27.204363
20
273.000176
11
27.159763
21
273.002276
0
LINE
8
0
10
27.159760
20
273.002349
11
27.131240
21
273.008949
0
LINE
8
0
10
27.131238
20
273.008984
11
27.116608
21
273.018484
0
LINE
8
0
10
27.116617
20
273.018480
11
27.112317
21
273.031660
0
LINE
8
0
10
26.931710
20
273.708110
11
26.931570
21
273.290538
0
LINE
8
0
10
27.112270
20
273.942828
11
27.115970
21
273.955258
0
LINE
8
0
10
27.115932
20
273.955263
11
27.128362
21
273.964763
0
LINE
8
0
10
27.128367
20
273.964759
11
27.152497
21
273.969959
0
LINE
8
0
10
27.152495
20
273.969908
11
27.190515
21
273.972008
0
LINE
8
0
10
27.190520
20
273.972080
11
27.227080
21
273.969980
0
LINE
8
0
10
27.227083
20
273.969908
11
27.251213
21
273.964708
0
LINE
8
0
10
27.251211
20
273.964759
11
27.264391
21
273.955259
0
LINE
8
0
10
27.264379
20
273.955263
11
27.268079
21
273.942833
0
LINE
8
0
10
27.296457
20
273.338788
11
27.296457
21
273.031649
0
LINE
8
0
10
27.268041
20
273.866040
11
27.323621
21
273.917240
0
LINE
8
0
10
27.323616
20
273.917237
11
27.379925
21
273.954527
0
LINE
8
0
10
27.379925
20
273.954530
11
27.438434
21
273.977200
0
LINE
8
0
10
27.438429
20
273.977205
11
27.503509
21
273.984505
0
LINE
8
0
10
27.503514
20
273.984526
11
27.625637
21
273.956006
0
LINE
8
0
10
27.625637
20
273.956007
11
27.707537
21
273.879217
0
LINE
8
0
10
27.707536
20
273.879219
11
27.754336
21
273.765139
0
LINE
8
0
10
27.754339
20
273.765139
11
27.768969
21
273.626195
0
LINE
8
0
10
27.112270
20
273.031649
11
27.112270
21
273.942828
0
LINE
8
0
10
27.577261
20
273.613031
11
27.570661
21
273.692740
0
LINE
8
0
10
27.570628
20
273.692743
11
27.549408
21
273.761483
0
LINE
8
0
10
27.549416
20
273.761488
11
27.509926
21
273.809018
0
LINE
8
0
10
27.509924
20
273.809023
11
27.449224
21
273.827303
0
LINE
8
0
10
27.449224
20
273.827305
11
27.412664
21
273.821505
0
LINE
8
0
10
27.412661
20
273.821469
11
27.376101
21
273.803929
0
LINE
8
0
10
27.376098
20
273.803921
11
27.338069
21
273.771741
0
LINE
8
0
10
27.338070
20
273.771740
11
27.296381
21
273.722740
0
LINE
8
0
10
27.268041
20
273.942828
11
27.268041
21
273.866038
0
LINE
8
0
10
27.296383
20
273.507744
11
27.370242
21
273.431685
0
LINE
8
0
10
27.370241
20
273.431688
11
27.443371
21
273.405358
0
LINE
8
0
10
27.443366
20
273.405365
11
27.504066
21
273.423645
0
LINE
8
0
10
27.504067
20
273.423647
11
27.545757
21
273.471177
0
LINE
8
0
10
27.545754
20
273.471180
11
27.569144
21
273.538460
0
LINE
8
0
10
27.569151
20
273.538460
11
27.577151
21
273.613050
0
LINE
8
0
10
28.575464
20
273.623211
11
28.553534
21
273.471103
0
LINE
8
0
10
28.553522
20
273.471103
11
28.486982
21
273.352636
0
LINE
8
0
10
28.486977
20
273.352636
11
28.375090
21
273.275846
0
LINE
8
0
10
28.375090
20
273.275848
11
28.217865
21
273.248798
0
LINE
8
0
10
28.217865
20
273.248795
11
28.066489
21
273.272925
0
LINE
8
0
10
28.066489
20
273.272920
11
27.959719
21
273.343130
0
LINE
8
0
10
27.959719
20
273.343129
11
27.896829
21
273.456480
0
LINE
8
0
10
27.896830
20
273.456480
11
27.876350
21
273.610048
0
LINE
8
0
10
27.876354
20
273.610048
11
27.898284
21
273.762154
0
LINE
8
0
10
27.898296
20
273.762154
11
27.965576
21
273.880624
0
LINE
8
0
10
27.965574
20
273.880624
11
28.076728
21
273.957414
0
LINE
8
0
10
28.076728
20
273.957409
11
28.233954
21
273.984469
0
LINE
8
0
10
28.233954
20
273.984465
11
28.386062
21
273.960335
0
LINE
8
0
10
28.386062
20
273.960338
11
28.492102
21
273.890858
0
LINE
8
0
10
28.492102
20
273.890861
11
28.554992
21
273.777513
0
LINE
8
0
10
28.554988
20
273.777513
11
28.575468
21
273.623211
0
LINE
8
0
10
27.296383
20
273.722742
11
27.296383
21
273.507744
0
LINE
8
0
10
28.386062
20
273.615890
11
28.378062
21
273.704380
0
LINE
8
0
10
28.378056
20
273.704380
11
28.352476
21
273.775310
0
LINE
8
0
10
28.352463
20
273.775309
11
28.303463
21
273.822109
0
LINE
8
0
10
28.303464
20
273.822112
11
28.227414
21
273.838942
0
LINE
8
0
10
28.227410
20
273.838928
11
28.155750
21
273.823588
0
LINE
8
0
10
28.155749
20
273.823575
11
28.105289
21
273.779705
0
LINE
8
0
10
28.105287
20
273.779701
11
28.075307
21
273.710221
0
LINE
8
0
10
28.075302
20
273.710225
11
28.065802
21
273.618085
0
LINE
8
0
10
28.065806
20
273.618086
11
28.073806
21
273.528876
0
LINE
8
0
10
28.073815
20
273.528875
11
28.099395
21
273.458665
0
LINE
8
0
10
28.099406
20
273.458668
11
28.148406
21
273.411868
0
LINE
8
0
10
28.148404
20
273.411865
11
28.224453
21
273.395775
0
LINE
8
0
10
28.224457
20
273.395781
11
28.296857
21
273.410411
0
LINE
8
0
10
28.296853
20
273.410402
11
28.347313
21
273.454272
0
LINE
8
0
10
28.347314
20
273.454276
11
28.376564
21
273.523016
0
LINE
8
0
10
28.376566
20
273.523020
11
28.386066
21
273.615889
0
LINE
8
0
10
29.180237
20
273.474752
11
29.159017
21
273.376752
0
LINE
8
0
10
29.159028
20
273.376755
11
29.100528
21
273.305825
0
LINE
8
0
10
29.100523
20
273.305826
11
29.010573
21
273.263416
0
LINE
8
0
10
29.010578
20
273.263418
11
28.897962
21
273.248788
0
LINE
8
0
10
28.897962
20
273.248784
11
28.827752
21
273.254584
0
LINE
8
0
10
28.827755
20
273.254621
11
28.768515
21
273.267801
0
LINE
8
0
10
28.768517
20
273.267787
11
28.724647
21
273.285327
0
LINE
8
0
10
28.724644
20
273.285336
11
28.699064
21
273.301426
0
LINE
8
0
10
28.699054
20
273.301420
11
28.686614
21
273.325550
0
LINE
8
0
10
28.686616
20
273.325550
11
28.682316
21
273.374550
0
LINE
8
0
10
28.682268
20
273.374549
11
28.683868
21
273.408179
0
LINE
8
0
10
28.683755
20
273.408182
11
28.688055
21
273.428662
0
LINE
8
0
10
28.688102
20
273.428661
11
28.695402
21
273.438851
0
LINE
8
0
10
28.695426
20
273.438842
11
28.706406
21
273.441842
0
LINE
8
0
10
28.706409
20
273.441816
11
28.729829
21
273.432316
0
LINE
8
0
10
28.729814
20
273.432320
11
28.769304
21
273.412580
0
LINE
8
0
10
28.769306
20
273.412575
11
28.823416
21
273.392095
0
LINE
8
0
10
28.823418
20
273.392096
11
28.894348
21
273.382596
0
LINE
8
0
10
28.894348
20
273.382603
11
28.938218
21
273.387803
0
LINE
8
0
10
28.938221
20
273.387749
11
28.971850
21
273.402379
0
LINE
8
0
10
28.971854
20
273.402370
11
28.993785
21
273.426500
0
LINE
8
0
10
28.993797
20
273.426497
11
29.001096
21
273.460137
0
LINE
8
0
10
29.001119
20
273.460133
11
28.987230
21
273.497423
0
LINE
8
0
10
28.987218
20
273.497425
11
28.951389
21
273.525216
0
LINE
8
0
10
28.951389
20
273.525216
11
28.900929
21
273.547146
0
LINE
8
0
10
28.900925
20
273.547158
11
28.843155
21
273.569828
0
LINE
8
0
10
28.843154
20
273.569832
11
28.785384
21
273.598351
0
LINE
8
0
10
28.785379
20
273.598351
11
28.734919
21
273.637842
0
LINE
8
0
10
28.734918
20
273.637842
11
28.699088
21
273.694152
0
LINE
8
0
10
28.699085
20
273.694151
11
28.685905
21
273.773131
0
LINE
8
0
10
28.685920
20
273.773134
11
28.704200
21
273.858694
0
LINE
8
0
10
28.704200
20
273.858695
11
28.756850
21
273.925975
0
LINE
8
0
10
28.756847
20
273.925976
11
28.840207
21
273.969116
0
LINE
8
0
10
28.840211
20
273.969117
11
28.951366
21
273.984457
0
LINE
8
0
10
28.951366
20
273.984470
11
29.010605
21
273.980170
0
LINE
8
0
10
29.010603
20
273.980123
11
29.063252
21
273.969143
0
LINE
8
0
10
29.063249
20
273.969140
11
29.102739
21
273.954510
0
LINE
8
0
10
29.102743
20
273.954520
11
29.125413
21
273.941340
0
LINE
8
0
10
29.125415
20
273.941351
11
29.135605
21
273.930371
0
LINE
8
0
10
29.135599
20
273.930368
11
29.139899
21
273.917188
0
LINE
8
0
10
29.139946
20
273.917203
11
29.142046
21
273.898183
0
LINE
8
0
10
29.142119
20
273.898187
11
29.143719
21
273.870397
0
LINE
8
0
10
29.143605
20
273.870401
11
29.142005
21
273.838221
0
LINE
8
0
10
29.142119
20
273.838219
11
29.138419
21
273.818479
0
LINE
8
0
10
29.138459
20
273.818473
11
29.131859
21
273.808283
0
LINE
8
0
10
29.131824
20
273.808292
11
29.121634
21
273.806192
0
LINE
8
0
10
29.121640
20
273.806117
11
29.101160
21
273.813417
0
LINE
8
0
10
29.101164
20
273.813438
11
29.066064
21
273.830268
0
LINE
8
0
10
29.066064
20
273.830255
11
29.017794
21
273.846345
0
LINE
8
0
10
29.017799
20
273.846342
11
28.955639
21
273.854342
0
LINE
8
0
10
28.955644
20
273.854348
11
28.912504
21
273.849148
0
LINE
8
0
10
28.912504
20
273.849202
11
28.882514
21
273.834572
0
LINE
8
0
10
28.882518
20
273.834568
11
28.864978
21
273.811898
0
LINE
8
0
10
28.864968
20
273.811896
11
28.859168
21
273.784836
0
LINE
8
0
10
28.859134
20
273.784840
11
28.873024
21
273.746810
0
LINE
8
0
10
28.873036
20
273.746811
11
28.909596
21
273.719751
0
LINE
8
0
10
28.909597
20
273.719755
11
28.960787
21
273.697825
0
LINE
8
0
10
28.960792
20
273.697813
11
29.019293
21
273.675144
0
LINE
8
0
10
29.019296
20
273.675149
11
29.077806
21
273.647359
0
LINE
8
0
10
29.077801
20
273.647362
11
29.129721
21
273.607872
0
LINE
8
0
10
29.129717
20
273.607870
11
29.166277
21
273.551560
0
LINE
8
0
10
29.166280
20
273.551563
11
29.180170
21
273.474773
0
LINE
8
0
10
29.921030
20
273.635633
11
29.905680
21
273.585904
0
LINE
8
0
10
29.905676
20
273.585903
11
29.864716
21
273.569812
0
LINE
8
0
10
29.467635
20
273.569819
11
29.477135
21
273.493769
0
LINE
8
0
10
29.477129
20
273.493765
11
29.508579
21
273.435995
0
LINE
8
0
10
29.508580
20
273.435993
11
29.564150
21
273.400163
0
LINE
8
0
10
29.564155
20
273.400160
11
29.646055
21
273.387730
0
LINE
8
0
10
29.646057
20
273.387725
11
29.730887
21
273.394325
0
LINE
8
0
10
29.730885
20
273.394361
11
29.793775
21
273.409701
0
LINE
8
0
10
29.793770
20
273.409714
11
29.838380
21
273.425064
0
LINE
8
0
10
29.838376
20
273.425066
11
29.866896
21
273.432366
0
LINE
8
0
10
29.866896
20
273.432389
11
29.877876
21
273.429389
0
LINE
8
0
10
29.877879
20
273.429413
11
29.885179
21
273.420613
0
LINE
8
0
10
29.885200
20
273.420605
11
29.888900
21
273.401585
0
LINE
8
0
10
29.888862
20
273.401592
11
29.890462
21
273.371602
0
LINE
8
0
10
29.890349
20
273.371606
11
29.889555
21
273.343816
0
LINE
8
0
10
29.889618
20
273.343817
11
29.887518
21
273.324797
0
LINE
8
0
10
29.887443
20
273.324804
11
29.883143
21
273.310914
0
LINE
8
0
10
29.883096
20
273.310906
11
29.875096
21
273.300716
0
LINE
8
0
10
29.875090
20
273.300722
11
29.849510
21
273.286832
0
LINE
8
0
10
29.849497
20
273.286823
11
29.795387
21
273.269283
0
LINE
8
0
10
29.795385
20
273.269274
11
29.720065
21
273.255384
0
LINE
8
0
10
29.720064
20
273.255372
11
29.629384
21
273.248772
0
LINE
8
0
10
29.629388
20
273.248739
11
29.476549
21
273.270669
0
LINE
8
0
10
29.476549
20
273.270681
11
29.367594
21
273.337231
0
LINE
8
0
10
29.367594
20
273.337229
11
29.301774
21
273.449846
0
LINE
8
0
10
29.301779
20
273.449846
11
29.280559
21
273.609266
0
LINE
8
0
10
29.280567
20
273.609266
11
29.303237
21
273.765761
0
LINE
8
0
10
29.303242
20
273.765761
11
29.369062
21
273.884228
0
LINE
8
0
10
29.369060
20
273.884228
11
29.473633
21
273.958818
0
LINE
8
0
10
29.473633
20
273.958819
11
29.613310
21
273.984399
0
LINE
8
0
10
29.613310
20
273.984410
11
29.752983
21
273.960280
0
LINE
8
0
10
29.752983
20
273.960282
11
29.848782
21
273.893002
0
LINE
8
0
10
29.848784
20
273.893004
11
29.903633
21
273.792089
0
LINE
8
0
10
29.903628
20
273.792089
11
29.921168
21
273.664846
0
LINE
8
0
10
29.742596
20
273.688293
11
29.711146
21
273.809687
0
LINE
8
0
10
29.711147
20
273.809687
11
29.608769
21
273.854297
0
LINE
8
0
10
29.608769
20
273.854293
11
29.547349
21
273.841113
0
LINE
8
0
10
29.547346
20
273.841124
11
29.504206
21
273.805294
0
LINE
8
0
10
29.504206
20
273.805292
11
29.477876
21
273.752642
0
LINE
8
0
10
29.477880
20
273.752645
11
29.467690
21
273.688295
0
LINE
8
0
10
29.864721
20
273.569819
11
29.467635
21
273.569819
0
LINE
8
0
10
40.965065
20
281.278790
11
40.521179
21
280.893666
0
LINE
8
0
10
40.521179
20
280.893666
11
40.238525
21
280.432897
0
LINE
8
0
10
40.238525
20
280.432897
11
40.111605
21
279.776165
0
LINE
8
0
10
40.111605
20
279.776165
11
40.272677
21
279.034576
0
LINE
8
0
10
40.272677
20
279.034576
11
40.629341
21
278.543598
0
LINE
8
0
10
40.629341
20
278.543598
11
41.170149
21
278.181252
0
LINE
8
0
10
41.170149
20
278.181252
11
41.039420
21
277.819201
0
LINE
8
0
10
41.039420
20
277.819201
11
40.628257
21
277.061973
0
LINE
8
0
10
40.628257
20
277.061973
11
40.089520
21
276.394271
0
LINE
8
0
10
40.089520
20
276.394271
11
39.772159
21
276.174374
0
LINE
8
0
10
39.772159
20
276.174374
11
39.401703
21
276.090985
0
LINE
8
0
10
39.401703
20
276.090985
11
38.785963
21
276.246769
0
LINE
8
0
10
38.785963
20
276.246769
11
38.108106
21
276.402553
0
LINE
8
0
10
38.108106
20
276.402553
11
37.411515
21
276.241641
0
LINE
8
0
10
37.411515
20
276.241641
11
36.799519
21
276.080729
0
LINE
8
0
10
36.799519
20
276.080729
11
36.456240
21
276.159608
0
LINE
8
0
10
36.456240
20
276.159608
11
36.149861
21
276.374551
0
LINE
8
0
10
36.149861
20
276.374551
11
35.572967
21
277.082481
0
LINE
8
0
10
35.572967
20
277.082481
11
34.989863
21
278.272947
0
LINE
8
0
10
34.989863
20
278.272947
11
34.748693
21
279.694131
0
LINE
8
0
10
34.748693
20
279.694131
11
34.919809
21
280.707688
0
LINE
8
0
10
34.919809
20
280.707688
11
35.369857
21
281.442462
0
LINE
8
0
10
35.369857
20
281.442462
11
36.003888
21
281.889725
0
LINE
8
0
10
36.003888
20
281.889725
11
36.726952
21
282.040752
0
LINE
8
0
10
36.726952
20
282.040752
11
37.441390
21
281.869587
0
LINE
8
0
10
37.441390
20
281.869587
11
38.010298
21
281.698421
0
LINE
8
0
10
38.010298
20
281.698421
11
38.600009
21
281.879841
0
LINE
8
0
10
38.600009
20
281.879841
11
39.400914
21
282.061260
0
LINE
8
0
10
39.400914
20
282.061260
11
40.067927
21
281.955760
0
LINE
8
0
10
40.067927
20
281.955760
11
40.527995
21
281.722503
0
LINE
8
0
10
40.527995
20
281.722503
11
40.965065
21
281.278790
0
LINE
8
0
10
29.921178
20
273.664846
11
29.921038
21
273.635637
0
LINE
8
0
10
39.119322
20
282.710424
11
39.420733
21
283.217512
0
LINE
8
0
10
39.420733
20
283.217512
11
39.538161
21
283.809196
0
LINE
8
0
10
39.538161
20
283.809196
11
39.523191
21
283.967738
0
LINE
8
0
10
39.523175
20
283.967738
11
38.900729
21
283.787706
0
LINE
8
0
10
38.900729
20
283.787706
11
38.362879
21
283.369844
0
LINE
8
0
10
38.362879
20
283.369844
11
38.061269
21
282.893126
0
LINE
8
0
10
38.061269
20
282.893126
11
37.928261
21
282.301049
0
LINE
8
0
10
37.928261
20
282.301049
11
37.943241
21
282.158280
0
LINE
8
0
10
37.943250
20
282.158280
11
38.050523
21
282.148010
0
LINE
8
0
10
38.050523
20
282.148024
11
38.621600
21
282.308245
0
LINE
8
0
10
38.621600
20
282.308245
11
39.119322
21
282.710422
0
LINE
8
0
10
52.474236
20
277.106579
11
52.228150
21
277.272678
0
LINE
8
0
10
52.228150
20
277.272678
11
52.159416
21
277.507137
0
LINE
8
0
10
52.159416
20
277.507137
11
51.989237
21
277.941714
0
LINE
8
0
10
51.989237
20
277.941714
11
52.053826
21
278.340012
0
LINE
8
0
10
52.053826
20
278.340012
11
51.989305
21
278.939257
0
LINE
8
0
10
51.989337
20
278.939257
11
50.927891
21
280.670866
0
LINE
8
0
10
50.927891
20
280.670866
11
50.755819
21
281.088468
0
LINE
8
0
10
50.755819
20
281.088468
11
50.718484
21
281.557485
0
LINE
8
0
10
50.718484
20
281.557485
11
50.681993
21
282.066283
0
LINE
8
0
10
50.681993
20
282.066283
11
50.519896
21
282.637135
0
LINE
8
0
10
50.519896
20
282.637135
11
50.097312
21
283.144233
0
LINE
8
0
10
50.097312
20
283.144233
11
49.457865
21
283.323950
0
LINE
8
0
10
49.457865
20
283.323950
11
48.650228
21
283.078087
0
LINE
8
0
10
48.650228
20
283.078087
11
48.392278
21
282.776742
0
LINE
8
0
10
48.392278
20
282.776742
11
48.280087
21
282.391267
0
LINE
8
0
10
48.280087
20
282.391267
11
48.288263
21
281.598157
0
LINE
8
0
10
48.288263
20
281.598157
11
48.302103
21
281.424170
0
LINE
8
0
10
48.302098
20
281.424170
11
48.272398
21
280.660989
0
LINE
8
0
10
48.272393
20
280.660989
11
48.040902
21
280.336191
0
LINE
8
0
10
48.040902
20
280.336191
11
47.697722
21
279.865512
0
LINE
8
0
10
47.697722
20
279.865512
11
47.376226
21
279.114085
0
LINE
8
0
10
47.376226
20
279.114085
11
47.172990
21
278.605117
0
LINE
8
0
10
47.172990
20
278.605117
11
47.105790
21
278.084523
0
LINE
8
0
10
47.105786
20
278.084523
11
46.934236
21
277.867273
0
LINE
8
0
10
46.934236
20
277.867273
11
46.434055
21
277.584901
0
LINE
8
0
10
46.434055
20
277.584901
11
46.159756
21
277.417692
0
LINE
8
0
10
46.159756
20
277.417692
11
46.162656
21
277.038766
0
LINE
8
0
10
46.162675
20
277.038766
11
46.123705
21
276.611579
0
LINE
8
0
10
46.123704
20
276.611579
11
46.079524
21
276.473895
0
LINE
8
0
10
46.079529
20
276.473895
11
46.105589
21
276.257027
0
LINE
8
0
10
46.105577
20
276.257027
11
46.403509
21
276.075423
0
LINE
8
0
10
46.403509
20
276.075423
11
46.866701
21
275.990647
0
LINE
8
0
10
46.866701
20
275.990647
11
47.488545
21
275.812038
0
LINE
8
0
10
47.488545
20
275.812038
11
48.096883
21
275.636527
0
LINE
8
0
10
48.096883
20
275.636527
11
48.182952
21
275.631027
0
LINE
8
0
10
48.182951
20
275.630994
11
48.507733
21
275.737197
0
LINE
8
0
10
48.507733
20
275.737197
11
48.645987
21
275.902752
0
LINE
8
0
10
48.645987
20
275.902752
11
49.480538
21
276.001313
0
LINE
8
0
10
49.480538
20
276.001313
11
50.310085
21
275.916083
0
LINE
8
0
10
50.310085
20
275.916083
11
50.560036
21
275.643813
0
LINE
8
0
10
50.560036
20
275.643813
11
50.841163
21
275.580473
0
LINE
8
0
10
50.841190
20
275.580469
11
51.335404
21
275.784569
0
LINE
8
0
10
51.335404
20
275.784569
11
52.231674
21
276.357108
0
LINE
8
0
10
52.231674
20
276.357108
11
52.420589
21
276.460311
0
LINE
8
0
10
52.420589
20
276.460311
11
52.678920
21
276.835328
0
LINE
8
0
10
52.678920
20
276.835328
11
52.474236
21
277.106579
0
LINE
8
0
10
48.654009
20
277.140930
11
48.212452
21
277.616078
0
LINE
8
0
10
48.212452
20
277.616078
11
47.761650
21
278.055607
0
LINE
8
0
10
47.761650
20
278.055607
11
47.724886
21
278.580998
0
LINE
8
0
10
47.724886
20
278.580998
11
47.899943
21
279.086437
0
LINE
8
0
10
47.899943
20
279.086437
11
48.110539
21
279.594489
0
LINE
8
0
10
48.110539
20
279.594489
11
48.330408
21
280.096751
0
LINE
8
0
10
48.330408
20
280.096751
11
48.593915
21
280.736087
0
LINE
8
0
10
48.593915
20
280.736087
11
49.064798
21
280.480093
0
LINE
8
0
10
49.064798
20
280.480093
11
49.140378
21
280.490333
0
LINE
8
0
10
49.140379
20
280.490324
11
49.591508
21
280.717476
0
LINE
8
0
10
49.591508
20
280.717476
11
49.974776
21
280.910051
0
LINE
8
0
10
49.974776
20
280.910051
11
50.410556
21
279.982760
0
LINE
8
0
10
50.410556
20
279.982760
11
50.811890
21
278.827066
0
LINE
8
0
10
50.811890
20
278.827066
11
50.780690
21
278.032680
0
LINE
8
0
10
50.780688
20
278.032680
11
50.702488
21
278.038280
0
LINE
8
0
10
50.702490
20
278.038292
11
50.516588
21
277.980897
0
LINE
8
0
10
50.516588
20
277.980897
11
50.458454
21
277.878775
0
LINE
8
0
10
50.458454
20
277.878775
11
50.422224
21
277.117040
0
LINE
8
0
10
50.422226
20
277.117040
11
50.136989
21
276.836661
0
LINE
8
0
10
50.136989
20
276.836661
11
49.541090
21
276.565954
0
LINE
8
0
10
49.541090
20
276.565954
11
48.998025
21
276.523104
0
LINE
8
0
10
48.998025
20
276.523100
11
48.730151
21
276.539640
0
LINE
8
0
10
48.488756
20
276.815828
11
48.616482
21
276.928903
0
LINE
8
0
10
48.616482
20
276.928903
11
48.654009
21
277.140930
0
LINE
8
0
10
29.467699
20
273.688293
11
29.742596
21
273.688293
0
LINE
8
0
10
48.960324
20
281.695293
11
48.938074
21
281.684873
0
LINE
8
0
10
48.938084
20
281.684861
11
48.932984
21
281.734421
0
LINE
8
0
10
48.933030
20
281.734417
11
48.693895
21
281.996225
0
LINE
8
0
10
48.693895
20
281.996225
11
48.668075
21
281.994125
0
LINE
8
0
10
48.668077
20
281.994196
11
48.520289
21
281.861843
0
LINE
8
0
10
48.520289
20
281.861843
11
48.738681
21
282.133324
0
LINE
8
0
10
48.738681
20
282.133324
11
48.898433
21
282.025803
0
LINE
8
0
10
48.898433
20
282.025803
11
48.965833
21
281.770977
0
LINE
8
0
10
48.965833
20
281.770977
11
48.960333
21
281.695297
0
LINE
8
0
10
49.917120
20
281.578330
11
49.934480
21
281.693391
0
LINE
8
0
10
49.934485
20
281.693391
11
49.859966
21
281.918962
0
LINE
8
0
10
49.859966
20
281.918962
11
49.677273
21
282.010976
0
LINE
8
0
10
49.677273
20
282.010976
11
49.496595
21
281.917857
0
LINE
8
0
10
49.496595
20
281.917857
11
49.421636
21
281.693391
0
LINE
8
0
10
49.421636
20
281.693391
11
49.423236
21
281.657561
0
LINE
8
0
10
49.423335
20
281.657566
11
49.401475
21
281.665966
0
LINE
8
0
10
49.401477
20
281.665919
11
49.377057
21
281.818631
0
LINE
8
0
10
49.377054
20
281.818631
11
49.466009
21
282.091577
0
LINE
8
0
10
49.466009
20
282.091577
11
49.680445
21
282.204820
0
LINE
8
0
10
49.680445
20
282.204820
11
49.894875
21
282.091577
0
LINE
8
0
10
49.894875
20
282.091577
11
49.983840
21
281.818631
0
LINE
8
0
10
49.983840
20
281.818631
11
49.917120
21
281.578330
0
LINE
8
0
10
49.793756
20
281.163884
11
49.729496
21
281.118844
0
LINE
8
0
10
49.729496
20
281.118846
11
49.620604
21
281.058216
0
LINE
8
0
10
49.590800
20
281.040167
11
49.114407
21
280.787498
0
LINE
8
0
10
49.114407
20
280.787498
11
48.958774
21
280.849468
0
LINE
8
0
10
48.958774
20
280.849472
11
48.906884
21
280.884052
0
LINE
8
0
10
48.906879
20
280.884053
11
48.684402
21
281.099474
0
LINE
8
0
10
48.684402
20
281.099474
11
48.885095
21
281.262343
0
LINE
8
0
10
48.885095
20
281.262343
11
49.157796
21
281.431634
0
LINE
8
0
10
49.157796
20
281.431634
11
49.165896
21
281.430841
0
LINE
8
0
10
49.165945
20
281.430923
11
49.501659
21
281.311140
0
LINE
8
0
10
49.501659
20
281.311140
11
49.632792
21
281.260110
0
LINE
8
0
10
49.632792
20
281.260108
11
49.793756
21
281.163888
0
LINE
8
0
10
48.730151
20
276.539625
11
48.488756
21
276.815828
0
LINE
8
0
10
50.706400
20
276.432207
11
50.819023
21
277.249618
0
LINE
8
0
10
50.819023
20
277.249618
11
50.808363
21
277.397533
0
LINE
8
0
10
50.808360
20
277.397533
11
50.801160
21
277.668786
0
LINE
8
0
10
50.801177
20
277.668786
11
50.808777
21
277.671586
0
LINE
8
0
10
50.808818
20
277.671551
11
50.845758
21
277.439351
0
LINE
8
0
10
50.845758
20
277.439351
11
51.024088
21
277.234209
0
LINE
8
0
10
51.024088
20
277.234209
11
51.215442
21
277.197189
0
LINE
8
0
10
51.215442
20
277.197191
11
51.701000
21
277.376155
0
LINE
8
0
10
51.701000
20
277.376155
11
51.824161
21
277.537931
0
LINE
8
0
10
51.824161
20
277.537931
11
51.832561
21
277.461642
0
LINE
8
0
10
51.832588
20
277.461639
11
51.885429
21
277.182057
0
LINE
8
0
10
51.885429
20
277.182057
11
52.067965
21
276.969480
0
LINE
8
0
10
52.091503
20
276.957116
11
52.304487
21
276.808518
0
LINE
8
0
10
52.304487
20
276.808518
11
52.294687
21
276.796108
0
LINE
8
0
10
52.294663
20
276.796101
11
51.991115
21
276.625644
0
LINE
8
0
10
51.991115
20
276.625644
11
51.379859
21
276.249814
0
LINE
8
0
10
51.379859
20
276.249814
11
50.913318
21
275.958152
0
LINE
8
0
10
50.913318
20
275.958152
11
50.876228
21
275.963351
0
LINE
8
0
10
50.876226
20
275.963381
11
50.724801
21
276.117278
0
LINE
8
0
10
50.724801
20
276.117278
11
50.706400
21
276.432207
0
LINE
8
0
10
49.620604
20
281.058217
11
49.590805
21
281.040177
0
LINE
8
0
10
46.514461
20
277.091625
11
46.502661
21
277.241545
0
LINE
8
0
10
46.502655
20
277.241545
11
46.744685
21
277.325655
0
LINE
8
0
10
46.744685
20
277.325659
11
47.011899
21
277.409639
0
LINE
8
0
10
47.011899
20
277.409643
11
47.193937
21
277.653831
0
LINE
8
0
10
47.193937
20
277.653831
11
47.295616
21
277.806340
0
LINE
8
0
10
47.295616
20
277.806340
11
47.307366
21
277.809140
0
LINE
8
0
10
47.307371
20
277.809081
11
47.616529
21
277.523157
0
LINE
8
0
10
47.616529
20
277.523157
11
47.726487
21
277.341907
0
LINE
8
0
10
47.726487
20
277.341907
11
48.161649
21
276.674161
0
LINE
8
0
10
48.161649
20
276.674161
11
48.363539
21
276.228819
0
LINE
8
0
10
48.363539
20
276.228819
11
48.162638
21
275.980415
0
LINE
8
0
10
48.162638
20
275.980415
11
48.118008
21
275.976316
0
LINE
8
0
10
48.118006
20
275.976277
11
47.337280
21
276.223258
0
LINE
8
0
10
47.306890
20
276.236029
11
46.823947
21
276.343701
0
LINE
8
0
10
46.823947
20
276.343701
11
46.449922
21
276.427791
0
LINE
8
0
10
46.449922
20
276.427789
11
46.481282
21
276.639455
0
LINE
8
0
10
46.481277
20
276.639455
11
46.532007
21
276.830452
0
LINE
8
0
10
46.532003
20
276.830452
11
46.514463
21
277.091625
0
LINE
8
0
10
52.067965
20
276.969480
11
52.091515
21
276.957120
0
LINE
8
0
10
47.337280
20
276.223258
11
47.306890
21
276.236038
0
LINE
8
0
10
29.098579
20
283.035121
11
25.488431
21
282.499237
0
LINE
8
0
10
25.488431
20
282.499237
11
25.488431
21
279.777183
0
LINE
8
0
10
25.488431
20
279.777183
11
29.098579
21
279.777183
0
LINE
8
0
10
29.098579
20
279.777183
11
29.098579
21
283.035121
0
LINE
8
0
10
29.098579
20
283.035121
11
29.098579
21
283.035121
0
LINE
8
0
10
22.442368
20
282.056635
11
22.442368
21
279.745463
0
LINE
8
0
10
22.442368
20
279.745463
11
25.262794
21
279.745463
0
LINE
8
0
10
25.262794
20
279.745463
11
25.262794
21
282.473040
0
LINE
8
0
10
25.262794
20
282.473040
11
22.442368
21
282.056635
0
LINE
8
0
10
22.442368
20
282.056635
11
22.442368
21
282.056635
0
LINE
8
0
10
25.488431
20
279.519799
11
25.488431
21
276.878863
0
LINE
8
0
10
25.488431
20
276.878863
11
29.098579
21
276.342979
0
LINE
8
0
10
29.098579
20
276.342979
11
29.098579
21
279.519799
0
LINE
8
0
10
29.098579
20
279.519799
11
25.488431
21
279.519799
0
LINE
8
0
10
25.488431
20
279.519799
11
25.488431
21
279.519799
0
LINE
8
0
10
34.365887
20
287.269284
11
34.283650
21
286.861032
0
LINE
8
0
10
34.283650
20
286.861032
11
34.059260
21
286.527970
0
LINE
8
0
10
34.059260
20
286.527970
11
33.726198
21
286.303580
0
LINE
8
0
10
33.726198
20
286.303580
11
33.317948
21
286.221343
0
LINE
8
0
10
22.442368
20
279.519855
11
22.442368
21
277.321495
0
LINE
8
0
10
22.442368
20
277.321495
11
25.262794
21
276.905088
0
LINE
8
0
10
25.262794
20
276.905088
11
25.262794
21
279.519855
0
LINE
8
0
10
25.262794
20
279.519855
11
22.442368
21
279.519855
0
LINE
8
0
10
22.442368
20
279.519855
11
22.442368
21
279.519855
0
LINE
8
0
10
27.354298
20
286.221343
11
26.871591
21
286.123774
0
LINE
8
0
10
26.871591
20
286.123774
11
26.476604
21
285.857819
0
LINE
8
0
10
26.476604
20
285.857819
11
26.209881
21
285.463601
0
LINE
8
0
10
26.209881
20
285.463601
11
26.111963
21
284.981245
0
LINE
8
0
10
34.365887
20
287.990998
11
34.365887
21
287.269284
0
LINE
8
0
10
26.306355
20
284.981245
11
26.388592
21
285.389496
0
LINE
8
0
10
26.388592
20
285.389496
11
26.612984
21
285.722556
0
LINE
8
0
10
26.612984
20
285.722556
11
26.946046
21
285.946946
0
LINE
8
0
10
26.946046
20
285.946946
11
27.354298
21
286.029182
0
LINE
8
0
10
33.317948
20
286.221343
11
27.354298
21
286.221343
0
LINE
8
0
10
33.317948
20
286.029182
11
33.800304
21
286.126751
0
LINE
8
0
10
33.800304
20
286.126751
11
34.194522
21
286.392707
0
LINE
8
0
10
34.194522
20
286.392707
11
34.460477
21
286.786927
0
LINE
8
0
10
34.460477
20
286.786927
11
34.558046
21
287.269284
0
LINE
8
0
10
26.111963
20
284.981245
11
26.111963
21
284.214838
0
LINE
8
0
10
26.111963
20
284.214838
11
26.306355
21
284.214838
0
LINE
8
0
10
26.306355
20
284.214838
11
26.306355
21
284.981245
0
LINE
8
0
10
27.354298
20
286.029182
11
33.317948
21
286.029182
0
LINE
8
0
10
41.339493
20
287.269284
11
41.437062
21
286.786927
0
LINE
8
0
10
41.437062
20
286.786927
11
41.703018
21
286.392707
0
LINE
8
0
10
41.703018
20
286.392707
11
42.097236
21
286.126751
0
LINE
8
0
10
42.097236
20
286.126751
11
42.579593
21
286.029182
0
LINE
8
0
10
34.558046
20
287.269284
11
34.558046
21
287.990998
0
LINE
8
0
10
34.558046
20
287.990998
11
34.365887
21
287.990998
0
LINE
8
0
10
48.543244
20
286.029182
11
48.951495
21
285.946946
0
LINE
8
0
10
48.951495
20
285.946946
11
49.284556
21
285.722556
0
LINE
8
0
10
49.284556
20
285.722556
11
49.508946
21
285.389496
0
LINE
8
0
10
49.508946
20
285.389496
11
49.591184
21
284.981245
0
LINE
8
0
10
41.339493
20
287.990998
11
41.339493
21
287.269284
0
LINE
8
0
10
49.783342
20
284.981245
11
49.685774
21
285.463601
0
LINE
8
0
10
49.685774
20
285.463601
11
49.419818
21
285.857819
0
LINE
8
0
10
49.419818
20
285.857819
11
49.025600
21
286.123774
0
LINE
8
0
10
49.025600
20
286.123774
11
48.543244
21
286.221343
0
LINE
8
0
10
42.579593
20
286.029182
11
48.543244
21
286.029182
0
LINE
8
0
10
42.579593
20
286.221343
11
42.171342
21
286.303580
0
LINE
8
0
10
42.171342
20
286.303580
11
41.838280
21
286.527970
0
LINE
8
0
10
41.838280
20
286.527970
11
41.613889
21
286.861032
0
LINE
8
0
10
41.613889
20
286.861032
11
41.531652
21
287.269284
0
LINE
8
0
10
49.591184
20
284.981245
11
49.591184
21
284.214838
0
LINE
8
0
10
49.591184
20
284.214838
11
49.783342
21
284.214838
0
LINE
8
0
10
49.783342
20
284.214838
11
49.783342
21
284.981245
0
LINE
8
0
10
48.543244
20
286.221343
11
42.579593
21
286.221343
0
LINE
8
0
10
41.531652
20
287.269284
11
41.531652
21
287.990998
0
LINE
8
0
10
41.531652
20
287.990998
11
41.339493
21
287.990998
0
LINE
8
0
10
37.875257
20
287.989212
11
37.875257
21
284.215288
0
LINE
8
0
10
37.875257
20
284.215288
11
38.069649
21
284.215288
0
LINE
8
0
10
38.069649
20
284.215288
11
38.069649
21
287.989212
0
LINE
8
0
10
38.069649
20
287.989212
11
37.875257
21
287.989212
0
LINE
8
0
10
37.875257
20
287.989212
11
37.875257
21
287.989212
 0 
ENDSEC
 0 
EOF