  0
SECTION
  2
HEADER
  9
$ACADVER
  1
AC1014
  9
$HANDSEED
  5
FFFF
  9
$INSUNITS
 70
     4
  9
$MEASUREMENT
 70
     1
  0
ENDSEC
  0
SECTION
  2
TABLES
  0
TABLE
  2
VPORT
  5
8
330
0
100
AcDbSymbolTable
 70
     4
  0
VPORT
  5
2E
330
8
100
AcDbSymbolTableRecord
100
AcDbViewportTableRecord
  2
*ACTIVE
 70
     0
 10
0.0
 20
0.0
 11
1.0
 21
1.0
 12
210.0
 22
148.5
 13
0.0
 23
0.0
 14
10.0
 24
10.0
 15
10.0
 25
10.0
 16
0.0
 26
0.0
 36
1.0
 17
0.0
 27
0.0
 37
0.0
 40
341.0
 41
1.24
 42
50.0
 43
0.0
 44
0.0
 50
0.0
 51
0.0
 71
     0
 72
   100
 73
     1
 74
     3
 75
     0
 76
     0
 77
     0
 78
     0
  0
ENDTAB
  0
TABLE
  2
LTYPE
  5
5
330
0
100
AcDbSymbolTable
 70
     1
  0
LTYPE
  5
14
330
5
100
AcDbSymbolTableRecord
100
AcDbLinetypeTableRecord
  2
BYBLOCK
 70
     0
  3

 72
    65
 73
     0
 40
0.0
  0
LTYPE
  5
15
330
5
100
AcDbSymbolTableRecord
100
AcDbLinetypeTableRecord
  2
BYLAYER
 70
     0
  3

 72
    65
 73
     0
 40
0.0
  0
LTYPE
  5
16
330
5
100
AcDbSymbolTableRecord
100
AcDbLinetypeTableRecord
  2
CONTINUOUS
 70
     0
  3
Solid line
 72
    65
 73
     0
 40
0.0
  0
ENDTAB
  0
TABLE
  2
LAYER
  5
2
100
AcDbSymbolTable
 70
1
  0
LAYER
  5
50
100
AcDbSymbolTableRecord
100
AcDbLayerTableRecord
  2
0
 70
0
  6
CONTINUOUS
  0
ENDTAB
  0
TABLE
  2
STYLE
  5
3
330
0
100
AcDbSymbolTable
 70
     1
  0
STYLE
  5
11
330
3
100
AcDbSymbolTableRecord
100
AcDbTextStyleTableRecord
  2
STANDARD
 70
     0
 40
0.0
 41
1.0
 50
0.0
 71
     0
 42
2.5
  3
txt
  4

  0
ENDTAB
  0
TABLE
  2
VIEW
  5
6
330
0
100
AcDbSymbolTable
 70
     0
  0
ENDTAB
  0
TABLE
  2
UCS
  5
7
330
0
100
AcDbSymbolTable
 70
     0
  0
ENDTAB
  0
TABLE
  2
APPID
  5
9
330
0
100
AcDbSymbolTable
 70
     2
  0
APPID
  5
12
330
9
100
AcDbSymbolTableRecord
100
AcDbRegAppTableRecord
  2
ACAD
 70
     0
  0
ENDTAB
  0
TABLE
  2
DIMSTYLE
  5
A
330
0
100
AcDbSymbolTable
 70
     1
  0
DIMSTYLE
105
27
330
A
100
AcDbSymbolTableRecord
100
AcDbDimStyleTableRecord
  2
ISO-25
 70
     0
  3

  4

  5

  6

  7

 40
1.0
 41
2.5
 42
0.625
 43
3.75
 44
1.25
 45
0.0
 46
0.0
 47
0.0
 48
0.0
140
2.5
141
2.5
142
0.0
143
0.03937007874016
144
1.0
145
0.0
146
1.0
147
0.625
 71
     0
 72
     0
 73
     0
 74
     0
 75
     0
 76
     0
 77
     1
 78
     8
170
     0
171
     3
172
     1
173
     0
174
     0
175
     0
176
     0
177
     0
178
     0
270
     2
271
     2
272
     2
273
     2
274
     3
340
11
275
     0
280
     0
281
     0
282
     0
283
     0
284
     8
285
     0
286
     0
287
     3
288
     0
  0
ENDTAB
  0
TABLE
  2
BLOCK_RECORD
  5
1
330
0
100
AcDbSymbolTable
 70
     1
  0
BLOCK_RECORD
  5
1F
330
1
100
AcDbSymbolTableRecord
100
AcDbBlockTableRecord
  2
*MODEL_SPACE
  0
BLOCK_RECORD
  5
1B
330
1
100
AcDbSymbolTableRecord
100
AcDbBlockTableRecord
  2
*PAPER_SPACE
  0
ENDTAB
  0
ENDSEC
  0
SECTION
  2
BLOCKS
  0
BLOCK
  5
20
330
1F
100
AcDbEntity
  8
0
100
AcDbBlockBegin
  2
*MODEL_SPACE
 70
     0
 10
0.0
 20
0.0
 30
0.0
  3
*MODEL_SPACE
  1

  0
ENDBLK
  5
21
330
1F
100
AcDbEntity
  8
0
100
AcDbBlockEnd
  0
BLOCK
  5
1C
330
1B
100
AcDbEntity
 67
     1
  8
0
100
AcDbBlockBegin
  2
*PAPER_SPACE
  1

  0
ENDBLK
  5
1D
330
1B
100
AcDbEntity
 67
     1
  8
0
100
AcDbBlockEnd
  0
ENDSEC
  0
SECTION
  2
ENTITIES
  0
LWPOLYLINE
  5
100
100
AcDbEntity
  8
0
 62
7
100
AcDbPolyline
 90
3
 70
0
 10
97.336205
 20
296.002716
 30
0.0
 10
97.260158
 20
296.383973
 30
0.0
 10
97.044078
 20
296.707056
 30
0.0
  0
LWPOLYLINE
  5
101
100
AcDbEntity
  8
0
 62
7
100
AcDbPolyline
 90
2
 70
0
 10
97.044078
 20
296.708094
 30
0.0
 10
96.720376
 20
296.924175
 30
0.0
  0
LWPOLYLINE
  5
102
100
AcDbEntity
  8
0
 62
7
100
AcDbPolyline
 90
9
 70
0
 10
96.720268
 20
296.924175
 30
0.0
 10
96.338702
 20
297.000010
 30
0.0
 10
0.997284
 20
297.000010
 30
0.0
 10
0.615628
 20
296.924175
 30
0.0
 10
0.292101
 20
296.708094
 30
0.0
 10
0.075915
 20
296.383973
 30
0.0
 10
0.000000
 20
296.002716
 30
0.0
 10
0.000000
 20
230.878382
 30
0.0
 10
0.179853
 20
229.063515
 30
0.0
  0
LWPOLYLINE
  5
103
100
AcDbEntity
  8
0
 62
7
100
AcDbPolyline
 90
6
 70
0
 10
0.179852
 20
229.062476
 30
0.0
 10
0.706003
 20
227.328637
 30
0.0
 10
1.558272
 20
225.732967
 30
0.0
 10
2.716514
 20
224.321174
 30
0.0
 10
4.129129
 20
223.162857
 30
0.0
 10
5.725496
 20
222.309965
 30
0.0
  0
LWPOLYLINE
  5
104
100
AcDbEntity
  8
0
 62
7
100
AcDbPolyline
 90
6
 70
0
 10
5.725496
 20
222.311002
 30
0.0
 10
7.456933
 20
221.785346
 30
0.0
 10
9.274792
 20
221.605625
 30
0.0
 10
88.060643
 20
221.605625
 30
0.0
 10
89.878730
 20
221.785346
 30
0.0
 10
91.610177
 20
222.309965
 30
0.0
  0
LWPOLYLINE
  5
105
100
AcDbEntity
  8
0
 62
7
100
AcDbPolyline
 90
5
 70
0
 10
91.610280
 20
222.311002
 30
0.0
 10
93.206368
 20
223.162857
 30
0.0
 10
94.619201
 20
224.321174
 30
0.0
 10
95.777515
 20
225.732967
 30
0.0
 10
96.629579
 20
227.328637
 30
0.0
  0
LWPOLYLINE
  5
106
100
AcDbEntity
  8
0
 62
7
100
AcDbPolyline
 90
3
 70
0
 10
96.629473
 20
227.328637
 30
0.0
 10
97.155650
 20
229.062476
 30
0.0
 10
97.335683
 20
230.877343
 30
0.0
  0
LWPOLYLINE
  5
107
100
AcDbEntity
  8
0
 62
7
100
AcDbPolyline
 90
2
 70
0
 10
97.335578
 20
230.878382
 30
0.0
 10
97.336107
 20
296.002716
 30
0.0
  0
LWPOLYLINE
  5
108
100
AcDbEntity
  8
0
 62
7
100
AcDbPolyline
 90
3
 70
0
 10
80.431552
 20
284.127646
 30
0.0
 10
80.602025
 20
283.670553
 30
0.0
 10
81.030031
 20
283.436812
 30
0.0
  0
LWPOLYLINE
  5
109
100
AcDbEntity
  8
0
 62
7
100
AcDbPolyline
 90
7
 70
0
 10
81.029928
 20
283.436812
 30
0.0
 10
81.029928
 20
281.392360
 30
0.0
 10
81.234478
 20
280.898907
 30
0.0
 10
81.727928
 20
280.694254
 30
0.0
 10
94.394080
 20
280.694254
 30
0.0
 10
94.887743
 20
280.898907
 30
0.0
 10
95.092186
 20
281.392360
 30
0.0
  0
LWPOLYLINE
  5
10a
100
AcDbEntity
  8
0
 62
7
100
AcDbPolyline
 90
3
 70
0
 10
95.092289
 20
281.392360
 30
0.0
 10
95.092289
 20
283.436812
 30
0.0
 10
95.520295
 20
283.670553
 30
0.0
  0
LWPOLYLINE
  5
10b
100
AcDbEntity
  8
0
 62
7
100
AcDbPolyline
 90
4
 70
0
 10
95.520192
 20
283.670553
 30
0.0
 10
95.690459
 20
284.127646
 30
0.0
 10
95.690459
 20
292.718918
 30
0.0
 10
95.520295
 20
293.176011
 30
0.0
  0
LWPOLYLINE
  5
10c
100
AcDbEntity
  8
0
 62
7
100
AcDbPolyline
 90
2
 70
0
 10
95.520192
 20
293.174972
 30
0.0
 10
95.092186
 20
293.409752
 30
0.0
  0
LWPOLYLINE
  5
10d
100
AcDbEntity
  8
0
 62
7
100
AcDbPolyline
 90
7
 70
0
 10
95.092289
 20
293.409752
 30
0.0
 10
95.092289
 20
294.057993
 30
0.0
 10
94.887743
 20
294.551446
 30
0.0
 10
94.394080
 20
294.756100
 30
0.0
 10
81.727928
 20
294.756100
 30
0.0
 10
81.234478
 20
294.551446
 30
0.0
 10
81.030031
 20
294.057993
 30
0.0
  0
LWPOLYLINE
  5
10e
100
AcDbEntity
  8
0
 62
7
100
AcDbPolyline
 90
3
 70
0
 10
81.029928
 20
294.057993
 30
0.0
 10
81.029928
 20
293.409752
 30
0.0
 10
80.601922
 20
293.176011
 30
0.0
  0
LWPOLYLINE
  5
10f
100
AcDbEntity
  8
0
 62
7
100
AcDbPolyline
 90
3
 70
0
 10
80.602025
 20
293.174972
 30
0.0
 10
80.431552
 20
292.718918
 30
0.0
 10
80.431552
 20
284.127646
 30
0.0
  0
LWPOLYLINE
  5
110
100
AcDbEntity
  8
0
 62
7
100
AcDbPolyline
 90
3
 70
0
 10
19.896014
 20
292.718918
 30
0.0
 10
19.896014
 20
284.127646
 30
0.0
 10
19.725643
 20
283.670553
 30
0.0
  0
LWPOLYLINE
  5
111
100
AcDbEntity
  8
0
 62
7
100
AcDbPolyline
 90
13
 70
0
 10
19.725539
 20
283.670553
 30
0.0
 10
19.297639
 20
283.436812
 30
0.0
 10
19.297639
 20
281.392360
 30
0.0
 10
19.093089
 20
280.898907
 30
0.0
 10
18.599532
 20
280.694254
 30
0.0
 10
5.933899
 20
280.694254
 30
0.0
 10
5.440259
 20
280.898907
 30
0.0
 10
5.235783
 20
281.392360
 30
0.0
 10
5.235783
 20
283.436812
 30
0.0
 10
4.807788
 20
283.670553
 30
0.0
 10
4.637407
 20
284.127646
 30
0.0
 10
4.637407
 20
292.718918
 30
0.0
 10
4.807788
 20
293.176011
 30
0.0
  0
LWPOLYLINE
  5
112
100
AcDbEntity
  8
0
 62
7
100
AcDbPolyline
 90
7
 70
0
 10
4.807788
 20
293.174972
 30
0.0
 10
5.235783
 20
293.409752
 30
0.0
 10
5.235783
 20
294.057993
 30
0.0
 10
5.440249
 20
294.551446
 30
0.0
 10
5.933899
 20
294.756100
 30
0.0
 10
18.599532
 20
294.756100
 30
0.0
 10
19.093193
 20
294.551446
 30
0.0
  0
LWPOLYLINE
  5
113
100
AcDbEntity
  8
0
 62
7
100
AcDbPolyline
 90
2
 70
0
 10
19.093089
 20
294.551446
 30
0.0
 10
19.297535
 20
294.057993
 30
0.0
  0
LWPOLYLINE
  5
114
100
AcDbEntity
  8
0
 62
7
100
AcDbPolyline
 90
3
 70
0
 10
19.297639
 20
294.057993
 30
0.0
 10
19.297639
 20
293.409752
 30
0.0
 10
19.725643
 20
293.176011
 30
0.0
  0
LWPOLYLINE
  5
115
100
AcDbEntity
  8
0
 62
7
100
AcDbPolyline
 90
3
 70
0
 10
19.725539
 20
293.174972
 30
0.0
 10
19.896014
 20
292.718918
 30
0.0
 10
19.896014
 20
292.718918
 30
0.0
  0
LWPOLYLINE
  5
116
100
AcDbEntity
  8
0
 62
7
100
AcDbPolyline
 90
3
 70
0
 10
42.534381
 20
284.127646
 30
0.0
 10
42.534381
 20
292.718918
 30
0.0
 10
42.704854
 20
293.176011
 30
0.0
  0
LWPOLYLINE
  5
117
100
AcDbEntity
  8
0
 62
7
100
AcDbPolyline
 90
4
 70
0
 10
42.704854
 20
293.174972
 30
0.0
 10
43.132860
 20
293.409752
 30
0.0
 10
43.132860
 20
294.057993
 30
0.0
 10
43.337410
 20
294.551446
 30
0.0
  0
LWPOLYLINE
  5
118
100
AcDbEntity
  8
0
 62
7
100
AcDbPolyline
 90
4
 70
0
 10
43.337306
 20
294.551446
 30
0.0
 10
43.830757
 20
294.756100
 30
0.0
 10
56.496390
 20
294.756100
 30
0.0
 10
56.990156
 20
294.551446
 30
0.0
  0
LWPOLYLINE
  5
119
100
AcDbEntity
  8
0
 62
7
100
AcDbPolyline
 90
4
 70
0
 10
56.990050
 20
294.551446
 30
0.0
 10
57.194602
 20
294.057993
 30
0.0
 10
57.194602
 20
293.409752
 30
0.0
 10
57.622605
 20
293.176011
 30
0.0
  0
LWPOLYLINE
  5
11a
100
AcDbEntity
  8
0
 62
7
100
AcDbPolyline
 90
2
 70
0
 10
57.622605
 20
293.174972
 30
0.0
 10
57.792978
 20
292.718918
 30
0.0
  0
LWPOLYLINE
  5
11b
100
AcDbEntity
  8
0
 62
7
100
AcDbPolyline
 90
6
 70
0
 10
57.793082
 20
292.718918
 30
0.0
 10
57.793082
 20
284.127646
 30
0.0
 10
57.622605
 20
283.670553
 30
0.0
 10
57.194602
 20
283.436812
 30
0.0
 10
57.194602
 20
281.392360
 30
0.0
 10
56.990156
 20
280.898907
 30
0.0
  0
LWPOLYLINE
  5
11c
100
AcDbEntity
  8
0
 62
7
100
AcDbPolyline
 90
9
 70
0
 10
56.990050
 20
280.898907
 30
0.0
 10
56.496390
 20
280.694254
 30
0.0
 10
43.830757
 20
280.694254
 30
0.0
 10
43.337306
 20
280.898907
 30
0.0
 10
43.132860
 20
281.392360
 30
0.0
 10
43.132860
 20
283.436812
 30
0.0
 10
42.704854
 20
283.670553
 30
0.0
 10
42.534381
 20
284.127646
 30
0.0
 10
42.534381
 20
284.127646
 30
0.0
  0
LWPOLYLINE
  5
11d
100
AcDbEntity
  8
0
 62
7
100
AcDbPolyline
 90
4
 70
0
 10
38.844496
 20
292.718918
 30
0.0
 10
38.844496
 20
284.127646
 30
0.0
 10
38.674020
 20
283.670553
 30
0.0
 10
38.246120
 20
283.436812
 30
0.0
  0
LWPOLYLINE
  5
11e
100
AcDbEntity
  8
0
 62
7
100
AcDbPolyline
 90
7
 70
0
 10
38.246016
 20
283.436812
 30
0.0
 10
38.246016
 20
281.392360
 30
0.0
 10
38.041777
 20
280.898907
 30
0.0
 10
37.548117
 20
280.694254
 30
0.0
 10
24.882485
 20
280.694254
 30
0.0
 10
24.388824
 20
280.898907
 30
0.0
 10
24.184378
 20
281.392360
 30
0.0
  0
LWPOLYLINE
  5
11f
100
AcDbEntity
  8
0
 62
7
100
AcDbPolyline
 90
3
 70
0
 10
24.184275
 20
281.392360
 30
0.0
 10
24.184275
 20
283.436812
 30
0.0
 10
23.756269
 20
283.670553
 30
0.0
  0
LWPOLYLINE
  5
120
100
AcDbEntity
  8
0
 62
7
100
AcDbPolyline
 90
2
 70
0
 10
23.756373
 20
283.670553
 30
0.0
 10
23.585898
 20
284.127646
 30
0.0
  0
LWPOLYLINE
  5
121
100
AcDbEntity
  8
0
 62
7
100
AcDbPolyline
 90
3
 70
0
 10
23.585794
 20
284.127646
 30
0.0
 10
23.585794
 20
292.718918
 30
0.0
 10
23.756269
 20
293.176011
 30
0.0
  0
LWPOLYLINE
  5
122
100
AcDbEntity
  8
0
 62
7
100
AcDbPolyline
 90
2
 70
0
 10
23.756373
 20
293.174972
 30
0.0
 10
24.184378
 20
293.409752
 30
0.0
  0
LWPOLYLINE
  5
123
100
AcDbEntity
  8
0
 62
7
100
AcDbPolyline
 90
9
 70
0
 10
24.184275
 20
293.409752
 30
0.0
 10
24.184275
 20
294.057993
 30
0.0
 10
24.388824
 20
294.551446
 30
0.0
 10
24.882485
 20
294.756100
 30
0.0
 10
37.548117
 20
294.756100
 30
0.0
 10
38.041777
 20
294.551446
 30
0.0
 10
38.246016
 20
294.057993
 30
0.0
 10
38.246016
 20
293.409752
 30
0.0
 10
38.674020
 20
293.176011
 30
0.0
  0
LWPOLYLINE
  5
124
100
AcDbEntity
  8
0
 62
7
100
AcDbPolyline
 90
3
 70
0
 10
38.674020
 20
293.174972
 30
0.0
 10
38.844496
 20
292.718918
 30
0.0
 10
38.844496
 20
292.718918
 30
0.0
  0
LWPOLYLINE
  5
125
100
AcDbEntity
  8
0
 62
7
100
AcDbPolyline
 90
3
 70
0
 10
31.564353
 20
265.179059
 30
0.0
 10
31.564353
 20
273.770333
 30
0.0
 10
31.734517
 20
274.227426
 30
0.0
  0
LWPOLYLINE
  5
126
100
AcDbEntity
  8
0
 62
7
100
AcDbPolyline
 90
4
 70
0
 10
31.734623
 20
274.226387
 30
0.0
 10
32.162626
 20
274.461167
 30
0.0
 10
32.162626
 20
275.109408
 30
0.0
 10
32.367176
 20
275.602861
 30
0.0
  0
LWPOLYLINE
  5
127
100
AcDbEntity
  8
0
 62
7
100
AcDbPolyline
 90
5
 70
0
 10
32.367070
 20
275.602861
 30
0.0
 10
32.860732
 20
275.807514
 30
0.0
 10
45.526366
 20
275.807514
 30
0.0
 10
46.019819
 20
275.602861
 30
0.0
 10
46.224366
 20
275.109408
 30
0.0
  0
LWPOLYLINE
  5
128
100
AcDbEntity
  8
0
 62
7
100
AcDbPolyline
 90
3
 70
0
 10
46.224265
 20
275.109408
 30
0.0
 10
46.224265
 20
274.461167
 30
0.0
 10
46.652271
 20
274.227426
 30
0.0
  0
LWPOLYLINE
  5
129
100
AcDbEntity
  8
0
 62
7
100
AcDbPolyline
 90
4
 70
0
 10
46.652374
 20
274.226387
 30
0.0
 10
46.822745
 20
273.770333
 30
0.0
 10
46.822745
 20
265.179059
 30
0.0
 10
46.652271
 20
264.721968
 30
0.0
  0
LWPOLYLINE
  5
12a
100
AcDbEntity
  8
0
 62
7
100
AcDbPolyline
 90
2
 70
0
 10
46.652374
 20
264.723007
 30
0.0
 10
46.224366
 20
264.488227
 30
0.0
  0
LWPOLYLINE
  5
12b
100
AcDbEntity
  8
0
 62
7
100
AcDbPolyline
 90
10
 70
0
 10
46.224265
 20
264.488227
 30
0.0
 10
46.224265
 20
262.443773
 30
0.0
 10
46.019819
 20
261.950322
 30
0.0
 10
45.526366
 20
261.745667
 30
0.0
 10
32.860732
 20
261.745667
 30
0.0
 10
32.367070
 20
261.950322
 30
0.0
 10
32.162626
 20
262.443773
 30
0.0
 10
32.162626
 20
264.488227
 30
0.0
 10
31.734623
 20
264.721968
 30
0.0
 10
31.564459
 20
265.179059
 30
0.0
  0
LWPOLYLINE
  5
12c
100
AcDbEntity
  8
0
 62
7
100
AcDbPolyline
 90
2
 70
0
 10
69.461212
 20
265.179059
 30
0.0
 10
69.631689
 20
264.721968
 30
0.0
  0
LWPOLYLINE
  5
12d
100
AcDbEntity
  8
0
 62
7
100
AcDbPolyline
 90
4
 70
0
 10
69.631689
 20
264.723007
 30
0.0
 10
70.059692
 20
264.488227
 30
0.0
 10
70.059692
 20
262.443773
 30
0.0
 10
70.264241
 20
261.950322
 30
0.0
  0
LWPOLYLINE
  5
12e
100
AcDbEntity
  8
0
 62
7
100
AcDbPolyline
 90
2
 70
0
 10
70.264138
 20
261.950322
 30
0.0
 10
70.757800
 20
261.745667
 30
0.0
  0
LWPOLYLINE
  5
12f
100
AcDbEntity
  8
0
 62
7
100
AcDbPolyline
 90
3
 70
0
 10
70.757901
 20
261.745667
 30
0.0
 10
83.423537
 20
261.745667
 30
0.0
 10
83.916988
 20
261.950322
 30
0.0
  0
LWPOLYLINE
  5
130
100
AcDbEntity
  8
0
 62
7
100
AcDbPolyline
 90
5
 70
0
 10
83.916887
 20
261.950322
 30
0.0
 10
84.121434
 20
262.443773
 30
0.0
 10
84.121434
 20
264.488227
 30
0.0
 10
84.549440
 20
264.721968
 30
0.0
 10
84.719813
 20
265.179059
 30
0.0
  0
LWPOLYLINE
  5
131
100
AcDbEntity
  8
0
 62
7
100
AcDbPolyline
 90
3
 70
0
 10
84.719916
 20
265.179059
 30
0.0
 10
84.719916
 20
273.770333
 30
0.0
 10
84.549440
 20
274.227426
 30
0.0
  0
LWPOLYLINE
  5
132
100
AcDbEntity
  8
0
 62
7
100
AcDbPolyline
 90
4
 70
0
 10
84.549440
 20
274.226387
 30
0.0
 10
84.121434
 20
274.461167
 30
0.0
 10
84.121434
 20
275.109408
 30
0.0
 10
83.916988
 20
275.602861
 30
0.0
  0
LWPOLYLINE
  5
133
100
AcDbEntity
  8
0
 62
7
100
AcDbPolyline
 90
2
 70
0
 10
83.916887
 20
275.602861
 30
0.0
 10
83.423431
 20
275.807514
 30
0.0
  0
LWPOLYLINE
  5
134
100
AcDbEntity
  8
0
 62
7
100
AcDbPolyline
 90
3
 70
0
 10
83.423537
 20
275.807514
 30
0.0
 10
70.757901
 20
275.807514
 30
0.0
 10
70.264241
 20
275.602861
 30
0.0
  0
LWPOLYLINE
  5
135
100
AcDbEntity
  8
0
 62
7
100
AcDbPolyline
 90
4
 70
0
 10
70.264138
 20
275.602861
 30
0.0
 10
70.059692
 20
275.109408
 30
0.0
 10
70.059692
 20
274.461167
 30
0.0
 10
69.631689
 20
274.227426
 30
0.0
  0
LWPOLYLINE
  5
136
100
AcDbEntity
  8
0
 62
7
100
AcDbPolyline
 90
3
 70
0
 10
69.631689
 20
274.226387
 30
0.0
 10
69.461212
 20
273.770333
 30
0.0
 10
69.461212
 20
265.179059
 30
0.0
  0
LWPOLYLINE
  5
137
100
AcDbEntity
  8
0
 62
7
100
AcDbPolyline
 90
5
 70
0
 10
58.490981
 20
246.229436
 30
0.0
 10
58.661455
 20
245.773382
 30
0.0
 10
59.089461
 20
245.538604
 30
0.0
 10
59.089461
 20
243.496227
 30
0.0
 10
59.294010
 20
243.002776
 30
0.0
  0
LWPOLYLINE
  5
138
100
AcDbEntity
  8
0
 62
7
100
AcDbPolyline
 90
4
 70
0
 10
59.293907
 20
243.002776
 30
0.0
 10
59.787566
 20
242.797081
 30
0.0
 10
72.453200
 20
242.797081
 30
0.0
 10
72.946860
 20
243.002776
 30
0.0
  0
LWPOLYLINE
  5
139
100
AcDbEntity
  8
0
 62
7
100
AcDbPolyline
 90
2
 70
0
 10
72.946965
 20
243.002776
 30
0.0
 10
73.151515
 20
243.496227
 30
0.0
  0
LWPOLYLINE
  5
13a
100
AcDbEntity
  8
0
 62
7
100
AcDbPolyline
 90
4
 70
0
 10
73.151406
 20
243.496227
 30
0.0
 10
73.151406
 20
245.538604
 30
0.0
 10
73.579412
 20
245.773382
 30
0.0
 10
73.749682
 20
246.229436
 30
0.0
  0
LWPOLYLINE
  5
13b
100
AcDbEntity
  8
0
 62
7
100
AcDbPolyline
 90
3
 70
0
 10
73.749576
 20
246.229436
 30
0.0
 10
73.749576
 20
254.821749
 30
0.0
 10
73.579412
 20
255.278840
 30
0.0
  0
LWPOLYLINE
  5
13c
100
AcDbEntity
  8
0
 62
7
100
AcDbPolyline
 90
2
 70
0
 10
73.579412
 20
255.277803
 30
0.0
 10
73.151515
 20
255.512581
 30
0.0
  0
LWPOLYLINE
  5
13d
100
AcDbEntity
  8
0
 62
7
100
AcDbPolyline
 90
4
 70
0
 10
73.151406
 20
255.512581
 30
0.0
 10
73.151406
 20
256.160823
 30
0.0
 10
72.946965
 20
256.654277
 30
0.0
 10
72.453301
 20
256.858926
 30
0.0
  0
LWPOLYLINE
  5
13e
100
AcDbEntity
  8
0
 62
7
100
AcDbPolyline
 90
6
 70
0
 10
72.453200
 20
256.858926
 30
0.0
 10
59.787566
 20
256.858926
 30
0.0
 10
59.293907
 20
256.654277
 30
0.0
 10
59.089461
 20
256.160823
 30
0.0
 10
59.089461
 20
255.512581
 30
0.0
 10
58.661455
 20
255.278840
 30
0.0
  0
LWPOLYLINE
  5
13f
100
AcDbEntity
  8
0
 62
7
100
AcDbPolyline
 90
3
 70
0
 10
58.661455
 20
255.277803
 30
0.0
 10
58.490981
 20
254.821749
 30
0.0
 10
58.490981
 20
246.229436
 30
0.0
  0
LWPOLYLINE
  5
140
100
AcDbEntity
  8
0
 62
7
100
AcDbPolyline
 90
11
 70
0
 10
1.645525
 20
246.229436
 30
0.0
 10
1.815906
 20
245.773382
 30
0.0
 10
2.243901
 20
245.538604
 30
0.0
 10
2.243901
 20
243.496227
 30
0.0
 10
2.448367
 20
243.002776
 30
0.0
 10
2.942007
 20
242.797081
 30
0.0
 10
15.607650
 20
242.797081
 30
0.0
 10
16.101311
 20
243.002776
 30
0.0
 10
16.305756
 20
243.496227
 30
0.0
 10
16.305756
 20
245.538604
 30
0.0
 10
16.733761
 20
245.773382
 30
0.0
  0
LWPOLYLINE
  5
141
100
AcDbEntity
  8
0
 62
7
100
AcDbPolyline
 90
4
 70
0
 10
16.733657
 20
245.773382
 30
0.0
 10
16.904132
 20
246.229436
 30
0.0
 10
16.904132
 20
254.821749
 30
0.0
 10
16.733761
 20
255.278840
 30
0.0
  0
LWPOLYLINE
  5
142
100
AcDbEntity
  8
0
 62
7
100
AcDbPolyline
 90
10
 70
0
 10
16.733657
 20
255.277803
 30
0.0
 10
16.305756
 20
255.512581
 30
0.0
 10
16.305756
 20
256.160823
 30
0.0
 10
16.101311
 20
256.654277
 30
0.0
 10
15.607650
 20
256.858926
 30
0.0
 10
2.942017
 20
256.858926
 30
0.0
 10
2.448367
 20
256.654277
 30
0.0
 10
2.243891
 20
256.160823
 30
0.0
 10
2.243901
 20
255.512581
 30
0.0
 10
1.815906
 20
255.278840
 30
0.0
  0
LWPOLYLINE
  5
143
100
AcDbEntity
  8
0
 62
7
100
AcDbPolyline
 90
3
 70
0
 10
1.815906
 20
255.277803
 30
0.0
 10
1.645535
 20
254.821749
 30
0.0
 10
1.645525
 20
246.229436
 30
0.0
  0
LWPOLYLINE
  5
144
100
AcDbEntity
  8
0
 62
7
100
AcDbPolyline
 90
2
 70
0
 10
77.439773
 20
246.229436
 30
0.0
 10
77.609937
 20
245.773382
 30
0.0
  0
LWPOLYLINE
  5
145
100
AcDbEntity
  8
0
 62
7
100
AcDbPolyline
 90
2
 70
0
 10
77.610040
 20
245.773382
 30
0.0
 10
78.038046
 20
245.538604
 30
0.0
  0
LWPOLYLINE
  5
146
100
AcDbEntity
  8
0
 62
7
100
AcDbPolyline
 90
9
 70
0
 10
78.037943
 20
245.538604
 30
0.0
 10
78.037943
 20
243.496227
 30
0.0
 10
78.242492
 20
243.002776
 30
0.0
 10
78.736152
 20
242.797081
 30
0.0
 10
91.401783
 20
242.797081
 30
0.0
 10
91.895445
 20
243.002776
 30
0.0
 10
92.099992
 20
243.496227
 30
0.0
 10
92.099992
 20
245.538604
 30
0.0
 10
92.527998
 20
245.773382
 30
0.0
  0
LWPOLYLINE
  5
147
100
AcDbEntity
  8
0
 62
7
100
AcDbPolyline
 90
4
 70
0
 10
92.527895
 20
245.773382
 30
0.0
 10
92.698162
 20
246.229436
 30
0.0
 10
92.698162
 20
254.821749
 30
0.0
 10
92.527998
 20
255.278840
 30
0.0
  0
LWPOLYLINE
  5
148
100
AcDbEntity
  8
0
 62
7
100
AcDbPolyline
 90
4
 70
0
 10
92.527895
 20
255.277803
 30
0.0
 10
92.099992
 20
255.512581
 30
0.0
 10
92.099992
 20
256.160823
 30
0.0
 10
91.895551
 20
256.654277
 30
0.0
  0
LWPOLYLINE
  5
149
100
AcDbEntity
  8
0
 62
7
100
AcDbPolyline
 90
5
 70
0
 10
91.895445
 20
256.654277
 30
0.0
 10
91.401783
 20
256.858926
 30
0.0
 10
78.736152
 20
256.858926
 30
0.0
 10
78.242492
 20
256.654277
 30
0.0
 10
78.038046
 20
256.160823
 30
0.0
  0
LWPOLYLINE
  5
14a
100
AcDbEntity
  8
0
 62
7
100
AcDbPolyline
 90
3
 70
0
 10
78.037943
 20
256.160823
 30
0.0
 10
78.037943
 20
255.512581
 30
0.0
 10
77.609937
 20
255.278840
 30
0.0
  0
LWPOLYLINE
  5
14b
100
AcDbEntity
  8
0
 62
7
100
AcDbPolyline
 90
2
 70
0
 10
77.610040
 20
255.277803
 30
0.0
 10
77.439876
 20
254.821749
 30
0.0
  0
LWPOLYLINE
  5
14c
100
AcDbEntity
  8
0
 62
7
100
AcDbPolyline
 90
2
 70
0
 10
77.439773
 20
254.821749
 30
0.0
 10
77.439773
 20
246.229436
 30
0.0
  0
LWPOLYLINE
  5
14d
100
AcDbEntity
  8
0
 62
7
100
AcDbPolyline
 90
2
 70
0
 10
50.512730
 20
265.179059
 30
0.0
 10
50.683206
 20
264.721968
 30
0.0
  0
LWPOLYLINE
  5
14e
100
AcDbEntity
  8
0
 62
7
100
AcDbPolyline
 90
2
 70
0
 10
50.683206
 20
264.723007
 30
0.0
 10
51.111212
 20
264.488227
 30
0.0
  0
LWPOLYLINE
  5
14f
100
AcDbEntity
  8
0
 62
7
100
AcDbPolyline
 90
7
 70
0
 10
51.111109
 20
264.488227
 30
0.0
 10
51.111109
 20
262.443773
 30
0.0
 10
51.315656
 20
261.950322
 30
0.0
 10
51.809318
 20
261.745667
 30
0.0
 10
64.474951
 20
261.745667
 30
0.0
 10
64.968405
 20
261.950322
 30
0.0
 10
65.172951
 20
262.443773
 30
0.0
  0
LWPOLYLINE
  5
150
100
AcDbEntity
  8
0
 62
7
100
AcDbPolyline
 90
3
 70
0
 10
65.172848
 20
262.443773
 30
0.0
 10
65.172848
 20
264.488227
 30
0.0
 10
65.600857
 20
264.721968
 30
0.0
  0
LWPOLYLINE
  5
151
100
AcDbEntity
  8
0
 62
7
100
AcDbPolyline
 90
4
 70
0
 10
65.600957
 20
264.721968
 30
0.0
 10
65.771330
 20
265.179059
 30
0.0
 10
65.771330
 20
273.770333
 30
0.0
 10
65.600857
 20
274.227426
 30
0.0
  0
LWPOLYLINE
  5
152
100
AcDbEntity
  8
0
 62
7
100
AcDbPolyline
 90
2
 70
0
 10
65.600957
 20
274.226387
 30
0.0
 10
65.172951
 20
274.461167
 30
0.0
  0
LWPOLYLINE
  5
153
100
AcDbEntity
  8
0
 62
7
100
AcDbPolyline
 90
7
 70
0
 10
65.172848
 20
274.461167
 30
0.0
 10
65.172848
 20
275.109408
 30
0.0
 10
64.968405
 20
275.602861
 30
0.0
 10
64.474951
 20
275.807514
 30
0.0
 10
51.809318
 20
275.807514
 30
0.0
 10
51.315656
 20
275.602861
 30
0.0
 10
51.111212
 20
275.109408
 30
0.0
  0
LWPOLYLINE
  5
154
100
AcDbEntity
  8
0
 62
7
100
AcDbPolyline
 90
3
 70
0
 10
51.111109
 20
275.109408
 30
0.0
 10
51.111109
 20
274.461167
 30
0.0
 10
50.683103
 20
274.227426
 30
0.0
  0
LWPOLYLINE
  5
155
100
AcDbEntity
  8
0
 62
7
100
AcDbPolyline
 90
3
 70
0
 10
50.683206
 20
274.226387
 30
0.0
 10
50.512730
 20
273.770333
 30
0.0
 10
50.512730
 20
265.179059
 30
0.0
  0
LWPOLYLINE
  5
156
100
AcDbEntity
  8
0
 62
7
100
AcDbPolyline
 90
5
 70
0
 10
61.482966
 20
284.127646
 30
0.0
 10
61.653440
 20
283.670553
 30
0.0
 10
62.081446
 20
283.436812
 30
0.0
 10
62.081446
 20
281.392360
 30
0.0
 10
62.285995
 20
280.898907
 30
0.0
  0
LWPOLYLINE
  5
157
100
AcDbEntity
  8
0
 62
7
100
AcDbPolyline
 90
4
 70
0
 10
62.285892
 20
280.898907
 30
0.0
 10
62.779343
 20
280.694254
 30
0.0
 10
75.444976
 20
280.694254
 30
0.0
 10
75.938741
 20
280.898907
 30
0.0
  0
LWPOLYLINE
  5
158
100
AcDbEntity
  8
0
 62
7
100
AcDbPolyline
 90
7
 70
0
 10
75.938636
 20
280.898907
 30
0.0
 10
76.143188
 20
281.392360
 30
0.0
 10
76.143188
 20
283.436812
 30
0.0
 10
76.571191
 20
283.670553
 30
0.0
 10
76.741564
 20
284.127646
 30
0.0
 10
76.741564
 20
292.718918
 30
0.0
 10
76.571088
 20
293.176011
 30
0.0
  0
LWPOLYLINE
  5
159
100
AcDbEntity
  8
0
 62
7
100
AcDbPolyline
 90
4
 70
0
 10
76.571191
 20
293.174972
 30
0.0
 10
76.143188
 20
293.409752
 30
0.0
 10
76.143188
 20
294.057993
 30
0.0
 10
75.938741
 20
294.551446
 30
0.0
  0
LWPOLYLINE
  5
15a
100
AcDbEntity
  8
0
 62
7
100
AcDbPolyline
 90
7
 70
0
 10
75.938636
 20
294.551446
 30
0.0
 10
75.444976
 20
294.756100
 30
0.0
 10
62.779343
 20
294.756100
 30
0.0
 10
62.285892
 20
294.551446
 30
0.0
 10
62.081446
 20
294.057993
 30
0.0
 10
62.081446
 20
293.409752
 30
0.0
 10
61.653440
 20
293.176011
 30
0.0
  0
LWPOLYLINE
  5
15b
100
AcDbEntity
  8
0
 62
7
100
AcDbPolyline
 90
3
 70
0
 10
61.653440
 20
293.174972
 30
0.0
 10
61.482966
 20
292.718918
 30
0.0
 10
61.482966
 20
284.127646
 30
0.0
  0
LWPOLYLINE
  5
15c
100
AcDbEntity
  8
0
 62
7
100
AcDbPolyline
 90
12
 70
0
 10
27.275992
 20
264.488227
 30
0.0
 10
27.275992
 20
262.443773
 30
0.0
 10
27.071545
 20
261.950322
 30
0.0
 10
26.577883
 20
261.745667
 30
0.0
 10
13.912251
 20
261.745667
 30
0.0
 10
13.418590
 20
261.950322
 30
0.0
 10
13.214145
 20
262.443773
 30
0.0
 10
13.214145
 20
264.488227
 30
0.0
 10
12.786140
 20
264.721968
 30
0.0
 10
12.615768
 20
265.179059
 30
0.0
 10
12.615768
 20
273.770333
 30
0.0
 10
12.786140
 20
274.227426
 30
0.0
  0
LWPOLYLINE
  5
15d
100
AcDbEntity
  8
0
 62
7
100
AcDbPolyline
 90
8
 70
0
 10
12.786140
 20
274.226387
 30
0.0
 10
13.214145
 20
274.461167
 30
0.0
 10
13.214145
 20
275.109408
 30
0.0
 10
13.418590
 20
275.602861
 30
0.0
 10
13.912251
 20
275.807514
 30
0.0
 10
26.577883
 20
275.807514
 30
0.0
 10
27.071545
 20
275.602861
 30
0.0
 10
27.276092
 20
275.109408
 30
0.0
  0
LWPOLYLINE
  5
15e
100
AcDbEntity
  8
0
 62
7
100
AcDbPolyline
 90
3
 70
0
 10
27.275992
 20
275.109408
 30
0.0
 10
27.275992
 20
274.461167
 30
0.0
 10
27.703995
 20
274.227426
 30
0.0
  0
LWPOLYLINE
  5
15f
100
AcDbEntity
  8
0
 62
7
100
AcDbPolyline
 90
4
 70
0
 10
27.703995
 20
274.226387
 30
0.0
 10
27.874262
 20
273.770333
 30
0.0
 10
27.874262
 20
265.179059
 30
0.0
 10
27.704098
 20
264.721968
 30
0.0
  0
LWPOLYLINE
  5
160
100
AcDbEntity
  8
0
 62
7
100
AcDbPolyline
 90
2
 70
0
 10
27.703995
 20
264.723007
 30
0.0
 10
27.276092
 20
264.488227
 30
0.0
  0
LWPOLYLINE
  5
161
100
AcDbEntity
  8
0
 62
7
100
AcDbPolyline
 90
6
 70
0
 10
61.931747
 20
226.590016
 30
0.0
 10
61.931747
 20
224.545564
 30
0.0
 10
61.727301
 20
224.052111
 30
0.0
 10
61.233641
 20
223.848496
 30
0.0
 10
48.568010
 20
223.848496
 30
0.0
 10
48.074348
 20
224.052111
 30
0.0
  0
LWPOLYLINE
  5
162
100
AcDbEntity
  8
0
 62
7
100
AcDbPolyline
 90
2
 70
0
 10
48.074245
 20
224.052111
 30
0.0
 10
47.870005
 20
224.545564
 30
0.0
  0
LWPOLYLINE
  5
163
100
AcDbEntity
  8
0
 62
7
100
AcDbPolyline
 90
3
 70
0
 10
47.870108
 20
224.545564
 30
0.0
 10
47.870108
 20
226.590016
 30
0.0
 10
47.442105
 20
226.824796
 30
0.0
  0
LWPOLYLINE
  5
164
100
AcDbEntity
  8
0
 62
7
100
AcDbPolyline
 90
2
 70
0
 10
47.442105
 20
226.825836
 30
0.0
 10
47.271629
 20
227.281888
 30
0.0
  0
LWPOLYLINE
  5
165
100
AcDbEntity
  8
0
 62
7
100
AcDbPolyline
 90
4
 70
0
 10
47.271629
 20
227.280853
 30
0.0
 10
47.271629
 20
235.873163
 30
0.0
 10
47.442105
 20
236.329217
 30
0.0
 10
47.870108
 20
236.565035
 30
0.0
  0
LWPOLYLINE
  5
166
100
AcDbEntity
  8
0
 62
7
100
AcDbPolyline
 90
3
 70
0
 10
47.870108
 20
236.563995
 30
0.0
 10
47.870108
 20
237.211198
 30
0.0
 10
48.074348
 20
237.707768
 30
0.0
  0
LWPOLYLINE
  5
167
100
AcDbEntity
  8
0
 62
7
100
AcDbPolyline
 90
4
 70
0
 10
48.074245
 20
237.706731
 30
0.0
 10
48.568010
 20
237.910343
 30
0.0
 10
61.233641
 20
237.910343
 30
0.0
 10
61.727301
 20
237.707768
 30
0.0
  0
LWPOLYLINE
  5
168
100
AcDbEntity
  8
0
 62
7
100
AcDbPolyline
 90
2
 70
0
 10
61.727301
 20
237.706731
 30
0.0
 10
61.931850
 20
237.213275
 30
0.0
  0
LWPOLYLINE
  5
169
100
AcDbEntity
  8
0
 62
7
100
AcDbPolyline
 90
6
 70
0
 10
61.931747
 20
237.213275
 30
0.0
 10
61.931747
 20
236.563995
 30
0.0
 10
62.359753
 20
236.329217
 30
0.0
 10
62.530229
 20
235.873163
 30
0.0
 10
62.530229
 20
227.280853
 30
0.0
 10
62.359753
 20
226.824796
 30
0.0
  0
LWPOLYLINE
  5
16a
100
AcDbEntity
  8
0
 62
7
100
AcDbPolyline
 90
2
 70
0
 10
62.359753
 20
226.825836
 30
0.0
 10
61.931850
 20
226.591055
 30
0.0
  0
LWPOLYLINE
  5
16b
100
AcDbEntity
  8
0
 62
7
100
AcDbPolyline
 90
6
 70
0
 10
54.202823
 20
245.538604
 30
0.0
 10
54.202823
 20
243.496227
 30
0.0
 10
53.998380
 20
243.002776
 30
0.0
 10
53.504715
 20
242.797081
 30
0.0
 10
40.839084
 20
242.797081
 30
0.0
 10
40.345424
 20
243.002776
 30
0.0
  0
LWPOLYLINE
  5
16c
100
AcDbEntity
  8
0
 62
7
100
AcDbPolyline
 90
2
 70
0
 10
40.345321
 20
243.002776
 30
0.0
 10
40.141084
 20
243.496227
 30
0.0
  0
LWPOLYLINE
  5
16d
100
AcDbEntity
  8
0
 62
7
100
AcDbPolyline
 90
6
 70
0
 10
40.141185
 20
243.496227
 30
0.0
 10
40.141185
 20
245.538604
 30
0.0
 10
39.713181
 20
245.773382
 30
0.0
 10
39.542705
 20
246.229436
 30
0.0
 10
39.542705
 20
254.821749
 30
0.0
 10
39.713181
 20
255.278840
 30
0.0
  0
LWPOLYLINE
  5
16e
100
AcDbEntity
  8
0
 62
7
100
AcDbPolyline
 90
4
 70
0
 10
39.713181
 20
255.277803
 30
0.0
 10
40.141185
 20
255.512581
 30
0.0
 10
40.141185
 20
256.160823
 30
0.0
 10
40.345424
 20
256.654277
 30
0.0
  0
LWPOLYLINE
  5
16f
100
AcDbEntity
  8
0
 62
7
100
AcDbPolyline
 90
2
 70
0
 10
40.345321
 20
256.654277
 30
0.0
 10
40.838981
 20
256.858926
 30
0.0
  0
LWPOLYLINE
  5
170
100
AcDbEntity
  8
0
 62
7
100
AcDbPolyline
 90
4
 70
0
 10
40.839084
 20
256.858926
 30
0.0
 10
53.504715
 20
256.858926
 30
0.0
 10
53.998380
 20
256.654277
 30
0.0
 10
54.202929
 20
256.160823
 30
0.0
  0
LWPOLYLINE
  5
171
100
AcDbEntity
  8
0
 62
7
100
AcDbPolyline
 90
3
 70
0
 10
54.202823
 20
256.160823
 30
0.0
 10
54.202823
 20
255.512581
 30
0.0
 10
54.630829
 20
255.278840
 30
0.0
  0
LWPOLYLINE
  5
172
100
AcDbEntity
  8
0
 62
7
100
AcDbPolyline
 90
4
 70
0
 10
54.630829
 20
255.277803
 30
0.0
 10
54.801097
 20
254.821749
 30
0.0
 10
54.801097
 20
246.229436
 30
0.0
 10
54.630932
 20
245.773382
 30
0.0
  0
LWPOLYLINE
  5
173
100
AcDbEntity
  8
0
 62
7
100
AcDbPolyline
 90
2
 70
0
 10
54.630829
 20
245.773382
 30
0.0
 10
54.202929
 20
245.538604
 30
0.0
  0
LWPOLYLINE
  5
174
100
AcDbEntity
  8
0
 62
7
100
AcDbPolyline
 90
3
 70
0
 10
35.254344
 20
245.538604
 30
0.0
 10
35.254344
 20
243.496227
 30
0.0
 10
35.049897
 20
243.002776
 30
0.0
  0
LWPOLYLINE
  5
175
100
AcDbEntity
  8
0
 62
7
100
AcDbPolyline
 90
10
 70
0
 10
35.049791
 20
243.002776
 30
0.0
 10
34.556132
 20
242.797081
 30
0.0
 10
21.890498
 20
242.797081
 30
0.0
 10
21.396838
 20
243.002776
 30
0.0
 10
21.192601
 20
243.496227
 30
0.0
 10
21.192601
 20
245.538604
 30
0.0
 10
20.764491
 20
245.773382
 30
0.0
 10
20.594120
 20
246.229436
 30
0.0
 10
20.594120
 20
254.821749
 30
0.0
 10
20.764491
 20
255.278840
 30
0.0
  0
LWPOLYLINE
  5
176
100
AcDbEntity
  8
0
 62
7
100
AcDbPolyline
 90
10
 70
0
 10
20.764491
 20
255.277803
 30
0.0
 10
21.192601
 20
255.512581
 30
0.0
 10
21.192601
 20
256.160823
 30
0.0
 10
21.396838
 20
256.654277
 30
0.0
 10
21.890498
 20
256.858926
 30
0.0
 10
34.556132
 20
256.858926
 30
0.0
 10
35.049791
 20
256.654277
 30
0.0
 10
35.254344
 20
256.160823
 30
0.0
 10
35.254344
 20
255.512581
 30
0.0
 10
35.682349
 20
255.278840
 30
0.0
  0
LWPOLYLINE
  5
177
100
AcDbEntity
  8
0
 62
7
100
AcDbPolyline
 90
6
 70
0
 10
35.682244
 20
255.277803
 30
0.0
 10
35.852717
 20
254.821749
 30
0.0
 10
35.852717
 20
246.229436
 30
0.0
 10
35.682244
 20
245.773382
 30
0.0
 10
35.254344
 20
245.538604
 30
0.0
 10
35.254344
 20
245.538604
 30
0.0
  0
LWPOLYLINE
  5
178
100
AcDbEntity
  8
0
 62
7
100
AcDbPolyline
 90
4
 70
0
 10
90.354522
 20
226.590016
 30
0.0
 10
90.354522
 20
224.545564
 30
0.0
 10
90.150285
 20
224.052111
 30
0.0
 10
89.656623
 20
223.848496
 30
0.0
  0
LWPOLYLINE
  5
179
100
AcDbEntity
  8
0
 62
7
100
AcDbPolyline
 90
3
 70
0
 10
89.656520
 20
223.848496
 30
0.0
 10
76.990989
 20
223.848496
 30
0.0
 10
76.497330
 20
224.052111
 30
0.0
  0
LWPOLYLINE
  5
17a
100
AcDbEntity
  8
0
 62
7
100
AcDbPolyline
 90
4
 70
0
 10
76.497227
 20
224.052111
 30
0.0
 10
76.292780
 20
224.545564
 30
0.0
 10
76.292780
 20
226.590016
 30
0.0
 10
75.864775
 20
226.824796
 30
0.0
  0
LWPOLYLINE
  5
17b
100
AcDbEntity
  8
0
 62
7
100
AcDbPolyline
 90
2
 70
0
 10
75.864775
 20
226.825836
 30
0.0
 10
75.694298
 20
227.281888
 30
0.0
  0
LWPOLYLINE
  5
17c
100
AcDbEntity
  8
0
 62
7
100
AcDbPolyline
 90
4
 70
0
 10
75.694298
 20
227.280853
 30
0.0
 10
75.694298
 20
235.873163
 30
0.0
 10
75.864775
 20
236.329217
 30
0.0
 10
76.292780
 20
236.565035
 30
0.0
  0
LWPOLYLINE
  5
17d
100
AcDbEntity
  8
0
 62
7
100
AcDbPolyline
 90
3
 70
0
 10
76.292780
 20
236.563995
 30
0.0
 10
76.292780
 20
237.211198
 30
0.0
 10
76.497330
 20
237.707768
 30
0.0
  0
LWPOLYLINE
  5
17e
100
AcDbEntity
  8
0
 62
7
100
AcDbPolyline
 90
2
 70
0
 10
76.497227
 20
237.706731
 30
0.0
 10
76.990886
 20
237.910343
 30
0.0
  0
LWPOLYLINE
  5
17f
100
AcDbEntity
  8
0
 62
7
100
AcDbPolyline
 90
3
 70
0
 10
76.990989
 20
237.910343
 30
0.0
 10
89.656520
 20
237.910343
 30
0.0
 10
90.149973
 20
237.707768
 30
0.0
  0
LWPOLYLINE
  5
180
100
AcDbEntity
  8
0
 62
7
100
AcDbPolyline
 90
7
 70
0
 10
90.149973
 20
237.706731
 30
0.0
 10
90.354522
 20
237.213275
 30
0.0
 10
90.354522
 20
236.563995
 30
0.0
 10
90.782526
 20
236.329217
 30
0.0
 10
90.952899
 20
235.873163
 30
0.0
 10
90.952899
 20
227.280853
 30
0.0
 10
90.782425
 20
226.824796
 30
0.0
  0
LWPOLYLINE
  5
181
100
AcDbEntity
  8
0
 62
7
100
AcDbPolyline
 90
2
 70
0
 10
90.782526
 20
226.825836
 30
0.0
 10
90.354522
 20
226.591055
 30
0.0
  0
SPLINE
  5
182
100
AcDbEntity
  8
0
 62
7
100
AcDbSpline
 70
8
 71
3
 72
8
 73
4
 74
0
 40
0
 40
0
 40
0
 40
0
 40
1
 40
1
 40
1
 40
1
 10
8.116418
 20
235.806401
 30
0.0
 10
8.238737
 20
235.806401
 30
0.0
 10
8.337209
 20
235.707928
 30
0.0
 10
8.337209
 20
235.585608
 30
0.0
  0
LWPOLYLINE
  5
183
100
AcDbEntity
  8
0
 62
7
100
AcDbPolyline
 90
2
 70
0
 10
6.659420
 20
235.806401
 30
0.0
 10
8.116418
 20
235.806401
 30
0.0
  0
SPLINE
  5
184
100
AcDbEntity
  8
0
 62
7
100
AcDbSpline
 70
8
 71
3
 72
8
 73
4
 74
0
 40
0
 40
0
 40
0
 40
0
 40
1
 40
1
 40
1
 40
1
 10
8.337209
 20
234.128609
 30
0.0
 10
8.337209
 20
234.006292
 30
0.0
 10
8.238737
 20
233.907817
 30
0.0
 10
8.116418
 20
233.907817
 30
0.0
  0
LWPOLYLINE
  5
185
100
AcDbEntity
  8
0
 62
7
100
AcDbPolyline
 90
2
 70
0
 10
8.337209
 20
235.585608
 30
0.0
 10
8.337209
 20
234.128609
 30
0.0
  0
SPLINE
  5
186
100
AcDbEntity
  8
0
 62
7
100
AcDbSpline
 70
8
 71
3
 72
8
 73
4
 74
0
 40
0
 40
0
 40
0
 40
0
 40
1
 40
1
 40
1
 40
1
 10
6.659420
 20
233.907817
 30
0.0
 10
6.537100
 20
233.907817
 30
0.0
 10
6.438627
 20
234.006292
 30
0.0
 10
6.438627
 20
234.128609
 30
0.0
  0
LWPOLYLINE
  5
187
100
AcDbEntity
  8
0
 62
7
100
AcDbPolyline
 90
2
 70
0
 10
8.116418
 20
233.907817
 30
0.0
 10
6.659420
 20
233.907817
 30
0.0
  0
SPLINE
  5
188
100
AcDbEntity
  8
0
 62
7
100
AcDbSpline
 70
8
 71
3
 72
8
 73
4
 74
0
 40
0
 40
0
 40
0
 40
0
 40
1
 40
1
 40
1
 40
1
 10
6.438627
 20
235.585608
 30
0.0
 10
6.438627
 20
235.707928
 30
0.0
 10
6.537100
 20
235.806401
 30
0.0
 10
6.659420
 20
235.806401
 30
0.0
  0
LWPOLYLINE
  5
189
100
AcDbEntity
  8
0
 62
7
100
AcDbPolyline
 90
2
 70
0
 10
6.438627
 20
234.128609
 30
0.0
 10
6.438627
 20
235.585608
 30
0.0
  0
LWPOLYLINE
  5
18a
100
AcDbEntity
  8
0
 62
7
100
AcDbPolyline
 90
1
 70
1
 10
6.659420
 20
235.806401
 30
0.0
  0
SPLINE
  5
18b
100
AcDbEntity
  8
0
 62
7
100
AcDbSpline
 70
8
 71
3
 72
8
 73
4
 74
0
 40
0
 40
0
 40
0
 40
0
 40
1
 40
1
 40
1
 40
1
 10
14.341046
 20
228.395141
 30
0.0
 10
14.463364
 20
228.395141
 30
0.0
 10
14.561837
 20
228.296668
 30
0.0
 10
14.561837
 20
228.174351
 30
0.0
  0
LWPOLYLINE
  5
18c
100
AcDbEntity
  8
0
 62
7
100
AcDbPolyline
 90
2
 70
0
 10
11.645597
 20
228.395141
 30
0.0
 10
14.341046
 20
228.395141
 30
0.0
  0
SPLINE
  5
18d
100
AcDbEntity
  8
0
 62
7
100
AcDbSpline
 70
8
 71
3
 72
8
 73
4
 74
0
 40
0
 40
0
 40
0
 40
0
 40
1
 40
1
 40
1
 40
1
 10
14.561837
 20
226.717352
 30
0.0
 10
14.561837
 20
226.595032
 30
0.0
 10
14.463364
 20
226.496560
 30
0.0
 10
14.341046
 20
226.496560
 30
0.0
  0
LWPOLYLINE
  5
18e
100
AcDbEntity
  8
0
 62
7
100
AcDbPolyline
 90
2
 70
0
 10
14.561837
 20
228.174351
 30
0.0
 10
14.561837
 20
226.717352
 30
0.0
  0
SPLINE
  5
18f
100
AcDbEntity
  8
0
 62
7
100
AcDbSpline
 70
8
 71
3
 72
8
 73
4
 74
0
 40
0
 40
0
 40
0
 40
0
 40
1
 40
1
 40
1
 40
1
 10
11.645597
 20
226.496560
 30
0.0
 10
11.523278
 20
226.496560
 30
0.0
 10
11.424804
 20
226.595032
 30
0.0
 10
11.424804
 20
226.717352
 30
0.0
  0
LWPOLYLINE
  5
190
100
AcDbEntity
  8
0
 62
7
100
AcDbPolyline
 90
2
 70
0
 10
14.341046
 20
226.496560
 30
0.0
 10
11.645597
 20
226.496560
 30
0.0
  0
SPLINE
  5
191
100
AcDbEntity
  8
0
 62
7
100
AcDbSpline
 70
8
 71
3
 72
8
 73
4
 74
0
 40
0
 40
0
 40
0
 40
0
 40
1
 40
1
 40
1
 40
1
 10
11.424804
 20
228.174351
 30
0.0
 10
11.424804
 20
228.296668
 30
0.0
 10
11.523278
 20
228.395141
 30
0.0
 10
11.645597
 20
228.395141
 30
0.0
  0
LWPOLYLINE
  5
192
100
AcDbEntity
  8
0
 62
7
100
AcDbPolyline
 90
2
 70
0
 10
11.424804
 20
226.717352
 30
0.0
 10
11.424804
 20
228.174351
 30
0.0
  0
LWPOLYLINE
  5
193
100
AcDbEntity
  8
0
 62
7
100
AcDbPolyline
 90
1
 70
1
 10
11.645597
 20
228.395141
 30
0.0
  0
SPLINE
  5
194
100
AcDbEntity
  8
0
 62
7
100
AcDbSpline
 70
8
 71
3
 72
8
 73
4
 74
0
 40
0
 40
0
 40
0
 40
0
 40
1
 40
1
 40
1
 40
1
 10
18.017003
 20
228.409748
 30
0.0
 10
18.139321
 20
228.409748
 30
0.0
 10
18.237794
 20
228.311273
 30
0.0
 10
18.237794
 20
228.188954
 30
0.0
  0
LWPOLYLINE
  5
195
100
AcDbEntity
  8
0
 62
7
100
AcDbPolyline
 90
2
 70
0
 10
15.321554
 20
228.409748
 30
0.0
 10
18.017003
 20
228.409748
 30
0.0
  0
SPLINE
  5
196
100
AcDbEntity
  8
0
 62
7
100
AcDbSpline
 70
8
 71
3
 72
8
 73
4
 74
0
 40
0
 40
0
 40
0
 40
0
 40
1
 40
1
 40
1
 40
1
 10
18.237794
 20
226.731957
 30
0.0
 10
18.237794
 20
226.609637
 30
0.0
 10
18.139321
 20
226.511162
 30
0.0
 10
18.017003
 20
226.511162
 30
0.0
  0
LWPOLYLINE
  5
197
100
AcDbEntity
  8
0
 62
7
100
AcDbPolyline
 90
2
 70
0
 10
18.237794
 20
228.188954
 30
0.0
 10
18.237794
 20
226.731957
 30
0.0
  0
SPLINE
  5
198
100
AcDbEntity
  8
0
 62
7
100
AcDbSpline
 70
8
 71
3
 72
8
 73
4
 74
0
 40
0
 40
0
 40
0
 40
0
 40
1
 40
1
 40
1
 40
1
 10
15.321554
 20
226.511162
 30
0.0
 10
15.199235
 20
226.511162
 30
0.0
 10
15.100761
 20
226.609637
 30
0.0
 10
15.100761
 20
226.731957
 30
0.0
  0
LWPOLYLINE
  5
199
100
AcDbEntity
  8
0
 62
7
100
AcDbPolyline
 90
2
 70
0
 10
18.017003
 20
226.511162
 30
0.0
 10
15.321554
 20
226.511162
 30
0.0
  0
SPLINE
  5
19a
100
AcDbEntity
  8
0
 62
7
100
AcDbSpline
 70
8
 71
3
 72
8
 73
4
 74
0
 40
0
 40
0
 40
0
 40
0
 40
1
 40
1
 40
1
 40
1
 10
15.100761
 20
228.188954
 30
0.0
 10
15.100761
 20
228.311273
 30
0.0
 10
15.199235
 20
228.409748
 30
0.0
 10
15.321554
 20
228.409748
 30
0.0
  0
LWPOLYLINE
  5
19b
100
AcDbEntity
  8
0
 62
7
100
AcDbPolyline
 90
2
 70
0
 10
15.100761
 20
226.731957
 30
0.0
 10
15.100761
 20
228.188954
 30
0.0
  0
LWPOLYLINE
  5
19c
100
AcDbEntity
  8
0
 62
7
100
AcDbPolyline
 90
1
 70
1
 10
15.321554
 20
228.409748
 30
0.0
  0
SPLINE
  5
19d
100
AcDbEntity
  8
0
 62
7
100
AcDbSpline
 70
8
 71
3
 72
8
 73
4
 74
0
 40
0
 40
0
 40
0
 40
0
 40
1
 40
1
 40
1
 40
1
 10
10.584577
 20
235.806401
 30
0.0
 10
10.706896
 20
235.806401
 30
0.0
 10
10.805368
 20
235.707928
 30
0.0
 10
10.805368
 20
235.585608
 30
0.0
  0
LWPOLYLINE
  5
19e
100
AcDbEntity
  8
0
 62
7
100
AcDbPolyline
 90
2
 70
0
 10
9.127577
 20
235.806401
 30
0.0
 10
10.584577
 20
235.806401
 30
0.0
  0
SPLINE
  5
19f
100
AcDbEntity
  8
0
 62
7
100
AcDbSpline
 70
8
 71
3
 72
8
 73
4
 74
0
 40
0
 40
0
 40
0
 40
0
 40
1
 40
1
 40
1
 40
1
 10
10.805368
 20
234.128609
 30
0.0
 10
10.805368
 20
234.006292
 30
0.0
 10
10.706896
 20
233.907817
 30
0.0
 10
10.584577
 20
233.907817
 30
0.0
  0
LWPOLYLINE
  5
1a0
100
AcDbEntity
  8
0
 62
7
100
AcDbPolyline
 90
2
 70
0
 10
10.805368
 20
235.585608
 30
0.0
 10
10.805368
 20
234.128609
 30
0.0
  0
SPLINE
  5
1a1
100
AcDbEntity
  8
0
 62
7
100
AcDbSpline
 70
8
 71
3
 72
8
 73
4
 74
0
 40
0
 40
0
 40
0
 40
0
 40
1
 40
1
 40
1
 40
1
 10
9.127577
 20
233.907817
 30
0.0
 10
9.005259
 20
233.907817
 30
0.0
 10
8.906786
 20
234.006292
 30
0.0
 10
8.906786
 20
234.128609
 30
0.0
  0
LWPOLYLINE
  5
1a2
100
AcDbEntity
  8
0
 62
7
100
AcDbPolyline
 90
2
 70
0
 10
10.584577
 20
233.907817
 30
0.0
 10
9.127577
 20
233.907817
 30
0.0
  0
SPLINE
  5
1a3
100
AcDbEntity
  8
0
 62
7
100
AcDbSpline
 70
8
 71
3
 72
8
 73
4
 74
0
 40
0
 40
0
 40
0
 40
0
 40
1
 40
1
 40
1
 40
1
 10
8.906786
 20
235.585608
 30
0.0
 10
8.906786
 20
235.707928
 30
0.0
 10
9.005259
 20
235.806401
 30
0.0
 10
9.127577
 20
235.806401
 30
0.0
  0
LWPOLYLINE
  5
1a4
100
AcDbEntity
  8
0
 62
7
100
AcDbPolyline
 90
2
 70
0
 10
8.906786
 20
234.128609
 30
0.0
 10
8.906786
 20
235.585608
 30
0.0
  0
LWPOLYLINE
  5
1a5
100
AcDbEntity
  8
0
 62
7
100
AcDbPolyline
 90
1
 70
1
 10
9.127577
 20
235.806401
 30
0.0
  0
SPLINE
  5
1a6
100
AcDbEntity
  8
0
 62
7
100
AcDbSpline
 70
8
 71
3
 72
8
 73
4
 74
0
 40
0
 40
0
 40
0
 40
0
 40
1
 40
1
 40
1
 40
1
 10
13.052734
 20
235.806401
 30
0.0
 10
13.175053
 20
235.806401
 30
0.0
 10
13.273527
 20
235.707928
 30
0.0
 10
13.273527
 20
235.585608
 30
0.0
  0
LWPOLYLINE
  5
1a7
100
AcDbEntity
  8
0
 62
7
100
AcDbPolyline
 90
2
 70
0
 10
11.595736
 20
235.806401
 30
0.0
 10
13.052734
 20
235.806401
 30
0.0
  0
SPLINE
  5
1a8
100
AcDbEntity
  8
0
 62
7
100
AcDbSpline
 70
8
 71
3
 72
8
 73
4
 74
0
 40
0
 40
0
 40
0
 40
0
 40
1
 40
1
 40
1
 40
1
 10
13.273527
 20
234.128609
 30
0.0
 10
13.273527
 20
234.006292
 30
0.0
 10
13.175053
 20
233.907817
 30
0.0
 10
13.052734
 20
233.907817
 30
0.0
  0
LWPOLYLINE
  5
1a9
100
AcDbEntity
  8
0
 62
7
100
AcDbPolyline
 90
2
 70
0
 10
13.273527
 20
235.585608
 30
0.0
 10
13.273527
 20
234.128609
 30
0.0
  0
SPLINE
  5
1aa
100
AcDbEntity
  8
0
 62
7
100
AcDbSpline
 70
8
 71
3
 72
8
 73
4
 74
0
 40
0
 40
0
 40
0
 40
0
 40
1
 40
1
 40
1
 40
1
 10
11.595736
 20
233.907817
 30
0.0
 10
11.473417
 20
233.907817
 30
0.0
 10
11.374943
 20
234.006292
 30
0.0
 10
11.374943
 20
234.128609
 30
0.0
  0
LWPOLYLINE
  5
1ab
100
AcDbEntity
  8
0
 62
7
100
AcDbPolyline
 90
2
 70
0
 10
13.052734
 20
233.907817
 30
0.0
 10
11.595736
 20
233.907817
 30
0.0
  0
SPLINE
  5
1ac
100
AcDbEntity
  8
0
 62
7
100
AcDbSpline
 70
8
 71
3
 72
8
 73
4
 74
0
 40
0
 40
0
 40
0
 40
0
 40
1
 40
1
 40
1
 40
1
 10
11.374943
 20
235.585608
 30
0.0
 10
11.374943
 20
235.707928
 30
0.0
 10
11.473417
 20
235.806401
 30
0.0
 10
11.595736
 20
235.806401
 30
0.0
  0
LWPOLYLINE
  5
1ad
100
AcDbEntity
  8
0
 62
7
100
AcDbPolyline
 90
2
 70
0
 10
11.374943
 20
234.128609
 30
0.0
 10
11.374943
 20
235.585608
 30
0.0
  0
LWPOLYLINE
  5
1ae
100
AcDbEntity
  8
0
 62
7
100
AcDbPolyline
 90
1
 70
1
 10
11.595736
 20
235.806401
 30
0.0
  0
SPLINE
  5
1af
100
AcDbEntity
  8
0
 62
7
100
AcDbSpline
 70
8
 71
3
 72
8
 73
4
 74
0
 40
0
 40
0
 40
0
 40
0
 40
1
 40
1
 40
1
 40
1
 10
15.520893
 20
235.806401
 30
0.0
 10
15.643212
 20
235.806401
 30
0.0
 10
15.741686
 20
235.707928
 30
0.0
 10
15.741686
 20
235.585608
 30
0.0
  0
LWPOLYLINE
  5
1b0
100
AcDbEntity
  8
0
 62
7
100
AcDbPolyline
 90
2
 70
0
 10
14.063895
 20
235.806401
 30
0.0
 10
15.520893
 20
235.806401
 30
0.0
  0
SPLINE
  5
1b1
100
AcDbEntity
  8
0
 62
7
100
AcDbSpline
 70
8
 71
3
 72
8
 73
4
 74
0
 40
0
 40
0
 40
0
 40
0
 40
1
 40
1
 40
1
 40
1
 10
15.741686
 20
234.128609
 30
0.0
 10
15.741686
 20
234.006292
 30
0.0
 10
15.643212
 20
233.907817
 30
0.0
 10
15.520893
 20
233.907817
 30
0.0
  0
LWPOLYLINE
  5
1b2
100
AcDbEntity
  8
0
 62
7
100
AcDbPolyline
 90
2
 70
0
 10
15.741686
 20
235.585608
 30
0.0
 10
15.741686
 20
234.128609
 30
0.0
  0
SPLINE
  5
1b3
100
AcDbEntity
  8
0
 62
7
100
AcDbSpline
 70
8
 71
3
 72
8
 73
4
 74
0
 40
0
 40
0
 40
0
 40
0
 40
1
 40
1
 40
1
 40
1
 10
14.063895
 20
233.907817
 30
0.0
 10
13.941576
 20
233.907817
 30
0.0
 10
13.843102
 20
234.006292
 30
0.0
 10
13.843102
 20
234.128609
 30
0.0
  0
LWPOLYLINE
  5
1b4
100
AcDbEntity
  8
0
 62
7
100
AcDbPolyline
 90
2
 70
0
 10
15.520893
 20
233.907817
 30
0.0
 10
14.063895
 20
233.907817
 30
0.0
  0
SPLINE
  5
1b5
100
AcDbEntity
  8
0
 62
7
100
AcDbSpline
 70
8
 71
3
 72
8
 73
4
 74
0
 40
0
 40
0
 40
0
 40
0
 40
1
 40
1
 40
1
 40
1
 10
13.843102
 20
235.585608
 30
0.0
 10
13.843102
 20
235.707928
 30
0.0
 10
13.941576
 20
235.806401
 30
0.0
 10
14.063895
 20
235.806401
 30
0.0
  0
LWPOLYLINE
  5
1b6
100
AcDbEntity
  8
0
 62
7
100
AcDbPolyline
 90
2
 70
0
 10
13.843102
 20
234.128609
 30
0.0
 10
13.843102
 20
235.585608
 30
0.0
  0
LWPOLYLINE
  5
1b7
100
AcDbEntity
  8
0
 62
7
100
AcDbPolyline
 90
1
 70
1
 10
14.063895
 20
235.806401
 30
0.0
  0
SPLINE
  5
1b8
100
AcDbEntity
  8
0
 62
7
100
AcDbSpline
 70
8
 71
3
 72
8
 73
4
 74
0
 40
0
 40
0
 40
0
 40
0
 40
1
 40
1
 40
1
 40
1
 10
17.989050
 20
235.806401
 30
0.0
 10
18.111369
 20
235.806401
 30
0.0
 10
18.209843
 20
235.707928
 30
0.0
 10
18.209843
 20
235.585608
 30
0.0
  0
LWPOLYLINE
  5
1b9
100
AcDbEntity
  8
0
 62
7
100
AcDbPolyline
 90
2
 70
0
 10
16.532052
 20
235.806401
 30
0.0
 10
17.989050
 20
235.806401
 30
0.0
  0
SPLINE
  5
1ba
100
AcDbEntity
  8
0
 62
7
100
AcDbSpline
 70
8
 71
3
 72
8
 73
4
 74
0
 40
0
 40
0
 40
0
 40
0
 40
1
 40
1
 40
1
 40
1
 10
18.209843
 20
234.128609
 30
0.0
 10
18.209843
 20
234.006292
 30
0.0
 10
18.111369
 20
233.907817
 30
0.0
 10
17.989050
 20
233.907817
 30
0.0
  0
LWPOLYLINE
  5
1bb
100
AcDbEntity
  8
0
 62
7
100
AcDbPolyline
 90
2
 70
0
 10
18.209843
 20
235.585608
 30
0.0
 10
18.209843
 20
234.128609
 30
0.0
  0
SPLINE
  5
1bc
100
AcDbEntity
  8
0
 62
7
100
AcDbSpline
 70
8
 71
3
 72
8
 73
4
 74
0
 40
0
 40
0
 40
0
 40
0
 40
1
 40
1
 40
1
 40
1
 10
16.532052
 20
233.907817
 30
0.0
 10
16.409733
 20
233.907817
 30
0.0
 10
16.311259
 20
234.006292
 30
0.0
 10
16.311259
 20
234.128609
 30
0.0
  0
LWPOLYLINE
  5
1bd
100
AcDbEntity
  8
0
 62
7
100
AcDbPolyline
 90
2
 70
0
 10
17.989050
 20
233.907817
 30
0.0
 10
16.532052
 20
233.907817
 30
0.0
  0
SPLINE
  5
1be
100
AcDbEntity
  8
0
 62
7
100
AcDbSpline
 70
8
 71
3
 72
8
 73
4
 74
0
 40
0
 40
0
 40
0
 40
0
 40
1
 40
1
 40
1
 40
1
 10
16.311259
 20
235.585608
 30
0.0
 10
16.311259
 20
235.707928
 30
0.0
 10
16.409733
 20
235.806401
 30
0.0
 10
16.532052
 20
235.806401
 30
0.0
  0
LWPOLYLINE
  5
1bf
100
AcDbEntity
  8
0
 62
7
100
AcDbPolyline
 90
2
 70
0
 10
16.311259
 20
234.128609
 30
0.0
 10
16.311259
 20
235.585608
 30
0.0
  0
LWPOLYLINE
  5
1c0
100
AcDbEntity
  8
0
 62
7
100
AcDbPolyline
 90
1
 70
1
 10
16.532052
 20
235.806401
 30
0.0
  0
SPLINE
  5
1c1
100
AcDbEntity
  8
0
 62
7
100
AcDbSpline
 70
8
 71
3
 72
8
 73
4
 74
0
 40
0
 40
0
 40
0
 40
0
 40
1
 40
1
 40
1
 40
1
 10
10.650392
 20
230.865502
 30
0.0
 10
10.772711
 20
230.865502
 30
0.0
 10
10.871186
 20
230.767030
 30
0.0
 10
10.871186
 20
230.644710
 30
0.0
  0
LWPOLYLINE
  5
1c2
100
AcDbEntity
  8
0
 62
7
100
AcDbPolyline
 90
2
 70
0
 10
9.193394
 20
230.865502
 30
0.0
 10
10.650392
 20
230.865502
 30
0.0
  0
SPLINE
  5
1c3
100
AcDbEntity
  8
0
 62
7
100
AcDbSpline
 70
8
 71
3
 72
8
 73
4
 74
0
 40
0
 40
0
 40
0
 40
0
 40
1
 40
1
 40
1
 40
1
 10
10.871186
 20
229.187711
 30
0.0
 10
10.871186
 20
229.065391
 30
0.0
 10
10.772711
 20
228.966919
 30
0.0
 10
10.650392
 20
228.966919
 30
0.0
  0
LWPOLYLINE
  5
1c4
100
AcDbEntity
  8
0
 62
7
100
AcDbPolyline
 90
2
 70
0
 10
10.871186
 20
230.644710
 30
0.0
 10
10.871186
 20
229.187711
 30
0.0
  0
SPLINE
  5
1c5
100
AcDbEntity
  8
0
 62
7
100
AcDbSpline
 70
8
 71
3
 72
8
 73
4
 74
0
 40
0
 40
0
 40
0
 40
0
 40
1
 40
1
 40
1
 40
1
 10
9.193394
 20
228.966919
 30
0.0
 10
9.071074
 20
228.966919
 30
0.0
 10
8.972601
 20
229.065391
 30
0.0
 10
8.972601
 20
229.187711
 30
0.0
  0
LWPOLYLINE
  5
1c6
100
AcDbEntity
  8
0
 62
7
100
AcDbPolyline
 90
2
 70
0
 10
10.650392
 20
228.966919
 30
0.0
 10
9.193394
 20
228.966919
 30
0.0
  0
SPLINE
  5
1c7
100
AcDbEntity
  8
0
 62
7
100
AcDbSpline
 70
8
 71
3
 72
8
 73
4
 74
0
 40
0
 40
0
 40
0
 40
0
 40
1
 40
1
 40
1
 40
1
 10
8.972601
 20
230.644710
 30
0.0
 10
8.972601
 20
230.767030
 30
0.0
 10
9.071074
 20
230.865502
 30
0.0
 10
9.193394
 20
230.865502
 30
0.0
  0
LWPOLYLINE
  5
1c8
100
AcDbEntity
  8
0
 62
7
100
AcDbPolyline
 90
2
 70
0
 10
8.972601
 20
229.187711
 30
0.0
 10
8.972601
 20
230.644710
 30
0.0
  0
LWPOLYLINE
  5
1c9
100
AcDbEntity
  8
0
 62
7
100
AcDbPolyline
 90
1
 70
1
 10
9.193394
 20
230.865502
 30
0.0
  0
SPLINE
  5
1ca
100
AcDbEntity
  8
0
 62
7
100
AcDbSpline
 70
8
 71
3
 72
8
 73
4
 74
0
 40
0
 40
0
 40
0
 40
0
 40
1
 40
1
 40
1
 40
1
 10
13.118551
 20
230.865502
 30
0.0
 10
13.240870
 20
230.865502
 30
0.0
 10
13.339342
 20
230.767030
 30
0.0
 10
13.339342
 20
230.644710
 30
0.0
  0
LWPOLYLINE
  5
1cb
100
AcDbEntity
  8
0
 62
7
100
AcDbPolyline
 90
2
 70
0
 10
11.661551
 20
230.865502
 30
0.0
 10
13.118551
 20
230.865502
 30
0.0
  0
SPLINE
  5
1cc
100
AcDbEntity
  8
0
 62
7
100
AcDbSpline
 70
8
 71
3
 72
8
 73
4
 74
0
 40
0
 40
0
 40
0
 40
0
 40
1
 40
1
 40
1
 40
1
 10
13.339342
 20
229.187711
 30
0.0
 10
13.339342
 20
229.065391
 30
0.0
 10
13.240870
 20
228.966919
 30
0.0
 10
13.118551
 20
228.966919
 30
0.0
  0
LWPOLYLINE
  5
1cd
100
AcDbEntity
  8
0
 62
7
100
AcDbPolyline
 90
2
 70
0
 10
13.339342
 20
230.644710
 30
0.0
 10
13.339342
 20
229.187711
 30
0.0
  0
SPLINE
  5
1ce
100
AcDbEntity
  8
0
 62
7
100
AcDbSpline
 70
8
 71
3
 72
8
 73
4
 74
0
 40
0
 40
0
 40
0
 40
0
 40
1
 40
1
 40
1
 40
1
 10
11.661551
 20
228.966919
 30
0.0
 10
11.539233
 20
228.966919
 30
0.0
 10
11.440760
 20
229.065391
 30
0.0
 10
11.440760
 20
229.187711
 30
0.0
  0
LWPOLYLINE
  5
1cf
100
AcDbEntity
  8
0
 62
7
100
AcDbPolyline
 90
2
 70
0
 10
13.118551
 20
228.966919
 30
0.0
 10
11.661551
 20
228.966919
 30
0.0
  0
SPLINE
  5
1d0
100
AcDbEntity
  8
0
 62
7
100
AcDbSpline
 70
8
 71
3
 72
8
 73
4
 74
0
 40
0
 40
0
 40
0
 40
0
 40
1
 40
1
 40
1
 40
1
 10
11.440760
 20
230.644710
 30
0.0
 10
11.440760
 20
230.767030
 30
0.0
 10
11.539233
 20
230.865502
 30
0.0
 10
11.661551
 20
230.865502
 30
0.0
  0
LWPOLYLINE
  5
1d1
100
AcDbEntity
  8
0
 62
7
100
AcDbPolyline
 90
2
 70
0
 10
11.440760
 20
229.187711
 30
0.0
 10
11.440760
 20
230.644710
 30
0.0
  0
LWPOLYLINE
  5
1d2
100
AcDbEntity
  8
0
 62
7
100
AcDbPolyline
 90
1
 70
1
 10
11.661551
 20
230.865502
 30
0.0
  0
SPLINE
  5
1d3
100
AcDbEntity
  8
0
 62
7
100
AcDbSpline
 70
8
 71
3
 72
8
 73
4
 74
0
 40
0
 40
0
 40
0
 40
0
 40
1
 40
1
 40
1
 40
1
 10
15.586708
 20
230.865502
 30
0.0
 10
15.709029
 20
230.865502
 30
0.0
 10
15.807501
 20
230.767030
 30
0.0
 10
15.807501
 20
230.644710
 30
0.0
  0
LWPOLYLINE
  5
1d4
100
AcDbEntity
  8
0
 62
7
100
AcDbPolyline
 90
2
 70
0
 10
14.129710
 20
230.865502
 30
0.0
 10
15.586708
 20
230.865502
 30
0.0
  0
SPLINE
  5
1d5
100
AcDbEntity
  8
0
 62
7
100
AcDbSpline
 70
8
 71
3
 72
8
 73
4
 74
0
 40
0
 40
0
 40
0
 40
0
 40
1
 40
1
 40
1
 40
1
 10
15.807501
 20
229.187711
 30
0.0
 10
15.807501
 20
229.065391
 30
0.0
 10
15.709029
 20
228.966919
 30
0.0
 10
15.586708
 20
228.966919
 30
0.0
  0
LWPOLYLINE
  5
1d6
100
AcDbEntity
  8
0
 62
7
100
AcDbPolyline
 90
2
 70
0
 10
15.807501
 20
230.644710
 30
0.0
 10
15.807501
 20
229.187711
 30
0.0
  0
SPLINE
  5
1d7
100
AcDbEntity
  8
0
 62
7
100
AcDbSpline
 70
8
 71
3
 72
8
 73
4
 74
0
 40
0
 40
0
 40
0
 40
0
 40
1
 40
1
 40
1
 40
1
 10
14.129710
 20
228.966919
 30
0.0
 10
14.007391
 20
228.966919
 30
0.0
 10
13.908917
 20
229.065391
 30
0.0
 10
13.908917
 20
229.187711
 30
0.0
  0
LWPOLYLINE
  5
1d8
100
AcDbEntity
  8
0
 62
7
100
AcDbPolyline
 90
2
 70
0
 10
15.586708
 20
228.966919
 30
0.0
 10
14.129710
 20
228.966919
 30
0.0
  0
SPLINE
  5
1d9
100
AcDbEntity
  8
0
 62
7
100
AcDbSpline
 70
8
 71
3
 72
8
 73
4
 74
0
 40
0
 40
0
 40
0
 40
0
 40
1
 40
1
 40
1
 40
1
 10
13.908917
 20
230.644710
 30
0.0
 10
13.908917
 20
230.767030
 30
0.0
 10
14.007391
 20
230.865502
 30
0.0
 10
14.129710
 20
230.865502
 30
0.0
  0
LWPOLYLINE
  5
1da
100
AcDbEntity
  8
0
 62
7
100
AcDbPolyline
 90
2
 70
0
 10
13.908917
 20
229.187711
 30
0.0
 10
13.908917
 20
230.644710
 30
0.0
  0
LWPOLYLINE
  5
1db
100
AcDbEntity
  8
0
 62
7
100
AcDbPolyline
 90
1
 70
1
 10
14.129710
 20
230.865502
 30
0.0
  0
SPLINE
  5
1dc
100
AcDbEntity
  8
0
 62
7
100
AcDbSpline
 70
8
 71
3
 72
8
 73
4
 74
0
 40
0
 40
0
 40
0
 40
0
 40
1
 40
1
 40
1
 40
1
 10
18.054867
 20
230.865502
 30
0.0
 10
18.177185
 20
230.865502
 30
0.0
 10
18.275658
 20
230.767030
 30
0.0
 10
18.275658
 20
230.644710
 30
0.0
  0
LWPOLYLINE
  5
1dd
100
AcDbEntity
  8
0
 62
7
100
AcDbPolyline
 90
2
 70
0
 10
16.597867
 20
230.865502
 30
0.0
 10
18.054867
 20
230.865502
 30
0.0
  0
SPLINE
  5
1de
100
AcDbEntity
  8
0
 62
7
100
AcDbSpline
 70
8
 71
3
 72
8
 73
4
 74
0
 40
0
 40
0
 40
0
 40
0
 40
1
 40
1
 40
1
 40
1
 10
18.275658
 20
229.187711
 30
0.0
 10
18.275658
 20
229.065391
 30
0.0
 10
18.177185
 20
228.966919
 30
0.0
 10
18.054867
 20
228.966919
 30
0.0
  0
LWPOLYLINE
  5
1df
100
AcDbEntity
  8
0
 62
7
100
AcDbPolyline
 90
2
 70
0
 10
18.275658
 20
230.644710
 30
0.0
 10
18.275658
 20
229.187711
 30
0.0
  0
SPLINE
  5
1e0
100
AcDbEntity
  8
0
 62
7
100
AcDbSpline
 70
8
 71
3
 72
8
 73
4
 74
0
 40
0
 40
0
 40
0
 40
0
 40
1
 40
1
 40
1
 40
1
 10
16.597867
 20
228.966919
 30
0.0
 10
16.475549
 20
228.966919
 30
0.0
 10
16.377076
 20
229.065391
 30
0.0
 10
16.377076
 20
229.187711
 30
0.0
  0
LWPOLYLINE
  5
1e1
100
AcDbEntity
  8
0
 62
7
100
AcDbPolyline
 90
2
 70
0
 10
18.054867
 20
228.966919
 30
0.0
 10
16.597867
 20
228.966919
 30
0.0
  0
SPLINE
  5
1e2
100
AcDbEntity
  8
0
 62
7
100
AcDbSpline
 70
8
 71
3
 72
8
 73
4
 74
0
 40
0
 40
0
 40
0
 40
0
 40
1
 40
1
 40
1
 40
1
 10
16.377076
 20
230.644710
 30
0.0
 10
16.377076
 20
230.767030
 30
0.0
 10
16.475549
 20
230.865502
 30
0.0
 10
16.597867
 20
230.865502
 30
0.0
  0
LWPOLYLINE
  5
1e3
100
AcDbEntity
  8
0
 62
7
100
AcDbPolyline
 90
2
 70
0
 10
16.377076
 20
229.187711
 30
0.0
 10
16.377076
 20
230.644710
 30
0.0
  0
LWPOLYLINE
  5
1e4
100
AcDbEntity
  8
0
 62
7
100
AcDbPolyline
 90
1
 70
1
 10
16.597867
 20
230.865502
 30
0.0
  0
SPLINE
  5
1e5
100
AcDbEntity
  8
0
 62
7
100
AcDbSpline
 70
8
 71
3
 72
8
 73
4
 74
0
 40
0
 40
0
 40
0
 40
0
 40
1
 40
1
 40
1
 40
1
 10
8.116515
 20
230.865502
 30
0.0
 10
8.238833
 20
230.865502
 30
0.0
 10
8.337308
 20
230.767030
 30
0.0
 10
8.337308
 20
230.644710
 30
0.0
  0
LWPOLYLINE
  5
1e6
100
AcDbEntity
  8
0
 62
7
100
AcDbPolyline
 90
2
 70
0
 10
6.659517
 20
230.865502
 30
0.0
 10
8.116515
 20
230.865502
 30
0.0
  0
SPLINE
  5
1e7
100
AcDbEntity
  8
0
 62
7
100
AcDbSpline
 70
8
 71
3
 72
8
 73
4
 74
0
 40
0
 40
0
 40
0
 40
0
 40
1
 40
1
 40
1
 40
1
 10
8.337308
 20
229.187711
 30
0.0
 10
8.337308
 20
229.065391
 30
0.0
 10
8.238833
 20
228.966919
 30
0.0
 10
8.116515
 20
228.966919
 30
0.0
  0
LWPOLYLINE
  5
1e8
100
AcDbEntity
  8
0
 62
7
100
AcDbPolyline
 90
2
 70
0
 10
8.337308
 20
230.644710
 30
0.0
 10
8.337308
 20
229.187711
 30
0.0
  0
SPLINE
  5
1e9
100
AcDbEntity
  8
0
 62
7
100
AcDbSpline
 70
8
 71
3
 72
8
 73
4
 74
0
 40
0
 40
0
 40
0
 40
0
 40
1
 40
1
 40
1
 40
1
 10
6.659517
 20
228.966919
 30
0.0
 10
6.537196
 20
228.966919
 30
0.0
 10
6.438723
 20
229.065391
 30
0.0
 10
6.438723
 20
229.187711
 30
0.0
  0
LWPOLYLINE
  5
1ea
100
AcDbEntity
  8
0
 62
7
100
AcDbPolyline
 90
2
 70
0
 10
8.116515
 20
228.966919
 30
0.0
 10
6.659517
 20
228.966919
 30
0.0
  0
SPLINE
  5
1eb
100
AcDbEntity
  8
0
 62
7
100
AcDbSpline
 70
8
 71
3
 72
8
 73
4
 74
0
 40
0
 40
0
 40
0
 40
0
 40
1
 40
1
 40
1
 40
1
 10
6.438723
 20
230.644710
 30
0.0
 10
6.438723
 20
230.767030
 30
0.0
 10
6.537196
 20
230.865502
 30
0.0
 10
6.659517
 20
230.865502
 30
0.0
  0
LWPOLYLINE
  5
1ec
100
AcDbEntity
  8
0
 62
7
100
AcDbPolyline
 90
2
 70
0
 10
6.438723
 20
229.187711
 30
0.0
 10
6.438723
 20
230.644710
 30
0.0
  0
LWPOLYLINE
  5
1ed
100
AcDbEntity
  8
0
 62
7
100
AcDbPolyline
 90
1
 70
1
 10
6.659517
 20
230.865502
 30
0.0
  0
SPLINE
  5
1ee
100
AcDbEntity
  8
0
 62
7
100
AcDbSpline
 70
8
 71
3
 72
8
 73
4
 74
0
 40
0
 40
0
 40
0
 40
0
 40
1
 40
1
 40
1
 40
1
 10
26.241359
 20
235.626574
 30
0.0
 10
26.159139
 20
235.609270
 30
0.0
 10
26.099637
 20
235.589798
 30
0.0
 10
26.062855
 20
235.568156
 30
0.0
  0
SPLINE
  5
1ef
100
AcDbEntity
  8
0
 62
7
100
AcDbSpline
 70
8
 71
3
 72
8
 73
4
 74
0
 40
0
 40
0
 40
0
 40
0
 40
1
 40
1
 40
1
 40
1
 10
26.062855
 20
235.568156
 30
0.0
 10
26.028237
 20
235.546519
 30
0.0
 10
25.995783
 20
235.514063
 30
0.0
 10
25.965494
 20
235.470790
 30
0.0
  0
SPLINE
  5
1f0
100
AcDbEntity
  8
0
 62
7
100
AcDbSpline
 70
8
 71
3
 72
8
 73
4
 74
0
 40
0
 40
0
 40
0
 40
0
 40
1
 40
1
 40
1
 40
1
 10
25.965494
 20
235.470790
 30
0.0
 10
25.937365
 20
235.427518
 30
0.0
 10
25.908155
 20
235.359363
 30
0.0
 10
25.877864
 20
235.266325
 30
0.0
  0
SPLINE
  5
1f1
100
AcDbEntity
  8
0
 62
7
100
AcDbSpline
 70
8
 71
3
 72
8
 73
4
 74
0
 40
0
 40
0
 40
0
 40
0
 40
1
 40
1
 40
1
 40
1
 10
25.877864
 20
235.266325
 30
0.0
 10
25.849735
 20
235.175451
 30
0.0
 10
25.812952
 20
235.026159
 30
0.0
 10
25.767514
 20
234.818449
 30
0.0
  0
LWPOLYLINE
  5
1f2
100
AcDbEntity
  8
0
 62
7
100
AcDbPolyline
 90
3
 70
0
 10
25.254731
 20
235.785604
 30
0.0
 10
26.277056
 20
235.785604
 30
0.0
 10
26.241359
 20
235.626574
 30
0.0
  0
SPLINE
  5
1f3
100
AcDbEntity
  8
0
 62
7
100
AcDbSpline
 70
8
 71
3
 72
8
 73
4
 74
0
 40
0
 40
0
 40
0
 40
0
 40
1
 40
1
 40
1
 40
1
 10
25.212538
 20
232.299954
 30
0.0
 10
25.184411
 20
232.172298
 30
0.0
 10
25.166020
 20
232.070606
 30
0.0
 10
25.157365
 20
231.994876
 30
0.0
  0
SPLINE
  5
1f4
100
AcDbEntity
  8
0
 62
7
100
AcDbSpline
 70
8
 71
3
 72
8
 73
4
 74
0
 40
0
 40
0
 40
0
 40
0
 40
1
 40
1
 40
1
 40
1
 10
25.157365
 20
231.994876
 30
0.0
 10
25.148712
 20
231.921313
 30
0.0
 10
25.144385
 20
231.854241
 30
0.0
 10
25.144385
 20
231.793658
 30
0.0
  0
SPLINE
  5
1f5
100
AcDbEntity
  8
0
 62
7
100
AcDbSpline
 70
8
 71
3
 72
8
 73
4
 74
0
 40
0
 40
0
 40
0
 40
0
 40
1
 40
1
 40
1
 40
1
 10
25.144385
 20
231.793658
 30
0.0
 10
25.144385
 20
231.696293
 30
0.0
 10
25.168185
 20
231.627056
 30
0.0
 10
25.215786
 20
231.585947
 30
0.0
  0
SPLINE
  5
1f6
100
AcDbEntity
  8
0
 62
7
100
AcDbSpline
 70
8
 71
3
 72
8
 73
4
 74
0
 40
0
 40
0
 40
0
 40
0
 40
1
 40
1
 40
1
 40
1
 10
25.215786
 20
231.585947
 30
0.0
 10
25.265550
 20
231.547002
 30
0.0
 10
25.347769
 20
231.523202
 30
0.0
 10
25.462442
 20
231.514547
 30
0.0
  0
LWPOLYLINE
  5
1f7
100
AcDbEntity
  8
0
 62
7
100
AcDbPolyline
 90
2
 70
0
 10
25.767514
 20
234.818449
 30
0.0
 10
25.212538
 20
232.299954
 30
0.0
  0
SPLINE
  5
1f8
100
AcDbEntity
  8
0
 62
7
100
AcDbSpline
 70
8
 71
3
 72
8
 73
4
 74
0
 40
0
 40
0
 40
0
 40
0
 40
1
 40
1
 40
1
 40
1
 10
24.164250
 20
231.514547
 30
0.0
 10
24.246469
 20
231.527529
 30
0.0
 10
24.308132
 20
231.548083
 30
0.0
 10
24.349240
 20
231.576210
 30
0.0
  0
SPLINE
  5
1f9
100
AcDbEntity
  8
0
 62
7
100
AcDbSpline
 70
8
 71
3
 72
8
 73
4
 74
0
 40
0
 40
0
 40
0
 40
0
 40
1
 40
1
 40
1
 40
1
 10
24.349240
 20
231.576210
 30
0.0
 10
24.390351
 20
231.606502
 30
0.0
 10
24.424970
 20
231.647611
 30
0.0
 10
24.453096
 20
231.699538
 30
0.0
  0
SPLINE
  5
1fa
100
AcDbEntity
  8
0
 62
7
100
AcDbSpline
 70
8
 71
3
 72
8
 73
4
 74
0
 40
0
 40
0
 40
0
 40
0
 40
1
 40
1
 40
1
 40
1
 10
24.453096
 20
231.699538
 30
0.0
 10
24.481223
 20
231.751467
 30
0.0
 10
24.507187
 20
231.814213
 30
0.0
 10
24.530988
 20
231.887776
 30
0.0
  0
SPLINE
  5
1fb
100
AcDbEntity
  8
0
 62
7
100
AcDbSpline
 70
8
 71
3
 72
8
 73
4
 74
0
 40
0
 40
0
 40
0
 40
0
 40
1
 40
1
 40
1
 40
1
 10
24.530988
 20
231.887776
 30
0.0
 10
24.554787
 20
231.963505
 30
0.0
 10
24.590487
 20
232.108470
 30
0.0
 10
24.638089
 20
232.322671
 30
0.0
  0
LWPOLYLINE
  5
1fc
100
AcDbEntity
  8
0
 62
7
100
AcDbPolyline
 90
4
 70
0
 10
25.462442
 20
231.514547
 30
0.0
 10
25.426744
 20
231.355519
 30
0.0
 10
24.128546
 20
231.355519
 30
0.0
 10
24.164250
 20
231.514547
 30
0.0
  0
SPLINE
  5
1fd
100
AcDbEntity
  8
0
 62
7
100
AcDbSpline
 70
8
 71
3
 72
8
 73
4
 74
0
 40
0
 40
0
 40
0
 40
0
 40
1
 40
1
 40
1
 40
1
 10
25.069738
 20
234.279699
 30
0.0
 10
25.125994
 20
234.537174
 30
0.0
 10
25.197395
 20
234.813041
 30
0.0
 10
25.283941
 20
235.107300
 30
0.0
  0
LWPOLYLINE
  5
1fe
100
AcDbEntity
  8
0
 62
7
100
AcDbPolyline
 90
2
 70
0
 10
24.638089
 20
232.322671
 30
0.0
 10
25.069738
 20
234.279699
 30
0.0
  0
SPLINE
  5
1ff
100
AcDbEntity
  8
0
 62
7
100
AcDbSpline
 70
8
 71
3
 72
8
 73
4
 74
0
 40
0
 40
0
 40
0
 40
0
 40
1
 40
1
 40
1
 40
1
 10
25.238504
 20
235.107300
 30
0.0
 10
25.175758
 20
234.990462
 30
0.0
 10
25.113013
 20
234.877950
 30
0.0
 10
25.050269
 20
234.769766
 30
0.0
  0
SPLINE
  5
200
100
AcDbEntity
  8
0
 62
7
100
AcDbSpline
 70
8
 71
3
 72
8
 73
4
 74
0
 40
0
 40
0
 40
0
 40
0
 40
1
 40
1
 40
1
 40
1
 10
25.050269
 20
234.769766
 30
0.0
 10
24.989684
 20
234.663747
 30
0.0
 10
24.898810
 20
234.510128
 30
0.0
 10
24.777644
 20
234.308909
 30
0.0
  0
LWPOLYLINE
  5
201
100
AcDbEntity
  8
0
 62
7
100
AcDbPolyline
 90
2
 70
0
 10
25.283941
 20
235.107300
 30
0.0
 10
25.238504
 20
235.107300
 30
0.0
  0
SPLINE
  5
202
100
AcDbEntity
  8
0
 62
7
100
AcDbSpline
 70
8
 71
3
 72
8
 73
4
 74
0
 40
0
 40
0
 40
0
 40
0
 40
1
 40
1
 40
1
 40
1
 10
22.483088
 20
235.178698
 30
0.0
 10
22.400869
 20
234.635621
 30
0.0
 10
22.318650
 20
234.175844
 30
0.0
 10
22.236432
 20
233.799367
 30
0.0
  0
LWPOLYLINE
  5
203
100
AcDbEntity
  8
0
 62
7
100
AcDbPolyline
 90
6
 70
0
 10
24.777644
 20
234.308909
 30
0.0
 10
23.300950
 20
231.871549
 30
0.0
 10
22.947192
 20
231.871549
 30
0.0
 10
22.635625
 20
234.305663
 30
0.0
 10
22.547998
 20
235.178698
 30
0.0
 10
22.483088
 20
235.178698
 30
0.0
  0
SPLINE
  5
204
100
AcDbEntity
  8
0
 62
7
100
AcDbSpline
 70
8
 71
3
 72
8
 73
4
 74
0
 40
0
 40
0
 40
0
 40
0
 40
1
 40
1
 40
1
 40
1
 10
21.924864
 20
232.384335
 30
0.0
 10
21.888082
 20
232.219898
 30
0.0
 10
21.864282
 20
232.097652
 30
0.0
 10
21.853464
 20
232.017596
 30
0.0
  0
SPLINE
  5
205
100
AcDbEntity
  8
0
 62
7
100
AcDbSpline
 70
8
 71
3
 72
8
 73
4
 74
0
 40
0
 40
0
 40
0
 40
0
 40
1
 40
1
 40
1
 40
1
 10
21.853464
 20
232.017596
 30
0.0
 10
21.842645
 20
231.937540
 30
0.0
 10
21.837235
 20
231.862894
 30
0.0
 10
21.837235
 20
231.793658
 30
0.0
  0
SPLINE
  5
206
100
AcDbEntity
  8
0
 62
7
100
AcDbSpline
 70
8
 71
3
 72
8
 73
4
 74
0
 40
0
 40
0
 40
0
 40
0
 40
1
 40
1
 40
1
 40
1
 10
21.837235
 20
231.793658
 30
0.0
 10
21.837235
 20
231.696293
 30
0.0
 10
21.861034
 20
231.627056
 30
0.0
 10
21.908633
 20
231.585947
 30
0.0
  0
SPLINE
  5
207
100
AcDbEntity
  8
0
 62
7
100
AcDbSpline
 70
8
 71
3
 72
8
 73
4
 74
0
 40
0
 40
0
 40
0
 40
0
 40
1
 40
1
 40
1
 40
1
 10
21.908633
 20
231.585947
 30
0.0
 10
21.958398
 20
231.547002
 30
0.0
 10
22.040618
 20
231.523202
 30
0.0
 10
22.155292
 20
231.514547
 30
0.0
  0
LWPOLYLINE
  5
208
100
AcDbEntity
  8
0
 62
7
100
AcDbPolyline
 90
2
 70
0
 10
22.236432
 20
233.799367
 30
0.0
 10
21.924864
 20
232.384335
 30
0.0
  0
SPLINE
  5
209
100
AcDbEntity
  8
0
 62
7
100
AcDbSpline
 70
8
 71
3
 72
8
 73
4
 74
0
 40
0
 40
0
 40
0
 40
0
 40
1
 40
1
 40
1
 40
1
 10
21.019373
 20
231.514547
 30
0.0
 10
21.101591
 20
231.527529
 30
0.0
 10
21.163255
 20
231.548083
 30
0.0
 10
21.204363
 20
231.576210
 30
0.0
  0
SPLINE
  5
20a
100
AcDbEntity
  8
0
 62
7
100
AcDbSpline
 70
8
 71
3
 72
8
 73
4
 74
0
 40
0
 40
0
 40
0
 40
0
 40
1
 40
1
 40
1
 40
1
 10
21.204363
 20
231.576210
 30
0.0
 10
21.245475
 20
231.606502
 30
0.0
 10
21.280093
 20
231.647611
 30
0.0
 10
21.308220
 20
231.699538
 30
0.0
  0
SPLINE
  5
20b
100
AcDbEntity
  8
0
 62
7
100
AcDbSpline
 70
8
 71
3
 72
8
 73
4
 74
0
 40
0
 40
0
 40
0
 40
0
 40
1
 40
1
 40
1
 40
1
 10
21.308220
 20
231.699538
 30
0.0
 10
21.336347
 20
231.751467
 30
0.0
 10
21.362311
 20
231.814213
 30
0.0
 10
21.386112
 20
231.887776
 30
0.0
  0
SPLINE
  5
20c
100
AcDbEntity
  8
0
 62
7
100
AcDbSpline
 70
8
 71
3
 72
8
 73
4
 74
0
 40
0
 40
0
 40
0
 40
0
 40
1
 40
1
 40
1
 40
1
 10
21.386112
 20
231.887776
 30
0.0
 10
21.409911
 20
231.963505
 30
0.0
 10
21.445611
 20
232.108470
 30
0.0
 10
21.493212
 20
232.322671
 30
0.0
  0
LWPOLYLINE
  5
20d
100
AcDbEntity
  8
0
 62
7
100
AcDbPolyline
 90
4
 70
0
 10
22.155292
 20
231.514547
 30
0.0
 10
22.119593
 20
231.355519
 30
0.0
 10
20.983672
 20
231.355519
 30
0.0
 10
21.019373
 20
231.514547
 30
0.0
  0
SPLINE
  5
20e
100
AcDbEntity
  8
0
 62
7
100
AcDbSpline
 70
8
 71
3
 72
8
 73
4
 74
0
 40
0
 40
0
 40
0
 40
0
 40
1
 40
1
 40
1
 40
1
 10
22.044945
 20
234.821693
 30
0.0
 10
22.066582
 20
234.914731
 30
0.0
 10
22.083891
 20
235.003441
 30
0.0
 10
22.096873
 20
235.087824
 30
0.0
  0
SPLINE
  5
20f
100
AcDbEntity
  8
0
 62
7
100
AcDbSpline
 70
8
 71
3
 72
8
 73
4
 74
0
 40
0
 40
0
 40
0
 40
0
 40
1
 40
1
 40
1
 40
1
 10
22.096873
 20
235.087824
 30
0.0
 10
22.109855
 20
235.172208
 30
0.0
 10
22.116346
 20
235.257672
 30
0.0
 10
22.116346
 20
235.344216
 30
0.0
  0
SPLINE
  5
210
100
AcDbEntity
  8
0
 62
7
100
AcDbSpline
 70
8
 71
3
 72
8
 73
4
 74
0
 40
0
 40
0
 40
0
 40
0
 40
1
 40
1
 40
1
 40
1
 10
22.116346
 20
235.344216
 30
0.0
 10
22.116346
 20
235.445909
 30
0.0
 10
22.090382
 20
235.516228
 30
0.0
 10
22.038455
 20
235.555173
 30
0.0
  0
SPLINE
  5
211
100
AcDbEntity
  8
0
 62
7
100
AcDbSpline
 70
8
 71
3
 72
8
 73
4
 74
0
 40
0
 40
0
 40
0
 40
0
 40
1
 40
1
 40
1
 40
1
 10
22.038455
 20
235.555173
 30
0.0
 10
21.986526
 20
235.596284
 30
0.0
 10
21.906470
 20
235.620085
 30
0.0
 10
21.798288
 20
235.626574
 30
0.0
  0
LWPOLYLINE
  5
212
100
AcDbEntity
  8
0
 62
7
100
AcDbPolyline
 90
2
 70
0
 10
21.493212
 20
232.322671
 30
0.0
 10
22.044945
 20
234.821693
 30
0.0
  0
LWPOLYLINE
  5
213
100
AcDbEntity
  8
0
 62
7
100
AcDbPolyline
 90
5
 70
0
 10
21.798288
 20
235.626574
 30
0.0
 10
21.833988
 20
235.785604
 30
0.0
 10
22.992626
 20
235.785604
 30
0.0
 10
23.362611
 20
232.637483
 30
0.0
 10
25.254731
 20
235.785604
 30
0.0
  0
SPLINE
  5
214
100
AcDbEntity
  8
0
 62
7
100
AcDbSpline
 70
8
 71
3
 72
8
 73
4
 74
0
 40
0
 40
0
 40
0
 40
0
 40
1
 40
1
 40
1
 40
1
 10
28.834499
 20
232.257761
 30
0.0
 10
28.804209
 20
232.127942
 30
0.0
 10
28.783655
 20
232.027333
 30
0.0
 10
28.772835
 20
231.955932
 30
0.0
  0
SPLINE
  5
215
100
AcDbEntity
  8
0
 62
7
100
AcDbSpline
 70
8
 71
3
 72
8
 73
4
 74
0
 40
0
 40
0
 40
0
 40
0
 40
1
 40
1
 40
1
 40
1
 10
28.772835
 20
231.955932
 30
0.0
 10
28.762005
 20
231.886696
 30
0.0
 10
28.756589
 20
231.829359
 30
0.0
 10
28.756589
 20
231.783922
 30
0.0
  0
SPLINE
  5
216
100
AcDbEntity
  8
0
 62
7
100
AcDbSpline
 70
8
 71
3
 72
8
 73
4
 74
0
 40
0
 40
0
 40
0
 40
0
 40
1
 40
1
 40
1
 40
1
 10
28.756589
 20
231.783922
 30
0.0
 10
28.756589
 20
231.695210
 30
0.0
 10
28.781471
 20
231.630300
 30
0.0
 10
28.831234
 20
231.589191
 30
0.0
  0
SPLINE
  5
217
100
AcDbEntity
  8
0
 62
7
100
AcDbSpline
 70
8
 71
3
 72
8
 73
4
 74
0
 40
0
 40
0
 40
0
 40
0
 40
1
 40
1
 40
1
 40
1
 10
28.831234
 20
231.589191
 30
0.0
 10
28.880998
 20
231.550244
 30
0.0
 10
28.976200
 20
231.525363
 30
0.0
 10
29.116838
 20
231.514547
 30
0.0
  0
LWPOLYLINE
  5
218
100
AcDbEntity
  8
0
 62
7
100
AcDbPolyline
 90
4
 70
0
 10
28.824765
 20
234.299172
 30
0.0
 10
29.123350
 20
234.513374
 30
0.0
 10
29.331061
 20
234.461444
 30
0.0
 10
28.834499
 20
232.257761
 30
0.0
  0
SPLINE
  5
219
100
AcDbEntity
  8
0
 62
7
100
AcDbSpline
 70
8
 71
3
 72
8
 73
4
 74
0
 40
0
 40
0
 40
0
 40
0
 40
1
 40
1
 40
1
 40
1
 10
28.321694
 20
232.183125
 30
0.0
 10
28.113984
 20
231.880216
 30
0.0
 10
27.917092
 20
231.658442
 30
0.0
 10
27.731019
 20
231.517804
 30
0.0
  0
SPLINE
  5
21a
100
AcDbEntity
  8
0
 62
7
100
AcDbSpline
 70
8
 71
3
 72
8
 73
4
 74
0
 40
0
 40
0
 40
0
 40
0
 40
1
 40
1
 40
1
 40
1
 10
27.731019
 20
231.517804
 30
0.0
 10
27.544943
 20
231.377165
 30
0.0
 10
27.348049
 20
231.306846
 30
0.0
 10
27.140337
 20
231.306846
 30
0.0
  0
SPLINE
  5
21b
100
AcDbEntity
  8
0
 62
7
100
AcDbSpline
 70
8
 71
3
 72
8
 73
4
 74
0
 40
0
 40
0
 40
0
 40
0
 40
1
 40
1
 40
1
 40
1
 10
27.140337
 20
231.306846
 30
0.0
 10
26.902336
 20
231.306846
 30
0.0
 10
26.717343
 20
231.396638
 30
0.0
 10
26.585360
 20
231.576221
 30
0.0
  0
SPLINE
  5
21c
100
AcDbEntity
  8
0
 62
7
100
AcDbSpline
 70
8
 71
3
 72
8
 73
4
 74
0
 40
0
 40
0
 40
0
 40
0
 40
1
 40
1
 40
1
 40
1
 10
26.585360
 20
231.576221
 30
0.0
 10
26.455539
 20
231.755806
 30
0.0
 10
26.390629
 20
232.007872
 30
0.0
 10
26.390629
 20
232.332419
 30
0.0
  0
SPLINE
  5
21d
100
AcDbEntity
  8
0
 62
7
100
AcDbSpline
 70
8
 71
3
 72
8
 73
4
 74
0
 40
0
 40
0
 40
0
 40
0
 40
1
 40
1
 40
1
 40
1
 10
26.390629
 20
232.332419
 30
0.0
 10
26.390629
 20
232.540129
 30
0.0
 10
26.414431
 20
232.747840
 30
0.0
 10
26.462035
 20
232.955552
 30
0.0
  0
SPLINE
  5
21e
100
AcDbEntity
  8
0
 62
7
100
AcDbSpline
 70
8
 71
3
 72
8
 73
4
 74
0
 40
0
 40
0
 40
0
 40
0
 40
1
 40
1
 40
1
 40
1
 10
26.462035
 20
232.955552
 30
0.0
 10
26.509634
 20
233.165427
 30
0.0
 10
26.581034
 20
233.363400
 30
0.0
 10
26.676237
 20
233.549473
 30
0.0
  0
SPLINE
  5
21f
100
AcDbEntity
  8
0
 62
7
100
AcDbSpline
 70
8
 71
3
 72
8
 73
4
 74
0
 40
0
 40
0
 40
0
 40
0
 40
1
 40
1
 40
1
 40
1
 10
26.676237
 20
233.549473
 30
0.0
 10
26.773598
 20
233.737712
 30
0.0
 10
26.889353
 20
233.903232
 30
0.0
 10
27.023502
 20
234.046035
 30
0.0
  0
SPLINE
  5
220
100
AcDbEntity
  8
0
 62
7
100
AcDbSpline
 70
8
 71
3
 72
8
 73
4
 74
0
 40
0
 40
0
 40
0
 40
0
 40
1
 40
1
 40
1
 40
1
 10
27.023502
 20
234.046035
 30
0.0
 10
27.157648
 20
234.188836
 30
0.0
 10
27.312348
 20
234.302428
 30
0.0
 10
27.487603
 20
234.386810
 30
0.0
  0
SPLINE
  5
221
100
AcDbEntity
  8
0
 62
7
100
AcDbSpline
 70
8
 71
3
 72
8
 73
4
 74
0
 40
0
 40
0
 40
0
 40
0
 40
1
 40
1
 40
1
 40
1
 10
27.487603
 20
234.386810
 30
0.0
 10
27.665024
 20
234.471193
 30
0.0
 10
27.857589
 20
234.513384
 30
0.0
 10
28.065299
 20
234.513384
 30
0.0
  0
SPLINE
  5
222
100
AcDbEntity
  8
0
 62
7
100
AcDbSpline
 70
8
 71
3
 72
8
 73
4
 74
0
 40
0
 40
0
 40
0
 40
0
 40
1
 40
1
 40
1
 40
1
 10
28.065299
 20
234.513384
 30
0.0
 10
28.199447
 20
234.513384
 30
0.0
 10
28.327103
 20
234.497158
 30
0.0
 10
28.448268
 20
234.464704
 30
0.0
  0
SPLINE
  5
223
100
AcDbEntity
  8
0
 62
7
100
AcDbSpline
 70
8
 71
3
 72
8
 73
4
 74
0
 40
0
 40
0
 40
0
 40
0
 40
1
 40
1
 40
1
 40
1
 10
28.448268
 20
234.464704
 30
0.0
 10
28.569433
 20
234.434411
 30
0.0
 10
28.694925
 20
234.379237
 30
0.0
 10
28.824743
 20
234.299183
 30
0.0
  0
LWPOLYLINE
  5
224
100
AcDbEntity
  8
0
 62
7
100
AcDbPolyline
 90
5
 70
0
 10
29.116838
 20
231.514547
 30
0.0
 10
29.087628
 20
231.355519
 30
0.0
 10
28.159420
 20
231.355519
 30
0.0
 10
28.363887
 20
232.170134
 30
0.0
 10
28.321694
 20
232.183125
 30
0.0
  0
SPLINE
  5
225
100
AcDbEntity
  8
0
 62
7
100
AcDbSpline
 70
8
 71
3
 72
8
 73
4
 74
0
 40
0
 40
0
 40
0
 40
0
 40
1
 40
1
 40
1
 40
1
 10
28.539163
 20
233.332020
 30
0.0
 10
28.558634
 20
233.420729
 30
0.0
 10
28.571617
 20
233.497538
 30
0.0
 10
28.578109
 20
233.562445
 30
0.0
  0
SPLINE
  5
226
100
AcDbEntity
  8
0
 62
7
100
AcDbSpline
 70
8
 71
3
 72
8
 73
4
 74
0
 40
0
 40
0
 40
0
 40
0
 40
1
 40
1
 40
1
 40
1
 10
28.578109
 20
233.562445
 30
0.0
 10
28.584583
 20
233.627357
 30
0.0
 10
28.587820
 20
233.697676
 30
0.0
 10
28.587820
 20
233.773403
 30
0.0
  0
SPLINE
  5
227
100
AcDbEntity
  8
0
 62
7
100
AcDbSpline
 70
8
 71
3
 72
8
 73
4
 74
0
 40
0
 40
0
 40
0
 40
0
 40
1
 40
1
 40
1
 40
1
 10
28.587820
 20
233.773403
 30
0.0
 10
28.587820
 20
233.942168
 30
0.0
 10
28.552119
 20
234.064415
 30
0.0
 10
28.480719
 20
234.140142
 30
0.0
  0
SPLINE
  5
228
100
AcDbEntity
  8
0
 62
7
100
AcDbSpline
 70
8
 71
3
 72
8
 73
4
 74
0
 40
0
 40
0
 40
0
 40
0
 40
1
 40
1
 40
1
 40
1
 10
28.480719
 20
234.140142
 30
0.0
 10
28.409319
 20
234.218035
 30
0.0
 10
28.290317
 20
234.256982
 30
0.0
 10
28.123714
 20
234.256982
 30
0.0
  0
SPLINE
  5
229
100
AcDbEntity
  8
0
 62
7
100
AcDbSpline
 70
8
 71
3
 72
8
 73
4
 74
0
 40
0
 40
0
 40
0
 40
0
 40
1
 40
1
 40
1
 40
1
 10
28.123714
 20
234.256982
 30
0.0
 10
28.032840
 20
234.256982
 30
0.0
 10
27.946294
 20
234.241836
 30
0.0
 10
27.864076
 20
234.211545
 30
0.0
  0
SPLINE
  5
22a
100
AcDbEntity
  8
0
 62
7
100
AcDbSpline
 70
8
 71
3
 72
8
 73
4
 74
0
 40
0
 40
0
 40
0
 40
0
 40
1
 40
1
 40
1
 40
1
 10
27.864076
 20
234.211545
 30
0.0
 10
27.781857
 20
234.183416
 30
0.0
 10
27.698558
 20
234.134734
 30
0.0
 10
27.614177
 20
234.065498
 30
0.0
  0
SPLINE
  5
22b
100
AcDbEntity
  8
0
 62
7
100
AcDbSpline
 70
8
 71
3
 72
8
 73
4
 74
0
 40
0
 40
0
 40
0
 40
0
 40
1
 40
1
 40
1
 40
1
 10
27.614177
 20
234.065498
 30
0.0
 10
27.529791
 20
233.998424
 30
0.0
 10
27.448653
 20
233.909714
 30
0.0
 10
27.370763
 20
233.799367
 30
0.0
  0
SPLINE
  5
22c
100
AcDbEntity
  8
0
 62
7
100
AcDbSpline
 70
8
 71
3
 72
8
 73
4
 74
0
 40
0
 40
0
 40
0
 40
0
 40
1
 40
1
 40
1
 40
1
 10
27.370763
 20
233.799367
 30
0.0
 10
27.295036
 20
233.689021
 30
0.0
 10
27.225799
 20
233.554875
 30
0.0
 10
27.163054
 20
233.396927
 30
0.0
  0
SPLINE
  5
22d
100
AcDbEntity
  8
0
 62
7
100
AcDbSpline
 70
8
 71
3
 72
8
 73
4
 74
0
 40
0
 40
0
 40
0
 40
0
 40
1
 40
1
 40
1
 40
1
 10
27.163054
 20
233.396927
 30
0.0
 10
27.100306
 20
233.238980
 30
0.0
 10
27.051622
 20
233.069132
 30
0.0
 10
27.017004
 20
232.887385
 30
0.0
  0
SPLINE
  5
22e
100
AcDbEntity
  8
0
 62
7
100
AcDbSpline
 70
8
 71
3
 72
8
 73
4
 74
0
 40
0
 40
0
 40
0
 40
0
 40
1
 40
1
 40
1
 40
1
 10
27.017004
 20
232.887385
 30
0.0
 10
26.982386
 20
232.707803
 30
0.0
 10
26.965077
 20
232.532548
 30
0.0
 10
26.965077
 20
232.361618
 30
0.0
  0
SPLINE
  5
22f
100
AcDbEntity
  8
0
 62
7
100
AcDbSpline
 70
8
 71
3
 72
8
 73
4
 74
0
 40
0
 40
0
 40
0
 40
0
 40
1
 40
1
 40
1
 40
1
 10
26.965077
 20
232.361618
 30
0.0
 10
26.965077
 20
232.136597
 30
0.0
 10
26.995368
 20
231.967832
 30
0.0
 10
27.055951
 20
231.855322
 30
0.0
  0
SPLINE
  5
230
100
AcDbEntity
  8
0
 62
7
100
AcDbSpline
 70
8
 71
3
 72
8
 73
4
 74
0
 40
0
 40
0
 40
0
 40
0
 40
1
 40
1
 40
1
 40
1
 10
27.055951
 20
231.855322
 30
0.0
 10
27.118696
 20
231.744977
 30
0.0
 10
27.222551
 20
231.689804
 30
0.0
 10
27.367516
 20
231.689804
 30
0.0
  0
SPLINE
  5
231
100
AcDbEntity
  8
0
 62
7
100
AcDbSpline
 70
8
 71
3
 72
8
 73
4
 74
0
 40
0
 40
0
 40
0
 40
0
 40
1
 40
1
 40
1
 40
1
 10
27.367516
 20
231.689804
 30
0.0
 10
27.434590
 20
231.689804
 30
0.0
 10
27.503826
 20
231.704949
 30
0.0
 10
27.575225
 20
231.735238
 30
0.0
  0
SPLINE
  5
232
100
AcDbEntity
  8
0
 62
7
100
AcDbSpline
 70
8
 71
3
 72
8
 73
4
 74
0
 40
0
 40
0
 40
0
 40
0
 40
1
 40
1
 40
1
 40
1
 10
27.575225
 20
231.735238
 30
0.0
 10
27.648793
 20
231.765529
 30
0.0
 10
27.729931
 20
231.820703
 30
0.0
 10
27.818639
 20
231.900759
 30
0.0
  0
SPLINE
  5
233
100
AcDbEntity
  8
0
 62
7
100
AcDbSpline
 70
8
 71
3
 72
8
 73
4
 74
0
 40
0
 40
0
 40
0
 40
0
 40
1
 40
1
 40
1
 40
1
 10
27.818639
 20
231.900759
 30
0.0
 10
27.907348
 20
231.982977
 30
0.0
 10
28.007958
 20
232.103060
 30
0.0
 10
28.120468
 20
232.261008
 30
0.0
  0
SPLINE
  5
234
100
AcDbEntity
  8
0
 62
7
100
AcDbSpline
 70
8
 71
3
 72
8
 73
4
 74
0
 40
0
 40
0
 40
0
 40
0
 40
1
 40
1
 40
1
 40
1
 10
28.120468
 20
232.261008
 30
0.0
 10
28.222161
 20
232.405973
 30
0.0
 10
28.302217
 20
232.548775
 30
0.0
 10
28.360635
 20
232.689413
 30
0.0
  0
SPLINE
  5
235
100
AcDbEntity
  8
0
 62
7
100
AcDbSpline
 70
8
 71
3
 72
8
 73
4
 74
0
 40
0
 40
0
 40
0
 40
0
 40
1
 40
1
 40
1
 40
1
 10
28.360635
 20
232.689413
 30
0.0
 10
28.421218
 20
232.832212
 30
0.0
 10
28.470981
 20
232.999895
 30
0.0
 10
28.509926
 20
233.192463
 30
0.0
  0
LWPOLYLINE
  5
236
100
AcDbEntity
  8
0
 62
7
100
AcDbPolyline
 90
1
 70
1
 10
28.824743
 20
234.299183
 30
0.0
  0
SPLINE
  5
237
100
AcDbEntity
  8
0
 62
7
100
AcDbSpline
 70
8
 71
3
 72
8
 73
4
 74
0
 40
0
 40
0
 40
0
 40
0
 40
1
 40
1
 40
1
 40
1
 10
31.804121
 20
231.952689
 30
0.0
 10
31.626700
 20
231.738486
 30
0.0
 10
31.451444
 20
231.576210
 30
0.0
 10
31.278352
 20
231.465863
 30
0.0
  0
SPLINE
  5
238
100
AcDbEntity
  8
0
 62
7
100
AcDbSpline
 70
8
 71
3
 72
8
 73
4
 74
0
 40
0
 40
0
 40
0
 40
0
 40
1
 40
1
 40
1
 40
1
 10
31.278352
 20
231.465863
 30
0.0
 10
31.105260
 20
231.357680
 30
0.0
 10
30.921349
 20
231.303589
 30
0.0
 10
30.726619
 20
231.303589
 30
0.0
  0
SPLINE
  5
239
100
AcDbEntity
  8
0
 62
7
100
AcDbSpline
 70
8
 71
3
 72
8
 73
4
 74
0
 40
0
 40
0
 40
0
 40
0
 40
1
 40
1
 40
1
 40
1
 10
30.726619
 20
231.303589
 30
0.0
 10
30.497271
 20
231.303589
 30
0.0
 10
30.326341
 20
231.362008
 30
0.0
 10
30.213830
 20
231.478846
 30
0.0
  0
SPLINE
  5
23a
100
AcDbEntity
  8
0
 62
7
100
AcDbSpline
 70
8
 71
3
 72
8
 73
4
 74
0
 40
0
 40
0
 40
0
 40
0
 40
1
 40
1
 40
1
 40
1
 10
30.213830
 20
231.478846
 30
0.0
 10
30.101322
 20
231.595685
 30
0.0
 10
30.045068
 20
231.765532
 30
0.0
 10
30.045068
 20
231.988389
 30
0.0
  0
SPLINE
  5
23b
100
AcDbEntity
  8
0
 62
7
100
AcDbSpline
 70
8
 71
3
 72
8
 73
4
 74
0
 40
0
 40
0
 40
0
 40
0
 40
1
 40
1
 40
1
 40
1
 10
30.045068
 20
231.988389
 30
0.0
 10
30.045068
 20
232.124699
 30
0.0
 10
30.064540
 20
232.277236
 30
0.0
 10
30.103485
 20
232.446002
 30
0.0
  0
LWPOLYLINE
  5
23c
100
AcDbEntity
  8
0
 62
7
100
AcDbPolyline
 90
2
 70
0
 10
28.509926
 20
233.192463
 30
0.0
 10
28.539163
 20
233.332020
 30
0.0
  0
SPLINE
  5
23d
100
AcDbEntity
  8
0
 62
7
100
AcDbSpline
 70
8
 71
3
 72
8
 73
4
 74
0
 40
0
 40
0
 40
0
 40
0
 40
1
 40
1
 40
1
 40
1
 10
30.058048
 20
234.295923
 30
0.0
 10
30.185705
 20
234.311075
 30
0.0
 10
30.286315
 20
234.338123
 30
0.0
 10
30.359880
 20
234.377066
 30
0.0
  0
SPLINE
  5
23e
100
AcDbEntity
  8
0
 62
7
100
AcDbSpline
 70
8
 71
3
 72
8
 73
4
 74
0
 40
0
 40
0
 40
0
 40
0
 40
1
 40
1
 40
1
 40
1
 10
30.359880
 20
234.377066
 30
0.0
 10
30.435607
 20
234.418173
 30
0.0
 10
30.498353
 20
234.471182
 30
0.0
 10
30.548118
 20
234.536091
 30
0.0
  0
SPLINE
  5
23f
100
AcDbEntity
  8
0
 62
7
100
AcDbSpline
 70
8
 71
3
 72
8
 73
4
 74
0
 40
0
 40
0
 40
0
 40
0
 40
1
 40
1
 40
1
 40
1
 10
30.548118
 20
234.536091
 30
0.0
 10
30.600047
 20
234.603165
 30
0.0
 10
30.647646
 20
234.689712
 30
0.0
 10
30.690916
 20
234.795732
 30
0.0
  0
SPLINE
  5
240
100
AcDbEntity
  8
0
 62
7
100
AcDbSpline
 70
8
 71
3
 72
8
 73
4
 74
0
 40
0
 40
0
 40
0
 40
0
 40
1
 40
1
 40
1
 40
1
 10
30.690916
 20
234.795732
 30
0.0
 10
30.734193
 20
234.901749
 30
0.0
 10
30.788284
 20
235.056450
 30
0.0
 10
30.853190
 20
235.259835
 30
0.0
  0
LWPOLYLINE
  5
241
100
AcDbEntity
  8
0
 62
7
100
AcDbPolyline
 90
4
 70
0
 10
30.103485
 20
232.446002
 30
0.0
 10
30.505925
 20
234.130405
 30
0.0
 10
30.022348
 20
234.130405
 30
0.0
 10
30.058048
 20
234.295923
 30
0.0
  0
SPLINE
  5
242
100
AcDbEntity
  8
0
 62
7
100
AcDbSpline
 70
8
 71
3
 72
8
 73
4
 74
0
 40
0
 40
0
 40
0
 40
0
 40
1
 40
1
 40
1
 40
1
 10
30.736355
 20
232.871161
 30
0.0
 10
30.649810
 20
232.520648
 30
0.0
 10
30.606538
 20
232.258845
 30
0.0
 10
30.606538
 20
232.085753
 30
0.0
  0
SPLINE
  5
243
100
AcDbEntity
  8
0
 62
7
100
AcDbSpline
 70
8
 71
3
 72
8
 73
4
 74
0
 40
0
 40
0
 40
0
 40
0
 40
1
 40
1
 40
1
 40
1
 10
30.606538
 20
232.085753
 30
0.0
 10
30.606538
 20
231.953768
 30
0.0
 10
30.634664
 20
231.853158
 30
0.0
 10
30.690916
 20
231.783922
 30
0.0
  0
SPLINE
  5
244
100
AcDbEntity
  8
0
 62
7
100
AcDbSpline
 70
8
 71
3
 72
8
 73
4
 74
0
 40
0
 40
0
 40
0
 40
0
 40
1
 40
1
 40
1
 40
1
 10
30.690916
 20
231.783922
 30
0.0
 10
30.749336
 20
231.716850
 30
0.0
 10
30.833719
 20
231.683314
 30
0.0
 10
30.944064
 20
231.683314
 30
0.0
  0
SPLINE
  5
245
100
AcDbEntity
  8
0
 62
7
100
AcDbSpline
 70
8
 71
3
 72
8
 73
4
 74
0
 40
0
 40
0
 40
0
 40
0
 40
1
 40
1
 40
1
 40
1
 10
30.944064
 20
231.683314
 30
0.0
 10
31.043593
 20
231.683314
 30
0.0
 10
31.147449
 20
231.721177
 30
0.0
 10
31.255632
 20
231.796905
 30
0.0
  0
SPLINE
  5
246
100
AcDbEntity
  8
0
 62
7
100
AcDbSpline
 70
8
 71
3
 72
8
 73
4
 74
0
 40
0
 40
0
 40
0
 40
0
 40
1
 40
1
 40
1
 40
1
 10
31.255632
 20
231.796905
 30
0.0
 10
31.365979
 20
231.874794
 30
0.0
 10
31.486062
 20
231.991632
 30
0.0
 10
31.615881
 20
232.147417
 30
0.0
  0
LWPOLYLINE
  5
247
100
AcDbEntity
  8
0
 62
7
100
AcDbPolyline
 90
7
 70
0
 10
30.853190
 20
235.259835
 30
0.0
 10
31.301069
 20
235.259835
 30
0.0
 10
31.122565
 20
234.458200
 30
0.0
 10
32.151387
 20
234.458200
 30
0.0
 10
32.079986
 20
234.130405
 30
0.0
 10
31.047921
 20
234.130405
 30
0.0
 10
30.736355
 20
232.871161
 30
0.0
  0
LWPOLYLINE
  5
248
100
AcDbEntity
  8
0
 62
7
100
AcDbPolyline
 90
2
 70
0
 10
31.615881
 20
232.147417
 30
0.0
 10
31.804121
 20
231.952689
 30
0.0
  0
SPLINE
  5
249
100
AcDbEntity
  8
0
 62
7
100
AcDbSpline
 70
8
 71
3
 72
8
 73
4
 74
0
 40
0
 40
0
 40
0
 40
0
 40
1
 40
1
 40
1
 40
1
 10
34.325860
 20
233.004225
 30
0.0
 10
34.356151
 20
233.123226
 30
0.0
 10
34.382115
 20
233.243309
 30
0.0
 10
34.403750
 20
233.364474
 30
0.0
  0
SPLINE
  5
24a
100
AcDbEntity
  8
0
 62
7
100
AcDbSpline
 70
8
 71
3
 72
8
 73
4
 74
0
 40
0
 40
0
 40
0
 40
0
 40
1
 40
1
 40
1
 40
1
 10
34.403750
 20
233.364474
 30
0.0
 10
34.427552
 20
233.487801
 30
0.0
 10
34.439453
 20
233.599229
 30
0.0
 10
34.439453
 20
233.698756
 30
0.0
  0
SPLINE
  5
24b
100
AcDbEntity
  8
0
 62
7
100
AcDbSpline
 70
8
 71
3
 72
8
 73
4
 74
0
 40
0
 40
0
 40
0
 40
0
 40
1
 40
1
 40
1
 40
1
 10
34.439453
 20
233.698756
 30
0.0
 10
34.439453
 20
233.854541
 30
0.0
 10
34.413489
 20
233.964888
 30
0.0
 10
34.361560
 20
234.029798
 30
0.0
  0
SPLINE
  5
24c
100
AcDbEntity
  8
0
 62
7
100
AcDbSpline
 70
8
 71
3
 72
8
 73
4
 74
0
 40
0
 40
0
 40
0
 40
0
 40
1
 40
1
 40
1
 40
1
 10
34.361560
 20
234.029798
 30
0.0
 10
34.309631
 20
234.096869
 30
0.0
 10
34.222003
 20
234.130405
 30
0.0
 10
34.098675
 20
234.130405
 30
0.0
  0
SPLINE
  5
24d
100
AcDbEntity
  8
0
 62
7
100
AcDbSpline
 70
8
 71
3
 72
8
 73
4
 74
0
 40
0
 40
0
 40
0
 40
0
 40
1
 40
1
 40
1
 40
1
 10
34.098675
 20
234.130405
 30
0.0
 10
34.009966
 20
234.130405
 30
0.0
 10
33.911520
 20
234.093624
 30
0.0
 10
33.803337
 20
234.020061
 30
0.0
  0
SPLINE
  5
24e
100
AcDbEntity
  8
0
 62
7
100
AcDbSpline
 70
8
 71
3
 72
8
 73
4
 74
0
 40
0
 40
0
 40
0
 40
0
 40
1
 40
1
 40
1
 40
1
 10
33.803337
 20
234.020061
 30
0.0
 10
33.697318
 20
233.946494
 30
0.0
 10
33.584809
 20
233.833984
 30
0.0
 10
33.465808
 20
233.682529
 30
0.0
  0
SPLINE
  5
24f
100
AcDbEntity
  8
0
 62
7
100
AcDbSpline
 70
8
 71
3
 72
8
 73
4
 74
0
 40
0
 40
0
 40
0
 40
0
 40
1
 40
1
 40
1
 40
1
 10
33.465808
 20
233.682529
 30
0.0
 10
33.346807
 20
233.533237
 30
0.0
 10
33.251606
 20
233.389354
 30
0.0
 10
33.180206
 20
233.250880
 30
0.0
  0
SPLINE
  5
250
100
AcDbEntity
  8
0
 62
7
100
AcDbSpline
 70
8
 71
3
 72
8
 73
4
 74
0
 40
0
 40
0
 40
0
 40
0
 40
1
 40
1
 40
1
 40
1
 10
33.180206
 20
233.250880
 30
0.0
 10
33.110968
 20
233.114570
 30
0.0
 10
33.055794
 20
232.951215
 30
0.0
 10
33.014685
 20
232.760813
 30
0.0
  0
LWPOLYLINE
  5
251
100
AcDbEntity
  8
0
 62
7
100
AcDbPolyline
 90
3
 70
0
 10
34.936010
 20
231.355519
 30
0.0
 10
33.916928
 20
231.355519
 30
0.0
 10
34.325860
 20
233.004225
 30
0.0
  0
SPLINE
  5
252
100
AcDbEntity
  8
0
 62
7
100
AcDbSpline
 70
8
 71
3
 72
8
 73
4
 74
0
 40
0
 40
0
 40
0
 40
0
 40
1
 40
1
 40
1
 40
1
 10
32.991965
 20
235.065107
 30
0.0
 10
33.015766
 20
235.173290
 30
0.0
 10
33.031993
 20
235.251181
 30
0.0
 10
33.040649
 20
235.298782
 30
0.0
  0
SPLINE
  5
253
100
AcDbEntity
  8
0
 62
7
100
AcDbSpline
 70
8
 71
3
 72
8
 73
4
 74
0
 40
0
 40
0
 40
0
 40
0
 40
1
 40
1
 40
1
 40
1
 10
33.040649
 20
235.298782
 30
0.0
 10
33.051479
 20
235.348544
 30
0.0
 10
33.059055
 20
235.393980
 30
0.0
 10
33.063377
 20
235.435090
 30
0.0
  0
SPLINE
  5
254
100
AcDbEntity
  8
0
 62
7
100
AcDbSpline
 70
8
 71
3
 72
8
 73
4
 74
0
 40
0
 40
0
 40
0
 40
0
 40
1
 40
1
 40
1
 40
1
 10
33.063377
 20
235.435090
 30
0.0
 10
33.067698
 20
235.476201
 30
0.0
 10
33.069859
 20
235.512984
 30
0.0
 10
33.069859
 20
235.545439
 30
0.0
  0
SPLINE
  5
255
100
AcDbEntity
  8
0
 62
7
100
AcDbSpline
 70
8
 71
3
 72
8
 73
4
 74
0
 40
0
 40
0
 40
0
 40
0
 40
1
 40
1
 40
1
 40
1
 10
33.069859
 20
235.545439
 30
0.0
 10
33.069859
 20
235.636311
 30
0.0
 10
33.041731
 20
235.700139
 30
0.0
 10
32.985475
 20
235.736924
 30
0.0
  0
SPLINE
  5
256
100
AcDbEntity
  8
0
 62
7
100
AcDbSpline
 70
8
 71
3
 72
8
 73
4
 74
0
 40
0
 40
0
 40
0
 40
0
 40
1
 40
1
 40
1
 40
1
 10
32.985475
 20
235.736924
 30
0.0
 10
32.931384
 20
235.773704
 30
0.0
 10
32.832938
 20
235.794258
 30
0.0
 10
32.690137
 20
235.798585
 30
0.0
  0
LWPOLYLINE
  5
257
100
AcDbEntity
  8
0
 62
7
100
AcDbPolyline
 90
4
 70
0
 10
33.014685
 20
232.760813
 30
0.0
 10
32.719344
 20
231.355519
 30
0.0
 10
32.157877
 20
231.355519
 30
0.0
 10
32.991965
 20
235.065107
 30
0.0
  0
SPLINE
  5
258
100
AcDbEntity
  8
0
 62
7
100
AcDbSpline
 70
8
 71
3
 72
8
 73
4
 74
0
 40
0
 40
0
 40
0
 40
0
 40
1
 40
1
 40
1
 40
1
 10
33.219150
 20
233.734451
 30
0.0
 10
33.422533
 20
234.004908
 30
0.0
 10
33.616180
 20
234.201801
 30
0.0
 10
33.800090
 20
234.325128
 30
0.0
  0
SPLINE
  5
259
100
AcDbEntity
  8
0
 62
7
100
AcDbSpline
 70
8
 71
3
 72
8
 73
4
 74
0
 40
0
 40
0
 40
0
 40
0
 40
1
 40
1
 40
1
 40
1
 10
33.800090
 20
234.325128
 30
0.0
 10
33.984002
 20
234.448456
 30
0.0
 10
34.171159
 20
234.510119
 30
0.0
 10
34.361560
 20
234.510119
 30
0.0
  0
SPLINE
  5
25a
100
AcDbEntity
  8
0
 62
7
100
AcDbSpline
 70
8
 71
3
 72
8
 73
4
 74
0
 40
0
 40
0
 40
0
 40
0
 40
1
 40
1
 40
1
 40
1
 10
34.361560
 20
234.510119
 30
0.0
 10
34.571436
 20
234.510119
 30
0.0
 10
34.730465
 20
234.451701
 30
0.0
 10
34.838646
 20
234.334865
 30
0.0
  0
SPLINE
  5
25b
100
AcDbEntity
  8
0
 62
7
100
AcDbSpline
 70
8
 71
3
 72
8
 73
4
 74
0
 40
0
 40
0
 40
0
 40
0
 40
1
 40
1
 40
1
 40
1
 10
34.838646
 20
234.334865
 30
0.0
 10
34.946829
 20
234.220191
 30
0.0
 10
35.000920
 20
234.049262
 30
0.0
 10
35.000920
 20
233.822078
 30
0.0
  0
SPLINE
  5
25c
100
AcDbEntity
  8
0
 62
7
100
AcDbSpline
 70
8
 71
3
 72
8
 73
4
 74
0
 40
0
 40
0
 40
0
 40
0
 40
1
 40
1
 40
1
 40
1
 10
35.000920
 20
233.822078
 30
0.0
 10
35.000920
 20
233.683604
 30
0.0
 10
34.979284
 20
233.517003
 30
0.0
 10
34.936010
 20
233.322275
 30
0.0
  0
LWPOLYLINE
  5
25d
100
AcDbEntity
  8
0
 62
7
100
AcDbPolyline
 90
6
 70
0
 10
32.690137
 20
235.798585
 30
0.0
 10
32.729081
 20
235.967349
 30
0.0
 10
33.550191
 20
235.996559
 30
0.0
 10
33.738427
 20
235.996559
 30
0.0
 10
33.180206
 20
233.747442
 30
0.0
 10
33.219150
 20
233.734451
 30
0.0
  0
SPLINE
  5
25e
100
AcDbEntity
  8
0
 62
7
100
AcDbSpline
 70
8
 71
3
 72
8
 73
4
 74
0
 40
0
 40
0
 40
0
 40
0
 40
1
 40
1
 40
1
 40
1
 10
34.663391
 20
232.166882
 30
0.0
 10
34.641754
 20
232.073844
 30
0.0
 10
34.626609
 20
231.999198
 30
0.0
 10
34.617957
 20
231.942944
 30
0.0
  0
SPLINE
  5
25f
100
AcDbEntity
  8
0
 62
7
100
AcDbSpline
 70
8
 71
3
 72
8
 73
4
 74
0
 40
0
 40
0
 40
0
 40
0
 40
1
 40
1
 40
1
 40
1
 10
34.617957
 20
231.942944
 30
0.0
 10
34.609314
 20
231.886688
 30
0.0
 10
34.604993
 20
231.838006
 30
0.0
 10
34.604993
 20
231.796897
 30
0.0
  0
SPLINE
  5
260
100
AcDbEntity
  8
0
 62
7
100
AcDbSpline
 70
8
 71
3
 72
8
 73
4
 74
0
 40
0
 40
0
 40
0
 40
0
 40
1
 40
1
 40
1
 40
1
 10
34.604993
 20
231.796897
 30
0.0
 10
34.604993
 20
231.729821
 30
0.0
 10
34.615810
 20
231.677893
 30
0.0
 10
34.637446
 20
231.641113
 30
0.0
  0
SPLINE
  5
261
100
AcDbEntity
  8
0
 62
7
100
AcDbSpline
 70
8
 71
3
 72
8
 73
4
 74
0
 40
0
 40
0
 40
0
 40
0
 40
1
 40
1
 40
1
 40
1
 10
34.637446
 20
231.641113
 30
0.0
 10
34.661246
 20
231.604330
 30
0.0
 10
34.695865
 20
231.576202
 30
0.0
 10
34.741303
 20
231.556729
 30
0.0
  0
SPLINE
  5
262
100
AcDbEntity
  8
0
 62
7
100
AcDbSpline
 70
8
 71
3
 72
8
 73
4
 74
0
 40
0
 40
0
 40
0
 40
0
 40
1
 40
1
 40
1
 40
1
 10
34.741303
 20
231.556729
 30
0.0
 10
34.788904
 20
231.539425
 30
0.0
 10
34.863550
 20
231.525362
 30
0.0
 10
34.965241
 20
231.514539
 30
0.0
  0
LWPOLYLINE
  5
263
100
AcDbEntity
  8
0
 62
7
100
AcDbPolyline
 90
2
 70
0
 10
34.936010
 20
233.322275
 30
0.0
 10
34.663391
 20
232.166882
 30
0.0
  0
SPLINE
  5
264
100
AcDbEntity
  8
0
 62
7
100
AcDbSpline
 70
8
 71
3
 72
8
 73
4
 74
0
 40
0
 40
0
 40
0
 40
0
 40
1
 40
1
 40
1
 40
1
 10
23.751220
 20
227.984021
 30
0.0
 10
23.751220
 20
227.759550
 30
0.0
 10
23.726698
 20
227.557715
 30
0.0
 10
23.677653
 20
227.378516
 30
0.0
  0
SPLINE
  5
265
100
AcDbEntity
  8
0
 62
7
100
AcDbSpline
 70
8
 71
3
 72
8
 73
4
 74
0
 40
0
 40
0
 40
0
 40
0
 40
1
 40
1
 40
1
 40
1
 10
23.677653
 20
227.378516
 30
0.0
 10
23.628610
 20
227.199318
 30
0.0
 10
23.557874
 20
227.046528
 30
0.0
 10
23.465445
 20
226.920147
 30
0.0
  0
SPLINE
  5
266
100
AcDbEntity
  8
0
 62
7
100
AcDbSpline
 70
8
 71
3
 72
8
 73
4
 74
0
 40
0
 40
0
 40
0
 40
0
 40
1
 40
1
 40
1
 40
1
 10
23.465445
 20
226.920147
 30
0.0
 10
23.373016
 20
226.793762
 30
0.0
 10
23.258894
 20
226.696617
 30
0.0
 10
23.123079
 20
226.628711
 30
0.0
  0
SPLINE
  5
267
100
AcDbEntity
  8
0
 62
7
100
AcDbSpline
 70
8
 71
3
 72
8
 73
4
 74
0
 40
0
 40
0
 40
0
 40
0
 40
1
 40
1
 40
1
 40
1
 10
23.123079
 20
226.628711
 30
0.0
 10
22.989153
 20
226.560803
 30
0.0
 10
22.836363
 20
226.526849
 30
0.0
 10
22.664708
 20
226.526849
 30
0.0
  0
SPLINE
  5
268
100
AcDbEntity
  8
0
 62
7
100
AcDbSpline
 70
8
 71
3
 72
8
 73
4
 74
0
 40
0
 40
0
 40
0
 40
0
 40
1
 40
1
 40
1
 40
1
 10
22.664708
 20
226.526849
 30
0.0
 10
22.579825
 20
226.526849
 30
0.0
 10
22.500599
 20
226.535333
 30
0.0
 10
22.427032
 20
226.552302
 30
0.0
  0
SPLINE
  5
269
100
AcDbEntity
  8
0
 62
7
100
AcDbSpline
 70
8
 71
3
 72
8
 73
4
 74
0
 40
0
 40
0
 40
0
 40
0
 40
1
 40
1
 40
1
 40
1
 10
22.427032
 20
226.552302
 30
0.0
 10
22.353467
 20
226.567401
 30
0.0
 10
22.282730
 20
226.592867
 30
0.0
 10
22.214824
 20
226.628700
 30
0.0
  0
SPLINE
  5
26a
100
AcDbEntity
  8
0
 62
7
100
AcDbSpline
 70
8
 71
3
 72
8
 73
4
 74
0
 40
0
 40
0
 40
0
 40
0
 40
1
 40
1
 40
1
 40
1
 10
22.214824
 20
226.628700
 30
0.0
 10
22.148803
 20
226.664539
 30
0.0
 10
22.082781
 20
226.709810
 30
0.0
 10
22.016760
 20
226.764514
 30
0.0
  0
SPLINE
  5
26b
100
AcDbEntity
  8
0
 62
7
100
AcDbSpline
 70
8
 71
3
 72
8
 73
4
 74
0
 40
0
 40
0
 40
0
 40
0
 40
1
 40
1
 40
1
 40
1
 10
22.016760
 20
226.764514
 30
0.0
 10
21.952625
 20
226.819217
 30
0.0
 10
21.886605
 20
226.885238
 30
0.0
 10
21.818698
 20
226.962575
 30
0.0
  0
LWPOLYLINE
  5
26c
100
AcDbEntity
  8
0
 62
7
100
AcDbPolyline
 90
2
 70
0
 10
34.965241
 20
231.514539
 30
0.0
 10
34.936010
 20
231.355519
 30
0.0
  0
SPLINE
  5
26d
100
AcDbEntity
  8
0
 62
7
100
AcDbSpline
 70
8
 71
3
 72
8
 73
4
 74
0
 40
0
 40
0
 40
0
 40
0
 40
1
 40
1
 40
1
 40
1
 10
21.818698
 20
226.688121
 30
0.0
 10
21.818698
 20
226.667368
 30
0.0
 10
21.813037
 20
226.649447
 30
0.0
 10
21.801715
 20
226.634357
 30
0.0
  0
SPLINE
  5
26e
100
AcDbEntity
  8
0
 62
7
100
AcDbSpline
 70
8
 71
3
 72
8
 73
4
 74
0
 40
0
 40
0
 40
0
 40
0
 40
1
 40
1
 40
1
 40
1
 10
21.801715
 20
226.634357
 30
0.0
 10
21.792281
 20
226.621163
 30
0.0
 10
21.775305
 20
226.609846
 30
0.0
 10
21.750784
 20
226.600406
 30
0.0
  0
SPLINE
  5
26f
100
AcDbEntity
  8
0
 62
7
100
AcDbSpline
 70
8
 71
3
 72
8
 73
4
 74
0
 40
0
 40
0
 40
0
 40
0
 40
1
 40
1
 40
1
 40
1
 10
21.750784
 20
226.600406
 30
0.0
 10
21.728149
 20
226.590969
 30
0.0
 10
21.697024
 20
226.584372
 30
0.0
 10
21.657411
 20
226.580615
 30
0.0
  0
SPLINE
  5
270
100
AcDbEntity
  8
0
 62
7
100
AcDbSpline
 70
8
 71
3
 72
8
 73
4
 74
0
 40
0
 40
0
 40
0
 40
0
 40
1
 40
1
 40
1
 40
1
 10
21.657411
 20
226.580615
 30
0.0
 10
21.617800
 20
226.576840
 30
0.0
 10
21.569700
 20
226.574953
 30
0.0
 10
21.513111
 20
226.574953
 30
0.0
  0
SPLINE
  5
271
100
AcDbEntity
  8
0
 62
7
100
AcDbSpline
 70
8
 71
3
 72
8
 73
4
 74
0
 40
0
 40
0
 40
0
 40
0
 40
1
 40
1
 40
1
 40
1
 10
21.513111
 20
226.574953
 30
0.0
 10
21.454634
 20
226.574953
 30
0.0
 10
21.405590
 20
226.576840
 30
0.0
 10
21.365979
 20
226.580615
 30
0.0
  0
SPLINE
  5
272
100
AcDbEntity
  8
0
 62
7
100
AcDbSpline
 70
8
 71
3
 72
8
 73
4
 74
0
 40
0
 40
0
 40
0
 40
0
 40
1
 40
1
 40
1
 40
1
 10
21.365979
 20
226.580615
 30
0.0
 10
21.328251
 20
226.584390
 30
0.0
 10
21.297126
 20
226.590987
 30
0.0
 10
21.272606
 20
226.600406
 30
0.0
  0
SPLINE
  5
273
100
AcDbEntity
  8
0
 62
7
100
AcDbSpline
 70
8
 71
3
 72
8
 73
4
 74
0
 40
0
 40
0
 40
0
 40
0
 40
1
 40
1
 40
1
 40
1
 10
21.272606
 20
226.600406
 30
0.0
 10
21.249970
 20
226.609843
 30
0.0
 10
21.233936
 20
226.621160
 30
0.0
 10
21.224503
 20
226.634357
 30
0.0
  0
SPLINE
  5
274
100
AcDbEntity
  8
0
 62
7
100
AcDbSpline
 70
8
 71
3
 72
8
 73
4
 74
0
 40
0
 40
0
 40
0
 40
0
 40
1
 40
1
 40
1
 40
1
 10
21.224503
 20
226.634357
 30
0.0
 10
21.215070
 20
226.649456
 30
0.0
 10
21.210354
 20
226.667377
 30
0.0
 10
21.210354
 20
226.688121
 30
0.0
  0
LWPOLYLINE
  5
275
100
AcDbEntity
  8
0
 62
7
100
AcDbPolyline
 90
2
 70
0
 10
21.818698
 20
226.962575
 30
0.0
 10
21.818698
 20
226.688121
 30
0.0
  0
SPLINE
  5
276
100
AcDbEntity
  8
0
 62
7
100
AcDbSpline
 70
8
 71
3
 72
8
 73
4
 74
0
 40
0
 40
0
 40
0
 40
0
 40
1
 40
1
 40
1
 40
1
 10
21.210354
 20
230.408858
 30
0.0
 10
21.210354
 20
230.427723
 30
0.0
 10
21.216015
 20
230.444700
 30
0.0
 10
21.227337
 20
230.459790
 30
0.0
  0
SPLINE
  5
277
100
AcDbEntity
  8
0
 62
7
100
AcDbSpline
 70
8
 71
3
 72
8
 73
4
 74
0
 40
0
 40
0
 40
0
 40
0
 40
1
 40
1
 40
1
 40
1
 10
21.227337
 20
230.459790
 30
0.0
 10
21.238660
 20
230.474889
 30
0.0
 10
21.257523
 20
230.487150
 30
0.0
 10
21.283927
 20
230.496573
 30
0.0
  0
SPLINE
  5
278
100
AcDbEntity
  8
0
 62
7
100
AcDbSpline
 70
8
 71
3
 72
8
 73
4
 74
0
 40
0
 40
0
 40
0
 40
0
 40
1
 40
1
 40
1
 40
1
 10
21.283927
 20
230.496573
 30
0.0
 10
21.312221
 20
230.507897
 30
0.0
 10
21.349003
 20
230.516381
 30
0.0
 10
21.394276
 20
230.522026
 30
0.0
  0
SPLINE
  5
279
100
AcDbEntity
  8
0
 62
7
100
AcDbSpline
 70
8
 71
3
 72
8
 73
4
 74
0
 40
0
 40
0
 40
0
 40
0
 40
1
 40
1
 40
1
 40
1
 10
21.394276
 20
230.522026
 30
0.0
 10
21.439548
 20
230.527688
 30
0.0
 10
21.497080
 20
230.530519
 30
0.0
 10
21.566872
 20
230.530519
 30
0.0
  0
SPLINE
  5
27a
100
AcDbEntity
  8
0
 62
7
100
AcDbSpline
 70
8
 71
3
 72
8
 73
4
 74
0
 40
0
 40
0
 40
0
 40
0
 40
1
 40
1
 40
1
 40
1
 10
21.566872
 20
230.530519
 30
0.0
 10
21.636666
 20
230.530519
 30
0.0
 10
21.694198
 20
230.527688
 30
0.0
 10
21.739469
 20
230.522026
 30
0.0
  0
SPLINE
  5
27b
100
AcDbEntity
  8
0
 62
7
100
AcDbSpline
 70
8
 71
3
 72
8
 73
4
 74
0
 40
0
 40
0
 40
0
 40
0
 40
1
 40
1
 40
1
 40
1
 10
21.739469
 20
230.522026
 30
0.0
 10
21.784741
 20
230.516364
 30
0.0
 10
21.820581
 20
230.507879
 30
0.0
 10
21.846990
 20
230.496573
 30
0.0
  0
SPLINE
  5
27c
100
AcDbEntity
  8
0
 62
7
100
AcDbSpline
 70
8
 71
3
 72
8
 73
4
 74
0
 40
0
 40
0
 40
0
 40
0
 40
1
 40
1
 40
1
 40
1
 10
21.846990
 20
230.496573
 30
0.0
 10
21.875284
 20
230.487136
 30
0.0
 10
21.895090
 20
230.474875
 30
0.0
 10
21.906408
 20
230.459790
 30
0.0
  0
SPLINE
  5
27d
100
AcDbEntity
  8
0
 62
7
100
AcDbSpline
 70
8
 71
3
 72
8
 73
4
 74
0
 40
0
 40
0
 40
0
 40
0
 40
1
 40
1
 40
1
 40
1
 10
21.906408
 20
230.459790
 30
0.0
 10
21.917730
 20
230.444692
 30
0.0
 10
21.923392
 20
230.427714
 30
0.0
 10
21.923392
 20
230.408858
 30
0.0
  0
LWPOLYLINE
  5
27e
100
AcDbEntity
  8
0
 62
7
100
AcDbPolyline
 90
2
 70
0
 10
21.210354
 20
226.688121
 30
0.0
 10
21.210354
 20
230.408858
 30
0.0
  0
SPLINE
  5
27f
100
AcDbEntity
  8
0
 62
7
100
AcDbSpline
 70
8
 71
3
 72
8
 73
4
 74
0
 40
0
 40
0
 40
0
 40
0
 40
1
 40
1
 40
1
 40
1
 10
21.923392
 20
229.013935
 30
0.0
 10
21.987526
 20
229.078070
 30
0.0
 10
22.051661
 20
229.132774
 30
0.0
 10
22.115795
 20
229.178046
 30
0.0
  0
SPLINE
  5
280
100
AcDbEntity
  8
0
 62
7
100
AcDbSpline
 70
8
 71
3
 72
8
 73
4
 74
0
 40
0
 40
0
 40
0
 40
0
 40
1
 40
1
 40
1
 40
1
 10
22.115795
 20
229.178046
 30
0.0
 10
22.179930
 20
229.223316
 30
0.0
 10
22.244064
 20
229.260098
 30
0.0
 10
22.308197
 20
229.288393
 30
0.0
  0
SPLINE
  5
281
100
AcDbEntity
  8
0
 62
7
100
AcDbSpline
 70
8
 71
3
 72
8
 73
4
 74
0
 40
0
 40
0
 40
0
 40
0
 40
1
 40
1
 40
1
 40
1
 10
22.308197
 20
229.288393
 30
0.0
 10
22.372331
 20
229.318575
 30
0.0
 10
22.438353
 20
229.340268
 30
0.0
 10
22.506263
 20
229.353472
 30
0.0
  0
SPLINE
  5
282
100
AcDbEntity
  8
0
 62
7
100
AcDbSpline
 70
8
 71
3
 72
8
 73
4
 74
0
 40
0
 40
0
 40
0
 40
0
 40
1
 40
1
 40
1
 40
1
 10
22.506263
 20
229.353472
 30
0.0
 10
22.574169
 20
229.366666
 30
0.0
 10
22.645848
 20
229.373263
 30
0.0
 10
22.721299
 20
229.373263
 30
0.0
  0
SPLINE
  5
283
100
AcDbEntity
  8
0
 62
7
100
AcDbSpline
 70
8
 71
3
 72
8
 73
4
 74
0
 40
0
 40
0
 40
0
 40
0
 40
1
 40
1
 40
1
 40
1
 10
22.721299
 20
229.373263
 30
0.0
 10
22.908045
 20
229.373263
 30
0.0
 10
23.066495
 20
229.335538
 30
0.0
 10
23.196652
 20
229.260088
 30
0.0
  0
SPLINE
  5
284
100
AcDbEntity
  8
0
 62
7
100
AcDbSpline
 70
8
 71
3
 72
8
 73
4
 74
0
 40
0
 40
0
 40
0
 40
0
 40
1
 40
1
 40
1
 40
1
 10
23.196652
 20
229.260088
 30
0.0
 10
23.326806
 20
229.186521
 30
0.0
 10
23.432439
 20
229.086546
 30
0.0
 10
23.513550
 20
228.960164
 30
0.0
  0
SPLINE
  5
285
100
AcDbEntity
  8
0
 62
7
100
AcDbSpline
 70
8
 71
3
 72
8
 73
4
 74
0
 40
0
 40
0
 40
0
 40
0
 40
1
 40
1
 40
1
 40
1
 10
23.513550
 20
228.960164
 30
0.0
 10
23.596548
 20
228.833781
 30
0.0
 10
23.656909
 20
228.685706
 30
0.0
 10
23.694634
 20
228.515939
 30
0.0
  0
SPLINE
  5
286
100
AcDbEntity
  8
0
 62
7
100
AcDbSpline
 70
8
 71
3
 72
8
 73
4
 74
0
 40
0
 40
0
 40
0
 40
0
 40
1
 40
1
 40
1
 40
1
 10
23.694634
 20
228.515939
 30
0.0
 10
23.732360
 20
228.348057
 30
0.0
 10
23.751223
 20
228.170744
 30
0.0
 10
23.751223
 20
227.983999
 30
0.0
  0
LWPOLYLINE
  5
287
100
AcDbEntity
  8
0
 62
7
100
AcDbPolyline
 90
2
 70
0
 10
21.923392
 20
230.408858
 30
0.0
 10
21.923392
 20
229.013935
 30
0.0
  0
SPLINE
  5
288
100
AcDbEntity
  8
0
 62
7
100
AcDbSpline
 70
8
 71
3
 72
8
 73
4
 74
0
 40
0
 40
0
 40
0
 40
0
 40
1
 40
1
 40
1
 40
1
 10
23.012731
 20
227.933091
 30
0.0
 10
23.012731
 20
228.040612
 30
0.0
 10
23.004243
 20
228.144359
 30
0.0
 10
22.987268
 20
228.244331
 30
0.0
  0
SPLINE
  5
289
100
AcDbEntity
  8
0
 62
7
100
AcDbSpline
 70
8
 71
3
 72
8
 73
4
 74
0
 40
0
 40
0
 40
0
 40
0
 40
1
 40
1
 40
1
 40
1
 10
22.987268
 20
228.244331
 30
0.0
 10
22.972169
 20
228.344305
 30
0.0
 10
22.944818
 20
228.432962
 30
0.0
 10
22.905215
 20
228.510303
 30
0.0
  0
SPLINE
  5
28a
100
AcDbEntity
  8
0
 62
7
100
AcDbSpline
 70
8
 71
3
 72
8
 73
4
 74
0
 40
0
 40
0
 40
0
 40
0
 40
1
 40
1
 40
1
 40
1
 10
22.905215
 20
228.510303
 30
0.0
 10
22.865600
 20
228.587639
 30
0.0
 10
22.813726
 20
228.648944
 30
0.0
 10
22.749593
 20
228.694218
 30
0.0
  0
SPLINE
  5
28b
100
AcDbEntity
  8
0
 62
7
100
AcDbSpline
 70
8
 71
3
 72
8
 73
4
 74
0
 40
0
 40
0
 40
0
 40
0
 40
1
 40
1
 40
1
 40
1
 10
22.749593
 20
228.694218
 30
0.0
 10
22.687345
 20
228.741375
 30
0.0
 10
22.608120
 20
228.764954
 30
0.0
 10
22.511918
 20
228.764954
 30
0.0
  0
SPLINE
  5
28c
100
AcDbEntity
  8
0
 62
7
100
AcDbSpline
 70
8
 71
3
 72
8
 73
4
 74
0
 40
0
 40
0
 40
0
 40
0
 40
1
 40
1
 40
1
 40
1
 10
22.511918
 20
228.764954
 30
0.0
 10
22.464760
 20
228.764954
 30
0.0
 10
22.418546
 20
228.758348
 30
0.0
 10
22.373275
 20
228.745137
 30
0.0
  0
SPLINE
  5
28d
100
AcDbEntity
  8
0
 62
7
100
AcDbSpline
 70
8
 71
3
 72
8
 73
4
 74
0
 40
0
 40
0
 40
0
 40
0
 40
1
 40
1
 40
1
 40
1
 10
22.373275
 20
228.745137
 30
0.0
 10
22.328004
 20
228.731943
 30
0.0
 10
22.280846
 20
228.709308
 30
0.0
 10
22.231801
 20
228.677232
 30
0.0
  0
SPLINE
  5
28e
100
AcDbEntity
  8
0
 62
7
100
AcDbSpline
 70
8
 71
3
 72
8
 73
4
 74
0
 40
0
 40
0
 40
0
 40
0
 40
1
 40
1
 40
1
 40
1
 10
22.231801
 20
228.677232
 30
0.0
 10
22.184643
 20
228.645164
 30
0.0
 10
22.135599
 20
228.603665
 30
0.0
 10
22.084668
 20
228.552735
 30
0.0
  0
SPLINE
  5
28f
100
AcDbEntity
  8
0
 62
7
100
AcDbSpline
 70
8
 71
3
 72
8
 73
4
 74
0
 40
0
 40
0
 40
0
 40
0
 40
1
 40
1
 40
1
 40
1
 10
22.084668
 20
228.552735
 30
0.0
 10
22.033739
 20
228.501802
 30
0.0
 10
21.979980
 20
228.438611
 30
0.0
 10
21.923391
 20
228.363161
 30
0.0
  0
LWPOLYLINE
  5
290
100
AcDbEntity
  8
0
 62
7
100
AcDbPolyline
 90
1
 70
1
 10
23.751223
 20
227.983999
 30
0.0
  0
SPLINE
  5
291
100
AcDbEntity
  8
0
 62
7
100
AcDbSpline
 70
8
 71
3
 72
8
 73
4
 74
0
 40
0
 40
0
 40
0
 40
0
 40
1
 40
1
 40
1
 40
1
 10
21.923391
 20
227.525641
 30
0.0
 10
22.023363
 20
227.397372
 30
0.0
 10
22.118621
 20
227.299284
 30
0.0
 10
22.209166
 20
227.231376
 30
0.0
  0
SPLINE
  5
292
100
AcDbEntity
  8
0
 62
7
100
AcDbSpline
 70
8
 71
3
 72
8
 73
4
 74
0
 40
0
 40
0
 40
0
 40
0
 40
1
 40
1
 40
1
 40
1
 10
22.209166
 20
227.231376
 30
0.0
 10
22.301594
 20
227.165356
 30
0.0
 10
22.397795
 20
227.132345
 30
0.0
 10
22.497770
 20
227.132345
 30
0.0
  0
SPLINE
  5
293
100
AcDbEntity
  8
0
 62
7
100
AcDbSpline
 70
8
 71
3
 72
8
 73
4
 74
0
 40
0
 40
0
 40
0
 40
0
 40
1
 40
1
 40
1
 40
1
 10
22.497770
 20
227.132345
 30
0.0
 10
22.590201
 20
227.132345
 30
0.0
 10
22.668482
 20
227.155924
 30
0.0
 10
22.732614
 20
227.203082
 30
0.0
  0
SPLINE
  5
294
100
AcDbEntity
  8
0
 62
7
100
AcDbSpline
 70
8
 71
3
 72
8
 73
4
 74
0
 40
0
 40
0
 40
0
 40
0
 40
1
 40
1
 40
1
 40
1
 10
22.732614
 20
227.203082
 30
0.0
 10
22.796749
 20
227.250239
 30
0.0
 10
22.849566
 20
227.311544
 30
0.0
 10
22.891065
 20
227.386996
 30
0.0
  0
SPLINE
  5
295
100
AcDbEntity
  8
0
 62
7
100
AcDbSpline
 70
8
 71
3
 72
8
 73
4
 74
0
 40
0
 40
0
 40
0
 40
0
 40
1
 40
1
 40
1
 40
1
 10
22.891065
 20
227.386996
 30
0.0
 10
22.934451
 20
227.462450
 30
0.0
 10
22.965576
 20
227.548277
 30
0.0
 10
22.984439
 20
227.644476
 30
0.0
  0
SPLINE
  5
296
100
AcDbEntity
  8
0
 62
7
100
AcDbSpline
 70
8
 71
3
 72
8
 73
4
 74
0
 40
0
 40
0
 40
0
 40
0
 40
1
 40
1
 40
1
 40
1
 10
22.984439
 20
227.644476
 30
0.0
 10
23.003301
 20
227.740678
 30
0.0
 10
23.012732
 20
227.836881
 30
0.0
 10
23.012732
 20
227.933083
 30
0.0
  0
LWPOLYLINE
  5
297
100
AcDbEntity
  8
0
 62
7
100
AcDbPolyline
 90
2
 70
0
 10
21.923391
 20
228.363161
 30
0.0
 10
21.923391
 20
227.525641
 30
0.0
  0
SPLINE
  5
298
100
AcDbEntity
  8
0
 62
7
100
AcDbSpline
 70
8
 71
3
 72
8
 73
4
 74
0
 40
0
 40
0
 40
0
 40
0
 40
1
 40
1
 40
1
 40
1
 10
26.872121
 20
227.975533
 30
0.0
 10
26.872121
 20
227.760494
 30
0.0
 10
26.843827
 20
227.564317
 30
0.0
 10
26.787237
 20
227.387004
 30
0.0
  0
SPLINE
  5
299
100
AcDbEntity
  8
0
 62
7
100
AcDbSpline
 70
8
 71
3
 72
8
 73
4
 74
0
 40
0
 40
0
 40
0
 40
0
 40
1
 40
1
 40
1
 40
1
 10
26.787237
 20
227.387004
 30
0.0
 10
26.730648
 20
227.209693
 30
0.0
 10
26.644821
 20
227.056903
 30
0.0
 10
26.529756
 20
226.928635
 30
0.0
  0
SPLINE
  5
29a
100
AcDbEntity
  8
0
 62
7
100
AcDbSpline
 70
8
 71
3
 72
8
 73
4
 74
0
 40
0
 40
0
 40
0
 40
0
 40
1
 40
1
 40
1
 40
1
 10
26.529756
 20
226.928635
 30
0.0
 10
26.414691
 20
226.800363
 30
0.0
 10
26.270388
 20
226.701331
 30
0.0
 10
26.096846
 20
226.631539
 30
0.0
  0
SPLINE
  5
29b
100
AcDbEntity
  8
0
 62
7
100
AcDbSpline
 70
8
 71
3
 72
8
 73
4
 74
0
 40
0
 40
0
 40
0
 40
0
 40
1
 40
1
 40
1
 40
1
 10
26.096846
 20
226.631539
 30
0.0
 10
25.923306
 20
226.561746
 30
0.0
 10
25.720528
 20
226.526849
 30
0.0
 10
25.488512
 20
226.526849
 30
0.0
  0
SPLINE
  5
29c
100
AcDbEntity
  8
0
 62
7
100
AcDbSpline
 70
8
 71
3
 72
8
 73
4
 74
0
 40
0
 40
0
 40
0
 40
0
 40
1
 40
1
 40
1
 40
1
 10
25.488512
 20
226.526849
 30
0.0
 10
25.264041
 20
226.526849
 30
0.0
 10
25.068807
 20
226.557973
 30
0.0
 10
24.902811
 20
226.620220
 30
0.0
  0
SPLINE
  5
29d
100
AcDbEntity
  8
0
 62
7
100
AcDbSpline
 70
8
 71
3
 72
8
 73
4
 74
0
 40
0
 40
0
 40
0
 40
0
 40
1
 40
1
 40
1
 40
1
 10
24.902811
 20
226.620220
 30
0.0
 10
24.736816
 20
226.682470
 30
0.0
 10
24.599116
 20
226.773013
 30
0.0
 10
24.489709
 20
226.891850
 30
0.0
  0
SPLINE
  5
29e
100
AcDbEntity
  8
0
 62
7
100
AcDbSpline
 70
8
 71
3
 72
8
 73
4
 74
0
 40
0
 40
0
 40
0
 40
0
 40
1
 40
1
 40
1
 40
1
 10
24.489709
 20
226.891850
 30
0.0
 10
24.380304
 20
227.010686
 30
0.0
 10
24.299193
 20
227.156876
 30
0.0
 10
24.246377
 20
227.330418
 30
0.0
  0
SPLINE
  5
29f
100
AcDbEntity
  8
0
 62
7
100
AcDbSpline
 70
8
 71
3
 72
8
 73
4
 74
0
 40
0
 40
0
 40
0
 40
0
 40
1
 40
1
 40
1
 40
1
 10
24.246377
 20
227.330418
 30
0.0
 10
24.193559
 20
227.503958
 30
0.0
 10
24.167150
 20
227.702020
 30
0.0
 10
24.167150
 20
227.924603
 30
0.0
  0
SPLINE
  5
2a0
100
AcDbEntity
  8
0
 62
7
100
AcDbSpline
 70
8
 71
3
 72
8
 73
4
 74
0
 40
0
 40
0
 40
0
 40
0
 40
1
 40
1
 40
1
 40
1
 10
24.167150
 20
227.924603
 30
0.0
 10
24.167150
 20
228.139642
 30
0.0
 10
24.195445
 20
228.335819
 30
0.0
 10
24.252034
 20
228.513132
 30
0.0
  0
SPLINE
  5
2a1
100
AcDbEntity
  8
0
 62
7
100
AcDbSpline
 70
8
 71
3
 72
8
 73
4
 74
0
 40
0
 40
0
 40
0
 40
0
 40
1
 40
1
 40
1
 40
1
 10
24.252034
 20
228.513132
 30
0.0
 10
24.310510
 20
228.692330
 30
0.0
 10
24.397281
 20
228.845121
 30
0.0
 10
24.512347
 20
228.971504
 30
0.0
  0
SPLINE
  5
2a2
100
AcDbEntity
  8
0
 62
7
100
AcDbSpline
 70
8
 71
3
 72
8
 73
4
 74
0
 40
0
 40
0
 40
0
 40
0
 40
1
 40
1
 40
1
 40
1
 10
24.512347
 20
228.971504
 30
0.0
 10
24.627411
 20
229.099772
 30
0.0
 10
24.770770
 20
229.198804
 30
0.0
 10
24.942425
 20
229.268599
 30
0.0
  0
SPLINE
  5
2a3
100
AcDbEntity
  8
0
 62
7
100
AcDbSpline
 70
8
 71
3
 72
8
 73
4
 74
0
 40
0
 40
0
 40
0
 40
0
 40
1
 40
1
 40
1
 40
1
 10
24.942425
 20
229.268599
 30
0.0
 10
25.115965
 20
229.338391
 30
0.0
 10
25.318743
 20
229.373287
 30
0.0
 10
25.550760
 20
229.373287
 30
0.0
  0
SPLINE
  5
2a4
100
AcDbEntity
  8
0
 62
7
100
AcDbSpline
 70
8
 71
3
 72
8
 73
4
 74
0
 40
0
 40
0
 40
0
 40
0
 40
1
 40
1
 40
1
 40
1
 10
25.550760
 20
229.373287
 30
0.0
 10
25.777116
 20
229.373287
 30
0.0
 10
25.973292
 20
229.342163
 30
0.0
 10
26.139288
 20
229.279915
 30
0.0
  0
SPLINE
  5
2a5
100
AcDbEntity
  8
0
 62
7
100
AcDbSpline
 70
8
 71
3
 72
8
 73
4
 74
0
 40
0
 40
0
 40
0
 40
0
 40
1
 40
1
 40
1
 40
1
 10
26.139288
 20
229.279915
 30
0.0
 10
26.305284
 20
229.219553
 30
0.0
 10
26.442042
 20
229.129954
 30
0.0
 10
26.549562
 20
229.011117
 30
0.0
  0
SPLINE
  5
2a6
100
AcDbEntity
  8
0
 62
7
100
AcDbSpline
 70
8
 71
3
 72
8
 73
4
 74
0
 40
0
 40
0
 40
0
 40
0
 40
1
 40
1
 40
1
 40
1
 10
26.549562
 20
229.011117
 30
0.0
 10
26.658967
 20
228.892281
 30
0.0
 10
26.740079
 20
228.746091
 30
0.0
 10
26.792897
 20
228.572549
 30
0.0
  0
SPLINE
  5
2a7
100
AcDbEntity
  8
0
 62
7
100
AcDbSpline
 70
8
 71
3
 72
8
 73
4
 74
0
 40
0
 40
0
 40
0
 40
0
 40
1
 40
1
 40
1
 40
1
 10
26.792897
 20
228.572549
 30
0.0
 10
26.845713
 20
228.399009
 30
0.0
 10
26.872121
 20
228.200004
 30
0.0
 10
26.872121
 20
227.975533
 30
0.0
  0
LWPOLYLINE
  5
2a8
100
AcDbEntity
  8
0
 62
7
100
AcDbPolyline
 90
1
 70
1
 10
23.012732
 20
227.933083
 30
0.0
  0
SPLINE
  5
2a9
100
AcDbEntity
  8
0
 62
7
100
AcDbSpline
 70
8
 71
3
 72
8
 73
4
 74
0
 40
0
 40
0
 40
0
 40
0
 40
1
 40
1
 40
1
 40
1
 10
26.139288
 20
227.947241
 30
0.0
 10
26.139288
 20
228.071734
 30
0.0
 10
26.128913
 20
228.185855
 30
0.0
 10
26.108162
 20
228.289604
 30
0.0
  0
SPLINE
  5
2aa
100
AcDbEntity
  8
0
 62
7
100
AcDbSpline
 70
8
 71
3
 72
8
 73
4
 74
0
 40
0
 40
0
 40
0
 40
0
 40
1
 40
1
 40
1
 40
1
 10
26.108162
 20
228.289604
 30
0.0
 10
26.089301
 20
228.395236
 30
0.0
 10
26.056291
 20
228.486722
 30
0.0
 10
26.009131
 20
228.564061
 30
0.0
  0
SPLINE
  5
2ab
100
AcDbEntity
  8
0
 62
7
100
AcDbSpline
 70
8
 71
3
 72
8
 73
4
 74
0
 40
0
 40
0
 40
0
 40
0
 40
1
 40
1
 40
1
 40
1
 10
26.009131
 20
228.564061
 30
0.0
 10
25.961976
 20
228.641399
 30
0.0
 10
25.898784
 20
228.701760
 30
0.0
 10
25.819558
 20
228.745145
 30
0.0
  0
SPLINE
  5
2ac
100
AcDbEntity
  8
0
 62
7
100
AcDbSpline
 70
8
 71
3
 72
8
 73
4
 74
0
 40
0
 40
0
 40
0
 40
0
 40
1
 40
1
 40
1
 40
1
 10
25.819558
 20
228.745145
 30
0.0
 10
25.742218
 20
228.788529
 30
0.0
 10
25.644130
 20
228.810222
 30
0.0
 10
25.525293
 20
228.810222
 30
0.0
  0
SPLINE
  5
2ad
100
AcDbEntity
  8
0
 62
7
100
AcDbSpline
 70
8
 71
3
 72
8
 73
4
 74
0
 40
0
 40
0
 40
0
 40
0
 40
1
 40
1
 40
1
 40
1
 10
25.525293
 20
228.810222
 30
0.0
 10
25.419661
 20
228.810222
 30
0.0
 10
25.327232
 20
228.790417
 30
0.0
 10
25.248006
 20
228.750807
 30
0.0
  0
SPLINE
  5
2ae
100
AcDbEntity
  8
0
 62
7
100
AcDbSpline
 70
8
 71
3
 72
8
 73
4
 74
0
 40
0
 40
0
 40
0
 40
0
 40
1
 40
1
 40
1
 40
1
 10
25.248006
 20
228.750807
 30
0.0
 10
25.168781
 20
228.713081
 30
0.0
 10
25.103704
 20
228.656492
 30
0.0
 10
25.052773
 20
228.581040
 30
0.0
  0
SPLINE
  5
2af
100
AcDbEntity
  8
0
 62
7
100
AcDbSpline
 70
8
 71
3
 72
8
 73
4
 74
0
 40
0
 40
0
 40
0
 40
0
 40
1
 40
1
 40
1
 40
1
 10
25.052773
 20
228.581040
 30
0.0
 10
25.001841
 20
228.507473
 30
0.0
 10
24.963171
 20
228.417873
 30
0.0
 10
24.936763
 20
228.312239
 30
0.0
  0
SPLINE
  5
2b0
100
AcDbEntity
  8
0
 62
7
100
AcDbSpline
 70
8
 71
3
 72
8
 73
4
 74
0
 40
0
 40
0
 40
0
 40
0
 40
1
 40
1
 40
1
 40
1
 10
24.936763
 20
228.312239
 30
0.0
 10
24.912242
 20
228.208492
 30
0.0
 10
24.899982
 20
228.089656
 30
0.0
 10
24.899982
 20
227.955729
 30
0.0
  0
SPLINE
  5
2b1
100
AcDbEntity
  8
0
 62
7
100
AcDbSpline
 70
8
 71
3
 72
8
 73
4
 74
0
 40
0
 40
0
 40
0
 40
0
 40
1
 40
1
 40
1
 40
1
 10
24.899982
 20
227.955729
 30
0.0
 10
24.899982
 20
227.831232
 30
0.0
 10
24.910357
 20
227.716166
 30
0.0
 10
24.931106
 20
227.610532
 30
0.0
  0
SPLINE
  5
2b2
100
AcDbEntity
  8
0
 62
7
100
AcDbSpline
 70
8
 71
3
 72
8
 73
4
 74
0
 40
0
 40
0
 40
0
 40
0
 40
1
 40
1
 40
1
 40
1
 10
24.931106
 20
227.610532
 30
0.0
 10
24.951855
 20
227.506785
 30
0.0
 10
24.984866
 20
227.416243
 30
0.0
 10
25.030137
 20
227.338906
 30
0.0
  0
SPLINE
  5
2b3
100
AcDbEntity
  8
0
 62
7
100
AcDbSpline
 70
8
 71
3
 72
8
 73
4
 74
0
 40
0
 40
0
 40
0
 40
0
 40
1
 40
1
 40
1
 40
1
 10
25.030137
 20
227.338906
 30
0.0
 10
25.077295
 20
227.261566
 30
0.0
 10
25.140487
 20
227.201203
 30
0.0
 10
25.219713
 20
227.157817
 30
0.0
  0
SPLINE
  5
2b4
100
AcDbEntity
  8
0
 62
7
100
AcDbSpline
 70
8
 71
3
 72
8
 73
4
 74
0
 40
0
 40
0
 40
0
 40
0
 40
1
 40
1
 40
1
 40
1
 10
25.219713
 20
227.157817
 30
0.0
 10
25.298937
 20
227.116321
 30
0.0
 10
25.397025
 20
227.095574
 30
0.0
 10
25.513976
 20
227.095574
 30
0.0
  0
SPLINE
  5
2b5
100
AcDbEntity
  8
0
 62
7
100
AcDbSpline
 70
8
 71
3
 72
8
 73
4
 74
0
 40
0
 40
0
 40
0
 40
0
 40
1
 40
1
 40
1
 40
1
 10
25.513976
 20
227.095574
 30
0.0
 10
25.621496
 20
227.095574
 30
0.0
 10
25.714868
 20
227.114436
 30
0.0
 10
25.794091
 20
227.152160
 30
0.0
  0
SPLINE
  5
2b6
100
AcDbEntity
  8
0
 62
7
100
AcDbSpline
 70
8
 71
3
 72
8
 73
4
 74
0
 40
0
 40
0
 40
0
 40
0
 40
1
 40
1
 40
1
 40
1
 10
25.794091
 20
227.152160
 30
0.0
 10
25.873318
 20
227.191772
 30
0.0
 10
25.938396
 20
227.248361
 30
0.0
 10
25.989325
 20
227.321927
 30
0.0
  0
SPLINE
  5
2b7
100
AcDbEntity
  8
0
 62
7
100
AcDbSpline
 70
8
 71
3
 72
8
 73
4
 74
0
 40
0
 40
0
 40
0
 40
0
 40
1
 40
1
 40
1
 40
1
 10
25.989325
 20
227.321927
 30
0.0
 10
26.040254
 20
227.395494
 30
0.0
 10
26.077980
 20
227.484150
 30
0.0
 10
26.102506
 20
227.587897
 30
0.0
  0
SPLINE
  5
2b8
100
AcDbEntity
  8
0
 62
7
100
AcDbSpline
 70
8
 71
3
 72
8
 73
4
 74
0
 40
0
 40
0
 40
0
 40
0
 40
1
 40
1
 40
1
 40
1
 10
26.102506
 20
227.587897
 30
0.0
 10
26.127027
 20
227.693531
 30
0.0
 10
26.139288
 20
227.813312
 30
0.0
 10
26.139288
 20
227.947241
 30
0.0
  0
LWPOLYLINE
  5
2b9
100
AcDbEntity
  8
0
 62
7
100
AcDbPolyline
 90
1
 70
1
 10
26.872121
 20
227.975533
 30
0.0
  0
SPLINE
  5
2ba
100
AcDbEntity
  8
0
 62
7
100
AcDbSpline
 70
8
 71
3
 72
8
 73
4
 74
0
 40
0
 40
0
 40
0
 40
0
 40
1
 40
1
 40
1
 40
1
 10
29.585571
 20
226.679641
 30
0.0
 10
29.585571
 20
226.653232
 30
0.0
 10
29.576141
 20
226.632482
 30
0.0
 10
29.557280
 20
226.617392
 30
0.0
  0
SPLINE
  5
2bb
100
AcDbEntity
  8
0
 62
7
100
AcDbSpline
 70
8
 71
3
 72
8
 73
4
 74
0
 40
0
 40
0
 40
0
 40
0
 40
1
 40
1
 40
1
 40
1
 10
29.557280
 20
226.617392
 30
0.0
 10
29.538416
 20
226.602293
 30
0.0
 10
29.508235
 20
226.591919
 30
0.0
 10
29.466736
 20
226.586269
 30
0.0
  0
SPLINE
  5
2bc
100
AcDbEntity
  8
0
 62
7
100
AcDbSpline
 70
8
 71
3
 72
8
 73
4
 74
0
 40
0
 40
0
 40
0
 40
0
 40
1
 40
1
 40
1
 40
1
 10
29.466736
 20
226.586269
 30
0.0
 10
29.427123
 20
226.578720
 30
0.0
 10
29.367704
 20
226.574945
 30
0.0
 10
29.288479
 20
226.574945
 30
0.0
  0
SPLINE
  5
2bd
100
AcDbEntity
  8
0
 62
7
100
AcDbSpline
 70
8
 71
3
 72
8
 73
4
 74
0
 40
0
 40
0
 40
0
 40
0
 40
1
 40
1
 40
1
 40
1
 10
29.288479
 20
226.574945
 30
0.0
 10
29.203595
 20
226.574945
 30
0.0
 10
29.141347
 20
226.578720
 30
0.0
 10
29.101736
 20
226.586269
 30
0.0
  0
SPLINE
  5
2be
100
AcDbEntity
  8
0
 62
7
100
AcDbSpline
 70
8
 71
3
 72
8
 73
4
 74
0
 40
0
 40
0
 40
0
 40
0
 40
1
 40
1
 40
1
 40
1
 10
29.101736
 20
226.586269
 30
0.0
 10
29.064010
 20
226.591931
 30
0.0
 10
29.036658
 20
226.602306
 30
0.0
 10
29.019681
 20
226.617392
 30
0.0
  0
SPLINE
  5
2bf
100
AcDbEntity
  8
0
 62
7
100
AcDbSpline
 70
8
 71
3
 72
8
 73
4
 74
0
 40
0
 40
0
 40
0
 40
0
 40
1
 40
1
 40
1
 40
1
 10
29.019681
 20
226.617392
 30
0.0
 10
29.004582
 20
226.632491
 30
0.0
 10
28.997032
 20
226.653240
 30
0.0
 10
28.997032
 20
226.679641
 30
0.0
  0
LWPOLYLINE
  5
2c0
100
AcDbEntity
  8
0
 62
7
100
AcDbPolyline
 90
1
 70
1
 10
26.139288
 20
227.947241
 30
0.0
  0
SPLINE
  5
2c1
100
AcDbEntity
  8
0
 62
7
100
AcDbSpline
 70
8
 71
3
 72
8
 73
4
 74
0
 40
0
 40
0
 40
0
 40
0
 40
1
 40
1
 40
1
 40
1
 10
28.997032
 20
226.880533
 30
0.0
 10
28.893287
 20
226.769241
 30
0.0
 10
28.774450
 20
226.682470
 30
0.0
 10
28.640519
 20
226.620220
 30
0.0
  0
SPLINE
  5
2c2
100
AcDbEntity
  8
0
 62
7
100
AcDbSpline
 70
8
 71
3
 72
8
 73
4
 74
0
 40
0
 40
0
 40
0
 40
0
 40
1
 40
1
 40
1
 40
1
 10
28.640519
 20
226.620220
 30
0.0
 10
28.508478
 20
226.557973
 30
0.0
 10
28.361347
 20
226.526849
 30
0.0
 10
28.199126
 20
226.526849
 30
0.0
  0
SPLINE
  5
2c3
100
AcDbEntity
  8
0
 62
7
100
AcDbSpline
 70
8
 71
3
 72
8
 73
4
 74
0
 40
0
 40
0
 40
0
 40
0
 40
1
 40
1
 40
1
 40
1
 10
28.199126
 20
226.526849
 30
0.0
 10
28.065197
 20
226.526849
 30
0.0
 10
27.941644
 20
226.544769
 30
0.0
 10
27.828466
 20
226.580610
 30
0.0
  0
SPLINE
  5
2c4
100
AcDbEntity
  8
0
 62
7
100
AcDbSpline
 70
8
 71
3
 72
8
 73
4
 74
0
 40
0
 40
0
 40
0
 40
0
 40
1
 40
1
 40
1
 40
1
 10
27.828466
 20
226.580610
 30
0.0
 10
27.717173
 20
226.614563
 30
0.0
 10
27.620028
 20
226.665493
 30
0.0
 10
27.537030
 20
226.733401
 30
0.0
  0
SPLINE
  5
2c5
100
AcDbEntity
  8
0
 62
7
100
AcDbSpline
 70
8
 71
3
 72
8
 73
4
 74
0
 40
0
 40
0
 40
0
 40
0
 40
1
 40
1
 40
1
 40
1
 10
27.537030
 20
226.733401
 30
0.0
 10
27.455921
 20
226.803195
 30
0.0
 10
27.392730
 20
226.889021
 30
0.0
 10
27.347458
 20
226.990881
 30
0.0
  0
SPLINE
  5
2c6
100
AcDbEntity
  8
0
 62
7
100
AcDbSpline
 70
8
 71
3
 72
8
 73
4
 74
0
 40
0
 40
0
 40
0
 40
0
 40
1
 40
1
 40
1
 40
1
 10
27.347458
 20
226.990881
 30
0.0
 10
27.302188
 20
227.092740
 30
0.0
 10
27.279553
 20
227.211577
 30
0.0
 10
27.279553
 20
227.347393
 30
0.0
  0
SPLINE
  5
2c7
100
AcDbEntity
  8
0
 62
7
100
AcDbSpline
 70
8
 71
3
 72
8
 73
4
 74
0
 40
0
 40
0
 40
0
 40
0
 40
1
 40
1
 40
1
 40
1
 10
27.279553
 20
227.347393
 30
0.0
 10
27.279553
 20
227.494525
 30
0.0
 10
27.307848
 20
227.621850
 30
0.0
 10
27.364437
 20
227.729370
 30
0.0
  0
SPLINE
  5
2c8
100
AcDbEntity
  8
0
 62
7
100
AcDbSpline
 70
8
 71
3
 72
8
 73
4
 74
0
 40
0
 40
0
 40
0
 40
0
 40
1
 40
1
 40
1
 40
1
 10
27.364437
 20
227.729370
 30
0.0
 10
27.422910
 20
227.838775
 30
0.0
 10
27.508736
 20
227.928375
 30
0.0
 10
27.621916
 20
227.998171
 30
0.0
  0
SPLINE
  5
2c9
100
AcDbEntity
  8
0
 62
7
100
AcDbSpline
 70
8
 71
3
 72
8
 73
4
 74
0
 40
0
 40
0
 40
0
 40
0
 40
1
 40
1
 40
1
 40
1
 10
27.621916
 20
227.998171
 30
0.0
 10
27.736978
 20
228.069850
 30
0.0
 10
27.879394
 20
228.122666
 30
0.0
 10
28.049165
 20
228.156619
 30
0.0
  0
SPLINE
  5
2ca
100
AcDbEntity
  8
0
 62
7
100
AcDbSpline
 70
8
 71
3
 72
8
 73
4
 74
0
 40
0
 40
0
 40
0
 40
0
 40
1
 40
1
 40
1
 40
1
 10
28.049165
 20
228.156619
 30
0.0
 10
28.218931
 20
228.190572
 30
0.0
 10
28.416049
 20
228.207549
 30
0.0
 10
28.640519
 20
228.207549
 30
0.0
  0
LWPOLYLINE
  5
2cb
100
AcDbEntity
  8
0
 62
7
100
AcDbPolyline
 90
2
 70
0
 10
28.997032
 20
226.679641
 30
0.0
 10
28.997032
 20
226.880533
 30
0.0
  0
SPLINE
  5
2cc
100
AcDbEntity
  8
0
 62
7
100
AcDbSpline
 70
8
 71
3
 72
8
 73
4
 74
0
 40
0
 40
0
 40
0
 40
0
 40
1
 40
1
 40
1
 40
1
 10
28.886682
 20
228.360340
 30
0.0
 10
28.886682
 20
228.439563
 30
0.0
 10
28.878198
 20
228.508413
 30
0.0
 10
28.861230
 20
228.566890
 30
0.0
  0
SPLINE
  5
2cd
100
AcDbEntity
  8
0
 62
7
100
AcDbSpline
 70
8
 71
3
 72
8
 73
4
 74
0
 40
0
 40
0
 40
0
 40
0
 40
1
 40
1
 40
1
 40
1
 10
28.861230
 20
228.566890
 30
0.0
 10
28.846148
 20
228.627252
 30
0.0
 10
28.819740
 20
228.677239
 30
0.0
 10
28.782005
 20
228.716850
 30
0.0
  0
SPLINE
  5
2ce
100
AcDbEntity
  8
0
 62
7
100
AcDbSpline
 70
8
 71
3
 72
8
 73
4
 74
0
 40
0
 40
0
 40
0
 40
0
 40
1
 40
1
 40
1
 40
1
 10
28.782005
 20
228.716850
 30
0.0
 10
28.746165
 20
228.756464
 30
0.0
 10
28.697120
 20
228.785702
 30
0.0
 10
28.634871
 20
228.804565
 30
0.0
  0
SPLINE
  5
2cf
100
AcDbEntity
  8
0
 62
7
100
AcDbSpline
 70
8
 71
3
 72
8
 73
4
 74
0
 40
0
 40
0
 40
0
 40
0
 40
1
 40
1
 40
1
 40
1
 10
28.634871
 20
228.804565
 30
0.0
 10
28.574510
 20
228.823430
 30
0.0
 10
28.499059
 20
228.832862
 30
0.0
 10
28.408517
 20
228.832862
 30
0.0
  0
SPLINE
  5
2d0
100
AcDbEntity
  8
0
 62
7
100
AcDbSpline
 70
8
 71
3
 72
8
 73
4
 74
0
 40
0
 40
0
 40
0
 40
0
 40
1
 40
1
 40
1
 40
1
 10
28.408517
 20
228.832862
 30
0.0
 10
28.289678
 20
228.832862
 30
0.0
 10
28.183102
 20
228.819657
 30
0.0
 10
28.088786
 20
228.793246
 30
0.0
  0
SPLINE
  5
2d1
100
AcDbEntity
  8
0
 62
7
100
AcDbSpline
 70
8
 71
3
 72
8
 73
4
 74
0
 40
0
 40
0
 40
0
 40
0
 40
1
 40
1
 40
1
 40
1
 10
28.088786
 20
228.793246
 30
0.0
 10
27.996357
 20
228.766839
 30
0.0
 10
27.914303
 20
228.737602
 30
0.0
 10
27.842623
 20
228.705534
 30
0.0
  0
SPLINE
  5
2d2
100
AcDbEntity
  8
0
 62
7
100
AcDbSpline
 70
8
 71
3
 72
8
 73
4
 74
0
 40
0
 40
0
 40
0
 40
0
 40
1
 40
1
 40
1
 40
1
 10
27.842623
 20
228.705534
 30
0.0
 10
27.770944
 20
228.673467
 30
0.0
 10
27.710582
 20
228.644229
 30
0.0
 10
27.661537
 20
228.617822
 30
0.0
  0
SPLINE
  5
2d3
100
AcDbEntity
  8
0
 62
7
100
AcDbSpline
 70
8
 71
3
 72
8
 73
4
 74
0
 40
0
 40
0
 40
0
 40
0
 40
1
 40
1
 40
1
 40
1
 10
27.661537
 20
228.617822
 30
0.0
 10
27.614380
 20
228.591413
 30
0.0
 10
27.575710
 20
228.578209
 30
0.0
 10
27.545528
 20
228.578209
 30
0.0
  0
SPLINE
  5
2d4
100
AcDbEntity
  8
0
 62
7
100
AcDbSpline
 70
8
 71
3
 72
8
 73
4
 74
0
 40
0
 40
0
 40
0
 40
0
 40
1
 40
1
 40
1
 40
1
 10
27.545528
 20
228.578209
 30
0.0
 10
27.524779
 20
228.578209
 30
0.0
 10
27.505916
 20
228.584806
 30
0.0
 10
27.488939
 20
228.597999
 30
0.0
  0
SPLINE
  5
2d5
100
AcDbEntity
  8
0
 62
7
100
AcDbSpline
 70
8
 71
3
 72
8
 73
4
 74
0
 40
0
 40
0
 40
0
 40
0
 40
1
 40
1
 40
1
 40
1
 10
27.488939
 20
228.597999
 30
0.0
 10
27.473858
 20
228.611211
 30
0.0
 10
27.460654
 20
228.630075
 30
0.0
 10
27.449328
 20
228.654591
 30
0.0
  0
SPLINE
  5
2d6
100
AcDbEntity
  8
0
 62
7
100
AcDbSpline
 70
8
 71
3
 72
8
 73
4
 74
0
 40
0
 40
0
 40
0
 40
0
 40
1
 40
1
 40
1
 40
1
 10
27.449328
 20
228.654591
 30
0.0
 10
27.439891
 20
228.679111
 30
0.0
 10
27.432342
 20
228.709292
 30
0.0
 10
27.426680
 20
228.745134
 30
0.0
  0
SPLINE
  5
2d7
100
AcDbEntity
  8
0
 62
7
100
AcDbSpline
 70
8
 71
3
 72
8
 73
4
 74
0
 40
0
 40
0
 40
0
 40
0
 40
1
 40
1
 40
1
 40
1
 10
27.426680
 20
228.745134
 30
0.0
 10
27.421018
 20
228.780973
 30
0.0
 10
27.418187
 20
228.820585
 30
0.0
 10
27.418187
 20
228.863972
 30
0.0
  0
SPLINE
  5
2d8
100
AcDbEntity
  8
0
 62
7
100
AcDbSpline
 70
8
 71
3
 72
8
 73
4
 74
0
 40
0
 40
0
 40
0
 40
0
 40
1
 40
1
 40
1
 40
1
 10
27.418187
 20
228.863972
 30
0.0
 10
27.418187
 20
228.922445
 30
0.0
 10
27.422905
 20
228.968660
 30
0.0
 10
27.432342
 20
229.002616
 30
0.0
  0
SPLINE
  5
2d9
100
AcDbEntity
  8
0
 62
7
100
AcDbSpline
 70
8
 71
3
 72
8
 73
4
 74
0
 40
0
 40
0
 40
0
 40
0
 40
1
 40
1
 40
1
 40
1
 10
27.432342
 20
229.002616
 30
0.0
 10
27.441779
 20
229.036568
 30
0.0
 10
27.459698
 20
229.066748
 30
0.0
 10
27.486100
 20
229.093157
 30
0.0
  0
SPLINE
  5
2da
100
AcDbEntity
  8
0
 62
7
100
AcDbSpline
 70
8
 71
3
 72
8
 73
4
 74
0
 40
0
 40
0
 40
0
 40
0
 40
1
 40
1
 40
1
 40
1
 10
27.486100
 20
229.093157
 30
0.0
 10
27.512509
 20
229.121449
 30
0.0
 10
27.558724
 20
229.151630
 30
0.0
 10
27.624744
 20
229.183700
 30
0.0
  0
SPLINE
  5
2db
100
AcDbEntity
  8
0
 62
7
100
AcDbSpline
 70
8
 71
3
 72
8
 73
4
 74
0
 40
0
 40
0
 40
0
 40
0
 40
1
 40
1
 40
1
 40
1
 10
27.624744
 20
229.183700
 30
0.0
 10
27.690765
 20
229.217655
 30
0.0
 10
27.768103
 20
229.248778
 30
0.0
 10
27.856760
 20
229.277071
 30
0.0
  0
SPLINE
  5
2dc
100
AcDbEntity
  8
0
 62
7
100
AcDbSpline
 70
8
 71
3
 72
8
 73
4
 74
0
 40
0
 40
0
 40
0
 40
0
 40
1
 40
1
 40
1
 40
1
 10
27.856760
 20
229.277071
 30
0.0
 10
27.945417
 20
229.305366
 30
0.0
 10
28.041618
 20
229.328002
 30
0.0
 10
28.145365
 20
229.344979
 30
0.0
  0
SPLINE
  5
2dd
100
AcDbEntity
  8
0
 62
7
100
AcDbSpline
 70
8
 71
3
 72
8
 73
4
 74
0
 40
0
 40
0
 40
0
 40
0
 40
1
 40
1
 40
1
 40
1
 10
28.145365
 20
229.344979
 30
0.0
 10
28.250997
 20
229.363842
 30
0.0
 10
28.359460
 20
229.373274
 30
0.0
 10
28.470752
 20
229.373274
 30
0.0
  0
SPLINE
  5
2de
100
AcDbEntity
  8
0
 62
7
100
AcDbSpline
 70
8
 71
3
 72
8
 73
4
 74
0
 40
0
 40
0
 40
0
 40
0
 40
1
 40
1
 40
1
 40
1
 10
28.470752
 20
229.373274
 30
0.0
 10
28.668816
 20
229.373274
 30
0.0
 10
28.837640
 20
229.353468
 30
0.0
 10
28.977226
 20
229.313856
 30
0.0
  0
SPLINE
  5
2df
100
AcDbEntity
  8
0
 62
7
100
AcDbSpline
 70
8
 71
3
 72
8
 73
4
 74
0
 40
0
 40
0
 40
0
 40
0
 40
1
 40
1
 40
1
 40
1
 10
28.977226
 20
229.313856
 30
0.0
 10
29.118700
 20
229.276128
 30
0.0
 10
29.234708
 20
229.216708
 30
0.0
 10
29.325250
 20
229.135596
 30
0.0
  0
SPLINE
  5
2e0
100
AcDbEntity
  8
0
 62
7
100
AcDbSpline
 70
8
 71
3
 72
8
 73
4
 74
0
 40
0
 40
0
 40
0
 40
0
 40
1
 40
1
 40
1
 40
1
 10
29.325250
 20
229.135596
 30
0.0
 10
29.415793
 20
229.056372
 30
0.0
 10
29.481813
 20
228.953570
 30
0.0
 10
29.523312
 20
228.827189
 30
0.0
  0
SPLINE
  5
2e1
100
AcDbEntity
  8
0
 62
7
100
AcDbSpline
 70
8
 71
3
 72
8
 73
4
 74
0
 40
0
 40
0
 40
0
 40
0
 40
1
 40
1
 40
1
 40
1
 10
29.523312
 20
228.827189
 30
0.0
 10
29.564811
 20
228.700805
 30
0.0
 10
29.585561
 20
228.550843
 30
0.0
 10
29.585561
 20
228.377303
 30
0.0
  0
LWPOLYLINE
  5
2e2
100
AcDbEntity
  8
0
 62
7
100
AcDbPolyline
 90
3
 70
0
 10
28.640519
 20
228.207549
 30
0.0
 10
28.886682
 20
228.207549
 30
0.0
 10
28.886682
 20
228.360340
 30
0.0
  0
LWPOLYLINE
  5
2e3
100
AcDbEntity
  8
0
 62
7
100
AcDbPolyline
 90
2
 70
0
 10
29.585561
 20
228.377303
 30
0.0
 10
29.585571
 20
226.679641
 30
0.0
  0
SPLINE
  5
2e4
100
AcDbEntity
  8
0
 62
7
100
AcDbSpline
 70
8
 71
3
 72
8
 73
4
 74
0
 40
0
 40
0
 40
0
 40
0
 40
1
 40
1
 40
1
 40
1
 10
28.615069
 20
227.760495
 30
0.0
 10
28.500004
 20
227.760495
 30
0.0
 10
28.401915
 20
227.752011
 30
0.0
 10
28.320802
 20
227.735042
 30
0.0
  0
SPLINE
  5
2e5
100
AcDbEntity
  8
0
 62
7
100
AcDbSpline
 70
8
 71
3
 72
8
 73
4
 74
0
 40
0
 40
0
 40
0
 40
0
 40
1
 40
1
 40
1
 40
1
 10
28.320802
 20
227.735042
 30
0.0
 10
28.239693
 20
227.718074
 30
0.0
 10
28.173674
 20
227.692609
 30
0.0
 10
28.122743
 20
227.658647
 30
0.0
  0
SPLINE
  5
2e6
100
AcDbEntity
  8
0
 62
7
100
AcDbSpline
 70
8
 71
3
 72
8
 73
4
 74
0
 40
0
 40
0
 40
0
 40
0
 40
1
 40
1
 40
1
 40
1
 10
28.122743
 20
227.658647
 30
0.0
 10
28.071811
 20
227.624693
 30
0.0
 10
28.034084
 20
227.583194
 30
0.0
 10
28.009562
 20
227.534150
 30
0.0
  0
SPLINE
  5
2e7
100
AcDbEntity
  8
0
 62
7
100
AcDbSpline
 70
8
 71
3
 72
8
 73
4
 74
0
 40
0
 40
0
 40
0
 40
0
 40
1
 40
1
 40
1
 40
1
 10
28.009562
 20
227.534150
 30
0.0
 10
27.986928
 20
227.486992
 30
0.0
 10
27.975611
 20
227.432289
 30
0.0
 10
27.975611
 20
227.370042
 30
0.0
  0
SPLINE
  5
2e8
100
AcDbEntity
  8
0
 62
7
100
AcDbSpline
 70
8
 71
3
 72
8
 73
4
 74
0
 40
0
 40
0
 40
0
 40
0
 40
1
 40
1
 40
1
 40
1
 10
27.975611
 20
227.370042
 30
0.0
 10
27.975611
 20
227.264408
 30
0.0
 10
28.008620
 20
227.181411
 30
0.0
 10
28.074639
 20
227.121050
 30
0.0
  0
SPLINE
  5
2e9
100
AcDbEntity
  8
0
 62
7
100
AcDbSpline
 70
8
 71
3
 72
8
 73
4
 74
0
 40
0
 40
0
 40
0
 40
0
 40
1
 40
1
 40
1
 40
1
 10
28.074639
 20
227.121050
 30
0.0
 10
28.142545
 20
227.060688
 30
0.0
 10
28.235919
 20
227.030507
 30
0.0
 10
28.354759
 20
227.030507
 30
0.0
  0
SPLINE
  5
2ea
100
AcDbEntity
  8
0
 62
7
100
AcDbSpline
 70
8
 71
3
 72
8
 73
4
 74
0
 40
0
 40
0
 40
0
 40
0
 40
1
 40
1
 40
1
 40
1
 10
28.354759
 20
227.030507
 30
0.0
 10
28.454733
 20
227.030507
 30
0.0
 10
28.546218
 20
227.055972
 30
0.0
 10
28.629216
 20
227.106903
 30
0.0
  0
SPLINE
  5
2eb
100
AcDbEntity
  8
0
 62
7
100
AcDbSpline
 70
8
 71
3
 72
8
 73
4
 74
0
 40
0
 40
0
 40
0
 40
0
 40
1
 40
1
 40
1
 40
1
 10
28.629216
 20
227.106903
 30
0.0
 10
28.714100
 20
227.157834
 30
0.0
 10
28.799926
 20
227.232343
 30
0.0
 10
28.886696
 20
227.330431
 30
0.0
  0
LWPOLYLINE
  5
2ec
100
AcDbEntity
  8
0
 62
7
100
AcDbPolyline
 90
2
 70
0
 10
28.886696
 20
227.760495
 30
0.0
 10
28.615069
 20
227.760495
 30
0.0
  0
SPLINE
  5
2ed
100
AcDbEntity
  8
0
 62
7
100
AcDbSpline
 70
8
 71
3
 72
8
 73
4
 74
0
 40
0
 40
0
 40
0
 40
0
 40
1
 40
1
 40
1
 40
1
 10
31.917048
 20
228.977161
 30
0.0
 10
31.917048
 20
228.909254
 30
0.0
 10
31.915161
 20
228.853608
 30
0.0
 10
31.911386
 20
228.810222
 30
0.0
  0
SPLINE
  5
2ee
100
AcDbEntity
  8
0
 62
7
100
AcDbSpline
 70
8
 71
3
 72
8
 73
4
 74
0
 40
0
 40
0
 40
0
 40
0
 40
1
 40
1
 40
1
 40
1
 10
31.911386
 20
228.810222
 30
0.0
 10
31.907629
 20
228.766837
 30
0.0
 10
31.901967
 20
228.732884
 30
0.0
 10
31.894400
 20
228.708362
 30
0.0
  0
SPLINE
  5
2ef
100
AcDbEntity
  8
0
 62
7
100
AcDbSpline
 70
8
 71
3
 72
8
 73
4
 74
0
 40
0
 40
0
 40
0
 40
0
 40
1
 40
1
 40
1
 40
1
 10
31.894400
 20
228.708362
 30
0.0
 10
31.886850
 20
228.683841
 30
0.0
 10
31.876476
 20
228.666864
 30
0.0
 10
31.863277
 20
228.657433
 30
0.0
  0
SPLINE
  5
2f0
100
AcDbEntity
  8
0
 62
7
100
AcDbSpline
 70
8
 71
3
 72
8
 73
4
 74
0
 40
0
 40
0
 40
0
 40
0
 40
1
 40
1
 40
1
 40
1
 10
31.863277
 20
228.657433
 30
0.0
 10
31.851953
 20
228.647996
 30
0.0
 10
31.836863
 20
228.643278
 30
0.0
 10
31.818007
 20
228.643278
 30
0.0
  0
SPLINE
  5
2f1
100
AcDbEntity
  8
0
 62
7
100
AcDbSpline
 70
8
 71
3
 72
8
 73
4
 74
0
 40
0
 40
0
 40
0
 40
0
 40
1
 40
1
 40
1
 40
1
 10
31.818007
 20
228.643278
 30
0.0
 10
31.802908
 20
228.643278
 30
0.0
 10
31.785931
 20
228.646109
 30
0.0
 10
31.767077
 20
228.651771
 30
0.0
  0
SPLINE
  5
2f2
100
AcDbEntity
  8
0
 62
7
100
AcDbSpline
 70
8
 71
3
 72
8
 73
4
 74
0
 40
0
 40
0
 40
0
 40
0
 40
1
 40
1
 40
1
 40
1
 10
31.767077
 20
228.651771
 30
0.0
 10
31.748212
 20
228.659320
 30
0.0
 10
31.726519
 20
228.666861
 30
0.0
 10
31.701997
 20
228.674393
 30
0.0
  0
SPLINE
  5
2f3
100
AcDbEntity
  8
0
 62
7
100
AcDbSpline
 70
8
 71
3
 72
8
 73
4
 74
0
 40
0
 40
0
 40
0
 40
0
 40
1
 40
1
 40
1
 40
1
 10
31.701997
 20
228.674393
 30
0.0
 10
31.679363
 20
228.681942
 30
0.0
 10
31.653899
 20
228.688548
 30
0.0
 10
31.625604
 20
228.694210
 30
0.0
  0
SPLINE
  5
2f4
100
AcDbEntity
  8
0
 62
7
100
AcDbSpline
 70
8
 71
3
 72
8
 73
4
 74
0
 40
0
 40
0
 40
0
 40
0
 40
1
 40
1
 40
1
 40
1
 10
31.625604
 20
228.694210
 30
0.0
 10
31.597310
 20
228.701759
 30
0.0
 10
31.566186
 20
228.705534
 30
0.0
 10
31.532233
 20
228.705534
 30
0.0
  0
SPLINE
  5
2f5
100
AcDbEntity
  8
0
 62
7
100
AcDbSpline
 70
8
 71
3
 72
8
 73
4
 74
0
 40
0
 40
0
 40
0
 40
0
 40
1
 40
1
 40
1
 40
1
 10
31.532233
 20
228.705534
 30
0.0
 10
31.492618
 20
228.705534
 30
0.0
 10
31.453004
 20
228.697050
 30
0.0
 10
31.413392
 20
228.680081
 30
0.0
  0
SPLINE
  5
2f6
100
AcDbEntity
  8
0
 62
7
100
AcDbSpline
 70
8
 71
3
 72
8
 73
4
 74
0
 40
0
 40
0
 40
0
 40
0
 40
1
 40
1
 40
1
 40
1
 10
31.413392
 20
228.680081
 30
0.0
 10
31.373781
 20
228.664982
 30
0.0
 10
31.332283
 20
228.640460
 30
0.0
 10
31.288898
 20
228.606514
 30
0.0
  0
SPLINE
  5
2f7
100
AcDbEntity
  8
0
 62
7
100
AcDbSpline
 70
8
 71
3
 72
8
 73
4
 74
0
 40
0
 40
0
 40
0
 40
0
 40
1
 40
1
 40
1
 40
1
 10
31.288898
 20
228.606514
 30
0.0
 10
31.247399
 20
228.572559
 30
0.0
 10
31.203070
 20
228.527287
 30
0.0
 10
31.155911
 20
228.470698
 30
0.0
  0
SPLINE
  5
2f8
100
AcDbEntity
  8
0
 62
7
100
AcDbSpline
 70
8
 71
3
 72
8
 73
4
 74
0
 40
0
 40
0
 40
0
 40
0
 40
1
 40
1
 40
1
 40
1
 10
31.155911
 20
228.470698
 30
0.0
 10
31.110642
 20
228.414109
 30
0.0
 10
31.061599
 20
228.344316
 30
0.0
 10
31.008781
 20
228.261320
 30
0.0
  0
LWPOLYLINE
  5
2f9
100
AcDbEntity
  8
0
 62
7
100
AcDbPolyline
 90
2
 70
0
 10
28.886696
 20
227.330431
 30
0.0
 10
28.886696
 20
227.760495
 30
0.0
  0
SPLINE
  5
2fa
100
AcDbEntity
  8
0
 62
7
100
AcDbSpline
 70
8
 71
3
 72
8
 73
4
 74
0
 40
0
 40
0
 40
0
 40
0
 40
1
 40
1
 40
1
 40
1
 10
31.008781
 20
226.688139
 30
0.0
 10
31.008781
 20
226.669274
 30
0.0
 10
31.003119
 20
226.652298
 30
0.0
 10
30.991795
 20
226.637209
 30
0.0
  0
SPLINE
  5
2fb
100
AcDbEntity
  8
0
 62
7
100
AcDbSpline
 70
8
 71
3
 72
8
 73
4
 74
0
 40
0
 40
0
 40
0
 40
0
 40
1
 40
1
 40
1
 40
1
 10
30.991795
 20
226.637209
 30
0.0
 10
30.980471
 20
226.623998
 30
0.0
 10
30.960664
 20
226.612680
 30
0.0
 10
30.932375
 20
226.603255
 30
0.0
  0
SPLINE
  5
2fc
100
AcDbEntity
  8
0
 62
7
100
AcDbSpline
 70
8
 71
3
 72
8
 73
4
 74
0
 40
0
 40
0
 40
0
 40
0
 40
1
 40
1
 40
1
 40
1
 10
30.932375
 20
226.603255
 30
0.0
 10
30.905966
 20
226.593819
 30
0.0
 10
30.870126
 20
226.587213
 30
0.0
 10
30.824856
 20
226.583438
 30
0.0
  0
SPLINE
  5
2fd
100
AcDbEntity
  8
0
 62
7
100
AcDbSpline
 70
8
 71
3
 72
8
 73
4
 74
0
 40
0
 40
0
 40
0
 40
0
 40
1
 40
1
 40
1
 40
1
 10
30.824856
 20
226.583438
 30
0.0
 10
30.779586
 20
226.577794
 30
0.0
 10
30.722053
 20
226.574971
 30
0.0
 10
30.652258
 20
226.574971
 30
0.0
  0
SPLINE
  5
2fe
100
AcDbEntity
  8
0
 62
7
100
AcDbSpline
 70
8
 71
3
 72
8
 73
4
 74
0
 40
0
 40
0
 40
0
 40
0
 40
1
 40
1
 40
1
 40
1
 10
30.652258
 20
226.574971
 30
0.0
 10
30.582464
 20
226.574971
 30
0.0
 10
30.524931
 20
226.577794
 30
0.0
 10
30.479659
 20
226.583438
 30
0.0
  0
SPLINE
  5
2ff
100
AcDbEntity
  8
0
 62
7
100
AcDbSpline
 70
8
 71
3
 72
8
 73
4
 74
0
 40
0
 40
0
 40
0
 40
0
 40
1
 40
1
 40
1
 40
1
 10
30.479659
 20
226.583438
 30
0.0
 10
30.434389
 20
226.587213
 30
0.0
 10
30.397607
 20
226.593819
 30
0.0
 10
30.369312
 20
226.603255
 30
0.0
  0
SPLINE
  5
300
100
AcDbEntity
  8
0
 62
7
100
AcDbSpline
 70
8
 71
3
 72
8
 73
4
 74
0
 40
0
 40
0
 40
0
 40
0
 40
1
 40
1
 40
1
 40
1
 10
30.369312
 20
226.603255
 30
0.0
 10
30.342905
 20
226.612692
 30
0.0
 10
30.324042
 20
226.624010
 30
0.0
 10
30.312723
 20
226.637209
 30
0.0
  0
SPLINE
  5
301
100
AcDbEntity
  8
0
 62
7
100
AcDbSpline
 70
8
 71
3
 72
8
 73
4
 74
0
 40
0
 40
0
 40
0
 40
0
 40
1
 40
1
 40
1
 40
1
 10
30.312723
 20
226.637209
 30
0.0
 10
30.301399
 20
226.652291
 30
0.0
 10
30.295737
 20
226.669267
 30
0.0
 10
30.295737
 20
226.688139
 30
0.0
  0
LWPOLYLINE
  5
302
100
AcDbEntity
  8
0
 62
7
100
AcDbPolyline
 90
2
 70
0
 10
31.008781
 20
228.261320
 30
0.0
 10
31.008781
 20
226.688139
 30
0.0
  0
SPLINE
  5
303
100
AcDbEntity
  8
0
 62
7
100
AcDbSpline
 70
8
 71
3
 72
8
 73
4
 74
0
 40
0
 40
0
 40
0
 40
0
 40
1
 40
1
 40
1
 40
1
 10
30.295737
 20
229.212015
 30
0.0
 10
30.295737
 20
229.230878
 30
0.0
 10
30.300455
 20
229.246912
 30
0.0
 10
30.309892
 20
229.260117
 30
0.0
  0
SPLINE
  5
304
100
AcDbEntity
  8
0
 62
7
100
AcDbSpline
 70
8
 71
3
 72
8
 73
4
 74
0
 40
0
 40
0
 40
0
 40
0
 40
1
 40
1
 40
1
 40
1
 10
30.309892
 20
229.260117
 30
0.0
 10
30.319329
 20
229.275216
 30
0.0
 10
30.336306
 20
229.287476
 30
0.0
 10
30.360824
 20
229.296899
 30
0.0
  0
SPLINE
  5
305
100
AcDbEntity
  8
0
 62
7
100
AcDbSpline
 70
8
 71
3
 72
8
 73
4
 74
0
 40
0
 40
0
 40
0
 40
0
 40
1
 40
1
 40
1
 40
1
 10
30.360824
 20
229.296899
 30
0.0
 10
30.385346
 20
229.306336
 30
0.0
 10
30.416471
 20
229.312942
 30
0.0
 10
30.454199
 20
229.316716
 30
0.0
  0
SPLINE
  5
306
100
AcDbEntity
  8
0
 62
7
100
AcDbSpline
 70
8
 71
3
 72
8
 73
4
 74
0
 40
0
 40
0
 40
0
 40
0
 40
1
 40
1
 40
1
 40
1
 10
30.454199
 20
229.316716
 30
0.0
 10
30.493812
 20
229.322378
 30
0.0
 10
30.542856
 20
229.325209
 30
0.0
 10
30.601331
 20
229.325209
 30
0.0
  0
SPLINE
  5
307
100
AcDbEntity
  8
0
 62
7
100
AcDbSpline
 70
8
 71
3
 72
8
 73
4
 74
0
 40
0
 40
0
 40
0
 40
0
 40
1
 40
1
 40
1
 40
1
 10
30.601331
 20
229.325209
 30
0.0
 10
30.661691
 20
229.325209
 30
0.0
 10
30.711679
 20
229.322378
 30
0.0
 10
30.751294
 20
229.316716
 30
0.0
  0
SPLINE
  5
308
100
AcDbEntity
  8
0
 62
7
100
AcDbSpline
 70
8
 71
3
 72
8
 73
4
 74
0
 40
0
 40
0
 40
0
 40
0
 40
1
 40
1
 40
1
 40
1
 10
30.751294
 20
229.316716
 30
0.0
 10
30.790902
 20
229.312942
 30
0.0
 10
30.821082
 20
229.306336
 30
0.0
 10
30.841834
 20
229.296899
 30
0.0
  0
SPLINE
  5
309
100
AcDbEntity
  8
0
 62
7
100
AcDbSpline
 70
8
 71
3
 72
8
 73
4
 74
0
 40
0
 40
0
 40
0
 40
0
 40
1
 40
1
 40
1
 40
1
 10
30.841834
 20
229.296899
 30
0.0
 10
30.864468
 20
229.287462
 30
0.0
 10
30.880502
 20
229.275201
 30
0.0
 10
30.889936
 20
229.260117
 30
0.0
  0
SPLINE
  5
30a
100
AcDbEntity
  8
0
 62
7
100
AcDbSpline
 70
8
 71
3
 72
8
 73
4
 74
0
 40
0
 40
0
 40
0
 40
0
 40
1
 40
1
 40
1
 40
1
 10
30.889936
 20
229.260117
 30
0.0
 10
30.899372
 20
229.246923
 30
0.0
 10
30.904091
 20
229.230889
 30
0.0
 10
30.904091
 20
229.212015
 30
0.0
  0
LWPOLYLINE
  5
30b
100
AcDbEntity
  8
0
 62
7
100
AcDbPolyline
 90
2
 70
0
 10
30.295737
 20
226.688139
 30
0.0
 10
30.295737
 20
229.212015
 30
0.0
  0
SPLINE
  5
30c
100
AcDbEntity
  8
0
 62
7
100
AcDbSpline
 70
8
 71
3
 72
8
 73
4
 74
0
 40
0
 40
0
 40
0
 40
0
 40
1
 40
1
 40
1
 40
1
 10
30.904091
 20
228.897944
 30
0.0
 10
30.970113
 20
228.992261
 30
0.0
 10
31.032362
 20
229.069600
 30
0.0
 10
31.090836
 20
229.129960
 30
0.0
  0
SPLINE
  5
30d
100
AcDbEntity
  8
0
 62
7
100
AcDbSpline
 70
8
 71
3
 72
8
 73
4
 74
0
 40
0
 40
0
 40
0
 40
0
 40
1
 40
1
 40
1
 40
1
 10
31.090836
 20
229.129960
 30
0.0
 10
31.149313
 20
229.192210
 30
0.0
 10
31.204959
 20
229.241254
 30
0.0
 10
31.257775
 20
229.277095
 30
0.0
  0
SPLINE
  5
30e
100
AcDbEntity
  8
0
 62
7
100
AcDbSpline
 70
8
 71
3
 72
8
 73
4
 74
0
 40
0
 40
0
 40
0
 40
0
 40
1
 40
1
 40
1
 40
1
 10
31.257775
 20
229.277095
 30
0.0
 10
31.310591
 20
229.312934
 30
0.0
 10
31.363407
 20
229.337455
 30
0.0
 10
31.416224
 20
229.350660
 30
0.0
  0
SPLINE
  5
30f
100
AcDbEntity
  8
0
 62
7
100
AcDbSpline
 70
8
 71
3
 72
8
 73
4
 74
0
 40
0
 40
0
 40
0
 40
0
 40
1
 40
1
 40
1
 40
1
 10
31.416224
 20
229.350660
 30
0.0
 10
31.469040
 20
229.365759
 30
0.0
 10
31.521857
 20
229.373308
 30
0.0
 10
31.574675
 20
229.373308
 30
0.0
  0
SPLINE
  5
310
100
AcDbEntity
  8
0
 62
7
100
AcDbSpline
 70
8
 71
3
 72
8
 73
4
 74
0
 40
0
 40
0
 40
0
 40
0
 40
1
 40
1
 40
1
 40
1
 10
31.574675
 20
229.373308
 30
0.0
 10
31.599196
 20
229.373308
 30
0.0
 10
31.625604
 20
229.371421
 30
0.0
 10
31.653899
 20
229.367646
 30
0.0
  0
SPLINE
  5
311
100
AcDbEntity
  8
0
 62
7
100
AcDbSpline
 70
8
 71
3
 72
8
 73
4
 74
0
 40
0
 40
0
 40
0
 40
0
 40
1
 40
1
 40
1
 40
1
 10
31.653899
 20
229.367646
 30
0.0
 10
31.682193
 20
229.365759
 30
0.0
 10
31.711431
 20
229.361040
 30
0.0
 10
31.741611
 20
229.353491
 30
0.0
  0
SPLINE
  5
312
100
AcDbEntity
  8
0
 62
7
100
AcDbSpline
 70
8
 71
3
 72
8
 73
4
 74
0
 40
0
 40
0
 40
0
 40
0
 40
1
 40
1
 40
1
 40
1
 10
31.741611
 20
229.353491
 30
0.0
 10
31.771793
 20
229.347829
 30
0.0
 10
31.798201
 20
229.340279
 30
0.0
 10
31.820835
 20
229.330842
 30
0.0
  0
SPLINE
  5
313
100
AcDbEntity
  8
0
 62
7
100
AcDbSpline
 70
8
 71
3
 72
8
 73
4
 74
0
 40
0
 40
0
 40
0
 40
0
 40
1
 40
1
 40
1
 40
1
 10
31.820835
 20
229.330842
 30
0.0
 10
31.843473
 20
229.323293
 30
0.0
 10
31.859507
 20
229.314809
 30
0.0
 10
31.868939
 20
229.305389
 30
0.0
  0
SPLINE
  5
314
100
AcDbEntity
  8
0
 62
7
100
AcDbSpline
 70
8
 71
3
 72
8
 73
4
 74
0
 40
0
 40
0
 40
0
 40
0
 40
1
 40
1
 40
1
 40
1
 10
31.868939
 20
229.305389
 30
0.0
 10
31.880263
 20
229.295953
 30
0.0
 10
31.887812
 20
229.285577
 30
0.0
 10
31.891587
 20
229.274264
 30
0.0
  0
SPLINE
  5
315
100
AcDbEntity
  8
0
 62
7
100
AcDbSpline
 70
8
 71
3
 72
8
 73
4
 74
0
 40
0
 40
0
 40
0
 40
0
 40
1
 40
1
 40
1
 40
1
 10
31.891587
 20
229.274264
 30
0.0
 10
31.897249
 20
229.262940
 30
0.0
 10
31.901968
 20
229.246907
 30
0.0
 10
31.905742
 20
229.226165
 30
0.0
  0
SPLINE
  5
316
100
AcDbEntity
  8
0
 62
7
100
AcDbSpline
 70
8
 71
3
 72
8
 73
4
 74
0
 40
0
 40
0
 40
0
 40
0
 40
1
 40
1
 40
1
 40
1
 10
31.905742
 20
229.226165
 30
0.0
 10
31.909499
 20
229.207302
 30
0.0
 10
31.912331
 20
229.178064
 30
0.0
 10
31.914236
 20
229.138451
 30
0.0
  0
SPLINE
  5
317
100
AcDbEntity
  8
0
 62
7
100
AcDbSpline
 70
8
 71
3
 72
8
 73
4
 74
0
 40
0
 40
0
 40
0
 40
0
 40
1
 40
1
 40
1
 40
1
 10
31.914236
 20
229.138451
 30
0.0
 10
31.916123
 20
229.098839
 30
0.0
 10
31.917067
 20
229.045080
 30
0.0
 10
31.917067
 20
228.977174
 30
0.0
  0
LWPOLYLINE
  5
318
100
AcDbEntity
  8
0
 62
7
100
AcDbPolyline
 90
2
 70
0
 10
30.904091
 20
229.212015
 30
0.0
 10
30.904091
 20
228.897944
 30
0.0
  0
SPLINE
  5
319
100
AcDbEntity
  8
0
 62
7
100
AcDbSpline
 70
8
 71
3
 72
8
 73
4
 74
0
 40
0
 40
0
 40
0
 40
0
 40
1
 40
1
 40
1
 40
1
 10
34.678600
 20
226.688131
 30
0.0
 10
34.678600
 20
226.667379
 30
0.0
 10
34.673881
 20
226.649458
 30
0.0
 10
34.664444
 20
226.634368
 30
0.0
  0
SPLINE
  5
31a
100
AcDbEntity
  8
0
 62
7
100
AcDbSpline
 70
8
 71
3
 72
8
 73
4
 74
0
 40
0
 40
0
 40
0
 40
0
 40
1
 40
1
 40
1
 40
1
 10
34.664444
 20
226.634368
 30
0.0
 10
34.655008
 20
226.621174
 30
0.0
 10
34.638975
 20
226.609857
 30
0.0
 10
34.616346
 20
226.600416
 30
0.0
  0
SPLINE
  5
31b
100
AcDbEntity
  8
0
 62
7
100
AcDbSpline
 70
8
 71
3
 72
8
 73
4
 74
0
 40
0
 40
0
 40
0
 40
0
 40
1
 40
1
 40
1
 40
1
 10
34.616346
 20
226.600416
 30
0.0
 10
34.593708
 20
226.590980
 30
0.0
 10
34.562584
 20
226.584383
 30
0.0
 10
34.522974
 20
226.580626
 30
0.0
  0
SPLINE
  5
31c
100
AcDbEntity
  8
0
 62
7
100
AcDbSpline
 70
8
 71
3
 72
8
 73
4
 74
0
 40
0
 40
0
 40
0
 40
0
 40
1
 40
1
 40
1
 40
1
 10
34.522974
 20
226.580626
 30
0.0
 10
34.485246
 20
226.576851
 30
0.0
 10
34.438088
 20
226.574964
 30
0.0
 10
34.381499
 20
226.574964
 30
0.0
  0
SPLINE
  5
31d
100
AcDbEntity
  8
0
 62
7
100
AcDbSpline
 70
8
 71
3
 72
8
 73
4
 74
0
 40
0
 40
0
 40
0
 40
0
 40
1
 40
1
 40
1
 40
1
 10
34.381499
 20
226.574964
 30
0.0
 10
34.321137
 20
226.574964
 30
0.0
 10
34.272093
 20
226.576851
 30
0.0
 10
34.234367
 20
226.580626
 30
0.0
  0
SPLINE
  5
31e
100
AcDbEntity
  8
0
 62
7
100
AcDbSpline
 70
8
 71
3
 72
8
 73
4
 74
0
 40
0
 40
0
 40
0
 40
0
 40
1
 40
1
 40
1
 40
1
 10
34.234367
 20
226.580626
 30
0.0
 10
34.196641
 20
226.584400
 30
0.0
 10
34.165517
 20
226.590997
 30
0.0
 10
34.140995
 20
226.600416
 30
0.0
  0
SPLINE
  5
31f
100
AcDbEntity
  8
0
 62
7
100
AcDbSpline
 70
8
 71
3
 72
8
 73
4
 74
0
 40
0
 40
0
 40
0
 40
0
 40
1
 40
1
 40
1
 40
1
 10
34.140995
 20
226.600416
 30
0.0
 10
34.118359
 20
226.609853
 30
0.0
 10
34.101383
 20
226.621170
 30
0.0
 10
34.090066
 20
226.634368
 30
0.0
  0
SPLINE
  5
320
100
AcDbEntity
  8
0
 62
7
100
AcDbSpline
 70
8
 71
3
 72
8
 73
4
 74
0
 40
0
 40
0
 40
0
 40
0
 40
1
 40
1
 40
1
 40
1
 10
34.090066
 20
226.634368
 30
0.0
 10
34.080629
 20
226.649467
 30
0.0
 10
34.075910
 20
226.667388
 30
0.0
 10
34.075910
 20
226.688131
 30
0.0
  0
LWPOLYLINE
  5
321
100
AcDbEntity
  8
0
 62
7
100
AcDbPolyline
 90
1
 70
1
 10
31.917067
 20
228.977174
 30
0.0
  0
SPLINE
  5
322
100
AcDbEntity
  8
0
 62
7
100
AcDbSpline
 70
8
 71
3
 72
8
 73
4
 74
0
 40
0
 40
0
 40
0
 40
0
 40
1
 40
1
 40
1
 40
1
 10
34.075910
 20
226.968243
 30
0.0
 10
33.945753
 20
226.828659
 30
0.0
 10
33.808995
 20
226.720198
 30
0.0
 10
33.665637
 20
226.642858
 30
0.0
  0
SPLINE
  5
323
100
AcDbEntity
  8
0
 62
7
100
AcDbSpline
 70
8
 71
3
 72
8
 73
4
 74
0
 40
0
 40
0
 40
0
 40
0
 40
1
 40
1
 40
1
 40
1
 10
33.665637
 20
226.642858
 30
0.0
 10
33.524163
 20
226.565519
 30
0.0
 10
33.366656
 20
226.526849
 30
0.0
 10
33.193118
 20
226.526849
 30
0.0
  0
SPLINE
  5
324
100
AcDbEntity
  8
0
 62
7
100
AcDbSpline
 70
8
 71
3
 72
8
 73
4
 74
0
 40
0
 40
0
 40
0
 40
0
 40
1
 40
1
 40
1
 40
1
 10
33.193118
 20
226.526849
 30
0.0
 10
33.000713
 20
226.526849
 30
0.0
 10
32.837547
 20
226.563631
 30
0.0
 10
32.703620
 20
226.637196
 30
0.0
  0
SPLINE
  5
325
100
AcDbEntity
  8
0
 62
7
100
AcDbSpline
 70
8
 71
3
 72
8
 73
4
 74
0
 40
0
 40
0
 40
0
 40
0
 40
1
 40
1
 40
1
 40
1
 10
32.703620
 20
226.637196
 30
0.0
 10
32.571577
 20
226.712650
 30
0.0
 10
32.463115
 20
226.813568
 30
0.0
 10
32.378233
 20
226.939951
 30
0.0
  0
SPLINE
  5
326
100
AcDbEntity
  8
0
 62
7
100
AcDbSpline
 70
8
 71
3
 72
8
 73
4
 74
0
 40
0
 40
0
 40
0
 40
0
 40
1
 40
1
 40
1
 40
1
 10
32.378233
 20
226.939951
 30
0.0
 10
32.295235
 20
227.066334
 30
0.0
 10
32.234873
 20
227.213466
 30
0.0
 10
32.197147
 20
227.381347
 30
0.0
  0
SPLINE
  5
327
100
AcDbEntity
  8
0
 62
7
100
AcDbSpline
 70
8
 71
3
 72
8
 73
4
 74
0
 40
0
 40
0
 40
0
 40
0
 40
1
 40
1
 40
1
 40
1
 10
32.197147
 20
227.381347
 30
0.0
 10
32.159419
 20
227.551113
 30
0.0
 10
32.140555
 20
227.729369
 30
0.0
 10
32.140555
 20
227.916115
 30
0.0
  0
SPLINE
  5
328
100
AcDbEntity
  8
0
 62
7
100
AcDbSpline
 70
8
 71
3
 72
8
 73
4
 74
0
 40
0
 40
0
 40
0
 40
0
 40
1
 40
1
 40
1
 40
1
 10
32.140555
 20
227.916115
 30
0.0
 10
32.140555
 20
228.140586
 30
0.0
 10
32.164134
 20
228.342421
 30
0.0
 10
32.211291
 20
228.521620
 30
0.0
  0
SPLINE
  5
329
100
AcDbEntity
  8
0
 62
7
100
AcDbSpline
 70
8
 71
3
 72
8
 73
4
 74
0
 40
0
 40
0
 40
0
 40
0
 40
1
 40
1
 40
1
 40
1
 10
32.211291
 20
228.521620
 30
0.0
 10
32.260336
 20
228.700818
 30
0.0
 10
32.331073
 20
228.853609
 30
0.0
 10
32.423503
 20
228.979992
 30
0.0
  0
SPLINE
  5
32a
100
AcDbEntity
  8
0
 62
7
100
AcDbSpline
 70
8
 71
3
 72
8
 73
4
 74
0
 40
0
 40
0
 40
0
 40
0
 40
1
 40
1
 40
1
 40
1
 10
32.423503
 20
228.979992
 30
0.0
 10
32.515931
 20
229.106374
 30
0.0
 10
32.630995
 20
229.203520
 30
0.0
 10
32.768697
 20
229.271428
 30
0.0
  0
SPLINE
  5
32b
100
AcDbEntity
  8
0
 62
7
100
AcDbSpline
 70
8
 71
3
 72
8
 73
4
 74
0
 40
0
 40
0
 40
0
 40
0
 40
1
 40
1
 40
1
 40
1
 10
32.768697
 20
229.271428
 30
0.0
 10
32.906397
 20
229.339334
 30
0.0
 10
33.064847
 20
229.373287
 30
0.0
 10
33.244047
 20
229.373287
 30
0.0
  0
SPLINE
  5
32c
100
AcDbEntity
  8
0
 62
7
100
AcDbSpline
 70
8
 71
3
 72
8
 73
4
 74
0
 40
0
 40
0
 40
0
 40
0
 40
1
 40
1
 40
1
 40
1
 10
33.244047
 20
229.373287
 30
0.0
 10
33.385520
 20
229.373287
 30
0.0
 10
33.513788
 20
229.344050
 30
0.0
 10
33.628852
 20
229.285575
 30
0.0
  0
SPLINE
  5
32d
100
AcDbEntity
  8
0
 62
7
100
AcDbSpline
 70
8
 71
3
 72
8
 73
4
 74
0
 40
0
 40
0
 40
0
 40
0
 40
1
 40
1
 40
1
 40
1
 10
33.628852
 20
229.285575
 30
0.0
 10
33.743916
 20
229.228984
 30
0.0
 10
33.858037
 20
229.145043
 30
0.0
 10
33.971215
 20
229.033752
 30
0.0
  0
LWPOLYLINE
  5
32e
100
AcDbEntity
  8
0
 62
7
100
AcDbPolyline
 90
2
 70
0
 10
34.075910
 20
226.688131
 30
0.0
 10
34.075910
 20
226.968243
 30
0.0
  0
SPLINE
  5
32f
100
AcDbEntity
  8
0
 62
7
100
AcDbSpline
 70
8
 71
3
 72
8
 73
4
 74
0
 40
0
 40
0
 40
0
 40
0
 40
1
 40
1
 40
1
 40
1
 10
33.971215
 20
230.400381
 30
0.0
 10
33.971215
 20
230.419244
 30
0.0
 10
33.975933
 20
230.436220
 30
0.0
 10
33.985370
 20
230.451311
 30
0.0
  0
SPLINE
  5
330
100
AcDbEntity
  8
0
 62
7
100
AcDbSpline
 70
8
 71
3
 72
8
 73
4
 74
0
 40
0
 40
0
 40
0
 40
0
 40
1
 40
1
 40
1
 40
1
 10
33.985370
 20
230.451311
 30
0.0
 10
33.996694
 20
230.466409
 30
0.0
 10
34.015557
 20
230.478670
 30
0.0
 10
34.041959
 20
230.488093
 30
0.0
  0
SPLINE
  5
331
100
AcDbEntity
  8
0
 62
7
100
AcDbSpline
 70
8
 71
3
 72
8
 73
4
 74
0
 40
0
 40
0
 40
0
 40
0
 40
1
 40
1
 40
1
 40
1
 10
34.041959
 20
230.488093
 30
0.0
 10
34.070255
 20
230.499417
 30
0.0
 10
34.107039
 20
230.507901
 30
0.0
 10
34.152309
 20
230.513546
 30
0.0
  0
SPLINE
  5
332
100
AcDbEntity
  8
0
 62
7
100
AcDbSpline
 70
8
 71
3
 72
8
 73
4
 74
0
 40
0
 40
0
 40
0
 40
0
 40
1
 40
1
 40
1
 40
1
 10
34.152309
 20
230.513546
 30
0.0
 10
34.197581
 20
230.519208
 30
0.0
 10
34.255113
 20
230.522039
 30
0.0
 10
34.324905
 20
230.522039
 30
0.0
  0
SPLINE
  5
333
100
AcDbEntity
  8
0
 62
7
100
AcDbSpline
 70
8
 71
3
 72
8
 73
4
 74
0
 40
0
 40
0
 40
0
 40
0
 40
1
 40
1
 40
1
 40
1
 10
34.324905
 20
230.522039
 30
0.0
 10
34.394698
 20
230.522039
 30
0.0
 10
34.452232
 20
230.519208
 30
0.0
 10
34.497506
 20
230.513546
 30
0.0
  0
SPLINE
  5
334
100
AcDbEntity
  8
0
 62
7
100
AcDbSpline
 70
8
 71
3
 72
8
 73
4
 74
0
 40
0
 40
0
 40
0
 40
0
 40
1
 40
1
 40
1
 40
1
 10
34.497506
 20
230.513546
 30
0.0
 10
34.542776
 20
230.507884
 30
0.0
 10
34.578614
 20
230.499399
 30
0.0
 10
34.605022
 20
230.488093
 30
0.0
  0
SPLINE
  5
335
100
AcDbEntity
  8
0
 62
7
100
AcDbSpline
 70
8
 71
3
 72
8
 73
4
 74
0
 40
0
 40
0
 40
0
 40
0
 40
1
 40
1
 40
1
 40
1
 10
34.605022
 20
230.488093
 30
0.0
 10
34.631429
 20
230.478656
 30
0.0
 10
34.650292
 20
230.466395
 30
0.0
 10
34.661611
 20
230.451311
 30
0.0
  0
SPLINE
  5
336
100
AcDbEntity
  8
0
 62
7
100
AcDbSpline
 70
8
 71
3
 72
8
 73
4
 74
0
 40
0
 40
0
 40
0
 40
0
 40
1
 40
1
 40
1
 40
1
 10
34.661611
 20
230.451311
 30
0.0
 10
34.672935
 20
230.436212
 30
0.0
 10
34.678597
 20
230.419235
 30
0.0
 10
34.678597
 20
230.400381
 30
0.0
  0
LWPOLYLINE
  5
337
100
AcDbEntity
  8
0
 62
7
100
AcDbPolyline
 90
2
 70
0
 10
33.971215
 20
229.033752
 30
0.0
 10
33.971215
 20
230.400381
 30
0.0
  0
SPLINE
  5
338
100
AcDbEntity
  8
0
 62
7
100
AcDbSpline
 70
8
 71
3
 72
8
 73
4
 74
0
 40
0
 40
0
 40
0
 40
0
 40
1
 40
1
 40
1
 40
1
 10
33.971239
 20
228.374487
 30
0.0
 10
33.869376
 20
228.502756
 30
0.0
 10
33.771287
 20
228.600845
 30
0.0
 10
33.676972
 20
228.668754
 30
0.0
  0
SPLINE
  5
339
100
AcDbEntity
  8
0
 62
7
100
AcDbSpline
 70
8
 71
3
 72
8
 73
4
 74
0
 40
0
 40
0
 40
0
 40
0
 40
1
 40
1
 40
1
 40
1
 10
33.676972
 20
228.668754
 30
0.0
 10
33.584544
 20
228.736661
 30
0.0
 10
33.487400
 20
228.770614
 30
0.0
 10
33.385538
 20
228.770614
 30
0.0
  0
SPLINE
  5
33a
100
AcDbEntity
  8
0
 62
7
100
AcDbSpline
 70
8
 71
3
 72
8
 73
4
 74
0
 40
0
 40
0
 40
0
 40
0
 40
1
 40
1
 40
1
 40
1
 10
33.385538
 20
228.770614
 30
0.0
 10
33.293109
 20
228.770614
 30
0.0
 10
33.212941
 20
228.747034
 30
0.0
 10
33.145035
 20
228.699875
 30
0.0
  0
SPLINE
  5
33b
100
AcDbEntity
  8
0
 62
7
100
AcDbSpline
 70
8
 71
3
 72
8
 73
4
 74
0
 40
0
 40
0
 40
0
 40
0
 40
1
 40
1
 40
1
 40
1
 10
33.145035
 20
228.699875
 30
0.0
 10
33.079016
 20
228.654604
 30
0.0
 10
33.025256
 20
228.593300
 30
0.0
 10
32.983755
 20
228.515960
 30
0.0
  0
SPLINE
  5
33c
100
AcDbEntity
  8
0
 62
7
100
AcDbSpline
 70
8
 71
3
 72
8
 73
4
 74
0
 40
0
 40
0
 40
0
 40
0
 40
1
 40
1
 40
1
 40
1
 10
32.983755
 20
228.515960
 30
0.0
 10
32.944142
 20
228.438622
 30
0.0
 10
32.913961
 20
228.351852
 30
0.0
 10
32.893212
 20
228.255650
 30
0.0
  0
SPLINE
  5
33d
100
AcDbEntity
  8
0
 62
7
100
AcDbSpline
 70
8
 71
3
 72
8
 73
4
 74
0
 40
0
 40
0
 40
0
 40
0
 40
1
 40
1
 40
1
 40
1
 10
32.893212
 20
228.255650
 30
0.0
 10
32.874349
 20
228.161335
 30
0.0
 10
32.864918
 20
228.064190
 30
0.0
 10
32.864918
 20
227.964217
 30
0.0
  0
SPLINE
  5
33e
100
AcDbEntity
  8
0
 62
7
100
AcDbSpline
 70
8
 71
3
 72
8
 73
4
 74
0
 40
0
 40
0
 40
0
 40
0
 40
1
 40
1
 40
1
 40
1
 10
32.864918
 20
227.964217
 30
0.0
 10
32.864918
 20
227.858583
 30
0.0
 10
32.873402
 20
227.755778
 30
0.0
 10
32.890371
 20
227.655802
 30
0.0
  0
SPLINE
  5
33f
100
AcDbEntity
  8
0
 62
7
100
AcDbSpline
 70
8
 71
3
 72
8
 73
4
 74
0
 40
0
 40
0
 40
0
 40
0
 40
1
 40
1
 40
1
 40
1
 10
32.890371
 20
227.655802
 30
0.0
 10
32.907339
 20
227.555829
 30
0.0
 10
32.934690
 20
227.466229
 30
0.0
 10
32.972423
 20
227.387004
 30
0.0
  0
SPLINE
  5
340
100
AcDbEntity
  8
0
 62
7
100
AcDbSpline
 70
8
 71
3
 72
8
 73
4
 74
0
 40
0
 40
0
 40
0
 40
0
 40
1
 40
1
 40
1
 40
1
 10
32.972423
 20
227.387004
 30
0.0
 10
33.012037
 20
227.309668
 30
0.0
 10
33.063911
 20
227.247421
 30
0.0
 10
33.128046
 20
227.200261
 30
0.0
  0
SPLINE
  5
341
100
AcDbEntity
  8
0
 62
7
100
AcDbSpline
 70
8
 71
3
 72
8
 73
4
 74
0
 40
0
 40
0
 40
0
 40
0
 40
1
 40
1
 40
1
 40
1
 10
33.128046
 20
227.200261
 30
0.0
 10
33.192179
 20
227.153104
 30
0.0
 10
33.273290
 20
227.129525
 30
0.0
 10
33.371378
 20
227.129525
 30
0.0
  0
SPLINE
  5
342
100
AcDbEntity
  8
0
 62
7
100
AcDbSpline
 70
8
 71
3
 72
8
 73
4
 74
0
 40
0
 40
0
 40
0
 40
0
 40
1
 40
1
 40
1
 40
1
 10
33.371378
 20
227.129525
 30
0.0
 10
33.420423
 20
227.129525
 30
0.0
 10
33.467580
 20
227.136122
 30
0.0
 10
33.512851
 20
227.149316
 30
0.0
  0
SPLINE
  5
343
100
AcDbEntity
  8
0
 62
7
100
AcDbSpline
 70
8
 71
3
 72
8
 73
4
 74
0
 40
0
 40
0
 40
0
 40
0
 40
1
 40
1
 40
1
 40
1
 10
33.512851
 20
227.149316
 30
0.0
 10
33.560008
 20
227.164415
 30
0.0
 10
33.607166
 20
227.187993
 30
0.0
 10
33.654323
 20
227.220049
 30
0.0
  0
SPLINE
  5
344
100
AcDbEntity
  8
0
 62
7
100
AcDbSpline
 70
8
 71
3
 72
8
 73
4
 74
0
 40
0
 40
0
 40
0
 40
0
 40
1
 40
1
 40
1
 40
1
 10
33.654323
 20
227.220049
 30
0.0
 10
33.703368
 20
227.252117
 30
0.0
 10
33.753357
 20
227.293616
 30
0.0
 10
33.804289
 20
227.344546
 30
0.0
  0
SPLINE
  5
345
100
AcDbEntity
  8
0
 62
7
100
AcDbSpline
 70
8
 71
3
 72
8
 73
4
 74
0
 40
0
 40
0
 40
0
 40
0
 40
1
 40
1
 40
1
 40
1
 10
33.804289
 20
227.344546
 30
0.0
 10
33.855218
 20
227.397363
 30
0.0
 10
33.910863
 20
227.461497
 30
0.0
 10
33.971225
 20
227.536949
 30
0.0
  0
LWPOLYLINE
  5
346
100
AcDbEntity
  8
0
 62
7
100
AcDbPolyline
 90
2
 70
0
 10
34.678597
 20
230.400381
 30
0.0
 10
34.678600
 20
226.688131
 30
0.0
  0
LWPOLYLINE
  5
347
100
AcDbEntity
  8
0
 62
7
100
AcDbPolyline
 90
2
 70
0
 10
33.971225
 20
227.536949
 30
0.0
 10
33.971239
 20
228.374487
 30
0.0
  0
SPLINE
  5
348
100
AcDbEntity
  8
0
 62
7
100
AcDbSpline
 70
8
 71
3
 72
8
 73
4
 74
0
 40
0
 40
0
 40
0
 40
0
 40
1
 40
1
 40
1
 40
1
 10
9.155109
 20
233.337206
 30
0.0
 10
9.277427
 20
233.337206
 30
0.0
 10
9.375900
 20
233.238730
 30
0.0
 10
9.375900
 20
233.116411
 30
0.0
  0
LWPOLYLINE
  5
349
100
AcDbEntity
  8
0
 62
7
100
AcDbPolyline
 90
2
 70
0
 10
7.698109
 20
233.337206
 30
0.0
 10
9.155109
 20
233.337206
 30
0.0
  0
SPLINE
  5
34a
100
AcDbEntity
  8
0
 62
7
100
AcDbSpline
 70
8
 71
3
 72
8
 73
4
 74
0
 40
0
 40
0
 40
0
 40
0
 40
1
 40
1
 40
1
 40
1
 10
9.375900
 20
231.659414
 30
0.0
 10
9.375900
 20
231.537094
 30
0.0
 10
9.277427
 20
231.438619
 30
0.0
 10
9.155109
 20
231.438619
 30
0.0
  0
LWPOLYLINE
  5
34b
100
AcDbEntity
  8
0
 62
7
100
AcDbPolyline
 90
2
 70
0
 10
9.375900
 20
233.116411
 30
0.0
 10
9.375900
 20
231.659414
 30
0.0
  0
SPLINE
  5
34c
100
AcDbEntity
  8
0
 62
7
100
AcDbSpline
 70
8
 71
3
 72
8
 73
4
 74
0
 40
0
 40
0
 40
0
 40
0
 40
1
 40
1
 40
1
 40
1
 10
7.698109
 20
231.438619
 30
0.0
 10
7.575791
 20
231.438619
 30
0.0
 10
7.477318
 20
231.537094
 30
0.0
 10
7.477318
 20
231.659414
 30
0.0
  0
LWPOLYLINE
  5
34d
100
AcDbEntity
  8
0
 62
7
100
AcDbPolyline
 90
2
 70
0
 10
9.155109
 20
231.438619
 30
0.0
 10
7.698109
 20
231.438619
 30
0.0
  0
SPLINE
  5
34e
100
AcDbEntity
  8
0
 62
7
100
AcDbSpline
 70
8
 71
3
 72
8
 73
4
 74
0
 40
0
 40
0
 40
0
 40
0
 40
1
 40
1
 40
1
 40
1
 10
7.477318
 20
233.116411
 30
0.0
 10
7.477318
 20
233.238730
 30
0.0
 10
7.575791
 20
233.337206
 30
0.0
 10
7.698109
 20
233.337206
 30
0.0
  0
LWPOLYLINE
  5
34f
100
AcDbEntity
  8
0
 62
7
100
AcDbPolyline
 90
2
 70
0
 10
7.477318
 20
231.659414
 30
0.0
 10
7.477318
 20
233.116411
 30
0.0
  0
LWPOLYLINE
  5
350
100
AcDbEntity
  8
0
 62
7
100
AcDbPolyline
 90
1
 70
1
 10
7.698109
 20
233.337206
 30
0.0
  0
SPLINE
  5
351
100
AcDbEntity
  8
0
 62
7
100
AcDbSpline
 70
8
 71
3
 72
8
 73
4
 74
0
 40
0
 40
0
 40
0
 40
0
 40
1
 40
1
 40
1
 40
1
 10
11.623266
 20
233.337206
 30
0.0
 10
11.745587
 20
233.337206
 30
0.0
 10
11.844059
 20
233.238730
 30
0.0
 10
11.844059
 20
233.116411
 30
0.0
  0
LWPOLYLINE
  5
352
100
AcDbEntity
  8
0
 62
7
100
AcDbPolyline
 90
2
 70
0
 10
10.166268
 20
233.337206
 30
0.0
 10
11.623266
 20
233.337206
 30
0.0
  0
SPLINE
  5
353
100
AcDbEntity
  8
0
 62
7
100
AcDbSpline
 70
8
 71
3
 72
8
 73
4
 74
0
 40
0
 40
0
 40
0
 40
0
 40
1
 40
1
 40
1
 40
1
 10
11.844059
 20
231.659414
 30
0.0
 10
11.844059
 20
231.537094
 30
0.0
 10
11.745587
 20
231.438619
 30
0.0
 10
11.623266
 20
231.438619
 30
0.0
  0
LWPOLYLINE
  5
354
100
AcDbEntity
  8
0
 62
7
100
AcDbPolyline
 90
2
 70
0
 10
11.844059
 20
233.116411
 30
0.0
 10
11.844059
 20
231.659414
 30
0.0
  0
SPLINE
  5
355
100
AcDbEntity
  8
0
 62
7
100
AcDbSpline
 70
8
 71
3
 72
8
 73
4
 74
0
 40
0
 40
0
 40
0
 40
0
 40
1
 40
1
 40
1
 40
1
 10
10.166268
 20
231.438619
 30
0.0
 10
10.043949
 20
231.438619
 30
0.0
 10
9.945475
 20
231.537094
 30
0.0
 10
9.945475
 20
231.659414
 30
0.0
  0
LWPOLYLINE
  5
356
100
AcDbEntity
  8
0
 62
7
100
AcDbPolyline
 90
2
 70
0
 10
11.623266
 20
231.438619
 30
0.0
 10
10.166268
 20
231.438619
 30
0.0
  0
SPLINE
  5
357
100
AcDbEntity
  8
0
 62
7
100
AcDbSpline
 70
8
 71
3
 72
8
 73
4
 74
0
 40
0
 40
0
 40
0
 40
0
 40
1
 40
1
 40
1
 40
1
 10
9.945475
 20
233.116411
 30
0.0
 10
9.945475
 20
233.238730
 30
0.0
 10
10.043949
 20
233.337206
 30
0.0
 10
10.166268
 20
233.337206
 30
0.0
  0
LWPOLYLINE
  5
358
100
AcDbEntity
  8
0
 62
7
100
AcDbPolyline
 90
2
 70
0
 10
9.945475
 20
231.659414
 30
0.0
 10
9.945475
 20
233.116411
 30
0.0
  0
LWPOLYLINE
  5
359
100
AcDbEntity
  8
0
 62
7
100
AcDbPolyline
 90
1
 70
1
 10
10.166268
 20
233.337206
 30
0.0
  0
SPLINE
  5
35a
100
AcDbEntity
  8
0
 62
7
100
AcDbSpline
 70
8
 71
3
 72
8
 73
4
 74
0
 40
0
 40
0
 40
0
 40
0
 40
1
 40
1
 40
1
 40
1
 10
14.091425
 20
233.337206
 30
0.0
 10
14.213743
 20
233.337206
 30
0.0
 10
14.312216
 20
233.238730
 30
0.0
 10
14.312216
 20
233.116411
 30
0.0
  0
LWPOLYLINE
  5
35b
100
AcDbEntity
  8
0
 62
7
100
AcDbPolyline
 90
2
 70
0
 10
12.634427
 20
233.337206
 30
0.0
 10
14.091425
 20
233.337206
 30
0.0
  0
SPLINE
  5
35c
100
AcDbEntity
  8
0
 62
7
100
AcDbSpline
 70
8
 71
3
 72
8
 73
4
 74
0
 40
0
 40
0
 40
0
 40
0
 40
1
 40
1
 40
1
 40
1
 10
14.312216
 20
231.659414
 30
0.0
 10
14.312216
 20
231.537094
 30
0.0
 10
14.213743
 20
231.438619
 30
0.0
 10
14.091425
 20
231.438619
 30
0.0
  0
LWPOLYLINE
  5
35d
100
AcDbEntity
  8
0
 62
7
100
AcDbPolyline
 90
2
 70
0
 10
14.312216
 20
233.116411
 30
0.0
 10
14.312216
 20
231.659414
 30
0.0
  0
SPLINE
  5
35e
100
AcDbEntity
  8
0
 62
7
100
AcDbSpline
 70
8
 71
3
 72
8
 73
4
 74
0
 40
0
 40
0
 40
0
 40
0
 40
1
 40
1
 40
1
 40
1
 10
12.634427
 20
231.438619
 30
0.0
 10
12.512106
 20
231.438619
 30
0.0
 10
12.413634
 20
231.537094
 30
0.0
 10
12.413634
 20
231.659414
 30
0.0
  0
LWPOLYLINE
  5
35f
100
AcDbEntity
  8
0
 62
7
100
AcDbPolyline
 90
2
 70
0
 10
14.091425
 20
231.438619
 30
0.0
 10
12.634427
 20
231.438619
 30
0.0
  0
SPLINE
  5
360
100
AcDbEntity
  8
0
 62
7
100
AcDbSpline
 70
8
 71
3
 72
8
 73
4
 74
0
 40
0
 40
0
 40
0
 40
0
 40
1
 40
1
 40
1
 40
1
 10
12.413634
 20
233.116411
 30
0.0
 10
12.413634
 20
233.238730
 30
0.0
 10
12.512106
 20
233.337206
 30
0.0
 10
12.634427
 20
233.337206
 30
0.0
  0
LWPOLYLINE
  5
361
100
AcDbEntity
  8
0
 62
7
100
AcDbPolyline
 90
2
 70
0
 10
12.413634
 20
231.659414
 30
0.0
 10
12.413634
 20
233.116411
 30
0.0
  0
LWPOLYLINE
  5
362
100
AcDbEntity
  8
0
 62
7
100
AcDbPolyline
 90
1
 70
1
 10
12.634427
 20
233.337206
 30
0.0
  0
SPLINE
  5
363
100
AcDbEntity
  8
0
 62
7
100
AcDbSpline
 70
8
 71
3
 72
8
 73
4
 74
0
 40
0
 40
0
 40
0
 40
0
 40
1
 40
1
 40
1
 40
1
 10
16.559584
 20
233.337206
 30
0.0
 10
16.681902
 20
233.337206
 30
0.0
 10
16.780377
 20
233.238730
 30
0.0
 10
16.780377
 20
233.116411
 30
0.0
  0
LWPOLYLINE
  5
364
100
AcDbEntity
  8
0
 62
7
100
AcDbPolyline
 90
2
 70
0
 10
15.102586
 20
233.337206
 30
0.0
 10
16.559584
 20
233.337206
 30
0.0
  0
SPLINE
  5
365
100
AcDbEntity
  8
0
 62
7
100
AcDbSpline
 70
8
 71
3
 72
8
 73
4
 74
0
 40
0
 40
0
 40
0
 40
0
 40
1
 40
1
 40
1
 40
1
 10
16.780377
 20
231.659414
 30
0.0
 10
16.780377
 20
231.537094
 30
0.0
 10
16.681902
 20
231.438619
 30
0.0
 10
16.559584
 20
231.438619
 30
0.0
  0
LWPOLYLINE
  5
366
100
AcDbEntity
  8
0
 62
7
100
AcDbPolyline
 90
2
 70
0
 10
16.780377
 20
233.116411
 30
0.0
 10
16.780377
 20
231.659414
 30
0.0
  0
SPLINE
  5
367
100
AcDbEntity
  8
0
 62
7
100
AcDbSpline
 70
8
 71
3
 72
8
 73
4
 74
0
 40
0
 40
0
 40
0
 40
0
 40
1
 40
1
 40
1
 40
1
 10
15.102586
 20
231.438619
 30
0.0
 10
14.980265
 20
231.438619
 30
0.0
 10
14.881793
 20
231.537094
 30
0.0
 10
14.881793
 20
231.659414
 30
0.0
  0
LWPOLYLINE
  5
368
100
AcDbEntity
  8
0
 62
7
100
AcDbPolyline
 90
2
 70
0
 10
16.559584
 20
231.438619
 30
0.0
 10
15.102586
 20
231.438619
 30
0.0
  0
SPLINE
  5
369
100
AcDbEntity
  8
0
 62
7
100
AcDbSpline
 70
8
 71
3
 72
8
 73
4
 74
0
 40
0
 40
0
 40
0
 40
0
 40
1
 40
1
 40
1
 40
1
 10
14.881793
 20
233.116411
 30
0.0
 10
14.881793
 20
233.238730
 30
0.0
 10
14.980265
 20
233.337206
 30
0.0
 10
15.102586
 20
233.337206
 30
0.0
  0
LWPOLYLINE
  5
36a
100
AcDbEntity
  8
0
 62
7
100
AcDbPolyline
 90
2
 70
0
 10
14.881793
 20
231.659414
 30
0.0
 10
14.881793
 20
233.116411
 30
0.0
  0
LWPOLYLINE
  5
36b
100
AcDbEntity
  8
0
 62
7
100
AcDbPolyline
 90
1
 70
1
 10
15.102586
 20
233.337206
 30
0.0
  0
ENDSEC
  0
SECTION
  2
OBJECTS
  0
DICTIONARY
  5
C
330
0
100
AcDbDictionary
  3
ACAD_GROUP
350
D
  3
ACAD_MLINESTYLE
350
17
  0
DICTIONARY
  5
D
330
C
100
AcDbDictionary
  0
DICTIONARY
  5
1A
330
C
100
AcDbDictionary
  0
DICTIONARY
  5
17
330
C
100
AcDbDictionary
  3
STANDARD
350
18
  0
DICTIONARY
  5
19
330
C
100
AcDbDictionary
  0
ENDSEC
  0
EOF
