  0
SECTION
  2
HEADER
  9
$ACADVER
  1
AC1014
  9
$HANDSEED
  5
FFFF
  9
$MEASUREMENT
 70
     1
  0
ENDSEC
  0
SECTION
  2
TABLES
  0
TABLE
  2
VPORT
  5
8
330
0
100
AcDbSymbolTable
 70
     4
  0
VPORT
  5
2E
330
8
100
AcDbSymbolTableRecord
100
AcDbViewportTableRecord
  2
*ACTIVE
 70
     0
 10
0.0
 20
0.0
 11
1.0
 21
1.0
 12
210.0
 22
148.5
 13
0.0
 23
0.0
 14
10.0
 24
10.0
 15
10.0
 25
10.0
 16
0.0
 26
0.0
 36
1.0
 17
0.0
 27
0.0
 37
0.0
 40
341.0
 41
1.24
 42
50.0
 43
0.0
 44
0.0
 50
0.0
 51
0.0
 71
     0
 72
   100
 73
     1
 74
     3
 75
     0
 76
     0
 77
     0
 78
     0
  0
ENDTAB
  0
TABLE
  2
LTYPE
  5
5
330
0
100
AcDbSymbolTable
 70
     1
  0
LTYPE
  5
14
330
5
100
AcDbSymbolTableRecord
100
AcDbLinetypeTableRecord
  2
BYBLOCK
 70
     0
  3

 72
    65
 73
     0
 40
0.0
  0
LTYPE
  5
15
330
5
100
AcDbSymbolTableRecord
100
AcDbLinetypeTableRecord
  2
BYLAYER
 70
     0
  3

 72
    65
 73
     0
 40
0.0
  0
LTYPE
  5
16
330
5
100
AcDbSymbolTableRecord
100
AcDbLinetypeTableRecord
  2
CONTINUOUS
 70
     0
  3
Solid line
 72
    65
 73
     0
 40
0.0
  0
ENDTAB
  0
TABLE
  2
LAYER
  5
2
100
AcDbSymbolTable
 70
1
  0
LAYER
  5
50
100
AcDbSymbolTableRecord
100
AcDbLayerTableRecord
  2
0
 70
0
  6
CONTINUOUS
  0
ENDTAB
  0
TABLE
  2
STYLE
  5
3
330
0
100
AcDbSymbolTable
 70
     1
  0
STYLE
  5
11
330
3
100
AcDbSymbolTableRecord
100
AcDbTextStyleTableRecord
  2
STANDARD
 70
     0
 40
0.0
 41
1.0
 50
0.0
 71
     0
 42
2.5
  3
txt
  4

  0
ENDTAB
  0
TABLE
  2
VIEW
  5
6
330
0
100
AcDbSymbolTable
 70
     0
  0
ENDTAB
  0
TABLE
  2
UCS
  5
7
330
0
100
AcDbSymbolTable
 70
     0
  0
ENDTAB
  0
TABLE
  2
APPID
  5
9
330
0
100
AcDbSymbolTable
 70
     2
  0
APPID
  5
12
330
9
100
AcDbSymbolTableRecord
100
AcDbRegAppTableRecord
  2
ACAD
 70
     0
  0
ENDTAB
  0
TABLE
  2
DIMSTYLE
  5
A
330
0
100
AcDbSymbolTable
 70
     1
  0
DIMSTYLE
105
27
330
A
100
AcDbSymbolTableRecord
100
AcDbDimStyleTableRecord
  2
ISO-25
 70
     0
  3

  4

  5

  6

  7

 40
1.0
 41
2.5
 42
0.625
 43
3.75
 44
1.25
 45
0.0
 46
0.0
 47
0.0
 48
0.0
140
2.5
141
2.5
142
0.0
143
0.03937007874016
144
1.0
145
0.0
146
1.0
147
0.625
 71
     0
 72
     0
 73
     0
 74
     0
 75
     0
 76
     0
 77
     1
 78
     8
170
     0
171
     3
172
     1
173
     0
174
     0
175
     0
176
     0
177
     0
178
     0
270
     2
271
     2
272
     2
273
     2
274
     3
340
11
275
     0
280
     0
281
     0
282
     0
283
     0
284
     8
285
     0
286
     0
287
     3
288
     0
  0
ENDTAB
  0
TABLE
  2
BLOCK_RECORD
  5
1
330
0
100
AcDbSymbolTable
 70
     1
  0
BLOCK_RECORD
  5
1F
330
1
100
AcDbSymbolTableRecord
100
AcDbBlockTableRecord
  2
*MODEL_SPACE
  0
BLOCK_RECORD
  5
1B
330
1
100
AcDbSymbolTableRecord
100
AcDbBlockTableRecord
  2
*PAPER_SPACE
  0
ENDTAB
  0
ENDSEC
  0
SECTION
  2
BLOCKS
  0
BLOCK
  5
20
330
1F
100
AcDbEntity
  8
0
100
AcDbBlockBegin
  2
*MODEL_SPACE
 70
     0
 10
0.0
 20
0.0
 30
0.0
  3
*MODEL_SPACE
  1

  0
ENDBLK
  5
21
330
1F
100
AcDbEntity
  8
0
100
AcDbBlockEnd
  0
BLOCK
  5
1C
330
1B
100
AcDbEntity
 67
     1
  8
0
100
AcDbBlockBegin
  2
*PAPER_SPACE
  1

  0
ENDBLK
  5
1D
330
1B
100
AcDbEntity
 67
     1
  8
0
100
AcDbBlockEnd
  0
ENDSEC
  0
SECTION
  2
ENTITIES
  0
LWPOLYLINE
  5
100
100
AcDbEntity
  8
0
 62
7
100
AcDbPolyline
 90
3
 70
0
 10
97.336177
 20
296.002631
 30
0.0
 10
97.260130
 20
296.383888
 30
0.0
 10
97.044050
 20
296.706970
 30
0.0
  0
LWPOLYLINE
  5
101
100
AcDbEntity
  8
0
 62
7
100
AcDbPolyline
 90
2
 70
0
 10
97.044050
 20
296.708009
 30
0.0
 10
96.720348
 20
296.924089
 30
0.0
  0
LWPOLYLINE
  5
102
100
AcDbEntity
  8
0
 62
7
100
AcDbPolyline
 90
9
 70
0
 10
96.720240
 20
296.924089
 30
0.0
 10
96.338674
 20
296.999925
 30
0.0
 10
0.997284
 20
296.999925
 30
0.0
 10
0.615628
 20
296.924089
 30
0.0
 10
0.292101
 20
296.708009
 30
0.0
 10
0.075915
 20
296.383888
 30
0.0
 10
0.000000
 20
296.002631
 30
0.0
 10
0.000000
 20
230.878316
 30
0.0
 10
0.179853
 20
229.063449
 30
0.0
  0
LWPOLYLINE
  5
103
100
AcDbEntity
  8
0
 62
7
100
AcDbPolyline
 90
6
 70
0
 10
0.179852
 20
229.062409
 30
0.0
 10
0.706003
 20
227.328571
 30
0.0
 10
1.558272
 20
225.732901
 30
0.0
 10
2.716513
 20
224.321109
 30
0.0
 10
4.129128
 20
223.162793
 30
0.0
 10
5.725494
 20
222.309900
 30
0.0
  0
LWPOLYLINE
  5
104
100
AcDbEntity
  8
0
 62
7
100
AcDbPolyline
 90
6
 70
0
 10
5.725494
 20
222.310938
 30
0.0
 10
7.456931
 20
221.785282
 30
0.0
 10
9.274790
 20
221.605561
 30
0.0
 10
88.060618
 20
221.605561
 30
0.0
 10
89.878704
 20
221.785282
 30
0.0
 10
91.610150
 20
222.309900
 30
0.0
  0
LWPOLYLINE
  5
105
100
AcDbEntity
  8
0
 62
7
100
AcDbPolyline
 90
5
 70
0
 10
91.610253
 20
222.310938
 30
0.0
 10
93.206341
 20
223.162793
 30
0.0
 10
94.619174
 20
224.321109
 30
0.0
 10
95.777487
 20
225.732901
 30
0.0
 10
96.629551
 20
227.328571
 30
0.0
  0
LWPOLYLINE
  5
106
100
AcDbEntity
  8
0
 62
7
100
AcDbPolyline
 90
3
 70
0
 10
96.629446
 20
227.328571
 30
0.0
 10
97.155622
 20
229.062409
 30
0.0
 10
97.335655
 20
230.877276
 30
0.0
  0
LWPOLYLINE
  5
107
100
AcDbEntity
  8
0
 62
7
100
AcDbPolyline
 90
2
 70
0
 10
97.335549
 20
230.878316
 30
0.0
 10
97.336079
 20
296.002631
 30
0.0
  0
LWPOLYLINE
  5
108
100
AcDbEntity
  8
0
 62
7
100
AcDbPolyline
 90
3
 70
0
 10
80.431529
 20
284.127564
 30
0.0
 10
80.602002
 20
283.670471
 30
0.0
 10
81.030008
 20
283.436730
 30
0.0
  0
LWPOLYLINE
  5
109
100
AcDbEntity
  8
0
 62
7
100
AcDbPolyline
 90
7
 70
0
 10
81.029905
 20
283.436730
 30
0.0
 10
81.029905
 20
281.392279
 30
0.0
 10
81.234454
 20
280.898826
 30
0.0
 10
81.727905
 20
280.694173
 30
0.0
 10
94.394053
 20
280.694173
 30
0.0
 10
94.887715
 20
280.898826
 30
0.0
 10
95.092159
 20
281.392279
 30
0.0
  0
LWPOLYLINE
  5
10a
100
AcDbEntity
  8
0
 62
7
100
AcDbPolyline
 90
3
 70
0
 10
95.092262
 20
281.392279
 30
0.0
 10
95.092262
 20
283.436730
 30
0.0
 10
95.520268
 20
283.670471
 30
0.0
  0
LWPOLYLINE
  5
10b
100
AcDbEntity
  8
0
 62
7
100
AcDbPolyline
 90
4
 70
0
 10
95.520164
 20
283.670471
 30
0.0
 10
95.690432
 20
284.127564
 30
0.0
 10
95.690432
 20
292.718834
 30
0.0
 10
95.520268
 20
293.175927
 30
0.0
  0
LWPOLYLINE
  5
10c
100
AcDbEntity
  8
0
 62
7
100
AcDbPolyline
 90
2
 70
0
 10
95.520164
 20
293.174887
 30
0.0
 10
95.092159
 20
293.409668
 30
0.0
  0
LWPOLYLINE
  5
10d
100
AcDbEntity
  8
0
 62
7
100
AcDbPolyline
 90
7
 70
0
 10
95.092262
 20
293.409668
 30
0.0
 10
95.092262
 20
294.057908
 30
0.0
 10
94.887715
 20
294.551361
 30
0.0
 10
94.394053
 20
294.756014
 30
0.0
 10
81.727905
 20
294.756014
 30
0.0
 10
81.234454
 20
294.551361
 30
0.0
 10
81.030008
 20
294.057908
 30
0.0
  0
LWPOLYLINE
  5
10e
100
AcDbEntity
  8
0
 62
7
100
AcDbPolyline
 90
3
 70
0
 10
81.029905
 20
294.057908
 30
0.0
 10
81.029905
 20
293.409668
 30
0.0
 10
80.601899
 20
293.175927
 30
0.0
  0
LWPOLYLINE
  5
10f
100
AcDbEntity
  8
0
 62
7
100
AcDbPolyline
 90
3
 70
0
 10
80.602002
 20
293.174887
 30
0.0
 10
80.431529
 20
292.718834
 30
0.0
 10
80.431529
 20
284.127564
 30
0.0
  0
LWPOLYLINE
  5
110
100
AcDbEntity
  8
0
 62
7
100
AcDbPolyline
 90
3
 70
0
 10
19.896009
 20
292.718834
 30
0.0
 10
19.896009
 20
284.127564
 30
0.0
 10
19.725638
 20
283.670471
 30
0.0
  0
LWPOLYLINE
  5
111
100
AcDbEntity
  8
0
 62
7
100
AcDbPolyline
 90
13
 70
0
 10
19.725534
 20
283.670471
 30
0.0
 10
19.297633
 20
283.436730
 30
0.0
 10
19.297633
 20
281.392279
 30
0.0
 10
19.093084
 20
280.898826
 30
0.0
 10
18.599527
 20
280.694173
 30
0.0
 10
5.933897
 20
280.694173
 30
0.0
 10
5.440258
 20
280.898826
 30
0.0
 10
5.235782
 20
281.392279
 30
0.0
 10
5.235782
 20
283.436730
 30
0.0
 10
4.807787
 20
283.670471
 30
0.0
 10
4.637406
 20
284.127564
 30
0.0
 10
4.637406
 20
292.718834
 30
0.0
 10
4.807787
 20
293.175927
 30
0.0
  0
LWPOLYLINE
  5
112
100
AcDbEntity
  8
0
 62
7
100
AcDbPolyline
 90
7
 70
0
 10
4.807787
 20
293.174887
 30
0.0
 10
5.235782
 20
293.409668
 30
0.0
 10
5.235782
 20
294.057908
 30
0.0
 10
5.440248
 20
294.551361
 30
0.0
 10
5.933897
 20
294.756014
 30
0.0
 10
18.599527
 20
294.756014
 30
0.0
 10
19.093188
 20
294.551361
 30
0.0
  0
LWPOLYLINE
  5
113
100
AcDbEntity
  8
0
 62
7
100
AcDbPolyline
 90
2
 70
0
 10
19.093084
 20
294.551361
 30
0.0
 10
19.297529
 20
294.057908
 30
0.0
  0
LWPOLYLINE
  5
114
100
AcDbEntity
  8
0
 62
7
100
AcDbPolyline
 90
3
 70
0
 10
19.297633
 20
294.057908
 30
0.0
 10
19.297633
 20
293.409668
 30
0.0
 10
19.725638
 20
293.175927
 30
0.0
  0
LWPOLYLINE
  5
115
100
AcDbEntity
  8
0
 62
7
100
AcDbPolyline
 90
3
 70
0
 10
19.725534
 20
293.174887
 30
0.0
 10
19.896009
 20
292.718834
 30
0.0
 10
19.896009
 20
292.718834
 30
0.0
  0
LWPOLYLINE
  5
116
100
AcDbEntity
  8
0
 62
7
100
AcDbPolyline
 90
3
 70
0
 10
42.534368
 20
284.127564
 30
0.0
 10
42.534368
 20
292.718834
 30
0.0
 10
42.704842
 20
293.175927
 30
0.0
  0
LWPOLYLINE
  5
117
100
AcDbEntity
  8
0
 62
7
100
AcDbPolyline
 90
4
 70
0
 10
42.704842
 20
293.174887
 30
0.0
 10
43.132848
 20
293.409668
 30
0.0
 10
43.132848
 20
294.057908
 30
0.0
 10
43.337397
 20
294.551361
 30
0.0
  0
LWPOLYLINE
  5
118
100
AcDbEntity
  8
0
 62
7
100
AcDbPolyline
 90
4
 70
0
 10
43.337294
 20
294.551361
 30
0.0
 10
43.830744
 20
294.756014
 30
0.0
 10
56.496374
 20
294.756014
 30
0.0
 10
56.990139
 20
294.551361
 30
0.0
  0
LWPOLYLINE
  5
119
100
AcDbEntity
  8
0
 62
7
100
AcDbPolyline
 90
4
 70
0
 10
56.990034
 20
294.551361
 30
0.0
 10
57.194586
 20
294.057908
 30
0.0
 10
57.194586
 20
293.409668
 30
0.0
 10
57.622589
 20
293.175927
 30
0.0
  0
LWPOLYLINE
  5
11a
100
AcDbEntity
  8
0
 62
7
100
AcDbPolyline
 90
2
 70
0
 10
57.622589
 20
293.174887
 30
0.0
 10
57.792962
 20
292.718834
 30
0.0
  0
LWPOLYLINE
  5
11b
100
AcDbEntity
  8
0
 62
7
100
AcDbPolyline
 90
6
 70
0
 10
57.793065
 20
292.718834
 30
0.0
 10
57.793065
 20
284.127564
 30
0.0
 10
57.622589
 20
283.670471
 30
0.0
 10
57.194586
 20
283.436730
 30
0.0
 10
57.194586
 20
281.392279
 30
0.0
 10
56.990139
 20
280.898826
 30
0.0
  0
LWPOLYLINE
  5
11c
100
AcDbEntity
  8
0
 62
7
100
AcDbPolyline
 90
9
 70
0
 10
56.990034
 20
280.898826
 30
0.0
 10
56.496374
 20
280.694173
 30
0.0
 10
43.830744
 20
280.694173
 30
0.0
 10
43.337294
 20
280.898826
 30
0.0
 10
43.132848
 20
281.392279
 30
0.0
 10
43.132848
 20
283.436730
 30
0.0
 10
42.704842
 20
283.670471
 30
0.0
 10
42.534368
 20
284.127564
 30
0.0
 10
42.534368
 20
284.127564
 30
0.0
  0
LWPOLYLINE
  5
11d
100
AcDbEntity
  8
0
 62
7
100
AcDbPolyline
 90
4
 70
0
 10
38.844485
 20
292.718834
 30
0.0
 10
38.844485
 20
284.127564
 30
0.0
 10
38.674008
 20
283.670471
 30
0.0
 10
38.246109
 20
283.436730
 30
0.0
  0
LWPOLYLINE
  5
11e
100
AcDbEntity
  8
0
 62
7
100
AcDbPolyline
 90
7
 70
0
 10
38.246005
 20
283.436730
 30
0.0
 10
38.246005
 20
281.392279
 30
0.0
 10
38.041766
 20
280.898826
 30
0.0
 10
37.548106
 20
280.694173
 30
0.0
 10
24.882477
 20
280.694173
 30
0.0
 10
24.388817
 20
280.898826
 30
0.0
 10
24.184371
 20
281.392279
 30
0.0
  0
LWPOLYLINE
  5
11f
100
AcDbEntity
  8
0
 62
7
100
AcDbPolyline
 90
3
 70
0
 10
24.184268
 20
281.392279
 30
0.0
 10
24.184268
 20
283.436730
 30
0.0
 10
23.756263
 20
283.670471
 30
0.0
  0
LWPOLYLINE
  5
120
100
AcDbEntity
  8
0
 62
7
100
AcDbPolyline
 90
2
 70
0
 10
23.756367
 20
283.670471
 30
0.0
 10
23.585892
 20
284.127564
 30
0.0
  0
LWPOLYLINE
  5
121
100
AcDbEntity
  8
0
 62
7
100
AcDbPolyline
 90
3
 70
0
 10
23.585788
 20
284.127564
 30
0.0
 10
23.585788
 20
292.718834
 30
0.0
 10
23.756263
 20
293.175927
 30
0.0
  0
LWPOLYLINE
  5
122
100
AcDbEntity
  8
0
 62
7
100
AcDbPolyline
 90
2
 70
0
 10
23.756367
 20
293.174887
 30
0.0
 10
24.184371
 20
293.409668
 30
0.0
  0
LWPOLYLINE
  5
123
100
AcDbEntity
  8
0
 62
7
100
AcDbPolyline
 90
9
 70
0
 10
24.184268
 20
293.409668
 30
0.0
 10
24.184268
 20
294.057908
 30
0.0
 10
24.388817
 20
294.551361
 30
0.0
 10
24.882477
 20
294.756014
 30
0.0
 10
37.548106
 20
294.756014
 30
0.0
 10
38.041766
 20
294.551361
 30
0.0
 10
38.246005
 20
294.057908
 30
0.0
 10
38.246005
 20
293.409668
 30
0.0
 10
38.674008
 20
293.175927
 30
0.0
  0
LWPOLYLINE
  5
124
100
AcDbEntity
  8
0
 62
7
100
AcDbPolyline
 90
3
 70
0
 10
38.674008
 20
293.174887
 30
0.0
 10
38.844485
 20
292.718834
 30
0.0
 10
38.844485
 20
292.718834
 30
0.0
  0
LWPOLYLINE
  5
125
100
AcDbEntity
  8
0
 62
7
100
AcDbPolyline
 90
3
 70
0
 10
31.564344
 20
265.178982
 30
0.0
 10
31.564344
 20
273.770254
 30
0.0
 10
31.734508
 20
274.227347
 30
0.0
  0
LWPOLYLINE
  5
126
100
AcDbEntity
  8
0
 62
7
100
AcDbPolyline
 90
4
 70
0
 10
31.734614
 20
274.226308
 30
0.0
 10
32.162617
 20
274.461088
 30
0.0
 10
32.162617
 20
275.109328
 30
0.0
 10
32.367166
 20
275.602781
 30
0.0
  0
LWPOLYLINE
  5
127
100
AcDbEntity
  8
0
 62
7
100
AcDbPolyline
 90
5
 70
0
 10
32.367061
 20
275.602781
 30
0.0
 10
32.860723
 20
275.807434
 30
0.0
 10
45.526353
 20
275.807434
 30
0.0
 10
46.019806
 20
275.602781
 30
0.0
 10
46.224352
 20
275.109328
 30
0.0
  0
LWPOLYLINE
  5
128
100
AcDbEntity
  8
0
 62
7
100
AcDbPolyline
 90
3
 70
0
 10
46.224252
 20
275.109328
 30
0.0
 10
46.224252
 20
274.461088
 30
0.0
 10
46.652257
 20
274.227347
 30
0.0
  0
LWPOLYLINE
  5
129
100
AcDbEntity
  8
0
 62
7
100
AcDbPolyline
 90
4
 70
0
 10
46.652361
 20
274.226308
 30
0.0
 10
46.822731
 20
273.770254
 30
0.0
 10
46.822731
 20
265.178982
 30
0.0
 10
46.652257
 20
264.721891
 30
0.0
  0
LWPOLYLINE
  5
12a
100
AcDbEntity
  8
0
 62
7
100
AcDbPolyline
 90
2
 70
0
 10
46.652361
 20
264.722931
 30
0.0
 10
46.224352
 20
264.488150
 30
0.0
  0
LWPOLYLINE
  5
12b
100
AcDbEntity
  8
0
 62
7
100
AcDbPolyline
 90
10
 70
0
 10
46.224252
 20
264.488150
 30
0.0
 10
46.224252
 20
262.443697
 30
0.0
 10
46.019806
 20
261.950246
 30
0.0
 10
45.526353
 20
261.745591
 30
0.0
 10
32.860723
 20
261.745591
 30
0.0
 10
32.367061
 20
261.950246
 30
0.0
 10
32.162617
 20
262.443697
 30
0.0
 10
32.162617
 20
264.488150
 30
0.0
 10
31.734614
 20
264.721891
 30
0.0
 10
31.564450
 20
265.178982
 30
0.0
  0
LWPOLYLINE
  5
12c
100
AcDbEntity
  8
0
 62
7
100
AcDbPolyline
 90
2
 70
0
 10
69.461192
 20
265.178982
 30
0.0
 10
69.631668
 20
264.721891
 30
0.0
  0
LWPOLYLINE
  5
12d
100
AcDbEntity
  8
0
 62
7
100
AcDbPolyline
 90
4
 70
0
 10
69.631668
 20
264.722931
 30
0.0
 10
70.059672
 20
264.488150
 30
0.0
 10
70.059672
 20
262.443697
 30
0.0
 10
70.264221
 20
261.950246
 30
0.0
  0
LWPOLYLINE
  5
12e
100
AcDbEntity
  8
0
 62
7
100
AcDbPolyline
 90
2
 70
0
 10
70.264118
 20
261.950246
 30
0.0
 10
70.757780
 20
261.745591
 30
0.0
  0
LWPOLYLINE
  5
12f
100
AcDbEntity
  8
0
 62
7
100
AcDbPolyline
 90
3
 70
0
 10
70.757880
 20
261.745591
 30
0.0
 10
83.423513
 20
261.745591
 30
0.0
 10
83.916963
 20
261.950246
 30
0.0
  0
LWPOLYLINE
  5
130
100
AcDbEntity
  8
0
 62
7
100
AcDbPolyline
 90
5
 70
0
 10
83.916863
 20
261.950246
 30
0.0
 10
84.121409
 20
262.443697
 30
0.0
 10
84.121409
 20
264.488150
 30
0.0
 10
84.549415
 20
264.721891
 30
0.0
 10
84.719788
 20
265.178982
 30
0.0
  0
LWPOLYLINE
  5
131
100
AcDbEntity
  8
0
 62
7
100
AcDbPolyline
 90
3
 70
0
 10
84.719891
 20
265.178982
 30
0.0
 10
84.719891
 20
273.770254
 30
0.0
 10
84.549415
 20
274.227347
 30
0.0
  0
LWPOLYLINE
  5
132
100
AcDbEntity
  8
0
 62
7
100
AcDbPolyline
 90
4
 70
0
 10
84.549415
 20
274.226308
 30
0.0
 10
84.121409
 20
274.461088
 30
0.0
 10
84.121409
 20
275.109328
 30
0.0
 10
83.916963
 20
275.602781
 30
0.0
  0
LWPOLYLINE
  5
133
100
AcDbEntity
  8
0
 62
7
100
AcDbPolyline
 90
2
 70
0
 10
83.916863
 20
275.602781
 30
0.0
 10
83.423407
 20
275.807434
 30
0.0
  0
LWPOLYLINE
  5
134
100
AcDbEntity
  8
0
 62
7
100
AcDbPolyline
 90
3
 70
0
 10
83.423513
 20
275.807434
 30
0.0
 10
70.757880
 20
275.807434
 30
0.0
 10
70.264221
 20
275.602781
 30
0.0
  0
LWPOLYLINE
  5
135
100
AcDbEntity
  8
0
 62
7
100
AcDbPolyline
 90
4
 70
0
 10
70.264118
 20
275.602781
 30
0.0
 10
70.059672
 20
275.109328
 30
0.0
 10
70.059672
 20
274.461088
 30
0.0
 10
69.631668
 20
274.227347
 30
0.0
  0
LWPOLYLINE
  5
136
100
AcDbEntity
  8
0
 62
7
100
AcDbPolyline
 90
3
 70
0
 10
69.631668
 20
274.226308
 30
0.0
 10
69.461192
 20
273.770254
 30
0.0
 10
69.461192
 20
265.178982
 30
0.0
  0
LWPOLYLINE
  5
137
100
AcDbEntity
  8
0
 62
7
100
AcDbPolyline
 90
5
 70
0
 10
58.490964
 20
246.229365
 30
0.0
 10
58.661438
 20
245.773311
 30
0.0
 10
59.089444
 20
245.538533
 30
0.0
 10
59.089444
 20
243.496157
 30
0.0
 10
59.293993
 20
243.002706
 30
0.0
  0
LWPOLYLINE
  5
138
100
AcDbEntity
  8
0
 62
7
100
AcDbPolyline
 90
4
 70
0
 10
59.293890
 20
243.002706
 30
0.0
 10
59.787549
 20
242.797011
 30
0.0
 10
72.453179
 20
242.797011
 30
0.0
 10
72.946838
 20
243.002706
 30
0.0
  0
LWPOLYLINE
  5
139
100
AcDbEntity
  8
0
 62
7
100
AcDbPolyline
 90
2
 70
0
 10
72.946944
 20
243.002706
 30
0.0
 10
73.151494
 20
243.496157
 30
0.0
  0
LWPOLYLINE
  5
13a
100
AcDbEntity
  8
0
 62
7
100
AcDbPolyline
 90
4
 70
0
 10
73.151385
 20
243.496157
 30
0.0
 10
73.151385
 20
245.538533
 30
0.0
 10
73.579391
 20
245.773311
 30
0.0
 10
73.749661
 20
246.229365
 30
0.0
  0
LWPOLYLINE
  5
13b
100
AcDbEntity
  8
0
 62
7
100
AcDbPolyline
 90
3
 70
0
 10
73.749555
 20
246.229365
 30
0.0
 10
73.749555
 20
254.821675
 30
0.0
 10
73.579391
 20
255.278766
 30
0.0
  0
LWPOLYLINE
  5
13c
100
AcDbEntity
  8
0
 62
7
100
AcDbPolyline
 90
2
 70
0
 10
73.579391
 20
255.277729
 30
0.0
 10
73.151494
 20
255.512507
 30
0.0
  0
LWPOLYLINE
  5
13d
100
AcDbEntity
  8
0
 62
7
100
AcDbPolyline
 90
4
 70
0
 10
73.151385
 20
255.512507
 30
0.0
 10
73.151385
 20
256.160749
 30
0.0
 10
72.946944
 20
256.654202
 30
0.0
 10
72.453280
 20
256.858852
 30
0.0
  0
LWPOLYLINE
  5
13e
100
AcDbEntity
  8
0
 62
7
100
AcDbPolyline
 90
6
 70
0
 10
72.453179
 20
256.858852
 30
0.0
 10
59.787549
 20
256.858852
 30
0.0
 10
59.293890
 20
256.654202
 30
0.0
 10
59.089444
 20
256.160749
 30
0.0
 10
59.089444
 20
255.512507
 30
0.0
 10
58.661438
 20
255.278766
 30
0.0
  0
LWPOLYLINE
  5
13f
100
AcDbEntity
  8
0
 62
7
100
AcDbPolyline
 90
3
 70
0
 10
58.661438
 20
255.277729
 30
0.0
 10
58.490964
 20
254.821675
 30
0.0
 10
58.490964
 20
246.229365
 30
0.0
  0
LWPOLYLINE
  5
140
100
AcDbEntity
  8
0
 62
7
100
AcDbPolyline
 90
11
 70
0
 10
1.645525
 20
246.229365
 30
0.0
 10
1.815906
 20
245.773311
 30
0.0
 10
2.243900
 20
245.538533
 30
0.0
 10
2.243900
 20
243.496157
 30
0.0
 10
2.448366
 20
243.002706
 30
0.0
 10
2.942006
 20
242.797011
 30
0.0
 10
15.607646
 20
242.797011
 30
0.0
 10
16.101307
 20
243.002706
 30
0.0
 10
16.305752
 20
243.496157
 30
0.0
 10
16.305752
 20
245.538533
 30
0.0
 10
16.733757
 20
245.773311
 30
0.0
  0
LWPOLYLINE
  5
141
100
AcDbEntity
  8
0
 62
7
100
AcDbPolyline
 90
4
 70
0
 10
16.733653
 20
245.773311
 30
0.0
 10
16.904128
 20
246.229365
 30
0.0
 10
16.904128
 20
254.821675
 30
0.0
 10
16.733757
 20
255.278766
 30
0.0
  0
LWPOLYLINE
  5
142
100
AcDbEntity
  8
0
 62
7
100
AcDbPolyline
 90
10
 70
0
 10
16.733653
 20
255.277729
 30
0.0
 10
16.305752
 20
255.512507
 30
0.0
 10
16.305752
 20
256.160749
 30
0.0
 10
16.101307
 20
256.654202
 30
0.0
 10
15.607646
 20
256.858852
 30
0.0
 10
2.942016
 20
256.858852
 30
0.0
 10
2.448366
 20
256.654202
 30
0.0
 10
2.243890
 20
256.160749
 30
0.0
 10
2.243900
 20
255.512507
 30
0.0
 10
1.815906
 20
255.278766
 30
0.0
  0
LWPOLYLINE
  5
143
100
AcDbEntity
  8
0
 62
7
100
AcDbPolyline
 90
3
 70
0
 10
1.815906
 20
255.277729
 30
0.0
 10
1.645535
 20
254.821675
 30
0.0
 10
1.645525
 20
246.229365
 30
0.0
  0
LWPOLYLINE
  5
144
100
AcDbEntity
  8
0
 62
7
100
AcDbPolyline
 90
2
 70
0
 10
77.439751
 20
246.229365
 30
0.0
 10
77.609915
 20
245.773311
 30
0.0
  0
LWPOLYLINE
  5
145
100
AcDbEntity
  8
0
 62
7
100
AcDbPolyline
 90
2
 70
0
 10
77.610018
 20
245.773311
 30
0.0
 10
78.038024
 20
245.538533
 30
0.0
  0
LWPOLYLINE
  5
146
100
AcDbEntity
  8
0
 62
7
100
AcDbPolyline
 90
9
 70
0
 10
78.037920
 20
245.538533
 30
0.0
 10
78.037920
 20
243.496157
 30
0.0
 10
78.242470
 20
243.002706
 30
0.0
 10
78.736129
 20
242.797011
 30
0.0
 10
91.401757
 20
242.797011
 30
0.0
 10
91.895419
 20
243.002706
 30
0.0
 10
92.099965
 20
243.496157
 30
0.0
 10
92.099965
 20
245.538533
 30
0.0
 10
92.527971
 20
245.773311
 30
0.0
  0
LWPOLYLINE
  5
147
100
AcDbEntity
  8
0
 62
7
100
AcDbPolyline
 90
4
 70
0
 10
92.527868
 20
245.773311
 30
0.0
 10
92.698135
 20
246.229365
 30
0.0
 10
92.698135
 20
254.821675
 30
0.0
 10
92.527971
 20
255.278766
 30
0.0
  0
LWPOLYLINE
  5
148
100
AcDbEntity
  8
0
 62
7
100
AcDbPolyline
 90
4
 70
0
 10
92.527868
 20
255.277729
 30
0.0
 10
92.099965
 20
255.512507
 30
0.0
 10
92.099965
 20
256.160749
 30
0.0
 10
91.895524
 20
256.654202
 30
0.0
  0
LWPOLYLINE
  5
149
100
AcDbEntity
  8
0
 62
7
100
AcDbPolyline
 90
5
 70
0
 10
91.895419
 20
256.654202
 30
0.0
 10
91.401757
 20
256.858852
 30
0.0
 10
78.736129
 20
256.858852
 30
0.0
 10
78.242470
 20
256.654202
 30
0.0
 10
78.038024
 20
256.160749
 30
0.0
  0
LWPOLYLINE
  5
14a
100
AcDbEntity
  8
0
 62
7
100
AcDbPolyline
 90
3
 70
0
 10
78.037920
 20
256.160749
 30
0.0
 10
78.037920
 20
255.512507
 30
0.0
 10
77.609915
 20
255.278766
 30
0.0
  0
LWPOLYLINE
  5
14b
100
AcDbEntity
  8
0
 62
7
100
AcDbPolyline
 90
2
 70
0
 10
77.610018
 20
255.277729
 30
0.0
 10
77.439854
 20
254.821675
 30
0.0
  0
LWPOLYLINE
  5
14c
100
AcDbEntity
  8
0
 62
7
100
AcDbPolyline
 90
2
 70
0
 10
77.439751
 20
254.821675
 30
0.0
 10
77.439751
 20
246.229365
 30
0.0
  0
LWPOLYLINE
  5
14d
100
AcDbEntity
  8
0
 62
7
100
AcDbPolyline
 90
2
 70
0
 10
50.512715
 20
265.178982
 30
0.0
 10
50.683191
 20
264.721891
 30
0.0
  0
LWPOLYLINE
  5
14e
100
AcDbEntity
  8
0
 62
7
100
AcDbPolyline
 90
2
 70
0
 10
50.683191
 20
264.722931
 30
0.0
 10
51.111197
 20
264.488150
 30
0.0
  0
LWPOLYLINE
  5
14f
100
AcDbEntity
  8
0
 62
7
100
AcDbPolyline
 90
7
 70
0
 10
51.111094
 20
264.488150
 30
0.0
 10
51.111094
 20
262.443697
 30
0.0
 10
51.315641
 20
261.950246
 30
0.0
 10
51.809303
 20
261.745591
 30
0.0
 10
64.474933
 20
261.745591
 30
0.0
 10
64.968386
 20
261.950246
 30
0.0
 10
65.172932
 20
262.443697
 30
0.0
  0
LWPOLYLINE
  5
150
100
AcDbEntity
  8
0
 62
7
100
AcDbPolyline
 90
3
 70
0
 10
65.172829
 20
262.443697
 30
0.0
 10
65.172829
 20
264.488150
 30
0.0
 10
65.600838
 20
264.721891
 30
0.0
  0
LWPOLYLINE
  5
151
100
AcDbEntity
  8
0
 62
7
100
AcDbPolyline
 90
4
 70
0
 10
65.600938
 20
264.721891
 30
0.0
 10
65.771311
 20
265.178982
 30
0.0
 10
65.771311
 20
273.770254
 30
0.0
 10
65.600838
 20
274.227347
 30
0.0
  0
LWPOLYLINE
  5
152
100
AcDbEntity
  8
0
 62
7
100
AcDbPolyline
 90
2
 70
0
 10
65.600938
 20
274.226308
 30
0.0
 10
65.172932
 20
274.461088
 30
0.0
  0
LWPOLYLINE
  5
153
100
AcDbEntity
  8
0
 62
7
100
AcDbPolyline
 90
7
 70
0
 10
65.172829
 20
274.461088
 30
0.0
 10
65.172829
 20
275.109328
 30
0.0
 10
64.968386
 20
275.602781
 30
0.0
 10
64.474933
 20
275.807434
 30
0.0
 10
51.809303
 20
275.807434
 30
0.0
 10
51.315641
 20
275.602781
 30
0.0
 10
51.111197
 20
275.109328
 30
0.0
  0
LWPOLYLINE
  5
154
100
AcDbEntity
  8
0
 62
7
100
AcDbPolyline
 90
3
 70
0
 10
51.111094
 20
275.109328
 30
0.0
 10
51.111094
 20
274.461088
 30
0.0
 10
50.683088
 20
274.227347
 30
0.0
  0
LWPOLYLINE
  5
155
100
AcDbEntity
  8
0
 62
7
100
AcDbPolyline
 90
3
 70
0
 10
50.683191
 20
274.226308
 30
0.0
 10
50.512715
 20
273.770254
 30
0.0
 10
50.512715
 20
265.178982
 30
0.0
  0
LWPOLYLINE
  5
156
100
AcDbEntity
  8
0
 62
7
100
AcDbPolyline
 90
5
 70
0
 10
61.482948
 20
284.127564
 30
0.0
 10
61.653422
 20
283.670471
 30
0.0
 10
62.081428
 20
283.436730
 30
0.0
 10
62.081428
 20
281.392279
 30
0.0
 10
62.285977
 20
280.898826
 30
0.0
  0
LWPOLYLINE
  5
157
100
AcDbEntity
  8
0
 62
7
100
AcDbPolyline
 90
4
 70
0
 10
62.285874
 20
280.898826
 30
0.0
 10
62.779324
 20
280.694173
 30
0.0
 10
75.444954
 20
280.694173
 30
0.0
 10
75.938720
 20
280.898826
 30
0.0
  0
LWPOLYLINE
  5
158
100
AcDbEntity
  8
0
 62
7
100
AcDbPolyline
 90
7
 70
0
 10
75.938614
 20
280.898826
 30
0.0
 10
76.143166
 20
281.392279
 30
0.0
 10
76.143166
 20
283.436730
 30
0.0
 10
76.571169
 20
283.670471
 30
0.0
 10
76.741542
 20
284.127564
 30
0.0
 10
76.741542
 20
292.718834
 30
0.0
 10
76.571066
 20
293.175927
 30
0.0
  0
LWPOLYLINE
  5
159
100
AcDbEntity
  8
0
 62
7
100
AcDbPolyline
 90
4
 70
0
 10
76.571169
 20
293.174887
 30
0.0
 10
76.143166
 20
293.409668
 30
0.0
 10
76.143166
 20
294.057908
 30
0.0
 10
75.938720
 20
294.551361
 30
0.0
  0
LWPOLYLINE
  5
15a
100
AcDbEntity
  8
0
 62
7
100
AcDbPolyline
 90
7
 70
0
 10
75.938614
 20
294.551361
 30
0.0
 10
75.444954
 20
294.756014
 30
0.0
 10
62.779324
 20
294.756014
 30
0.0
 10
62.285874
 20
294.551361
 30
0.0
 10
62.081428
 20
294.057908
 30
0.0
 10
62.081428
 20
293.409668
 30
0.0
 10
61.653422
 20
293.175927
 30
0.0
  0
LWPOLYLINE
  5
15b
100
AcDbEntity
  8
0
 62
7
100
AcDbPolyline
 90
3
 70
0
 10
61.653422
 20
293.174887
 30
0.0
 10
61.482948
 20
292.718834
 30
0.0
 10
61.482948
 20
284.127564
 30
0.0
  0
LWPOLYLINE
  5
15c
100
AcDbEntity
  8
0
 62
7
100
AcDbPolyline
 90
12
 70
0
 10
27.275984
 20
264.488150
 30
0.0
 10
27.275984
 20
262.443697
 30
0.0
 10
27.071538
 20
261.950246
 30
0.0
 10
26.577876
 20
261.745591
 30
0.0
 10
13.912247
 20
261.745591
 30
0.0
 10
13.418586
 20
261.950246
 30
0.0
 10
13.214141
 20
262.443697
 30
0.0
 10
13.214141
 20
264.488150
 30
0.0
 10
12.786137
 20
264.721891
 30
0.0
 10
12.615765
 20
265.178982
 30
0.0
 10
12.615765
 20
273.770254
 30
0.0
 10
12.786137
 20
274.227347
 30
0.0
  0
LWPOLYLINE
  5
15d
100
AcDbEntity
  8
0
 62
7
100
AcDbPolyline
 90
8
 70
0
 10
12.786137
 20
274.226308
 30
0.0
 10
13.214141
 20
274.461088
 30
0.0
 10
13.214141
 20
275.109328
 30
0.0
 10
13.418586
 20
275.602781
 30
0.0
 10
13.912247
 20
275.807434
 30
0.0
 10
26.577876
 20
275.807434
 30
0.0
 10
27.071538
 20
275.602781
 30
0.0
 10
27.276084
 20
275.109328
 30
0.0
  0
LWPOLYLINE
  5
15e
100
AcDbEntity
  8
0
 62
7
100
AcDbPolyline
 90
3
 70
0
 10
27.275984
 20
275.109328
 30
0.0
 10
27.275984
 20
274.461088
 30
0.0
 10
27.703987
 20
274.227347
 30
0.0
  0
LWPOLYLINE
  5
15f
100
AcDbEntity
  8
0
 62
7
100
AcDbPolyline
 90
4
 70
0
 10
27.703987
 20
274.226308
 30
0.0
 10
27.874254
 20
273.770254
 30
0.0
 10
27.874254
 20
265.178982
 30
0.0
 10
27.704090
 20
264.721891
 30
0.0
  0
LWPOLYLINE
  5
160
100
AcDbEntity
  8
0
 62
7
100
AcDbPolyline
 90
2
 70
0
 10
27.703987
 20
264.722931
 30
0.0
 10
27.276084
 20
264.488150
 30
0.0
  0
LWPOLYLINE
  5
161
100
AcDbEntity
  8
0
 62
7
100
AcDbPolyline
 90
6
 70
0
 10
61.931729
 20
226.589950
 30
0.0
 10
61.931729
 20
224.545499
 30
0.0
 10
61.727283
 20
224.052046
 30
0.0
 10
61.233624
 20
223.848431
 30
0.0
 10
48.567996
 20
223.848431
 30
0.0
 10
48.074334
 20
224.052046
 30
0.0
  0
LWPOLYLINE
  5
162
100
AcDbEntity
  8
0
 62
7
100
AcDbPolyline
 90
2
 70
0
 10
48.074231
 20
224.052046
 30
0.0
 10
47.869991
 20
224.545499
 30
0.0
  0
LWPOLYLINE
  5
163
100
AcDbEntity
  8
0
 62
7
100
AcDbPolyline
 90
3
 70
0
 10
47.870095
 20
224.545499
 30
0.0
 10
47.870095
 20
226.589950
 30
0.0
 10
47.442091
 20
226.824731
 30
0.0
  0
LWPOLYLINE
  5
164
100
AcDbEntity
  8
0
 62
7
100
AcDbPolyline
 90
2
 70
0
 10
47.442091
 20
226.825771
 30
0.0
 10
47.271615
 20
227.281822
 30
0.0
  0
LWPOLYLINE
  5
165
100
AcDbEntity
  8
0
 62
7
100
AcDbPolyline
 90
4
 70
0
 10
47.271615
 20
227.280788
 30
0.0
 10
47.271615
 20
235.873095
 30
0.0
 10
47.442091
 20
236.329149
 30
0.0
 10
47.870095
 20
236.564967
 30
0.0
  0
LWPOLYLINE
  5
166
100
AcDbEntity
  8
0
 62
7
100
AcDbPolyline
 90
3
 70
0
 10
47.870095
 20
236.563927
 30
0.0
 10
47.870095
 20
237.211129
 30
0.0
 10
48.074334
 20
237.707699
 30
0.0
  0
LWPOLYLINE
  5
167
100
AcDbEntity
  8
0
 62
7
100
AcDbPolyline
 90
4
 70
0
 10
48.074231
 20
237.706662
 30
0.0
 10
48.567996
 20
237.910275
 30
0.0
 10
61.233624
 20
237.910275
 30
0.0
 10
61.727283
 20
237.707699
 30
0.0
  0
LWPOLYLINE
  5
168
100
AcDbEntity
  8
0
 62
7
100
AcDbPolyline
 90
2
 70
0
 10
61.727283
 20
237.706662
 30
0.0
 10
61.931832
 20
237.213206
 30
0.0
  0
LWPOLYLINE
  5
169
100
AcDbEntity
  8
0
 62
7
100
AcDbPolyline
 90
6
 70
0
 10
61.931729
 20
237.213206
 30
0.0
 10
61.931729
 20
236.563927
 30
0.0
 10
62.359735
 20
236.329149
 30
0.0
 10
62.530211
 20
235.873095
 30
0.0
 10
62.530211
 20
227.280788
 30
0.0
 10
62.359735
 20
226.824731
 30
0.0
  0
LWPOLYLINE
  5
16a
100
AcDbEntity
  8
0
 62
7
100
AcDbPolyline
 90
2
 70
0
 10
62.359735
 20
226.825771
 30
0.0
 10
61.931832
 20
226.590990
 30
0.0
  0
LWPOLYLINE
  5
16b
100
AcDbEntity
  8
0
 62
7
100
AcDbPolyline
 90
6
 70
0
 10
54.202808
 20
245.538533
 30
0.0
 10
54.202808
 20
243.496157
 30
0.0
 10
53.998364
 20
243.002706
 30
0.0
 10
53.504699
 20
242.797011
 30
0.0
 10
40.839072
 20
242.797011
 30
0.0
 10
40.345413
 20
243.002706
 30
0.0
  0
LWPOLYLINE
  5
16c
100
AcDbEntity
  8
0
 62
7
100
AcDbPolyline
 90
2
 70
0
 10
40.345310
 20
243.002706
 30
0.0
 10
40.141072
 20
243.496157
 30
0.0
  0
LWPOLYLINE
  5
16d
100
AcDbEntity
  8
0
 62
7
100
AcDbPolyline
 90
6
 70
0
 10
40.141173
 20
243.496157
 30
0.0
 10
40.141173
 20
245.538533
 30
0.0
 10
39.713170
 20
245.773311
 30
0.0
 10
39.542694
 20
246.229365
 30
0.0
 10
39.542694
 20
254.821675
 30
0.0
 10
39.713170
 20
255.278766
 30
0.0
  0
LWPOLYLINE
  5
16e
100
AcDbEntity
  8
0
 62
7
100
AcDbPolyline
 90
4
 70
0
 10
39.713170
 20
255.277729
 30
0.0
 10
40.141173
 20
255.512507
 30
0.0
 10
40.141173
 20
256.160749
 30
0.0
 10
40.345413
 20
256.654202
 30
0.0
  0
LWPOLYLINE
  5
16f
100
AcDbEntity
  8
0
 62
7
100
AcDbPolyline
 90
2
 70
0
 10
40.345310
 20
256.654202
 30
0.0
 10
40.838969
 20
256.858852
 30
0.0
  0
LWPOLYLINE
  5
170
100
AcDbEntity
  8
0
 62
7
100
AcDbPolyline
 90
4
 70
0
 10
40.839072
 20
256.858852
 30
0.0
 10
53.504699
 20
256.858852
 30
0.0
 10
53.998364
 20
256.654202
 30
0.0
 10
54.202913
 20
256.160749
 30
0.0
  0
LWPOLYLINE
  5
171
100
AcDbEntity
  8
0
 62
7
100
AcDbPolyline
 90
3
 70
0
 10
54.202808
 20
256.160749
 30
0.0
 10
54.202808
 20
255.512507
 30
0.0
 10
54.630813
 20
255.278766
 30
0.0
  0
LWPOLYLINE
  5
172
100
AcDbEntity
  8
0
 62
7
100
AcDbPolyline
 90
4
 70
0
 10
54.630813
 20
255.277729
 30
0.0
 10
54.801081
 20
254.821675
 30
0.0
 10
54.801081
 20
246.229365
 30
0.0
 10
54.630917
 20
245.773311
 30
0.0
  0
LWPOLYLINE
  5
173
100
AcDbEntity
  8
0
 62
7
100
AcDbPolyline
 90
2
 70
0
 10
54.630813
 20
245.773311
 30
0.0
 10
54.202913
 20
245.538533
 30
0.0
  0
LWPOLYLINE
  5
174
100
AcDbEntity
  8
0
 62
7
100
AcDbPolyline
 90
3
 70
0
 10
35.254333
 20
245.538533
 30
0.0
 10
35.254333
 20
243.496157
 30
0.0
 10
35.049887
 20
243.002706
 30
0.0
  0
LWPOLYLINE
  5
175
100
AcDbEntity
  8
0
 62
7
100
AcDbPolyline
 90
10
 70
0
 10
35.049781
 20
243.002706
 30
0.0
 10
34.556122
 20
242.797011
 30
0.0
 10
21.890492
 20
242.797011
 30
0.0
 10
21.396832
 20
243.002706
 30
0.0
 10
21.192594
 20
243.496157
 30
0.0
 10
21.192594
 20
245.538533
 30
0.0
 10
20.764485
 20
245.773311
 30
0.0
 10
20.594114
 20
246.229365
 30
0.0
 10
20.594114
 20
254.821675
 30
0.0
 10
20.764485
 20
255.278766
 30
0.0
  0
LWPOLYLINE
  5
176
100
AcDbEntity
  8
0
 62
7
100
AcDbPolyline
 90
10
 70
0
 10
20.764485
 20
255.277729
 30
0.0
 10
21.192594
 20
255.512507
 30
0.0
 10
21.192594
 20
256.160749
 30
0.0
 10
21.396832
 20
256.654202
 30
0.0
 10
21.890492
 20
256.858852
 30
0.0
 10
34.556122
 20
256.858852
 30
0.0
 10
35.049781
 20
256.654202
 30
0.0
 10
35.254333
 20
256.160749
 30
0.0
 10
35.254333
 20
255.512507
 30
0.0
 10
35.682339
 20
255.278766
 30
0.0
  0
LWPOLYLINE
  5
177
100
AcDbEntity
  8
0
 62
7
100
AcDbPolyline
 90
6
 70
0
 10
35.682233
 20
255.277729
 30
0.0
 10
35.852707
 20
254.821675
 30
0.0
 10
35.852707
 20
246.229365
 30
0.0
 10
35.682233
 20
245.773311
 30
0.0
 10
35.254333
 20
245.538533
 30
0.0
 10
35.254333
 20
245.538533
 30
0.0
  0
LWPOLYLINE
  5
178
100
AcDbEntity
  8
0
 62
7
100
AcDbPolyline
 90
4
 70
0
 10
90.354496
 20
226.589950
 30
0.0
 10
90.354496
 20
224.545499
 30
0.0
 10
90.150259
 20
224.052046
 30
0.0
 10
89.656597
 20
223.848431
 30
0.0
  0
LWPOLYLINE
  5
179
100
AcDbEntity
  8
0
 62
7
100
AcDbPolyline
 90
3
 70
0
 10
89.656494
 20
223.848431
 30
0.0
 10
76.990967
 20
223.848431
 30
0.0
 10
76.497308
 20
224.052046
 30
0.0
  0
LWPOLYLINE
  5
17a
100
AcDbEntity
  8
0
 62
7
100
AcDbPolyline
 90
4
 70
0
 10
76.497205
 20
224.052046
 30
0.0
 10
76.292758
 20
224.545499
 30
0.0
 10
76.292758
 20
226.589950
 30
0.0
 10
75.864753
 20
226.824731
 30
0.0
  0
LWPOLYLINE
  5
17b
100
AcDbEntity
  8
0
 62
7
100
AcDbPolyline
 90
2
 70
0
 10
75.864753
 20
226.825771
 30
0.0
 10
75.694276
 20
227.281822
 30
0.0
  0
LWPOLYLINE
  5
17c
100
AcDbEntity
  8
0
 62
7
100
AcDbPolyline
 90
4
 70
0
 10
75.694276
 20
227.280788
 30
0.0
 10
75.694276
 20
235.873095
 30
0.0
 10
75.864753
 20
236.329149
 30
0.0
 10
76.292758
 20
236.564967
 30
0.0
  0
LWPOLYLINE
  5
17d
100
AcDbEntity
  8
0
 62
7
100
AcDbPolyline
 90
3
 70
0
 10
76.292758
 20
236.563927
 30
0.0
 10
76.292758
 20
237.211129
 30
0.0
 10
76.497308
 20
237.707699
 30
0.0
  0
LWPOLYLINE
  5
17e
100
AcDbEntity
  8
0
 62
7
100
AcDbPolyline
 90
2
 70
0
 10
76.497205
 20
237.706662
 30
0.0
 10
76.990864
 20
237.910275
 30
0.0
  0
LWPOLYLINE
  5
17f
100
AcDbEntity
  8
0
 62
7
100
AcDbPolyline
 90
3
 70
0
 10
76.990967
 20
237.910275
 30
0.0
 10
89.656494
 20
237.910275
 30
0.0
 10
90.149947
 20
237.707699
 30
0.0
  0
LWPOLYLINE
  5
180
100
AcDbEntity
  8
0
 62
7
100
AcDbPolyline
 90
7
 70
0
 10
90.149947
 20
237.706662
 30
0.0
 10
90.354496
 20
237.213206
 30
0.0
 10
90.354496
 20
236.563927
 30
0.0
 10
90.782499
 20
236.329149
 30
0.0
 10
90.952872
 20
235.873095
 30
0.0
 10
90.952872
 20
227.280788
 30
0.0
 10
90.782399
 20
226.824731
 30
0.0
  0
LWPOLYLINE
  5
181
100
AcDbEntity
  8
0
 62
7
100
AcDbPolyline
 90
2
 70
0
 10
90.782499
 20
226.825771
 30
0.0
 10
90.354496
 20
226.590990
 30
0.0
  0
SPLINE
  5
182
100
AcDbEntity
  8
0
 62
7
100
AcDbSpline
 70
8
 71
3
 72
8
 73
4
 74
0
 40
0
 40
0
 40
0
 40
0
 40
1
 40
1
 40
1
 40
1
 10
8.977788
 20
235.914782
 30
0.0
 10
9.100107
 20
235.914782
 30
0.0
 10
9.198580
 20
235.816310
 30
0.0
 10
9.198580
 20
235.693990
 30
0.0
  0
LWPOLYLINE
  5
183
100
AcDbEntity
  8
0
 62
7
100
AcDbPolyline
 90
2
 70
0
 10
7.520791
 20
235.914782
 30
0.0
 10
8.977788
 20
235.914782
 30
0.0
  0
SPLINE
  5
184
100
AcDbEntity
  8
0
 62
7
100
AcDbSpline
 70
8
 71
3
 72
8
 73
4
 74
0
 40
0
 40
0
 40
0
 40
0
 40
1
 40
1
 40
1
 40
1
 10
9.198580
 20
234.236991
 30
0.0
 10
9.198580
 20
234.114674
 30
0.0
 10
9.100107
 20
234.016199
 30
0.0
 10
8.977788
 20
234.016199
 30
0.0
  0
LWPOLYLINE
  5
185
100
AcDbEntity
  8
0
 62
7
100
AcDbPolyline
 90
2
 70
0
 10
9.198580
 20
235.693990
 30
0.0
 10
9.198580
 20
234.236991
 30
0.0
  0
SPLINE
  5
186
100
AcDbEntity
  8
0
 62
7
100
AcDbSpline
 70
8
 71
3
 72
8
 73
4
 74
0
 40
0
 40
0
 40
0
 40
0
 40
1
 40
1
 40
1
 40
1
 10
7.520791
 20
234.016199
 30
0.0
 10
7.398471
 20
234.016199
 30
0.0
 10
7.299998
 20
234.114674
 30
0.0
 10
7.299998
 20
234.236991
 30
0.0
  0
LWPOLYLINE
  5
187
100
AcDbEntity
  8
0
 62
7
100
AcDbPolyline
 90
2
 70
0
 10
8.977788
 20
234.016199
 30
0.0
 10
7.520791
 20
234.016199
 30
0.0
  0
SPLINE
  5
188
100
AcDbEntity
  8
0
 62
7
100
AcDbSpline
 70
8
 71
3
 72
8
 73
4
 74
0
 40
0
 40
0
 40
0
 40
0
 40
1
 40
1
 40
1
 40
1
 10
7.299998
 20
235.693990
 30
0.0
 10
7.299998
 20
235.816310
 30
0.0
 10
7.398471
 20
235.914782
 30
0.0
 10
7.520791
 20
235.914782
 30
0.0
  0
LWPOLYLINE
  5
189
100
AcDbEntity
  8
0
 62
7
100
AcDbPolyline
 90
2
 70
0
 10
7.299998
 20
234.236991
 30
0.0
 10
7.299998
 20
235.693990
 30
0.0
  0
LWPOLYLINE
  5
18a
100
AcDbEntity
  8
0
 62
7
100
AcDbPolyline
 90
1
 70
1
 10
7.520791
 20
235.914782
 30
0.0
  0
SPLINE
  5
18b
100
AcDbEntity
  8
0
 62
7
100
AcDbSpline
 70
8
 71
3
 72
8
 73
4
 74
0
 40
0
 40
0
 40
0
 40
0
 40
1
 40
1
 40
1
 40
1
 10
15.202414
 20
228.503525
 30
0.0
 10
15.324733
 20
228.503525
 30
0.0
 10
15.423206
 20
228.405052
 30
0.0
 10
15.423206
 20
228.282735
 30
0.0
  0
LWPOLYLINE
  5
18c
100
AcDbEntity
  8
0
 62
7
100
AcDbPolyline
 90
2
 70
0
 10
12.506966
 20
228.503525
 30
0.0
 10
15.202414
 20
228.503525
 30
0.0
  0
SPLINE
  5
18d
100
AcDbEntity
  8
0
 62
7
100
AcDbSpline
 70
8
 71
3
 72
8
 73
4
 74
0
 40
0
 40
0
 40
0
 40
0
 40
1
 40
1
 40
1
 40
1
 10
15.423206
 20
226.825736
 30
0.0
 10
15.423206
 20
226.703417
 30
0.0
 10
15.324733
 20
226.604944
 30
0.0
 10
15.202414
 20
226.604944
 30
0.0
  0
LWPOLYLINE
  5
18e
100
AcDbEntity
  8
0
 62
7
100
AcDbPolyline
 90
2
 70
0
 10
15.423206
 20
228.282735
 30
0.0
 10
15.423206
 20
226.825736
 30
0.0
  0
SPLINE
  5
18f
100
AcDbEntity
  8
0
 62
7
100
AcDbSpline
 70
8
 71
3
 72
8
 73
4
 74
0
 40
0
 40
0
 40
0
 40
0
 40
1
 40
1
 40
1
 40
1
 10
12.506966
 20
226.604944
 30
0.0
 10
12.384648
 20
226.604944
 30
0.0
 10
12.286173
 20
226.703417
 30
0.0
 10
12.286173
 20
226.825736
 30
0.0
  0
LWPOLYLINE
  5
190
100
AcDbEntity
  8
0
 62
7
100
AcDbPolyline
 90
2
 70
0
 10
15.202414
 20
226.604944
 30
0.0
 10
12.506966
 20
226.604944
 30
0.0
  0
SPLINE
  5
191
100
AcDbEntity
  8
0
 62
7
100
AcDbSpline
 70
8
 71
3
 72
8
 73
4
 74
0
 40
0
 40
0
 40
0
 40
0
 40
1
 40
1
 40
1
 40
1
 10
12.286173
 20
228.282735
 30
0.0
 10
12.286173
 20
228.405052
 30
0.0
 10
12.384648
 20
228.503525
 30
0.0
 10
12.506966
 20
228.503525
 30
0.0
  0
LWPOLYLINE
  5
192
100
AcDbEntity
  8
0
 62
7
100
AcDbPolyline
 90
2
 70
0
 10
12.286173
 20
226.825736
 30
0.0
 10
12.286173
 20
228.282735
 30
0.0
  0
LWPOLYLINE
  5
193
100
AcDbEntity
  8
0
 62
7
100
AcDbPolyline
 90
1
 70
1
 10
12.506966
 20
228.503525
 30
0.0
  0
SPLINE
  5
194
100
AcDbEntity
  8
0
 62
7
100
AcDbSpline
 70
8
 71
3
 72
8
 73
4
 74
0
 40
0
 40
0
 40
0
 40
0
 40
1
 40
1
 40
1
 40
1
 10
18.878370
 20
228.518132
 30
0.0
 10
19.000689
 20
228.518132
 30
0.0
 10
19.099162
 20
228.419657
 30
0.0
 10
19.099162
 20
228.297338
 30
0.0
  0
LWPOLYLINE
  5
195
100
AcDbEntity
  8
0
 62
7
100
AcDbPolyline
 90
2
 70
0
 10
16.182922
 20
228.518132
 30
0.0
 10
18.878370
 20
228.518132
 30
0.0
  0
SPLINE
  5
196
100
AcDbEntity
  8
0
 62
7
100
AcDbSpline
 70
8
 71
3
 72
8
 73
4
 74
0
 40
0
 40
0
 40
0
 40
0
 40
1
 40
1
 40
1
 40
1
 10
19.099162
 20
226.840341
 30
0.0
 10
19.099162
 20
226.718022
 30
0.0
 10
19.000689
 20
226.619546
 30
0.0
 10
18.878370
 20
226.619546
 30
0.0
  0
LWPOLYLINE
  5
197
100
AcDbEntity
  8
0
 62
7
100
AcDbPolyline
 90
2
 70
0
 10
19.099162
 20
228.297338
 30
0.0
 10
19.099162
 20
226.840341
 30
0.0
  0
SPLINE
  5
198
100
AcDbEntity
  8
0
 62
7
100
AcDbSpline
 70
8
 71
3
 72
8
 73
4
 74
0
 40
0
 40
0
 40
0
 40
0
 40
1
 40
1
 40
1
 40
1
 10
16.182922
 20
226.619546
 30
0.0
 10
16.060604
 20
226.619546
 30
0.0
 10
15.962129
 20
226.718022
 30
0.0
 10
15.962129
 20
226.840341
 30
0.0
  0
LWPOLYLINE
  5
199
100
AcDbEntity
  8
0
 62
7
100
AcDbPolyline
 90
2
 70
0
 10
18.878370
 20
226.619546
 30
0.0
 10
16.182922
 20
226.619546
 30
0.0
  0
SPLINE
  5
19a
100
AcDbEntity
  8
0
 62
7
100
AcDbSpline
 70
8
 71
3
 72
8
 73
4
 74
0
 40
0
 40
0
 40
0
 40
0
 40
1
 40
1
 40
1
 40
1
 10
15.962129
 20
228.297338
 30
0.0
 10
15.962129
 20
228.419657
 30
0.0
 10
16.060604
 20
228.518132
 30
0.0
 10
16.182922
 20
228.518132
 30
0.0
  0
LWPOLYLINE
  5
19b
100
AcDbEntity
  8
0
 62
7
100
AcDbPolyline
 90
2
 70
0
 10
15.962129
 20
226.840341
 30
0.0
 10
15.962129
 20
228.297338
 30
0.0
  0
LWPOLYLINE
  5
19c
100
AcDbEntity
  8
0
 62
7
100
AcDbPolyline
 90
1
 70
1
 10
16.182922
 20
228.518132
 30
0.0
  0
SPLINE
  5
19d
100
AcDbEntity
  8
0
 62
7
100
AcDbSpline
 70
8
 71
3
 72
8
 73
4
 74
0
 40
0
 40
0
 40
0
 40
0
 40
1
 40
1
 40
1
 40
1
 10
11.445947
 20
235.914782
 30
0.0
 10
11.568265
 20
235.914782
 30
0.0
 10
11.666738
 20
235.816310
 30
0.0
 10
11.666738
 20
235.693990
 30
0.0
  0
LWPOLYLINE
  5
19e
100
AcDbEntity
  8
0
 62
7
100
AcDbPolyline
 90
2
 70
0
 10
9.988947
 20
235.914782
 30
0.0
 10
11.445947
 20
235.914782
 30
0.0
  0
SPLINE
  5
19f
100
AcDbEntity
  8
0
 62
7
100
AcDbSpline
 70
8
 71
3
 72
8
 73
4
 74
0
 40
0
 40
0
 40
0
 40
0
 40
1
 40
1
 40
1
 40
1
 10
11.666738
 20
234.236991
 30
0.0
 10
11.666738
 20
234.114674
 30
0.0
 10
11.568265
 20
234.016199
 30
0.0
 10
11.445947
 20
234.016199
 30
0.0
  0
LWPOLYLINE
  5
1a0
100
AcDbEntity
  8
0
 62
7
100
AcDbPolyline
 90
2
 70
0
 10
11.666738
 20
235.693990
 30
0.0
 10
11.666738
 20
234.236991
 30
0.0
  0
SPLINE
  5
1a1
100
AcDbEntity
  8
0
 62
7
100
AcDbSpline
 70
8
 71
3
 72
8
 73
4
 74
0
 40
0
 40
0
 40
0
 40
0
 40
1
 40
1
 40
1
 40
1
 10
9.988947
 20
234.016199
 30
0.0
 10
9.866629
 20
234.016199
 30
0.0
 10
9.768156
 20
234.114674
 30
0.0
 10
9.768156
 20
234.236991
 30
0.0
  0
LWPOLYLINE
  5
1a2
100
AcDbEntity
  8
0
 62
7
100
AcDbPolyline
 90
2
 70
0
 10
11.445947
 20
234.016199
 30
0.0
 10
9.988947
 20
234.016199
 30
0.0
  0
SPLINE
  5
1a3
100
AcDbEntity
  8
0
 62
7
100
AcDbSpline
 70
8
 71
3
 72
8
 73
4
 74
0
 40
0
 40
0
 40
0
 40
0
 40
1
 40
1
 40
1
 40
1
 10
9.768156
 20
235.693990
 30
0.0
 10
9.768156
 20
235.816310
 30
0.0
 10
9.866629
 20
235.914782
 30
0.0
 10
9.988947
 20
235.914782
 30
0.0
  0
LWPOLYLINE
  5
1a4
100
AcDbEntity
  8
0
 62
7
100
AcDbPolyline
 90
2
 70
0
 10
9.768156
 20
234.236991
 30
0.0
 10
9.768156
 20
235.693990
 30
0.0
  0
LWPOLYLINE
  5
1a5
100
AcDbEntity
  8
0
 62
7
100
AcDbPolyline
 90
1
 70
1
 10
9.988947
 20
235.914782
 30
0.0
  0
SPLINE
  5
1a6
100
AcDbEntity
  8
0
 62
7
100
AcDbSpline
 70
8
 71
3
 72
8
 73
4
 74
0
 40
0
 40
0
 40
0
 40
0
 40
1
 40
1
 40
1
 40
1
 10
13.914103
 20
235.914782
 30
0.0
 10
14.036422
 20
235.914782
 30
0.0
 10
14.134896
 20
235.816310
 30
0.0
 10
14.134896
 20
235.693990
 30
0.0
  0
LWPOLYLINE
  5
1a7
100
AcDbEntity
  8
0
 62
7
100
AcDbPolyline
 90
2
 70
0
 10
12.457105
 20
235.914782
 30
0.0
 10
13.914103
 20
235.914782
 30
0.0
  0
SPLINE
  5
1a8
100
AcDbEntity
  8
0
 62
7
100
AcDbSpline
 70
8
 71
3
 72
8
 73
4
 74
0
 40
0
 40
0
 40
0
 40
0
 40
1
 40
1
 40
1
 40
1
 10
14.134896
 20
234.236991
 30
0.0
 10
14.134896
 20
234.114674
 30
0.0
 10
14.036422
 20
234.016199
 30
0.0
 10
13.914103
 20
234.016199
 30
0.0
  0
LWPOLYLINE
  5
1a9
100
AcDbEntity
  8
0
 62
7
100
AcDbPolyline
 90
2
 70
0
 10
14.134896
 20
235.693990
 30
0.0
 10
14.134896
 20
234.236991
 30
0.0
  0
SPLINE
  5
1aa
100
AcDbEntity
  8
0
 62
7
100
AcDbSpline
 70
8
 71
3
 72
8
 73
4
 74
0
 40
0
 40
0
 40
0
 40
0
 40
1
 40
1
 40
1
 40
1
 10
12.457105
 20
234.016199
 30
0.0
 10
12.334787
 20
234.016199
 30
0.0
 10
12.236312
 20
234.114674
 30
0.0
 10
12.236312
 20
234.236991
 30
0.0
  0
LWPOLYLINE
  5
1ab
100
AcDbEntity
  8
0
 62
7
100
AcDbPolyline
 90
2
 70
0
 10
13.914103
 20
234.016199
 30
0.0
 10
12.457105
 20
234.016199
 30
0.0
  0
SPLINE
  5
1ac
100
AcDbEntity
  8
0
 62
7
100
AcDbSpline
 70
8
 71
3
 72
8
 73
4
 74
0
 40
0
 40
0
 40
0
 40
0
 40
1
 40
1
 40
1
 40
1
 10
12.236312
 20
235.693990
 30
0.0
 10
12.236312
 20
235.816310
 30
0.0
 10
12.334787
 20
235.914782
 30
0.0
 10
12.457105
 20
235.914782
 30
0.0
  0
LWPOLYLINE
  5
1ad
100
AcDbEntity
  8
0
 62
7
100
AcDbPolyline
 90
2
 70
0
 10
12.236312
 20
234.236991
 30
0.0
 10
12.236312
 20
235.693990
 30
0.0
  0
LWPOLYLINE
  5
1ae
100
AcDbEntity
  8
0
 62
7
100
AcDbPolyline
 90
1
 70
1
 10
12.457105
 20
235.914782
 30
0.0
  0
SPLINE
  5
1af
100
AcDbEntity
  8
0
 62
7
100
AcDbSpline
 70
8
 71
3
 72
8
 73
4
 74
0
 40
0
 40
0
 40
0
 40
0
 40
1
 40
1
 40
1
 40
1
 10
16.382261
 20
235.914782
 30
0.0
 10
16.504580
 20
235.914782
 30
0.0
 10
16.603054
 20
235.816310
 30
0.0
 10
16.603054
 20
235.693990
 30
0.0
  0
LWPOLYLINE
  5
1b0
100
AcDbEntity
  8
0
 62
7
100
AcDbPolyline
 90
2
 70
0
 10
14.925264
 20
235.914782
 30
0.0
 10
16.382261
 20
235.914782
 30
0.0
  0
SPLINE
  5
1b1
100
AcDbEntity
  8
0
 62
7
100
AcDbSpline
 70
8
 71
3
 72
8
 73
4
 74
0
 40
0
 40
0
 40
0
 40
0
 40
1
 40
1
 40
1
 40
1
 10
16.603054
 20
234.236991
 30
0.0
 10
16.603054
 20
234.114674
 30
0.0
 10
16.504580
 20
234.016199
 30
0.0
 10
16.382261
 20
234.016199
 30
0.0
  0
LWPOLYLINE
  5
1b2
100
AcDbEntity
  8
0
 62
7
100
AcDbPolyline
 90
2
 70
0
 10
16.603054
 20
235.693990
 30
0.0
 10
16.603054
 20
234.236991
 30
0.0
  0
SPLINE
  5
1b3
100
AcDbEntity
  8
0
 62
7
100
AcDbSpline
 70
8
 71
3
 72
8
 73
4
 74
0
 40
0
 40
0
 40
0
 40
0
 40
1
 40
1
 40
1
 40
1
 10
14.925264
 20
234.016199
 30
0.0
 10
14.802945
 20
234.016199
 30
0.0
 10
14.704470
 20
234.114674
 30
0.0
 10
14.704470
 20
234.236991
 30
0.0
  0
LWPOLYLINE
  5
1b4
100
AcDbEntity
  8
0
 62
7
100
AcDbPolyline
 90
2
 70
0
 10
16.382261
 20
234.016199
 30
0.0
 10
14.925264
 20
234.016199
 30
0.0
  0
SPLINE
  5
1b5
100
AcDbEntity
  8
0
 62
7
100
AcDbSpline
 70
8
 71
3
 72
8
 73
4
 74
0
 40
0
 40
0
 40
0
 40
0
 40
1
 40
1
 40
1
 40
1
 10
14.704470
 20
235.693990
 30
0.0
 10
14.704470
 20
235.816310
 30
0.0
 10
14.802945
 20
235.914782
 30
0.0
 10
14.925264
 20
235.914782
 30
0.0
  0
LWPOLYLINE
  5
1b6
100
AcDbEntity
  8
0
 62
7
100
AcDbPolyline
 90
2
 70
0
 10
14.704470
 20
234.236991
 30
0.0
 10
14.704470
 20
235.693990
 30
0.0
  0
LWPOLYLINE
  5
1b7
100
AcDbEntity
  8
0
 62
7
100
AcDbPolyline
 90
1
 70
1
 10
14.925264
 20
235.914782
 30
0.0
  0
SPLINE
  5
1b8
100
AcDbEntity
  8
0
 62
7
100
AcDbSpline
 70
8
 71
3
 72
8
 73
4
 74
0
 40
0
 40
0
 40
0
 40
0
 40
1
 40
1
 40
1
 40
1
 10
18.850417
 20
235.914782
 30
0.0
 10
18.972736
 20
235.914782
 30
0.0
 10
19.071211
 20
235.816310
 30
0.0
 10
19.071211
 20
235.693990
 30
0.0
  0
LWPOLYLINE
  5
1b9
100
AcDbEntity
  8
0
 62
7
100
AcDbPolyline
 90
2
 70
0
 10
17.393420
 20
235.914782
 30
0.0
 10
18.850417
 20
235.914782
 30
0.0
  0
SPLINE
  5
1ba
100
AcDbEntity
  8
0
 62
7
100
AcDbSpline
 70
8
 71
3
 72
8
 73
4
 74
0
 40
0
 40
0
 40
0
 40
0
 40
1
 40
1
 40
1
 40
1
 10
19.071211
 20
234.236991
 30
0.0
 10
19.071211
 20
234.114674
 30
0.0
 10
18.972736
 20
234.016199
 30
0.0
 10
18.850417
 20
234.016199
 30
0.0
  0
LWPOLYLINE
  5
1bb
100
AcDbEntity
  8
0
 62
7
100
AcDbPolyline
 90
2
 70
0
 10
19.071211
 20
235.693990
 30
0.0
 10
19.071211
 20
234.236991
 30
0.0
  0
SPLINE
  5
1bc
100
AcDbEntity
  8
0
 62
7
100
AcDbSpline
 70
8
 71
3
 72
8
 73
4
 74
0
 40
0
 40
0
 40
0
 40
0
 40
1
 40
1
 40
1
 40
1
 10
17.393420
 20
234.016199
 30
0.0
 10
17.271101
 20
234.016199
 30
0.0
 10
17.172627
 20
234.114674
 30
0.0
 10
17.172627
 20
234.236991
 30
0.0
  0
LWPOLYLINE
  5
1bd
100
AcDbEntity
  8
0
 62
7
100
AcDbPolyline
 90
2
 70
0
 10
18.850417
 20
234.016199
 30
0.0
 10
17.393420
 20
234.016199
 30
0.0
  0
SPLINE
  5
1be
100
AcDbEntity
  8
0
 62
7
100
AcDbSpline
 70
8
 71
3
 72
8
 73
4
 74
0
 40
0
 40
0
 40
0
 40
0
 40
1
 40
1
 40
1
 40
1
 10
17.172627
 20
235.693990
 30
0.0
 10
17.172627
 20
235.816310
 30
0.0
 10
17.271101
 20
235.914782
 30
0.0
 10
17.393420
 20
235.914782
 30
0.0
  0
LWPOLYLINE
  5
1bf
100
AcDbEntity
  8
0
 62
7
100
AcDbPolyline
 90
2
 70
0
 10
17.172627
 20
234.236991
 30
0.0
 10
17.172627
 20
235.693990
 30
0.0
  0
LWPOLYLINE
  5
1c0
100
AcDbEntity
  8
0
 62
7
100
AcDbPolyline
 90
1
 70
1
 10
17.393420
 20
235.914782
 30
0.0
  0
SPLINE
  5
1c1
100
AcDbEntity
  8
0
 62
7
100
AcDbSpline
 70
8
 71
3
 72
8
 73
4
 74
0
 40
0
 40
0
 40
0
 40
0
 40
1
 40
1
 40
1
 40
1
 10
11.511762
 20
230.973886
 30
0.0
 10
11.634081
 20
230.973886
 30
0.0
 10
11.732555
 20
230.875413
 30
0.0
 10
11.732555
 20
230.753094
 30
0.0
  0
LWPOLYLINE
  5
1c2
100
AcDbEntity
  8
0
 62
7
100
AcDbPolyline
 90
2
 70
0
 10
10.054765
 20
230.973886
 30
0.0
 10
11.511762
 20
230.973886
 30
0.0
  0
SPLINE
  5
1c3
100
AcDbEntity
  8
0
 62
7
100
AcDbSpline
 70
8
 71
3
 72
8
 73
4
 74
0
 40
0
 40
0
 40
0
 40
0
 40
1
 40
1
 40
1
 40
1
 10
11.732555
 20
229.296095
 30
0.0
 10
11.732555
 20
229.173775
 30
0.0
 10
11.634081
 20
229.075302
 30
0.0
 10
11.511762
 20
229.075302
 30
0.0
  0
LWPOLYLINE
  5
1c4
100
AcDbEntity
  8
0
 62
7
100
AcDbPolyline
 90
2
 70
0
 10
11.732555
 20
230.753094
 30
0.0
 10
11.732555
 20
229.296095
 30
0.0
  0
SPLINE
  5
1c5
100
AcDbEntity
  8
0
 62
7
100
AcDbSpline
 70
8
 71
3
 72
8
 73
4
 74
0
 40
0
 40
0
 40
0
 40
0
 40
1
 40
1
 40
1
 40
1
 10
10.054765
 20
229.075302
 30
0.0
 10
9.932444
 20
229.075302
 30
0.0
 10
9.833971
 20
229.173775
 30
0.0
 10
9.833971
 20
229.296095
 30
0.0
  0
LWPOLYLINE
  5
1c6
100
AcDbEntity
  8
0
 62
7
100
AcDbPolyline
 90
2
 70
0
 10
11.511762
 20
229.075302
 30
0.0
 10
10.054765
 20
229.075302
 30
0.0
  0
SPLINE
  5
1c7
100
AcDbEntity
  8
0
 62
7
100
AcDbSpline
 70
8
 71
3
 72
8
 73
4
 74
0
 40
0
 40
0
 40
0
 40
0
 40
1
 40
1
 40
1
 40
1
 10
9.833971
 20
230.753094
 30
0.0
 10
9.833971
 20
230.875413
 30
0.0
 10
9.932444
 20
230.973886
 30
0.0
 10
10.054765
 20
230.973886
 30
0.0
  0
LWPOLYLINE
  5
1c8
100
AcDbEntity
  8
0
 62
7
100
AcDbPolyline
 90
2
 70
0
 10
9.833971
 20
229.296095
 30
0.0
 10
9.833971
 20
230.753094
 30
0.0
  0
LWPOLYLINE
  5
1c9
100
AcDbEntity
  8
0
 62
7
100
AcDbPolyline
 90
1
 70
1
 10
10.054765
 20
230.973886
 30
0.0
  0
SPLINE
  5
1ca
100
AcDbEntity
  8
0
 62
7
100
AcDbSpline
 70
8
 71
3
 72
8
 73
4
 74
0
 40
0
 40
0
 40
0
 40
0
 40
1
 40
1
 40
1
 40
1
 10
13.979920
 20
230.973886
 30
0.0
 10
14.102239
 20
230.973886
 30
0.0
 10
14.200711
 20
230.875413
 30
0.0
 10
14.200711
 20
230.753094
 30
0.0
  0
LWPOLYLINE
  5
1cb
100
AcDbEntity
  8
0
 62
7
100
AcDbPolyline
 90
2
 70
0
 10
12.522921
 20
230.973886
 30
0.0
 10
13.979920
 20
230.973886
 30
0.0
  0
SPLINE
  5
1cc
100
AcDbEntity
  8
0
 62
7
100
AcDbSpline
 70
8
 71
3
 72
8
 73
4
 74
0
 40
0
 40
0
 40
0
 40
0
 40
1
 40
1
 40
1
 40
1
 10
14.200711
 20
229.296095
 30
0.0
 10
14.200711
 20
229.173775
 30
0.0
 10
14.102239
 20
229.075302
 30
0.0
 10
13.979920
 20
229.075302
 30
0.0
  0
LWPOLYLINE
  5
1cd
100
AcDbEntity
  8
0
 62
7
100
AcDbPolyline
 90
2
 70
0
 10
14.200711
 20
230.753094
 30
0.0
 10
14.200711
 20
229.296095
 30
0.0
  0
SPLINE
  5
1ce
100
AcDbEntity
  8
0
 62
7
100
AcDbSpline
 70
8
 71
3
 72
8
 73
4
 74
0
 40
0
 40
0
 40
0
 40
0
 40
1
 40
1
 40
1
 40
1
 10
12.522921
 20
229.075302
 30
0.0
 10
12.400602
 20
229.075302
 30
0.0
 10
12.302130
 20
229.173775
 30
0.0
 10
12.302130
 20
229.296095
 30
0.0
  0
LWPOLYLINE
  5
1cf
100
AcDbEntity
  8
0
 62
7
100
AcDbPolyline
 90
2
 70
0
 10
13.979920
 20
229.075302
 30
0.0
 10
12.522921
 20
229.075302
 30
0.0
  0
SPLINE
  5
1d0
100
AcDbEntity
  8
0
 62
7
100
AcDbSpline
 70
8
 71
3
 72
8
 73
4
 74
0
 40
0
 40
0
 40
0
 40
0
 40
1
 40
1
 40
1
 40
1
 10
12.302130
 20
230.753094
 30
0.0
 10
12.302130
 20
230.875413
 30
0.0
 10
12.400602
 20
230.973886
 30
0.0
 10
12.522921
 20
230.973886
 30
0.0
  0
LWPOLYLINE
  5
1d1
100
AcDbEntity
  8
0
 62
7
100
AcDbPolyline
 90
2
 70
0
 10
12.302130
 20
229.296095
 30
0.0
 10
12.302130
 20
230.753094
 30
0.0
  0
LWPOLYLINE
  5
1d2
100
AcDbEntity
  8
0
 62
7
100
AcDbPolyline
 90
1
 70
1
 10
12.522921
 20
230.973886
 30
0.0
  0
SPLINE
  5
1d3
100
AcDbEntity
  8
0
 62
7
100
AcDbSpline
 70
8
 71
3
 72
8
 73
4
 74
0
 40
0
 40
0
 40
0
 40
0
 40
1
 40
1
 40
1
 40
1
 10
16.448076
 20
230.973886
 30
0.0
 10
16.570397
 20
230.973886
 30
0.0
 10
16.668870
 20
230.875413
 30
0.0
 10
16.668870
 20
230.753094
 30
0.0
  0
LWPOLYLINE
  5
1d4
100
AcDbEntity
  8
0
 62
7
100
AcDbPolyline
 90
2
 70
0
 10
14.991079
 20
230.973886
 30
0.0
 10
16.448076
 20
230.973886
 30
0.0
  0
SPLINE
  5
1d5
100
AcDbEntity
  8
0
 62
7
100
AcDbSpline
 70
8
 71
3
 72
8
 73
4
 74
0
 40
0
 40
0
 40
0
 40
0
 40
1
 40
1
 40
1
 40
1
 10
16.668870
 20
229.296095
 30
0.0
 10
16.668870
 20
229.173775
 30
0.0
 10
16.570397
 20
229.075302
 30
0.0
 10
16.448076
 20
229.075302
 30
0.0
  0
LWPOLYLINE
  5
1d6
100
AcDbEntity
  8
0
 62
7
100
AcDbPolyline
 90
2
 70
0
 10
16.668870
 20
230.753094
 30
0.0
 10
16.668870
 20
229.296095
 30
0.0
  0
SPLINE
  5
1d7
100
AcDbEntity
  8
0
 62
7
100
AcDbSpline
 70
8
 71
3
 72
8
 73
4
 74
0
 40
0
 40
0
 40
0
 40
0
 40
1
 40
1
 40
1
 40
1
 10
14.991079
 20
229.075302
 30
0.0
 10
14.868760
 20
229.075302
 30
0.0
 10
14.770286
 20
229.173775
 30
0.0
 10
14.770286
 20
229.296095
 30
0.0
  0
LWPOLYLINE
  5
1d8
100
AcDbEntity
  8
0
 62
7
100
AcDbPolyline
 90
2
 70
0
 10
16.448076
 20
229.075302
 30
0.0
 10
14.991079
 20
229.075302
 30
0.0
  0
SPLINE
  5
1d9
100
AcDbEntity
  8
0
 62
7
100
AcDbSpline
 70
8
 71
3
 72
8
 73
4
 74
0
 40
0
 40
0
 40
0
 40
0
 40
1
 40
1
 40
1
 40
1
 10
14.770286
 20
230.753094
 30
0.0
 10
14.770286
 20
230.875413
 30
0.0
 10
14.868760
 20
230.973886
 30
0.0
 10
14.991079
 20
230.973886
 30
0.0
  0
LWPOLYLINE
  5
1da
100
AcDbEntity
  8
0
 62
7
100
AcDbPolyline
 90
2
 70
0
 10
14.770286
 20
229.296095
 30
0.0
 10
14.770286
 20
230.753094
 30
0.0
  0
LWPOLYLINE
  5
1db
100
AcDbEntity
  8
0
 62
7
100
AcDbPolyline
 90
1
 70
1
 10
14.991079
 20
230.973886
 30
0.0
  0
SPLINE
  5
1dc
100
AcDbEntity
  8
0
 62
7
100
AcDbSpline
 70
8
 71
3
 72
8
 73
4
 74
0
 40
0
 40
0
 40
0
 40
0
 40
1
 40
1
 40
1
 40
1
 10
18.916234
 20
230.973886
 30
0.0
 10
19.038553
 20
230.973886
 30
0.0
 10
19.137026
 20
230.875413
 30
0.0
 10
19.137026
 20
230.753094
 30
0.0
  0
LWPOLYLINE
  5
1dd
100
AcDbEntity
  8
0
 62
7
100
AcDbPolyline
 90
2
 70
0
 10
17.459235
 20
230.973886
 30
0.0
 10
18.916234
 20
230.973886
 30
0.0
  0
SPLINE
  5
1de
100
AcDbEntity
  8
0
 62
7
100
AcDbSpline
 70
8
 71
3
 72
8
 73
4
 74
0
 40
0
 40
0
 40
0
 40
0
 40
1
 40
1
 40
1
 40
1
 10
19.137026
 20
229.296095
 30
0.0
 10
19.137026
 20
229.173775
 30
0.0
 10
19.038553
 20
229.075302
 30
0.0
 10
18.916234
 20
229.075302
 30
0.0
  0
LWPOLYLINE
  5
1df
100
AcDbEntity
  8
0
 62
7
100
AcDbPolyline
 90
2
 70
0
 10
19.137026
 20
230.753094
 30
0.0
 10
19.137026
 20
229.296095
 30
0.0
  0
SPLINE
  5
1e0
100
AcDbEntity
  8
0
 62
7
100
AcDbSpline
 70
8
 71
3
 72
8
 73
4
 74
0
 40
0
 40
0
 40
0
 40
0
 40
1
 40
1
 40
1
 40
1
 10
17.459235
 20
229.075302
 30
0.0
 10
17.336917
 20
229.075302
 30
0.0
 10
17.238444
 20
229.173775
 30
0.0
 10
17.238444
 20
229.296095
 30
0.0
  0
LWPOLYLINE
  5
1e1
100
AcDbEntity
  8
0
 62
7
100
AcDbPolyline
 90
2
 70
0
 10
18.916234
 20
229.075302
 30
0.0
 10
17.459235
 20
229.075302
 30
0.0
  0
SPLINE
  5
1e2
100
AcDbEntity
  8
0
 62
7
100
AcDbSpline
 70
8
 71
3
 72
8
 73
4
 74
0
 40
0
 40
0
 40
0
 40
0
 40
1
 40
1
 40
1
 40
1
 10
17.238444
 20
230.753094
 30
0.0
 10
17.238444
 20
230.875413
 30
0.0
 10
17.336917
 20
230.973886
 30
0.0
 10
17.459235
 20
230.973886
 30
0.0
  0
LWPOLYLINE
  5
1e3
100
AcDbEntity
  8
0
 62
7
100
AcDbPolyline
 90
2
 70
0
 10
17.238444
 20
229.296095
 30
0.0
 10
17.238444
 20
230.753094
 30
0.0
  0
LWPOLYLINE
  5
1e4
100
AcDbEntity
  8
0
 62
7
100
AcDbPolyline
 90
1
 70
1
 10
17.459235
 20
230.973886
 30
0.0
  0
SPLINE
  5
1e5
100
AcDbEntity
  8
0
 62
7
100
AcDbSpline
 70
8
 71
3
 72
8
 73
4
 74
0
 40
0
 40
0
 40
0
 40
0
 40
1
 40
1
 40
1
 40
1
 10
8.977885
 20
230.973886
 30
0.0
 10
9.100203
 20
230.973886
 30
0.0
 10
9.198678
 20
230.875413
 30
0.0
 10
9.198678
 20
230.753094
 30
0.0
  0
LWPOLYLINE
  5
1e6
100
AcDbEntity
  8
0
 62
7
100
AcDbPolyline
 90
2
 70
0
 10
7.520887
 20
230.973886
 30
0.0
 10
8.977885
 20
230.973886
 30
0.0
  0
SPLINE
  5
1e7
100
AcDbEntity
  8
0
 62
7
100
AcDbSpline
 70
8
 71
3
 72
8
 73
4
 74
0
 40
0
 40
0
 40
0
 40
0
 40
1
 40
1
 40
1
 40
1
 10
9.198678
 20
229.296095
 30
0.0
 10
9.198678
 20
229.173775
 30
0.0
 10
9.100203
 20
229.075302
 30
0.0
 10
8.977885
 20
229.075302
 30
0.0
  0
LWPOLYLINE
  5
1e8
100
AcDbEntity
  8
0
 62
7
100
AcDbPolyline
 90
2
 70
0
 10
9.198678
 20
230.753094
 30
0.0
 10
9.198678
 20
229.296095
 30
0.0
  0
SPLINE
  5
1e9
100
AcDbEntity
  8
0
 62
7
100
AcDbSpline
 70
8
 71
3
 72
8
 73
4
 74
0
 40
0
 40
0
 40
0
 40
0
 40
1
 40
1
 40
1
 40
1
 10
7.520887
 20
229.075302
 30
0.0
 10
7.398567
 20
229.075302
 30
0.0
 10
7.300094
 20
229.173775
 30
0.0
 10
7.300094
 20
229.296095
 30
0.0
  0
LWPOLYLINE
  5
1ea
100
AcDbEntity
  8
0
 62
7
100
AcDbPolyline
 90
2
 70
0
 10
8.977885
 20
229.075302
 30
0.0
 10
7.520887
 20
229.075302
 30
0.0
  0
SPLINE
  5
1eb
100
AcDbEntity
  8
0
 62
7
100
AcDbSpline
 70
8
 71
3
 72
8
 73
4
 74
0
 40
0
 40
0
 40
0
 40
0
 40
1
 40
1
 40
1
 40
1
 10
7.300094
 20
230.753094
 30
0.0
 10
7.300094
 20
230.875413
 30
0.0
 10
7.398567
 20
230.973886
 30
0.0
 10
7.520887
 20
230.973886
 30
0.0
  0
LWPOLYLINE
  5
1ec
100
AcDbEntity
  8
0
 62
7
100
AcDbPolyline
 90
2
 70
0
 10
7.300094
 20
229.296095
 30
0.0
 10
7.300094
 20
230.753094
 30
0.0
  0
LWPOLYLINE
  5
1ed
100
AcDbEntity
  8
0
 62
7
100
AcDbPolyline
 90
1
 70
1
 10
7.520887
 20
230.973886
 30
0.0
  0
SPLINE
  5
1ee
100
AcDbEntity
  8
0
 62
7
100
AcDbSpline
 70
8
 71
3
 72
8
 73
4
 74
0
 40
0
 40
0
 40
0
 40
0
 40
1
 40
1
 40
1
 40
1
 10
27.102724
 20
235.734956
 30
0.0
 10
27.020504
 20
235.717652
 30
0.0
 10
26.961003
 20
235.698180
 30
0.0
 10
26.924220
 20
235.676538
 30
0.0
  0
SPLINE
  5
1ef
100
AcDbEntity
  8
0
 62
7
100
AcDbSpline
 70
8
 71
3
 72
8
 73
4
 74
0
 40
0
 40
0
 40
0
 40
0
 40
1
 40
1
 40
1
 40
1
 10
26.924220
 20
235.676538
 30
0.0
 10
26.889602
 20
235.654901
 30
0.0
 10
26.857148
 20
235.622445
 30
0.0
 10
26.826859
 20
235.579172
 30
0.0
  0
SPLINE
  5
1f0
100
AcDbEntity
  8
0
 62
7
100
AcDbSpline
 70
8
 71
3
 72
8
 73
4
 74
0
 40
0
 40
0
 40
0
 40
0
 40
1
 40
1
 40
1
 40
1
 10
26.826859
 20
235.579172
 30
0.0
 10
26.798730
 20
235.535900
 30
0.0
 10
26.769520
 20
235.467745
 30
0.0
 10
26.739229
 20
235.374707
 30
0.0
  0
SPLINE
  5
1f1
100
AcDbEntity
  8
0
 62
7
100
AcDbSpline
 70
8
 71
3
 72
8
 73
4
 74
0
 40
0
 40
0
 40
0
 40
0
 40
1
 40
1
 40
1
 40
1
 10
26.739229
 20
235.374707
 30
0.0
 10
26.711100
 20
235.283833
 30
0.0
 10
26.674317
 20
235.134541
 30
0.0
 10
26.628879
 20
234.926831
 30
0.0
  0
LWPOLYLINE
  5
1f2
100
AcDbEntity
  8
0
 62
7
100
AcDbPolyline
 90
3
 70
0
 10
26.116096
 20
235.893986
 30
0.0
 10
27.138422
 20
235.893986
 30
0.0
 10
27.102724
 20
235.734956
 30
0.0
  0
SPLINE
  5
1f3
100
AcDbEntity
  8
0
 62
7
100
AcDbSpline
 70
8
 71
3
 72
8
 73
4
 74
0
 40
0
 40
0
 40
0
 40
0
 40
1
 40
1
 40
1
 40
1
 10
26.073903
 20
232.408337
 30
0.0
 10
26.045777
 20
232.280681
 30
0.0
 10
26.027386
 20
232.178988
 30
0.0
 10
26.018731
 20
232.103259
 30
0.0
  0
SPLINE
  5
1f4
100
AcDbEntity
  8
0
 62
7
100
AcDbSpline
 70
8
 71
3
 72
8
 73
4
 74
0
 40
0
 40
0
 40
0
 40
0
 40
1
 40
1
 40
1
 40
1
 10
26.018731
 20
232.103259
 30
0.0
 10
26.010077
 20
232.029696
 30
0.0
 10
26.005750
 20
231.962624
 30
0.0
 10
26.005750
 20
231.902041
 30
0.0
  0
SPLINE
  5
1f5
100
AcDbEntity
  8
0
 62
7
100
AcDbSpline
 70
8
 71
3
 72
8
 73
4
 74
0
 40
0
 40
0
 40
0
 40
0
 40
1
 40
1
 40
1
 40
1
 10
26.005750
 20
231.902041
 30
0.0
 10
26.005750
 20
231.804676
 30
0.0
 10
26.029551
 20
231.735439
 30
0.0
 10
26.077151
 20
231.694330
 30
0.0
  0
SPLINE
  5
1f6
100
AcDbEntity
  8
0
 62
7
100
AcDbSpline
 70
8
 71
3
 72
8
 73
4
 74
0
 40
0
 40
0
 40
0
 40
0
 40
1
 40
1
 40
1
 40
1
 10
26.077151
 20
231.694330
 30
0.0
 10
26.126916
 20
231.655385
 30
0.0
 10
26.209135
 20
231.631585
 30
0.0
 10
26.323808
 20
231.622930
 30
0.0
  0
LWPOLYLINE
  5
1f7
100
AcDbEntity
  8
0
 62
7
100
AcDbPolyline
 90
2
 70
0
 10
26.628879
 20
234.926831
 30
0.0
 10
26.073903
 20
232.408337
 30
0.0
  0
SPLINE
  5
1f8
100
AcDbEntity
  8
0
 62
7
100
AcDbSpline
 70
8
 71
3
 72
8
 73
4
 74
0
 40
0
 40
0
 40
0
 40
0
 40
1
 40
1
 40
1
 40
1
 10
25.025616
 20
231.622930
 30
0.0
 10
25.107835
 20
231.635912
 30
0.0
 10
25.169498
 20
231.656466
 30
0.0
 10
25.210606
 20
231.684593
 30
0.0
  0
SPLINE
  5
1f9
100
AcDbEntity
  8
0
 62
7
100
AcDbSpline
 70
8
 71
3
 72
8
 73
4
 74
0
 40
0
 40
0
 40
0
 40
0
 40
1
 40
1
 40
1
 40
1
 10
25.210606
 20
231.684593
 30
0.0
 10
25.251717
 20
231.714885
 30
0.0
 10
25.286336
 20
231.755994
 30
0.0
 10
25.314462
 20
231.807921
 30
0.0
  0
SPLINE
  5
1fa
100
AcDbEntity
  8
0
 62
7
100
AcDbSpline
 70
8
 71
3
 72
8
 73
4
 74
0
 40
0
 40
0
 40
0
 40
0
 40
1
 40
1
 40
1
 40
1
 10
25.314462
 20
231.807921
 30
0.0
 10
25.342589
 20
231.859850
 30
0.0
 10
25.368553
 20
231.922596
 30
0.0
 10
25.392354
 20
231.996159
 30
0.0
  0
SPLINE
  5
1fb
100
AcDbEntity
  8
0
 62
7
100
AcDbSpline
 70
8
 71
3
 72
8
 73
4
 74
0
 40
0
 40
0
 40
0
 40
0
 40
1
 40
1
 40
1
 40
1
 10
25.392354
 20
231.996159
 30
0.0
 10
25.416153
 20
232.071888
 30
0.0
 10
25.451853
 20
232.216853
 30
0.0
 10
25.499455
 20
232.431054
 30
0.0
  0
LWPOLYLINE
  5
1fc
100
AcDbEntity
  8
0
 62
7
100
AcDbPolyline
 90
4
 70
0
 10
26.323808
 20
231.622930
 30
0.0
 10
26.288109
 20
231.463902
 30
0.0
 10
24.989912
 20
231.463902
 30
0.0
 10
25.025616
 20
231.622930
 30
0.0
  0
SPLINE
  5
1fd
100
AcDbEntity
  8
0
 62
7
100
AcDbSpline
 70
8
 71
3
 72
8
 73
4
 74
0
 40
0
 40
0
 40
0
 40
0
 40
1
 40
1
 40
1
 40
1
 10
25.931103
 20
234.388081
 30
0.0
 10
25.987359
 20
234.645556
 30
0.0
 10
26.058760
 20
234.921423
 30
0.0
 10
26.145307
 20
235.215682
 30
0.0
  0
LWPOLYLINE
  5
1fe
100
AcDbEntity
  8
0
 62
7
100
AcDbPolyline
 90
2
 70
0
 10
25.499455
 20
232.431054
 30
0.0
 10
25.931103
 20
234.388081
 30
0.0
  0
SPLINE
  5
1ff
100
AcDbEntity
  8
0
 62
7
100
AcDbSpline
 70
8
 71
3
 72
8
 73
4
 74
0
 40
0
 40
0
 40
0
 40
0
 40
1
 40
1
 40
1
 40
1
 10
26.099870
 20
235.215682
 30
0.0
 10
26.037123
 20
235.098844
 30
0.0
 10
25.974378
 20
234.986332
 30
0.0
 10
25.911634
 20
234.878148
 30
0.0
  0
SPLINE
  5
200
100
AcDbEntity
  8
0
 62
7
100
AcDbSpline
 70
8
 71
3
 72
8
 73
4
 74
0
 40
0
 40
0
 40
0
 40
0
 40
1
 40
1
 40
1
 40
1
 10
25.911634
 20
234.878148
 30
0.0
 10
25.851050
 20
234.772129
 30
0.0
 10
25.760175
 20
234.618511
 30
0.0
 10
25.639010
 20
234.417291
 30
0.0
  0
LWPOLYLINE
  5
201
100
AcDbEntity
  8
0
 62
7
100
AcDbPolyline
 90
2
 70
0
 10
26.145307
 20
235.215682
 30
0.0
 10
26.099870
 20
235.215682
 30
0.0
  0
SPLINE
  5
202
100
AcDbEntity
  8
0
 62
7
100
AcDbSpline
 70
8
 71
3
 72
8
 73
4
 74
0
 40
0
 40
0
 40
0
 40
0
 40
1
 40
1
 40
1
 40
1
 10
23.344455
 20
235.287080
 30
0.0
 10
23.262235
 20
234.744003
 30
0.0
 10
23.180016
 20
234.284226
 30
0.0
 10
23.097798
 20
233.907749
 30
0.0
  0
LWPOLYLINE
  5
203
100
AcDbEntity
  8
0
 62
7
100
AcDbPolyline
 90
6
 70
0
 10
25.639010
 20
234.417291
 30
0.0
 10
24.162316
 20
231.979932
 30
0.0
 10
23.808558
 20
231.979932
 30
0.0
 10
23.496991
 20
234.414045
 30
0.0
 10
23.409364
 20
235.287080
 30
0.0
 10
23.344455
 20
235.287080
 30
0.0
  0
SPLINE
  5
204
100
AcDbEntity
  8
0
 62
7
100
AcDbSpline
 70
8
 71
3
 72
8
 73
4
 74
0
 40
0
 40
0
 40
0
 40
0
 40
1
 40
1
 40
1
 40
1
 10
22.786231
 20
232.492718
 30
0.0
 10
22.749449
 20
232.328281
 30
0.0
 10
22.725649
 20
232.206035
 30
0.0
 10
22.714831
 20
232.125979
 30
0.0
  0
SPLINE
  5
205
100
AcDbEntity
  8
0
 62
7
100
AcDbSpline
 70
8
 71
3
 72
8
 73
4
 74
0
 40
0
 40
0
 40
0
 40
0
 40
1
 40
1
 40
1
 40
1
 10
22.714831
 20
232.125979
 30
0.0
 10
22.704011
 20
232.045923
 30
0.0
 10
22.698601
 20
231.971277
 30
0.0
 10
22.698601
 20
231.902041
 30
0.0
  0
SPLINE
  5
206
100
AcDbEntity
  8
0
 62
7
100
AcDbSpline
 70
8
 71
3
 72
8
 73
4
 74
0
 40
0
 40
0
 40
0
 40
0
 40
1
 40
1
 40
1
 40
1
 10
22.698601
 20
231.902041
 30
0.0
 10
22.698601
 20
231.804676
 30
0.0
 10
22.722401
 20
231.735439
 30
0.0
 10
22.769999
 20
231.694330
 30
0.0
  0
SPLINE
  5
207
100
AcDbEntity
  8
0
 62
7
100
AcDbSpline
 70
8
 71
3
 72
8
 73
4
 74
0
 40
0
 40
0
 40
0
 40
0
 40
1
 40
1
 40
1
 40
1
 10
22.769999
 20
231.694330
 30
0.0
 10
22.819764
 20
231.655385
 30
0.0
 10
22.901984
 20
231.631585
 30
0.0
 10
23.016658
 20
231.622930
 30
0.0
  0
LWPOLYLINE
  5
208
100
AcDbEntity
  8
0
 62
7
100
AcDbPolyline
 90
2
 70
0
 10
23.097798
 20
233.907749
 30
0.0
 10
22.786231
 20
232.492718
 30
0.0
  0
SPLINE
  5
209
100
AcDbEntity
  8
0
 62
7
100
AcDbSpline
 70
8
 71
3
 72
8
 73
4
 74
0
 40
0
 40
0
 40
0
 40
0
 40
1
 40
1
 40
1
 40
1
 10
21.880740
 20
231.622930
 30
0.0
 10
21.962958
 20
231.635912
 30
0.0
 10
22.024622
 20
231.656466
 30
0.0
 10
22.065730
 20
231.684593
 30
0.0
  0
SPLINE
  5
20a
100
AcDbEntity
  8
0
 62
7
100
AcDbSpline
 70
8
 71
3
 72
8
 73
4
 74
0
 40
0
 40
0
 40
0
 40
0
 40
1
 40
1
 40
1
 40
1
 10
22.065730
 20
231.684593
 30
0.0
 10
22.106841
 20
231.714885
 30
0.0
 10
22.141460
 20
231.755994
 30
0.0
 10
22.169587
 20
231.807921
 30
0.0
  0
SPLINE
  5
20b
100
AcDbEntity
  8
0
 62
7
100
AcDbSpline
 70
8
 71
3
 72
8
 73
4
 74
0
 40
0
 40
0
 40
0
 40
0
 40
1
 40
1
 40
1
 40
1
 10
22.169587
 20
231.807921
 30
0.0
 10
22.197714
 20
231.859850
 30
0.0
 10
22.223678
 20
231.922596
 30
0.0
 10
22.247478
 20
231.996159
 30
0.0
  0
SPLINE
  5
20c
100
AcDbEntity
  8
0
 62
7
100
AcDbSpline
 70
8
 71
3
 72
8
 73
4
 74
0
 40
0
 40
0
 40
0
 40
0
 40
1
 40
1
 40
1
 40
1
 10
22.247478
 20
231.996159
 30
0.0
 10
22.271278
 20
232.071888
 30
0.0
 10
22.306978
 20
232.216853
 30
0.0
 10
22.354579
 20
232.431054
 30
0.0
  0
LWPOLYLINE
  5
20d
100
AcDbEntity
  8
0
 62
7
100
AcDbPolyline
 90
4
 70
0
 10
23.016658
 20
231.622930
 30
0.0
 10
22.980959
 20
231.463902
 30
0.0
 10
21.845039
 20
231.463902
 30
0.0
 10
21.880740
 20
231.622930
 30
0.0
  0
SPLINE
  5
20e
100
AcDbEntity
  8
0
 62
7
100
AcDbSpline
 70
8
 71
3
 72
8
 73
4
 74
0
 40
0
 40
0
 40
0
 40
0
 40
1
 40
1
 40
1
 40
1
 10
22.906312
 20
234.930075
 30
0.0
 10
22.927948
 20
235.023113
 30
0.0
 10
22.945258
 20
235.111823
 30
0.0
 10
22.958239
 20
235.196206
 30
0.0
  0
SPLINE
  5
20f
100
AcDbEntity
  8
0
 62
7
100
AcDbSpline
 70
8
 71
3
 72
8
 73
4
 74
0
 40
0
 40
0
 40
0
 40
0
 40
1
 40
1
 40
1
 40
1
 10
22.958239
 20
235.196206
 30
0.0
 10
22.971221
 20
235.280590
 30
0.0
 10
22.977713
 20
235.366054
 30
0.0
 10
22.977713
 20
235.452598
 30
0.0
  0
SPLINE
  5
210
100
AcDbEntity
  8
0
 62
7
100
AcDbSpline
 70
8
 71
3
 72
8
 73
4
 74
0
 40
0
 40
0
 40
0
 40
0
 40
1
 40
1
 40
1
 40
1
 10
22.977713
 20
235.452598
 30
0.0
 10
22.977713
 20
235.554291
 30
0.0
 10
22.951749
 20
235.624610
 30
0.0
 10
22.899821
 20
235.663555
 30
0.0
  0
SPLINE
  5
211
100
AcDbEntity
  8
0
 62
7
100
AcDbSpline
 70
8
 71
3
 72
8
 73
4
 74
0
 40
0
 40
0
 40
0
 40
0
 40
1
 40
1
 40
1
 40
1
 10
22.899821
 20
235.663555
 30
0.0
 10
22.847892
 20
235.704666
 30
0.0
 10
22.767837
 20
235.728466
 30
0.0
 10
22.659654
 20
235.734956
 30
0.0
  0
LWPOLYLINE
  5
212
100
AcDbEntity
  8
0
 62
7
100
AcDbPolyline
 90
2
 70
0
 10
22.354579
 20
232.431054
 30
0.0
 10
22.906312
 20
234.930075
 30
0.0
  0
LWPOLYLINE
  5
213
100
AcDbEntity
  8
0
 62
7
100
AcDbPolyline
 90
5
 70
0
 10
22.659654
 20
235.734956
 30
0.0
 10
22.695355
 20
235.893986
 30
0.0
 10
23.853992
 20
235.893986
 30
0.0
 10
24.223977
 20
232.745866
 30
0.0
 10
26.116096
 20
235.893986
 30
0.0
  0
SPLINE
  5
214
100
AcDbEntity
  8
0
 62
7
100
AcDbSpline
 70
8
 71
3
 72
8
 73
4
 74
0
 40
0
 40
0
 40
0
 40
0
 40
1
 40
1
 40
1
 40
1
 10
29.695862
 20
232.366144
 30
0.0
 10
29.665573
 20
232.236325
 30
0.0
 10
29.645018
 20
232.135716
 30
0.0
 10
29.634199
 20
232.064315
 30
0.0
  0
SPLINE
  5
215
100
AcDbEntity
  8
0
 62
7
100
AcDbSpline
 70
8
 71
3
 72
8
 73
4
 74
0
 40
0
 40
0
 40
0
 40
0
 40
1
 40
1
 40
1
 40
1
 10
29.634199
 20
232.064315
 30
0.0
 10
29.623368
 20
231.995079
 30
0.0
 10
29.617953
 20
231.937742
 30
0.0
 10
29.617953
 20
231.892305
 30
0.0
  0
SPLINE
  5
216
100
AcDbEntity
  8
0
 62
7
100
AcDbSpline
 70
8
 71
3
 72
8
 73
4
 74
0
 40
0
 40
0
 40
0
 40
0
 40
1
 40
1
 40
1
 40
1
 10
29.617953
 20
231.892305
 30
0.0
 10
29.617953
 20
231.803593
 30
0.0
 10
29.642835
 20
231.738683
 30
0.0
 10
29.692597
 20
231.697574
 30
0.0
  0
SPLINE
  5
217
100
AcDbEntity
  8
0
 62
7
100
AcDbSpline
 70
8
 71
3
 72
8
 73
4
 74
0
 40
0
 40
0
 40
0
 40
0
 40
1
 40
1
 40
1
 40
1
 10
29.692597
 20
231.697574
 30
0.0
 10
29.742362
 20
231.658627
 30
0.0
 10
29.837563
 20
231.633746
 30
0.0
 10
29.978202
 20
231.622930
 30
0.0
  0
LWPOLYLINE
  5
218
100
AcDbEntity
  8
0
 62
7
100
AcDbPolyline
 90
4
 70
0
 10
29.686128
 20
234.407555
 30
0.0
 10
29.984713
 20
234.621756
 30
0.0
 10
30.192424
 20
234.569826
 30
0.0
 10
29.695862
 20
232.366144
 30
0.0
  0
SPLINE
  5
219
100
AcDbEntity
  8
0
 62
7
100
AcDbSpline
 70
8
 71
3
 72
8
 73
4
 74
0
 40
0
 40
0
 40
0
 40
0
 40
1
 40
1
 40
1
 40
1
 10
29.183058
 20
232.291508
 30
0.0
 10
28.975347
 20
231.988599
 30
0.0
 10
28.778456
 20
231.766825
 30
0.0
 10
28.592383
 20
231.626187
 30
0.0
  0
SPLINE
  5
21a
100
AcDbEntity
  8
0
 62
7
100
AcDbSpline
 70
8
 71
3
 72
8
 73
4
 74
0
 40
0
 40
0
 40
0
 40
0
 40
1
 40
1
 40
1
 40
1
 10
28.592383
 20
231.626187
 30
0.0
 10
28.406307
 20
231.485548
 30
0.0
 10
28.209413
 20
231.415229
 30
0.0
 10
28.001701
 20
231.415229
 30
0.0
  0
SPLINE
  5
21b
100
AcDbEntity
  8
0
 62
7
100
AcDbSpline
 70
8
 71
3
 72
8
 73
4
 74
0
 40
0
 40
0
 40
0
 40
0
 40
1
 40
1
 40
1
 40
1
 10
28.001701
 20
231.415229
 30
0.0
 10
27.763700
 20
231.415229
 30
0.0
 10
27.578708
 20
231.505021
 30
0.0
 10
27.446725
 20
231.684604
 30
0.0
  0
SPLINE
  5
21c
100
AcDbEntity
  8
0
 62
7
100
AcDbSpline
 70
8
 71
3
 72
8
 73
4
 74
0
 40
0
 40
0
 40
0
 40
0
 40
1
 40
1
 40
1
 40
1
 10
27.446725
 20
231.684604
 30
0.0
 10
27.316904
 20
231.864189
 30
0.0
 10
27.251994
 20
232.116255
 30
0.0
 10
27.251994
 20
232.440802
 30
0.0
  0
SPLINE
  5
21d
100
AcDbEntity
  8
0
 62
7
100
AcDbSpline
 70
8
 71
3
 72
8
 73
4
 74
0
 40
0
 40
0
 40
0
 40
0
 40
1
 40
1
 40
1
 40
1
 10
27.251994
 20
232.440802
 30
0.0
 10
27.251994
 20
232.648512
 30
0.0
 10
27.275796
 20
232.856223
 30
0.0
 10
27.323400
 20
233.063935
 30
0.0
  0
SPLINE
  5
21e
100
AcDbEntity
  8
0
 62
7
100
AcDbSpline
 70
8
 71
3
 72
8
 73
4
 74
0
 40
0
 40
0
 40
0
 40
0
 40
1
 40
1
 40
1
 40
1
 10
27.323400
 20
233.063935
 30
0.0
 10
27.370998
 20
233.273809
 30
0.0
 10
27.442399
 20
233.471783
 30
0.0
 10
27.537601
 20
233.657855
 30
0.0
  0
SPLINE
  5
21f
100
AcDbEntity
  8
0
 62
7
100
AcDbSpline
 70
8
 71
3
 72
8
 73
4
 74
0
 40
0
 40
0
 40
0
 40
0
 40
1
 40
1
 40
1
 40
1
 10
27.537601
 20
233.657855
 30
0.0
 10
27.634962
 20
233.846094
 30
0.0
 10
27.750718
 20
234.011615
 30
0.0
 10
27.884867
 20
234.154417
 30
0.0
  0
SPLINE
  5
220
100
AcDbEntity
  8
0
 62
7
100
AcDbSpline
 70
8
 71
3
 72
8
 73
4
 74
0
 40
0
 40
0
 40
0
 40
0
 40
1
 40
1
 40
1
 40
1
 10
27.884867
 20
234.154417
 30
0.0
 10
28.019012
 20
234.297218
 30
0.0
 10
28.173712
 20
234.410810
 30
0.0
 10
28.348967
 20
234.495193
 30
0.0
  0
SPLINE
  5
221
100
AcDbEntity
  8
0
 62
7
100
AcDbSpline
 70
8
 71
3
 72
8
 73
4
 74
0
 40
0
 40
0
 40
0
 40
0
 40
1
 40
1
 40
1
 40
1
 10
28.348967
 20
234.495193
 30
0.0
 10
28.526388
 20
234.579575
 30
0.0
 10
28.718953
 20
234.621767
 30
0.0
 10
28.926663
 20
234.621767
 30
0.0
  0
SPLINE
  5
222
100
AcDbEntity
  8
0
 62
7
100
AcDbSpline
 70
8
 71
3
 72
8
 73
4
 74
0
 40
0
 40
0
 40
0
 40
0
 40
1
 40
1
 40
1
 40
1
 10
28.926663
 20
234.621767
 30
0.0
 10
29.060810
 20
234.621767
 30
0.0
 10
29.188467
 20
234.605540
 30
0.0
 10
29.309632
 20
234.573086
 30
0.0
  0
SPLINE
  5
223
100
AcDbEntity
  8
0
 62
7
100
AcDbSpline
 70
8
 71
3
 72
8
 73
4
 74
0
 40
0
 40
0
 40
0
 40
0
 40
1
 40
1
 40
1
 40
1
 10
29.309632
 20
234.573086
 30
0.0
 10
29.430797
 20
234.542793
 30
0.0
 10
29.556288
 20
234.487619
 30
0.0
 10
29.686107
 20
234.407565
 30
0.0
  0
LWPOLYLINE
  5
224
100
AcDbEntity
  8
0
 62
7
100
AcDbPolyline
 90
5
 70
0
 10
29.978202
 20
231.622930
 30
0.0
 10
29.948992
 20
231.463902
 30
0.0
 10
29.020783
 20
231.463902
 30
0.0
 10
29.225251
 20
232.278517
 30
0.0
 10
29.183058
 20
232.291508
 30
0.0
  0
SPLINE
  5
225
100
AcDbEntity
  8
0
 62
7
100
AcDbSpline
 70
8
 71
3
 72
8
 73
4
 74
0
 40
0
 40
0
 40
0
 40
0
 40
1
 40
1
 40
1
 40
1
 10
29.400527
 20
233.440402
 30
0.0
 10
29.419998
 20
233.529112
 30
0.0
 10
29.432980
 20
233.605920
 30
0.0
 10
29.439473
 20
233.670828
 30
0.0
  0
SPLINE
  5
226
100
AcDbEntity
  8
0
 62
7
100
AcDbSpline
 70
8
 71
3
 72
8
 73
4
 74
0
 40
0
 40
0
 40
0
 40
0
 40
1
 40
1
 40
1
 40
1
 10
29.439473
 20
233.670828
 30
0.0
 10
29.445947
 20
233.735739
 30
0.0
 10
29.449183
 20
233.806058
 30
0.0
 10
29.449183
 20
233.881785
 30
0.0
  0
SPLINE
  5
227
100
AcDbEntity
  8
0
 62
7
100
AcDbSpline
 70
8
 71
3
 72
8
 73
4
 74
0
 40
0
 40
0
 40
0
 40
0
 40
1
 40
1
 40
1
 40
1
 10
29.449183
 20
233.881785
 30
0.0
 10
29.449183
 20
234.050551
 30
0.0
 10
29.413483
 20
234.172797
 30
0.0
 10
29.342083
 20
234.248524
 30
0.0
  0
SPLINE
  5
228
100
AcDbEntity
  8
0
 62
7
100
AcDbSpline
 70
8
 71
3
 72
8
 73
4
 74
0
 40
0
 40
0
 40
0
 40
0
 40
1
 40
1
 40
1
 40
1
 10
29.342083
 20
234.248524
 30
0.0
 10
29.270682
 20
234.326418
 30
0.0
 10
29.151681
 20
234.365364
 30
0.0
 10
28.985078
 20
234.365364
 30
0.0
  0
SPLINE
  5
229
100
AcDbEntity
  8
0
 62
7
100
AcDbSpline
 70
8
 71
3
 72
8
 73
4
 74
0
 40
0
 40
0
 40
0
 40
0
 40
1
 40
1
 40
1
 40
1
 10
28.985078
 20
234.365364
 30
0.0
 10
28.894204
 20
234.365364
 30
0.0
 10
28.807658
 20
234.350219
 30
0.0
 10
28.725440
 20
234.319927
 30
0.0
  0
SPLINE
  5
22a
100
AcDbEntity
  8
0
 62
7
100
AcDbSpline
 70
8
 71
3
 72
8
 73
4
 74
0
 40
0
 40
0
 40
0
 40
0
 40
1
 40
1
 40
1
 40
1
 10
28.725440
 20
234.319927
 30
0.0
 10
28.643221
 20
234.291799
 30
0.0
 10
28.559922
 20
234.243116
 30
0.0
 10
28.475541
 20
234.173880
 30
0.0
  0
SPLINE
  5
22b
100
AcDbEntity
  8
0
 62
7
100
AcDbSpline
 70
8
 71
3
 72
8
 73
4
 74
0
 40
0
 40
0
 40
0
 40
0
 40
1
 40
1
 40
1
 40
1
 10
28.475541
 20
234.173880
 30
0.0
 10
28.391155
 20
234.106806
 30
0.0
 10
28.310017
 20
234.018096
 30
0.0
 10
28.232127
 20
233.907749
 30
0.0
  0
SPLINE
  5
22c
100
AcDbEntity
  8
0
 62
7
100
AcDbSpline
 70
8
 71
3
 72
8
 73
4
 74
0
 40
0
 40
0
 40
0
 40
0
 40
1
 40
1
 40
1
 40
1
 10
28.232127
 20
233.907749
 30
0.0
 10
28.156400
 20
233.797404
 30
0.0
 10
28.087163
 20
233.663257
 30
0.0
 10
28.024418
 20
233.505310
 30
0.0
  0
SPLINE
  5
22d
100
AcDbEntity
  8
0
 62
7
100
AcDbSpline
 70
8
 71
3
 72
8
 73
4
 74
0
 40
0
 40
0
 40
0
 40
0
 40
1
 40
1
 40
1
 40
1
 10
28.024418
 20
233.505310
 30
0.0
 10
27.961670
 20
233.347363
 30
0.0
 10
27.912987
 20
233.177515
 30
0.0
 10
27.878368
 20
232.995768
 30
0.0
  0
SPLINE
  5
22e
100
AcDbEntity
  8
0
 62
7
100
AcDbSpline
 70
8
 71
3
 72
8
 73
4
 74
0
 40
0
 40
0
 40
0
 40
0
 40
1
 40
1
 40
1
 40
1
 10
27.878368
 20
232.995768
 30
0.0
 10
27.843750
 20
232.816186
 30
0.0
 10
27.826441
 20
232.640931
 30
0.0
 10
27.826441
 20
232.470001
 30
0.0
  0
SPLINE
  5
22f
100
AcDbEntity
  8
0
 62
7
100
AcDbSpline
 70
8
 71
3
 72
8
 73
4
 74
0
 40
0
 40
0
 40
0
 40
0
 40
1
 40
1
 40
1
 40
1
 10
27.826441
 20
232.470001
 30
0.0
 10
27.826441
 20
232.244980
 30
0.0
 10
27.856733
 20
232.076215
 30
0.0
 10
27.917315
 20
231.963705
 30
0.0
  0
SPLINE
  5
230
100
AcDbEntity
  8
0
 62
7
100
AcDbSpline
 70
8
 71
3
 72
8
 73
4
 74
0
 40
0
 40
0
 40
0
 40
0
 40
1
 40
1
 40
1
 40
1
 10
27.917315
 20
231.963705
 30
0.0
 10
27.980060
 20
231.853360
 30
0.0
 10
28.083915
 20
231.798187
 30
0.0
 10
28.228880
 20
231.798187
 30
0.0
  0
SPLINE
  5
231
100
AcDbEntity
  8
0
 62
7
100
AcDbSpline
 70
8
 71
3
 72
8
 73
4
 74
0
 40
0
 40
0
 40
0
 40
0
 40
1
 40
1
 40
1
 40
1
 10
28.228880
 20
231.798187
 30
0.0
 10
28.295954
 20
231.798187
 30
0.0
 10
28.365190
 20
231.813332
 30
0.0
 10
28.436589
 20
231.843621
 30
0.0
  0
SPLINE
  5
232
100
AcDbEntity
  8
0
 62
7
100
AcDbSpline
 70
8
 71
3
 72
8
 73
4
 74
0
 40
0
 40
0
 40
0
 40
0
 40
1
 40
1
 40
1
 40
1
 10
28.436589
 20
231.843621
 30
0.0
 10
28.510157
 20
231.873912
 30
0.0
 10
28.591295
 20
231.929086
 30
0.0
 10
28.680003
 20
232.009142
 30
0.0
  0
SPLINE
  5
233
100
AcDbEntity
  8
0
 62
7
100
AcDbSpline
 70
8
 71
3
 72
8
 73
4
 74
0
 40
0
 40
0
 40
0
 40
0
 40
1
 40
1
 40
1
 40
1
 10
28.680003
 20
232.009142
 30
0.0
 10
28.768712
 20
232.091360
 30
0.0
 10
28.869322
 20
232.211443
 30
0.0
 10
28.981831
 20
232.369391
 30
0.0
  0
SPLINE
  5
234
100
AcDbEntity
  8
0
 62
7
100
AcDbSpline
 70
8
 71
3
 72
8
 73
4
 74
0
 40
0
 40
0
 40
0
 40
0
 40
1
 40
1
 40
1
 40
1
 10
28.981831
 20
232.369391
 30
0.0
 10
29.083525
 20
232.514356
 30
0.0
 10
29.163581
 20
232.657157
 30
0.0
 10
29.221999
 20
232.797796
 30
0.0
  0
SPLINE
  5
235
100
AcDbEntity
  8
0
 62
7
100
AcDbSpline
 70
8
 71
3
 72
8
 73
4
 74
0
 40
0
 40
0
 40
0
 40
0
 40
1
 40
1
 40
1
 40
1
 10
29.221999
 20
232.797796
 30
0.0
 10
29.282581
 20
232.940595
 30
0.0
 10
29.332345
 20
233.108278
 30
0.0
 10
29.371290
 20
233.300845
 30
0.0
  0
LWPOLYLINE
  5
236
100
AcDbEntity
  8
0
 62
7
100
AcDbPolyline
 90
1
 70
1
 10
29.686107
 20
234.407565
 30
0.0
  0
SPLINE
  5
237
100
AcDbEntity
  8
0
 62
7
100
AcDbSpline
 70
8
 71
3
 72
8
 73
4
 74
0
 40
0
 40
0
 40
0
 40
0
 40
1
 40
1
 40
1
 40
1
 10
32.665484
 20
232.061072
 30
0.0
 10
32.488063
 20
231.846869
 30
0.0
 10
32.312807
 20
231.684593
 30
0.0
 10
32.139715
 20
231.574246
 30
0.0
  0
SPLINE
  5
238
100
AcDbEntity
  8
0
 62
7
100
AcDbSpline
 70
8
 71
3
 72
8
 73
4
 74
0
 40
0
 40
0
 40
0
 40
0
 40
1
 40
1
 40
1
 40
1
 10
32.139715
 20
231.574246
 30
0.0
 10
31.966623
 20
231.466064
 30
0.0
 10
31.782712
 20
231.411972
 30
0.0
 10
31.587982
 20
231.411972
 30
0.0
  0
SPLINE
  5
239
100
AcDbEntity
  8
0
 62
7
100
AcDbSpline
 70
8
 71
3
 72
8
 73
4
 74
0
 40
0
 40
0
 40
0
 40
0
 40
1
 40
1
 40
1
 40
1
 10
31.587982
 20
231.411972
 30
0.0
 10
31.358634
 20
231.411972
 30
0.0
 10
31.187704
 20
231.470391
 30
0.0
 10
31.075193
 20
231.587229
 30
0.0
  0
SPLINE
  5
23a
100
AcDbEntity
  8
0
 62
7
100
AcDbSpline
 70
8
 71
3
 72
8
 73
4
 74
0
 40
0
 40
0
 40
0
 40
0
 40
1
 40
1
 40
1
 40
1
 10
31.075193
 20
231.587229
 30
0.0
 10
30.962685
 20
231.704068
 30
0.0
 10
30.906431
 20
231.873915
 30
0.0
 10
30.906431
 20
232.096772
 30
0.0
  0
SPLINE
  5
23b
100
AcDbEntity
  8
0
 62
7
100
AcDbSpline
 70
8
 71
3
 72
8
 73
4
 74
0
 40
0
 40
0
 40
0
 40
0
 40
1
 40
1
 40
1
 40
1
 10
30.906431
 20
232.096772
 30
0.0
 10
30.906431
 20
232.233082
 30
0.0
 10
30.925904
 20
232.385619
 30
0.0
 10
30.964849
 20
232.554384
 30
0.0
  0
LWPOLYLINE
  5
23c
100
AcDbEntity
  8
0
 62
7
100
AcDbPolyline
 90
2
 70
0
 10
29.371290
 20
233.300845
 30
0.0
 10
29.400527
 20
233.440402
 30
0.0
  0
SPLINE
  5
23d
100
AcDbEntity
  8
0
 62
7
100
AcDbSpline
 70
8
 71
3
 72
8
 73
4
 74
0
 40
0
 40
0
 40
0
 40
0
 40
1
 40
1
 40
1
 40
1
 10
30.919412
 20
234.404306
 30
0.0
 10
31.047068
 20
234.419457
 30
0.0
 10
31.147678
 20
234.446505
 30
0.0
 10
31.221243
 20
234.485448
 30
0.0
  0
SPLINE
  5
23e
100
AcDbEntity
  8
0
 62
7
100
AcDbSpline
 70
8
 71
3
 72
8
 73
4
 74
0
 40
0
 40
0
 40
0
 40
0
 40
1
 40
1
 40
1
 40
1
 10
31.221243
 20
234.485448
 30
0.0
 10
31.296970
 20
234.526555
 30
0.0
 10
31.359716
 20
234.579564
 30
0.0
 10
31.409481
 20
234.644473
 30
0.0
  0
SPLINE
  5
23f
100
AcDbEntity
  8
0
 62
7
100
AcDbSpline
 70
8
 71
3
 72
8
 73
4
 74
0
 40
0
 40
0
 40
0
 40
0
 40
1
 40
1
 40
1
 40
1
 10
31.409481
 20
234.644473
 30
0.0
 10
31.461410
 20
234.711547
 30
0.0
 10
31.509009
 20
234.798094
 30
0.0
 10
31.552279
 20
234.904114
 30
0.0
  0
SPLINE
  5
240
100
AcDbEntity
  8
0
 62
7
100
AcDbSpline
 70
8
 71
3
 72
8
 73
4
 74
0
 40
0
 40
0
 40
0
 40
0
 40
1
 40
1
 40
1
 40
1
 10
31.552279
 20
234.904114
 30
0.0
 10
31.595556
 20
235.010131
 30
0.0
 10
31.649647
 20
235.164832
 30
0.0
 10
31.714553
 20
235.368217
 30
0.0
  0
LWPOLYLINE
  5
241
100
AcDbEntity
  8
0
 62
7
100
AcDbPolyline
 90
4
 70
0
 10
30.964849
 20
232.554384
 30
0.0
 10
31.367288
 20
234.238788
 30
0.0
 10
30.883712
 20
234.238788
 30
0.0
 10
30.919412
 20
234.404306
 30
0.0
  0
SPLINE
  5
242
100
AcDbEntity
  8
0
 62
7
100
AcDbSpline
 70
8
 71
3
 72
8
 73
4
 74
0
 40
0
 40
0
 40
0
 40
0
 40
1
 40
1
 40
1
 40
1
 10
31.597719
 20
232.979543
 30
0.0
 10
31.511173
 20
232.629030
 30
0.0
 10
31.467901
 20
232.367228
 30
0.0
 10
31.467901
 20
232.194136
 30
0.0
  0
SPLINE
  5
243
100
AcDbEntity
  8
0
 62
7
100
AcDbSpline
 70
8
 71
3
 72
8
 73
4
 74
0
 40
0
 40
0
 40
0
 40
0
 40
1
 40
1
 40
1
 40
1
 10
31.467901
 20
232.194136
 30
0.0
 10
31.467901
 20
232.062151
 30
0.0
 10
31.496027
 20
231.961541
 30
0.0
 10
31.552279
 20
231.892305
 30
0.0
  0
SPLINE
  5
244
100
AcDbEntity
  8
0
 62
7
100
AcDbSpline
 70
8
 71
3
 72
8
 73
4
 74
0
 40
0
 40
0
 40
0
 40
0
 40
1
 40
1
 40
1
 40
1
 10
31.552279
 20
231.892305
 30
0.0
 10
31.610699
 20
231.825233
 30
0.0
 10
31.695082
 20
231.791697
 30
0.0
 10
31.805427
 20
231.791697
 30
0.0
  0
SPLINE
  5
245
100
AcDbEntity
  8
0
 62
7
100
AcDbSpline
 70
8
 71
3
 72
8
 73
4
 74
0
 40
0
 40
0
 40
0
 40
0
 40
1
 40
1
 40
1
 40
1
 10
31.805427
 20
231.791697
 30
0.0
 10
31.904956
 20
231.791697
 30
0.0
 10
32.008812
 20
231.829560
 30
0.0
 10
32.116995
 20
231.905288
 30
0.0
  0
SPLINE
  5
246
100
AcDbEntity
  8
0
 62
7
100
AcDbSpline
 70
8
 71
3
 72
8
 73
4
 74
0
 40
0
 40
0
 40
0
 40
0
 40
1
 40
1
 40
1
 40
1
 10
32.116995
 20
231.905288
 30
0.0
 10
32.227342
 20
231.983177
 30
0.0
 10
32.347425
 20
232.100015
 30
0.0
 10
32.477244
 20
232.255800
 30
0.0
  0
LWPOLYLINE
  5
247
100
AcDbEntity
  8
0
 62
7
100
AcDbPolyline
 90
7
 70
0
 10
31.714553
 20
235.368217
 30
0.0
 10
32.162432
 20
235.368217
 30
0.0
 10
31.983928
 20
234.566583
 30
0.0
 10
33.012750
 20
234.566583
 30
0.0
 10
32.941349
 20
234.238788
 30
0.0
 10
31.909284
 20
234.238788
 30
0.0
 10
31.597719
 20
232.979543
 30
0.0
  0
LWPOLYLINE
  5
248
100
AcDbEntity
  8
0
 62
7
100
AcDbPolyline
 90
2
 70
0
 10
32.477244
 20
232.255800
 30
0.0
 10
32.665484
 20
232.061072
 30
0.0
  0
SPLINE
  5
249
100
AcDbEntity
  8
0
 62
7
100
AcDbSpline
 70
8
 71
3
 72
8
 73
4
 74
0
 40
0
 40
0
 40
0
 40
0
 40
1
 40
1
 40
1
 40
1
 10
35.187222
 20
233.112608
 30
0.0
 10
35.217513
 20
233.231608
 30
0.0
 10
35.243477
 20
233.351691
 30
0.0
 10
35.265112
 20
233.472856
 30
0.0
  0
SPLINE
  5
24a
100
AcDbEntity
  8
0
 62
7
100
AcDbSpline
 70
8
 71
3
 72
8
 73
4
 74
0
 40
0
 40
0
 40
0
 40
0
 40
1
 40
1
 40
1
 40
1
 10
35.265112
 20
233.472856
 30
0.0
 10
35.288914
 20
233.596184
 30
0.0
 10
35.300815
 20
233.707611
 30
0.0
 10
35.300815
 20
233.807139
 30
0.0
  0
SPLINE
  5
24b
100
AcDbEntity
  8
0
 62
7
100
AcDbSpline
 70
8
 71
3
 72
8
 73
4
 74
0
 40
0
 40
0
 40
0
 40
0
 40
1
 40
1
 40
1
 40
1
 10
35.300815
 20
233.807139
 30
0.0
 10
35.300815
 20
233.962923
 30
0.0
 10
35.274851
 20
234.073271
 30
0.0
 10
35.222922
 20
234.138180
 30
0.0
  0
SPLINE
  5
24c
100
AcDbEntity
  8
0
 62
7
100
AcDbSpline
 70
8
 71
3
 72
8
 73
4
 74
0
 40
0
 40
0
 40
0
 40
0
 40
1
 40
1
 40
1
 40
1
 10
35.222922
 20
234.138180
 30
0.0
 10
35.170993
 20
234.205252
 30
0.0
 10
35.083365
 20
234.238788
 30
0.0
 10
34.960037
 20
234.238788
 30
0.0
  0
SPLINE
  5
24d
100
AcDbEntity
  8
0
 62
7
100
AcDbSpline
 70
8
 71
3
 72
8
 73
4
 74
0
 40
0
 40
0
 40
0
 40
0
 40
1
 40
1
 40
1
 40
1
 10
34.960037
 20
234.238788
 30
0.0
 10
34.871328
 20
234.238788
 30
0.0
 10
34.772882
 20
234.202006
 30
0.0
 10
34.664699
 20
234.128443
 30
0.0
  0
SPLINE
  5
24e
100
AcDbEntity
  8
0
 62
7
100
AcDbSpline
 70
8
 71
3
 72
8
 73
4
 74
0
 40
0
 40
0
 40
0
 40
0
 40
1
 40
1
 40
1
 40
1
 10
34.664699
 20
234.128443
 30
0.0
 10
34.558680
 20
234.054877
 30
0.0
 10
34.446171
 20
233.942366
 30
0.0
 10
34.327170
 20
233.790912
 30
0.0
  0
SPLINE
  5
24f
100
AcDbEntity
  8
0
 62
7
100
AcDbSpline
 70
8
 71
3
 72
8
 73
4
 74
0
 40
0
 40
0
 40
0
 40
0
 40
1
 40
1
 40
1
 40
1
 10
34.327170
 20
233.790912
 30
0.0
 10
34.208169
 20
233.641620
 30
0.0
 10
34.112969
 20
233.497737
 30
0.0
 10
34.041568
 20
233.359263
 30
0.0
  0
SPLINE
  5
250
100
AcDbEntity
  8
0
 62
7
100
AcDbSpline
 70
8
 71
3
 72
8
 73
4
 74
0
 40
0
 40
0
 40
0
 40
0
 40
1
 40
1
 40
1
 40
1
 10
34.041568
 20
233.359263
 30
0.0
 10
33.972330
 20
233.222953
 30
0.0
 10
33.917157
 20
233.059597
 30
0.0
 10
33.876048
 20
232.869196
 30
0.0
  0
LWPOLYLINE
  5
251
100
AcDbEntity
  8
0
 62
7
100
AcDbPolyline
 90
3
 70
0
 10
35.797372
 20
231.463902
 30
0.0
 10
34.778290
 20
231.463902
 30
0.0
 10
35.187222
 20
233.112608
 30
0.0
  0
SPLINE
  5
252
100
AcDbEntity
  8
0
 62
7
100
AcDbSpline
 70
8
 71
3
 72
8
 73
4
 74
0
 40
0
 40
0
 40
0
 40
0
 40
1
 40
1
 40
1
 40
1
 10
33.853328
 20
235.173489
 30
0.0
 10
33.877128
 20
235.281672
 30
0.0
 10
33.893356
 20
235.359563
 30
0.0
 10
33.902011
 20
235.407164
 30
0.0
  0
SPLINE
  5
253
100
AcDbEntity
  8
0
 62
7
100
AcDbSpline
 70
8
 71
3
 72
8
 73
4
 74
0
 40
0
 40
0
 40
0
 40
0
 40
1
 40
1
 40
1
 40
1
 10
33.902011
 20
235.407164
 30
0.0
 10
33.912842
 20
235.456926
 30
0.0
 10
33.920417
 20
235.502362
 30
0.0
 10
33.924739
 20
235.543472
 30
0.0
  0
SPLINE
  5
254
100
AcDbEntity
  8
0
 62
7
100
AcDbSpline
 70
8
 71
3
 72
8
 73
4
 74
0
 40
0
 40
0
 40
0
 40
0
 40
1
 40
1
 40
1
 40
1
 10
33.924739
 20
235.543472
 30
0.0
 10
33.929060
 20
235.584582
 30
0.0
 10
33.931221
 20
235.621366
 30
0.0
 10
33.931221
 20
235.653821
 30
0.0
  0
SPLINE
  5
255
100
AcDbEntity
  8
0
 62
7
100
AcDbSpline
 70
8
 71
3
 72
8
 73
4
 74
0
 40
0
 40
0
 40
0
 40
0
 40
1
 40
1
 40
1
 40
1
 10
33.931221
 20
235.653821
 30
0.0
 10
33.931221
 20
235.744693
 30
0.0
 10
33.903093
 20
235.808521
 30
0.0
 10
33.846838
 20
235.845305
 30
0.0
  0
SPLINE
  5
256
100
AcDbEntity
  8
0
 62
7
100
AcDbSpline
 70
8
 71
3
 72
8
 73
4
 74
0
 40
0
 40
0
 40
0
 40
0
 40
1
 40
1
 40
1
 40
1
 10
33.846838
 20
235.845305
 30
0.0
 10
33.792746
 20
235.882086
 30
0.0
 10
33.694300
 20
235.902640
 30
0.0
 10
33.551499
 20
235.906967
 30
0.0
  0
LWPOLYLINE
  5
257
100
AcDbEntity
  8
0
 62
7
100
AcDbPolyline
 90
4
 70
0
 10
33.876048
 20
232.869196
 30
0.0
 10
33.580707
 20
231.463902
 30
0.0
 10
33.019240
 20
231.463902
 30
0.0
 10
33.853328
 20
235.173489
 30
0.0
  0
SPLINE
  5
258
100
AcDbEntity
  8
0
 62
7
100
AcDbSpline
 70
8
 71
3
 72
8
 73
4
 74
0
 40
0
 40
0
 40
0
 40
0
 40
1
 40
1
 40
1
 40
1
 10
34.080512
 20
233.842834
 30
0.0
 10
34.283896
 20
234.113291
 30
0.0
 10
34.477542
 20
234.310183
 30
0.0
 10
34.661453
 20
234.433510
 30
0.0
  0
SPLINE
  5
259
100
AcDbEntity
  8
0
 62
7
100
AcDbSpline
 70
8
 71
3
 72
8
 73
4
 74
0
 40
0
 40
0
 40
0
 40
0
 40
1
 40
1
 40
1
 40
1
 10
34.661453
 20
234.433510
 30
0.0
 10
34.845364
 20
234.556838
 30
0.0
 10
35.032521
 20
234.618502
 30
0.0
 10
35.222922
 20
234.618502
 30
0.0
  0
SPLINE
  5
25a
100
AcDbEntity
  8
0
 62
7
100
AcDbSpline
 70
8
 71
3
 72
8
 73
4
 74
0
 40
0
 40
0
 40
0
 40
0
 40
1
 40
1
 40
1
 40
1
 10
35.222922
 20
234.618502
 30
0.0
 10
35.432798
 20
234.618502
 30
0.0
 10
35.591827
 20
234.560083
 30
0.0
 10
35.700008
 20
234.443247
 30
0.0
  0
SPLINE
  5
25b
100
AcDbEntity
  8
0
 62
7
100
AcDbSpline
 70
8
 71
3
 72
8
 73
4
 74
0
 40
0
 40
0
 40
0
 40
0
 40
1
 40
1
 40
1
 40
1
 10
35.700008
 20
234.443247
 30
0.0
 10
35.808191
 20
234.328573
 30
0.0
 10
35.862282
 20
234.157644
 30
0.0
 10
35.862282
 20
233.930461
 30
0.0
  0
SPLINE
  5
25c
100
AcDbEntity
  8
0
 62
7
100
AcDbSpline
 70
8
 71
3
 72
8
 73
4
 74
0
 40
0
 40
0
 40
0
 40
0
 40
1
 40
1
 40
1
 40
1
 10
35.862282
 20
233.930461
 30
0.0
 10
35.862282
 20
233.791987
 30
0.0
 10
35.840645
 20
233.625386
 30
0.0
 10
35.797372
 20
233.430658
 30
0.0
  0
LWPOLYLINE
  5
25d
100
AcDbEntity
  8
0
 62
7
100
AcDbPolyline
 90
6
 70
0
 10
33.551499
 20
235.906967
 30
0.0
 10
33.590443
 20
236.075731
 30
0.0
 10
34.411554
 20
236.104941
 30
0.0
 10
34.599789
 20
236.104941
 30
0.0
 10
34.041568
 20
233.855825
 30
0.0
 10
34.080512
 20
233.842834
 30
0.0
  0
SPLINE
  5
25e
100
AcDbEntity
  8
0
 62
7
100
AcDbSpline
 70
8
 71
3
 72
8
 73
4
 74
0
 40
0
 40
0
 40
0
 40
0
 40
1
 40
1
 40
1
 40
1
 10
35.524753
 20
232.275265
 30
0.0
 10
35.503116
 20
232.182227
 30
0.0
 10
35.487971
 20
232.107581
 30
0.0
 10
35.479319
 20
232.051327
 30
0.0
  0
SPLINE
  5
25f
100
AcDbEntity
  8
0
 62
7
100
AcDbSpline
 70
8
 71
3
 72
8
 73
4
 74
0
 40
0
 40
0
 40
0
 40
0
 40
1
 40
1
 40
1
 40
1
 10
35.479319
 20
232.051327
 30
0.0
 10
35.470676
 20
231.995071
 30
0.0
 10
35.466354
 20
231.946389
 30
0.0
 10
35.466354
 20
231.905280
 30
0.0
  0
SPLINE
  5
260
100
AcDbEntity
  8
0
 62
7
100
AcDbSpline
 70
8
 71
3
 72
8
 73
4
 74
0
 40
0
 40
0
 40
0
 40
0
 40
1
 40
1
 40
1
 40
1
 10
35.466354
 20
231.905280
 30
0.0
 10
35.466354
 20
231.838204
 30
0.0
 10
35.477172
 20
231.786276
 30
0.0
 10
35.498808
 20
231.749496
 30
0.0
  0
SPLINE
  5
261
100
AcDbEntity
  8
0
 62
7
100
AcDbSpline
 70
8
 71
3
 72
8
 73
4
 74
0
 40
0
 40
0
 40
0
 40
0
 40
1
 40
1
 40
1
 40
1
 10
35.498808
 20
231.749496
 30
0.0
 10
35.522608
 20
231.712713
 30
0.0
 10
35.557227
 20
231.684586
 30
0.0
 10
35.602665
 20
231.665112
 30
0.0
  0
SPLINE
  5
262
100
AcDbEntity
  8
0
 62
7
100
AcDbSpline
 70
8
 71
3
 72
8
 73
4
 74
0
 40
0
 40
0
 40
0
 40
0
 40
1
 40
1
 40
1
 40
1
 10
35.602665
 20
231.665112
 30
0.0
 10
35.650265
 20
231.647808
 30
0.0
 10
35.724911
 20
231.633745
 30
0.0
 10
35.826603
 20
231.622922
 30
0.0
  0
LWPOLYLINE
  5
263
100
AcDbEntity
  8
0
 62
7
100
AcDbPolyline
 90
2
 70
0
 10
35.797372
 20
233.430658
 30
0.0
 10
35.524753
 20
232.275265
 30
0.0
  0
SPLINE
  5
264
100
AcDbEntity
  8
0
 62
7
100
AcDbSpline
 70
8
 71
3
 72
8
 73
4
 74
0
 40
0
 40
0
 40
0
 40
0
 40
1
 40
1
 40
1
 40
1
 10
24.612586
 20
228.092405
 30
0.0
 10
24.612586
 20
227.867934
 30
0.0
 10
24.588063
 20
227.666099
 30
0.0
 10
24.539019
 20
227.486901
 30
0.0
  0
SPLINE
  5
265
100
AcDbEntity
  8
0
 62
7
100
AcDbSpline
 70
8
 71
3
 72
8
 73
4
 74
0
 40
0
 40
0
 40
0
 40
0
 40
1
 40
1
 40
1
 40
1
 10
24.539019
 20
227.486901
 30
0.0
 10
24.489976
 20
227.307702
 30
0.0
 10
24.419240
 20
227.154912
 30
0.0
 10
24.326811
 20
227.028531
 30
0.0
  0
SPLINE
  5
266
100
AcDbEntity
  8
0
 62
7
100
AcDbSpline
 70
8
 71
3
 72
8
 73
4
 74
0
 40
0
 40
0
 40
0
 40
0
 40
1
 40
1
 40
1
 40
1
 10
24.326811
 20
227.028531
 30
0.0
 10
24.234382
 20
226.902147
 30
0.0
 10
24.120260
 20
226.805002
 30
0.0
 10
23.984445
 20
226.737095
 30
0.0
  0
SPLINE
  5
267
100
AcDbEntity
  8
0
 62
7
100
AcDbSpline
 70
8
 71
3
 72
8
 73
4
 74
0
 40
0
 40
0
 40
0
 40
0
 40
1
 40
1
 40
1
 40
1
 10
23.984445
 20
226.737095
 30
0.0
 10
23.850519
 20
226.669188
 30
0.0
 10
23.697729
 20
226.635234
 30
0.0
 10
23.526075
 20
226.635234
 30
0.0
  0
SPLINE
  5
268
100
AcDbEntity
  8
0
 62
7
100
AcDbSpline
 70
8
 71
3
 72
8
 73
4
 74
0
 40
0
 40
0
 40
0
 40
0
 40
1
 40
1
 40
1
 40
1
 10
23.526075
 20
226.635234
 30
0.0
 10
23.441191
 20
226.635234
 30
0.0
 10
23.361965
 20
226.643718
 30
0.0
 10
23.288399
 20
226.660686
 30
0.0
  0
SPLINE
  5
269
100
AcDbEntity
  8
0
 62
7
100
AcDbSpline
 70
8
 71
3
 72
8
 73
4
 74
0
 40
0
 40
0
 40
0
 40
0
 40
1
 40
1
 40
1
 40
1
 10
23.288399
 20
226.660686
 30
0.0
 10
23.214833
 20
226.675785
 30
0.0
 10
23.144097
 20
226.701251
 30
0.0
 10
23.076190
 20
226.737085
 30
0.0
  0
SPLINE
  5
26a
100
AcDbEntity
  8
0
 62
7
100
AcDbSpline
 70
8
 71
3
 72
8
 73
4
 74
0
 40
0
 40
0
 40
0
 40
0
 40
1
 40
1
 40
1
 40
1
 10
23.076190
 20
226.737085
 30
0.0
 10
23.010169
 20
226.772924
 30
0.0
 10
22.944148
 20
226.818195
 30
0.0
 10
22.878126
 20
226.872898
 30
0.0
  0
SPLINE
  5
26b
100
AcDbEntity
  8
0
 62
7
100
AcDbSpline
 70
8
 71
3
 72
8
 73
4
 74
0
 40
0
 40
0
 40
0
 40
0
 40
1
 40
1
 40
1
 40
1
 10
22.878126
 20
226.872898
 30
0.0
 10
22.813992
 20
226.927602
 30
0.0
 10
22.747971
 20
226.993622
 30
0.0
 10
22.680065
 20
227.070960
 30
0.0
  0
LWPOLYLINE
  5
26c
100
AcDbEntity
  8
0
 62
7
100
AcDbPolyline
 90
2
 70
0
 10
35.826603
 20
231.622922
 30
0.0
 10
35.797372
 20
231.463902
 30
0.0
  0
SPLINE
  5
26d
100
AcDbEntity
  8
0
 62
7
100
AcDbSpline
 70
8
 71
3
 72
8
 73
4
 74
0
 40
0
 40
0
 40
0
 40
0
 40
1
 40
1
 40
1
 40
1
 10
22.680065
 20
226.796505
 30
0.0
 10
22.680065
 20
226.775753
 30
0.0
 10
22.674403
 20
226.757832
 30
0.0
 10
22.663081
 20
226.742742
 30
0.0
  0
SPLINE
  5
26e
100
AcDbEntity
  8
0
 62
7
100
AcDbSpline
 70
8
 71
3
 72
8
 73
4
 74
0
 40
0
 40
0
 40
0
 40
0
 40
1
 40
1
 40
1
 40
1
 10
22.663081
 20
226.742742
 30
0.0
 10
22.653648
 20
226.729548
 30
0.0
 10
22.636671
 20
226.718231
 30
0.0
 10
22.612151
 20
226.708790
 30
0.0
  0
SPLINE
  5
26f
100
AcDbEntity
  8
0
 62
7
100
AcDbSpline
 70
8
 71
3
 72
8
 73
4
 74
0
 40
0
 40
0
 40
0
 40
0
 40
1
 40
1
 40
1
 40
1
 10
22.612151
 20
226.708790
 30
0.0
 10
22.589515
 20
226.699354
 30
0.0
 10
22.558391
 20
226.692757
 30
0.0
 10
22.518777
 20
226.689000
 30
0.0
  0
SPLINE
  5
270
100
AcDbEntity
  8
0
 62
7
100
AcDbSpline
 70
8
 71
3
 72
8
 73
4
 74
0
 40
0
 40
0
 40
0
 40
0
 40
1
 40
1
 40
1
 40
1
 10
22.518777
 20
226.689000
 30
0.0
 10
22.479166
 20
226.685225
 30
0.0
 10
22.431066
 20
226.683337
 30
0.0
 10
22.374478
 20
226.683337
 30
0.0
  0
SPLINE
  5
271
100
AcDbEntity
  8
0
 62
7
100
AcDbSpline
 70
8
 71
3
 72
8
 73
4
 74
0
 40
0
 40
0
 40
0
 40
0
 40
1
 40
1
 40
1
 40
1
 10
22.374478
 20
226.683337
 30
0.0
 10
22.316001
 20
226.683337
 30
0.0
 10
22.266957
 20
226.685225
 30
0.0
 10
22.227345
 20
226.689000
 30
0.0
  0
SPLINE
  5
272
100
AcDbEntity
  8
0
 62
7
100
AcDbSpline
 70
8
 71
3
 72
8
 73
4
 74
0
 40
0
 40
0
 40
0
 40
0
 40
1
 40
1
 40
1
 40
1
 10
22.227345
 20
226.689000
 30
0.0
 10
22.189617
 20
226.692774
 30
0.0
 10
22.158493
 20
226.699371
 30
0.0
 10
22.133972
 20
226.708790
 30
0.0
  0
SPLINE
  5
273
100
AcDbEntity
  8
0
 62
7
100
AcDbSpline
 70
8
 71
3
 72
8
 73
4
 74
0
 40
0
 40
0
 40
0
 40
0
 40
1
 40
1
 40
1
 40
1
 10
22.133972
 20
226.708790
 30
0.0
 10
22.111336
 20
226.718227
 30
0.0
 10
22.095302
 20
226.729544
 30
0.0
 10
22.085870
 20
226.742742
 30
0.0
  0
SPLINE
  5
274
100
AcDbEntity
  8
0
 62
7
100
AcDbSpline
 70
8
 71
3
 72
8
 73
4
 74
0
 40
0
 40
0
 40
0
 40
0
 40
1
 40
1
 40
1
 40
1
 10
22.085870
 20
226.742742
 30
0.0
 10
22.076437
 20
226.757841
 30
0.0
 10
22.071720
 20
226.775762
 30
0.0
 10
22.071720
 20
226.796505
 30
0.0
  0
LWPOLYLINE
  5
275
100
AcDbEntity
  8
0
 62
7
100
AcDbPolyline
 90
2
 70
0
 10
22.680065
 20
227.070960
 30
0.0
 10
22.680065
 20
226.796505
 30
0.0
  0
SPLINE
  5
276
100
AcDbEntity
  8
0
 62
7
100
AcDbSpline
 70
8
 71
3
 72
8
 73
4
 74
0
 40
0
 40
0
 40
0
 40
0
 40
1
 40
1
 40
1
 40
1
 10
22.071720
 20
230.517242
 30
0.0
 10
22.071720
 20
230.536106
 30
0.0
 10
22.077381
 20
230.553084
 30
0.0
 10
22.088704
 20
230.568174
 30
0.0
  0
SPLINE
  5
277
100
AcDbEntity
  8
0
 62
7
100
AcDbSpline
 70
8
 71
3
 72
8
 73
4
 74
0
 40
0
 40
0
 40
0
 40
0
 40
1
 40
1
 40
1
 40
1
 10
22.088704
 20
230.568174
 30
0.0
 10
22.100026
 20
230.583273
 30
0.0
 10
22.118890
 20
230.595533
 30
0.0
 10
22.145294
 20
230.604956
 30
0.0
  0
SPLINE
  5
278
100
AcDbEntity
  8
0
 62
7
100
AcDbSpline
 70
8
 71
3
 72
8
 73
4
 74
0
 40
0
 40
0
 40
0
 40
0
 40
1
 40
1
 40
1
 40
1
 10
22.145294
 20
230.604956
 30
0.0
 10
22.173587
 20
230.616280
 30
0.0
 10
22.210370
 20
230.624765
 30
0.0
 10
22.255642
 20
230.630409
 30
0.0
  0
SPLINE
  5
279
100
AcDbEntity
  8
0
 62
7
100
AcDbSpline
 70
8
 71
3
 72
8
 73
4
 74
0
 40
0
 40
0
 40
0
 40
0
 40
1
 40
1
 40
1
 40
1
 10
22.255642
 20
230.630409
 30
0.0
 10
22.300915
 20
230.636071
 30
0.0
 10
22.358447
 20
230.638902
 30
0.0
 10
22.428239
 20
230.638902
 30
0.0
  0
SPLINE
  5
27a
100
AcDbEntity
  8
0
 62
7
100
AcDbSpline
 70
8
 71
3
 72
8
 73
4
 74
0
 40
0
 40
0
 40
0
 40
0
 40
1
 40
1
 40
1
 40
1
 10
22.428239
 20
230.638902
 30
0.0
 10
22.498033
 20
230.638902
 30
0.0
 10
22.555565
 20
230.636071
 30
0.0
 10
22.600836
 20
230.630409
 30
0.0
  0
SPLINE
  5
27b
100
AcDbEntity
  8
0
 62
7
100
AcDbSpline
 70
8
 71
3
 72
8
 73
4
 74
0
 40
0
 40
0
 40
0
 40
0
 40
1
 40
1
 40
1
 40
1
 10
22.600836
 20
230.630409
 30
0.0
 10
22.646107
 20
230.624747
 30
0.0
 10
22.681947
 20
230.616263
 30
0.0
 10
22.708356
 20
230.604956
 30
0.0
  0
SPLINE
  5
27c
100
AcDbEntity
  8
0
 62
7
100
AcDbSpline
 70
8
 71
3
 72
8
 73
4
 74
0
 40
0
 40
0
 40
0
 40
0
 40
1
 40
1
 40
1
 40
1
 10
22.708356
 20
230.604956
 30
0.0
 10
22.736651
 20
230.595519
 30
0.0
 10
22.756457
 20
230.583259
 30
0.0
 10
22.767774
 20
230.568174
 30
0.0
  0
SPLINE
  5
27d
100
AcDbEntity
  8
0
 62
7
100
AcDbSpline
 70
8
 71
3
 72
8
 73
4
 74
0
 40
0
 40
0
 40
0
 40
0
 40
1
 40
1
 40
1
 40
1
 10
22.767774
 20
230.568174
 30
0.0
 10
22.779097
 20
230.553075
 30
0.0
 10
22.784758
 20
230.536097
 30
0.0
 10
22.784758
 20
230.517242
 30
0.0
  0
LWPOLYLINE
  5
27e
100
AcDbEntity
  8
0
 62
7
100
AcDbPolyline
 90
2
 70
0
 10
22.071720
 20
226.796505
 30
0.0
 10
22.071720
 20
230.517242
 30
0.0
  0
SPLINE
  5
27f
100
AcDbEntity
  8
0
 62
7
100
AcDbSpline
 70
8
 71
3
 72
8
 73
4
 74
0
 40
0
 40
0
 40
0
 40
0
 40
1
 40
1
 40
1
 40
1
 10
22.784758
 20
229.122319
 30
0.0
 10
22.848893
 20
229.186454
 30
0.0
 10
22.913027
 20
229.241157
 30
0.0
 10
22.977162
 20
229.286429
 30
0.0
  0
SPLINE
  5
280
100
AcDbEntity
  8
0
 62
7
100
AcDbSpline
 70
8
 71
3
 72
8
 73
4
 74
0
 40
0
 40
0
 40
0
 40
0
 40
1
 40
1
 40
1
 40
1
 10
22.977162
 20
229.286429
 30
0.0
 10
23.041296
 20
229.331699
 30
0.0
 10
23.105430
 20
229.368482
 30
0.0
 10
23.169563
 20
229.396776
 30
0.0
  0
SPLINE
  5
281
100
AcDbEntity
  8
0
 62
7
100
AcDbSpline
 70
8
 71
3
 72
8
 73
4
 74
0
 40
0
 40
0
 40
0
 40
0
 40
1
 40
1
 40
1
 40
1
 10
23.169563
 20
229.396776
 30
0.0
 10
23.233698
 20
229.426958
 30
0.0
 10
23.299720
 20
229.448651
 30
0.0
 10
23.367629
 20
229.461856
 30
0.0
  0
SPLINE
  5
282
100
AcDbEntity
  8
0
 62
7
100
AcDbSpline
 70
8
 71
3
 72
8
 73
4
 74
0
 40
0
 40
0
 40
0
 40
0
 40
1
 40
1
 40
1
 40
1
 10
23.367629
 20
229.461856
 30
0.0
 10
23.435536
 20
229.475050
 30
0.0
 10
23.507214
 20
229.481647
 30
0.0
 10
23.582666
 20
229.481647
 30
0.0
  0
SPLINE
  5
283
100
AcDbEntity
  8
0
 62
7
100
AcDbSpline
 70
8
 71
3
 72
8
 73
4
 74
0
 40
0
 40
0
 40
0
 40
0
 40
1
 40
1
 40
1
 40
1
 10
23.582666
 20
229.481647
 30
0.0
 10
23.769411
 20
229.481647
 30
0.0
 10
23.927862
 20
229.443922
 30
0.0
 10
24.058018
 20
229.368471
 30
0.0
  0
SPLINE
  5
284
100
AcDbEntity
  8
0
 62
7
100
AcDbSpline
 70
8
 71
3
 72
8
 73
4
 74
0
 40
0
 40
0
 40
0
 40
0
 40
1
 40
1
 40
1
 40
1
 10
24.058018
 20
229.368471
 30
0.0
 10
24.188172
 20
229.294905
 30
0.0
 10
24.293805
 20
229.194930
 30
0.0
 10
24.374916
 20
229.068548
 30
0.0
  0
SPLINE
  5
285
100
AcDbEntity
  8
0
 62
7
100
AcDbSpline
 70
8
 71
3
 72
8
 73
4
 74
0
 40
0
 40
0
 40
0
 40
0
 40
1
 40
1
 40
1
 40
1
 10
24.374916
 20
229.068548
 30
0.0
 10
24.457914
 20
228.942165
 30
0.0
 10
24.518275
 20
228.794090
 30
0.0
 10
24.556000
 20
228.624323
 30
0.0
  0
SPLINE
  5
286
100
AcDbEntity
  8
0
 62
7
100
AcDbSpline
 70
8
 71
3
 72
8
 73
4
 74
0
 40
0
 40
0
 40
0
 40
0
 40
1
 40
1
 40
1
 40
1
 10
24.556000
 20
228.624323
 30
0.0
 10
24.593726
 20
228.456441
 30
0.0
 10
24.612589
 20
228.279128
 30
0.0
 10
24.612589
 20
228.092384
 30
0.0
  0
LWPOLYLINE
  5
287
100
AcDbEntity
  8
0
 62
7
100
AcDbPolyline
 90
2
 70
0
 10
22.784758
 20
230.517242
 30
0.0
 10
22.784758
 20
229.122319
 30
0.0
  0
SPLINE
  5
288
100
AcDbEntity
  8
0
 62
7
100
AcDbSpline
 70
8
 71
3
 72
8
 73
4
 74
0
 40
0
 40
0
 40
0
 40
0
 40
1
 40
1
 40
1
 40
1
 10
23.874097
 20
228.041475
 30
0.0
 10
23.874097
 20
228.148996
 30
0.0
 10
23.865610
 20
228.252743
 30
0.0
 10
23.848634
 20
228.352715
 30
0.0
  0
SPLINE
  5
289
100
AcDbEntity
  8
0
 62
7
100
AcDbSpline
 70
8
 71
3
 72
8
 73
4
 74
0
 40
0
 40
0
 40
0
 40
0
 40
1
 40
1
 40
1
 40
1
 10
23.848634
 20
228.352715
 30
0.0
 10
23.833535
 20
228.452689
 30
0.0
 10
23.806184
 20
228.541346
 30
0.0
 10
23.766581
 20
228.618687
 30
0.0
  0
SPLINE
  5
28a
100
AcDbEntity
  8
0
 62
7
100
AcDbSpline
 70
8
 71
3
 72
8
 73
4
 74
0
 40
0
 40
0
 40
0
 40
0
 40
1
 40
1
 40
1
 40
1
 10
23.766581
 20
228.618687
 30
0.0
 10
23.726967
 20
228.696023
 30
0.0
 10
23.675093
 20
228.757328
 30
0.0
 10
23.610959
 20
228.802602
 30
0.0
  0
SPLINE
  5
28b
100
AcDbEntity
  8
0
 62
7
100
AcDbSpline
 70
8
 71
3
 72
8
 73
4
 74
0
 40
0
 40
0
 40
0
 40
0
 40
1
 40
1
 40
1
 40
1
 10
23.610959
 20
228.802602
 30
0.0
 10
23.548711
 20
228.849759
 30
0.0
 10
23.469486
 20
228.873338
 30
0.0
 10
23.373284
 20
228.873338
 30
0.0
  0
SPLINE
  5
28c
100
AcDbEntity
  8
0
 62
7
100
AcDbSpline
 70
8
 71
3
 72
8
 73
4
 74
0
 40
0
 40
0
 40
0
 40
0
 40
1
 40
1
 40
1
 40
1
 10
23.373284
 20
228.873338
 30
0.0
 10
23.326127
 20
228.873338
 30
0.0
 10
23.279912
 20
228.866732
 30
0.0
 10
23.234641
 20
228.853521
 30
0.0
  0
SPLINE
  5
28d
100
AcDbEntity
  8
0
 62
7
100
AcDbSpline
 70
8
 71
3
 72
8
 73
4
 74
0
 40
0
 40
0
 40
0
 40
0
 40
1
 40
1
 40
1
 40
1
 10
23.234641
 20
228.853521
 30
0.0
 10
23.189370
 20
228.840327
 30
0.0
 10
23.142212
 20
228.817692
 30
0.0
 10
23.093168
 20
228.785616
 30
0.0
  0
SPLINE
  5
28e
100
AcDbEntity
  8
0
 62
7
100
AcDbSpline
 70
8
 71
3
 72
8
 73
4
 74
0
 40
0
 40
0
 40
0
 40
0
 40
1
 40
1
 40
1
 40
1
 10
23.093168
 20
228.785616
 30
0.0
 10
23.046010
 20
228.753548
 30
0.0
 10
22.996965
 20
228.712049
 30
0.0
 10
22.946034
 20
228.661118
 30
0.0
  0
SPLINE
  5
28f
100
AcDbEntity
  8
0
 62
7
100
AcDbSpline
 70
8
 71
3
 72
8
 73
4
 74
0
 40
0
 40
0
 40
0
 40
0
 40
1
 40
1
 40
1
 40
1
 10
22.946034
 20
228.661118
 30
0.0
 10
22.895105
 20
228.610186
 30
0.0
 10
22.841346
 20
228.546995
 30
0.0
 10
22.784758
 20
228.471545
 30
0.0
  0
LWPOLYLINE
  5
290
100
AcDbEntity
  8
0
 62
7
100
AcDbPolyline
 90
1
 70
1
 10
24.612589
 20
228.092384
 30
0.0
  0
SPLINE
  5
291
100
AcDbEntity
  8
0
 62
7
100
AcDbSpline
 70
8
 71
3
 72
8
 73
4
 74
0
 40
0
 40
0
 40
0
 40
0
 40
1
 40
1
 40
1
 40
1
 10
22.784758
 20
227.634025
 30
0.0
 10
22.884729
 20
227.505757
 30
0.0
 10
22.979988
 20
227.407669
 30
0.0
 10
23.070533
 20
227.339761
 30
0.0
  0
SPLINE
  5
292
100
AcDbEntity
  8
0
 62
7
100
AcDbSpline
 70
8
 71
3
 72
8
 73
4
 74
0
 40
0
 40
0
 40
0
 40
0
 40
1
 40
1
 40
1
 40
1
 10
23.070533
 20
227.339761
 30
0.0
 10
23.162960
 20
227.273740
 30
0.0
 10
23.259161
 20
227.240730
 30
0.0
 10
23.359136
 20
227.240730
 30
0.0
  0
SPLINE
  5
293
100
AcDbEntity
  8
0
 62
7
100
AcDbSpline
 70
8
 71
3
 72
8
 73
4
 74
0
 40
0
 40
0
 40
0
 40
0
 40
1
 40
1
 40
1
 40
1
 10
23.359136
 20
227.240730
 30
0.0
 10
23.451567
 20
227.240730
 30
0.0
 10
23.529848
 20
227.264308
 30
0.0
 10
23.593980
 20
227.311466
 30
0.0
  0
SPLINE
  5
294
100
AcDbEntity
  8
0
 62
7
100
AcDbSpline
 70
8
 71
3
 72
8
 73
4
 74
0
 40
0
 40
0
 40
0
 40
0
 40
1
 40
1
 40
1
 40
1
 10
23.593980
 20
227.311466
 30
0.0
 10
23.658115
 20
227.358624
 30
0.0
 10
23.710932
 20
227.419928
 30
0.0
 10
23.752431
 20
227.495381
 30
0.0
  0
SPLINE
  5
295
100
AcDbEntity
  8
0
 62
7
100
AcDbSpline
 70
8
 71
3
 72
8
 73
4
 74
0
 40
0
 40
0
 40
0
 40
0
 40
1
 40
1
 40
1
 40
1
 10
23.752431
 20
227.495381
 30
0.0
 10
23.795817
 20
227.570834
 30
0.0
 10
23.826942
 20
227.656661
 30
0.0
 10
23.845805
 20
227.752860
 30
0.0
  0
SPLINE
  5
296
100
AcDbEntity
  8
0
 62
7
100
AcDbSpline
 70
8
 71
3
 72
8
 73
4
 74
0
 40
0
 40
0
 40
0
 40
0
 40
1
 40
1
 40
1
 40
1
 10
23.845805
 20
227.752860
 30
0.0
 10
23.864667
 20
227.849062
 30
0.0
 10
23.874098
 20
227.945265
 30
0.0
 10
23.874098
 20
228.041467
 30
0.0
  0
LWPOLYLINE
  5
297
100
AcDbEntity
  8
0
 62
7
100
AcDbPolyline
 90
2
 70
0
 10
22.784758
 20
228.471545
 30
0.0
 10
22.784758
 20
227.634025
 30
0.0
  0
SPLINE
  5
298
100
AcDbEntity
  8
0
 62
7
100
AcDbSpline
 70
8
 71
3
 72
8
 73
4
 74
0
 40
0
 40
0
 40
0
 40
0
 40
1
 40
1
 40
1
 40
1
 10
27.733485
 20
228.083917
 30
0.0
 10
27.733485
 20
227.868878
 30
0.0
 10
27.705191
 20
227.672702
 30
0.0
 10
27.648602
 20
227.495388
 30
0.0
  0
SPLINE
  5
299
100
AcDbEntity
  8
0
 62
7
100
AcDbSpline
 70
8
 71
3
 72
8
 73
4
 74
0
 40
0
 40
0
 40
0
 40
0
 40
1
 40
1
 40
1
 40
1
 10
27.648602
 20
227.495388
 30
0.0
 10
27.592013
 20
227.318077
 30
0.0
 10
27.506185
 20
227.165287
 30
0.0
 10
27.391120
 20
227.037019
 30
0.0
  0
SPLINE
  5
29a
100
AcDbEntity
  8
0
 62
7
100
AcDbSpline
 70
8
 71
3
 72
8
 73
4
 74
0
 40
0
 40
0
 40
0
 40
0
 40
1
 40
1
 40
1
 40
1
 10
27.391120
 20
227.037019
 30
0.0
 10
27.276056
 20
226.908747
 30
0.0
 10
27.131753
 20
226.809716
 30
0.0
 10
26.958211
 20
226.739924
 30
0.0
  0
SPLINE
  5
29b
100
AcDbEntity
  8
0
 62
7
100
AcDbSpline
 70
8
 71
3
 72
8
 73
4
 74
0
 40
0
 40
0
 40
0
 40
0
 40
1
 40
1
 40
1
 40
1
 10
26.958211
 20
226.739924
 30
0.0
 10
26.784671
 20
226.670130
 30
0.0
 10
26.581893
 20
226.635234
 30
0.0
 10
26.349877
 20
226.635234
 30
0.0
  0
SPLINE
  5
29c
100
AcDbEntity
  8
0
 62
7
100
AcDbSpline
 70
8
 71
3
 72
8
 73
4
 74
0
 40
0
 40
0
 40
0
 40
0
 40
1
 40
1
 40
1
 40
1
 10
26.349877
 20
226.635234
 30
0.0
 10
26.125407
 20
226.635234
 30
0.0
 10
25.930173
 20
226.666357
 30
0.0
 10
25.764176
 20
226.728605
 30
0.0
  0
SPLINE
  5
29d
100
AcDbEntity
  8
0
 62
7
100
AcDbSpline
 70
8
 71
3
 72
8
 73
4
 74
0
 40
0
 40
0
 40
0
 40
0
 40
1
 40
1
 40
1
 40
1
 10
25.764176
 20
226.728605
 30
0.0
 10
25.598182
 20
226.790854
 30
0.0
 10
25.460481
 20
226.881397
 30
0.0
 10
25.351074
 20
227.000234
 30
0.0
  0
SPLINE
  5
29e
100
AcDbEntity
  8
0
 62
7
100
AcDbSpline
 70
8
 71
3
 72
8
 73
4
 74
0
 40
0
 40
0
 40
0
 40
0
 40
1
 40
1
 40
1
 40
1
 10
25.351074
 20
227.000234
 30
0.0
 10
25.241669
 20
227.119071
 30
0.0
 10
25.160559
 20
227.265260
 30
0.0
 10
25.107743
 20
227.438802
 30
0.0
  0
SPLINE
  5
29f
100
AcDbEntity
  8
0
 62
7
100
AcDbSpline
 70
8
 71
3
 72
8
 73
4
 74
0
 40
0
 40
0
 40
0
 40
0
 40
1
 40
1
 40
1
 40
1
 10
25.107743
 20
227.438802
 30
0.0
 10
25.054925
 20
227.612342
 30
0.0
 10
25.028516
 20
227.810404
 30
0.0
 10
25.028516
 20
228.032987
 30
0.0
  0
SPLINE
  5
2a0
100
AcDbEntity
  8
0
 62
7
100
AcDbSpline
 70
8
 71
3
 72
8
 73
4
 74
0
 40
0
 40
0
 40
0
 40
0
 40
1
 40
1
 40
1
 40
1
 10
25.028516
 20
228.032987
 30
0.0
 10
25.028516
 20
228.248026
 30
0.0
 10
25.056811
 20
228.444203
 30
0.0
 10
25.113400
 20
228.621516
 30
0.0
  0
SPLINE
  5
2a1
100
AcDbEntity
  8
0
 62
7
100
AcDbSpline
 70
8
 71
3
 72
8
 73
4
 74
0
 40
0
 40
0
 40
0
 40
0
 40
1
 40
1
 40
1
 40
1
 10
25.113400
 20
228.621516
 30
0.0
 10
25.171876
 20
228.800714
 30
0.0
 10
25.258647
 20
228.953505
 30
0.0
 10
25.373713
 20
229.079888
 30
0.0
  0
SPLINE
  5
2a2
100
AcDbEntity
  8
0
 62
7
100
AcDbSpline
 70
8
 71
3
 72
8
 73
4
 74
0
 40
0
 40
0
 40
0
 40
0
 40
1
 40
1
 40
1
 40
1
 10
25.373713
 20
229.079888
 30
0.0
 10
25.488777
 20
229.208156
 30
0.0
 10
25.632136
 20
229.307188
 30
0.0
 10
25.803791
 20
229.376983
 30
0.0
  0
SPLINE
  5
2a3
100
AcDbEntity
  8
0
 62
7
100
AcDbSpline
 70
8
 71
3
 72
8
 73
4
 74
0
 40
0
 40
0
 40
0
 40
0
 40
1
 40
1
 40
1
 40
1
 10
25.803791
 20
229.376983
 30
0.0
 10
25.977330
 20
229.446775
 30
0.0
 10
26.180108
 20
229.481671
 30
0.0
 10
26.412125
 20
229.481671
 30
0.0
  0
SPLINE
  5
2a4
100
AcDbEntity
  8
0
 62
7
100
AcDbSpline
 70
8
 71
3
 72
8
 73
4
 74
0
 40
0
 40
0
 40
0
 40
0
 40
1
 40
1
 40
1
 40
1
 10
26.412125
 20
229.481671
 30
0.0
 10
26.638481
 20
229.481671
 30
0.0
 10
26.834657
 20
229.450547
 30
0.0
 10
27.000653
 20
229.388299
 30
0.0
  0
SPLINE
  5
2a5
100
AcDbEntity
  8
0
 62
7
100
AcDbSpline
 70
8
 71
3
 72
8
 73
4
 74
0
 40
0
 40
0
 40
0
 40
0
 40
1
 40
1
 40
1
 40
1
 10
27.000653
 20
229.388299
 30
0.0
 10
27.166649
 20
229.327937
 30
0.0
 10
27.303407
 20
229.238338
 30
0.0
 10
27.410927
 20
229.119501
 30
0.0
  0
SPLINE
  5
2a6
100
AcDbEntity
  8
0
 62
7
100
AcDbSpline
 70
8
 71
3
 72
8
 73
4
 74
0
 40
0
 40
0
 40
0
 40
0
 40
1
 40
1
 40
1
 40
1
 10
27.410927
 20
229.119501
 30
0.0
 10
27.520332
 20
229.000664
 30
0.0
 10
27.601443
 20
228.854475
 30
0.0
 10
27.654261
 20
228.680933
 30
0.0
  0
SPLINE
  5
2a7
100
AcDbEntity
  8
0
 62
7
100
AcDbSpline
 70
8
 71
3
 72
8
 73
4
 74
0
 40
0
 40
0
 40
0
 40
0
 40
1
 40
1
 40
1
 40
1
 10
27.654261
 20
228.680933
 30
0.0
 10
27.707077
 20
228.507393
 30
0.0
 10
27.733485
 20
228.308388
 30
0.0
 10
27.733485
 20
228.083917
 30
0.0
  0
LWPOLYLINE
  5
2a8
100
AcDbEntity
  8
0
 62
7
100
AcDbPolyline
 90
1
 70
1
 10
23.874098
 20
228.041467
 30
0.0
  0
SPLINE
  5
2a9
100
AcDbEntity
  8
0
 62
7
100
AcDbSpline
 70
8
 71
3
 72
8
 73
4
 74
0
 40
0
 40
0
 40
0
 40
0
 40
1
 40
1
 40
1
 40
1
 10
27.000653
 20
228.055625
 30
0.0
 10
27.000653
 20
228.180118
 30
0.0
 10
26.990278
 20
228.294239
 30
0.0
 10
26.969528
 20
228.397988
 30
0.0
  0
SPLINE
  5
2aa
100
AcDbEntity
  8
0
 62
7
100
AcDbSpline
 70
8
 71
3
 72
8
 73
4
 74
0
 40
0
 40
0
 40
0
 40
0
 40
1
 40
1
 40
1
 40
1
 10
26.969528
 20
228.397988
 30
0.0
 10
26.950666
 20
228.503620
 30
0.0
 10
26.917656
 20
228.595106
 30
0.0
 10
26.870497
 20
228.672445
 30
0.0
  0
SPLINE
  5
2ab
100
AcDbEntity
  8
0
 62
7
100
AcDbSpline
 70
8
 71
3
 72
8
 73
4
 74
0
 40
0
 40
0
 40
0
 40
0
 40
1
 40
1
 40
1
 40
1
 10
26.870497
 20
228.672445
 30
0.0
 10
26.823341
 20
228.749783
 30
0.0
 10
26.760150
 20
228.810144
 30
0.0
 10
26.680923
 20
228.853529
 30
0.0
  0
SPLINE
  5
2ac
100
AcDbEntity
  8
0
 62
7
100
AcDbSpline
 70
8
 71
3
 72
8
 73
4
 74
0
 40
0
 40
0
 40
0
 40
0
 40
1
 40
1
 40
1
 40
1
 10
26.680923
 20
228.853529
 30
0.0
 10
26.603583
 20
228.896913
 30
0.0
 10
26.505495
 20
228.918606
 30
0.0
 10
26.386658
 20
228.918606
 30
0.0
  0
SPLINE
  5
2ad
100
AcDbEntity
  8
0
 62
7
100
AcDbSpline
 70
8
 71
3
 72
8
 73
4
 74
0
 40
0
 40
0
 40
0
 40
0
 40
1
 40
1
 40
1
 40
1
 10
26.386658
 20
228.918606
 30
0.0
 10
26.281026
 20
228.918606
 30
0.0
 10
26.188597
 20
228.898801
 30
0.0
 10
26.109372
 20
228.859191
 30
0.0
  0
SPLINE
  5
2ae
100
AcDbEntity
  8
0
 62
7
100
AcDbSpline
 70
8
 71
3
 72
8
 73
4
 74
0
 40
0
 40
0
 40
0
 40
0
 40
1
 40
1
 40
1
 40
1
 10
26.109372
 20
228.859191
 30
0.0
 10
26.030147
 20
228.821465
 30
0.0
 10
25.965069
 20
228.764876
 30
0.0
 10
25.914139
 20
228.689424
 30
0.0
  0
SPLINE
  5
2af
100
AcDbEntity
  8
0
 62
7
100
AcDbSpline
 70
8
 71
3
 72
8
 73
4
 74
0
 40
0
 40
0
 40
0
 40
0
 40
1
 40
1
 40
1
 40
1
 10
25.914139
 20
228.689424
 30
0.0
 10
25.863207
 20
228.615857
 30
0.0
 10
25.824537
 20
228.526257
 30
0.0
 10
25.798129
 20
228.420623
 30
0.0
  0
SPLINE
  5
2b0
100
AcDbEntity
  8
0
 62
7
100
AcDbSpline
 70
8
 71
3
 72
8
 73
4
 74
0
 40
0
 40
0
 40
0
 40
0
 40
1
 40
1
 40
1
 40
1
 10
25.798129
 20
228.420623
 30
0.0
 10
25.773608
 20
228.316876
 30
0.0
 10
25.761348
 20
228.198040
 30
0.0
 10
25.761348
 20
228.064113
 30
0.0
  0
SPLINE
  5
2b1
100
AcDbEntity
  8
0
 62
7
100
AcDbSpline
 70
8
 71
3
 72
8
 73
4
 74
0
 40
0
 40
0
 40
0
 40
0
 40
1
 40
1
 40
1
 40
1
 10
25.761348
 20
228.064113
 30
0.0
 10
25.761348
 20
227.939616
 30
0.0
 10
25.771722
 20
227.824550
 30
0.0
 10
25.792472
 20
227.718916
 30
0.0
  0
SPLINE
  5
2b2
100
AcDbEntity
  8
0
 62
7
100
AcDbSpline
 70
8
 71
3
 72
8
 73
4
 74
0
 40
0
 40
0
 40
0
 40
0
 40
1
 40
1
 40
1
 40
1
 10
25.792472
 20
227.718916
 30
0.0
 10
25.813221
 20
227.615170
 30
0.0
 10
25.846231
 20
227.524628
 30
0.0
 10
25.891503
 20
227.447290
 30
0.0
  0
SPLINE
  5
2b3
100
AcDbEntity
  8
0
 62
7
100
AcDbSpline
 70
8
 71
3
 72
8
 73
4
 74
0
 40
0
 40
0
 40
0
 40
0
 40
1
 40
1
 40
1
 40
1
 10
25.891503
 20
227.447290
 30
0.0
 10
25.938660
 20
227.369950
 30
0.0
 10
26.001852
 20
227.309588
 30
0.0
 10
26.081079
 20
227.266201
 30
0.0
  0
SPLINE
  5
2b4
100
AcDbEntity
  8
0
 62
7
100
AcDbSpline
 70
8
 71
3
 72
8
 73
4
 74
0
 40
0
 40
0
 40
0
 40
0
 40
1
 40
1
 40
1
 40
1
 10
26.081079
 20
227.266201
 30
0.0
 10
26.160303
 20
227.224706
 30
0.0
 10
26.258390
 20
227.203958
 30
0.0
 10
26.375342
 20
227.203958
 30
0.0
  0
SPLINE
  5
2b5
100
AcDbEntity
  8
0
 62
7
100
AcDbSpline
 70
8
 71
3
 72
8
 73
4
 74
0
 40
0
 40
0
 40
0
 40
0
 40
1
 40
1
 40
1
 40
1
 10
26.375342
 20
227.203958
 30
0.0
 10
26.482862
 20
227.203958
 30
0.0
 10
26.576233
 20
227.222820
 30
0.0
 10
26.655457
 20
227.260544
 30
0.0
  0
SPLINE
  5
2b6
100
AcDbEntity
  8
0
 62
7
100
AcDbSpline
 70
8
 71
3
 72
8
 73
4
 74
0
 40
0
 40
0
 40
0
 40
0
 40
1
 40
1
 40
1
 40
1
 10
26.655457
 20
227.260544
 30
0.0
 10
26.734683
 20
227.300156
 30
0.0
 10
26.799761
 20
227.356745
 30
0.0
 10
26.850690
 20
227.430312
 30
0.0
  0
SPLINE
  5
2b7
100
AcDbEntity
  8
0
 62
7
100
AcDbSpline
 70
8
 71
3
 72
8
 73
4
 74
0
 40
0
 40
0
 40
0
 40
0
 40
1
 40
1
 40
1
 40
1
 10
26.850690
 20
227.430312
 30
0.0
 10
26.901619
 20
227.503878
 30
0.0
 10
26.939346
 20
227.592535
 30
0.0
 10
26.963871
 20
227.696281
 30
0.0
  0
SPLINE
  5
2b8
100
AcDbEntity
  8
0
 62
7
100
AcDbSpline
 70
8
 71
3
 72
8
 73
4
 74
0
 40
0
 40
0
 40
0
 40
0
 40
1
 40
1
 40
1
 40
1
 10
26.963871
 20
227.696281
 30
0.0
 10
26.988392
 20
227.801915
 30
0.0
 10
27.000653
 20
227.921696
 30
0.0
 10
27.000653
 20
228.055625
 30
0.0
  0
LWPOLYLINE
  5
2b9
100
AcDbEntity
  8
0
 62
7
100
AcDbPolyline
 90
1
 70
1
 10
27.733485
 20
228.083917
 30
0.0
  0
SPLINE
  5
2ba
100
AcDbEntity
  8
0
 62
7
100
AcDbSpline
 70
8
 71
3
 72
8
 73
4
 74
0
 40
0
 40
0
 40
0
 40
0
 40
1
 40
1
 40
1
 40
1
 10
30.446935
 20
226.788025
 30
0.0
 10
30.446935
 20
226.761616
 30
0.0
 10
30.437504
 20
226.740867
 30
0.0
 10
30.418643
 20
226.725777
 30
0.0
  0
SPLINE
  5
2bb
100
AcDbEntity
  8
0
 62
7
100
AcDbSpline
 70
8
 71
3
 72
8
 73
4
 74
0
 40
0
 40
0
 40
0
 40
0
 40
1
 40
1
 40
1
 40
1
 10
30.418643
 20
226.725777
 30
0.0
 10
30.399780
 20
226.710678
 30
0.0
 10
30.369599
 20
226.700303
 30
0.0
 10
30.328100
 20
226.694654
 30
0.0
  0
SPLINE
  5
2bc
100
AcDbEntity
  8
0
 62
7
100
AcDbSpline
 70
8
 71
3
 72
8
 73
4
 74
0
 40
0
 40
0
 40
0
 40
0
 40
1
 40
1
 40
1
 40
1
 10
30.328100
 20
226.694654
 30
0.0
 10
30.288486
 20
226.687104
 30
0.0
 10
30.229067
 20
226.683330
 30
0.0
 10
30.149842
 20
226.683330
 30
0.0
  0
SPLINE
  5
2bd
100
AcDbEntity
  8
0
 62
7
100
AcDbSpline
 70
8
 71
3
 72
8
 73
4
 74
0
 40
0
 40
0
 40
0
 40
0
 40
1
 40
1
 40
1
 40
1
 10
30.149842
 20
226.683330
 30
0.0
 10
30.064959
 20
226.683330
 30
0.0
 10
30.002711
 20
226.687104
 30
0.0
 10
29.963099
 20
226.694654
 30
0.0
  0
SPLINE
  5
2be
100
AcDbEntity
  8
0
 62
7
100
AcDbSpline
 70
8
 71
3
 72
8
 73
4
 74
0
 40
0
 40
0
 40
0
 40
0
 40
1
 40
1
 40
1
 40
1
 10
29.963099
 20
226.694654
 30
0.0
 10
29.925373
 20
226.700316
 30
0.0
 10
29.898022
 20
226.710690
 30
0.0
 10
29.881044
 20
226.725777
 30
0.0
  0
SPLINE
  5
2bf
100
AcDbEntity
  8
0
 62
7
100
AcDbSpline
 70
8
 71
3
 72
8
 73
4
 74
0
 40
0
 40
0
 40
0
 40
0
 40
1
 40
1
 40
1
 40
1
 10
29.881044
 20
226.725777
 30
0.0
 10
29.865945
 20
226.740875
 30
0.0
 10
29.858396
 20
226.761625
 30
0.0
 10
29.858396
 20
226.788025
 30
0.0
  0
LWPOLYLINE
  5
2c0
100
AcDbEntity
  8
0
 62
7
100
AcDbPolyline
 90
1
 70
1
 10
27.000653
 20
228.055625
 30
0.0
  0
SPLINE
  5
2c1
100
AcDbEntity
  8
0
 62
7
100
AcDbSpline
 70
8
 71
3
 72
8
 73
4
 74
0
 40
0
 40
0
 40
0
 40
0
 40
1
 40
1
 40
1
 40
1
 10
29.858396
 20
226.988918
 30
0.0
 10
29.754651
 20
226.877625
 30
0.0
 10
29.635813
 20
226.790854
 30
0.0
 10
29.501883
 20
226.728605
 30
0.0
  0
SPLINE
  5
2c2
100
AcDbEntity
  8
0
 62
7
100
AcDbSpline
 70
8
 71
3
 72
8
 73
4
 74
0
 40
0
 40
0
 40
0
 40
0
 40
1
 40
1
 40
1
 40
1
 10
29.501883
 20
226.728605
 30
0.0
 10
29.369842
 20
226.666357
 30
0.0
 10
29.222711
 20
226.635234
 30
0.0
 10
29.060489
 20
226.635234
 30
0.0
  0
SPLINE
  5
2c3
100
AcDbEntity
  8
0
 62
7
100
AcDbSpline
 70
8
 71
3
 72
8
 73
4
 74
0
 40
0
 40
0
 40
0
 40
0
 40
1
 40
1
 40
1
 40
1
 10
29.060489
 20
226.635234
 30
0.0
 10
28.926561
 20
226.635234
 30
0.0
 10
28.803008
 20
226.653154
 30
0.0
 10
28.689829
 20
226.688994
 30
0.0
  0
SPLINE
  5
2c4
100
AcDbEntity
  8
0
 62
7
100
AcDbSpline
 70
8
 71
3
 72
8
 73
4
 74
0
 40
0
 40
0
 40
0
 40
0
 40
1
 40
1
 40
1
 40
1
 10
28.689829
 20
226.688994
 30
0.0
 10
28.578537
 20
226.722947
 30
0.0
 10
28.481392
 20
226.773878
 30
0.0
 10
28.398394
 20
226.841786
 30
0.0
  0
SPLINE
  5
2c5
100
AcDbEntity
  8
0
 62
7
100
AcDbSpline
 70
8
 71
3
 72
8
 73
4
 74
0
 40
0
 40
0
 40
0
 40
0
 40
1
 40
1
 40
1
 40
1
 10
28.398394
 20
226.841786
 30
0.0
 10
28.317285
 20
226.911579
 30
0.0
 10
28.254094
 20
226.997406
 30
0.0
 10
28.208822
 20
227.099265
 30
0.0
  0
SPLINE
  5
2c6
100
AcDbEntity
  8
0
 62
7
100
AcDbSpline
 70
8
 71
3
 72
8
 73
4
 74
0
 40
0
 40
0
 40
0
 40
0
 40
1
 40
1
 40
1
 40
1
 10
28.208822
 20
227.099265
 30
0.0
 10
28.163552
 20
227.201124
 30
0.0
 10
28.140917
 20
227.319962
 30
0.0
 10
28.140917
 20
227.455778
 30
0.0
  0
SPLINE
  5
2c7
100
AcDbEntity
  8
0
 62
7
100
AcDbSpline
 70
8
 71
3
 72
8
 73
4
 74
0
 40
0
 40
0
 40
0
 40
0
 40
1
 40
1
 40
1
 40
1
 10
28.140917
 20
227.455778
 30
0.0
 10
28.140917
 20
227.602909
 30
0.0
 10
28.169212
 20
227.730234
 30
0.0
 10
28.225801
 20
227.837754
 30
0.0
  0
SPLINE
  5
2c8
100
AcDbEntity
  8
0
 62
7
100
AcDbSpline
 70
8
 71
3
 72
8
 73
4
 74
0
 40
0
 40
0
 40
0
 40
0
 40
1
 40
1
 40
1
 40
1
 10
28.225801
 20
227.837754
 30
0.0
 10
28.284274
 20
227.947159
 30
0.0
 10
28.370100
 20
228.036759
 30
0.0
 10
28.483280
 20
228.106555
 30
0.0
  0
SPLINE
  5
2c9
100
AcDbEntity
  8
0
 62
7
100
AcDbSpline
 70
8
 71
3
 72
8
 73
4
 74
0
 40
0
 40
0
 40
0
 40
0
 40
1
 40
1
 40
1
 40
1
 10
28.483280
 20
228.106555
 30
0.0
 10
28.598342
 20
228.178234
 30
0.0
 10
28.740758
 20
228.231050
 30
0.0
 10
28.910529
 20
228.265003
 30
0.0
  0
SPLINE
  5
2ca
100
AcDbEntity
  8
0
 62
7
100
AcDbSpline
 70
8
 71
3
 72
8
 73
4
 74
0
 40
0
 40
0
 40
0
 40
0
 40
1
 40
1
 40
1
 40
1
 10
28.910529
 20
228.265003
 30
0.0
 10
29.080294
 20
228.298956
 30
0.0
 10
29.277412
 20
228.315933
 30
0.0
 10
29.501883
 20
228.315933
 30
0.0
  0
LWPOLYLINE
  5
2cb
100
AcDbEntity
  8
0
 62
7
100
AcDbPolyline
 90
2
 70
0
 10
29.858396
 20
226.788025
 30
0.0
 10
29.858396
 20
226.988918
 30
0.0
  0
SPLINE
  5
2cc
100
AcDbEntity
  8
0
 62
7
100
AcDbSpline
 70
8
 71
3
 72
8
 73
4
 74
0
 40
0
 40
0
 40
0
 40
0
 40
1
 40
1
 40
1
 40
1
 10
29.748046
 20
228.468724
 30
0.0
 10
29.748046
 20
228.547947
 30
0.0
 10
29.739562
 20
228.616797
 30
0.0
 10
29.722593
 20
228.675274
 30
0.0
  0
SPLINE
  5
2cd
100
AcDbEntity
  8
0
 62
7
100
AcDbSpline
 70
8
 71
3
 72
8
 73
4
 74
0
 40
0
 40
0
 40
0
 40
0
 40
1
 40
1
 40
1
 40
1
 10
29.722593
 20
228.675274
 30
0.0
 10
29.707512
 20
228.735636
 30
0.0
 10
29.681104
 20
228.785623
 30
0.0
 10
29.643369
 20
228.825234
 30
0.0
  0
SPLINE
  5
2ce
100
AcDbEntity
  8
0
 62
7
100
AcDbSpline
 70
8
 71
3
 72
8
 73
4
 74
0
 40
0
 40
0
 40
0
 40
0
 40
1
 40
1
 40
1
 40
1
 10
29.643369
 20
228.825234
 30
0.0
 10
29.607529
 20
228.864848
 30
0.0
 10
29.558484
 20
228.894086
 30
0.0
 10
29.496234
 20
228.912949
 30
0.0
  0
SPLINE
  5
2cf
100
AcDbEntity
  8
0
 62
7
100
AcDbSpline
 70
8
 71
3
 72
8
 73
4
 74
0
 40
0
 40
0
 40
0
 40
0
 40
1
 40
1
 40
1
 40
1
 10
29.496234
 20
228.912949
 30
0.0
 10
29.435874
 20
228.931814
 30
0.0
 10
29.360423
 20
228.941246
 30
0.0
 10
29.269881
 20
228.941246
 30
0.0
  0
SPLINE
  5
2d0
100
AcDbEntity
  8
0
 62
7
100
AcDbSpline
 70
8
 71
3
 72
8
 73
4
 74
0
 40
0
 40
0
 40
0
 40
0
 40
1
 40
1
 40
1
 40
1
 10
29.269881
 20
228.941246
 30
0.0
 10
29.151042
 20
228.941246
 30
0.0
 10
29.044465
 20
228.928041
 30
0.0
 10
28.950150
 20
228.901630
 30
0.0
  0
SPLINE
  5
2d1
100
AcDbEntity
  8
0
 62
7
100
AcDbSpline
 70
8
 71
3
 72
8
 73
4
 74
0
 40
0
 40
0
 40
0
 40
0
 40
1
 40
1
 40
1
 40
1
 10
28.950150
 20
228.901630
 30
0.0
 10
28.857721
 20
228.875223
 30
0.0
 10
28.775666
 20
228.845985
 30
0.0
 10
28.703987
 20
228.813918
 30
0.0
  0
SPLINE
  5
2d2
100
AcDbEntity
  8
0
 62
7
100
AcDbSpline
 70
8
 71
3
 72
8
 73
4
 74
0
 40
0
 40
0
 40
0
 40
0
 40
1
 40
1
 40
1
 40
1
 10
28.703987
 20
228.813918
 30
0.0
 10
28.632308
 20
228.781850
 30
0.0
 10
28.571946
 20
228.752613
 30
0.0
 10
28.522901
 20
228.726206
 30
0.0
  0
SPLINE
  5
2d3
100
AcDbEntity
  8
0
 62
7
100
AcDbSpline
 70
8
 71
3
 72
8
 73
4
 74
0
 40
0
 40
0
 40
0
 40
0
 40
1
 40
1
 40
1
 40
1
 10
28.522901
 20
228.726206
 30
0.0
 10
28.475744
 20
228.699797
 30
0.0
 10
28.437074
 20
228.686593
 30
0.0
 10
28.406892
 20
228.686593
 30
0.0
  0
SPLINE
  5
2d4
100
AcDbEntity
  8
0
 62
7
100
AcDbSpline
 70
8
 71
3
 72
8
 73
4
 74
0
 40
0
 40
0
 40
0
 40
0
 40
1
 40
1
 40
1
 40
1
 10
28.406892
 20
228.686593
 30
0.0
 10
28.386143
 20
228.686593
 30
0.0
 10
28.367280
 20
228.693190
 30
0.0
 10
28.350303
 20
228.706383
 30
0.0
  0
SPLINE
  5
2d5
100
AcDbEntity
  8
0
 62
7
100
AcDbSpline
 70
8
 71
3
 72
8
 73
4
 74
0
 40
0
 40
0
 40
0
 40
0
 40
1
 40
1
 40
1
 40
1
 10
28.350303
 20
228.706383
 30
0.0
 10
28.335222
 20
228.719595
 30
0.0
 10
28.322018
 20
228.738459
 30
0.0
 10
28.310692
 20
228.762975
 30
0.0
  0
SPLINE
  5
2d6
100
AcDbEntity
  8
0
 62
7
100
AcDbSpline
 70
8
 71
3
 72
8
 73
4
 74
0
 40
0
 40
0
 40
0
 40
0
 40
1
 40
1
 40
1
 40
1
 10
28.310692
 20
228.762975
 30
0.0
 10
28.301255
 20
228.787495
 30
0.0
 10
28.293706
 20
228.817676
 30
0.0
 10
28.288044
 20
228.853518
 30
0.0
  0
SPLINE
  5
2d7
100
AcDbEntity
  8
0
 62
7
100
AcDbSpline
 70
8
 71
3
 72
8
 73
4
 74
0
 40
0
 40
0
 40
0
 40
0
 40
1
 40
1
 40
1
 40
1
 10
28.288044
 20
228.853518
 30
0.0
 10
28.282382
 20
228.889357
 30
0.0
 10
28.279551
 20
228.928969
 30
0.0
 10
28.279551
 20
228.972356
 30
0.0
  0
SPLINE
  5
2d8
100
AcDbEntity
  8
0
 62
7
100
AcDbSpline
 70
8
 71
3
 72
8
 73
4
 74
0
 40
0
 40
0
 40
0
 40
0
 40
1
 40
1
 40
1
 40
1
 10
28.279551
 20
228.972356
 30
0.0
 10
28.279551
 20
229.030829
 30
0.0
 10
28.284269
 20
229.077043
 30
0.0
 10
28.293706
 20
229.111000
 30
0.0
  0
SPLINE
  5
2d9
100
AcDbEntity
  8
0
 62
7
100
AcDbSpline
 70
8
 71
3
 72
8
 73
4
 74
0
 40
0
 40
0
 40
0
 40
0
 40
1
 40
1
 40
1
 40
1
 10
28.293706
 20
229.111000
 30
0.0
 10
28.303143
 20
229.144951
 30
0.0
 10
28.321062
 20
229.175131
 30
0.0
 10
28.347464
 20
229.201540
 30
0.0
  0
SPLINE
  5
2da
100
AcDbEntity
  8
0
 62
7
100
AcDbSpline
 70
8
 71
3
 72
8
 73
4
 74
0
 40
0
 40
0
 40
0
 40
0
 40
1
 40
1
 40
1
 40
1
 10
28.347464
 20
229.201540
 30
0.0
 10
28.373873
 20
229.229833
 30
0.0
 10
28.420088
 20
229.260014
 30
0.0
 10
28.486108
 20
229.292083
 30
0.0
  0
SPLINE
  5
2db
100
AcDbEntity
  8
0
 62
7
100
AcDbSpline
 70
8
 71
3
 72
8
 73
4
 74
0
 40
0
 40
0
 40
0
 40
0
 40
1
 40
1
 40
1
 40
1
 10
28.486108
 20
229.292083
 30
0.0
 10
28.552129
 20
229.326038
 30
0.0
 10
28.629467
 20
229.357162
 30
0.0
 10
28.718124
 20
229.385455
 30
0.0
  0
SPLINE
  5
2dc
100
AcDbEntity
  8
0
 62
7
100
AcDbSpline
 70
8
 71
3
 72
8
 73
4
 74
0
 40
0
 40
0
 40
0
 40
0
 40
1
 40
1
 40
1
 40
1
 10
28.718124
 20
229.385455
 30
0.0
 10
28.806781
 20
229.413749
 30
0.0
 10
28.902982
 20
229.436385
 30
0.0
 10
29.006729
 20
229.453363
 30
0.0
  0
SPLINE
  5
2dd
100
AcDbEntity
  8
0
 62
7
100
AcDbSpline
 70
8
 71
3
 72
8
 73
4
 74
0
 40
0
 40
0
 40
0
 40
0
 40
1
 40
1
 40
1
 40
1
 10
29.006729
 20
229.453363
 30
0.0
 10
29.112361
 20
229.472226
 30
0.0
 10
29.220823
 20
229.481657
 30
0.0
 10
29.332116
 20
229.481657
 30
0.0
  0
SPLINE
  5
2de
100
AcDbEntity
  8
0
 62
7
100
AcDbSpline
 70
8
 71
3
 72
8
 73
4
 74
0
 40
0
 40
0
 40
0
 40
0
 40
1
 40
1
 40
1
 40
1
 10
29.332116
 20
229.481657
 30
0.0
 10
29.530179
 20
229.481657
 30
0.0
 10
29.699004
 20
229.461852
 30
0.0
 10
29.838589
 20
229.422240
 30
0.0
  0
SPLINE
  5
2df
100
AcDbEntity
  8
0
 62
7
100
AcDbSpline
 70
8
 71
3
 72
8
 73
4
 74
0
 40
0
 40
0
 40
0
 40
0
 40
1
 40
1
 40
1
 40
1
 10
29.838589
 20
229.422240
 30
0.0
 10
29.980064
 20
229.384512
 30
0.0
 10
30.096072
 20
229.325092
 30
0.0
 10
30.186614
 20
229.243980
 30
0.0
  0
SPLINE
  5
2e0
100
AcDbEntity
  8
0
 62
7
100
AcDbSpline
 70
8
 71
3
 72
8
 73
4
 74
0
 40
0
 40
0
 40
0
 40
0
 40
1
 40
1
 40
1
 40
1
 10
30.186614
 20
229.243980
 30
0.0
 10
30.277156
 20
229.164756
 30
0.0
 10
30.343177
 20
229.061954
 30
0.0
 10
30.384676
 20
228.935573
 30
0.0
  0
SPLINE
  5
2e1
100
AcDbEntity
  8
0
 62
7
100
AcDbSpline
 70
8
 71
3
 72
8
 73
4
 74
0
 40
0
 40
0
 40
0
 40
0
 40
1
 40
1
 40
1
 40
1
 10
30.384676
 20
228.935573
 30
0.0
 10
30.426175
 20
228.809189
 30
0.0
 10
30.446924
 20
228.659227
 30
0.0
 10
30.446924
 20
228.485687
 30
0.0
  0
LWPOLYLINE
  5
2e2
100
AcDbEntity
  8
0
 62
7
100
AcDbPolyline
 90
3
 70
0
 10
29.501883
 20
228.315933
 30
0.0
 10
29.748046
 20
228.315933
 30
0.0
 10
29.748046
 20
228.468724
 30
0.0
  0
LWPOLYLINE
  5
2e3
100
AcDbEntity
  8
0
 62
7
100
AcDbPolyline
 90
2
 70
0
 10
30.446924
 20
228.485687
 30
0.0
 10
30.446935
 20
226.788025
 30
0.0
  0
SPLINE
  5
2e4
100
AcDbEntity
  8
0
 62
7
100
AcDbSpline
 70
8
 71
3
 72
8
 73
4
 74
0
 40
0
 40
0
 40
0
 40
0
 40
1
 40
1
 40
1
 40
1
 10
29.476433
 20
227.868879
 30
0.0
 10
29.361367
 20
227.868879
 30
0.0
 10
29.263278
 20
227.860395
 30
0.0
 10
29.182166
 20
227.843427
 30
0.0
  0
SPLINE
  5
2e5
100
AcDbEntity
  8
0
 62
7
100
AcDbSpline
 70
8
 71
3
 72
8
 73
4
 74
0
 40
0
 40
0
 40
0
 40
0
 40
1
 40
1
 40
1
 40
1
 10
29.182166
 20
227.843427
 30
0.0
 10
29.101057
 20
227.826458
 30
0.0
 10
29.035037
 20
227.800993
 30
0.0
 10
28.984107
 20
227.767031
 30
0.0
  0
SPLINE
  5
2e6
100
AcDbEntity
  8
0
 62
7
100
AcDbSpline
 70
8
 71
3
 72
8
 73
4
 74
0
 40
0
 40
0
 40
0
 40
0
 40
1
 40
1
 40
1
 40
1
 10
28.984107
 20
227.767031
 30
0.0
 10
28.933175
 20
227.733078
 30
0.0
 10
28.895448
 20
227.691579
 30
0.0
 10
28.870926
 20
227.642534
 30
0.0
  0
SPLINE
  5
2e7
100
AcDbEntity
  8
0
 62
7
100
AcDbSpline
 70
8
 71
3
 72
8
 73
4
 74
0
 40
0
 40
0
 40
0
 40
0
 40
1
 40
1
 40
1
 40
1
 10
28.870926
 20
227.642534
 30
0.0
 10
28.848292
 20
227.595376
 30
0.0
 10
28.836975
 20
227.540674
 30
0.0
 10
28.836975
 20
227.478426
 30
0.0
  0
SPLINE
  5
2e8
100
AcDbEntity
  8
0
 62
7
100
AcDbSpline
 70
8
 71
3
 72
8
 73
4
 74
0
 40
0
 40
0
 40
0
 40
0
 40
1
 40
1
 40
1
 40
1
 10
28.836975
 20
227.478426
 30
0.0
 10
28.836975
 20
227.372792
 30
0.0
 10
28.869984
 20
227.289795
 30
0.0
 10
28.936003
 20
227.229435
 30
0.0
  0
SPLINE
  5
2e9
100
AcDbEntity
  8
0
 62
7
100
AcDbSpline
 70
8
 71
3
 72
8
 73
4
 74
0
 40
0
 40
0
 40
0
 40
0
 40
1
 40
1
 40
1
 40
1
 10
28.936003
 20
227.229435
 30
0.0
 10
29.003909
 20
227.169073
 30
0.0
 10
29.097282
 20
227.138892
 30
0.0
 10
29.216123
 20
227.138892
 30
0.0
  0
SPLINE
  5
2ea
100
AcDbEntity
  8
0
 62
7
100
AcDbSpline
 70
8
 71
3
 72
8
 73
4
 74
0
 40
0
 40
0
 40
0
 40
0
 40
1
 40
1
 40
1
 40
1
 10
29.216123
 20
227.138892
 30
0.0
 10
29.316096
 20
227.138892
 30
0.0
 10
29.407582
 20
227.164357
 30
0.0
 10
29.490580
 20
227.215287
 30
0.0
  0
SPLINE
  5
2eb
100
AcDbEntity
  8
0
 62
7
100
AcDbSpline
 70
8
 71
3
 72
8
 73
4
 74
0
 40
0
 40
0
 40
0
 40
0
 40
1
 40
1
 40
1
 40
1
 10
29.490580
 20
227.215287
 30
0.0
 10
29.575464
 20
227.266218
 30
0.0
 10
29.661290
 20
227.340727
 30
0.0
 10
29.748059
 20
227.438815
 30
0.0
  0
LWPOLYLINE
  5
2ec
100
AcDbEntity
  8
0
 62
7
100
AcDbPolyline
 90
2
 70
0
 10
29.748059
 20
227.868879
 30
0.0
 10
29.476433
 20
227.868879
 30
0.0
  0
SPLINE
  5
2ed
100
AcDbEntity
  8
0
 62
7
100
AcDbSpline
 70
8
 71
3
 72
8
 73
4
 74
0
 40
0
 40
0
 40
0
 40
0
 40
1
 40
1
 40
1
 40
1
 10
32.778411
 20
229.085544
 30
0.0
 10
32.778411
 20
229.017638
 30
0.0
 10
32.776523
 20
228.961992
 30
0.0
 10
32.772749
 20
228.918606
 30
0.0
  0
SPLINE
  5
2ee
100
AcDbEntity
  8
0
 62
7
100
AcDbSpline
 70
8
 71
3
 72
8
 73
4
 74
0
 40
0
 40
0
 40
0
 40
0
 40
1
 40
1
 40
1
 40
1
 10
32.772749
 20
228.918606
 30
0.0
 10
32.768992
 20
228.875221
 30
0.0
 10
32.763330
 20
228.841268
 30
0.0
 10
32.755762
 20
228.816746
 30
0.0
  0
SPLINE
  5
2ef
100
AcDbEntity
  8
0
 62
7
100
AcDbSpline
 70
8
 71
3
 72
8
 73
4
 74
0
 40
0
 40
0
 40
0
 40
0
 40
1
 40
1
 40
1
 40
1
 10
32.755762
 20
228.816746
 30
0.0
 10
32.748213
 20
228.792225
 30
0.0
 10
32.737839
 20
228.775248
 30
0.0
 10
32.724640
 20
228.765817
 30
0.0
  0
SPLINE
  5
2f0
100
AcDbEntity
  8
0
 62
7
100
AcDbSpline
 70
8
 71
3
 72
8
 73
4
 74
0
 40
0
 40
0
 40
0
 40
0
 40
1
 40
1
 40
1
 40
1
 10
32.724640
 20
228.765817
 30
0.0
 10
32.713315
 20
228.756380
 30
0.0
 10
32.698225
 20
228.751662
 30
0.0
 10
32.679369
 20
228.751662
 30
0.0
  0
SPLINE
  5
2f1
100
AcDbEntity
  8
0
 62
7
100
AcDbSpline
 70
8
 71
3
 72
8
 73
4
 74
0
 40
0
 40
0
 40
0
 40
0
 40
1
 40
1
 40
1
 40
1
 10
32.679369
 20
228.751662
 30
0.0
 10
32.664270
 20
228.751662
 30
0.0
 10
32.647294
 20
228.754493
 30
0.0
 10
32.628440
 20
228.760155
 30
0.0
  0
SPLINE
  5
2f2
100
AcDbEntity
  8
0
 62
7
100
AcDbSpline
 70
8
 71
3
 72
8
 73
4
 74
0
 40
0
 40
0
 40
0
 40
0
 40
1
 40
1
 40
1
 40
1
 10
32.628440
 20
228.760155
 30
0.0
 10
32.609575
 20
228.767704
 30
0.0
 10
32.587882
 20
228.775245
 30
0.0
 10
32.563360
 20
228.782777
 30
0.0
  0
SPLINE
  5
2f3
100
AcDbEntity
  8
0
 62
7
100
AcDbSpline
 70
8
 71
3
 72
8
 73
4
 74
0
 40
0
 40
0
 40
0
 40
0
 40
1
 40
1
 40
1
 40
1
 10
32.563360
 20
228.782777
 30
0.0
 10
32.540726
 20
228.790326
 30
0.0
 10
32.515262
 20
228.796932
 30
0.0
 10
32.486967
 20
228.802594
 30
0.0
  0
SPLINE
  5
2f4
100
AcDbEntity
  8
0
 62
7
100
AcDbSpline
 70
8
 71
3
 72
8
 73
4
 74
0
 40
0
 40
0
 40
0
 40
0
 40
1
 40
1
 40
1
 40
1
 10
32.486967
 20
228.802594
 30
0.0
 10
32.458672
 20
228.810143
 30
0.0
 10
32.427549
 20
228.813918
 30
0.0
 10
32.393596
 20
228.813918
 30
0.0
  0
SPLINE
  5
2f5
100
AcDbEntity
  8
0
 62
7
100
AcDbSpline
 70
8
 71
3
 72
8
 73
4
 74
0
 40
0
 40
0
 40
0
 40
0
 40
1
 40
1
 40
1
 40
1
 10
32.393596
 20
228.813918
 30
0.0
 10
32.353980
 20
228.813918
 30
0.0
 10
32.314367
 20
228.805434
 30
0.0
 10
32.274755
 20
228.788465
 30
0.0
  0
SPLINE
  5
2f6
100
AcDbEntity
  8
0
 62
7
100
AcDbSpline
 70
8
 71
3
 72
8
 73
4
 74
0
 40
0
 40
0
 40
0
 40
0
 40
1
 40
1
 40
1
 40
1
 10
32.274755
 20
228.788465
 30
0.0
 10
32.235144
 20
228.773366
 30
0.0
 10
32.193646
 20
228.748844
 30
0.0
 10
32.150261
 20
228.714898
 30
0.0
  0
SPLINE
  5
2f7
100
AcDbEntity
  8
0
 62
7
100
AcDbSpline
 70
8
 71
3
 72
8
 73
4
 74
0
 40
0
 40
0
 40
0
 40
0
 40
1
 40
1
 40
1
 40
1
 10
32.150261
 20
228.714898
 30
0.0
 10
32.108762
 20
228.680943
 30
0.0
 10
32.064433
 20
228.635671
 30
0.0
 10
32.017274
 20
228.579082
 30
0.0
  0
SPLINE
  5
2f8
100
AcDbEntity
  8
0
 62
7
100
AcDbSpline
 70
8
 71
3
 72
8
 73
4
 74
0
 40
0
 40
0
 40
0
 40
0
 40
1
 40
1
 40
1
 40
1
 10
32.017274
 20
228.579082
 30
0.0
 10
31.972005
 20
228.522493
 30
0.0
 10
31.922962
 20
228.452700
 30
0.0
 10
31.870144
 20
228.369704
 30
0.0
  0
LWPOLYLINE
  5
2f9
100
AcDbEntity
  8
0
 62
7
100
AcDbPolyline
 90
2
 70
0
 10
29.748059
 20
227.438815
 30
0.0
 10
29.748059
 20
227.868879
 30
0.0
  0
SPLINE
  5
2fa
100
AcDbEntity
  8
0
 62
7
100
AcDbSpline
 70
8
 71
3
 72
8
 73
4
 74
0
 40
0
 40
0
 40
0
 40
0
 40
1
 40
1
 40
1
 40
1
 10
31.870144
 20
226.796524
 30
0.0
 10
31.870144
 20
226.777659
 30
0.0
 10
31.864482
 20
226.760682
 30
0.0
 10
31.853158
 20
226.745594
 30
0.0
  0
SPLINE
  5
2fb
100
AcDbEntity
  8
0
 62
7
100
AcDbSpline
 70
8
 71
3
 72
8
 73
4
 74
0
 40
0
 40
0
 40
0
 40
0
 40
1
 40
1
 40
1
 40
1
 10
31.853158
 20
226.745594
 30
0.0
 10
31.841834
 20
226.732382
 30
0.0
 10
31.822027
 20
226.721064
 30
0.0
 10
31.793738
 20
226.711640
 30
0.0
  0
SPLINE
  5
2fc
100
AcDbEntity
  8
0
 62
7
100
AcDbSpline
 70
8
 71
3
 72
8
 73
4
 74
0
 40
0
 40
0
 40
0
 40
0
 40
1
 40
1
 40
1
 40
1
 10
31.793738
 20
226.711640
 30
0.0
 10
31.767329
 20
226.702203
 30
0.0
 10
31.731489
 20
226.695597
 30
0.0
 10
31.686219
 20
226.691823
 30
0.0
  0
SPLINE
  5
2fd
100
AcDbEntity
  8
0
 62
7
100
AcDbSpline
 70
8
 71
3
 72
8
 73
4
 74
0
 40
0
 40
0
 40
0
 40
0
 40
1
 40
1
 40
1
 40
1
 10
31.686219
 20
226.691823
 30
0.0
 10
31.640949
 20
226.686178
 30
0.0
 10
31.583416
 20
226.683356
 30
0.0
 10
31.513621
 20
226.683356
 30
0.0
  0
SPLINE
  5
2fe
100
AcDbEntity
  8
0
 62
7
100
AcDbSpline
 70
8
 71
3
 72
8
 73
4
 74
0
 40
0
 40
0
 40
0
 40
0
 40
1
 40
1
 40
1
 40
1
 10
31.513621
 20
226.683356
 30
0.0
 10
31.443827
 20
226.683356
 30
0.0
 10
31.386294
 20
226.686178
 30
0.0
 10
31.341023
 20
226.691823
 30
0.0
  0
SPLINE
  5
2ff
100
AcDbEntity
  8
0
 62
7
100
AcDbSpline
 70
8
 71
3
 72
8
 73
4
 74
0
 40
0
 40
0
 40
0
 40
0
 40
1
 40
1
 40
1
 40
1
 10
31.341023
 20
226.691823
 30
0.0
 10
31.295752
 20
226.695597
 30
0.0
 10
31.258970
 20
226.702203
 30
0.0
 10
31.230675
 20
226.711640
 30
0.0
  0
SPLINE
  5
300
100
AcDbEntity
  8
0
 62
7
100
AcDbSpline
 70
8
 71
3
 72
8
 73
4
 74
0
 40
0
 40
0
 40
0
 40
0
 40
1
 40
1
 40
1
 40
1
 10
31.230675
 20
226.711640
 30
0.0
 10
31.204268
 20
226.721077
 30
0.0
 10
31.185405
 20
226.732395
 30
0.0
 10
31.174086
 20
226.745594
 30
0.0
  0
SPLINE
  5
301
100
AcDbEntity
  8
0
 62
7
100
AcDbSpline
 70
8
 71
3
 72
8
 73
4
 74
0
 40
0
 40
0
 40
0
 40
0
 40
1
 40
1
 40
1
 40
1
 10
31.174086
 20
226.745594
 30
0.0
 10
31.162762
 20
226.760675
 30
0.0
 10
31.157100
 20
226.777652
 30
0.0
 10
31.157100
 20
226.796524
 30
0.0
  0
LWPOLYLINE
  5
302
100
AcDbEntity
  8
0
 62
7
100
AcDbPolyline
 90
2
 70
0
 10
31.870144
 20
228.369704
 30
0.0
 10
31.870144
 20
226.796524
 30
0.0
  0
SPLINE
  5
303
100
AcDbEntity
  8
0
 62
7
100
AcDbSpline
 70
8
 71
3
 72
8
 73
4
 74
0
 40
0
 40
0
 40
0
 40
0
 40
1
 40
1
 40
1
 40
1
 10
31.157100
 20
229.320399
 30
0.0
 10
31.157100
 20
229.339262
 30
0.0
 10
31.161819
 20
229.355296
 30
0.0
 10
31.171255
 20
229.368500
 30
0.0
  0
SPLINE
  5
304
100
AcDbEntity
  8
0
 62
7
100
AcDbSpline
 70
8
 71
3
 72
8
 73
4
 74
0
 40
0
 40
0
 40
0
 40
0
 40
1
 40
1
 40
1
 40
1
 10
31.171255
 20
229.368500
 30
0.0
 10
31.180692
 20
229.383599
 30
0.0
 10
31.197670
 20
229.395860
 30
0.0
 10
31.222188
 20
229.405283
 30
0.0
  0
SPLINE
  5
305
100
AcDbEntity
  8
0
 62
7
100
AcDbSpline
 70
8
 71
3
 72
8
 73
4
 74
0
 40
0
 40
0
 40
0
 40
0
 40
1
 40
1
 40
1
 40
1
 10
31.222188
 20
229.405283
 30
0.0
 10
31.246709
 20
229.414720
 30
0.0
 10
31.277834
 20
229.421325
 30
0.0
 10
31.315562
 20
229.425100
 30
0.0
  0
SPLINE
  5
306
100
AcDbEntity
  8
0
 62
7
100
AcDbSpline
 70
8
 71
3
 72
8
 73
4
 74
0
 40
0
 40
0
 40
0
 40
0
 40
1
 40
1
 40
1
 40
1
 10
31.315562
 20
229.425100
 30
0.0
 10
31.355175
 20
229.430762
 30
0.0
 10
31.404219
 20
229.433593
 30
0.0
 10
31.462694
 20
229.433593
 30
0.0
  0
SPLINE
  5
307
100
AcDbEntity
  8
0
 62
7
100
AcDbSpline
 70
8
 71
3
 72
8
 73
4
 74
0
 40
0
 40
0
 40
0
 40
0
 40
1
 40
1
 40
1
 40
1
 10
31.462694
 20
229.433593
 30
0.0
 10
31.523054
 20
229.433593
 30
0.0
 10
31.573042
 20
229.430762
 30
0.0
 10
31.612657
 20
229.425100
 30
0.0
  0
SPLINE
  5
308
100
AcDbEntity
  8
0
 62
7
100
AcDbSpline
 70
8
 71
3
 72
8
 73
4
 74
0
 40
0
 40
0
 40
0
 40
0
 40
1
 40
1
 40
1
 40
1
 10
31.612657
 20
229.425100
 30
0.0
 10
31.652265
 20
229.421325
 30
0.0
 10
31.682445
 20
229.414720
 30
0.0
 10
31.703197
 20
229.405283
 30
0.0
  0
SPLINE
  5
309
100
AcDbEntity
  8
0
 62
7
100
AcDbSpline
 70
8
 71
3
 72
8
 73
4
 74
0
 40
0
 40
0
 40
0
 40
0
 40
1
 40
1
 40
1
 40
1
 10
31.703197
 20
229.405283
 30
0.0
 10
31.725832
 20
229.395846
 30
0.0
 10
31.741865
 20
229.383585
 30
0.0
 10
31.751299
 20
229.368500
 30
0.0
  0
SPLINE
  5
30a
100
AcDbEntity
  8
0
 62
7
100
AcDbSpline
 70
8
 71
3
 72
8
 73
4
 74
0
 40
0
 40
0
 40
0
 40
0
 40
1
 40
1
 40
1
 40
1
 10
31.751299
 20
229.368500
 30
0.0
 10
31.760735
 20
229.355306
 30
0.0
 10
31.765454
 20
229.339273
 30
0.0
 10
31.765454
 20
229.320399
 30
0.0
  0
LWPOLYLINE
  5
30b
100
AcDbEntity
  8
0
 62
7
100
AcDbPolyline
 90
2
 70
0
 10
31.157100
 20
226.796524
 30
0.0
 10
31.157100
 20
229.320399
 30
0.0
  0
SPLINE
  5
30c
100
AcDbEntity
  8
0
 62
7
100
AcDbSpline
 70
8
 71
3
 72
8
 73
4
 74
0
 40
0
 40
0
 40
0
 40
0
 40
1
 40
1
 40
1
 40
1
 10
31.765454
 20
229.006328
 30
0.0
 10
31.831476
 20
229.100645
 30
0.0
 10
31.893725
 20
229.177984
 30
0.0
 10
31.952199
 20
229.238344
 30
0.0
  0
SPLINE
  5
30d
100
AcDbEntity
  8
0
 62
7
100
AcDbSpline
 70
8
 71
3
 72
8
 73
4
 74
0
 40
0
 40
0
 40
0
 40
0
 40
1
 40
1
 40
1
 40
1
 10
31.952199
 20
229.238344
 30
0.0
 10
32.010676
 20
229.300593
 30
0.0
 10
32.066322
 20
229.349638
 30
0.0
 10
32.119138
 20
229.385479
 30
0.0
  0
SPLINE
  5
30e
100
AcDbEntity
  8
0
 62
7
100
AcDbSpline
 70
8
 71
3
 72
8
 73
4
 74
0
 40
0
 40
0
 40
0
 40
0
 40
1
 40
1
 40
1
 40
1
 10
32.119138
 20
229.385479
 30
0.0
 10
32.171954
 20
229.421317
 30
0.0
 10
32.224770
 20
229.445839
 30
0.0
 10
32.277586
 20
229.459043
 30
0.0
  0
SPLINE
  5
30f
100
AcDbEntity
  8
0
 62
7
100
AcDbSpline
 70
8
 71
3
 72
8
 73
4
 74
0
 40
0
 40
0
 40
0
 40
0
 40
1
 40
1
 40
1
 40
1
 10
32.277586
 20
229.459043
 30
0.0
 10
32.330403
 20
229.474142
 30
0.0
 10
32.383220
 20
229.481692
 30
0.0
 10
32.436037
 20
229.481692
 30
0.0
  0
SPLINE
  5
310
100
AcDbEntity
  8
0
 62
7
100
AcDbSpline
 70
8
 71
3
 72
8
 73
4
 74
0
 40
0
 40
0
 40
0
 40
0
 40
1
 40
1
 40
1
 40
1
 10
32.436037
 20
229.481692
 30
0.0
 10
32.460559
 20
229.481692
 30
0.0
 10
32.486967
 20
229.479804
 30
0.0
 10
32.515262
 20
229.476030
 30
0.0
  0
SPLINE
  5
311
100
AcDbEntity
  8
0
 62
7
100
AcDbSpline
 70
8
 71
3
 72
8
 73
4
 74
0
 40
0
 40
0
 40
0
 40
0
 40
1
 40
1
 40
1
 40
1
 10
32.515262
 20
229.476030
 30
0.0
 10
32.543556
 20
229.474142
 30
0.0
 10
32.572793
 20
229.469424
 30
0.0
 10
32.602974
 20
229.461874
 30
0.0
  0
SPLINE
  5
312
100
AcDbEntity
  8
0
 62
7
100
AcDbSpline
 70
8
 71
3
 72
8
 73
4
 74
0
 40
0
 40
0
 40
0
 40
0
 40
1
 40
1
 40
1
 40
1
 10
32.602974
 20
229.461874
 30
0.0
 10
32.633155
 20
229.456212
 30
0.0
 10
32.659564
 20
229.448663
 30
0.0
 10
32.682198
 20
229.439226
 30
0.0
  0
SPLINE
  5
313
100
AcDbEntity
  8
0
 62
7
100
AcDbSpline
 70
8
 71
3
 72
8
 73
4
 74
0
 40
0
 40
0
 40
0
 40
0
 40
1
 40
1
 40
1
 40
1
 10
32.682198
 20
229.439226
 30
0.0
 10
32.704835
 20
229.431677
 30
0.0
 10
32.720870
 20
229.423192
 30
0.0
 10
32.730302
 20
229.413773
 30
0.0
  0
SPLINE
  5
314
100
AcDbEntity
  8
0
 62
7
100
AcDbSpline
 70
8
 71
3
 72
8
 73
4
 74
0
 40
0
 40
0
 40
0
 40
0
 40
1
 40
1
 40
1
 40
1
 10
32.730302
 20
229.413773
 30
0.0
 10
32.741626
 20
229.404336
 30
0.0
 10
32.749175
 20
229.393961
 30
0.0
 10
32.752950
 20
229.382648
 30
0.0
  0
SPLINE
  5
315
100
AcDbEntity
  8
0
 62
7
100
AcDbSpline
 70
8
 71
3
 72
8
 73
4
 74
0
 40
0
 40
0
 40
0
 40
0
 40
1
 40
1
 40
1
 40
1
 10
32.752950
 20
229.382648
 30
0.0
 10
32.758612
 20
229.371323
 30
0.0
 10
32.763330
 20
229.355291
 30
0.0
 10
32.767105
 20
229.334549
 30
0.0
  0
SPLINE
  5
316
100
AcDbEntity
  8
0
 62
7
100
AcDbSpline
 70
8
 71
3
 72
8
 73
4
 74
0
 40
0
 40
0
 40
0
 40
0
 40
1
 40
1
 40
1
 40
1
 10
32.767105
 20
229.334549
 30
0.0
 10
32.770862
 20
229.315686
 30
0.0
 10
32.773693
 20
229.286448
 30
0.0
 10
32.775598
 20
229.246834
 30
0.0
  0
SPLINE
  5
317
100
AcDbEntity
  8
0
 62
7
100
AcDbSpline
 70
8
 71
3
 72
8
 73
4
 74
0
 40
0
 40
0
 40
0
 40
0
 40
1
 40
1
 40
1
 40
1
 10
32.775598
 20
229.246834
 30
0.0
 10
32.777486
 20
229.207223
 30
0.0
 10
32.778429
 20
229.153464
 30
0.0
 10
32.778429
 20
229.085558
 30
0.0
  0
LWPOLYLINE
  5
318
100
AcDbEntity
  8
0
 62
7
100
AcDbPolyline
 90
2
 70
0
 10
31.765454
 20
229.320399
 30
0.0
 10
31.765454
 20
229.006328
 30
0.0
  0
SPLINE
  5
319
100
AcDbEntity
  8
0
 62
7
100
AcDbSpline
 70
8
 71
3
 72
8
 73
4
 74
0
 40
0
 40
0
 40
0
 40
0
 40
1
 40
1
 40
1
 40
1
 10
35.539962
 20
226.796516
 30
0.0
 10
35.539962
 20
226.775763
 30
0.0
 10
35.535243
 20
226.757842
 30
0.0
 10
35.525806
 20
226.742752
 30
0.0
  0
SPLINE
  5
31a
100
AcDbEntity
  8
0
 62
7
100
AcDbSpline
 70
8
 71
3
 72
8
 73
4
 74
0
 40
0
 40
0
 40
0
 40
0
 40
1
 40
1
 40
1
 40
1
 10
35.525806
 20
226.742752
 30
0.0
 10
35.516370
 20
226.729558
 30
0.0
 10
35.500337
 20
226.718241
 30
0.0
 10
35.477708
 20
226.708801
 30
0.0
  0
SPLINE
  5
31b
100
AcDbEntity
  8
0
 62
7
100
AcDbSpline
 70
8
 71
3
 72
8
 73
4
 74
0
 40
0
 40
0
 40
0
 40
0
 40
1
 40
1
 40
1
 40
1
 10
35.477708
 20
226.708801
 30
0.0
 10
35.455070
 20
226.699364
 30
0.0
 10
35.423946
 20
226.692767
 30
0.0
 10
35.384336
 20
226.689010
 30
0.0
  0
SPLINE
  5
31c
100
AcDbEntity
  8
0
 62
7
100
AcDbSpline
 70
8
 71
3
 72
8
 73
4
 74
0
 40
0
 40
0
 40
0
 40
0
 40
1
 40
1
 40
1
 40
1
 10
35.384336
 20
226.689010
 30
0.0
 10
35.346609
 20
226.685235
 30
0.0
 10
35.299450
 20
226.683348
 30
0.0
 10
35.242861
 20
226.683348
 30
0.0
  0
SPLINE
  5
31d
100
AcDbEntity
  8
0
 62
7
100
AcDbSpline
 70
8
 71
3
 72
8
 73
4
 74
0
 40
0
 40
0
 40
0
 40
0
 40
1
 40
1
 40
1
 40
1
 10
35.242861
 20
226.683348
 30
0.0
 10
35.182499
 20
226.683348
 30
0.0
 10
35.133455
 20
226.685235
 30
0.0
 10
35.095729
 20
226.689010
 30
0.0
  0
SPLINE
  5
31e
100
AcDbEntity
  8
0
 62
7
100
AcDbSpline
 70
8
 71
3
 72
8
 73
4
 74
0
 40
0
 40
0
 40
0
 40
0
 40
1
 40
1
 40
1
 40
1
 10
35.095729
 20
226.689010
 30
0.0
 10
35.058003
 20
226.692785
 30
0.0
 10
35.026879
 20
226.699382
 30
0.0
 10
35.002357
 20
226.708801
 30
0.0
  0
SPLINE
  5
31f
100
AcDbEntity
  8
0
 62
7
100
AcDbSpline
 70
8
 71
3
 72
8
 73
4
 74
0
 40
0
 40
0
 40
0
 40
0
 40
1
 40
1
 40
1
 40
1
 10
35.002357
 20
226.708801
 30
0.0
 10
34.979721
 20
226.718238
 30
0.0
 10
34.962745
 20
226.729555
 30
0.0
 10
34.951428
 20
226.742752
 30
0.0
  0
SPLINE
  5
320
100
AcDbEntity
  8
0
 62
7
100
AcDbSpline
 70
8
 71
3
 72
8
 73
4
 74
0
 40
0
 40
0
 40
0
 40
0
 40
1
 40
1
 40
1
 40
1
 10
34.951428
 20
226.742752
 30
0.0
 10
34.941991
 20
226.757851
 30
0.0
 10
34.937273
 20
226.775772
 30
0.0
 10
34.937273
 20
226.796516
 30
0.0
  0
LWPOLYLINE
  5
321
100
AcDbEntity
  8
0
 62
7
100
AcDbPolyline
 90
1
 70
1
 10
32.778429
 20
229.085558
 30
0.0
  0
SPLINE
  5
322
100
AcDbEntity
  8
0
 62
7
100
AcDbSpline
 70
8
 71
3
 72
8
 73
4
 74
0
 40
0
 40
0
 40
0
 40
0
 40
1
 40
1
 40
1
 40
1
 10
34.937273
 20
227.076627
 30
0.0
 10
34.807115
 20
226.937044
 30
0.0
 10
34.670357
 20
226.828582
 30
0.0
 10
34.526999
 20
226.751243
 30
0.0
  0
SPLINE
  5
323
100
AcDbEntity
  8
0
 62
7
100
AcDbSpline
 70
8
 71
3
 72
8
 73
4
 74
0
 40
0
 40
0
 40
0
 40
0
 40
1
 40
1
 40
1
 40
1
 10
34.526999
 20
226.751243
 30
0.0
 10
34.385525
 20
226.673903
 30
0.0
 10
34.228018
 20
226.635234
 30
0.0
 10
34.054480
 20
226.635234
 30
0.0
  0
SPLINE
  5
324
100
AcDbEntity
  8
0
 62
7
100
AcDbSpline
 70
8
 71
3
 72
8
 73
4
 74
0
 40
0
 40
0
 40
0
 40
0
 40
1
 40
1
 40
1
 40
1
 10
34.054480
 20
226.635234
 30
0.0
 10
33.862075
 20
226.635234
 30
0.0
 10
33.698909
 20
226.672016
 30
0.0
 10
33.564982
 20
226.745581
 30
0.0
  0
SPLINE
  5
325
100
AcDbEntity
  8
0
 62
7
100
AcDbSpline
 70
8
 71
3
 72
8
 73
4
 74
0
 40
0
 40
0
 40
0
 40
0
 40
1
 40
1
 40
1
 40
1
 10
33.564982
 20
226.745581
 30
0.0
 10
33.432940
 20
226.821035
 30
0.0
 10
33.324477
 20
226.921953
 30
0.0
 10
33.239595
 20
227.048335
 30
0.0
  0
SPLINE
  5
326
100
AcDbEntity
  8
0
 62
7
100
AcDbSpline
 70
8
 71
3
 72
8
 73
4
 74
0
 40
0
 40
0
 40
0
 40
0
 40
1
 40
1
 40
1
 40
1
 10
33.239595
 20
227.048335
 30
0.0
 10
33.156597
 20
227.174718
 30
0.0
 10
33.096235
 20
227.321850
 30
0.0
 10
33.058509
 20
227.489732
 30
0.0
  0
SPLINE
  5
327
100
AcDbEntity
  8
0
 62
7
100
AcDbSpline
 70
8
 71
3
 72
8
 73
4
 74
0
 40
0
 40
0
 40
0
 40
0
 40
1
 40
1
 40
1
 40
1
 10
33.058509
 20
227.489732
 30
0.0
 10
33.020781
 20
227.659497
 30
0.0
 10
33.001917
 20
227.837753
 30
0.0
 10
33.001917
 20
228.024499
 30
0.0
  0
SPLINE
  5
328
100
AcDbEntity
  8
0
 62
7
100
AcDbSpline
 70
8
 71
3
 72
8
 73
4
 74
0
 40
0
 40
0
 40
0
 40
0
 40
1
 40
1
 40
1
 40
1
 10
33.001917
 20
228.024499
 30
0.0
 10
33.001917
 20
228.248970
 30
0.0
 10
33.025496
 20
228.450805
 30
0.0
 10
33.072654
 20
228.630004
 30
0.0
  0
SPLINE
  5
329
100
AcDbEntity
  8
0
 62
7
100
AcDbSpline
 70
8
 71
3
 72
8
 73
4
 74
0
 40
0
 40
0
 40
0
 40
0
 40
1
 40
1
 40
1
 40
1
 10
33.072654
 20
228.630004
 30
0.0
 10
33.121699
 20
228.809202
 30
0.0
 10
33.192436
 20
228.961993
 30
0.0
 10
33.284865
 20
229.088375
 30
0.0
  0
SPLINE
  5
32a
100
AcDbEntity
  8
0
 62
7
100
AcDbSpline
 70
8
 71
3
 72
8
 73
4
 74
0
 40
0
 40
0
 40
0
 40
0
 40
1
 40
1
 40
1
 40
1
 10
33.284865
 20
229.088375
 30
0.0
 10
33.377293
 20
229.214758
 30
0.0
 10
33.492358
 20
229.311903
 30
0.0
 10
33.630059
 20
229.379811
 30
0.0
  0
SPLINE
  5
32b
100
AcDbEntity
  8
0
 62
7
100
AcDbSpline
 70
8
 71
3
 72
8
 73
4
 74
0
 40
0
 40
0
 40
0
 40
0
 40
1
 40
1
 40
1
 40
1
 10
33.630059
 20
229.379811
 30
0.0
 10
33.767759
 20
229.447717
 30
0.0
 10
33.926209
 20
229.481671
 30
0.0
 10
34.105410
 20
229.481671
 30
0.0
  0
SPLINE
  5
32c
100
AcDbEntity
  8
0
 62
7
100
AcDbSpline
 70
8
 71
3
 72
8
 73
4
 74
0
 40
0
 40
0
 40
0
 40
0
 40
1
 40
1
 40
1
 40
1
 10
34.105410
 20
229.481671
 30
0.0
 10
34.246882
 20
229.481671
 30
0.0
 10
34.375150
 20
229.452433
 30
0.0
 10
34.490214
 20
229.393959
 30
0.0
  0
SPLINE
  5
32d
100
AcDbEntity
  8
0
 62
7
100
AcDbSpline
 70
8
 71
3
 72
8
 73
4
 74
0
 40
0
 40
0
 40
0
 40
0
 40
1
 40
1
 40
1
 40
1
 10
34.490214
 20
229.393959
 30
0.0
 10
34.605278
 20
229.337368
 30
0.0
 10
34.719399
 20
229.253427
 30
0.0
 10
34.832577
 20
229.142136
 30
0.0
  0
LWPOLYLINE
  5
32e
100
AcDbEntity
  8
0
 62
7
100
AcDbPolyline
 90
2
 70
0
 10
34.937273
 20
226.796516
 30
0.0
 10
34.937273
 20
227.076627
 30
0.0
  0
SPLINE
  5
32f
100
AcDbEntity
  8
0
 62
7
100
AcDbSpline
 70
8
 71
3
 72
8
 73
4
 74
0
 40
0
 40
0
 40
0
 40
0
 40
1
 40
1
 40
1
 40
1
 10
34.832577
 20
230.508764
 30
0.0
 10
34.832577
 20
230.527627
 30
0.0
 10
34.837295
 20
230.544604
 30
0.0
 10
34.846732
 20
230.559694
 30
0.0
  0
SPLINE
  5
330
100
AcDbEntity
  8
0
 62
7
100
AcDbSpline
 70
8
 71
3
 72
8
 73
4
 74
0
 40
0
 40
0
 40
0
 40
0
 40
1
 40
1
 40
1
 40
1
 10
34.846732
 20
230.559694
 30
0.0
 10
34.858056
 20
230.574793
 30
0.0
 10
34.876919
 20
230.587054
 30
0.0
 10
34.903321
 20
230.596476
 30
0.0
  0
SPLINE
  5
331
100
AcDbEntity
  8
0
 62
7
100
AcDbSpline
 70
8
 71
3
 72
8
 73
4
 74
0
 40
0
 40
0
 40
0
 40
0
 40
1
 40
1
 40
1
 40
1
 10
34.903321
 20
230.596476
 30
0.0
 10
34.931618
 20
230.607800
 30
0.0
 10
34.968401
 20
230.616285
 30
0.0
 10
35.013671
 20
230.621929
 30
0.0
  0
SPLINE
  5
332
100
AcDbEntity
  8
0
 62
7
100
AcDbSpline
 70
8
 71
3
 72
8
 73
4
 74
0
 40
0
 40
0
 40
0
 40
0
 40
1
 40
1
 40
1
 40
1
 10
35.013671
 20
230.621929
 30
0.0
 10
35.058943
 20
230.627591
 30
0.0
 10
35.116475
 20
230.630422
 30
0.0
 10
35.186267
 20
230.630422
 30
0.0
  0
SPLINE
  5
333
100
AcDbEntity
  8
0
 62
7
100
AcDbSpline
 70
8
 71
3
 72
8
 73
4
 74
0
 40
0
 40
0
 40
0
 40
0
 40
1
 40
1
 40
1
 40
1
 10
35.186267
 20
230.630422
 30
0.0
 10
35.256060
 20
230.630422
 30
0.0
 10
35.313594
 20
230.627591
 30
0.0
 10
35.358868
 20
230.621929
 30
0.0
  0
SPLINE
  5
334
100
AcDbEntity
  8
0
 62
7
100
AcDbSpline
 70
8
 71
3
 72
8
 73
4
 74
0
 40
0
 40
0
 40
0
 40
0
 40
1
 40
1
 40
1
 40
1
 10
35.358868
 20
230.621929
 30
0.0
 10
35.404138
 20
230.616267
 30
0.0
 10
35.439976
 20
230.607783
 30
0.0
 10
35.466384
 20
230.596476
 30
0.0
  0
SPLINE
  5
335
100
AcDbEntity
  8
0
 62
7
100
AcDbSpline
 70
8
 71
3
 72
8
 73
4
 74
0
 40
0
 40
0
 40
0
 40
0
 40
1
 40
1
 40
1
 40
1
 10
35.466384
 20
230.596476
 30
0.0
 10
35.492791
 20
230.587039
 30
0.0
 10
35.511654
 20
230.574779
 30
0.0
 10
35.522973
 20
230.559694
 30
0.0
  0
SPLINE
  5
336
100
AcDbEntity
  8
0
 62
7
100
AcDbSpline
 70
8
 71
3
 72
8
 73
4
 74
0
 40
0
 40
0
 40
0
 40
0
 40
1
 40
1
 40
1
 40
1
 10
35.522973
 20
230.559694
 30
0.0
 10
35.534297
 20
230.544595
 30
0.0
 10
35.539959
 20
230.527618
 30
0.0
 10
35.539959
 20
230.508764
 30
0.0
  0
LWPOLYLINE
  5
337
100
AcDbEntity
  8
0
 62
7
100
AcDbPolyline
 90
2
 70
0
 10
34.832577
 20
229.142136
 30
0.0
 10
34.832577
 20
230.508764
 30
0.0
  0
SPLINE
  5
338
100
AcDbEntity
  8
0
 62
7
100
AcDbSpline
 70
8
 71
3
 72
8
 73
4
 74
0
 40
0
 40
0
 40
0
 40
0
 40
1
 40
1
 40
1
 40
1
 10
34.832601
 20
228.482871
 30
0.0
 10
34.730738
 20
228.611140
 30
0.0
 10
34.632649
 20
228.709229
 30
0.0
 10
34.538334
 20
228.777138
 30
0.0
  0
SPLINE
  5
339
100
AcDbEntity
  8
0
 62
7
100
AcDbSpline
 70
8
 71
3
 72
8
 73
4
 74
0
 40
0
 40
0
 40
0
 40
0
 40
1
 40
1
 40
1
 40
1
 10
34.538334
 20
228.777138
 30
0.0
 10
34.445906
 20
228.845044
 30
0.0
 10
34.348762
 20
228.878998
 30
0.0
 10
34.246901
 20
228.878998
 30
0.0
  0
SPLINE
  5
33a
100
AcDbEntity
  8
0
 62
7
100
AcDbSpline
 70
8
 71
3
 72
8
 73
4
 74
0
 40
0
 40
0
 40
0
 40
0
 40
1
 40
1
 40
1
 40
1
 10
34.246901
 20
228.878998
 30
0.0
 10
34.154471
 20
228.878998
 30
0.0
 10
34.074303
 20
228.855418
 30
0.0
 10
34.006397
 20
228.808259
 30
0.0
  0
SPLINE
  5
33b
100
AcDbEntity
  8
0
 62
7
100
AcDbSpline
 70
8
 71
3
 72
8
 73
4
 74
0
 40
0
 40
0
 40
0
 40
0
 40
1
 40
1
 40
1
 40
1
 10
34.006397
 20
228.808259
 30
0.0
 10
33.940378
 20
228.762988
 30
0.0
 10
33.886619
 20
228.701684
 30
0.0
 10
33.845118
 20
228.624344
 30
0.0
  0
SPLINE
  5
33c
100
AcDbEntity
  8
0
 62
7
100
AcDbSpline
 70
8
 71
3
 72
8
 73
4
 74
0
 40
0
 40
0
 40
0
 40
0
 40
1
 40
1
 40
1
 40
1
 10
33.845118
 20
228.624344
 30
0.0
 10
33.805504
 20
228.547006
 30
0.0
 10
33.775323
 20
228.460236
 30
0.0
 10
33.754575
 20
228.364034
 30
0.0
  0
SPLINE
  5
33d
100
AcDbEntity
  8
0
 62
7
100
AcDbSpline
 70
8
 71
3
 72
8
 73
4
 74
0
 40
0
 40
0
 40
0
 40
0
 40
1
 40
1
 40
1
 40
1
 10
33.754575
 20
228.364034
 30
0.0
 10
33.735712
 20
228.269719
 30
0.0
 10
33.726280
 20
228.172574
 30
0.0
 10
33.726280
 20
228.072601
 30
0.0
  0
SPLINE
  5
33e
100
AcDbEntity
  8
0
 62
7
100
AcDbSpline
 70
8
 71
3
 72
8
 73
4
 74
0
 40
0
 40
0
 40
0
 40
0
 40
1
 40
1
 40
1
 40
1
 10
33.726280
 20
228.072601
 30
0.0
 10
33.726280
 20
227.966967
 30
0.0
 10
33.734765
 20
227.864162
 30
0.0
 10
33.751733
 20
227.764187
 30
0.0
  0
SPLINE
  5
33f
100
AcDbEntity
  8
0
 62
7
100
AcDbSpline
 70
8
 71
3
 72
8
 73
4
 74
0
 40
0
 40
0
 40
0
 40
0
 40
1
 40
1
 40
1
 40
1
 10
33.751733
 20
227.764187
 30
0.0
 10
33.768702
 20
227.664213
 30
0.0
 10
33.796053
 20
227.574613
 30
0.0
 10
33.833786
 20
227.495388
 30
0.0
  0
SPLINE
  5
340
100
AcDbEntity
  8
0
 62
7
100
AcDbSpline
 70
8
 71
3
 72
8
 73
4
 74
0
 40
0
 40
0
 40
0
 40
0
 40
1
 40
1
 40
1
 40
1
 10
33.833786
 20
227.495388
 30
0.0
 10
33.873399
 20
227.418053
 30
0.0
 10
33.925273
 20
227.355805
 30
0.0
 10
33.989408
 20
227.308646
 30
0.0
  0
SPLINE
  5
341
100
AcDbEntity
  8
0
 62
7
100
AcDbSpline
 70
8
 71
3
 72
8
 73
4
 74
0
 40
0
 40
0
 40
0
 40
0
 40
1
 40
1
 40
1
 40
1
 10
33.989408
 20
227.308646
 30
0.0
 10
34.053542
 20
227.261488
 30
0.0
 10
34.134652
 20
227.237909
 30
0.0
 10
34.232740
 20
227.237909
 30
0.0
  0
SPLINE
  5
342
100
AcDbEntity
  8
0
 62
7
100
AcDbSpline
 70
8
 71
3
 72
8
 73
4
 74
0
 40
0
 40
0
 40
0
 40
0
 40
1
 40
1
 40
1
 40
1
 10
34.232740
 20
227.237909
 30
0.0
 10
34.281785
 20
227.237909
 30
0.0
 10
34.328943
 20
227.244506
 30
0.0
 10
34.374213
 20
227.257700
 30
0.0
  0
SPLINE
  5
343
100
AcDbEntity
  8
0
 62
7
100
AcDbSpline
 70
8
 71
3
 72
8
 73
4
 74
0
 40
0
 40
0
 40
0
 40
0
 40
1
 40
1
 40
1
 40
1
 10
34.374213
 20
227.257700
 30
0.0
 10
34.421371
 20
227.272799
 30
0.0
 10
34.468528
 20
227.296377
 30
0.0
 10
34.515686
 20
227.328434
 30
0.0
  0
SPLINE
  5
344
100
AcDbEntity
  8
0
 62
7
100
AcDbSpline
 70
8
 71
3
 72
8
 73
4
 74
0
 40
0
 40
0
 40
0
 40
0
 40
1
 40
1
 40
1
 40
1
 10
34.515686
 20
227.328434
 30
0.0
 10
34.564731
 20
227.360501
 30
0.0
 10
34.614719
 20
227.402000
 30
0.0
 10
34.665651
 20
227.452931
 30
0.0
  0
SPLINE
  5
345
100
AcDbEntity
  8
0
 62
7
100
AcDbSpline
 70
8
 71
3
 72
8
 73
4
 74
0
 40
0
 40
0
 40
0
 40
0
 40
1
 40
1
 40
1
 40
1
 10
34.665651
 20
227.452931
 30
0.0
 10
34.716580
 20
227.505747
 30
0.0
 10
34.772226
 20
227.569881
 30
0.0
 10
34.832588
 20
227.645333
 30
0.0
  0
LWPOLYLINE
  5
346
100
AcDbEntity
  8
0
 62
7
100
AcDbPolyline
 90
2
 70
0
 10
35.539959
 20
230.508764
 30
0.0
 10
35.539962
 20
226.796516
 30
0.0
  0
LWPOLYLINE
  5
347
100
AcDbEntity
  8
0
 62
7
100
AcDbPolyline
 90
2
 70
0
 10
34.832588
 20
227.645333
 30
0.0
 10
34.832601
 20
228.482871
 30
0.0
  0
SPLINE
  5
348
100
AcDbEntity
  8
0
 62
7
100
AcDbSpline
 70
8
 71
3
 72
8
 73
4
 74
0
 40
0
 40
0
 40
0
 40
0
 40
1
 40
1
 40
1
 40
1
 10
10.016479
 20
233.445588
 30
0.0
 10
10.138798
 20
233.445588
 30
0.0
 10
10.237270
 20
233.347113
 30
0.0
 10
10.237270
 20
233.224793
 30
0.0
  0
LWPOLYLINE
  5
349
100
AcDbEntity
  8
0
 62
7
100
AcDbPolyline
 90
2
 70
0
 10
8.559480
 20
233.445588
 30
0.0
 10
10.016479
 20
233.445588
 30
0.0
  0
SPLINE
  5
34a
100
AcDbEntity
  8
0
 62
7
100
AcDbSpline
 70
8
 71
3
 72
8
 73
4
 74
0
 40
0
 40
0
 40
0
 40
0
 40
1
 40
1
 40
1
 40
1
 10
10.237270
 20
231.767797
 30
0.0
 10
10.237270
 20
231.645477
 30
0.0
 10
10.138798
 20
231.547002
 30
0.0
 10
10.016479
 20
231.547002
 30
0.0
  0
LWPOLYLINE
  5
34b
100
AcDbEntity
  8
0
 62
7
100
AcDbPolyline
 90
2
 70
0
 10
10.237270
 20
233.224793
 30
0.0
 10
10.237270
 20
231.767797
 30
0.0
  0
SPLINE
  5
34c
100
AcDbEntity
  8
0
 62
7
100
AcDbSpline
 70
8
 71
3
 72
8
 73
4
 74
0
 40
0
 40
0
 40
0
 40
0
 40
1
 40
1
 40
1
 40
1
 10
8.559480
 20
231.547002
 30
0.0
 10
8.437161
 20
231.547002
 30
0.0
 10
8.338689
 20
231.645477
 30
0.0
 10
8.338689
 20
231.767797
 30
0.0
  0
LWPOLYLINE
  5
34d
100
AcDbEntity
  8
0
 62
7
100
AcDbPolyline
 90
2
 70
0
 10
10.016479
 20
231.547002
 30
0.0
 10
8.559480
 20
231.547002
 30
0.0
  0
SPLINE
  5
34e
100
AcDbEntity
  8
0
 62
7
100
AcDbSpline
 70
8
 71
3
 72
8
 73
4
 74
0
 40
0
 40
0
 40
0
 40
0
 40
1
 40
1
 40
1
 40
1
 10
8.338689
 20
233.224793
 30
0.0
 10
8.338689
 20
233.347113
 30
0.0
 10
8.437161
 20
233.445588
 30
0.0
 10
8.559480
 20
233.445588
 30
0.0
  0
LWPOLYLINE
  5
34f
100
AcDbEntity
  8
0
 62
7
100
AcDbPolyline
 90
2
 70
0
 10
8.338689
 20
231.767797
 30
0.0
 10
8.338689
 20
233.224793
 30
0.0
  0
LWPOLYLINE
  5
350
100
AcDbEntity
  8
0
 62
7
100
AcDbPolyline
 90
1
 70
1
 10
8.559480
 20
233.445588
 30
0.0
  0
SPLINE
  5
351
100
AcDbEntity
  8
0
 62
7
100
AcDbSpline
 70
8
 71
3
 72
8
 73
4
 74
0
 40
0
 40
0
 40
0
 40
0
 40
1
 40
1
 40
1
 40
1
 10
12.484635
 20
233.445588
 30
0.0
 10
12.606956
 20
233.445588
 30
0.0
 10
12.705429
 20
233.347113
 30
0.0
 10
12.705429
 20
233.224793
 30
0.0
  0
LWPOLYLINE
  5
352
100
AcDbEntity
  8
0
 62
7
100
AcDbPolyline
 90
2
 70
0
 10
11.027638
 20
233.445588
 30
0.0
 10
12.484635
 20
233.445588
 30
0.0
  0
SPLINE
  5
353
100
AcDbEntity
  8
0
 62
7
100
AcDbSpline
 70
8
 71
3
 72
8
 73
4
 74
0
 40
0
 40
0
 40
0
 40
0
 40
1
 40
1
 40
1
 40
1
 10
12.705429
 20
231.767797
 30
0.0
 10
12.705429
 20
231.645477
 30
0.0
 10
12.606956
 20
231.547002
 30
0.0
 10
12.484635
 20
231.547002
 30
0.0
  0
LWPOLYLINE
  5
354
100
AcDbEntity
  8
0
 62
7
100
AcDbPolyline
 90
2
 70
0
 10
12.705429
 20
233.224793
 30
0.0
 10
12.705429
 20
231.767797
 30
0.0
  0
SPLINE
  5
355
100
AcDbEntity
  8
0
 62
7
100
AcDbSpline
 70
8
 71
3
 72
8
 73
4
 74
0
 40
0
 40
0
 40
0
 40
0
 40
1
 40
1
 40
1
 40
1
 10
11.027638
 20
231.547002
 30
0.0
 10
10.905319
 20
231.547002
 30
0.0
 10
10.806845
 20
231.645477
 30
0.0
 10
10.806845
 20
231.767797
 30
0.0
  0
LWPOLYLINE
  5
356
100
AcDbEntity
  8
0
 62
7
100
AcDbPolyline
 90
2
 70
0
 10
12.484635
 20
231.547002
 30
0.0
 10
11.027638
 20
231.547002
 30
0.0
  0
SPLINE
  5
357
100
AcDbEntity
  8
0
 62
7
100
AcDbSpline
 70
8
 71
3
 72
8
 73
4
 74
0
 40
0
 40
0
 40
0
 40
0
 40
1
 40
1
 40
1
 40
1
 10
10.806845
 20
233.224793
 30
0.0
 10
10.806845
 20
233.347113
 30
0.0
 10
10.905319
 20
233.445588
 30
0.0
 10
11.027638
 20
233.445588
 30
0.0
  0
LWPOLYLINE
  5
358
100
AcDbEntity
  8
0
 62
7
100
AcDbPolyline
 90
2
 70
0
 10
10.806845
 20
231.767797
 30
0.0
 10
10.806845
 20
233.224793
 30
0.0
  0
LWPOLYLINE
  5
359
100
AcDbEntity
  8
0
 62
7
100
AcDbPolyline
 90
1
 70
1
 10
11.027638
 20
233.445588
 30
0.0
  0
SPLINE
  5
35a
100
AcDbEntity
  8
0
 62
7
100
AcDbSpline
 70
8
 71
3
 72
8
 73
4
 74
0
 40
0
 40
0
 40
0
 40
0
 40
1
 40
1
 40
1
 40
1
 10
14.952793
 20
233.445588
 30
0.0
 10
15.075112
 20
233.445588
 30
0.0
 10
15.173584
 20
233.347113
 30
0.0
 10
15.173584
 20
233.224793
 30
0.0
  0
LWPOLYLINE
  5
35b
100
AcDbEntity
  8
0
 62
7
100
AcDbPolyline
 90
2
 70
0
 10
13.495796
 20
233.445588
 30
0.0
 10
14.952793
 20
233.445588
 30
0.0
  0
SPLINE
  5
35c
100
AcDbEntity
  8
0
 62
7
100
AcDbSpline
 70
8
 71
3
 72
8
 73
4
 74
0
 40
0
 40
0
 40
0
 40
0
 40
1
 40
1
 40
1
 40
1
 10
15.173584
 20
231.767797
 30
0.0
 10
15.173584
 20
231.645477
 30
0.0
 10
15.075112
 20
231.547002
 30
0.0
 10
14.952793
 20
231.547002
 30
0.0
  0
LWPOLYLINE
  5
35d
100
AcDbEntity
  8
0
 62
7
100
AcDbPolyline
 90
2
 70
0
 10
15.173584
 20
233.224793
 30
0.0
 10
15.173584
 20
231.767797
 30
0.0
  0
SPLINE
  5
35e
100
AcDbEntity
  8
0
 62
7
100
AcDbSpline
 70
8
 71
3
 72
8
 73
4
 74
0
 40
0
 40
0
 40
0
 40
0
 40
1
 40
1
 40
1
 40
1
 10
13.495796
 20
231.547002
 30
0.0
 10
13.373476
 20
231.547002
 30
0.0
 10
13.275003
 20
231.645477
 30
0.0
 10
13.275003
 20
231.767797
 30
0.0
  0
LWPOLYLINE
  5
35f
100
AcDbEntity
  8
0
 62
7
100
AcDbPolyline
 90
2
 70
0
 10
14.952793
 20
231.547002
 30
0.0
 10
13.495796
 20
231.547002
 30
0.0
  0
SPLINE
  5
360
100
AcDbEntity
  8
0
 62
7
100
AcDbSpline
 70
8
 71
3
 72
8
 73
4
 74
0
 40
0
 40
0
 40
0
 40
0
 40
1
 40
1
 40
1
 40
1
 10
13.275003
 20
233.224793
 30
0.0
 10
13.275003
 20
233.347113
 30
0.0
 10
13.373476
 20
233.445588
 30
0.0
 10
13.495796
 20
233.445588
 30
0.0
  0
LWPOLYLINE
  5
361
100
AcDbEntity
  8
0
 62
7
100
AcDbPolyline
 90
2
 70
0
 10
13.275003
 20
231.767797
 30
0.0
 10
13.275003
 20
233.224793
 30
0.0
  0
LWPOLYLINE
  5
362
100
AcDbEntity
  8
0
 62
7
100
AcDbPolyline
 90
1
 70
1
 10
13.495796
 20
233.445588
 30
0.0
  0
SPLINE
  5
363
100
AcDbEntity
  8
0
 62
7
100
AcDbSpline
 70
8
 71
3
 72
8
 73
4
 74
0
 40
0
 40
0
 40
0
 40
0
 40
1
 40
1
 40
1
 40
1
 10
17.420952
 20
233.445588
 30
0.0
 10
17.543270
 20
233.445588
 30
0.0
 10
17.641745
 20
233.347113
 30
0.0
 10
17.641745
 20
233.224793
 30
0.0
  0
LWPOLYLINE
  5
364
100
AcDbEntity
  8
0
 62
7
100
AcDbPolyline
 90
2
 70
0
 10
15.963954
 20
233.445588
 30
0.0
 10
17.420952
 20
233.445588
 30
0.0
  0
SPLINE
  5
365
100
AcDbEntity
  8
0
 62
7
100
AcDbSpline
 70
8
 71
3
 72
8
 73
4
 74
0
 40
0
 40
0
 40
0
 40
0
 40
1
 40
1
 40
1
 40
1
 10
17.641745
 20
231.767797
 30
0.0
 10
17.641745
 20
231.645477
 30
0.0
 10
17.543270
 20
231.547002
 30
0.0
 10
17.420952
 20
231.547002
 30
0.0
  0
LWPOLYLINE
  5
366
100
AcDbEntity
  8
0
 62
7
100
AcDbPolyline
 90
2
 70
0
 10
17.641745
 20
233.224793
 30
0.0
 10
17.641745
 20
231.767797
 30
0.0
  0
SPLINE
  5
367
100
AcDbEntity
  8
0
 62
7
100
AcDbSpline
 70
8
 71
3
 72
8
 73
4
 74
0
 40
0
 40
0
 40
0
 40
0
 40
1
 40
1
 40
1
 40
1
 10
15.963954
 20
231.547002
 30
0.0
 10
15.841634
 20
231.547002
 30
0.0
 10
15.743161
 20
231.645477
 30
0.0
 10
15.743161
 20
231.767797
 30
0.0
  0
LWPOLYLINE
  5
368
100
AcDbEntity
  8
0
 62
7
100
AcDbPolyline
 90
2
 70
0
 10
17.420952
 20
231.547002
 30
0.0
 10
15.963954
 20
231.547002
 30
0.0
  0
SPLINE
  5
369
100
AcDbEntity
  8
0
 62
7
100
AcDbSpline
 70
8
 71
3
 72
8
 73
4
 74
0
 40
0
 40
0
 40
0
 40
0
 40
1
 40
1
 40
1
 40
1
 10
15.743161
 20
233.224793
 30
0.0
 10
15.743161
 20
233.347113
 30
0.0
 10
15.841634
 20
233.445588
 30
0.0
 10
15.963954
 20
233.445588
 30
0.0
  0
LWPOLYLINE
  5
36a
100
AcDbEntity
  8
0
 62
7
100
AcDbPolyline
 90
2
 70
0
 10
15.743161
 20
231.767797
 30
0.0
 10
15.743161
 20
233.224793
 30
0.0
  0
LWPOLYLINE
  5
36b
100
AcDbEntity
  8
0
 62
7
100
AcDbPolyline
 90
1
 70
1
 10
15.963954
 20
233.445588
 30
0.0
  0
ENDSEC
  0
SECTION
  2
OBJECTS
  0
DICTIONARY
  5
C
330
0
100
AcDbDictionary
  3
ACAD_GROUP
350
D
  3
ACAD_MLINESTYLE
350
17
  0
DICTIONARY
  5
D
330
C
100
AcDbDictionary
  0
DICTIONARY
  5
1A
330
C
100
AcDbDictionary
  0
DICTIONARY
  5
17
330
C
100
AcDbDictionary
  3
STANDARD
350
18
  0
DICTIONARY
  5
19
330
C
100
AcDbDictionary
  0
ENDSEC
  0
EOF
