999
"DXF R12 Output" (www.mydxf.blogspot.com)
 0 
SECTION
 2 
HEADER
 9 
$ACADVER
 1 
AC1009
 9 
$EXTMIN
 10 
 0 
 20 
 0 
 9 
$EXTMAX
 10 
 8.5 
 20 
 11 
 0 
ENDSEC
 0 
SECTION
 2 
ENTITIES
0
LINE
8
Layer 1
10
0.793749
20
297.794000
11
-0.793749
21
296.206000
0
LINE
8
Layer 1
10
0.000000
20
298.323000
11
0.000000
21
295.677000
0
LINE
8
Layer 1
10
2.116660
20
295.942000
11
1.058330
21
294.883670
0
LINE
8
Layer 1
10
1.587500
20
296.471000
11
0.529170
21
295.412670
0
LINE
8
Layer 1
10
1.058330
20
297.000000
11
0.000000
21
295.941670
0
LINE
8
Layer 1
10
0.793749
20
297.794000
11
-0.793749
21
296.206000
0
LINE
8
Layer 1
10
0.000000
20
298.323000
11
0.000000
21
295.677000
0
LINE
8
Layer 1
10
2.116660
20
295.942000
11
1.058330
21
294.883670
0
LINE
8
Layer 1
10
1.587500
20
296.471000
11
0.529170
21
295.412670
0
LINE
8
Layer 1
10
1.058330
20
297.000000
11
0.000000
21
295.941670
0
LINE
8
0
10
97.732600
20
295.868000
11
97.656400
21
296.250587
0
LINE
8
0
10
97.656400
20
296.250000
11
97.439707
21
296.574379
0
LINE
8
0
10
97.439700
20
296.575000
11
97.115057
21
296.791958
0
LINE
8
0
10
97.115000
20
296.792000
11
96.732400
21
296.868000
0
LINE
8
0
10
96.732400
20
296.868000
11
1.132280
21
296.868000
0
LINE
8
0
10
1.132280
20
296.868000
11
0.749590
21
296.792000
0
LINE
8
0
10
0.749590
20
296.792000
11
0.425185
21
296.575000
0
LINE
8
0
10
0.425185
20
296.575000
11
0.208412
21
296.250000
0
LINE
8
0
10
0.208412
20
296.250000
11
0.132292
21
295.868000
0
LINE
8
0
10
0.132292
20
295.868000
11
0.132292
21
230.567000
0
LINE
8
0
10
0.132292
20
230.567000
11
0.312632
21
228.746670
0
LINE
8
0
10
0.312631
20
228.746000
11
0.840210
21
227.007690
0
LINE
8
0
10
0.840210
20
227.008000
11
1.694787
21
225.407270
0
LINE
8
0
10
1.694790
20
225.407000
11
2.856180
21
223.991480
0
LINE
8
0
10
2.856170
20
223.992000
11
4.272620
21
222.830480
0
LINE
8
0
10
4.272620
20
222.830000
11
5.873320
21
221.975397
0
LINE
8
0
10
5.873320
20
221.976000
11
7.609460
21
221.449480
0
LINE
8
0
10
7.609460
20
221.449000
11
9.432250
21
221.269084
0
LINE
8
0
10
9.432250
20
221.269000
11
88.431900
21
221.269000
0
LINE
8
0
10
88.431900
20
221.269000
11
90.254880
21
221.448916
0
LINE
8
0
10
90.254900
20
221.449000
11
91.991090
21
221.975520
0
LINE
8
0
10
91.991100
20
221.976000
11
93.591560
21
222.830603
0
LINE
8
0
10
93.591600
20
222.830000
11
95.008180
21
223.991520
0
LINE
8
0
10
95.008200
20
223.992000
11
96.169720
21
225.407520
0
LINE
8
0
10
96.169700
20
225.407000
11
97.024039
21
227.007730
0
LINE
8
0
10
97.024000
20
227.008000
11
97.551579
21
228.746310
0
LINE
8
0
10
97.551600
20
228.746000
11
97.732046
21
230.566330
0
LINE
8
0
10
97.732000
20
230.567000
11
97.732600
21
295.868000
0
LINE
8
0
10
80.782100
20
283.961000
11
80.953021
21
283.502742
0
LINE
8
0
10
80.953000
20
283.502000
11
81.382154
21
283.267579
0
LINE
8
0
10
81.382100
20
283.268000
11
81.382100
21
281.218000
0
LINE
8
0
10
81.382100
20
281.218000
11
81.587152
21
280.722965
0
LINE
8
0
10
81.587200
20
280.723000
11
82.081970
21
280.517948
0
LINE
8
0
10
82.082000
20
280.518000
11
94.782500
21
280.518000
0
LINE
8
0
10
94.782500
20
280.518000
11
95.277535
21
280.723052
0
LINE
8
0
10
95.277500
20
280.723000
11
95.482552
21
281.218035
0
LINE
8
0
10
95.482600
20
281.218000
11
95.482600
21
283.268000
0
LINE
8
0
10
95.482600
20
283.268000
11
95.911754
21
283.502421
0
LINE
8
0
10
95.911700
20
283.502000
11
96.082356
21
283.960258
0
LINE
8
0
10
96.082400
20
283.961000
11
96.082400
21
292.575000
0
LINE
8
0
10
96.082400
20
292.575000
11
95.911744
21
293.033258
0
LINE
8
0
10
95.911700
20
293.033000
11
95.482546
21
293.267421
0
LINE
8
0
10
95.482600
20
293.268000
11
95.482600
21
293.918000
0
LINE
8
0
10
95.482600
20
293.918000
11
95.277548
21
294.412770
0
LINE
8
0
10
95.277500
20
294.413000
11
94.782465
21
294.618052
0
LINE
8
0
10
94.782500
20
294.618000
11
82.082000
21
294.618000
0
LINE
8
0
10
82.082000
20
294.618000
11
81.587230
21
294.412948
0
LINE
8
0
10
81.587200
20
294.413000
11
81.382148
21
293.918230
0
LINE
8
0
10
81.382100
20
293.918000
11
81.382100
21
293.268000
0
LINE
8
0
10
81.382100
20
293.268000
11
80.952946
21
293.033315
0
LINE
8
0
10
80.953000
20
293.033000
11
80.782079
21
292.574742
0
LINE
8
0
10
80.782100
20
292.575000
11
80.782100
21
283.961000
0
LINE
8
0
10
20.082300
20
292.575000
11
20.082300
21
283.961000
0
LINE
8
0
10
20.082300
20
283.961000
11
19.911432
21
283.502742
0
LINE
8
0
10
19.911400
20
283.502000
11
19.482246
21
283.267579
0
LINE
8
0
10
19.482300
20
283.268000
11
19.482300
21
281.218000
0
LINE
8
0
10
19.482300
20
281.218000
11
19.277200
21
280.723000
0
LINE
8
0
10
19.277200
20
280.723000
11
18.782245
21
280.517948
0
LINE
8
0
10
18.782300
20
280.518000
11
6.082290
21
280.518000
0
LINE
8
0
10
6.082290
20
280.518000
11
5.587310
21
280.723000
0
LINE
8
0
10
5.587310
20
280.723000
11
5.382280
21
281.218000
0
LINE
8
0
10
5.382280
20
281.218000
11
5.382280
21
283.268000
0
LINE
8
0
10
5.382280
20
283.268000
11
4.953126
21
283.502421
0
LINE
8
0
10
4.953130
20
283.502000
11
4.782280
21
283.961000
0
LINE
8
0
10
4.782280
20
283.961000
11
4.782280
21
292.575000
0
LINE
8
0
10
4.782280
20
292.575000
11
4.953121
21
293.033258
0
LINE
8
0
10
4.953130
20
293.033000
11
5.382284
21
293.267421
0
LINE
8
0
10
5.382280
20
293.268000
11
5.382280
21
293.918000
0
LINE
8
0
10
5.382280
20
293.918000
11
5.587305
21
294.412770
0
LINE
8
0
10
5.587310
20
294.413000
11
6.082290
21
294.618000
0
LINE
8
0
10
6.082290
20
294.618000
11
18.782300
21
294.618000
0
LINE
8
0
10
18.782300
20
294.618000
11
19.277255
21
294.412948
0
LINE
8
0
10
19.277200
20
294.413000
11
19.482225
21
293.918230
0
LINE
8
0
10
19.482300
20
293.918000
11
19.482300
21
293.268000
0
LINE
8
0
10
19.482300
20
293.268000
11
19.911454
21
293.033315
0
LINE
8
0
10
19.911400
20
293.033000
11
20.082268
21
292.574742
0
LINE
8
0
10
20.082300
20
292.575000
11
20.082300
21
292.575000
0
LINE
8
0
10
42.782100
20
283.961000
11
42.782100
21
292.575000
0
LINE
8
0
10
42.782100
20
292.575000
11
42.953021
21
293.033258
0
LINE
8
0
10
42.953000
20
293.033000
11
43.382154
21
293.267421
0
LINE
8
0
10
43.382200
20
293.268000
11
43.382200
21
293.918000
0
LINE
8
0
10
43.382200
20
293.918000
11
43.587252
21
294.412770
0
LINE
8
0
10
43.587200
20
294.413000
11
44.081970
21
294.618052
0
LINE
8
0
10
44.082000
20
294.618000
11
56.782000
21
294.618000
0
LINE
8
0
10
56.782000
20
294.618000
11
57.277035
21
294.412948
0
LINE
8
0
10
57.277000
20
294.413000
11
57.482052
21
293.918230
0
LINE
8
0
10
57.482100
20
293.918000
11
57.482100
21
293.268000
0
LINE
8
0
10
57.482100
20
293.268000
11
57.911254
21
293.033315
0
LINE
8
0
10
57.911200
20
293.033000
11
58.082121
21
292.574742
0
LINE
8
0
10
58.082200
20
292.575000
11
58.082200
21
283.961000
0
LINE
8
0
10
58.082200
20
283.961000
11
57.911279
21
283.502742
0
LINE
8
0
10
57.911200
20
283.502000
11
57.482046
21
283.267579
0
LINE
8
0
10
57.482100
20
283.268000
11
57.482100
21
281.218000
0
LINE
8
0
10
57.482100
20
281.218000
11
57.277048
21
280.722965
0
LINE
8
0
10
57.277000
20
280.723000
11
56.781965
21
280.517948
0
LINE
8
0
10
56.782000
20
280.518000
11
44.082000
21
280.518000
0
LINE
8
0
10
44.082000
20
280.518000
11
43.587230
21
280.723052
0
LINE
8
0
10
43.587200
20
280.723000
11
43.382148
21
281.218035
0
LINE
8
0
10
43.382200
20
281.218000
11
43.382200
21
283.268000
0
LINE
8
0
10
43.382200
20
283.268000
11
42.953046
21
283.502421
0
LINE
8
0
10
42.953000
20
283.502000
11
42.782079
21
283.960258
0
LINE
8
0
10
42.782100
20
283.961000
11
42.782100
21
283.961000
0
LINE
8
0
10
39.082200
20
292.575000
11
39.082200
21
283.961000
0
LINE
8
0
10
39.082200
20
283.961000
11
38.911279
21
283.502742
0
LINE
8
0
10
38.911300
20
283.502000
11
38.482146
21
283.267579
0
LINE
8
0
10
38.482100
20
283.268000
11
38.482100
21
281.218000
0
LINE
8
0
10
38.482100
20
281.218000
11
38.277313
21
280.722965
0
LINE
8
0
10
38.277300
20
280.723000
11
37.782265
21
280.517948
0
LINE
8
0
10
37.782300
20
280.518000
11
25.082300
21
280.518000
0
LINE
8
0
10
25.082300
20
280.518000
11
24.587300
21
280.723000
0
LINE
8
0
10
24.587300
20
280.723000
11
24.382248
21
281.218035
0
LINE
8
0
10
24.382200
20
281.218000
11
24.382200
21
283.268000
0
LINE
8
0
10
24.382200
20
283.268000
11
23.953046
21
283.502421
0
LINE
8
0
10
23.953100
20
283.502000
11
23.782179
21
283.960258
0
LINE
8
0
10
23.782100
20
283.961000
11
23.782100
21
292.575000
0
LINE
8
0
10
23.782100
20
292.575000
11
23.953021
21
293.033258
0
LINE
8
0
10
23.953100
20
293.033000
11
24.382254
21
293.267421
0
LINE
8
0
10
24.382200
20
293.268000
11
24.382200
21
293.918000
0
LINE
8
0
10
24.382200
20
293.918000
11
24.587252
21
294.412770
0
LINE
8
0
10
24.587300
20
294.413000
11
25.082335
21
294.618052
0
LINE
8
0
10
25.082300
20
294.618000
11
37.782300
21
294.618000
0
LINE
8
0
10
37.782300
20
294.618000
11
38.277335
21
294.412948
0
LINE
8
0
10
38.277300
20
294.413000
11
38.482087
21
293.918230
0
LINE
8
0
10
38.482100
20
293.918000
11
38.482100
21
293.268000
0
LINE
8
0
10
38.482100
20
293.268000
11
38.911254
21
293.033315
0
LINE
8
0
10
38.911300
20
293.033000
11
39.082221
21
292.574742
0
LINE
8
0
10
39.082200
20
292.575000
11
39.082200
21
292.575000
0
LINE
8
0
10
31.782300
20
264.961000
11
31.782300
21
273.575000
0
LINE
8
0
10
31.782300
20
273.575000
11
31.952956
21
274.033258
0
LINE
8
0
10
31.953000
20
274.033000
11
32.382154
21
274.267685
0
LINE
8
0
10
32.382200
20
274.268000
11
32.382200
21
274.918000
0
LINE
8
0
10
32.382200
20
274.918000
11
32.587252
21
275.412770
0
LINE
8
0
10
32.587200
20
275.413000
11
33.082235
21
275.618052
0
LINE
8
0
10
33.082200
20
275.618000
11
45.782200
21
275.618000
0
LINE
8
0
10
45.782200
20
275.618000
11
46.276970
21
275.412948
0
LINE
8
0
10
46.277000
20
275.413000
11
46.482052
21
274.918230
0
LINE
8
0
10
46.482000
20
274.918000
11
46.482000
21
274.268000
0
LINE
8
0
10
46.482000
20
274.268000
11
46.911154
21
274.033315
0
LINE
8
0
10
46.911200
20
274.033000
11
47.082121
21
273.574742
0
LINE
8
0
10
47.082100
20
273.575000
11
47.082100
21
264.961000
0
LINE
8
0
10
47.082100
20
264.961000
11
46.911179
21
264.502742
0
LINE
8
0
10
46.911200
20
264.503000
11
46.482046
21
264.268315
0
LINE
8
0
10
46.482000
20
264.268000
11
46.482000
21
262.218000
0
LINE
8
0
10
46.482000
20
262.218000
11
46.276948
21
261.722965
0
LINE
8
0
10
46.277000
20
261.723000
11
45.782230
21
261.517948
0
LINE
8
0
10
45.782200
20
261.518000
11
33.082200
21
261.518000
0
LINE
8
0
10
33.082200
20
261.518000
11
32.587165
21
261.723052
0
LINE
8
0
10
32.587200
20
261.723000
11
32.382148
21
262.218035
0
LINE
8
0
10
32.382200
20
262.218000
11
32.382200
21
264.268000
0
LINE
8
0
10
32.382200
20
264.268000
11
31.953046
21
264.502421
0
LINE
8
0
10
31.953000
20
264.502000
11
31.782344
21
264.960258
0
LINE
8
0
10
31.782300
20
264.961000
11
31.782300
21
264.961000
0
LINE
8
0
10
69.782000
20
264.961000
11
69.952921
21
264.502742
0
LINE
8
0
10
69.952900
20
264.503000
11
70.382054
21
264.268315
0
LINE
8
0
10
70.382100
20
264.268000
11
70.382100
21
262.218000
0
LINE
8
0
10
70.382100
20
262.218000
11
70.587152
21
261.722965
0
LINE
8
0
10
70.587100
20
261.723000
11
71.082135
21
261.517948
0
LINE
8
0
10
71.082200
20
261.518000
11
83.782200
21
261.518000
0
LINE
8
0
10
83.782200
20
261.518000
11
84.276970
21
261.723052
0
LINE
8
0
10
84.276900
20
261.723000
11
84.481952
21
262.218035
0
LINE
8
0
10
84.482000
20
262.218000
11
84.482000
21
264.268000
0
LINE
8
0
10
84.482000
20
264.268000
11
84.911154
21
264.502421
0
LINE
8
0
10
84.911100
20
264.502000
11
85.082021
21
264.960258
0
LINE
8
0
10
85.082100
20
264.961000
11
85.082100
21
273.575000
0
LINE
8
0
10
85.082100
20
273.575000
11
84.911179
21
274.033258
0
LINE
8
0
10
84.911100
20
274.033000
11
84.481946
21
274.267685
0
LINE
8
0
10
84.482000
20
274.268000
11
84.482000
21
274.918000
0
LINE
8
0
10
84.482000
20
274.918000
11
84.276948
21
275.412770
0
LINE
8
0
10
84.276900
20
275.413000
11
83.782130
21
275.618052
0
LINE
8
0
10
83.782200
20
275.618000
11
71.082200
21
275.618000
0
LINE
8
0
10
71.082200
20
275.618000
11
70.587165
21
275.412948
0
LINE
8
0
10
70.587100
20
275.413000
11
70.382048
21
274.918230
0
LINE
8
0
10
70.382100
20
274.918000
11
70.382100
21
274.268000
0
LINE
8
0
10
70.382100
20
274.268000
11
69.952946
21
274.033315
0
LINE
8
0
10
69.952900
20
274.033000
11
69.781979
21
273.574742
0
LINE
8
0
10
69.782000
20
273.575000
11
69.782000
21
264.961000
0
LINE
8
0
10
58.782000
20
245.960000
11
58.952921
21
245.502271
0
LINE
8
0
10
58.952900
20
245.502000
11
59.382054
21
245.266521
0
LINE
8
0
10
59.382100
20
245.267000
11
59.382100
21
243.219000
0
LINE
8
0
10
59.382100
20
243.219000
11
59.587152
21
242.724230
0
LINE
8
0
10
59.587100
20
242.724000
11
60.082135
21
242.517625
0
LINE
8
0
10
60.082100
20
242.518000
11
72.782100
21
242.518000
0
LINE
8
0
10
72.782100
20
242.518000
11
73.277135
21
242.724375
0
LINE
8
0
10
73.277200
20
242.724000
11
73.482252
21
243.218770
0
LINE
8
0
10
73.482200
20
243.219000
11
73.482200
21
245.267000
0
LINE
8
0
10
73.482200
20
245.267000
11
73.911354
21
245.502479
0
LINE
8
0
10
73.911400
20
245.502000
11
74.082056
21
245.959729
0
LINE
8
0
10
74.082000
20
245.960000
11
74.082000
21
254.575000
0
LINE
8
0
10
74.082000
20
254.575000
11
73.911344
21
255.033258
0
LINE
8
0
10
73.911400
20
255.033000
11
73.482246
21
255.267685
0
LINE
8
0
10
73.482200
20
255.268000
11
73.482200
21
255.918000
0
LINE
8
0
10
73.482200
20
255.918000
11
73.277148
21
256.413035
0
LINE
8
0
10
73.277200
20
256.413000
11
72.782165
21
256.618052
0
LINE
8
0
10
72.782100
20
256.618000
11
60.082100
21
256.618000
0
LINE
8
0
10
60.082100
20
256.618000
11
59.587065
21
256.412948
0
LINE
8
0
10
59.587100
20
256.413000
11
59.382048
21
255.917965
0
LINE
8
0
10
59.382100
20
255.918000
11
59.382100
21
255.268000
0
LINE
8
0
10
59.382100
20
255.268000
11
58.952946
21
255.033579
0
LINE
8
0
10
58.952900
20
255.033000
11
58.781979
21
254.574742
0
LINE
8
0
10
58.782000
20
254.575000
11
58.782000
21
245.960000
0
LINE
8
0
10
1.782280
20
245.960000
11
1.953121
21
245.502271
0
LINE
8
0
10
1.953130
20
245.502000
11
2.382284
21
245.266521
0
LINE
8
0
10
2.382280
20
245.267000
11
2.382280
21
243.219000
0
LINE
8
0
10
2.382280
20
243.219000
11
2.587305
21
242.724230
0
LINE
8
0
10
2.587300
20
242.724000
11
3.082282
21
242.517625
0
LINE
8
0
10
3.082290
20
242.518000
11
15.782300
21
242.518000
0
LINE
8
0
10
15.782300
20
242.518000
11
16.277282
21
242.724375
0
LINE
8
0
10
16.277300
20
242.724000
11
16.482299
21
243.218770
0
LINE
8
0
10
16.482300
20
243.219000
11
16.482326
21
245.266870
0
LINE
8
0
10
16.482300
20
245.267000
11
16.911454
21
245.502479
0
LINE
8
0
10
16.911400
20
245.502000
11
17.082241
21
245.959729
0
LINE
8
0
10
17.082300
20
245.960000
11
17.082300
21
254.575000
0
LINE
8
0
10
17.082300
20
254.575000
11
16.911432
21
255.033258
0
LINE
8
0
10
16.911400
20
255.033000
11
16.482273
21
255.267685
0
LINE
8
0
10
16.482300
20
255.268000
11
16.482300
21
255.918000
0
LINE
8
0
10
16.482300
20
255.918000
11
16.277300
21
256.413000
0
LINE
8
0
10
16.277300
20
256.413000
11
15.782318
21
256.618052
0
LINE
8
0
10
15.782300
20
256.618000
11
3.082290
21
256.618000
0
LINE
8
0
10
3.082290
20
256.618000
11
2.587300
21
256.413000
0
LINE
8
0
10
2.587300
20
256.413000
11
2.382275
21
255.917965
0
LINE
8
0
10
2.382280
20
255.918000
11
2.382280
21
255.268000
0
LINE
8
0
10
2.382280
20
255.268000
11
1.953126
21
255.033579
0
LINE
8
0
10
1.953130
20
255.033000
11
1.782289
21
254.574742
0
LINE
8
0
10
1.782280
20
254.575000
11
1.782280
21
245.960000
0
LINE
8
0
10
77.782200
20
245.960000
11
77.952856
21
245.502271
0
LINE
8
0
10
77.952900
20
245.502000
11
78.382054
21
245.266521
0
LINE
8
0
10
78.382000
20
245.267000
11
78.382000
21
243.219000
0
LINE
8
0
10
78.382000
20
243.219000
11
78.587052
21
242.724230
0
LINE
8
0
10
78.587100
20
242.724000
11
79.082135
21
242.517625
0
LINE
8
0
10
79.082100
20
242.518000
11
91.782100
21
242.518000
0
LINE
8
0
10
91.782100
20
242.518000
11
92.277135
21
242.724375
0
LINE
8
0
10
92.277100
20
242.724000
11
92.482152
21
243.218770
0
LINE
8
0
10
92.482200
20
243.219000
11
92.482200
21
245.267000
0
LINE
8
0
10
92.482200
20
245.267000
11
92.911354
21
245.502479
0
LINE
8
0
10
92.911300
20
245.502000
11
93.081956
21
245.959729
0
LINE
8
0
10
93.082000
20
245.960000
11
93.082000
21
254.575000
0
LINE
8
0
10
93.082000
20
254.575000
11
92.911344
21
255.033258
0
LINE
8
0
10
92.911300
20
255.033000
11
92.482146
21
255.267685
0
LINE
8
0
10
92.482200
20
255.268000
11
92.482200
21
255.918000
0
LINE
8
0
10
92.482200
20
255.918000
11
92.277148
21
256.413035
0
LINE
8
0
10
92.277100
20
256.413000
11
91.782065
21
256.618052
0
LINE
8
0
10
91.782100
20
256.618000
11
79.082100
21
256.618000
0
LINE
8
0
10
79.082100
20
256.618000
11
78.587065
21
256.412948
0
LINE
8
0
10
78.587100
20
256.413000
11
78.382048
21
255.917965
0
LINE
8
0
10
78.382000
20
255.918000
11
78.382000
21
255.268000
0
LINE
8
0
10
78.382000
20
255.268000
11
77.952846
21
255.033579
0
LINE
8
0
10
77.952900
20
255.033000
11
77.782244
21
254.574742
0
LINE
8
0
10
77.782200
20
254.575000
11
77.782200
21
245.960000
0
LINE
8
0
10
50.782100
20
264.961000
11
50.953021
21
264.502742
0
LINE
8
0
10
50.953000
20
264.503000
11
51.382154
21
264.268315
0
LINE
8
0
10
51.382100
20
264.268000
11
51.382100
21
262.218000
0
LINE
8
0
10
51.382100
20
262.218000
11
51.587152
21
261.722965
0
LINE
8
0
10
51.587200
20
261.723000
11
52.082235
21
261.517948
0
LINE
8
0
10
52.082200
20
261.518000
11
64.782200
21
261.518000
0
LINE
8
0
10
64.782200
20
261.518000
11
65.276970
21
261.723052
0
LINE
8
0
10
65.277000
20
261.723000
11
65.482052
21
262.218035
0
LINE
8
0
10
65.482000
20
262.218000
11
65.482000
21
264.268000
0
LINE
8
0
10
65.482000
20
264.268000
11
65.911154
21
264.502421
0
LINE
8
0
10
65.911200
20
264.502000
11
66.082121
21
264.960258
0
LINE
8
0
10
66.082100
20
264.961000
11
66.082100
21
273.575000
0
LINE
8
0
10
66.082100
20
273.575000
11
65.911179
21
274.033258
0
LINE
8
0
10
65.911200
20
274.033000
11
65.482046
21
274.267685
0
LINE
8
0
10
65.482000
20
274.268000
11
65.482000
21
274.918000
0
LINE
8
0
10
65.482000
20
274.918000
11
65.276948
21
275.412770
0
LINE
8
0
10
65.277000
20
275.413000
11
64.782230
21
275.618052
0
LINE
8
0
10
64.782200
20
275.618000
11
52.082200
21
275.618000
0
LINE
8
0
10
52.082200
20
275.618000
11
51.587165
21
275.412948
0
LINE
8
0
10
51.587200
20
275.413000
11
51.382148
21
274.918230
0
LINE
8
0
10
51.382100
20
274.918000
11
51.382100
21
274.268000
0
LINE
8
0
10
51.382100
20
274.268000
11
50.952946
21
274.033315
0
LINE
8
0
10
50.953000
20
274.033000
11
50.782079
21
273.574742
0
LINE
8
0
10
50.782100
20
273.575000
11
50.782100
21
264.961000
0
LINE
8
0
10
61.782100
20
283.961000
11
61.953021
21
283.502742
0
LINE
8
0
10
61.953000
20
283.502000
11
62.382154
21
283.267579
0
LINE
8
0
10
62.382200
20
283.268000
11
62.382200
21
281.218000
0
LINE
8
0
10
62.382200
20
281.218000
11
62.587252
21
280.722965
0
LINE
8
0
10
62.587200
20
280.723000
11
63.081970
21
280.517948
0
LINE
8
0
10
63.082000
20
280.518000
11
75.782000
21
280.518000
0
LINE
8
0
10
75.782000
20
280.518000
11
76.277035
21
280.723052
0
LINE
8
0
10
76.277000
20
280.723000
11
76.482052
21
281.218035
0
LINE
8
0
10
76.482100
20
281.218000
11
76.482100
21
283.268000
0
LINE
8
0
10
76.482100
20
283.268000
11
76.911254
21
283.502421
0
LINE
8
0
10
76.911200
20
283.502000
11
77.082121
21
283.960258
0
LINE
8
0
10
77.082100
20
283.961000
11
77.082100
21
292.575000
0
LINE
8
0
10
77.082100
20
292.575000
11
76.911179
21
293.033258
0
LINE
8
0
10
76.911200
20
293.033000
11
76.482046
21
293.267421
0
LINE
8
0
10
76.482100
20
293.268000
11
76.482100
21
293.918000
0
LINE
8
0
10
76.482100
20
293.918000
11
76.277048
21
294.412770
0
LINE
8
0
10
76.277000
20
294.413000
11
75.781965
21
294.618052
0
LINE
8
0
10
75.782000
20
294.618000
11
63.082000
21
294.618000
0
LINE
8
0
10
63.082000
20
294.618000
11
62.587230
21
294.412948
0
LINE
8
0
10
62.587200
20
294.413000
11
62.382148
21
293.918230
0
LINE
8
0
10
62.382200
20
293.918000
11
62.382200
21
293.268000
0
LINE
8
0
10
62.382200
20
293.268000
11
61.953046
21
293.033315
0
LINE
8
0
10
61.953000
20
293.033000
11
61.782079
21
292.574742
0
LINE
8
0
10
61.782100
20
292.575000
11
61.782100
21
283.961000
0
LINE
8
0
10
27.482300
20
264.268000
11
27.482300
21
262.218000
0
LINE
8
0
10
27.482300
20
262.218000
11
27.277248
21
261.722965
0
LINE
8
0
10
27.277300
20
261.723000
11
26.782265
21
261.517948
0
LINE
8
0
10
26.782300
20
261.518000
11
14.082300
21
261.518000
0
LINE
8
0
10
14.082300
20
261.518000
11
13.587318
21
261.723052
0
LINE
8
0
10
13.587300
20
261.723000
11
13.382300
21
262.218000
0
LINE
8
0
10
13.382300
20
262.218000
11
13.382300
21
264.268000
0
LINE
8
0
10
13.382300
20
264.268000
11
12.953146
21
264.502421
0
LINE
8
0
10
12.953100
20
264.502000
11
12.782300
21
264.961000
0
LINE
8
0
10
12.782300
20
264.961000
11
12.782300
21
273.575000
0
LINE
8
0
10
12.782300
20
273.575000
11
12.953141
21
274.033258
0
LINE
8
0
10
12.953100
20
274.033000
11
13.382254
21
274.267685
0
LINE
8
0
10
13.382300
20
274.268000
11
13.382300
21
274.918000
0
LINE
8
0
10
13.382300
20
274.918000
11
13.587325
21
275.412770
0
LINE
8
0
10
13.587300
20
275.413000
11
14.082282
21
275.618052
0
LINE
8
0
10
14.082300
20
275.618000
11
26.782300
21
275.618000
0
LINE
8
0
10
26.782300
20
275.618000
11
27.277335
21
275.412948
0
LINE
8
0
10
27.277300
20
275.413000
11
27.482352
21
274.918230
0
LINE
8
0
10
27.482300
20
274.918000
11
27.482300
21
274.268000
0
LINE
8
0
10
27.482300
20
274.268000
11
27.911454
21
274.033315
0
LINE
8
0
10
27.911500
20
274.033000
11
28.082156
21
273.574742
0
LINE
8
0
10
28.082200
20
273.575000
11
28.082200
21
264.961000
0
LINE
8
0
10
28.082200
20
264.961000
11
27.911544
21
264.502742
0
LINE
8
0
10
27.911500
20
264.503000
11
27.482346
21
264.268315
0
LINE
8
0
10
27.482300
20
264.268000
11
27.482300
21
264.268000
0
LINE
8
0
10
62.232100
20
226.267000
11
62.232100
21
224.217000
0
LINE
8
0
10
62.232100
20
224.217000
11
62.027048
21
223.722230
0
LINE
8
0
10
62.027100
20
223.722000
11
61.532065
21
223.518271
0
LINE
8
0
10
61.532100
20
223.518000
11
48.832100
21
223.518000
0
LINE
8
0
10
48.832100
20
223.518000
11
48.337065
21
223.721729
0
LINE
8
0
10
48.337000
20
223.722000
11
48.132213
21
224.216770
0
LINE
8
0
10
48.132300
20
224.217000
11
48.132300
21
226.267000
0
LINE
8
0
10
48.132300
20
226.267000
11
47.703146
21
226.502479
0
LINE
8
0
10
47.703100
20
226.503000
11
47.532179
21
226.960729
0
LINE
8
0
10
47.532200
20
226.960000
11
47.532200
21
235.575000
0
LINE
8
0
10
47.532200
20
235.575000
11
47.703121
21
236.032729
0
LINE
8
0
10
47.703100
20
236.033000
11
48.132254
21
236.268479
0
LINE
8
0
10
48.132300
20
236.268000
11
48.132300
21
236.917000
0
LINE
8
0
10
48.132300
20
236.917000
11
48.337087
21
237.414416
0
LINE
8
0
10
48.337000
20
237.414000
11
48.832035
21
237.617729
0
LINE
8
0
10
48.832100
20
237.618000
11
61.532100
21
237.618000
0
LINE
8
0
10
61.532100
20
237.618000
11
62.027135
21
237.414271
0
LINE
8
0
10
62.027100
20
237.414000
11
62.232152
21
236.919230
0
LINE
8
0
10
62.232100
20
236.919000
11
62.232100
21
236.268000
0
LINE
8
0
10
62.232100
20
236.268000
11
62.661254
21
236.032521
0
LINE
8
0
10
62.661300
20
236.033000
11
62.832221
21
235.575271
0
LINE
8
0
10
62.832200
20
235.575000
11
62.832200
21
226.960000
0
LINE
8
0
10
62.832200
20
226.960000
11
62.661279
21
226.502271
0
LINE
8
0
10
62.661300
20
226.503000
11
62.232146
21
226.267521
0
LINE
8
0
10
62.232100
20
226.267000
11
62.232100
21
226.267000
0
LINE
8
0
10
54.482200
20
245.267000
11
54.482200
21
243.219000
0
LINE
8
0
10
54.482200
20
243.219000
11
54.277148
21
242.724230
0
LINE
8
0
10
54.277200
20
242.724000
11
53.782165
21
242.517625
0
LINE
8
0
10
53.782200
20
242.518000
11
41.082200
21
242.518000
0
LINE
8
0
10
41.082200
20
242.518000
11
40.587165
21
242.724375
0
LINE
8
0
10
40.587100
20
242.724000
11
40.382313
21
243.218770
0
LINE
8
0
10
40.382400
20
243.219000
11
40.382400
21
245.267000
0
LINE
8
0
10
40.382400
20
245.267000
11
39.953246
21
245.502479
0
LINE
8
0
10
39.953200
20
245.502000
11
39.782279
21
245.959729
0
LINE
8
0
10
39.782300
20
245.960000
11
39.782300
21
254.575000
0
LINE
8
0
10
39.782300
20
254.575000
11
39.953221
21
255.033258
0
LINE
8
0
10
39.953200
20
255.033000
11
40.382354
21
255.267685
0
LINE
8
0
10
40.382400
20
255.268000
11
40.382400
21
255.918000
0
LINE
8
0
10
40.382400
20
255.918000
11
40.587187
21
256.413035
0
LINE
8
0
10
40.587100
20
256.413000
11
41.082135
21
256.618052
0
LINE
8
0
10
41.082200
20
256.618000
11
53.782200
21
256.618000
0
LINE
8
0
10
53.782200
20
256.618000
11
54.277235
21
256.412948
0
LINE
8
0
10
54.277200
20
256.413000
11
54.482252
21
255.917965
0
LINE
8
0
10
54.482200
20
255.918000
11
54.482200
21
255.268000
0
LINE
8
0
10
54.482200
20
255.268000
11
54.911354
21
255.033579
0
LINE
8
0
10
54.911400
20
255.033000
11
55.082056
21
254.574742
0
LINE
8
0
10
55.082100
20
254.575000
11
55.082100
21
245.960000
0
LINE
8
0
10
55.082100
20
245.960000
11
54.911444
21
245.502271
0
LINE
8
0
10
54.911400
20
245.502000
11
54.482246
21
245.266521
0
LINE
8
0
10
54.482200
20
245.267000
11
54.482200
21
245.267000
0
LINE
8
0
10
35.482300
20
245.267000
11
35.482300
21
243.219000
0
LINE
8
0
10
35.482300
20
243.219000
11
35.277248
21
242.724230
0
LINE
8
0
10
35.277200
20
242.724000
11
34.782165
21
242.517625
0
LINE
8
0
10
34.782200
20
242.518000
11
22.082200
21
242.518000
0
LINE
8
0
10
22.082200
20
242.518000
11
21.587165
21
242.724375
0
LINE
8
0
10
21.587200
20
242.724000
11
21.382413
21
243.218770
0
LINE
8
0
10
21.382400
20
243.219000
11
21.382400
21
245.267000
0
LINE
8
0
10
21.382400
20
245.267000
11
20.953114
21
245.502479
0
LINE
8
0
10
20.953100
20
245.502000
11
20.782259
21
245.959729
0
LINE
8
0
10
20.782300
20
245.960000
11
20.782300
21
254.575000
0
LINE
8
0
10
20.782300
20
254.575000
11
20.953141
21
255.033258
0
LINE
8
0
10
20.953100
20
255.033000
11
21.382386
21
255.267685
0
LINE
8
0
10
21.382400
20
255.268000
11
21.382400
21
255.918000
0
LINE
8
0
10
21.382400
20
255.918000
11
21.587187
21
256.413035
0
LINE
8
0
10
21.587200
20
256.413000
11
22.082235
21
256.618052
0
LINE
8
0
10
22.082200
20
256.618000
11
34.782200
21
256.618000
0
LINE
8
0
10
34.782200
20
256.618000
11
35.277235
21
256.412948
0
LINE
8
0
10
35.277200
20
256.413000
11
35.482252
21
255.917965
0
LINE
8
0
10
35.482300
20
255.918000
11
35.482300
21
255.268000
0
LINE
8
0
10
35.482300
20
255.268000
11
35.911454
21
255.033579
0
LINE
8
0
10
35.911400
20
255.033000
11
36.082321
21
254.574742
0
LINE
8
0
10
36.082300
20
254.575000
11
36.082300
21
245.960000
0
LINE
8
0
10
36.082300
20
245.960000
11
35.911379
21
245.502271
0
LINE
8
0
10
35.911400
20
245.502000
11
35.482246
21
245.266521
0
LINE
8
0
10
35.482300
20
245.267000
11
35.482300
21
245.267000
0
LINE
8
0
10
90.732000
20
226.267000
11
90.732000
21
224.217000
0
LINE
8
0
10
90.732000
20
224.217000
11
90.527213
21
223.722230
0
LINE
8
0
10
90.527200
20
223.722000
11
90.032165
21
223.518271
0
LINE
8
0
10
90.032100
20
223.518000
11
77.332200
21
223.518000
0
LINE
8
0
10
77.332200
20
223.518000
11
76.837165
21
223.721729
0
LINE
8
0
10
76.837100
20
223.722000
11
76.632048
21
224.216770
0
LINE
8
0
10
76.632100
20
224.217000
11
76.632100
21
226.267000
0
LINE
8
0
10
76.632100
20
226.267000
11
76.202946
21
226.502479
0
LINE
8
0
10
76.202900
20
226.503000
11
76.031979
21
226.960729
0
LINE
8
0
10
76.032000
20
226.960000
11
76.032000
21
235.575000
0
LINE
8
0
10
76.032000
20
235.575000
11
76.202921
21
236.032729
0
LINE
8
0
10
76.202900
20
236.033000
11
76.632054
21
236.268479
0
LINE
8
0
10
76.632100
20
236.268000
11
76.632100
21
236.917000
0
LINE
8
0
10
76.632100
20
236.917000
11
76.837152
21
237.414416
0
LINE
8
0
10
76.837100
20
237.414000
11
77.332135
21
237.617729
0
LINE
8
0
10
77.332200
20
237.618000
11
90.032100
21
237.618000
0
LINE
8
0
10
90.032100
20
237.618000
11
90.526870
21
237.414271
0
LINE
8
0
10
90.526900
20
237.414000
11
90.731952
21
236.919230
0
LINE
8
0
10
90.732000
20
236.919000
11
90.732000
21
236.268000
0
LINE
8
0
10
90.732000
20
236.268000
11
91.161154
21
236.032521
0
LINE
8
0
10
91.161100
20
236.033000
11
91.332021
21
235.575271
0
LINE
8
0
10
91.332000
20
235.575000
11
91.332000
21
226.960000
0
LINE
8
0
10
91.332000
20
226.960000
11
91.161079
21
226.502271
0
LINE
8
0
10
91.161100
20
226.503000
11
90.731946
21
226.267521
0
LINE
8
0
10
90.732000
20
226.267000
11
90.732000
21
226.267000
0
LINE
8
Layer 1
10
0.793749
20
297.794000
11
-0.793749
21
296.206000
0
LINE
8
Layer 1
10
0.000000
20
298.323000
11
0.000000
21
295.677000
0
LINE
8
Layer 1
10
2.116660
20
295.942000
11
1.058330
21
294.884000
0
LINE
8
Layer 1
10
1.587500
20
296.471000
11
0.529169
21
295.413000
0
LINE
8
Layer 1
10
1.058330
20
297.000000
11
0.000000
21
295.942000
 0 
ENDSEC
 0 
EOF