  0
SECTION
  2
HEADER
  9
$ACADVER
  1
AC1014
  9
$HANDSEED
  5
FFFF
  9
$INSUNITS
 70
     4
  9
$MEASUREMENT
 70
     1
  0
ENDSEC
  0
SECTION
  2
TABLES
  0
TABLE
  2
VPORT
  5
8
330
0
100
AcDbSymbolTable
 70
     4
  0
VPORT
  5
2E
330
8
100
AcDbSymbolTableRecord
100
AcDbViewportTableRecord
  2
*ACTIVE
 70
     0
 10
0.0
 20
0.0
 11
1.0
 21
1.0
 12
210.0
 22
148.5
 13
0.0
 23
0.0
 14
10.0
 24
10.0
 15
10.0
 25
10.0
 16
0.0
 26
0.0
 36
1.0
 17
0.0
 27
0.0
 37
0.0
 40
341.0
 41
1.24
 42
50.0
 43
0.0
 44
0.0
 50
0.0
 51
0.0
 71
     0
 72
   100
 73
     1
 74
     3
 75
     0
 76
     0
 77
     0
 78
     0
  0
ENDTAB
  0
TABLE
  2
LTYPE
  5
5
330
0
100
AcDbSymbolTable
 70
     1
  0
LTYPE
  5
14
330
5
100
AcDbSymbolTableRecord
100
AcDbLinetypeTableRecord
  2
BYBLOCK
 70
     0
  3

 72
    65
 73
     0
 40
0.0
  0
LTYPE
  5
15
330
5
100
AcDbSymbolTableRecord
100
AcDbLinetypeTableRecord
  2
BYLAYER
 70
     0
  3

 72
    65
 73
     0
 40
0.0
  0
LTYPE
  5
16
330
5
100
AcDbSymbolTableRecord
100
AcDbLinetypeTableRecord
  2
CONTINUOUS
 70
     0
  3
Solid line
 72
    65
 73
     0
 40
0.0
  0
ENDTAB
  0
TABLE
  2
LAYER
  5
2
100
AcDbSymbolTable
 70
1
  0
LAYER
  5
50
100
AcDbSymbolTableRecord
100
AcDbLayerTableRecord
  2
0
 70
0
  6
CONTINUOUS
  0
ENDTAB
  0
TABLE
  2
STYLE
  5
3
330
0
100
AcDbSymbolTable
 70
     1
  0
STYLE
  5
11
330
3
100
AcDbSymbolTableRecord
100
AcDbTextStyleTableRecord
  2
STANDARD
 70
     0
 40
0.0
 41
1.0
 50
0.0
 71
     0
 42
2.5
  3
txt
  4

  0
ENDTAB
  0
TABLE
  2
VIEW
  5
6
330
0
100
AcDbSymbolTable
 70
     0
  0
ENDTAB
  0
TABLE
  2
UCS
  5
7
330
0
100
AcDbSymbolTable
 70
     0
  0
ENDTAB
  0
TABLE
  2
APPID
  5
9
330
0
100
AcDbSymbolTable
 70
     2
  0
APPID
  5
12
330
9
100
AcDbSymbolTableRecord
100
AcDbRegAppTableRecord
  2
ACAD
 70
     0
  0
ENDTAB
  0
TABLE
  2
DIMSTYLE
  5
A
330
0
100
AcDbSymbolTable
 70
     1
  0
DIMSTYLE
105
27
330
A
100
AcDbSymbolTableRecord
100
AcDbDimStyleTableRecord
  2
ISO-25
 70
     0
  3

  4

  5

  6

  7

 40
1.0
 41
2.5
 42
0.625
 43
3.75
 44
1.25
 45
0.0
 46
0.0
 47
0.0
 48
0.0
140
2.5
141
2.5
142
0.0
143
0.03937007874016
144
1.0
145
0.0
146
1.0
147
0.625
 71
     0
 72
     0
 73
     0
 74
     0
 75
     0
 76
     0
 77
     1
 78
     8
170
     0
171
     3
172
     1
173
     0
174
     0
175
     0
176
     0
177
     0
178
     0
270
     2
271
     2
272
     2
273
     2
274
     3
340
11
275
     0
280
     0
281
     0
282
     0
283
     0
284
     8
285
     0
286
     0
287
     3
288
     0
  0
ENDTAB
  0
TABLE
  2
BLOCK_RECORD
  5
1
330
0
100
AcDbSymbolTable
 70
     1
  0
BLOCK_RECORD
  5
1F
330
1
100
AcDbSymbolTableRecord
100
AcDbBlockTableRecord
  2
*MODEL_SPACE
  0
BLOCK_RECORD
  5
1B
330
1
100
AcDbSymbolTableRecord
100
AcDbBlockTableRecord
  2
*PAPER_SPACE
  0
ENDTAB
  0
ENDSEC
  0
SECTION
  2
BLOCKS
  0
BLOCK
  5
20
330
1F
100
AcDbEntity
  8
0
100
AcDbBlockBegin
  2
*MODEL_SPACE
 70
     0
 10
0.0
 20
0.0
 30
0.0
  3
*MODEL_SPACE
  1

  0
ENDBLK
  5
21
330
1F
100
AcDbEntity
  8
0
100
AcDbBlockEnd
  0
BLOCK
  5
1C
330
1B
100
AcDbEntity
 67
     1
  8
0
100
AcDbBlockBegin
  2
*PAPER_SPACE
  1

  0
ENDBLK
  5
1D
330
1B
100
AcDbEntity
 67
     1
  8
0
100
AcDbBlockEnd
  0
ENDSEC
  0
SECTION
  2
ENTITIES
  0
LWPOLYLINE
  5
100
100
AcDbEntity
  8
0
 62
7
100
AcDbPolyline
 90
3
 70
0
 10
97.336202
 20
296.002706
 30
0.0
 10
97.260157
 20
296.383963
 30
0.0
 10
97.044076
 20
296.707045
 30
0.0
  0
LWPOLYLINE
  5
101
100
AcDbEntity
  8
0
 62
7
100
AcDbPolyline
 90
2
 70
0
 10
97.044076
 20
296.708084
 30
0.0
 10
96.720373
 20
296.924164
 30
0.0
  0
LWPOLYLINE
  5
102
100
AcDbEntity
  8
0
 62
7
100
AcDbPolyline
 90
9
 70
0
 10
96.720267
 20
296.924164
 30
0.0
 10
96.338700
 20
297.000000
 30
0.0
 10
0.997284
 20
297.000000
 30
0.0
 10
0.615628
 20
296.924164
 30
0.0
 10
0.292101
 20
296.708084
 30
0.0
 10
0.075915
 20
296.383963
 30
0.0
 10
0.000000
 20
296.002706
 30
0.0
 10
0.000000
 20
230.878373
 30
0.0
 10
0.179853
 20
229.063505
 30
0.0
  0
LWPOLYLINE
  5
103
100
AcDbEntity
  8
0
 62
7
100
AcDbPolyline
 90
6
 70
0
 10
0.179852
 20
229.062466
 30
0.0
 10
0.706003
 20
227.328629
 30
0.0
 10
1.558272
 20
225.732959
 30
0.0
 10
2.716514
 20
224.321164
 30
0.0
 10
4.129129
 20
223.162849
 30
0.0
 10
5.725496
 20
222.309957
 30
0.0
  0
LWPOLYLINE
  5
104
100
AcDbEntity
  8
0
 62
7
100
AcDbPolyline
 90
6
 70
0
 10
5.725496
 20
222.310994
 30
0.0
 10
7.456933
 20
221.785336
 30
0.0
 10
9.274792
 20
221.605617
 30
0.0
 10
88.060640
 20
221.605617
 30
0.0
 10
89.878728
 20
221.785336
 30
0.0
 10
91.610176
 20
222.309957
 30
0.0
  0
LWPOLYLINE
  5
105
100
AcDbEntity
  8
0
 62
7
100
AcDbPolyline
 90
5
 70
0
 10
91.610279
 20
222.310994
 30
0.0
 10
93.206366
 20
223.162849
 30
0.0
 10
94.619199
 20
224.321164
 30
0.0
 10
95.777514
 20
225.732959
 30
0.0
 10
96.629577
 20
227.328629
 30
0.0
  0
LWPOLYLINE
  5
106
100
AcDbEntity
  8
0
 62
7
100
AcDbPolyline
 90
3
 70
0
 10
96.629471
 20
227.328629
 30
0.0
 10
97.155649
 20
229.062466
 30
0.0
 10
97.335682
 20
230.877334
 30
0.0
  0
LWPOLYLINE
  5
107
100
AcDbEntity
  8
0
 62
7
100
AcDbPolyline
 90
2
 70
0
 10
97.335576
 20
230.878373
 30
0.0
 10
97.336104
 20
296.002706
 30
0.0
  0
LWPOLYLINE
  5
108
100
AcDbEntity
  8
0
 62
7
100
AcDbPolyline
 90
3
 70
0
 10
80.431549
 20
284.127636
 30
0.0
 10
80.602024
 20
283.670543
 30
0.0
 10
81.030029
 20
283.436802
 30
0.0
  0
LWPOLYLINE
  5
109
100
AcDbEntity
  8
0
 62
7
100
AcDbPolyline
 90
7
 70
0
 10
81.029927
 20
283.436802
 30
0.0
 10
81.029927
 20
281.392350
 30
0.0
 10
81.234475
 20
280.898897
 30
0.0
 10
81.727927
 20
280.694244
 30
0.0
 10
94.394079
 20
280.694244
 30
0.0
 10
94.887739
 20
280.898897
 30
0.0
 10
95.092185
 20
281.392350
 30
0.0
  0
LWPOLYLINE
  5
10a
100
AcDbEntity
  8
0
 62
7
100
AcDbPolyline
 90
3
 70
0
 10
95.092288
 20
281.392350
 30
0.0
 10
95.092288
 20
283.436802
 30
0.0
 10
95.520294
 20
283.670543
 30
0.0
  0
LWPOLYLINE
  5
10b
100
AcDbEntity
  8
0
 62
7
100
AcDbPolyline
 90
4
 70
0
 10
95.520191
 20
283.670543
 30
0.0
 10
95.690457
 20
284.127636
 30
0.0
 10
95.690457
 20
292.718908
 30
0.0
 10
95.520294
 20
293.176001
 30
0.0
  0
LWPOLYLINE
  5
10c
100
AcDbEntity
  8
0
 62
7
100
AcDbPolyline
 90
2
 70
0
 10
95.520191
 20
293.174962
 30
0.0
 10
95.092185
 20
293.409742
 30
0.0
  0
LWPOLYLINE
  5
10d
100
AcDbEntity
  8
0
 62
7
100
AcDbPolyline
 90
7
 70
0
 10
95.092288
 20
293.409742
 30
0.0
 10
95.092288
 20
294.057983
 30
0.0
 10
94.887739
 20
294.551436
 30
0.0
 10
94.394079
 20
294.756089
 30
0.0
 10
81.727927
 20
294.756089
 30
0.0
 10
81.234475
 20
294.551436
 30
0.0
 10
81.030029
 20
294.057983
 30
0.0
  0
LWPOLYLINE
  5
10e
100
AcDbEntity
  8
0
 62
7
100
AcDbPolyline
 90
3
 70
0
 10
81.029927
 20
294.057983
 30
0.0
 10
81.029927
 20
293.409742
 30
0.0
 10
80.601921
 20
293.176001
 30
0.0
  0
LWPOLYLINE
  5
10f
100
AcDbEntity
  8
0
 62
7
100
AcDbPolyline
 90
3
 70
0
 10
80.602024
 20
293.174962
 30
0.0
 10
80.431549
 20
292.718908
 30
0.0
 10
80.431549
 20
284.127636
 30
0.0
  0
LWPOLYLINE
  5
110
100
AcDbEntity
  8
0
 62
7
100
AcDbPolyline
 90
3
 70
0
 10
19.896014
 20
292.718908
 30
0.0
 10
19.896014
 20
284.127636
 30
0.0
 10
19.725643
 20
283.670543
 30
0.0
  0
LWPOLYLINE
  5
111
100
AcDbEntity
  8
0
 62
7
100
AcDbPolyline
 90
13
 70
0
 10
19.725539
 20
283.670543
 30
0.0
 10
19.297638
 20
283.436802
 30
0.0
 10
19.297638
 20
281.392350
 30
0.0
 10
19.093089
 20
280.898897
 30
0.0
 10
18.599532
 20
280.694244
 30
0.0
 10
5.933899
 20
280.694244
 30
0.0
 10
5.440259
 20
280.898897
 30
0.0
 10
5.235783
 20
281.392350
 30
0.0
 10
5.235783
 20
283.436802
 30
0.0
 10
4.807788
 20
283.670543
 30
0.0
 10
4.637407
 20
284.127636
 30
0.0
 10
4.637407
 20
292.718908
 30
0.0
 10
4.807788
 20
293.176001
 30
0.0
  0
LWPOLYLINE
  5
112
100
AcDbEntity
  8
0
 62
7
100
AcDbPolyline
 90
7
 70
0
 10
4.807788
 20
293.174962
 30
0.0
 10
5.235783
 20
293.409742
 30
0.0
 10
5.235783
 20
294.057983
 30
0.0
 10
5.440249
 20
294.551436
 30
0.0
 10
5.933899
 20
294.756089
 30
0.0
 10
18.599532
 20
294.756089
 30
0.0
 10
19.093193
 20
294.551436
 30
0.0
  0
LWPOLYLINE
  5
113
100
AcDbEntity
  8
0
 62
7
100
AcDbPolyline
 90
2
 70
0
 10
19.093089
 20
294.551436
 30
0.0
 10
19.297534
 20
294.057983
 30
0.0
  0
LWPOLYLINE
  5
114
100
AcDbEntity
  8
0
 62
7
100
AcDbPolyline
 90
3
 70
0
 10
19.297638
 20
294.057983
 30
0.0
 10
19.297638
 20
293.409742
 30
0.0
 10
19.725643
 20
293.176001
 30
0.0
  0
LWPOLYLINE
  5
115
100
AcDbEntity
  8
0
 62
7
100
AcDbPolyline
 90
3
 70
0
 10
19.725539
 20
293.174962
 30
0.0
 10
19.896014
 20
292.718908
 30
0.0
 10
19.896014
 20
292.718908
 30
0.0
  0
LWPOLYLINE
  5
116
100
AcDbEntity
  8
0
 62
7
100
AcDbPolyline
 90
3
 70
0
 10
42.534380
 20
284.127636
 30
0.0
 10
42.534380
 20
292.718908
 30
0.0
 10
42.704854
 20
293.176001
 30
0.0
  0
LWPOLYLINE
  5
117
100
AcDbEntity
  8
0
 62
7
100
AcDbPolyline
 90
4
 70
0
 10
42.704854
 20
293.174962
 30
0.0
 10
43.132860
 20
293.409742
 30
0.0
 10
43.132860
 20
294.057983
 30
0.0
 10
43.337408
 20
294.551436
 30
0.0
  0
LWPOLYLINE
  5
118
100
AcDbEntity
  8
0
 62
7
100
AcDbPolyline
 90
4
 70
0
 10
43.337306
 20
294.551436
 30
0.0
 10
43.830757
 20
294.756089
 30
0.0
 10
56.496389
 20
294.756089
 30
0.0
 10
56.990155
 20
294.551436
 30
0.0
  0
LWPOLYLINE
  5
119
100
AcDbEntity
  8
0
 62
7
100
AcDbPolyline
 90
4
 70
0
 10
56.990050
 20
294.551436
 30
0.0
 10
57.194601
 20
294.057983
 30
0.0
 10
57.194601
 20
293.409742
 30
0.0
 10
57.622604
 20
293.176001
 30
0.0
  0
LWPOLYLINE
  5
11a
100
AcDbEntity
  8
0
 62
7
100
AcDbPolyline
 90
2
 70
0
 10
57.622604
 20
293.174962
 30
0.0
 10
57.792976
 20
292.718908
 30
0.0
  0
LWPOLYLINE
  5
11b
100
AcDbEntity
  8
0
 62
7
100
AcDbPolyline
 90
6
 70
0
 10
57.793081
 20
292.718908
 30
0.0
 10
57.793081
 20
284.127636
 30
0.0
 10
57.622604
 20
283.670543
 30
0.0
 10
57.194601
 20
283.436802
 30
0.0
 10
57.194601
 20
281.392350
 30
0.0
 10
56.990155
 20
280.898897
 30
0.0
  0
LWPOLYLINE
  5
11c
100
AcDbEntity
  8
0
 62
7
100
AcDbPolyline
 90
9
 70
0
 10
56.990050
 20
280.898897
 30
0.0
 10
56.496389
 20
280.694244
 30
0.0
 10
43.830757
 20
280.694244
 30
0.0
 10
43.337306
 20
280.898897
 30
0.0
 10
43.132860
 20
281.392350
 30
0.0
 10
43.132860
 20
283.436802
 30
0.0
 10
42.704854
 20
283.670543
 30
0.0
 10
42.534380
 20
284.127636
 30
0.0
 10
42.534380
 20
284.127636
 30
0.0
  0
LWPOLYLINE
  5
11d
100
AcDbEntity
  8
0
 62
7
100
AcDbPolyline
 90
4
 70
0
 10
38.844496
 20
292.718908
 30
0.0
 10
38.844496
 20
284.127636
 30
0.0
 10
38.674019
 20
283.670543
 30
0.0
 10
38.246119
 20
283.436802
 30
0.0
  0
LWPOLYLINE
  5
11e
100
AcDbEntity
  8
0
 62
7
100
AcDbPolyline
 90
7
 70
0
 10
38.246016
 20
283.436802
 30
0.0
 10
38.246016
 20
281.392350
 30
0.0
 10
38.041776
 20
280.898897
 30
0.0
 10
37.548116
 20
280.694244
 30
0.0
 10
24.882484
 20
280.694244
 30
0.0
 10
24.388824
 20
280.898897
 30
0.0
 10
24.184378
 20
281.392350
 30
0.0
  0
LWPOLYLINE
  5
11f
100
AcDbEntity
  8
0
 62
7
100
AcDbPolyline
 90
3
 70
0
 10
24.184274
 20
281.392350
 30
0.0
 10
24.184274
 20
283.436802
 30
0.0
 10
23.756269
 20
283.670543
 30
0.0
  0
LWPOLYLINE
  5
120
100
AcDbEntity
  8
0
 62
7
100
AcDbPolyline
 90
2
 70
0
 10
23.756373
 20
283.670543
 30
0.0
 10
23.585898
 20
284.127636
 30
0.0
  0
LWPOLYLINE
  5
121
100
AcDbEntity
  8
0
 62
7
100
AcDbPolyline
 90
3
 70
0
 10
23.585794
 20
284.127636
 30
0.0
 10
23.585794
 20
292.718908
 30
0.0
 10
23.756269
 20
293.176001
 30
0.0
  0
LWPOLYLINE
  5
122
100
AcDbEntity
  8
0
 62
7
100
AcDbPolyline
 90
2
 70
0
 10
23.756373
 20
293.174962
 30
0.0
 10
24.184378
 20
293.409742
 30
0.0
  0
LWPOLYLINE
  5
123
100
AcDbEntity
  8
0
 62
7
100
AcDbPolyline
 90
9
 70
0
 10
24.184274
 20
293.409742
 30
0.0
 10
24.184274
 20
294.057983
 30
0.0
 10
24.388824
 20
294.551436
 30
0.0
 10
24.882484
 20
294.756089
 30
0.0
 10
37.548116
 20
294.756089
 30
0.0
 10
38.041776
 20
294.551436
 30
0.0
 10
38.246016
 20
294.057983
 30
0.0
 10
38.246016
 20
293.409742
 30
0.0
 10
38.674019
 20
293.176001
 30
0.0
  0
LWPOLYLINE
  5
124
100
AcDbEntity
  8
0
 62
7
100
AcDbPolyline
 90
3
 70
0
 10
38.674019
 20
293.174962
 30
0.0
 10
38.844496
 20
292.718908
 30
0.0
 10
38.844496
 20
292.718908
 30
0.0
  0
LWPOLYLINE
  5
125
100
AcDbEntity
  8
0
 62
7
100
AcDbPolyline
 90
3
 70
0
 10
31.564353
 20
265.179050
 30
0.0
 10
31.564353
 20
273.770323
 30
0.0
 10
31.734516
 20
274.227416
 30
0.0
  0
LWPOLYLINE
  5
126
100
AcDbEntity
  8
0
 62
7
100
AcDbPolyline
 90
4
 70
0
 10
31.734622
 20
274.226377
 30
0.0
 10
32.162627
 20
274.461157
 30
0.0
 10
32.162627
 20
275.109398
 30
0.0
 10
32.367176
 20
275.602851
 30
0.0
  0
LWPOLYLINE
  5
127
100
AcDbEntity
  8
0
 62
7
100
AcDbPolyline
 90
5
 70
0
 10
32.367070
 20
275.602851
 30
0.0
 10
32.860731
 20
275.807504
 30
0.0
 10
45.526365
 20
275.807504
 30
0.0
 10
46.019817
 20
275.602851
 30
0.0
 10
46.224366
 20
275.109398
 30
0.0
  0
LWPOLYLINE
  5
128
100
AcDbEntity
  8
0
 62
7
100
AcDbPolyline
 90
3
 70
0
 10
46.224263
 20
275.109398
 30
0.0
 10
46.224263
 20
274.461157
 30
0.0
 10
46.652269
 20
274.227416
 30
0.0
  0
LWPOLYLINE
  5
129
100
AcDbEntity
  8
0
 62
7
100
AcDbPolyline
 90
4
 70
0
 10
46.652372
 20
274.226377
 30
0.0
 10
46.822743
 20
273.770323
 30
0.0
 10
46.822743
 20
265.179050
 30
0.0
 10
46.652269
 20
264.721958
 30
0.0
  0
LWPOLYLINE
  5
12a
100
AcDbEntity
  8
0
 62
7
100
AcDbPolyline
 90
2
 70
0
 10
46.652372
 20
264.722997
 30
0.0
 10
46.224366
 20
264.488217
 30
0.0
  0
LWPOLYLINE
  5
12b
100
AcDbEntity
  8
0
 62
7
100
AcDbPolyline
 90
10
 70
0
 10
46.224263
 20
264.488217
 30
0.0
 10
46.224263
 20
262.443764
 30
0.0
 10
46.019817
 20
261.950312
 30
0.0
 10
45.526365
 20
261.745658
 30
0.0
 10
32.860731
 20
261.745658
 30
0.0
 10
32.367070
 20
261.950312
 30
0.0
 10
32.162627
 20
262.443764
 30
0.0
 10
32.162627
 20
264.488217
 30
0.0
 10
31.734622
 20
264.721958
 30
0.0
 10
31.564459
 20
265.179050
 30
0.0
  0
LWPOLYLINE
  5
12c
100
AcDbEntity
  8
0
 62
7
100
AcDbPolyline
 90
1
 70
1
 10
31.564353
 20
265.179050
 30
0.0
  0
LWPOLYLINE
  5
12d
100
AcDbEntity
  8
0
 62
7
100
AcDbPolyline
 90
2
 70
0
 10
69.461211
 20
265.179050
 30
0.0
 10
69.631686
 20
264.721958
 30
0.0
  0
LWPOLYLINE
  5
12e
100
AcDbEntity
  8
0
 62
7
100
AcDbPolyline
 90
4
 70
0
 10
69.631686
 20
264.722997
 30
0.0
 10
70.059691
 20
264.488217
 30
0.0
 10
70.059691
 20
262.443764
 30
0.0
 10
70.264240
 20
261.950312
 30
0.0
  0
LWPOLYLINE
  5
12f
100
AcDbEntity
  8
0
 62
7
100
AcDbPolyline
 90
2
 70
0
 10
70.264137
 20
261.950312
 30
0.0
 10
70.757798
 20
261.745658
 30
0.0
  0
LWPOLYLINE
  5
130
100
AcDbEntity
  8
0
 62
7
100
AcDbPolyline
 90
3
 70
0
 10
70.757900
 20
261.745658
 30
0.0
 10
83.423535
 20
261.745658
 30
0.0
 10
83.916987
 20
261.950312
 30
0.0
  0
LWPOLYLINE
  5
131
100
AcDbEntity
  8
0
 62
7
100
AcDbPolyline
 90
5
 70
0
 10
83.916884
 20
261.950312
 30
0.0
 10
84.121433
 20
262.443764
 30
0.0
 10
84.121433
 20
264.488217
 30
0.0
 10
84.549438
 20
264.721958
 30
0.0
 10
84.719810
 20
265.179050
 30
0.0
  0
LWPOLYLINE
  5
132
100
AcDbEntity
  8
0
 62
7
100
AcDbPolyline
 90
3
 70
0
 10
84.719913
 20
265.179050
 30
0.0
 10
84.719913
 20
273.770323
 30
0.0
 10
84.549438
 20
274.227416
 30
0.0
  0
LWPOLYLINE
  5
133
100
AcDbEntity
  8
0
 62
7
100
AcDbPolyline
 90
4
 70
0
 10
84.549438
 20
274.226377
 30
0.0
 10
84.121433
 20
274.461157
 30
0.0
 10
84.121433
 20
275.109398
 30
0.0
 10
83.916987
 20
275.602851
 30
0.0
  0
LWPOLYLINE
  5
134
100
AcDbEntity
  8
0
 62
7
100
AcDbPolyline
 90
2
 70
0
 10
83.916884
 20
275.602851
 30
0.0
 10
83.423430
 20
275.807504
 30
0.0
  0
LWPOLYLINE
  5
135
100
AcDbEntity
  8
0
 62
7
100
AcDbPolyline
 90
3
 70
0
 10
83.423535
 20
275.807504
 30
0.0
 10
70.757900
 20
275.807504
 30
0.0
 10
70.264240
 20
275.602851
 30
0.0
  0
LWPOLYLINE
  5
136
100
AcDbEntity
  8
0
 62
7
100
AcDbPolyline
 90
4
 70
0
 10
70.264137
 20
275.602851
 30
0.0
 10
70.059691
 20
275.109398
 30
0.0
 10
70.059691
 20
274.461157
 30
0.0
 10
69.631686
 20
274.227416
 30
0.0
  0
LWPOLYLINE
  5
137
100
AcDbEntity
  8
0
 62
7
100
AcDbPolyline
 90
3
 70
0
 10
69.631686
 20
274.226377
 30
0.0
 10
69.461211
 20
273.770323
 30
0.0
 10
69.461211
 20
265.179050
 30
0.0
  0
LWPOLYLINE
  5
138
100
AcDbEntity
  8
0
 62
7
100
AcDbPolyline
 90
5
 70
0
 10
58.490979
 20
246.229428
 30
0.0
 10
58.661453
 20
245.773373
 30
0.0
 10
59.089459
 20
245.538595
 30
0.0
 10
59.089459
 20
243.496219
 30
0.0
 10
59.294008
 20
243.002767
 30
0.0
  0
LWPOLYLINE
  5
139
100
AcDbEntity
  8
0
 62
7
100
AcDbPolyline
 90
4
 70
0
 10
59.293905
 20
243.002767
 30
0.0
 10
59.787565
 20
242.797073
 30
0.0
 10
72.453197
 20
242.797073
 30
0.0
 10
72.946857
 20
243.002767
 30
0.0
  0
LWPOLYLINE
  5
13a
100
AcDbEntity
  8
0
 62
7
100
AcDbPolyline
 90
2
 70
0
 10
72.946963
 20
243.002767
 30
0.0
 10
73.151512
 20
243.496219
 30
0.0
  0
LWPOLYLINE
  5
13b
100
AcDbEntity
  8
0
 62
7
100
AcDbPolyline
 90
4
 70
0
 10
73.151406
 20
243.496219
 30
0.0
 10
73.151406
 20
245.538595
 30
0.0
 10
73.579412
 20
245.773373
 30
0.0
 10
73.749680
 20
246.229428
 30
0.0
  0
LWPOLYLINE
  5
13c
100
AcDbEntity
  8
0
 62
7
100
AcDbPolyline
 90
3
 70
0
 10
73.749575
 20
246.229428
 30
0.0
 10
73.749575
 20
254.821738
 30
0.0
 10
73.579412
 20
255.278830
 30
0.0
  0
LWPOLYLINE
  5
13d
100
AcDbEntity
  8
0
 62
7
100
AcDbPolyline
 90
2
 70
0
 10
73.579412
 20
255.277793
 30
0.0
 10
73.151512
 20
255.512571
 30
0.0
  0
LWPOLYLINE
  5
13e
100
AcDbEntity
  8
0
 62
7
100
AcDbPolyline
 90
4
 70
0
 10
73.151406
 20
255.512571
 30
0.0
 10
73.151406
 20
256.160814
 30
0.0
 10
72.946963
 20
256.654266
 30
0.0
 10
72.453300
 20
256.858918
 30
0.0
  0
LWPOLYLINE
  5
13f
100
AcDbEntity
  8
0
 62
7
100
AcDbPolyline
 90
6
 70
0
 10
72.453197
 20
256.858918
 30
0.0
 10
59.787565
 20
256.858918
 30
0.0
 10
59.293905
 20
256.654266
 30
0.0
 10
59.089459
 20
256.160814
 30
0.0
 10
59.089459
 20
255.512571
 30
0.0
 10
58.661453
 20
255.278830
 30
0.0
  0
LWPOLYLINE
  5
140
100
AcDbEntity
  8
0
 62
7
100
AcDbPolyline
 90
3
 70
0
 10
58.661453
 20
255.277793
 30
0.0
 10
58.490979
 20
254.821738
 30
0.0
 10
58.490979
 20
246.229428
 30
0.0
  0
LWPOLYLINE
  5
141
100
AcDbEntity
  8
0
 62
7
100
AcDbPolyline
 90
11
 70
0
 10
1.645525
 20
246.229428
 30
0.0
 10
1.815906
 20
245.773373
 30
0.0
 10
2.243901
 20
245.538595
 30
0.0
 10
2.243901
 20
243.496219
 30
0.0
 10
2.448367
 20
243.002767
 30
0.0
 10
2.942007
 20
242.797073
 30
0.0
 10
15.607650
 20
242.797073
 30
0.0
 10
16.101311
 20
243.002767
 30
0.0
 10
16.305756
 20
243.496219
 30
0.0
 10
16.305756
 20
245.538595
 30
0.0
 10
16.733761
 20
245.773373
 30
0.0
  0
LWPOLYLINE
  5
142
100
AcDbEntity
  8
0
 62
7
100
AcDbPolyline
 90
4
 70
0
 10
16.733657
 20
245.773373
 30
0.0
 10
16.904132
 20
246.229428
 30
0.0
 10
16.904132
 20
254.821738
 30
0.0
 10
16.733761
 20
255.278830
 30
0.0
  0
LWPOLYLINE
  5
143
100
AcDbEntity
  8
0
 62
7
100
AcDbPolyline
 90
10
 70
0
 10
16.733657
 20
255.277793
 30
0.0
 10
16.305756
 20
255.512571
 30
0.0
 10
16.305756
 20
256.160814
 30
0.0
 10
16.101311
 20
256.654266
 30
0.0
 10
15.607650
 20
256.858918
 30
0.0
 10
2.942017
 20
256.858918
 30
0.0
 10
2.448367
 20
256.654266
 30
0.0
 10
2.243891
 20
256.160814
 30
0.0
 10
2.243901
 20
255.512571
 30
0.0
 10
1.815906
 20
255.278830
 30
0.0
  0
LWPOLYLINE
  5
144
100
AcDbEntity
  8
0
 62
7
100
AcDbPolyline
 90
3
 70
0
 10
1.815906
 20
255.277793
 30
0.0
 10
1.645535
 20
254.821738
 30
0.0
 10
1.645525
 20
246.229428
 30
0.0
  0
LWPOLYLINE
  5
145
100
AcDbEntity
  8
0
 62
7
100
AcDbPolyline
 90
2
 70
0
 10
77.439772
 20
246.229428
 30
0.0
 10
77.609935
 20
245.773373
 30
0.0
  0
LWPOLYLINE
  5
146
100
AcDbEntity
  8
0
 62
7
100
AcDbPolyline
 90
2
 70
0
 10
77.610038
 20
245.773373
 30
0.0
 10
78.038044
 20
245.538595
 30
0.0
  0
LWPOLYLINE
  5
147
100
AcDbEntity
  8
0
 62
7
100
AcDbPolyline
 90
9
 70
0
 10
78.037941
 20
245.538595
 30
0.0
 10
78.037941
 20
243.496219
 30
0.0
 10
78.242490
 20
243.002767
 30
0.0
 10
78.736150
 20
242.797073
 30
0.0
 10
91.401782
 20
242.797073
 30
0.0
 10
91.895442
 20
243.002767
 30
0.0
 10
92.099991
 20
243.496219
 30
0.0
 10
92.099991
 20
245.538595
 30
0.0
 10
92.527997
 20
245.773373
 30
0.0
  0
LWPOLYLINE
  5
148
100
AcDbEntity
  8
0
 62
7
100
AcDbPolyline
 90
4
 70
0
 10
92.527894
 20
245.773373
 30
0.0
 10
92.698160
 20
246.229428
 30
0.0
 10
92.698160
 20
254.821738
 30
0.0
 10
92.527997
 20
255.278830
 30
0.0
  0
LWPOLYLINE
  5
149
100
AcDbEntity
  8
0
 62
7
100
AcDbPolyline
 90
4
 70
0
 10
92.527894
 20
255.277793
 30
0.0
 10
92.099991
 20
255.512571
 30
0.0
 10
92.099991
 20
256.160814
 30
0.0
 10
91.895548
 20
256.654266
 30
0.0
  0
LWPOLYLINE
  5
14a
100
AcDbEntity
  8
0
 62
7
100
AcDbPolyline
 90
5
 70
0
 10
91.895442
 20
256.654266
 30
0.0
 10
91.401782
 20
256.858918
 30
0.0
 10
78.736150
 20
256.858918
 30
0.0
 10
78.242490
 20
256.654266
 30
0.0
 10
78.038044
 20
256.160814
 30
0.0
  0
LWPOLYLINE
  5
14b
100
AcDbEntity
  8
0
 62
7
100
AcDbPolyline
 90
3
 70
0
 10
78.037941
 20
256.160814
 30
0.0
 10
78.037941
 20
255.512571
 30
0.0
 10
77.609935
 20
255.278830
 30
0.0
  0
LWPOLYLINE
  5
14c
100
AcDbEntity
  8
0
 62
7
100
AcDbPolyline
 90
2
 70
0
 10
77.610038
 20
255.277793
 30
0.0
 10
77.439875
 20
254.821738
 30
0.0
  0
LWPOLYLINE
  5
14d
100
AcDbEntity
  8
0
 62
7
100
AcDbPolyline
 90
2
 70
0
 10
77.439772
 20
254.821738
 30
0.0
 10
77.439772
 20
246.229428
 30
0.0
  0
LWPOLYLINE
  5
14e
100
AcDbEntity
  8
0
 62
7
100
AcDbPolyline
 90
2
 70
0
 10
50.512729
 20
265.179050
 30
0.0
 10
50.683206
 20
264.721958
 30
0.0
  0
LWPOLYLINE
  5
14f
100
AcDbEntity
  8
0
 62
7
100
AcDbPolyline
 90
2
 70
0
 10
50.683206
 20
264.722997
 30
0.0
 10
51.111212
 20
264.488217
 30
0.0
  0
LWPOLYLINE
  5
150
100
AcDbEntity
  8
0
 62
7
100
AcDbPolyline
 90
7
 70
0
 10
51.111107
 20
264.488217
 30
0.0
 10
51.111107
 20
262.443764
 30
0.0
 10
51.315655
 20
261.950312
 30
0.0
 10
51.809316
 20
261.745658
 30
0.0
 10
64.474950
 20
261.745658
 30
0.0
 10
64.968402
 20
261.950312
 30
0.0
 10
65.172951
 20
262.443764
 30
0.0
  0
LWPOLYLINE
  5
151
100
AcDbEntity
  8
0
 62
7
100
AcDbPolyline
 90
3
 70
0
 10
65.172848
 20
262.443764
 30
0.0
 10
65.172848
 20
264.488217
 30
0.0
 10
65.600854
 20
264.721958
 30
0.0
  0
LWPOLYLINE
  5
152
100
AcDbEntity
  8
0
 62
7
100
AcDbPolyline
 90
4
 70
0
 10
65.600957
 20
264.721958
 30
0.0
 10
65.771328
 20
265.179050
 30
0.0
 10
65.771328
 20
273.770323
 30
0.0
 10
65.600854
 20
274.227416
 30
0.0
  0
LWPOLYLINE
  5
153
100
AcDbEntity
  8
0
 62
7
100
AcDbPolyline
 90
2
 70
0
 10
65.600957
 20
274.226377
 30
0.0
 10
65.172951
 20
274.461157
 30
0.0
  0
LWPOLYLINE
  5
154
100
AcDbEntity
  8
0
 62
7
100
AcDbPolyline
 90
7
 70
0
 10
65.172848
 20
274.461157
 30
0.0
 10
65.172848
 20
275.109398
 30
0.0
 10
64.968402
 20
275.602851
 30
0.0
 10
64.474950
 20
275.807504
 30
0.0
 10
51.809316
 20
275.807504
 30
0.0
 10
51.315655
 20
275.602851
 30
0.0
 10
51.111212
 20
275.109398
 30
0.0
  0
LWPOLYLINE
  5
155
100
AcDbEntity
  8
0
 62
7
100
AcDbPolyline
 90
3
 70
0
 10
51.111107
 20
275.109398
 30
0.0
 10
51.111107
 20
274.461157
 30
0.0
 10
50.683101
 20
274.227416
 30
0.0
  0
LWPOLYLINE
  5
156
100
AcDbEntity
  8
0
 62
7
100
AcDbPolyline
 90
3
 70
0
 10
50.683206
 20
274.226377
 30
0.0
 10
50.512729
 20
273.770323
 30
0.0
 10
50.512729
 20
265.179050
 30
0.0
  0
LWPOLYLINE
  5
157
100
AcDbEntity
  8
0
 62
7
100
AcDbPolyline
 90
5
 70
0
 10
61.482965
 20
284.127636
 30
0.0
 10
61.653439
 20
283.670543
 30
0.0
 10
62.081445
 20
283.436802
 30
0.0
 10
62.081445
 20
281.392350
 30
0.0
 10
62.285993
 20
280.898897
 30
0.0
  0
LWPOLYLINE
  5
158
100
AcDbEntity
  8
0
 62
7
100
AcDbPolyline
 90
4
 70
0
 10
62.285890
 20
280.898897
 30
0.0
 10
62.779342
 20
280.694244
 30
0.0
 10
75.444974
 20
280.694244
 30
0.0
 10
75.938740
 20
280.898897
 30
0.0
  0
LWPOLYLINE
  5
159
100
AcDbEntity
  8
0
 62
7
100
AcDbPolyline
 90
7
 70
0
 10
75.938635
 20
280.898897
 30
0.0
 10
76.143186
 20
281.392350
 30
0.0
 10
76.143186
 20
283.436802
 30
0.0
 10
76.571189
 20
283.670543
 30
0.0
 10
76.741561
 20
284.127636
 30
0.0
 10
76.741561
 20
292.718908
 30
0.0
 10
76.571086
 20
293.176001
 30
0.0
  0
LWPOLYLINE
  5
15a
100
AcDbEntity
  8
0
 62
7
100
AcDbPolyline
 90
4
 70
0
 10
76.571189
 20
293.174962
 30
0.0
 10
76.143186
 20
293.409742
 30
0.0
 10
76.143186
 20
294.057983
 30
0.0
 10
75.938740
 20
294.551436
 30
0.0
  0
LWPOLYLINE
  5
15b
100
AcDbEntity
  8
0
 62
7
100
AcDbPolyline
 90
7
 70
0
 10
75.938635
 20
294.551436
 30
0.0
 10
75.444974
 20
294.756089
 30
0.0
 10
62.779342
 20
294.756089
 30
0.0
 10
62.285890
 20
294.551436
 30
0.0
 10
62.081445
 20
294.057983
 30
0.0
 10
62.081445
 20
293.409742
 30
0.0
 10
61.653439
 20
293.176001
 30
0.0
  0
LWPOLYLINE
  5
15c
100
AcDbEntity
  8
0
 62
7
100
AcDbPolyline
 90
3
 70
0
 10
61.653439
 20
293.174962
 30
0.0
 10
61.482965
 20
292.718908
 30
0.0
 10
61.482965
 20
284.127636
 30
0.0
  0
LWPOLYLINE
  5
15d
100
AcDbEntity
  8
0
 62
7
100
AcDbPolyline
 90
12
 70
0
 10
27.275990
 20
264.488217
 30
0.0
 10
27.275990
 20
262.443764
 30
0.0
 10
27.071544
 20
261.950312
 30
0.0
 10
26.577883
 20
261.745658
 30
0.0
 10
13.912251
 20
261.745658
 30
0.0
 10
13.418590
 20
261.950312
 30
0.0
 10
13.214145
 20
262.443764
 30
0.0
 10
13.214145
 20
264.488217
 30
0.0
 10
12.786140
 20
264.721958
 30
0.0
 10
12.615768
 20
265.179050
 30
0.0
 10
12.615768
 20
273.770323
 30
0.0
 10
12.786140
 20
274.227416
 30
0.0
  0
LWPOLYLINE
  5
15e
100
AcDbEntity
  8
0
 62
7
100
AcDbPolyline
 90
8
 70
0
 10
12.786140
 20
274.226377
 30
0.0
 10
13.214145
 20
274.461157
 30
0.0
 10
13.214145
 20
275.109398
 30
0.0
 10
13.418590
 20
275.602851
 30
0.0
 10
13.912251
 20
275.807504
 30
0.0
 10
26.577883
 20
275.807504
 30
0.0
 10
27.071544
 20
275.602851
 30
0.0
 10
27.276093
 20
275.109398
 30
0.0
  0
LWPOLYLINE
  5
15f
100
AcDbEntity
  8
0
 62
7
100
AcDbPolyline
 90
3
 70
0
 10
27.275990
 20
275.109398
 30
0.0
 10
27.275990
 20
274.461157
 30
0.0
 10
27.703995
 20
274.227416
 30
0.0
  0
LWPOLYLINE
  5
160
100
AcDbEntity
  8
0
 62
7
100
AcDbPolyline
 90
4
 70
0
 10
27.703995
 20
274.226377
 30
0.0
 10
27.874261
 20
273.770323
 30
0.0
 10
27.874261
 20
265.179050
 30
0.0
 10
27.704098
 20
264.721958
 30
0.0
  0
LWPOLYLINE
  5
161
100
AcDbEntity
  8
0
 62
7
100
AcDbPolyline
 90
2
 70
0
 10
27.703995
 20
264.722997
 30
0.0
 10
27.276093
 20
264.488217
 30
0.0
  0
LWPOLYLINE
  5
162
100
AcDbEntity
  8
0
 62
7
100
AcDbPolyline
 90
1
 70
1
 10
27.275990
 20
264.488217
 30
0.0
  0
LWPOLYLINE
  5
163
100
AcDbEntity
  8
0
 62
7
100
AcDbPolyline
 90
6
 70
0
 10
61.931747
 20
226.590007
 30
0.0
 10
61.931747
 20
224.545555
 30
0.0
 10
61.727301
 20
224.052103
 30
0.0
 10
61.233641
 20
223.848488
 30
0.0
 10
48.568009
 20
223.848488
 30
0.0
 10
48.074348
 20
224.052103
 30
0.0
  0
LWPOLYLINE
  5
164
100
AcDbEntity
  8
0
 62
7
100
AcDbPolyline
 90
2
 70
0
 10
48.074243
 20
224.052103
 30
0.0
 10
47.870005
 20
224.545555
 30
0.0
  0
LWPOLYLINE
  5
165
100
AcDbEntity
  8
0
 62
7
100
AcDbPolyline
 90
3
 70
0
 10
47.870108
 20
224.545555
 30
0.0
 10
47.870108
 20
226.590007
 30
0.0
 10
47.442105
 20
226.824788
 30
0.0
  0
LWPOLYLINE
  5
166
100
AcDbEntity
  8
0
 62
7
100
AcDbPolyline
 90
2
 70
0
 10
47.442105
 20
226.825828
 30
0.0
 10
47.271628
 20
227.281880
 30
0.0
  0
LWPOLYLINE
  5
167
100
AcDbEntity
  8
0
 62
7
100
AcDbPolyline
 90
4
 70
0
 10
47.271628
 20
227.280843
 30
0.0
 10
47.271628
 20
235.873153
 30
0.0
 10
47.442105
 20
236.329208
 30
0.0
 10
47.870108
 20
236.565026
 30
0.0
  0
LWPOLYLINE
  5
168
100
AcDbEntity
  8
0
 62
7
100
AcDbPolyline
 90
3
 70
0
 10
47.870108
 20
236.563986
 30
0.0
 10
47.870108
 20
237.211189
 30
0.0
 10
48.074348
 20
237.707758
 30
0.0
  0
LWPOLYLINE
  5
169
100
AcDbEntity
  8
0
 62
7
100
AcDbPolyline
 90
4
 70
0
 10
48.074243
 20
237.706721
 30
0.0
 10
48.568009
 20
237.910333
 30
0.0
 10
61.233641
 20
237.910333
 30
0.0
 10
61.727301
 20
237.707758
 30
0.0
  0
LWPOLYLINE
  5
16a
100
AcDbEntity
  8
0
 62
7
100
AcDbPolyline
 90
2
 70
0
 10
61.727301
 20
237.706721
 30
0.0
 10
61.931850
 20
237.213266
 30
0.0
  0
LWPOLYLINE
  5
16b
100
AcDbEntity
  8
0
 62
7
100
AcDbPolyline
 90
6
 70
0
 10
61.931747
 20
237.213266
 30
0.0
 10
61.931747
 20
236.563986
 30
0.0
 10
62.359752
 20
236.329208
 30
0.0
 10
62.530227
 20
235.873153
 30
0.0
 10
62.530227
 20
227.280843
 30
0.0
 10
62.359752
 20
226.824788
 30
0.0
  0
LWPOLYLINE
  5
16c
100
AcDbEntity
  8
0
 62
7
100
AcDbPolyline
 90
2
 70
0
 10
62.359752
 20
226.825828
 30
0.0
 10
61.931850
 20
226.591047
 30
0.0
  0
LWPOLYLINE
  5
16d
100
AcDbEntity
  8
0
 62
7
100
AcDbPolyline
 90
1
 70
1
 10
61.931747
 20
226.590007
 30
0.0
  0
LWPOLYLINE
  5
16e
100
AcDbEntity
  8
0
 62
7
100
AcDbPolyline
 90
6
 70
0
 10
54.202821
 20
245.538595
 30
0.0
 10
54.202821
 20
243.496219
 30
0.0
 10
53.998378
 20
243.002767
 30
0.0
 10
53.504715
 20
242.797073
 30
0.0
 10
40.839083
 20
242.797073
 30
0.0
 10
40.345423
 20
243.002767
 30
0.0
  0
LWPOLYLINE
  5
16f
100
AcDbEntity
  8
0
 62
7
100
AcDbPolyline
 90
2
 70
0
 10
40.345320
 20
243.002767
 30
0.0
 10
40.141082
 20
243.496219
 30
0.0
  0
LWPOLYLINE
  5
170
100
AcDbEntity
  8
0
 62
7
100
AcDbPolyline
 90
6
 70
0
 10
40.141185
 20
243.496219
 30
0.0
 10
40.141185
 20
245.538595
 30
0.0
 10
39.713180
 20
245.773373
 30
0.0
 10
39.542705
 20
246.229428
 30
0.0
 10
39.542705
 20
254.821738
 30
0.0
 10
39.713180
 20
255.278830
 30
0.0
  0
LWPOLYLINE
  5
171
100
AcDbEntity
  8
0
 62
7
100
AcDbPolyline
 90
4
 70
0
 10
39.713180
 20
255.277793
 30
0.0
 10
40.141185
 20
255.512571
 30
0.0
 10
40.141185
 20
256.160814
 30
0.0
 10
40.345423
 20
256.654266
 30
0.0
  0
LWPOLYLINE
  5
172
100
AcDbEntity
  8
0
 62
7
100
AcDbPolyline
 90
2
 70
0
 10
40.345320
 20
256.654266
 30
0.0
 10
40.838980
 20
256.858918
 30
0.0
  0
LWPOLYLINE
  5
173
100
AcDbEntity
  8
0
 62
7
100
AcDbPolyline
 90
4
 70
0
 10
40.839083
 20
256.858918
 30
0.0
 10
53.504715
 20
256.858918
 30
0.0
 10
53.998378
 20
256.654266
 30
0.0
 10
54.202927
 20
256.160814
 30
0.0
  0
LWPOLYLINE
  5
174
100
AcDbEntity
  8
0
 62
7
100
AcDbPolyline
 90
3
 70
0
 10
54.202821
 20
256.160814
 30
0.0
 10
54.202821
 20
255.512571
 30
0.0
 10
54.630827
 20
255.278830
 30
0.0
  0
LWPOLYLINE
  5
175
100
AcDbEntity
  8
0
 62
7
100
AcDbPolyline
 90
4
 70
0
 10
54.630827
 20
255.277793
 30
0.0
 10
54.801095
 20
254.821738
 30
0.0
 10
54.801095
 20
246.229428
 30
0.0
 10
54.630932
 20
245.773373
 30
0.0
  0
LWPOLYLINE
  5
176
100
AcDbEntity
  8
0
 62
7
100
AcDbPolyline
 90
2
 70
0
 10
54.630827
 20
245.773373
 30
0.0
 10
54.202927
 20
245.538595
 30
0.0
  0
LWPOLYLINE
  5
177
100
AcDbEntity
  8
0
 62
7
100
AcDbPolyline
 90
1
 70
1
 10
54.202821
 20
245.538595
 30
0.0
  0
LWPOLYLINE
  5
178
100
AcDbEntity
  8
0
 62
7
100
AcDbPolyline
 90
3
 70
0
 10
35.254342
 20
245.538595
 30
0.0
 10
35.254342
 20
243.496219
 30
0.0
 10
35.049896
 20
243.002767
 30
0.0
  0
LWPOLYLINE
  5
179
100
AcDbEntity
  8
0
 62
7
100
AcDbPolyline
 90
10
 70
0
 10
35.049791
 20
243.002767
 30
0.0
 10
34.556130
 20
242.797073
 30
0.0
 10
21.890498
 20
242.797073
 30
0.0
 10
21.396838
 20
243.002767
 30
0.0
 10
21.192600
 20
243.496219
 30
0.0
 10
21.192600
 20
245.538595
 30
0.0
 10
20.764491
 20
245.773373
 30
0.0
 10
20.594120
 20
246.229428
 30
0.0
 10
20.594120
 20
254.821738
 30
0.0
 10
20.764491
 20
255.278830
 30
0.0
  0
LWPOLYLINE
  5
17a
100
AcDbEntity
  8
0
 62
7
100
AcDbPolyline
 90
10
 70
0
 10
20.764491
 20
255.277793
 30
0.0
 10
21.192600
 20
255.512571
 30
0.0
 10
21.192600
 20
256.160814
 30
0.0
 10
21.396838
 20
256.654266
 30
0.0
 10
21.890498
 20
256.858918
 30
0.0
 10
34.556130
 20
256.858918
 30
0.0
 10
35.049791
 20
256.654266
 30
0.0
 10
35.254342
 20
256.160814
 30
0.0
 10
35.254342
 20
255.512571
 30
0.0
 10
35.682348
 20
255.278830
 30
0.0
  0
LWPOLYLINE
  5
17b
100
AcDbEntity
  8
0
 62
7
100
AcDbPolyline
 90
6
 70
0
 10
35.682242
 20
255.277793
 30
0.0
 10
35.852716
 20
254.821738
 30
0.0
 10
35.852716
 20
246.229428
 30
0.0
 10
35.682242
 20
245.773373
 30
0.0
 10
35.254342
 20
245.538595
 30
0.0
 10
35.254342
 20
245.538595
 30
0.0
  0
LWPOLYLINE
  5
17c
100
AcDbEntity
  8
0
 62
7
100
AcDbPolyline
 90
4
 70
0
 10
90.354520
 20
226.590007
 30
0.0
 10
90.354520
 20
224.545555
 30
0.0
 10
90.150283
 20
224.052103
 30
0.0
 10
89.656622
 20
223.848488
 30
0.0
  0
LWPOLYLINE
  5
17d
100
AcDbEntity
  8
0
 62
7
100
AcDbPolyline
 90
3
 70
0
 10
89.656519
 20
223.848488
 30
0.0
 10
76.990987
 20
223.848488
 30
0.0
 10
76.497327
 20
224.052103
 30
0.0
  0
LWPOLYLINE
  5
17e
100
AcDbEntity
  8
0
 62
7
100
AcDbPolyline
 90
4
 70
0
 10
76.497224
 20
224.052103
 30
0.0
 10
76.292778
 20
224.545555
 30
0.0
 10
76.292778
 20
226.590007
 30
0.0
 10
75.864773
 20
226.824788
 30
0.0
  0
LWPOLYLINE
  5
17f
100
AcDbEntity
  8
0
 62
7
100
AcDbPolyline
 90
2
 70
0
 10
75.864773
 20
226.825828
 30
0.0
 10
75.694298
 20
227.281880
 30
0.0
  0
LWPOLYLINE
  5
180
100
AcDbEntity
  8
0
 62
7
100
AcDbPolyline
 90
4
 70
0
 10
75.694298
 20
227.280843
 30
0.0
 10
75.694298
 20
235.873153
 30
0.0
 10
75.864773
 20
236.329208
 30
0.0
 10
76.292778
 20
236.565026
 30
0.0
  0
LWPOLYLINE
  5
181
100
AcDbEntity
  8
0
 62
7
100
AcDbPolyline
 90
3
 70
0
 10
76.292778
 20
236.563986
 30
0.0
 10
76.292778
 20
237.211189
 30
0.0
 10
76.497327
 20
237.707758
 30
0.0
  0
LWPOLYLINE
  5
182
100
AcDbEntity
  8
0
 62
7
100
AcDbPolyline
 90
2
 70
0
 10
76.497224
 20
237.706721
 30
0.0
 10
76.990885
 20
237.910333
 30
0.0
  0
LWPOLYLINE
  5
183
100
AcDbEntity
  8
0
 62
7
100
AcDbPolyline
 90
3
 70
0
 10
76.990987
 20
237.910333
 30
0.0
 10
89.656519
 20
237.910333
 30
0.0
 10
90.149971
 20
237.707758
 30
0.0
  0
LWPOLYLINE
  5
184
100
AcDbEntity
  8
0
 62
7
100
AcDbPolyline
 90
7
 70
0
 10
90.149971
 20
237.706721
 30
0.0
 10
90.354520
 20
237.213266
 30
0.0
 10
90.354520
 20
236.563986
 30
0.0
 10
90.782525
 20
236.329208
 30
0.0
 10
90.952897
 20
235.873153
 30
0.0
 10
90.952897
 20
227.280843
 30
0.0
 10
90.782422
 20
226.824788
 30
0.0
  0
LWPOLYLINE
  5
185
100
AcDbEntity
  8
0
 62
7
100
AcDbPolyline
 90
2
 70
0
 10
90.782525
 20
226.825828
 30
0.0
 10
90.354520
 20
226.591047
 30
0.0
  0
LWPOLYLINE
  5
186
100
AcDbEntity
  8
0
 62
7
100
AcDbPolyline
 90
1
 70
1
 10
90.354520
 20
226.590007
 30
0.0
  0
LWPOLYLINE
  5
187
100
AcDbEntity
  8
0
 62
7
100
AcDbPolyline
 90
2
 70
0
 10
8.840305
 20
235.979115
 30
0.0
 10
9.059148
 20
235.759918
 30
0.0
  0
LWPOLYLINE
  5
188
100
AcDbEntity
  8
0
 62
7
100
AcDbPolyline
 90
2
 70
0
 10
7.396129
 20
235.979115
 30
0.0
 10
8.840305
 20
235.979115
 30
0.0
  0
LWPOLYLINE
  5
189
100
AcDbEntity
  8
0
 62
7
100
AcDbPolyline
 90
2
 70
0
 10
9.059159
 20
234.315919
 30
0.0
 10
8.840305
 20
234.097761
 30
0.0
  0
LWPOLYLINE
  5
18a
100
AcDbEntity
  8
0
 62
7
100
AcDbPolyline
 90
2
 70
0
 10
9.059159
 20
235.759918
 30
0.0
 10
9.059159
 20
234.315919
 30
0.0
  0
LWPOLYLINE
  5
18b
100
AcDbEntity
  8
0
 62
7
100
AcDbPolyline
 90
2
 70
0
 10
7.396129
 20
234.096724
 30
0.0
 10
7.177285
 20
234.315919
 30
0.0
  0
LWPOLYLINE
  5
18c
100
AcDbEntity
  8
0
 62
7
100
AcDbPolyline
 90
2
 70
0
 10
8.840305
 20
234.096724
 30
0.0
 10
7.396129
 20
234.096724
 30
0.0
  0
LWPOLYLINE
  5
18d
100
AcDbEntity
  8
0
 62
7
100
AcDbPolyline
 90
2
 70
0
 10
7.177275
 20
235.759918
 30
0.0
 10
7.396119
 20
235.979115
 30
0.0
  0
LWPOLYLINE
  5
18e
100
AcDbEntity
  8
0
 62
7
100
AcDbPolyline
 90
2
 70
0
 10
7.177275
 20
234.315919
 30
0.0
 10
7.177275
 20
235.759918
 30
0.0
  0
LWPOLYLINE
  5
18f
100
AcDbEntity
  8
0
 62
7
100
AcDbPolyline
 90
2
 70
0
 10
15.010209
 20
228.632383
 30
0.0
 10
15.228990
 20
228.414225
 30
0.0
  0
LWPOLYLINE
  5
190
100
AcDbEntity
  8
0
 62
7
100
AcDbPolyline
 90
2
 70
0
 10
12.338396
 20
228.632383
 30
0.0
 10
15.010209
 20
228.632383
 30
0.0
  0
LWPOLYLINE
  5
191
100
AcDbEntity
  8
0
 62
7
100
AcDbPolyline
 90
2
 70
0
 10
15.228990
 20
226.970227
 30
0.0
 10
15.010105
 20
226.751029
 30
0.0
  0
LWPOLYLINE
  5
192
100
AcDbEntity
  8
0
 62
7
100
AcDbPolyline
 90
2
 70
0
 10
15.228990
 20
228.414225
 30
0.0
 10
15.228990
 20
226.970227
 30
0.0
  0
LWPOLYLINE
  5
193
100
AcDbEntity
  8
0
 62
7
100
AcDbPolyline
 90
2
 70
0
 10
12.338396
 20
226.751029
 30
0.0
 10
12.119615
 20
226.969187
 30
0.0
  0
LWPOLYLINE
  5
194
100
AcDbEntity
  8
0
 62
7
100
AcDbPolyline
 90
2
 70
0
 10
15.010209
 20
226.751029
 30
0.0
 10
12.338396
 20
226.751029
 30
0.0
  0
LWPOLYLINE
  5
195
100
AcDbEntity
  8
0
 62
7
100
AcDbPolyline
 90
2
 70
0
 10
12.119615
 20
228.414225
 30
0.0
 10
12.338500
 20
228.633423
 30
0.0
  0
LWPOLYLINE
  5
196
100
AcDbEntity
  8
0
 62
7
100
AcDbPolyline
 90
2
 70
0
 10
12.119615
 20
226.970227
 30
0.0
 10
12.119615
 20
228.414225
 30
0.0
  0
LWPOLYLINE
  5
197
100
AcDbEntity
  8
0
 62
7
100
AcDbPolyline
 90
2
 70
0
 10
18.653760
 20
228.647966
 30
0.0
 10
18.872645
 20
228.428769
 30
0.0
  0
LWPOLYLINE
  5
198
100
AcDbEntity
  8
0
 62
7
100
AcDbPolyline
 90
2
 70
0
 10
15.982051
 20
228.647966
 30
0.0
 10
18.653760
 20
228.647966
 30
0.0
  0
LWPOLYLINE
  5
199
100
AcDbEntity
  8
0
 62
7
100
AcDbPolyline
 90
2
 70
0
 10
18.872645
 20
226.983733
 30
0.0
 10
18.653760
 20
226.765575
 30
0.0
  0
LWPOLYLINE
  5
19a
100
AcDbEntity
  8
0
 62
7
100
AcDbPolyline
 90
2
 70
0
 10
18.872645
 20
228.427731
 30
0.0
 10
18.872645
 20
226.983733
 30
0.0
  0
LWPOLYLINE
  5
19b
100
AcDbEntity
  8
0
 62
7
100
AcDbPolyline
 90
2
 70
0
 10
15.982051
 20
226.765575
 30
0.0
 10
15.763166
 20
226.984770
 30
0.0
  0
LWPOLYLINE
  5
19c
100
AcDbEntity
  8
0
 62
7
100
AcDbPolyline
 90
2
 70
0
 10
18.653760
 20
226.765575
 30
0.0
 10
15.982051
 20
226.765575
 30
0.0
  0
LWPOLYLINE
  5
19d
100
AcDbEntity
  8
0
 62
7
100
AcDbPolyline
 90
2
 70
0
 10
15.763270
 20
228.427731
 30
0.0
 10
15.982051
 20
228.646926
 30
0.0
  0
LWPOLYLINE
  5
19e
100
AcDbEntity
  8
0
 62
7
100
AcDbPolyline
 90
2
 70
0
 10
15.763270
 20
226.983733
 30
0.0
 10
15.763270
 20
228.427731
 30
0.0
  0
LWPOLYLINE
  5
19f
100
AcDbEntity
  8
0
 62
7
100
AcDbPolyline
 90
2
 70
0
 10
11.286770
 20
235.979115
 30
0.0
 10
11.505656
 20
235.759918
 30
0.0
  0
LWPOLYLINE
  5
1a0
100
AcDbEntity
  8
0
 62
7
100
AcDbPolyline
 90
2
 70
0
 10
9.842606
 20
235.979115
 30
0.0
 10
11.286770
 20
235.979115
 30
0.0
  0
LWPOLYLINE
  5
1a1
100
AcDbEntity
  8
0
 62
7
100
AcDbPolyline
 90
2
 70
0
 10
11.505552
 20
234.315919
 30
0.0
 10
11.286770
 20
234.097761
 30
0.0
  0
LWPOLYLINE
  5
1a2
100
AcDbEntity
  8
0
 62
7
100
AcDbPolyline
 90
2
 70
0
 10
11.505552
 20
235.759918
 30
0.0
 10
11.505552
 20
234.315919
 30
0.0
  0
LWPOLYLINE
  5
1a3
100
AcDbEntity
  8
0
 62
7
100
AcDbPolyline
 90
2
 70
0
 10
9.842606
 20
234.096724
 30
0.0
 10
9.623752
 20
234.315919
 30
0.0
  0
LWPOLYLINE
  5
1a4
100
AcDbEntity
  8
0
 62
7
100
AcDbPolyline
 90
2
 70
0
 10
11.286770
 20
234.096724
 30
0.0
 10
9.842606
 20
234.096724
 30
0.0
  0
LWPOLYLINE
  5
1a5
100
AcDbEntity
  8
0
 62
7
100
AcDbPolyline
 90
2
 70
0
 10
9.623720
 20
235.759918
 30
0.0
 10
9.842564
 20
235.979115
 30
0.0
  0
LWPOLYLINE
  5
1a6
100
AcDbEntity
  8
0
 62
7
100
AcDbPolyline
 90
2
 70
0
 10
9.623720
 20
234.315919
 30
0.0
 10
9.623720
 20
235.759918
 30
0.0
  0
LWPOLYLINE
  5
1a7
100
AcDbEntity
  8
0
 62
7
100
AcDbPolyline
 90
2
 70
0
 10
13.733153
 20
235.979115
 30
0.0
 10
13.952039
 20
235.759918
 30
0.0
  0
LWPOLYLINE
  5
1a8
100
AcDbEntity
  8
0
 62
7
100
AcDbPolyline
 90
2
 70
0
 10
12.288947
 20
235.979115
 30
0.0
 10
13.733153
 20
235.979115
 30
0.0
  0
LWPOLYLINE
  5
1a9
100
AcDbEntity
  8
0
 62
7
100
AcDbPolyline
 90
2
 70
0
 10
13.952039
 20
234.315919
 30
0.0
 10
13.733153
 20
234.097761
 30
0.0
  0
LWPOLYLINE
  5
1aa
100
AcDbEntity
  8
0
 62
7
100
AcDbPolyline
 90
2
 70
0
 10
13.952039
 20
235.759918
 30
0.0
 10
13.952039
 20
234.315919
 30
0.0
  0
LWPOLYLINE
  5
1ab
100
AcDbEntity
  8
0
 62
7
100
AcDbPolyline
 90
2
 70
0
 10
12.288947
 20
234.096724
 30
0.0
 10
12.070166
 20
234.315919
 30
0.0
  0
LWPOLYLINE
  5
1ac
100
AcDbEntity
  8
0
 62
7
100
AcDbPolyline
 90
2
 70
0
 10
13.733153
 20
234.096724
 30
0.0
 10
12.288947
 20
234.096724
 30
0.0
  0
LWPOLYLINE
  5
1ad
100
AcDbEntity
  8
0
 62
7
100
AcDbPolyline
 90
2
 70
0
 10
12.070166
 20
235.759918
 30
0.0
 10
12.289051
 20
235.979115
 30
0.0
  0
LWPOLYLINE
  5
1ae
100
AcDbEntity
  8
0
 62
7
100
AcDbPolyline
 90
2
 70
0
 10
12.070166
 20
234.315919
 30
0.0
 10
12.070166
 20
235.759918
 30
0.0
  0
LWPOLYLINE
  5
1af
100
AcDbEntity
  8
0
 62
7
100
AcDbPolyline
 90
2
 70
0
 10
16.179640
 20
235.979115
 30
0.0
 10
16.398421
 20
235.759918
 30
0.0
  0
LWPOLYLINE
  5
1b0
100
AcDbEntity
  8
0
 62
7
100
AcDbPolyline
 90
2
 70
0
 10
14.735434
 20
235.979115
 30
0.0
 10
16.179640
 20
235.979115
 30
0.0
  0
LWPOLYLINE
  5
1b1
100
AcDbEntity
  8
0
 62
7
100
AcDbPolyline
 90
2
 70
0
 10
16.398525
 20
234.315919
 30
0.0
 10
16.179640
 20
234.097761
 30
0.0
  0
LWPOLYLINE
  5
1b2
100
AcDbEntity
  8
0
 62
7
100
AcDbPolyline
 90
2
 70
0
 10
16.398525
 20
235.759918
 30
0.0
 10
16.398525
 20
234.315919
 30
0.0
  0
LWPOLYLINE
  5
1b3
100
AcDbEntity
  8
0
 62
7
100
AcDbPolyline
 90
2
 70
0
 10
14.735434
 20
234.096724
 30
0.0
 10
14.516548
 20
234.315919
 30
0.0
  0
LWPOLYLINE
  5
1b4
100
AcDbEntity
  8
0
 62
7
100
AcDbPolyline
 90
2
 70
0
 10
16.179640
 20
234.096724
 30
0.0
 10
14.735434
 20
234.096724
 30
0.0
  0
LWPOLYLINE
  5
1b5
100
AcDbEntity
  8
0
 62
7
100
AcDbPolyline
 90
2
 70
0
 10
14.516652
 20
235.759918
 30
0.0
 10
14.735434
 20
235.979115
 30
0.0
  0
LWPOLYLINE
  5
1b6
100
AcDbEntity
  8
0
 62
7
100
AcDbPolyline
 90
2
 70
0
 10
14.516652
 20
234.315919
 30
0.0
 10
14.516652
 20
235.759918
 30
0.0
  0
LWPOLYLINE
  5
1b7
100
AcDbEntity
  8
0
 62
7
100
AcDbPolyline
 90
2
 70
0
 10
18.626023
 20
235.979115
 30
0.0
 10
18.844908
 20
235.759918
 30
0.0
  0
LWPOLYLINE
  5
1b8
100
AcDbEntity
  8
0
 62
7
100
AcDbPolyline
 90
2
 70
0
 10
17.181920
 20
235.979115
 30
0.0
 10
18.626023
 20
235.979115
 30
0.0
  0
LWPOLYLINE
  5
1b9
100
AcDbEntity
  8
0
 62
7
100
AcDbPolyline
 90
2
 70
0
 10
18.844908
 20
234.315919
 30
0.0
 10
18.626023
 20
234.097761
 30
0.0
  0
LWPOLYLINE
  5
1ba
100
AcDbEntity
  8
0
 62
7
100
AcDbPolyline
 90
2
 70
0
 10
18.844908
 20
235.759918
 30
0.0
 10
18.844908
 20
234.315919
 30
0.0
  0
LWPOLYLINE
  5
1bb
100
AcDbEntity
  8
0
 62
7
100
AcDbPolyline
 90
2
 70
0
 10
17.181920
 20
234.096724
 30
0.0
 10
16.963035
 20
234.315919
 30
0.0
  0
LWPOLYLINE
  5
1bc
100
AcDbEntity
  8
0
 62
7
100
AcDbPolyline
 90
2
 70
0
 10
18.626023
 20
234.096724
 30
0.0
 10
17.181920
 20
234.096724
 30
0.0
  0
LWPOLYLINE
  5
1bd
100
AcDbEntity
  8
0
 62
7
100
AcDbPolyline
 90
2
 70
0
 10
16.963035
 20
235.759918
 30
0.0
 10
17.181920
 20
235.979115
 30
0.0
  0
LWPOLYLINE
  5
1be
100
AcDbEntity
  8
0
 62
7
100
AcDbPolyline
 90
2
 70
0
 10
16.963035
 20
234.315919
 30
0.0
 10
16.963035
 20
235.759918
 30
0.0
  0
LWPOLYLINE
  5
1bf
100
AcDbEntity
  8
0
 62
7
100
AcDbPolyline
 90
2
 70
0
 10
11.352010
 20
231.081988
 30
0.0
 10
11.570895
 20
230.862790
 30
0.0
  0
LWPOLYLINE
  5
1c0
100
AcDbEntity
  8
0
 62
7
100
AcDbPolyline
 90
2
 70
0
 10
9.907825
 20
231.081988
 30
0.0
 10
11.352010
 20
231.081988
 30
0.0
  0
LWPOLYLINE
  5
1c1
100
AcDbEntity
  8
0
 62
7
100
AcDbPolyline
 90
2
 70
0
 10
11.570791
 20
229.418792
 30
0.0
 10
11.352010
 20
229.199594
 30
0.0
  0
LWPOLYLINE
  5
1c2
100
AcDbEntity
  8
0
 62
7
100
AcDbPolyline
 90
2
 70
0
 10
11.570791
 20
230.862790
 30
0.0
 10
11.570791
 20
229.418792
 30
0.0
  0
LWPOLYLINE
  5
1c3
100
AcDbEntity
  8
0
 62
7
100
AcDbPolyline
 90
2
 70
0
 10
9.907825
 20
229.199594
 30
0.0
 10
9.688970
 20
229.418792
 30
0.0
  0
LWPOLYLINE
  5
1c4
100
AcDbEntity
  8
0
 62
7
100
AcDbPolyline
 90
2
 70
0
 10
11.352010
 20
229.199594
 30
0.0
 10
9.907825
 20
229.199594
 30
0.0
  0
LWPOLYLINE
  5
1c5
100
AcDbEntity
  8
0
 62
7
100
AcDbPolyline
 90
2
 70
0
 10
9.688960
 20
230.862790
 30
0.0
 10
9.907804
 20
231.080948
 30
0.0
  0
LWPOLYLINE
  5
1c6
100
AcDbEntity
  8
0
 62
7
100
AcDbPolyline
 90
2
 70
0
 10
9.688960
 20
229.418792
 30
0.0
 10
9.688960
 20
230.862790
 30
0.0
  0
LWPOLYLINE
  5
1c7
100
AcDbEntity
  8
0
 62
7
100
AcDbPolyline
 90
2
 70
0
 10
13.798497
 20
231.081988
 30
0.0
 10
14.017278
 20
230.862790
 30
0.0
  0
LWPOLYLINE
  5
1c8
100
AcDbEntity
  8
0
 62
7
100
AcDbPolyline
 90
2
 70
0
 10
12.354290
 20
231.081988
 30
0.0
 10
13.798497
 20
231.081988
 30
0.0
  0
LWPOLYLINE
  5
1c9
100
AcDbEntity
  8
0
 62
7
100
AcDbPolyline
 90
2
 70
0
 10
14.017278
 20
229.418792
 30
0.0
 10
13.798393
 20
229.199594
 30
0.0
  0
LWPOLYLINE
  5
1ca
100
AcDbEntity
  8
0
 62
7
100
AcDbPolyline
 90
2
 70
0
 10
14.017278
 20
230.862790
 30
0.0
 10
14.017278
 20
229.418792
 30
0.0
  0
LWPOLYLINE
  5
1cb
100
AcDbEntity
  8
0
 62
7
100
AcDbPolyline
 90
2
 70
0
 10
12.354290
 20
229.199594
 30
0.0
 10
12.135405
 20
229.418792
 30
0.0
  0
LWPOLYLINE
  5
1cc
100
AcDbEntity
  8
0
 62
7
100
AcDbPolyline
 90
2
 70
0
 10
13.798497
 20
229.199594
 30
0.0
 10
12.354290
 20
229.199594
 30
0.0
  0
LWPOLYLINE
  5
1cd
100
AcDbEntity
  8
0
 62
7
100
AcDbPolyline
 90
2
 70
0
 10
12.135405
 20
230.862790
 30
0.0
 10
12.354187
 20
231.080948
 30
0.0
  0
LWPOLYLINE
  5
1ce
100
AcDbEntity
  8
0
 62
7
100
AcDbPolyline
 90
2
 70
0
 10
12.135405
 20
229.418792
 30
0.0
 10
12.135405
 20
230.862790
 30
0.0
  0
LWPOLYLINE
  5
1cf
100
AcDbEntity
  8
0
 62
7
100
AcDbPolyline
 90
2
 70
0
 10
16.244880
 20
231.081988
 30
0.0
 10
16.463661
 20
230.862790
 30
0.0
  0
LWPOLYLINE
  5
1d0
100
AcDbEntity
  8
0
 62
7
100
AcDbPolyline
 90
2
 70
0
 10
14.800673
 20
231.081988
 30
0.0
 10
16.244880
 20
231.081988
 30
0.0
  0
LWPOLYLINE
  5
1d1
100
AcDbEntity
  8
0
 62
7
100
AcDbPolyline
 90
2
 70
0
 10
16.463765
 20
229.418792
 30
0.0
 10
16.244880
 20
229.199594
 30
0.0
  0
LWPOLYLINE
  5
1d2
100
AcDbEntity
  8
0
 62
7
100
AcDbPolyline
 90
2
 70
0
 10
16.463765
 20
230.862790
 30
0.0
 10
16.463765
 20
229.418792
 30
0.0
  0
LWPOLYLINE
  5
1d3
100
AcDbEntity
  8
0
 62
7
100
AcDbPolyline
 90
2
 70
0
 10
14.800673
 20
229.199594
 30
0.0
 10
14.581788
 20
229.418792
 30
0.0
  0
LWPOLYLINE
  5
1d4
100
AcDbEntity
  8
0
 62
7
100
AcDbPolyline
 90
2
 70
0
 10
16.244880
 20
229.199594
 30
0.0
 10
14.800673
 20
229.199594
 30
0.0
  0
LWPOLYLINE
  5
1d5
100
AcDbEntity
  8
0
 62
7
100
AcDbPolyline
 90
2
 70
0
 10
14.581892
 20
230.862790
 30
0.0
 10
14.800673
 20
231.080948
 30
0.0
  0
LWPOLYLINE
  5
1d6
100
AcDbEntity
  8
0
 62
7
100
AcDbPolyline
 90
2
 70
0
 10
14.581892
 20
229.418792
 30
0.0
 10
14.581892
 20
230.862790
 30
0.0
  0
LWPOLYLINE
  5
1d7
100
AcDbEntity
  8
0
 62
7
100
AcDbPolyline
 90
2
 70
0
 10
18.691263
 20
231.081988
 30
0.0
 10
18.910148
 20
230.862790
 30
0.0
  0
LWPOLYLINE
  5
1d8
100
AcDbEntity
  8
0
 62
7
100
AcDbPolyline
 90
2
 70
0
 10
17.247160
 20
231.081988
 30
0.0
 10
18.691263
 20
231.081988
 30
0.0
  0
LWPOLYLINE
  5
1d9
100
AcDbEntity
  8
0
 62
7
100
AcDbPolyline
 90
2
 70
0
 10
18.910148
 20
229.418792
 30
0.0
 10
18.691366
 20
229.199594
 30
0.0
  0
LWPOLYLINE
  5
1da
100
AcDbEntity
  8
0
 62
7
100
AcDbPolyline
 90
2
 70
0
 10
18.910148
 20
230.862790
 30
0.0
 10
18.910148
 20
229.418792
 30
0.0
  0
LWPOLYLINE
  5
1db
100
AcDbEntity
  8
0
 62
7
100
AcDbPolyline
 90
2
 70
0
 10
17.247160
 20
229.199594
 30
0.0
 10
17.028275
 20
229.418792
 30
0.0
  0
LWPOLYLINE
  5
1dc
100
AcDbEntity
  8
0
 62
7
100
AcDbPolyline
 90
2
 70
0
 10
18.691263
 20
229.199594
 30
0.0
 10
17.247160
 20
229.199594
 30
0.0
  0
LWPOLYLINE
  5
1dd
100
AcDbEntity
  8
0
 62
7
100
AcDbPolyline
 90
2
 70
0
 10
17.028275
 20
230.862790
 30
0.0
 10
17.247160
 20
231.080948
 30
0.0
  0
LWPOLYLINE
  5
1de
100
AcDbEntity
  8
0
 62
7
100
AcDbPolyline
 90
2
 70
0
 10
17.028275
 20
229.418792
 30
0.0
 10
17.028275
 20
230.862790
 30
0.0
  0
LWPOLYLINE
  5
1df
100
AcDbEntity
  8
0
 62
7
100
AcDbPolyline
 90
2
 70
0
 10
8.840398
 20
231.081988
 30
0.0
 10
9.059252
 20
230.862790
 30
0.0
  0
LWPOLYLINE
  5
1e0
100
AcDbEntity
  8
0
 62
7
100
AcDbPolyline
 90
2
 70
0
 10
7.396223
 20
231.081988
 30
0.0
 10
8.840398
 20
231.081988
 30
0.0
  0
LWPOLYLINE
  5
1e1
100
AcDbEntity
  8
0
 62
7
100
AcDbPolyline
 90
2
 70
0
 10
9.059252
 20
229.418792
 30
0.0
 10
8.840398
 20
229.199594
 30
0.0
  0
LWPOLYLINE
  5
1e2
100
AcDbEntity
  8
0
 62
7
100
AcDbPolyline
 90
2
 70
0
 10
9.059252
 20
230.862790
 30
0.0
 10
9.059252
 20
229.418792
 30
0.0
  0
LWPOLYLINE
  5
1e3
100
AcDbEntity
  8
0
 62
7
100
AcDbPolyline
 90
2
 70
0
 10
7.396223
 20
229.199594
 30
0.0
 10
7.177369
 20
229.418792
 30
0.0
  0
LWPOLYLINE
  5
1e4
100
AcDbEntity
  8
0
 62
7
100
AcDbPolyline
 90
2
 70
0
 10
8.840398
 20
229.199594
 30
0.0
 10
7.396223
 20
229.199594
 30
0.0
  0
LWPOLYLINE
  5
1e5
100
AcDbEntity
  8
0
 62
7
100
AcDbPolyline
 90
2
 70
0
 10
7.177369
 20
230.862790
 30
0.0
 10
7.396223
 20
231.080948
 30
0.0
  0
LWPOLYLINE
  5
1e6
100
AcDbEntity
  8
0
 62
7
100
AcDbPolyline
 90
2
 70
0
 10
7.177369
 20
229.418792
 30
0.0
 10
7.177369
 20
230.862790
 30
0.0
  0
LWPOLYLINE
  5
1e7
100
AcDbEntity
  8
0
 62
7
100
AcDbPolyline
 90
3
 70
0
 10
26.805808
 20
235.801473
 30
0.0
 10
26.628892
 20
235.743303
 30
0.0
 10
26.532382
 20
235.646688
 30
0.0
  0
LWPOLYLINE
  5
1e8
100
AcDbEntity
  8
0
 62
7
100
AcDbPolyline
 90
3
 70
0
 10
26.532280
 20
235.646685
 30
0.0
 10
26.445430
 20
235.444108
 30
0.0
 10
26.336040
 20
235.000522
 30
0.0
  0
LWPOLYLINE
  5
1e9
100
AcDbEntity
  8
0
 62
7
100
AcDbPolyline
 90
3
 70
0
 10
25.827836
 20
235.958339
 30
0.0
 10
26.841128
 20
235.958339
 30
0.0
 10
26.805808
 20
235.801473
 30
0.0
  0
LWPOLYLINE
  5
1ea
100
AcDbEntity
  8
0
 62
7
100
AcDbPolyline
 90
2
 70
0
 10
25.785970
 20
232.503130
 30
0.0
 10
25.731220
 20
232.200827
 30
0.0
  0
LWPOLYLINE
  5
1eb
100
AcDbEntity
  8
0
 62
7
100
AcDbPolyline
 90
4
 70
0
 10
25.731327
 20
232.200827
 30
0.0
 10
25.718447
 20
232.001366
 30
0.0
 10
25.789185
 20
231.795674
 30
0.0
 10
26.033735
 20
231.725034
 30
0.0
  0
LWPOLYLINE
  5
1ec
100
AcDbEntity
  8
0
 62
7
100
AcDbPolyline
 90
2
 70
0
 10
26.336040
 20
234.999482
 30
0.0
 10
25.785970
 20
232.503130
 30
0.0
  0
LWPOLYLINE
  5
1ed
100
AcDbEntity
  8
0
 62
7
100
AcDbPolyline
 90
2
 70
0
 10
24.746914
 20
231.725035
 30
0.0
 10
24.930375
 20
231.786325
 30
0.0
  0
LWPOLYLINE
  5
1ee
100
AcDbEntity
  8
0
 62
7
100
AcDbPolyline
 90
2
 70
0
 10
24.930271
 20
231.786325
 30
0.0
 10
25.033221
 20
231.907870
 30
0.0
  0
LWPOLYLINE
  5
1ef
100
AcDbEntity
  8
0
 62
7
100
AcDbPolyline
 90
3
 70
0
 10
25.033221
 20
231.908910
 30
0.0
 10
25.110411
 20
232.094864
 30
0.0
 10
25.216681
 20
232.525987
 30
0.0
  0
LWPOLYLINE
  5
1f0
100
AcDbEntity
  8
0
 62
7
100
AcDbPolyline
 90
4
 70
0
 10
26.033631
 20
231.725035
 30
0.0
 10
25.998311
 20
231.567130
 30
0.0
 10
24.711594
 20
231.567130
 30
0.0
 10
24.746914
 20
231.725035
 30
0.0
  0
LWPOLYLINE
  5
1f1
100
AcDbEntity
  8
0
 62
7
100
AcDbPolyline
 90
2
 70
0
 10
25.644375
 20
234.465514
 30
0.0
 10
25.856715
 20
235.286205
 30
0.0
  0
LWPOLYLINE
  5
1f2
100
AcDbEntity
  8
0
 62
7
100
AcDbPolyline
 90
2
 70
0
 10
25.216578
 20
232.525987
 30
0.0
 10
25.644479
 20
234.465514
 30
0.0
  0
LWPOLYLINE
  5
1f3
100
AcDbEntity
  8
0
 62
7
100
AcDbPolyline
 90
2
 70
0
 10
25.811629
 20
235.286205
 30
0.0
 10
25.625052
 20
234.951696
 30
0.0
  0
LWPOLYLINE
  5
1f4
100
AcDbEntity
  8
0
 62
7
100
AcDbPolyline
 90
2
 70
0
 10
25.625156
 20
234.951696
 30
0.0
 10
25.354952
 20
234.494601
 30
0.0
  0
LWPOLYLINE
  5
1f5
100
AcDbEntity
  8
0
 62
7
100
AcDbPolyline
 90
2
 70
0
 10
25.856715
 20
235.286205
 30
0.0
 10
25.811625
 20
235.286205
 30
0.0
  0
LWPOLYLINE
  5
1f6
100
AcDbEntity
  8
0
 62
7
100
AcDbPolyline
 90
2
 70
0
 10
23.080602
 20
235.356845
 30
0.0
 10
22.836058
 20
233.989722
 30
0.0
  0
LWPOLYLINE
  5
1f7
100
AcDbEntity
  8
0
 62
7
100
AcDbPolyline
 90
6
 70
0
 10
25.354952
 20
234.494601
 30
0.0
 10
23.891215
 20
232.079281
 30
0.0
 10
23.540500
 20
232.079281
 30
0.0
 10
23.231755
 20
234.491487
 30
0.0
 10
23.144805
 20
235.356845
 30
0.0
 10
23.080603
 20
235.356845
 30
0.0
  0
LWPOLYLINE
  5
1f8
100
AcDbEntity
  8
0
 62
7
100
AcDbPolyline
 90
3
 70
0
 10
22.527312
 20
232.587276
 30
0.0
 10
22.456462
 20
232.223680
 30
0.0
 10
22.440362
 20
232.001366
 30
0.0
  0
LWPOLYLINE
  5
1f9
100
AcDbEntity
  8
0
 62
7
100
AcDbPolyline
 90
2
 70
0
 10
22.440464
 20
232.001366
 30
0.0
 10
22.511214
 20
231.795674
 30
0.0
  0
LWPOLYLINE
  5
1fa
100
AcDbEntity
  8
0
 62
7
100
AcDbPolyline
 90
2
 70
0
 10
22.511106
 20
231.795674
 30
0.0
 10
22.755651
 20
231.725034
 30
0.0
  0
LWPOLYLINE
  5
1fb
100
AcDbEntity
  8
0
 62
7
100
AcDbPolyline
 90
2
 70
0
 10
22.836058
 20
233.989722
 30
0.0
 10
22.527208
 20
232.587276
 30
0.0
  0
LWPOLYLINE
  5
1fc
100
AcDbEntity
  8
0
 62
7
100
AcDbPolyline
 90
3
 70
0
 10
21.629747
 20
231.725035
 30
0.0
 10
21.813104
 20
231.786325
 30
0.0
 10
21.916054
 20
231.907870
 30
0.0
  0
LWPOLYLINE
  5
1fd
100
AcDbEntity
  8
0
 62
7
100
AcDbPolyline
 90
3
 70
0
 10
21.916054
 20
231.908910
 30
0.0
 10
21.993244
 20
232.094864
 30
0.0
 10
22.099411
 20
232.525987
 30
0.0
  0
LWPOLYLINE
  5
1fe
100
AcDbEntity
  8
0
 62
7
100
AcDbPolyline
 90
4
 70
0
 10
22.755651
 20
231.725035
 30
0.0
 10
22.720221
 20
231.567130
 30
0.0
 10
21.594323
 20
231.567130
 30
0.0
 10
21.629743
 20
231.725035
 30
0.0
  0
LWPOLYLINE
  5
1ff
100
AcDbEntity
  8
0
 62
7
100
AcDbPolyline
 90
2
 70
0
 10
22.646260
 20
235.003638
 30
0.0
 10
22.697680
 20
235.267506
 30
0.0
  0
LWPOLYLINE
  5
200
100
AcDbEntity
  8
0
 62
7
100
AcDbPolyline
 90
2
 70
0
 10
22.697683
 20
235.266466
 30
0.0
 10
22.717003
 20
235.520983
 30
0.0
  0
LWPOLYLINE
  5
201
100
AcDbEntity
  8
0
 62
7
100
AcDbPolyline
 90
2
 70
0
 10
22.717109
 20
235.520983
 30
0.0
 10
22.639819
 20
235.729791
 30
0.0
  0
LWPOLYLINE
  5
202
100
AcDbEntity
  8
0
 62
7
100
AcDbPolyline
 90
2
 70
0
 10
22.639923
 20
235.730831
 30
0.0
 10
22.401819
 20
235.801471
 30
0.0
  0
LWPOLYLINE
  5
203
100
AcDbEntity
  8
0
 62
7
100
AcDbPolyline
 90
2
 70
0
 10
22.099307
 20
232.525987
 30
0.0
 10
22.646260
 20
235.002598
 30
0.0
  0
LWPOLYLINE
  5
204
100
AcDbEntity
  8
0
 62
7
100
AcDbPolyline
 90
5
 70
0
 10
22.401819
 20
235.801473
 30
0.0
 10
22.437249
 20
235.958339
 30
0.0
 10
23.585586
 20
235.958339
 30
0.0
 10
23.952300
 20
232.838677
 30
0.0
 10
25.827836
 20
235.958339
 30
0.0
  0
LWPOLYLINE
  5
205
100
AcDbEntity
  8
0
 62
7
100
AcDbPolyline
 90
3
 70
0
 10
29.376124
 20
232.461577
 30
0.0
 10
29.314934
 20
232.162387
 30
0.0
 10
29.298837
 20
231.992019
 30
0.0
  0
LWPOLYLINE
  5
206
100
AcDbEntity
  8
0
 62
7
100
AcDbPolyline
 90
2
 70
0
 10
29.298937
 20
231.990979
 30
0.0
 10
29.372907
 20
231.798791
 30
0.0
  0
LWPOLYLINE
  5
207
100
AcDbEntity
  8
0
 62
7
100
AcDbPolyline
 90
2
 70
0
 10
29.372799
 20
231.798791
 30
0.0
 10
29.655886
 20
231.725031
 30
0.0
  0
LWPOLYLINE
  5
208
100
AcDbEntity
  8
0
 62
7
100
AcDbPolyline
 90
4
 70
0
 10
29.366463
 20
234.484214
 30
0.0
 10
29.662431
 20
234.697178
 30
0.0
 10
29.868228
 20
234.645238
 30
0.0
 10
29.376124
 20
232.461577
 30
0.0
  0
LWPOLYLINE
  5
209
100
AcDbEntity
  8
0
 62
7
100
AcDbPolyline
 90
2
 70
0
 10
28.867815
 20
232.387818
 30
0.0
 10
28.282321
 20
231.728151
 30
0.0
  0
LWPOLYLINE
  5
20a
100
AcDbEntity
  8
0
 62
7
100
AcDbPolyline
 90
2
 70
0
 10
28.282219
 20
231.728151
 30
0.0
 10
27.696828
 20
231.519341
 30
0.0
  0
LWPOLYLINE
  5
20b
100
AcDbEntity
  8
0
 62
7
100
AcDbPolyline
 90
3
 70
0
 10
27.696828
 20
231.518304
 30
0.0
 10
27.382366
 20
231.585824
 30
0.0
 10
27.146757
 20
231.785287
 30
0.0
  0
LWPOLYLINE
  5
20c
100
AcDbEntity
  8
0
 62
7
100
AcDbPolyline
 90
2
 70
0
 10
27.146757
 20
231.786325
 30
0.0
 10
26.953738
 20
232.535334
 30
0.0
  0
LWPOLYLINE
  5
20d
100
AcDbEntity
  8
0
 62
7
100
AcDbPolyline
 90
2
 70
0
 10
26.953738
 20
232.536373
 30
0.0
 10
27.024588
 20
233.153450
 30
0.0
  0
LWPOLYLINE
  5
20e
100
AcDbEntity
  8
0
 62
7
100
AcDbPolyline
 90
2
 70
0
 10
27.024483
 20
233.153450
 30
0.0
 10
27.236825
 20
233.742475
 30
0.0
  0
LWPOLYLINE
  5
20f
100
AcDbEntity
  8
0
 62
7
100
AcDbPolyline
 90
2
 70
0
 10
27.236825
 20
233.741438
 30
0.0
 10
27.580996
 20
234.233850
 30
0.0
  0
LWPOLYLINE
  5
210
100
AcDbEntity
  8
0
 62
7
100
AcDbPolyline
 90
2
 70
0
 10
27.581099
 20
234.234890
 30
0.0
 10
28.041102
 20
234.572516
 30
0.0
  0
LWPOLYLINE
  5
211
100
AcDbEntity
  8
0
 62
7
100
AcDbPolyline
 90
2
 70
0
 10
28.040996
 20
234.571476
 30
0.0
 10
28.613609
 20
234.697178
 30
0.0
  0
LWPOLYLINE
  5
212
100
AcDbEntity
  8
0
 62
7
100
AcDbPolyline
 90
2
 70
0
 10
28.613715
 20
234.697178
 30
0.0
 10
28.993308
 20
234.649388
 30
0.0
  0
LWPOLYLINE
  5
213
100
AcDbEntity
  8
0
 62
7
100
AcDbPolyline
 90
2
 70
0
 10
28.993205
 20
234.649389
 30
0.0
 10
29.366360
 20
234.485253
 30
0.0
  0
LWPOLYLINE
  5
214
100
AcDbEntity
  8
0
 62
7
100
AcDbPolyline
 90
5
 70
0
 10
29.655989
 20
231.725035
 30
0.0
 10
29.627009
 20
231.567130
 30
0.0
 10
28.706899
 20
231.567130
 30
0.0
 10
28.909577
 20
232.375352
 30
0.0
 10
28.867707
 20
232.387812
 30
0.0
  0
LWPOLYLINE
  5
215
100
AcDbEntity
  8
0
 62
7
100
AcDbPolyline
 90
8
 70
0
 10
29.083273
 20
233.526397
 30
0.0
 10
29.121913
 20
233.754941
 30
0.0
 10
29.131618
 20
233.963752
 30
0.0
 10
29.025409
 20
234.327348
 30
0.0
 10
28.671577
 20
234.442661
 30
0.0
 10
28.414254
 20
234.397991
 30
0.0
 10
28.166489
 20
234.253589
 30
0.0
 10
27.925167
 20
233.989722
 30
0.0
  0
LWPOLYLINE
  5
216
100
AcDbEntity
  8
0
 62
7
100
AcDbPolyline
 90
3
 70
0
 10
27.925270
 20
233.989722
 30
0.0
 10
27.719370
 20
233.590803
 30
0.0
 10
27.574657
 20
233.085924
 30
0.0
  0
LWPOLYLINE
  5
217
100
AcDbEntity
  8
0
 62
7
100
AcDbPolyline
 90
5
 70
0
 10
27.574554
 20
233.085924
 30
0.0
 10
27.523134
 20
232.564423
 30
0.0
 10
27.613201
 20
232.062658
 30
0.0
 10
27.922050
 20
231.898520
 30
0.0
 10
28.127947
 20
231.944230
 30
0.0
  0
LWPOLYLINE
  5
218
100
AcDbEntity
  8
0
 62
7
100
AcDbPolyline
 90
2
 70
0
 10
28.127844
 20
231.943193
 30
0.0
 10
28.369170
 20
232.107331
 30
0.0
  0
LWPOLYLINE
  5
219
100
AcDbEntity
  8
0
 62
7
100
AcDbPolyline
 90
2
 70
0
 10
28.369170
 20
232.108368
 30
0.0
 10
28.668357
 20
232.465731
 30
0.0
  0
LWPOLYLINE
  5
21a
100
AcDbEntity
  8
0
 62
7
100
AcDbPolyline
 90
2
 70
0
 10
28.668357
 20
232.464694
 30
0.0
 10
28.906357
 20
232.889583
 30
0.0
  0
LWPOLYLINE
  5
21b
100
AcDbEntity
  8
0
 62
7
100
AcDbPolyline
 90
2
 70
0
 10
28.906357
 20
232.888543
 30
0.0
 10
29.054392
 20
233.387191
 30
0.0
  0
LWPOLYLINE
  5
21c
100
AcDbEntity
  8
0
 62
7
100
AcDbPolyline
 90
3
 70
0
 10
32.319492
 20
232.159271
 30
0.0
 10
31.798405
 20
231.676209
 30
0.0
 10
31.251557
 20
231.515187
 30
0.0
  0
LWPOLYLINE
  5
21d
100
AcDbEntity
  8
0
 62
7
100
AcDbPolyline
 90
4
 70
0
 10
31.251557
 20
231.516224
 30
0.0
 10
30.743247
 20
231.689712
 30
0.0
 10
30.575993
 20
232.194593
 30
0.0
 10
30.633853
 20
232.648569
 30
0.0
  0
LWPOLYLINE
  5
21e
100
AcDbEntity
  8
0
 62
7
100
AcDbPolyline
 90
2
 70
0
 10
29.054392
 20
233.387191
 30
0.0
 10
29.083372
 20
233.526397
 30
0.0
  0
LWPOLYLINE
  5
21f
100
AcDbEntity
  8
0
 62
7
100
AcDbPolyline
 90
3
 70
0
 10
30.588770
 20
234.482137
 30
0.0
 10
30.887960
 20
234.562127
 30
0.0
 10
31.074538
 20
234.720031
 30
0.0
  0
LWPOLYLINE
  5
220
100
AcDbEntity
  8
0
 62
7
100
AcDbPolyline
 90
3
 70
0
 10
31.074641
 20
234.720031
 30
0.0
 10
31.216131
 20
234.977666
 30
0.0
 10
31.376944
 20
235.437877
 30
0.0
  0
LWPOLYLINE
  5
221
100
AcDbEntity
  8
0
 62
7
100
AcDbPolyline
 90
4
 70
0
 10
30.633857
 20
232.648569
 30
0.0
 10
31.032776
 20
234.317999
 30
0.0
 10
30.553553
 20
234.317999
 30
0.0
 10
30.588873
 20
234.482137
 30
0.0
  0
LWPOLYLINE
  5
222
100
AcDbEntity
  8
0
 62
7
100
AcDbPolyline
 90
2
 70
0
 10
31.261218
 20
233.069302
 30
0.0
 10
31.132505
 20
232.291206
 30
0.0
  0
LWPOLYLINE
  5
223
100
AcDbEntity
  8
0
 62
7
100
AcDbPolyline
 90
5
 70
0
 10
31.132505
 20
232.290166
 30
0.0
 10
31.216135
 20
231.990979
 30
0.0
 10
31.467012
 20
231.891249
 30
0.0
 10
31.775863
 20
232.004482
 30
0.0
 10
32.133018
 20
232.351459
 30
0.0
  0
LWPOLYLINE
  5
224
100
AcDbEntity
  8
0
 62
7
100
AcDbPolyline
 90
7
 70
0
 10
31.376944
 20
235.436837
 30
0.0
 10
31.820950
 20
235.436837
 30
0.0
 10
31.644034
 20
234.642119
 30
0.0
 10
32.663766
 20
234.642119
 30
0.0
 10
32.593026
 20
234.316959
 30
0.0
 10
31.570066
 20
234.318059
 30
0.0
 10
31.261218
 20
233.070341
 30
0.0
  0
LWPOLYLINE
  5
225
100
AcDbEntity
  8
0
 62
7
100
AcDbPolyline
 90
2
 70
0
 10
32.133018
 20
232.352498
 30
0.0
 10
32.319595
 20
232.159271
 30
0.0
  0
LWPOLYLINE
  5
226
100
AcDbEntity
  8
0
 62
7
100
AcDbPolyline
 90
6
 70
0
 10
34.819169
 20
233.201237
 30
0.0
 10
34.896349
 20
233.558600
 30
0.0
 10
34.931673
 20
233.889993
 30
0.0
 10
34.854486
 20
234.218269
 30
0.0
 10
34.593947
 20
234.317999
 30
0.0
 10
34.301198
 20
234.208920
 30
0.0
  0
LWPOLYLINE
  5
227
100
AcDbEntity
  8
0
 62
7
100
AcDbPolyline
 90
2
 70
0
 10
34.301096
 20
234.208920
 30
0.0
 10
33.966586
 20
233.874410
 30
0.0
  0
LWPOLYLINE
  5
228
100
AcDbEntity
  8
0
 62
7
100
AcDbPolyline
 90
2
 70
0
 10
33.966689
 20
233.873370
 30
0.0
 10
33.683602
 20
233.445365
 30
0.0
  0
LWPOLYLINE
  5
229
100
AcDbEntity
  8
0
 62
7
100
AcDbPolyline
 90
2
 70
0
 10
33.683499
 20
233.445365
 30
0.0
 10
33.519466
 20
232.960223
 30
0.0
  0
LWPOLYLINE
  5
22a
100
AcDbEntity
  8
0
 62
7
100
AcDbPolyline
 90
3
 70
0
 10
35.423882
 20
231.567130
 30
0.0
 10
34.413705
 20
231.567130
 30
0.0
 10
34.819063
 20
233.202276
 30
0.0
  0
LWPOLYLINE
  5
22b
100
AcDbEntity
  8
0
 62
7
100
AcDbPolyline
 90
2
 70
0
 10
33.496922
 20
235.244650
 30
0.0
 10
33.545122
 20
235.476314
 30
0.0
  0
LWPOLYLINE
  5
22c
100
AcDbEntity
  8
0
 62
7
100
AcDbPolyline
 90
2
 70
0
 10
33.545228
 20
235.476314
 30
0.0
 10
33.567658
 20
235.611363
 30
0.0
  0
LWPOLYLINE
  5
22d
100
AcDbEntity
  8
0
 62
7
100
AcDbPolyline
 90
2
 70
0
 10
33.567772
 20
235.610325
 30
0.0
 10
33.574072
 20
235.720441
 30
0.0
  0
LWPOLYLINE
  5
22e
100
AcDbEntity
  8
0
 62
7
100
AcDbPolyline
 90
2
 70
0
 10
33.574211
 20
235.720441
 30
0.0
 10
33.490581
 20
235.910552
 30
0.0
  0
LWPOLYLINE
  5
22f
100
AcDbEntity
  8
0
 62
7
100
AcDbPolyline
 90
2
 70
0
 10
33.490585
 20
235.909513
 30
0.0
 10
33.197837
 20
235.970803
 30
0.0
  0
LWPOLYLINE
  5
230
100
AcDbEntity
  8
0
 62
7
100
AcDbPolyline
 90
4
 70
0
 10
33.519466
 20
232.960223
 30
0.0
 10
33.226718
 20
231.567130
 30
0.0
 10
32.670208
 20
231.567130
 30
0.0
 10
33.496922
 20
235.244650
 30
0.0
  0
LWPOLYLINE
  5
231
100
AcDbEntity
  8
0
 62
7
100
AcDbPolyline
 90
2
 70
0
 10
33.722144
 20
233.925313
 30
0.0
 10
34.297979
 20
234.511223
 30
0.0
  0
LWPOLYLINE
  5
232
100
AcDbEntity
  8
0
 62
7
100
AcDbPolyline
 90
3
 70
0
 10
34.297979
 20
234.510184
 30
0.0
 10
34.854489
 20
234.694061
 30
0.0
 10
35.327476
 20
234.520573
 30
0.0
  0
LWPOLYLINE
  5
233
100
AcDbEntity
  8
0
 62
7
100
AcDbPolyline
 90
2
 70
0
 10
35.327373
 20
234.520573
 30
0.0
 10
35.488186
 20
234.012575
 30
0.0
  0
LWPOLYLINE
  5
234
100
AcDbEntity
  8
0
 62
7
100
AcDbPolyline
 90
2
 70
0
 10
35.488186
 20
234.011538
 30
0.0
 10
35.423886
 20
233.517047
 30
0.0
  0
LWPOLYLINE
  5
235
100
AcDbEntity
  8
0
 62
7
100
AcDbPolyline
 90
6
 70
0
 10
33.197734
 20
235.971842
 30
0.0
 10
33.236384
 20
236.139097
 30
0.0
 10
34.050212
 20
236.168187
 30
0.0
 10
34.236789
 20
236.167086
 30
0.0
 10
33.683499
 20
233.937779
 30
0.0
 10
33.722149
 20
233.925319
 30
0.0
  0
LWPOLYLINE
  5
236
100
AcDbEntity
  8
0
 62
7
100
AcDbPolyline
 90
2
 70
0
 10
35.153573
 20
232.371198
 30
0.0
 10
35.108593
 20
232.149921
 30
0.0
  0
LWPOLYLINE
  5
237
100
AcDbEntity
  8
0
 62
7
100
AcDbPolyline
 90
2
 70
0
 10
35.108695
 20
232.149921
 30
0.0
 10
35.095815
 20
232.005522
 30
0.0
  0
LWPOLYLINE
  5
238
100
AcDbEntity
  8
0
 62
7
100
AcDbPolyline
 90
2
 70
0
 10
35.095812
 20
232.004482
 30
0.0
 10
35.127912
 20
231.849694
 30
0.0
  0
LWPOLYLINE
  5
239
100
AcDbEntity
  8
0
 62
7
100
AcDbPolyline
 90
2
 70
0
 10
35.127915
 20
231.850734
 30
0.0
 10
35.230863
 20
231.767624
 30
0.0
  0
LWPOLYLINE
  5
23a
100
AcDbEntity
  8
0
 62
7
100
AcDbPolyline
 90
2
 70
0
 10
35.230863
 20
231.766588
 30
0.0
 10
35.452866
 20
231.725038
 30
0.0
  0
LWPOLYLINE
  5
23b
100
AcDbEntity
  8
0
 62
7
100
AcDbPolyline
 90
2
 70
0
 10
35.423882
 20
233.516007
 30
0.0
 10
35.153676
 20
232.371198
 30
0.0
  0
LWPOLYLINE
  5
23c
100
AcDbEntity
  8
0
 62
7
100
AcDbPolyline
 90
2
 70
0
 10
24.337608
 20
228.226194
 30
0.0
 10
24.264678
 20
227.625740
 30
0.0
  0
LWPOLYLINE
  5
23d
100
AcDbEntity
  8
0
 62
7
100
AcDbPolyline
 90
5
 70
0
 10
24.264577
 20
227.625740
 30
0.0
 10
24.054211
 20
227.170724
 30
0.0
 10
23.714923
 20
226.881924
 30
0.0
 10
23.260635
 20
226.781155
 30
0.0
 10
23.025024
 20
226.807125
 30
0.0
  0
LWPOLYLINE
  5
23e
100
AcDbEntity
  8
0
 62
7
100
AcDbPolyline
 90
2
 70
0
 10
23.025024
 20
226.806088
 30
0.0
 10
22.814657
 20
226.881928
 30
0.0
  0
LWPOLYLINE
  5
23f
100
AcDbEntity
  8
0
 62
7
100
AcDbPolyline
 90
3
 70
0
 10
22.814553
 20
226.881924
 30
0.0
 10
22.618315
 20
227.016976
 30
0.0
 10
22.421973
 20
227.213317
 30
0.0
  0
LWPOLYLINE
  5
240
100
AcDbEntity
  8
0
 62
7
100
AcDbPolyline
 90
2
 70
0
 10
35.452760
 20
231.725035
 30
0.0
 10
35.423880
 20
231.567130
 30
0.0
  0
LWPOLYLINE
  5
241
100
AcDbEntity
  8
0
 62
7
100
AcDbPolyline
 90
2
 70
0
 10
22.421973
 20
226.941140
 30
0.0
 10
22.405143
 20
226.888160
 30
0.0
  0
LWPOLYLINE
  5
242
100
AcDbEntity
  8
0
 62
7
100
AcDbPolyline
 90
2
 70
0
 10
22.405247
 20
226.887120
 30
0.0
 10
22.354757
 20
226.853870
 30
0.0
  0
LWPOLYLINE
  5
243
100
AcDbEntity
  8
0
 62
7
100
AcDbPolyline
 90
2
 70
0
 10
22.354655
 20
226.854914
 30
0.0
 10
22.262095
 20
226.835174
 30
0.0
  0
LWPOLYLINE
  5
244
100
AcDbEntity
  8
0
 62
7
100
AcDbPolyline
 90
4
 70
0
 10
22.262094
 20
226.834138
 30
0.0
 10
22.119045
 20
226.828938
 30
0.0
 10
21.973294
 20
226.834144
 30
0.0
 10
21.880734
 20
226.853878
 30
0.0
  0
LWPOLYLINE
  5
245
100
AcDbEntity
  8
0
 62
7
100
AcDbPolyline
 90
2
 70
0
 10
21.880733
 20
226.854914
 30
0.0
 10
21.833053
 20
226.888154
 30
0.0
  0
LWPOLYLINE
  5
246
100
AcDbEntity
  8
0
 62
7
100
AcDbPolyline
 90
2
 70
0
 10
21.833050
 20
226.887120
 30
0.0
 10
21.819030
 20
226.940100
 30
0.0
  0
LWPOLYLINE
  5
247
100
AcDbEntity
  8
0
 62
7
100
AcDbPolyline
 90
2
 70
0
 10
22.421973
 20
227.213317
 30
0.0
 10
22.421973
 20
226.941140
 30
0.0
  0
LWPOLYLINE
  5
248
100
AcDbEntity
  8
0
 62
7
100
AcDbPolyline
 90
2
 70
0
 10
21.819026
 20
230.629049
 30
0.0
 10
21.835856
 20
230.679949
 30
0.0
  0
LWPOLYLINE
  5
249
100
AcDbEntity
  8
0
 62
7
100
AcDbPolyline
 90
2
 70
0
 10
21.835855
 20
230.678913
 30
0.0
 10
21.891955
 20
230.715273
 30
0.0
  0
LWPOLYLINE
  5
24a
100
AcDbEntity
  8
0
 62
7
100
AcDbPolyline
 90
2
 70
0
 10
21.891953
 20
230.716312
 30
0.0
 10
22.001239
 20
230.741252
 30
0.0
  0
LWPOLYLINE
  5
24b
100
AcDbEntity
  8
0
 62
7
100
AcDbPolyline
 90
2
 70
0
 10
22.001343
 20
230.741245
 30
0.0
 10
22.172338
 20
230.749545
 30
0.0
  0
LWPOLYLINE
  5
24c
100
AcDbEntity
  8
0
 62
7
100
AcDbPolyline
 90
2
 70
0
 10
22.172442
 20
230.749555
 30
0.0
 10
22.343540
 20
230.741255
 30
0.0
  0
LWPOLYLINE
  5
24d
100
AcDbEntity
  8
0
 62
7
100
AcDbPolyline
 90
2
 70
0
 10
22.343436
 20
230.741245
 30
0.0
 10
22.450022
 20
230.715275
 30
0.0
  0
LWPOLYLINE
  5
24e
100
AcDbEntity
  8
0
 62
7
100
AcDbPolyline
 90
2
 70
0
 10
22.450126
 20
230.716312
 30
0.0
 10
22.509026
 20
230.679952
 30
0.0
  0
LWPOLYLINE
  5
24f
100
AcDbEntity
  8
0
 62
7
100
AcDbPolyline
 90
2
 70
0
 10
22.508924
 20
230.678913
 30
0.0
 10
22.525754
 20
230.629053
 30
0.0
  0
LWPOLYLINE
  5
250
100
AcDbEntity
  8
0
 62
7
100
AcDbPolyline
 90
2
 70
0
 10
21.819026
 20
226.941140
 30
0.0
 10
21.819026
 20
230.629049
 30
0.0
  0
LWPOLYLINE
  5
251
100
AcDbEntity
  8
0
 62
7
100
AcDbPolyline
 90
2
 70
0
 10
22.525754
 20
229.246343
 30
0.0
 10
22.716486
 20
229.408402
 30
0.0
  0
LWPOLYLINE
  5
252
100
AcDbEntity
  8
0
 62
7
100
AcDbPolyline
 90
2
 70
0
 10
22.716486
 20
229.409442
 30
0.0
 10
22.907219
 20
229.518521
 30
0.0
  0
LWPOLYLINE
  5
253
100
AcDbEntity
  8
0
 62
7
100
AcDbPolyline
 90
2
 70
0
 10
22.907115
 20
229.518521
 30
0.0
 10
23.103457
 20
229.582931
 30
0.0
  0
LWPOLYLINE
  5
254
100
AcDbEntity
  8
0
 62
7
100
AcDbPolyline
 90
4
 70
0
 10
23.103561
 20
229.582930
 30
0.0
 10
23.316629
 20
229.602670
 30
0.0
 10
23.787850
 20
229.490471
 30
0.0
 10
24.101997
 20
229.193361
 30
0.0
  0
LWPOLYLINE
  5
255
100
AcDbEntity
  8
0
 62
7
100
AcDbPolyline
 90
2
 70
0
 10
24.101894
 20
229.193361
 30
0.0
 10
24.281407
 20
228.752889
 30
0.0
  0
LWPOLYLINE
  5
256
100
AcDbEntity
  8
0
 62
7
100
AcDbPolyline
 90
2
 70
0
 10
24.281407
 20
228.751852
 30
0.0
 10
24.337507
 20
228.225154
 30
0.0
  0
LWPOLYLINE
  5
257
100
AcDbEntity
  8
0
 62
7
100
AcDbPolyline
 90
2
 70
0
 10
22.525754
 20
230.629049
 30
0.0
 10
22.525754
 20
229.246343
 30
0.0
  0
LWPOLYLINE
  5
258
100
AcDbEntity
  8
0
 62
7
100
AcDbPolyline
 90
5
 70
0
 10
23.605532
 20
228.175291
 30
0.0
 10
23.580292
 20
228.483828
 30
0.0
 10
23.498948
 20
228.747695
 30
0.0
 10
23.344677
 20
228.929493
 30
0.0
 10
23.109067
 20
229.000133
 30
0.0
  0
LWPOLYLINE
  5
259
100
AcDbEntity
  8
0
 62
7
100
AcDbPolyline
 90
2
 70
0
 10
23.109067
 20
228.999096
 30
0.0
 10
22.971731
 20
228.980386
 30
0.0
  0
LWPOLYLINE
  5
25a
100
AcDbEntity
  8
0
 62
7
100
AcDbPolyline
 90
2
 70
0
 10
22.971627
 20
228.979359
 30
0.0
 10
22.831487
 20
228.911829
 30
0.0
  0
LWPOLYLINE
  5
25b
100
AcDbEntity
  8
0
 62
7
100
AcDbPolyline
 90
3
 70
0
 10
22.831487
 20
228.912873
 30
0.0
 10
22.685632
 20
228.789248
 30
0.0
 10
22.525754
 20
228.601217
 30
0.0
  0
LWPOLYLINE
  5
25c
100
AcDbEntity
  8
0
 62
7
100
AcDbPolyline
 90
3
 70
0
 10
22.525754
 20
227.771178
 30
0.0
 10
22.809048
 20
227.479262
 30
0.0
 10
23.095042
 20
227.381612
 30
0.0
  0
LWPOLYLINE
  5
25d
100
AcDbEntity
  8
0
 62
7
100
AcDbPolyline
 90
2
 70
0
 10
23.095146
 20
227.380572
 30
0.0
 10
23.327952
 20
227.451212
 30
0.0
  0
LWPOLYLINE
  5
25e
100
AcDbEntity
  8
0
 62
7
100
AcDbPolyline
 90
2
 70
0
 10
23.327952
 20
227.452252
 30
0.0
 10
23.484922
 20
227.634050
 30
0.0
  0
LWPOLYLINE
  5
25f
100
AcDbEntity
  8
0
 62
7
100
AcDbPolyline
 90
3
 70
0
 10
23.485026
 20
227.633013
 30
0.0
 10
23.577486
 20
227.888567
 30
0.0
 10
23.605533
 20
228.174251
 30
0.0
  0
LWPOLYLINE
  5
260
100
AcDbEntity
  8
0
 62
7
100
AcDbPolyline
 90
2
 70
0
 10
22.525754
 20
228.601217
 30
0.0
 10
22.525754
 20
227.771178
 30
0.0
  0
LWPOLYLINE
  5
261
100
AcDbEntity
  8
0
 62
7
100
AcDbPolyline
 90
4
 70
0
 10
27.430987
 20
228.216844
 30
0.0
 10
27.346837
 20
227.633013
 30
0.0
 10
27.091595
 20
227.179035
 30
0.0
 10
26.662549
 20
226.885041
 30
0.0
  0
LWPOLYLINE
  5
262
100
AcDbEntity
  8
0
 62
7
100
AcDbPolyline
 90
3
 70
0
 10
26.662446
 20
226.885041
 30
0.0
 10
26.059499
 20
226.781155
 30
0.0
 10
25.478991
 20
226.874655
 30
0.0
  0
LWPOLYLINE
  5
263
100
AcDbEntity
  8
0
 62
7
100
AcDbPolyline
 90
3
 70
0
 10
25.478991
 20
226.873614
 30
0.0
 10
25.069477
 20
227.142675
 30
0.0
 10
24.828256
 20
227.576914
 30
0.0
  0
LWPOLYLINE
  5
264
100
AcDbEntity
  8
0
 62
7
100
AcDbPolyline
 90
2
 70
0
 10
24.828360
 20
227.577953
 30
0.0
 10
24.749820
 20
228.165941
 30
0.0
  0
LWPOLYLINE
  5
265
100
AcDbEntity
  8
0
 62
7
100
AcDbPolyline
 90
2
 70
0
 10
24.749719
 20
228.166981
 30
0.0
 10
24.833869
 20
228.749772
 30
0.0
  0
LWPOLYLINE
  5
266
100
AcDbEntity
  8
0
 62
7
100
AcDbPolyline
 90
2
 70
0
 10
24.833970
 20
228.749772
 30
0.0
 10
25.091916
 20
229.204787
 30
0.0
  0
LWPOLYLINE
  5
267
100
AcDbEntity
  8
0
 62
7
100
AcDbPolyline
 90
4
 70
0
 10
25.091916
 20
229.203750
 30
0.0
 10
25.518259
 20
229.498784
 30
0.0
 10
26.121206
 20
229.602667
 30
0.0
 10
26.704622
 20
229.510207
 30
0.0
  0
LWPOLYLINE
  5
268
100
AcDbEntity
  8
0
 62
7
100
AcDbPolyline
 90
3
 70
0
 10
26.704519
 20
229.510211
 30
0.0
 10
27.111229
 20
229.244264
 30
0.0
 10
27.352448
 20
228.808988
 30
0.0
  0
LWPOLYLINE
  5
269
100
AcDbEntity
  8
0
 62
7
100
AcDbPolyline
 90
2
 70
0
 10
27.352345
 20
228.808988
 30
0.0
 10
27.430885
 20
228.216844
 30
0.0
  0
LWPOLYLINE
  5
26a
100
AcDbEntity
  8
0
 62
7
100
AcDbPolyline
 90
2
 70
0
 10
26.704519
 20
228.188794
 30
0.0
 10
26.673669
 20
228.528498
 30
0.0
  0
LWPOLYLINE
  5
26b
100
AcDbEntity
  8
0
 62
7
100
AcDbPolyline
 90
2
 70
0
 10
26.673770
 20
228.528498
 30
0.0
 10
26.575600
 20
228.800678
 30
0.0
  0
LWPOLYLINE
  5
26c
100
AcDbEntity
  8
0
 62
7
100
AcDbPolyline
 90
3
 70
0
 10
26.575598
 20
228.799638
 30
0.0
 10
26.387670
 20
228.979359
 30
0.0
 10
26.096066
 20
229.043769
 30
0.0
  0
LWPOLYLINE
  5
26d
100
AcDbEntity
  8
0
 62
7
100
AcDbPolyline
 90
5
 70
0
 10
26.095962
 20
229.044806
 30
0.0
 10
25.821187
 20
228.985596
 30
0.0
 10
25.627650
 20
228.817298
 30
0.0
 10
25.512649
 20
228.550314
 30
0.0
 10
25.476189
 20
228.197107
 30
0.0
  0
LWPOLYLINE
  5
26e
100
AcDbEntity
  8
0
 62
7
100
AcDbPolyline
 90
3
 70
0
 10
25.476186
 20
228.198144
 30
0.0
 10
25.507036
 20
227.855324
 30
0.0
 10
25.605109
 20
227.586264
 30
0.0
  0
LWPOLYLINE
  5
26f
100
AcDbEntity
  8
0
 62
7
100
AcDbPolyline
 90
3
 70
0
 10
25.605211
 20
227.586264
 30
0.0
 10
25.793138
 20
227.406542
 30
0.0
 10
26.084846
 20
227.345252
 30
0.0
  0
LWPOLYLINE
  5
270
100
AcDbEntity
  8
0
 62
7
100
AcDbPolyline
 90
3
 70
0
 10
26.084743
 20
227.345250
 30
0.0
 10
26.362427
 20
227.401350
 30
0.0
 10
26.555861
 20
227.569643
 30
0.0
  0
LWPOLYLINE
  5
271
100
AcDbEntity
  8
0
 62
7
100
AcDbPolyline
 90
2
 70
0
 10
26.555964
 20
227.569643
 30
0.0
 10
26.668160
 20
227.833511
 30
0.0
  0
LWPOLYLINE
  5
272
100
AcDbEntity
  8
0
 62
7
100
AcDbPolyline
 90
2
 70
0
 10
26.668160
 20
227.832471
 30
0.0
 10
26.704620
 20
228.188794
 30
0.0
  0
LWPOLYLINE
  5
273
100
AcDbEntity
  8
0
 62
7
100
AcDbPolyline
 90
2
 70
0
 10
30.120563
 20
226.931790
 30
0.0
 10
30.092513
 20
226.870500
 30
0.0
  0
LWPOLYLINE
  5
274
100
AcDbEntity
  8
0
 62
7
100
AcDbPolyline
 90
2
 70
0
 10
30.092410
 20
226.871537
 30
0.0
 10
30.002760
 20
226.840367
 30
0.0
  0
LWPOLYLINE
  5
275
100
AcDbEntity
  8
0
 62
7
100
AcDbPolyline
 90
3
 70
0
 10
30.002654
 20
226.840371
 30
0.0
 10
29.826049
 20
226.828941
 30
0.0
 10
29.641031
 20
226.839344
 30
0.0
  0
LWPOLYLINE
  5
276
100
AcDbEntity
  8
0
 62
7
100
AcDbPolyline
 90
2
 70
0
 10
29.641031
 20
226.840371
 30
0.0
 10
29.559691
 20
226.871541
 30
0.0
  0
LWPOLYLINE
  5
277
100
AcDbEntity
  8
0
 62
7
100
AcDbPolyline
 90
2
 70
0
 10
29.559585
 20
226.871537
 30
0.0
 10
29.537155
 20
226.932827
 30
0.0
  0
LWPOLYLINE
  5
278
100
AcDbEntity
  8
0
 62
7
100
AcDbPolyline
 90
4
 70
0
 10
29.537146
 20
227.131248
 30
0.0
 10
29.183834
 20
226.873614
 30
0.0
 10
28.746270
 20
226.781154
 30
0.0
 10
28.378934
 20
226.835175
 30
0.0
  0
LWPOLYLINE
  5
279
100
AcDbEntity
  8
0
 62
7
100
AcDbPolyline
 90
5
 70
0
 10
28.378934
 20
226.834138
 30
0.0
 10
28.090031
 20
226.985810
 30
0.0
 10
27.902102
 20
227.241367
 30
0.0
 10
27.834782
 20
227.594574
 30
0.0
 10
27.918935
 20
227.972716
 30
0.0
  0
LWPOLYLINE
  5
27a
100
AcDbEntity
  8
0
 62
7
100
AcDbPolyline
 90
4
 70
0
 10
27.918934
 20
227.973753
 30
0.0
 10
28.174177
 20
228.239700
 30
0.0
 10
28.597612
 20
228.396565
 30
0.0
 10
29.183731
 20
228.446425
 30
0.0
  0
LWPOLYLINE
  5
27b
100
AcDbEntity
  8
0
 62
7
100
AcDbPolyline
 90
2
 70
0
 10
29.537146
 20
226.931790
 30
0.0
 10
29.537146
 20
227.131248
 30
0.0
  0
LWPOLYLINE
  5
27c
100
AcDbEntity
  8
0
 62
7
100
AcDbPolyline
 90
2
 70
0
 10
29.427756
 20
228.599140
 30
0.0
 10
29.402496
 20
228.803794
 30
0.0
  0
LWPOLYLINE
  5
27d
100
AcDbEntity
  8
0
 62
7
100
AcDbPolyline
 90
2
 70
0
 10
29.402511
 20
228.802755
 30
0.0
 10
29.323971
 20
228.951310
 30
0.0
  0
LWPOLYLINE
  5
27e
100
AcDbEntity
  8
0
 62
7
100
AcDbPolyline
 90
7
 70
0
 10
29.324079
 20
228.951310
 30
0.0
 10
29.178223
 20
229.038570
 30
0.0
 10
28.953832
 20
229.066622
 30
0.0
 10
28.636879
 20
229.027142
 30
0.0
 10
28.392957
 20
228.940916
 30
0.0
 10
28.213445
 20
228.853660
 30
0.0
 10
28.098446
 20
228.815218
 30
0.0
  0
LWPOLYLINE
  5
27f
100
AcDbEntity
  8
0
 62
7
100
AcDbPolyline
 90
10
 70
0
 10
28.098446
 20
228.814181
 30
0.0
 10
28.042346
 20
228.833921
 30
0.0
 10
28.003077
 20
228.890021
 30
0.0
 10
27.980650
 20
228.979357
 30
0.0
 10
27.972240
 20
229.097788
 30
0.0
 10
27.986265
 20
229.234917
 30
0.0
 10
28.039541
 20
229.324257
 30
0.0
 10
28.176982
 20
229.414636
 30
0.0
 10
28.406881
 20
229.507095
 30
0.0
 10
28.692979
 20
229.574624
 30
0.0
  0
LWPOLYLINE
  5
280
100
AcDbEntity
  8
0
 62
7
100
AcDbPolyline
 90
2
 70
0
 10
28.693081
 20
229.573580
 30
0.0
 10
29.015539
 20
229.601630
 30
0.0
  0
LWPOLYLINE
  5
281
100
AcDbEntity
  8
0
 62
7
100
AcDbPolyline
 90
2
 70
0
 10
29.015539
 20
229.602667
 30
0.0
 10
29.517615
 20
229.544487
 30
0.0
  0
LWPOLYLINE
  5
282
100
AcDbEntity
  8
0
 62
7
100
AcDbPolyline
 90
2
 70
0
 10
29.517512
 20
229.544491
 30
0.0
 10
29.862512
 20
229.367889
 30
0.0
  0
LWPOLYLINE
  5
283
100
AcDbEntity
  8
0
 62
7
100
AcDbPolyline
 90
2
 70
0
 10
29.862512
 20
229.366849
 30
0.0
 10
30.058750
 20
229.060389
 30
0.0
  0
LWPOLYLINE
  5
284
100
AcDbEntity
  8
0
 62
7
100
AcDbPolyline
 90
2
 70
0
 10
30.058856
 20
229.061428
 30
0.0
 10
30.120566
 20
228.615763
 30
0.0
  0
LWPOLYLINE
  5
285
100
AcDbEntity
  8
0
 62
7
100
AcDbPolyline
 90
3
 70
0
 10
29.183834
 20
228.447468
 30
0.0
 10
29.427756
 20
228.447468
 30
0.0
 10
29.427756
 20
228.599140
 30
0.0
  0
LWPOLYLINE
  5
286
100
AcDbEntity
  8
0
 62
7
100
AcDbPolyline
 90
2
 70
0
 10
30.120460
 20
228.615763
 30
0.0
 10
30.120460
 20
226.932827
 30
0.0
  0
LWPOLYLINE
  5
287
100
AcDbEntity
  8
0
 62
7
100
AcDbPolyline
 90
2
 70
0
 10
29.158589
 20
228.003880
 30
0.0
 10
28.866881
 20
227.978940
 30
0.0
  0
LWPOLYLINE
  5
288
100
AcDbEntity
  8
0
 62
7
100
AcDbPolyline
 90
2
 70
0
 10
28.866881
 20
227.977910
 30
0.0
 10
28.670539
 20
227.903110
 30
0.0
  0
LWPOLYLINE
  5
289
100
AcDbEntity
  8
0
 62
7
100
AcDbPolyline
 90
3
 70
0
 10
28.670642
 20
227.902074
 30
0.0
 10
28.558447
 20
227.779488
 30
0.0
 10
28.524787
 20
227.617430
 30
0.0
  0
LWPOLYLINE
  5
28a
100
AcDbEntity
  8
0
 62
7
100
AcDbPolyline
 90
2
 70
0
 10
28.524684
 20
227.617430
 30
0.0
 10
28.622854
 20
227.370183
 30
0.0
  0
LWPOLYLINE
  5
28b
100
AcDbEntity
  8
0
 62
7
100
AcDbPolyline
 90
2
 70
0
 10
28.622959
 20
227.370183
 30
0.0
 10
28.900644
 20
227.279803
 30
0.0
  0
LWPOLYLINE
  5
28c
100
AcDbEntity
  8
0
 62
7
100
AcDbPolyline
 90
2
 70
0
 10
28.900541
 20
227.279803
 30
0.0
 10
29.172613
 20
227.355643
 30
0.0
  0
LWPOLYLINE
  5
28d
100
AcDbEntity
  8
0
 62
7
100
AcDbPolyline
 90
2
 70
0
 10
29.172510
 20
227.355639
 30
0.0
 10
29.427756
 20
227.577953
 30
0.0
  0
LWPOLYLINE
  5
28e
100
AcDbEntity
  8
0
 62
7
100
AcDbPolyline
 90
2
 70
0
 10
29.427756
 20
228.003880
 30
0.0
 10
29.158589
 20
228.003880
 30
0.0
  0
LWPOLYLINE
  5
28f
100
AcDbEntity
  8
0
 62
7
100
AcDbPolyline
 90
3
 70
0
 10
32.431480
 20
229.209984
 30
0.0
 10
32.425880
 20
229.044806
 30
0.0
 10
32.409135
 20
228.943000
 30
0.0
  0
LWPOLYLINE
  5
290
100
AcDbEntity
  8
0
 62
7
100
AcDbPolyline
 90
2
 70
0
 10
32.409040
 20
228.944037
 30
0.0
 10
32.378190
 20
228.893137
 30
0.0
  0
LWPOLYLINE
  5
291
100
AcDbEntity
  8
0
 62
7
100
AcDbPolyline
 90
3
 70
0
 10
32.378291
 20
228.893134
 30
0.0
 10
32.333411
 20
228.878594
 30
0.0
 10
32.282923
 20
228.886890
 30
0.0
  0
LWPOLYLINE
  5
292
100
AcDbEntity
  8
0
 62
7
100
AcDbPolyline
 90
2
 70
0
 10
32.282821
 20
228.886901
 30
0.0
 10
32.218311
 20
228.909751
 30
0.0
  0
LWPOLYLINE
  5
293
100
AcDbEntity
  8
0
 62
7
100
AcDbPolyline
 90
2
 70
0
 10
32.218412
 20
228.909757
 30
0.0
 10
32.142682
 20
228.929497
 30
0.0
  0
LWPOLYLINE
  5
294
100
AcDbEntity
  8
0
 62
7
100
AcDbPolyline
 90
3
 70
0
 10
32.142576
 20
228.929493
 30
0.0
 10
32.050016
 20
228.940923
 30
0.0
 10
31.932209
 20
228.915980
 30
0.0
  0
LWPOLYLINE
  5
295
100
AcDbEntity
  8
0
 62
7
100
AcDbPolyline
 90
2
 70
0
 10
31.932314
 20
228.915990
 30
0.0
 10
31.808898
 20
228.843270
 30
0.0
  0
LWPOLYLINE
  5
296
100
AcDbEntity
  8
0
 62
7
100
AcDbPolyline
 90
3
 70
0
 10
31.808898
 20
228.842231
 30
0.0
 10
31.677068
 20
228.707179
 30
0.0
 10
31.531213
 20
228.499411
 30
0.0
  0
LWPOLYLINE
  5
297
100
AcDbEntity
  8
0
 62
7
100
AcDbPolyline
 90
2
 70
0
 10
29.427756
 20
227.577953
 30
0.0
 10
29.427756
 20
228.003880
 30
0.0
  0
LWPOLYLINE
  5
298
100
AcDbEntity
  8
0
 62
7
100
AcDbPolyline
 90
3
 70
0
 10
31.531213
 20
226.941140
 30
0.0
 10
31.514373
 20
226.890230
 30
0.0
 10
31.455484
 20
226.856994
 30
0.0
  0
LWPOLYLINE
  5
299
100
AcDbEntity
  8
0
 62
7
100
AcDbPolyline
 90
2
 70
0
 10
31.455586
 20
226.855954
 30
0.0
 10
31.349000
 20
226.837244
 30
0.0
  0
LWPOLYLINE
  5
29a
100
AcDbEntity
  8
0
 62
7
100
AcDbPolyline
 90
2
 70
0
 10
31.348897
 20
226.837254
 30
0.0
 10
31.177903
 20
226.828954
 30
0.0
  0
LWPOLYLINE
  5
29b
100
AcDbEntity
  8
0
 62
7
100
AcDbPolyline
 90
2
 70
0
 10
31.177798
 20
226.828944
 30
0.0
 10
31.006700
 20
226.837244
 30
0.0
  0
LWPOLYLINE
  5
29c
100
AcDbEntity
  8
0
 62
7
100
AcDbPolyline
 90
2
 70
0
 10
31.006803
 20
226.837254
 30
0.0
 10
30.897413
 20
226.856994
 30
0.0
  0
LWPOLYLINE
  5
29d
100
AcDbEntity
  8
0
 62
7
100
AcDbPolyline
 90
3
 70
0
 10
30.897413
 20
226.855954
 30
0.0
 10
30.841313
 20
226.890234
 30
0.0
 10
30.824477
 20
226.941144
 30
0.0
  0
LWPOLYLINE
  5
29e
100
AcDbEntity
  8
0
 62
7
100
AcDbPolyline
 90
2
 70
0
 10
31.531213
 20
228.500451
 30
0.0
 10
31.531213
 20
226.941140
 30
0.0
  0
LWPOLYLINE
  5
29f
100
AcDbEntity
  8
0
 62
7
100
AcDbPolyline
 90
5
 70
0
 10
30.824485
 20
229.442685
 30
0.0
 10
30.838525
 20
229.490475
 30
0.0
 10
30.889001
 20
229.526831
 30
0.0
 10
30.981557
 20
229.546571
 30
0.0
 10
31.127415
 20
229.554870
 30
0.0
  0
LWPOLYLINE
  5
2a0
100
AcDbEntity
  8
0
 62
7
100
AcDbPolyline
 90
2
 70
0
 10
31.127309
 20
229.554880
 30
0.0
 10
31.275970
 20
229.546580
 30
0.0
  0
LWPOLYLINE
  5
2a1
100
AcDbEntity
  8
0
 62
7
100
AcDbPolyline
 90
4
 70
0
 10
31.276073
 20
229.546570
 30
0.0
 10
31.365833
 20
229.526830
 30
0.0
 10
31.413509
 20
229.490471
 30
0.0
 10
31.427523
 20
229.442681
 30
0.0
  0
LWPOLYLINE
  5
2a2
100
AcDbEntity
  8
0
 62
7
100
AcDbPolyline
 90
2
 70
0
 10
30.824485
 20
226.941140
 30
0.0
 10
30.824485
 20
229.442685
 30
0.0
  0
LWPOLYLINE
  5
2a3
100
AcDbEntity
  8
0
 62
7
100
AcDbPolyline
 90
4
 70
0
 10
31.427433
 20
229.131031
 30
0.0
 10
31.612556
 20
229.361655
 30
0.0
 10
31.778046
 20
229.507094
 30
0.0
 10
31.935120
 20
229.579814
 30
0.0
  0
LWPOLYLINE
  5
2a4
100
AcDbEntity
  8
0
 62
7
100
AcDbPolyline
 90
3
 70
0
 10
31.935014
 20
229.579813
 30
0.0
 10
32.092088
 20
229.602663
 30
0.0
 10
32.170628
 20
229.597467
 30
0.0
  0
LWPOLYLINE
  5
2a5
100
AcDbEntity
  8
0
 62
7
100
AcDbPolyline
 90
2
 70
0
 10
32.170729
 20
229.597473
 30
0.0
 10
32.257679
 20
229.582933
 30
0.0
  0
LWPOLYLINE
  5
2a6
100
AcDbEntity
  8
0
 62
7
100
AcDbPolyline
 90
2
 70
0
 10
32.257577
 20
229.582930
 30
0.0
 10
32.336117
 20
229.560080
 30
0.0
  0
LWPOLYLINE
  5
2a7
100
AcDbEntity
  8
0
 62
7
100
AcDbPolyline
 90
5
 70
0
 10
32.336218
 20
229.560074
 30
0.0
 10
32.383798
 20
229.535134
 30
0.0
 10
32.406226
 20
229.503973
 30
0.0
 10
32.420275
 20
229.456187
 30
0.0
 10
32.428764
 20
229.368921
 30
0.0
  0
LWPOLYLINE
  5
2a8
100
AcDbEntity
  8
0
 62
7
100
AcDbPolyline
 90
2
 70
0
 10
32.428674
 20
229.369965
 30
0.0
 10
32.431474
 20
229.209984
 30
0.0
  0
LWPOLYLINE
  5
2a9
100
AcDbEntity
  8
0
 62
7
100
AcDbPolyline
 90
2
 70
0
 10
31.427433
 20
229.442685
 30
0.0
 10
31.427433
 20
229.131031
 30
0.0
  0
LWPOLYLINE
  5
2aa
100
AcDbEntity
  8
0
 62
7
100
AcDbPolyline
 90
2
 70
0
 10
35.168739
 20
226.941140
 30
0.0
 10
35.154729
 20
226.888160
 30
0.0
  0
LWPOLYLINE
  5
2ab
100
AcDbEntity
  8
0
 62
7
100
AcDbPolyline
 90
2
 70
0
 10
35.154716
 20
226.887120
 30
0.0
 10
35.107036
 20
226.853870
 30
0.0
  0
LWPOLYLINE
  5
2ac
100
AcDbEntity
  8
0
 62
7
100
AcDbPolyline
 90
2
 70
0
 10
35.107032
 20
226.854914
 30
0.0
 10
35.014472
 20
226.835174
 30
0.0
  0
LWPOLYLINE
  5
2ad
100
AcDbEntity
  8
0
 62
7
100
AcDbPolyline
 90
2
 70
0
 10
35.014471
 20
226.834138
 30
0.0
 10
34.874226
 20
226.828938
 30
0.0
  0
LWPOLYLINE
  5
2ae
100
AcDbEntity
  8
0
 62
7
100
AcDbPolyline
 90
2
 70
0
 10
34.874331
 20
226.828944
 30
0.0
 10
34.728476
 20
226.834144
 30
0.0
  0
LWPOLYLINE
  5
2af
100
AcDbEntity
  8
0
 62
7
100
AcDbPolyline
 90
2
 70
0
 10
34.728373
 20
226.834138
 30
0.0
 10
34.635813
 20
226.853878
 30
0.0
  0
LWPOLYLINE
  5
2b0
100
AcDbEntity
  8
0
 62
7
100
AcDbPolyline
 90
2
 70
0
 10
34.635811
 20
226.854914
 30
0.0
 10
34.585321
 20
226.888154
 30
0.0
  0
LWPOLYLINE
  5
2b1
100
AcDbEntity
  8
0
 62
7
100
AcDbPolyline
 90
2
 70
0
 10
34.585322
 20
226.887120
 30
0.0
 10
34.571312
 20
226.940100
 30
0.0
  0
LWPOLYLINE
  5
2b2
100
AcDbEntity
  8
0
 62
7
100
AcDbPolyline
 90
2
 70
0
 10
34.571402
 20
227.218511
 30
0.0
 10
34.164693
 20
226.895430
 30
0.0
  0
LWPOLYLINE
  5
2b3
100
AcDbEntity
  8
0
 62
7
100
AcDbPolyline
 90
3
 70
0
 10
34.164693
 20
226.896467
 30
0.0
 10
33.696380
 20
226.781155
 30
0.0
 10
33.211238
 20
226.891274
 30
0.0
  0
LWPOLYLINE
  5
2b4
100
AcDbEntity
  8
0
 62
7
100
AcDbPolyline
 90
4
 70
0
 10
33.211238
 20
226.890234
 30
0.0
 10
32.888677
 20
227.190464
 30
0.0
 10
32.709164
 20
227.627817
 30
0.0
 10
32.653064
 20
228.158668
 30
0.0
  0
LWPOLYLINE
  5
2b5
100
AcDbEntity
  8
0
 62
7
100
AcDbPolyline
 90
3
 70
0
 10
32.652962
 20
228.157631
 30
0.0
 10
32.723082
 20
228.758085
 30
0.0
 10
32.933450
 20
229.213100
 30
0.0
  0
LWPOLYLINE
  5
2b6
100
AcDbEntity
  8
0
 62
7
100
AcDbPolyline
 90
2
 70
0
 10
32.933556
 20
229.213100
 30
0.0
 10
33.275753
 20
229.501898
 30
0.0
  0
LWPOLYLINE
  5
2b7
100
AcDbEntity
  8
0
 62
7
100
AcDbPolyline
 90
2
 70
0
 10
33.275647
 20
229.500861
 30
0.0
 10
33.746765
 20
229.602667
 30
0.0
  0
LWPOLYLINE
  5
2b8
100
AcDbEntity
  8
0
 62
7
100
AcDbPolyline
 90
2
 70
0
 10
33.746868
 20
229.602667
 30
0.0
 10
34.128230
 20
229.516447
 30
0.0
  0
LWPOLYLINE
  5
2b9
100
AcDbEntity
  8
0
 62
7
100
AcDbPolyline
 90
2
 70
0
 10
34.128230
 20
229.515404
 30
0.0
 10
34.467517
 20
229.266080
 30
0.0
  0
LWPOLYLINE
  5
2ba
100
AcDbEntity
  8
0
 62
7
100
AcDbPolyline
 90
2
 70
0
 10
34.571402
 20
226.941140
 30
0.0
 10
34.571402
 20
227.218511
 30
0.0
  0
LWPOLYLINE
  5
2bb
100
AcDbEntity
  8
0
 62
7
100
AcDbPolyline
 90
4
 70
0
 10
34.467622
 20
230.619699
 30
0.0
 10
34.481632
 20
230.670599
 30
0.0
 10
34.537746
 20
230.708002
 30
0.0
 10
34.647029
 20
230.732942
 30
0.0
  0
LWPOLYLINE
  5
2bc
100
AcDbEntity
  8
0
 62
7
100
AcDbPolyline
 90
5
 70
0
 10
34.647135
 20
230.732935
 30
0.0
 10
34.818129
 20
230.741235
 30
0.0
 10
34.989226
 20
230.732945
 30
0.0
 10
35.095812
 20
230.707995
 30
0.0
 10
35.151912
 20
230.671642
 30
0.0
  0
LWPOLYLINE
  5
2bd
100
AcDbEntity
  8
0
 62
7
100
AcDbPolyline
 90
2
 70
0
 10
35.151911
 20
230.670602
 30
0.0
 10
35.168751
 20
230.620742
 30
0.0
  0
LWPOLYLINE
  5
2be
100
AcDbEntity
  8
0
 62
7
100
AcDbPolyline
 90
2
 70
0
 10
34.467622
 20
229.266080
 30
0.0
 10
34.467622
 20
230.619699
 30
0.0
  0
LWPOLYLINE
  5
2bf
100
AcDbEntity
  8
0
 62
7
100
AcDbPolyline
 90
2
 70
0
 10
34.467622
 20
228.612646
 30
0.0
 10
34.175914
 20
228.904560
 30
0.0
  0
LWPOLYLINE
  5
2c0
100
AcDbEntity
  8
0
 62
7
100
AcDbPolyline
 90
2
 70
0
 10
34.176017
 20
228.903523
 30
0.0
 10
33.887113
 20
229.005329
 30
0.0
  0
LWPOLYLINE
  5
2c1
100
AcDbEntity
  8
0
 62
7
100
AcDbPolyline
 90
2
 70
0
 10
33.887010
 20
229.005329
 30
0.0
 10
33.648699
 20
228.935729
 30
0.0
  0
LWPOLYLINE
  5
2c2
100
AcDbEntity
  8
0
 62
7
100
AcDbPolyline
 90
2
 70
0
 10
33.648699
 20
228.934687
 30
0.0
 10
33.488820
 20
228.752889
 30
0.0
  0
LWPOLYLINE
  5
2c3
100
AcDbEntity
  8
0
 62
7
100
AcDbPolyline
 90
2
 70
0
 10
33.488820
 20
228.751852
 30
0.0
 10
33.399060
 20
228.494217
 30
0.0
  0
LWPOLYLINE
  5
2c4
100
AcDbEntity
  8
0
 62
7
100
AcDbPolyline
 90
2
 70
0
 10
33.399063
 20
228.495255
 30
0.0
 10
33.371013
 20
228.206457
 30
0.0
  0
LWPOLYLINE
  5
2c5
100
AcDbEntity
  8
0
 62
7
100
AcDbPolyline
 90
2
 70
0
 10
33.371014
 20
228.205417
 30
0.0
 10
33.396274
 20
227.899997
 30
0.0
  0
LWPOLYLINE
  5
2c6
100
AcDbEntity
  8
0
 62
7
100
AcDbPolyline
 90
2
 70
0
 10
33.396258
 20
227.901034
 30
0.0
 10
33.477598
 20
227.634050
 30
0.0
  0
LWPOLYLINE
  5
2c7
100
AcDbEntity
  8
0
 62
7
100
AcDbPolyline
 90
2
 70
0
 10
33.477599
 20
227.633013
 30
0.0
 10
33.631868
 20
227.448098
 30
0.0
  0
LWPOLYLINE
  5
2c8
100
AcDbEntity
  8
0
 62
7
100
AcDbPolyline
 90
2
 70
0
 10
33.631868
 20
227.449135
 30
0.0
 10
33.873090
 20
227.378495
 30
0.0
  0
LWPOLYLINE
  5
2c9
100
AcDbEntity
  8
0
 62
7
100
AcDbPolyline
 90
2
 70
0
 10
33.872984
 20
227.378495
 30
0.0
 10
34.013229
 20
227.398235
 30
0.0
  0
LWPOLYLINE
  5
2ca
100
AcDbEntity
  8
0
 62
7
100
AcDbPolyline
 90
2
 70
0
 10
34.013332
 20
227.398232
 30
0.0
 10
34.153577
 20
227.467832
 30
0.0
  0
LWPOLYLINE
  5
2cb
100
AcDbEntity
  8
0
 62
7
100
AcDbPolyline
 90
2
 70
0
 10
34.153577
 20
227.468875
 30
0.0
 10
34.302133
 20
227.592497
 30
0.0
  0
LWPOLYLINE
  5
2cc
100
AcDbEntity
  8
0
 62
7
100
AcDbPolyline
 90
2
 70
0
 10
34.302133
 20
227.591457
 30
0.0
 10
34.467622
 20
227.782605
 30
0.0
  0
LWPOLYLINE
  5
2cd
100
AcDbEntity
  8
0
 62
7
100
AcDbPolyline
 90
2
 70
0
 10
35.168739
 20
230.619699
 30
0.0
 10
35.168739
 20
226.940100
 30
0.0
  0
LWPOLYLINE
  5
2ce
100
AcDbEntity
  8
0
 62
7
100
AcDbPolyline
 90
2
 70
0
 10
34.467622
 20
227.781568
 30
0.0
 10
34.467622
 20
228.612646
 30
0.0
  0
LWPOLYLINE
  5
2cf
100
AcDbEntity
  8
0
 62
7
100
AcDbPolyline
 90
2
 70
0
 10
9.869824
 20
233.531590
 30
0.0
 10
10.088678
 20
233.312392
 30
0.0
  0
LWPOLYLINE
  5
2d0
100
AcDbEntity
  8
0
 62
7
100
AcDbPolyline
 90
2
 70
0
 10
8.425679
 20
233.531590
 30
0.0
 10
9.869824
 20
233.531590
 30
0.0
  0
LWPOLYLINE
  5
2d1
100
AcDbEntity
  8
0
 62
7
100
AcDbPolyline
 90
2
 70
0
 10
10.088730
 20
231.868394
 30
0.0
 10
9.869886
 20
231.650236
 30
0.0
  0
LWPOLYLINE
  5
2d2
100
AcDbEntity
  8
0
 62
7
100
AcDbPolyline
 90
2
 70
0
 10
10.088730
 20
233.312392
 30
0.0
 10
10.088730
 20
231.868394
 30
0.0
  0
LWPOLYLINE
  5
2d3
100
AcDbEntity
  8
0
 62
7
100
AcDbPolyline
 90
2
 70
0
 10
8.425679
 20
231.649199
 30
0.0
 10
8.206826
 20
231.868394
 30
0.0
  0
LWPOLYLINE
  5
2d4
100
AcDbEntity
  8
0
 62
7
100
AcDbPolyline
 90
2
 70
0
 10
9.869824
 20
231.649199
 30
0.0
 10
8.425679
 20
231.649199
 30
0.0
  0
LWPOLYLINE
  5
2d5
100
AcDbEntity
  8
0
 62
7
100
AcDbPolyline
 90
2
 70
0
 10
8.206826
 20
233.312392
 30
0.0
 10
8.425679
 20
233.531590
 30
0.0
  0
LWPOLYLINE
  5
2d6
100
AcDbEntity
  8
0
 62
7
100
AcDbPolyline
 90
2
 70
0
 10
8.206826
 20
231.868394
 30
0.0
 10
8.206826
 20
233.312392
 30
0.0
  0
LWPOLYLINE
  5
2d7
100
AcDbEntity
  8
0
 62
7
100
AcDbPolyline
 90
2
 70
0
 10
12.316269
 20
233.531590
 30
0.0
 10
12.535154
 20
233.312392
 30
0.0
  0
LWPOLYLINE
  5
2d8
100
AcDbEntity
  8
0
 62
7
100
AcDbPolyline
 90
2
 70
0
 10
10.872062
 20
233.531590
 30
0.0
 10
12.316269
 20
233.531590
 30
0.0
  0
LWPOLYLINE
  5
2d9
100
AcDbEntity
  8
0
 62
7
100
AcDbPolyline
 90
2
 70
0
 10
12.535050
 20
231.868394
 30
0.0
 10
12.316269
 20
231.650236
 30
0.0
  0
LWPOLYLINE
  5
2da
100
AcDbEntity
  8
0
 62
7
100
AcDbPolyline
 90
2
 70
0
 10
12.535050
 20
233.312392
 30
0.0
 10
12.535050
 20
231.868394
 30
0.0
  0
LWPOLYLINE
  5
2db
100
AcDbEntity
  8
0
 62
7
100
AcDbPolyline
 90
2
 70
0
 10
10.872062
 20
231.649199
 30
0.0
 10
10.653281
 20
231.868394
 30
0.0
  0
LWPOLYLINE
  5
2dc
100
AcDbEntity
  8
0
 62
7
100
AcDbPolyline
 90
2
 70
0
 10
12.316269
 20
231.649199
 30
0.0
 10
10.872062
 20
231.649199
 30
0.0
  0
LWPOLYLINE
  5
2dd
100
AcDbEntity
  8
0
 62
7
100
AcDbPolyline
 90
2
 70
0
 10
10.653281
 20
233.312392
 30
0.0
 10
10.872166
 20
233.531590
 30
0.0
  0
LWPOLYLINE
  5
2de
100
AcDbEntity
  8
0
 62
7
100
AcDbPolyline
 90
2
 70
0
 10
10.653281
 20
231.868394
 30
0.0
 10
10.653281
 20
233.312392
 30
0.0
  0
LWPOLYLINE
  5
2df
100
AcDbEntity
  8
0
 62
7
100
AcDbPolyline
 90
2
 70
0
 10
14.762755
 20
233.531590
 30
0.0
 10
14.981640
 20
233.312392
 30
0.0
  0
LWPOLYLINE
  5
2e0
100
AcDbEntity
  8
0
 62
7
100
AcDbPolyline
 90
2
 70
0
 10
13.318549
 20
233.531590
 30
0.0
 10
14.762755
 20
233.531590
 30
0.0
  0
LWPOLYLINE
  5
2e1
100
AcDbEntity
  8
0
 62
7
100
AcDbPolyline
 90
2
 70
0
 10
14.981537
 20
231.868394
 30
0.0
 10
14.762755
 20
231.650236
 30
0.0
  0
LWPOLYLINE
  5
2e2
100
AcDbEntity
  8
0
 62
7
100
AcDbPolyline
 90
2
 70
0
 10
14.981537
 20
233.312392
 30
0.0
 10
14.981537
 20
231.868394
 30
0.0
  0
LWPOLYLINE
  5
2e3
100
AcDbEntity
  8
0
 62
7
100
AcDbPolyline
 90
2
 70
0
 10
13.318549
 20
231.649199
 30
0.0
 10
13.099768
 20
231.868394
 30
0.0
  0
LWPOLYLINE
  5
2e4
100
AcDbEntity
  8
0
 62
7
100
AcDbPolyline
 90
2
 70
0
 10
14.762755
 20
231.649199
 30
0.0
 10
13.318549
 20
231.649199
 30
0.0
  0
LWPOLYLINE
  5
2e5
100
AcDbEntity
  8
0
 62
7
100
AcDbPolyline
 90
2
 70
0
 10
13.099664
 20
233.312392
 30
0.0
 10
13.318549
 20
233.531590
 30
0.0
  0
LWPOLYLINE
  5
2e6
100
AcDbEntity
  8
0
 62
7
100
AcDbPolyline
 90
2
 70
0
 10
13.099664
 20
231.868394
 30
0.0
 10
13.099664
 20
233.312392
 30
0.0
  0
LWPOLYLINE
  5
2e7
100
AcDbEntity
  8
0
 62
7
100
AcDbPolyline
 90
2
 70
0
 10
17.209242
 20
233.531590
 30
0.0
 10
17.428023
 20
233.312392
 30
0.0
  0
LWPOLYLINE
  5
2e8
100
AcDbEntity
  8
0
 62
7
100
AcDbPolyline
 90
2
 70
0
 10
15.765036
 20
233.531590
 30
0.0
 10
17.209242
 20
233.531590
 30
0.0
  0
LWPOLYLINE
  5
2e9
100
AcDbEntity
  8
0
 62
7
100
AcDbPolyline
 90
2
 70
0
 10
17.428023
 20
231.868394
 30
0.0
 10
17.209138
 20
231.650236
 30
0.0
  0
LWPOLYLINE
  5
2ea
100
AcDbEntity
  8
0
 62
7
100
AcDbPolyline
 90
2
 70
0
 10
17.428023
 20
233.312392
 30
0.0
 10
17.428023
 20
231.868394
 30
0.0
  0
LWPOLYLINE
  5
2eb
100
AcDbEntity
  8
0
 62
7
100
AcDbPolyline
 90
2
 70
0
 10
15.765036
 20
231.649199
 30
0.0
 10
15.546150
 20
231.868394
 30
0.0
  0
LWPOLYLINE
  5
2ec
100
AcDbEntity
  8
0
 62
7
100
AcDbPolyline
 90
2
 70
0
 10
17.209242
 20
231.649199
 30
0.0
 10
15.765036
 20
231.649199
 30
0.0
  0
LWPOLYLINE
  5
2ed
100
AcDbEntity
  8
0
 62
7
100
AcDbPolyline
 90
2
 70
0
 10
15.546150
 20
233.312392
 30
0.0
 10
15.764932
 20
233.531590
 30
0.0
  0
LWPOLYLINE
  5
2ee
100
AcDbEntity
  8
0
 62
7
100
AcDbPolyline
 90
2
 70
0
 10
15.546150
 20
231.868394
 30
0.0
 10
15.546150
 20
233.312392
 30
0.0
  0
ENDSEC
  0
SECTION
  2
OBJECTS
  0
DICTIONARY
  5
C
330
0
100
AcDbDictionary
  3
ACAD_GROUP
350
D
  3
ACAD_MLINESTYLE
350
17
  0
DICTIONARY
  5
D
330
C
100
AcDbDictionary
  0
DICTIONARY
  5
1A
330
C
100
AcDbDictionary
  0
DICTIONARY
  5
17
330
C
100
AcDbDictionary
  3
STANDARD
350
18
  0
DICTIONARY
  5
19
330
C
100
AcDbDictionary
  0
ENDSEC
  0
EOF
