999
"DXF R12 Output" (www.mydxf.blogspot.com)
 0 
SECTION
 2 
HEADER
 9 
$ACADVER
 1 
AC1009
 9 
$EXTMIN
 10 
 0 
 20 
 0 
 9 
$EXTMAX
 10 
 8.5 
 20 
 11 
 0 
ENDSEC
 0 
SECTION
 2 
ENTITIES
0
LINE
8
Layer 1
10
0.793749
20
297.794000
11
-0.793749
21
296.206000
0
LINE
8
Layer 1
10
0.000000
20
298.323000
11
0.000000
21
295.677000
0
LINE
8
Layer 1
10
2.116660
20
295.942000
11
1.058330
21
294.883670
0
LINE
8
Layer 1
10
1.587500
20
296.471000
11
0.529170
21
295.412670
0
LINE
8
Layer 1
10
1.058330
20
297.000000
11
0.000000
21
295.941670
0
LINE
8
Layer 1
10
0.793749
20
297.794000
11
-0.793749
21
296.206000
0
LINE
8
Layer 1
10
0.000000
20
298.323000
11
0.000000
21
295.677000
0
LINE
8
Layer 1
10
2.116660
20
295.942000
11
1.058330
21
294.883670
0
LINE
8
Layer 1
10
1.587500
20
296.471000
11
0.529170
21
295.412670
0
LINE
8
Layer 1
10
1.058330
20
297.000000
11
0.000000
21
295.941670
0
LINE
8
Layer 1
10
0.793749
20
297.794000
11
-0.793749
21
296.206000
0
LINE
8
Layer 1
10
0.000000
20
298.323000
11
0.000000
21
295.677000
0
LINE
8
Layer 1
10
2.116660
20
295.942000
11
1.058330
21
294.883670
0
LINE
8
Layer 1
10
1.587500
20
296.471000
11
0.529170
21
295.412670
0
LINE
8
Layer 1
10
1.058330
20
297.000000
11
0.000000
21
295.941670
0
LINE
8
0
10
97.732600
20
295.868000
11
97.656400
21
296.250587
0
LINE
8
0
10
97.656400
20
296.250000
11
97.439707
21
296.574379
0
LINE
8
0
10
97.439700
20
296.575000
11
97.115057
21
296.791958
0
LINE
8
0
10
97.115000
20
296.792000
11
96.732400
21
296.868000
0
LINE
8
0
10
96.732400
20
296.868000
11
1.132280
21
296.868000
0
LINE
8
0
10
1.132280
20
296.868000
11
0.749590
21
296.792000
0
LINE
8
0
10
0.749590
20
296.792000
11
0.425185
21
296.575000
0
LINE
8
0
10
0.425185
20
296.575000
11
0.208412
21
296.250000
0
LINE
8
0
10
0.208412
20
296.250000
11
0.132292
21
295.868000
0
LINE
8
0
10
0.132292
20
295.868000
11
0.132292
21
230.567000
0
LINE
8
0
10
0.132292
20
230.567000
11
0.312632
21
228.746670
0
LINE
8
0
10
0.312631
20
228.746000
11
0.840210
21
227.007690
0
LINE
8
0
10
0.840210
20
227.008000
11
1.694787
21
225.407270
0
LINE
8
0
10
1.694790
20
225.407000
11
2.856180
21
223.991480
0
LINE
8
0
10
2.856170
20
223.992000
11
4.272620
21
222.830480
0
LINE
8
0
10
4.272620
20
222.830000
11
5.873320
21
221.975397
0
LINE
8
0
10
5.873320
20
221.976000
11
7.609460
21
221.449480
0
LINE
8
0
10
7.609460
20
221.449000
11
9.432250
21
221.269084
0
LINE
8
0
10
9.432250
20
221.269000
11
88.431900
21
221.269000
0
LINE
8
0
10
88.431900
20
221.269000
11
90.254880
21
221.448916
0
LINE
8
0
10
90.254900
20
221.449000
11
91.991090
21
221.975520
0
LINE
8
0
10
91.991100
20
221.976000
11
93.591560
21
222.830603
0
LINE
8
0
10
93.591600
20
222.830000
11
95.008180
21
223.991520
0
LINE
8
0
10
95.008200
20
223.992000
11
96.169720
21
225.407520
0
LINE
8
0
10
96.169700
20
225.407000
11
97.024039
21
227.007730
0
LINE
8
0
10
97.024000
20
227.008000
11
97.551579
21
228.746310
0
LINE
8
0
10
97.551600
20
228.746000
11
97.732046
21
230.566330
0
LINE
8
0
10
97.732000
20
230.567000
11
97.732600
21
295.868000
0
LINE
8
0
10
80.782100
20
283.961000
11
80.953021
21
283.502742
0
LINE
8
0
10
80.953000
20
283.502000
11
81.382154
21
283.267579
0
LINE
8
0
10
81.382100
20
283.268000
11
81.382100
21
281.218000
0
LINE
8
0
10
81.382100
20
281.218000
11
81.587152
21
280.722965
0
LINE
8
0
10
81.587200
20
280.723000
11
82.081970
21
280.517948
0
LINE
8
0
10
82.082000
20
280.518000
11
94.782500
21
280.518000
0
LINE
8
0
10
94.782500
20
280.518000
11
95.277535
21
280.723052
0
LINE
8
0
10
95.277500
20
280.723000
11
95.482552
21
281.218035
0
LINE
8
0
10
95.482600
20
281.218000
11
95.482600
21
283.268000
0
LINE
8
0
10
95.482600
20
283.268000
11
95.911754
21
283.502421
0
LINE
8
0
10
95.911700
20
283.502000
11
96.082356
21
283.960258
0
LINE
8
0
10
96.082400
20
283.961000
11
96.082400
21
292.575000
0
LINE
8
0
10
96.082400
20
292.575000
11
95.911744
21
293.033258
0
LINE
8
0
10
95.911700
20
293.033000
11
95.482546
21
293.267421
0
LINE
8
0
10
95.482600
20
293.268000
11
95.482600
21
293.918000
0
LINE
8
0
10
95.482600
20
293.918000
11
95.277548
21
294.412770
0
LINE
8
0
10
95.277500
20
294.413000
11
94.782465
21
294.618052
0
LINE
8
0
10
94.782500
20
294.618000
11
82.082000
21
294.618000
0
LINE
8
0
10
82.082000
20
294.618000
11
81.587230
21
294.412948
0
LINE
8
0
10
81.587200
20
294.413000
11
81.382148
21
293.918230
0
LINE
8
0
10
81.382100
20
293.918000
11
81.382100
21
293.268000
0
LINE
8
0
10
81.382100
20
293.268000
11
80.952946
21
293.033315
0
LINE
8
0
10
80.953000
20
293.033000
11
80.782079
21
292.574742
0
LINE
8
0
10
80.782100
20
292.575000
11
80.782100
21
283.961000
0
LINE
8
0
10
20.082300
20
292.575000
11
20.082300
21
283.961000
0
LINE
8
0
10
20.082300
20
283.961000
11
19.911432
21
283.502742
0
LINE
8
0
10
19.911400
20
283.502000
11
19.482246
21
283.267579
0
LINE
8
0
10
19.482300
20
283.268000
11
19.482300
21
281.218000
0
LINE
8
0
10
19.482300
20
281.218000
11
19.277200
21
280.723000
0
LINE
8
0
10
19.277200
20
280.723000
11
18.782245
21
280.517948
0
LINE
8
0
10
18.782300
20
280.518000
11
6.082290
21
280.518000
0
LINE
8
0
10
6.082290
20
280.518000
11
5.587310
21
280.723000
0
LINE
8
0
10
5.587310
20
280.723000
11
5.382280
21
281.218000
0
LINE
8
0
10
5.382280
20
281.218000
11
5.382280
21
283.268000
0
LINE
8
0
10
5.382280
20
283.268000
11
4.953126
21
283.502421
0
LINE
8
0
10
4.953130
20
283.502000
11
4.782280
21
283.961000
0
LINE
8
0
10
4.782280
20
283.961000
11
4.782280
21
292.575000
0
LINE
8
0
10
4.782280
20
292.575000
11
4.953121
21
293.033258
0
LINE
8
0
10
4.953130
20
293.033000
11
5.382284
21
293.267421
0
LINE
8
0
10
5.382280
20
293.268000
11
5.382280
21
293.918000
0
LINE
8
0
10
5.382280
20
293.918000
11
5.587305
21
294.412770
0
LINE
8
0
10
5.587310
20
294.413000
11
6.082290
21
294.618000
0
LINE
8
0
10
6.082290
20
294.618000
11
18.782300
21
294.618000
0
LINE
8
0
10
18.782300
20
294.618000
11
19.277255
21
294.412948
0
LINE
8
0
10
19.277200
20
294.413000
11
19.482225
21
293.918230
0
LINE
8
0
10
19.482300
20
293.918000
11
19.482300
21
293.268000
0
LINE
8
0
10
19.482300
20
293.268000
11
19.911454
21
293.033315
0
LINE
8
0
10
19.911400
20
293.033000
11
20.082268
21
292.574742
0
LINE
8
0
10
20.082300
20
292.575000
11
20.082300
21
292.575000
0
LINE
8
0
10
42.782100
20
283.961000
11
42.782100
21
292.575000
0
LINE
8
0
10
42.782100
20
292.575000
11
42.953021
21
293.033258
0
LINE
8
0
10
42.953000
20
293.033000
11
43.382154
21
293.267421
0
LINE
8
0
10
43.382200
20
293.268000
11
43.382200
21
293.918000
0
LINE
8
0
10
43.382200
20
293.918000
11
43.587252
21
294.412770
0
LINE
8
0
10
43.587200
20
294.413000
11
44.081970
21
294.618052
0
LINE
8
0
10
44.082000
20
294.618000
11
56.782000
21
294.618000
0
LINE
8
0
10
56.782000
20
294.618000
11
57.277035
21
294.412948
0
LINE
8
0
10
57.277000
20
294.413000
11
57.482052
21
293.918230
0
LINE
8
0
10
57.482100
20
293.918000
11
57.482100
21
293.268000
0
LINE
8
0
10
57.482100
20
293.268000
11
57.911254
21
293.033315
0
LINE
8
0
10
57.911200
20
293.033000
11
58.082121
21
292.574742
0
LINE
8
0
10
58.082200
20
292.575000
11
58.082200
21
283.961000
0
LINE
8
0
10
58.082200
20
283.961000
11
57.911279
21
283.502742
0
LINE
8
0
10
57.911200
20
283.502000
11
57.482046
21
283.267579
0
LINE
8
0
10
57.482100
20
283.268000
11
57.482100
21
281.218000
0
LINE
8
0
10
57.482100
20
281.218000
11
57.277048
21
280.722965
0
LINE
8
0
10
57.277000
20
280.723000
11
56.781965
21
280.517948
0
LINE
8
0
10
56.782000
20
280.518000
11
44.082000
21
280.518000
0
LINE
8
0
10
44.082000
20
280.518000
11
43.587230
21
280.723052
0
LINE
8
0
10
43.587200
20
280.723000
11
43.382148
21
281.218035
0
LINE
8
0
10
43.382200
20
281.218000
11
43.382200
21
283.268000
0
LINE
8
0
10
43.382200
20
283.268000
11
42.953046
21
283.502421
0
LINE
8
0
10
42.953000
20
283.502000
11
42.782079
21
283.960258
0
LINE
8
0
10
42.782100
20
283.961000
11
42.782100
21
283.961000
0
LINE
8
0
10
39.082200
20
292.575000
11
39.082200
21
283.961000
0
LINE
8
0
10
39.082200
20
283.961000
11
38.911279
21
283.502742
0
LINE
8
0
10
38.911300
20
283.502000
11
38.482146
21
283.267579
0
LINE
8
0
10
38.482100
20
283.268000
11
38.482100
21
281.218000
0
LINE
8
0
10
38.482100
20
281.218000
11
38.277313
21
280.722965
0
LINE
8
0
10
38.277300
20
280.723000
11
37.782265
21
280.517948
0
LINE
8
0
10
37.782300
20
280.518000
11
25.082300
21
280.518000
0
LINE
8
0
10
25.082300
20
280.518000
11
24.587300
21
280.723000
0
LINE
8
0
10
24.587300
20
280.723000
11
24.382248
21
281.218035
0
LINE
8
0
10
24.382200
20
281.218000
11
24.382200
21
283.268000
0
LINE
8
0
10
24.382200
20
283.268000
11
23.953046
21
283.502421
0
LINE
8
0
10
23.953100
20
283.502000
11
23.782179
21
283.960258
0
LINE
8
0
10
23.782100
20
283.961000
11
23.782100
21
292.575000
0
LINE
8
0
10
23.782100
20
292.575000
11
23.953021
21
293.033258
0
LINE
8
0
10
23.953100
20
293.033000
11
24.382254
21
293.267421
0
LINE
8
0
10
24.382200
20
293.268000
11
24.382200
21
293.918000
0
LINE
8
0
10
24.382200
20
293.918000
11
24.587252
21
294.412770
0
LINE
8
0
10
24.587300
20
294.413000
11
25.082335
21
294.618052
0
LINE
8
0
10
25.082300
20
294.618000
11
37.782300
21
294.618000
0
LINE
8
0
10
37.782300
20
294.618000
11
38.277335
21
294.412948
0
LINE
8
0
10
38.277300
20
294.413000
11
38.482087
21
293.918230
0
LINE
8
0
10
38.482100
20
293.918000
11
38.482100
21
293.268000
0
LINE
8
0
10
38.482100
20
293.268000
11
38.911254
21
293.033315
0
LINE
8
0
10
38.911300
20
293.033000
11
39.082221
21
292.574742
0
LINE
8
0
10
39.082200
20
292.575000
11
39.082200
21
292.575000
0
LINE
8
0
10
31.782300
20
264.961000
11
31.782300
21
273.575000
0
LINE
8
0
10
31.782300
20
273.575000
11
31.952956
21
274.033258
0
LINE
8
0
10
31.953000
20
274.033000
11
32.382154
21
274.267685
0
LINE
8
0
10
32.382200
20
274.268000
11
32.382200
21
274.918000
0
LINE
8
0
10
32.382200
20
274.918000
11
32.587252
21
275.412770
0
LINE
8
0
10
32.587200
20
275.413000
11
33.082235
21
275.618052
0
LINE
8
0
10
33.082200
20
275.618000
11
45.782200
21
275.618000
0
LINE
8
0
10
45.782200
20
275.618000
11
46.276970
21
275.412948
0
LINE
8
0
10
46.277000
20
275.413000
11
46.482052
21
274.918230
0
LINE
8
0
10
46.482000
20
274.918000
11
46.482000
21
274.268000
0
LINE
8
0
10
46.482000
20
274.268000
11
46.911154
21
274.033315
0
LINE
8
0
10
46.911200
20
274.033000
11
47.082121
21
273.574742
0
LINE
8
0
10
47.082100
20
273.575000
11
47.082100
21
264.961000
0
LINE
8
0
10
47.082100
20
264.961000
11
46.911179
21
264.502742
0
LINE
8
0
10
46.911200
20
264.503000
11
46.482046
21
264.268315
0
LINE
8
0
10
46.482000
20
264.268000
11
46.482000
21
262.218000
0
LINE
8
0
10
46.482000
20
262.218000
11
46.276948
21
261.722965
0
LINE
8
0
10
46.277000
20
261.723000
11
45.782230
21
261.517948
0
LINE
8
0
10
45.782200
20
261.518000
11
33.082200
21
261.518000
0
LINE
8
0
10
33.082200
20
261.518000
11
32.587165
21
261.723052
0
LINE
8
0
10
32.587200
20
261.723000
11
32.382148
21
262.218035
0
LINE
8
0
10
32.382200
20
262.218000
11
32.382200
21
264.268000
0
LINE
8
0
10
32.382200
20
264.268000
11
31.953046
21
264.502421
0
LINE
8
0
10
31.953000
20
264.502000
11
31.782344
21
264.960258
0
LINE
8
0
10
31.782300
20
264.961000
11
31.782300
21
264.961000
0
LINE
8
0
10
69.782000
20
264.961000
11
69.952921
21
264.502742
0
LINE
8
0
10
69.952900
20
264.503000
11
70.382054
21
264.268315
0
LINE
8
0
10
70.382100
20
264.268000
11
70.382100
21
262.218000
0
LINE
8
0
10
70.382100
20
262.218000
11
70.587152
21
261.722965
0
LINE
8
0
10
70.587100
20
261.723000
11
71.082135
21
261.517948
0
LINE
8
0
10
71.082200
20
261.518000
11
83.782200
21
261.518000
0
LINE
8
0
10
83.782200
20
261.518000
11
84.276970
21
261.723052
0
LINE
8
0
10
84.276900
20
261.723000
11
84.481952
21
262.218035
0
LINE
8
0
10
84.482000
20
262.218000
11
84.482000
21
264.268000
0
LINE
8
0
10
84.482000
20
264.268000
11
84.911154
21
264.502421
0
LINE
8
0
10
84.911100
20
264.502000
11
85.082021
21
264.960258
0
LINE
8
0
10
85.082100
20
264.961000
11
85.082100
21
273.575000
0
LINE
8
0
10
85.082100
20
273.575000
11
84.911179
21
274.033258
0
LINE
8
0
10
84.911100
20
274.033000
11
84.481946
21
274.267685
0
LINE
8
0
10
84.482000
20
274.268000
11
84.482000
21
274.918000
0
LINE
8
0
10
84.482000
20
274.918000
11
84.276948
21
275.412770
0
LINE
8
0
10
84.276900
20
275.413000
11
83.782130
21
275.618052
0
LINE
8
0
10
83.782200
20
275.618000
11
71.082200
21
275.618000
0
LINE
8
0
10
71.082200
20
275.618000
11
70.587165
21
275.412948
0
LINE
8
0
10
70.587100
20
275.413000
11
70.382048
21
274.918230
0
LINE
8
0
10
70.382100
20
274.918000
11
70.382100
21
274.268000
0
LINE
8
0
10
70.382100
20
274.268000
11
69.952946
21
274.033315
0
LINE
8
0
10
69.952900
20
274.033000
11
69.781979
21
273.574742
0
LINE
8
0
10
69.782000
20
273.575000
11
69.782000
21
264.961000
0
LINE
8
0
10
58.782000
20
245.960000
11
58.952921
21
245.502271
0
LINE
8
0
10
58.952900
20
245.502000
11
59.382054
21
245.266521
0
LINE
8
0
10
59.382100
20
245.267000
11
59.382100
21
243.219000
0
LINE
8
0
10
59.382100
20
243.219000
11
59.587152
21
242.724230
0
LINE
8
0
10
59.587100
20
242.724000
11
60.082135
21
242.517625
0
LINE
8
0
10
60.082100
20
242.518000
11
72.782100
21
242.518000
0
LINE
8
0
10
72.782100
20
242.518000
11
73.277135
21
242.724375
0
LINE
8
0
10
73.277200
20
242.724000
11
73.482252
21
243.218770
0
LINE
8
0
10
73.482200
20
243.219000
11
73.482200
21
245.267000
0
LINE
8
0
10
73.482200
20
245.267000
11
73.911354
21
245.502479
0
LINE
8
0
10
73.911400
20
245.502000
11
74.082056
21
245.959729
0
LINE
8
0
10
74.082000
20
245.960000
11
74.082000
21
254.575000
0
LINE
8
0
10
74.082000
20
254.575000
11
73.911344
21
255.033258
0
LINE
8
0
10
73.911400
20
255.033000
11
73.482246
21
255.267685
0
LINE
8
0
10
73.482200
20
255.268000
11
73.482200
21
255.918000
0
LINE
8
0
10
73.482200
20
255.918000
11
73.277148
21
256.413035
0
LINE
8
0
10
73.277200
20
256.413000
11
72.782165
21
256.618052
0
LINE
8
0
10
72.782100
20
256.618000
11
60.082100
21
256.618000
0
LINE
8
0
10
60.082100
20
256.618000
11
59.587065
21
256.412948
0
LINE
8
0
10
59.587100
20
256.413000
11
59.382048
21
255.917965
0
LINE
8
0
10
59.382100
20
255.918000
11
59.382100
21
255.268000
0
LINE
8
0
10
59.382100
20
255.268000
11
58.952946
21
255.033579
0
LINE
8
0
10
58.952900
20
255.033000
11
58.781979
21
254.574742
0
LINE
8
0
10
58.782000
20
254.575000
11
58.782000
21
245.960000
0
LINE
8
0
10
1.782280
20
245.960000
11
1.953121
21
245.502271
0
LINE
8
0
10
1.953130
20
245.502000
11
2.382284
21
245.266521
0
LINE
8
0
10
2.382280
20
245.267000
11
2.382280
21
243.219000
0
LINE
8
0
10
2.382280
20
243.219000
11
2.587305
21
242.724230
0
LINE
8
0
10
2.587300
20
242.724000
11
3.082282
21
242.517625
0
LINE
8
0
10
3.082290
20
242.518000
11
15.782300
21
242.518000
0
LINE
8
0
10
15.782300
20
242.518000
11
16.277282
21
242.724375
0
LINE
8
0
10
16.277300
20
242.724000
11
16.482299
21
243.218770
0
LINE
8
0
10
16.482300
20
243.219000
11
16.482326
21
245.266870
0
LINE
8
0
10
16.482300
20
245.267000
11
16.911454
21
245.502479
0
LINE
8
0
10
16.911400
20
245.502000
11
17.082241
21
245.959729
0
LINE
8
0
10
17.082300
20
245.960000
11
17.082300
21
254.575000
0
LINE
8
0
10
17.082300
20
254.575000
11
16.911432
21
255.033258
0
LINE
8
0
10
16.911400
20
255.033000
11
16.482273
21
255.267685
0
LINE
8
0
10
16.482300
20
255.268000
11
16.482300
21
255.918000
0
LINE
8
0
10
16.482300
20
255.918000
11
16.277300
21
256.413000
0
LINE
8
0
10
16.277300
20
256.413000
11
15.782318
21
256.618052
0
LINE
8
0
10
15.782300
20
256.618000
11
3.082290
21
256.618000
0
LINE
8
0
10
3.082290
20
256.618000
11
2.587300
21
256.413000
0
LINE
8
0
10
2.587300
20
256.413000
11
2.382275
21
255.917965
0
LINE
8
0
10
2.382280
20
255.918000
11
2.382280
21
255.268000
0
LINE
8
0
10
2.382280
20
255.268000
11
1.953126
21
255.033579
0
LINE
8
0
10
1.953130
20
255.033000
11
1.782289
21
254.574742
0
LINE
8
0
10
1.782280
20
254.575000
11
1.782280
21
245.960000
0
LINE
8
0
10
77.782200
20
245.960000
11
77.952856
21
245.502271
0
LINE
8
0
10
77.952900
20
245.502000
11
78.382054
21
245.266521
0
LINE
8
0
10
78.382000
20
245.267000
11
78.382000
21
243.219000
0
LINE
8
0
10
78.382000
20
243.219000
11
78.587052
21
242.724230
0
LINE
8
0
10
78.587100
20
242.724000
11
79.082135
21
242.517625
0
LINE
8
0
10
79.082100
20
242.518000
11
91.782100
21
242.518000
0
LINE
8
0
10
91.782100
20
242.518000
11
92.277135
21
242.724375
0
LINE
8
0
10
92.277100
20
242.724000
11
92.482152
21
243.218770
0
LINE
8
0
10
92.482200
20
243.219000
11
92.482200
21
245.267000
0
LINE
8
0
10
92.482200
20
245.267000
11
92.911354
21
245.502479
0
LINE
8
0
10
92.911300
20
245.502000
11
93.081956
21
245.959729
0
LINE
8
0
10
93.082000
20
245.960000
11
93.082000
21
254.575000
0
LINE
8
0
10
93.082000
20
254.575000
11
92.911344
21
255.033258
0
LINE
8
0
10
92.911300
20
255.033000
11
92.482146
21
255.267685
0
LINE
8
0
10
92.482200
20
255.268000
11
92.482200
21
255.918000
0
LINE
8
0
10
92.482200
20
255.918000
11
92.277148
21
256.413035
0
LINE
8
0
10
92.277100
20
256.413000
11
91.782065
21
256.618052
0
LINE
8
0
10
91.782100
20
256.618000
11
79.082100
21
256.618000
0
LINE
8
0
10
79.082100
20
256.618000
11
78.587065
21
256.412948
0
LINE
8
0
10
78.587100
20
256.413000
11
78.382048
21
255.917965
0
LINE
8
0
10
78.382000
20
255.918000
11
78.382000
21
255.268000
0
LINE
8
0
10
78.382000
20
255.268000
11
77.952846
21
255.033579
0
LINE
8
0
10
77.952900
20
255.033000
11
77.782244
21
254.574742
0
LINE
8
0
10
77.782200
20
254.575000
11
77.782200
21
245.960000
0
LINE
8
0
10
50.782100
20
264.961000
11
50.953021
21
264.502742
0
LINE
8
0
10
50.953000
20
264.503000
11
51.382154
21
264.268315
0
LINE
8
0
10
51.382100
20
264.268000
11
51.382100
21
262.218000
0
LINE
8
0
10
51.382100
20
262.218000
11
51.587152
21
261.722965
0
LINE
8
0
10
51.587200
20
261.723000
11
52.082235
21
261.517948
0
LINE
8
0
10
52.082200
20
261.518000
11
64.782200
21
261.518000
0
LINE
8
0
10
64.782200
20
261.518000
11
65.276970
21
261.723052
0
LINE
8
0
10
65.277000
20
261.723000
11
65.482052
21
262.218035
0
LINE
8
0
10
65.482000
20
262.218000
11
65.482000
21
264.268000
0
LINE
8
0
10
65.482000
20
264.268000
11
65.911154
21
264.502421
0
LINE
8
0
10
65.911200
20
264.502000
11
66.082121
21
264.960258
0
LINE
8
0
10
66.082100
20
264.961000
11
66.082100
21
273.575000
0
LINE
8
0
10
66.082100
20
273.575000
11
65.911179
21
274.033258
0
LINE
8
0
10
65.911200
20
274.033000
11
65.482046
21
274.267685
0
LINE
8
0
10
65.482000
20
274.268000
11
65.482000
21
274.918000
0
LINE
8
0
10
65.482000
20
274.918000
11
65.276948
21
275.412770
0
LINE
8
0
10
65.277000
20
275.413000
11
64.782230
21
275.618052
0
LINE
8
0
10
64.782200
20
275.618000
11
52.082200
21
275.618000
0
LINE
8
0
10
52.082200
20
275.618000
11
51.587165
21
275.412948
0
LINE
8
0
10
51.587200
20
275.413000
11
51.382148
21
274.918230
0
LINE
8
0
10
51.382100
20
274.918000
11
51.382100
21
274.268000
0
LINE
8
0
10
51.382100
20
274.268000
11
50.952946
21
274.033315
0
LINE
8
0
10
50.953000
20
274.033000
11
50.782079
21
273.574742
0
LINE
8
0
10
50.782100
20
273.575000
11
50.782100
21
264.961000
0
LINE
8
0
10
61.782100
20
283.961000
11
61.953021
21
283.502742
0
LINE
8
0
10
61.953000
20
283.502000
11
62.382154
21
283.267579
0
LINE
8
0
10
62.382200
20
283.268000
11
62.382200
21
281.218000
0
LINE
8
0
10
62.382200
20
281.218000
11
62.587252
21
280.722965
0
LINE
8
0
10
62.587200
20
280.723000
11
63.081970
21
280.517948
0
LINE
8
0
10
63.082000
20
280.518000
11
75.782000
21
280.518000
0
LINE
8
0
10
75.782000
20
280.518000
11
76.277035
21
280.723052
0
LINE
8
0
10
76.277000
20
280.723000
11
76.482052
21
281.218035
0
LINE
8
0
10
76.482100
20
281.218000
11
76.482100
21
283.268000
0
LINE
8
0
10
76.482100
20
283.268000
11
76.911254
21
283.502421
0
LINE
8
0
10
76.911200
20
283.502000
11
77.082121
21
283.960258
0
LINE
8
0
10
77.082100
20
283.961000
11
77.082100
21
292.575000
0
LINE
8
0
10
77.082100
20
292.575000
11
76.911179
21
293.033258
0
LINE
8
0
10
76.911200
20
293.033000
11
76.482046
21
293.267421
0
LINE
8
0
10
76.482100
20
293.268000
11
76.482100
21
293.918000
0
LINE
8
0
10
76.482100
20
293.918000
11
76.277048
21
294.412770
0
LINE
8
0
10
76.277000
20
294.413000
11
75.781965
21
294.618052
0
LINE
8
0
10
75.782000
20
294.618000
11
63.082000
21
294.618000
0
LINE
8
0
10
63.082000
20
294.618000
11
62.587230
21
294.412948
0
LINE
8
0
10
62.587200
20
294.413000
11
62.382148
21
293.918230
0
LINE
8
0
10
62.382200
20
293.918000
11
62.382200
21
293.268000
0
LINE
8
0
10
62.382200
20
293.268000
11
61.953046
21
293.033315
0
LINE
8
0
10
61.953000
20
293.033000
11
61.782079
21
292.574742
0
LINE
8
0
10
61.782100
20
292.575000
11
61.782100
21
283.961000
0
LINE
8
0
10
27.482300
20
264.268000
11
27.482300
21
262.218000
0
LINE
8
0
10
27.482300
20
262.218000
11
27.277248
21
261.722965
0
LINE
8
0
10
27.277300
20
261.723000
11
26.782265
21
261.517948
0
LINE
8
0
10
26.782300
20
261.518000
11
14.082300
21
261.518000
0
LINE
8
0
10
14.082300
20
261.518000
11
13.587318
21
261.723052
0
LINE
8
0
10
13.587300
20
261.723000
11
13.382300
21
262.218000
0
LINE
8
0
10
13.382300
20
262.218000
11
13.382300
21
264.268000
0
LINE
8
0
10
13.382300
20
264.268000
11
12.953146
21
264.502421
0
LINE
8
0
10
12.953100
20
264.502000
11
12.782300
21
264.961000
0
LINE
8
0
10
12.782300
20
264.961000
11
12.782300
21
273.575000
0
LINE
8
0
10
12.782300
20
273.575000
11
12.953141
21
274.033258
0
LINE
8
0
10
12.953100
20
274.033000
11
13.382254
21
274.267685
0
LINE
8
0
10
13.382300
20
274.268000
11
13.382300
21
274.918000
0
LINE
8
0
10
13.382300
20
274.918000
11
13.587325
21
275.412770
0
LINE
8
0
10
13.587300
20
275.413000
11
14.082282
21
275.618052
0
LINE
8
0
10
14.082300
20
275.618000
11
26.782300
21
275.618000
0
LINE
8
0
10
26.782300
20
275.618000
11
27.277335
21
275.412948
0
LINE
8
0
10
27.277300
20
275.413000
11
27.482352
21
274.918230
0
LINE
8
0
10
27.482300
20
274.918000
11
27.482300
21
274.268000
0
LINE
8
0
10
27.482300
20
274.268000
11
27.911454
21
274.033315
0
LINE
8
0
10
27.911500
20
274.033000
11
28.082156
21
273.574742
0
LINE
8
0
10
28.082200
20
273.575000
11
28.082200
21
264.961000
0
LINE
8
0
10
28.082200
20
264.961000
11
27.911544
21
264.502742
0
LINE
8
0
10
27.911500
20
264.503000
11
27.482346
21
264.268315
0
LINE
8
0
10
27.482300
20
264.268000
11
27.482300
21
264.268000
0
LINE
8
0
10
62.232100
20
226.267000
11
62.232100
21
224.217000
0
LINE
8
0
10
62.232100
20
224.217000
11
62.027048
21
223.722230
0
LINE
8
0
10
62.027100
20
223.722000
11
61.532065
21
223.518271
0
LINE
8
0
10
61.532100
20
223.518000
11
48.832100
21
223.518000
0
LINE
8
0
10
48.832100
20
223.518000
11
48.337065
21
223.721729
0
LINE
8
0
10
48.337000
20
223.722000
11
48.132213
21
224.216770
0
LINE
8
0
10
48.132300
20
224.217000
11
48.132300
21
226.267000
0
LINE
8
0
10
48.132300
20
226.267000
11
47.703146
21
226.502479
0
LINE
8
0
10
47.703100
20
226.503000
11
47.532179
21
226.960729
0
LINE
8
0
10
47.532200
20
226.960000
11
47.532200
21
235.575000
0
LINE
8
0
10
47.532200
20
235.575000
11
47.703121
21
236.032729
0
LINE
8
0
10
47.703100
20
236.033000
11
48.132254
21
236.268479
0
LINE
8
0
10
48.132300
20
236.268000
11
48.132300
21
236.917000
0
LINE
8
0
10
48.132300
20
236.917000
11
48.337087
21
237.414416
0
LINE
8
0
10
48.337000
20
237.414000
11
48.832035
21
237.617729
0
LINE
8
0
10
48.832100
20
237.618000
11
61.532100
21
237.618000
0
LINE
8
0
10
61.532100
20
237.618000
11
62.027135
21
237.414271
0
LINE
8
0
10
62.027100
20
237.414000
11
62.232152
21
236.919230
0
LINE
8
0
10
62.232100
20
236.919000
11
62.232100
21
236.268000
0
LINE
8
0
10
62.232100
20
236.268000
11
62.661254
21
236.032521
0
LINE
8
0
10
62.661300
20
236.033000
11
62.832221
21
235.575271
0
LINE
8
0
10
62.832200
20
235.575000
11
62.832200
21
226.960000
0
LINE
8
0
10
62.832200
20
226.960000
11
62.661279
21
226.502271
0
LINE
8
0
10
62.661300
20
226.503000
11
62.232146
21
226.267521
0
LINE
8
0
10
62.232100
20
226.267000
11
62.232100
21
226.267000
0
LINE
8
0
10
54.482200
20
245.267000
11
54.482200
21
243.219000
0
LINE
8
0
10
54.482200
20
243.219000
11
54.277148
21
242.724230
0
LINE
8
0
10
54.277200
20
242.724000
11
53.782165
21
242.517625
0
LINE
8
0
10
53.782200
20
242.518000
11
41.082200
21
242.518000
0
LINE
8
0
10
41.082200
20
242.518000
11
40.587165
21
242.724375
0
LINE
8
0
10
40.587100
20
242.724000
11
40.382313
21
243.218770
0
LINE
8
0
10
40.382400
20
243.219000
11
40.382400
21
245.267000
0
LINE
8
0
10
40.382400
20
245.267000
11
39.953246
21
245.502479
0
LINE
8
0
10
39.953200
20
245.502000
11
39.782279
21
245.959729
0
LINE
8
0
10
39.782300
20
245.960000
11
39.782300
21
254.575000
0
LINE
8
0
10
39.782300
20
254.575000
11
39.953221
21
255.033258
0
LINE
8
0
10
39.953200
20
255.033000
11
40.382354
21
255.267685
0
LINE
8
0
10
40.382400
20
255.268000
11
40.382400
21
255.918000
0
LINE
8
0
10
40.382400
20
255.918000
11
40.587187
21
256.413035
0
LINE
8
0
10
40.587100
20
256.413000
11
41.082135
21
256.618052
0
LINE
8
0
10
41.082200
20
256.618000
11
53.782200
21
256.618000
0
LINE
8
0
10
53.782200
20
256.618000
11
54.277235
21
256.412948
0
LINE
8
0
10
54.277200
20
256.413000
11
54.482252
21
255.917965
0
LINE
8
0
10
54.482200
20
255.918000
11
54.482200
21
255.268000
0
LINE
8
0
10
54.482200
20
255.268000
11
54.911354
21
255.033579
0
LINE
8
0
10
54.911400
20
255.033000
11
55.082056
21
254.574742
0
LINE
8
0
10
55.082100
20
254.575000
11
55.082100
21
245.960000
0
LINE
8
0
10
55.082100
20
245.960000
11
54.911444
21
245.502271
0
LINE
8
0
10
54.911400
20
245.502000
11
54.482246
21
245.266521
0
LINE
8
0
10
54.482200
20
245.267000
11
54.482200
21
245.267000
0
LINE
8
0
10
35.482300
20
245.267000
11
35.482300
21
243.219000
0
LINE
8
0
10
35.482300
20
243.219000
11
35.277248
21
242.724230
0
LINE
8
0
10
35.277200
20
242.724000
11
34.782165
21
242.517625
0
LINE
8
0
10
34.782200
20
242.518000
11
22.082200
21
242.518000
0
LINE
8
0
10
22.082200
20
242.518000
11
21.587165
21
242.724375
0
LINE
8
0
10
21.587200
20
242.724000
11
21.382413
21
243.218770
0
LINE
8
0
10
21.382400
20
243.219000
11
21.382400
21
245.267000
0
LINE
8
0
10
21.382400
20
245.267000
11
20.953114
21
245.502479
0
LINE
8
0
10
20.953100
20
245.502000
11
20.782259
21
245.959729
0
LINE
8
0
10
20.782300
20
245.960000
11
20.782300
21
254.575000
0
LINE
8
0
10
20.782300
20
254.575000
11
20.953141
21
255.033258
0
LINE
8
0
10
20.953100
20
255.033000
11
21.382386
21
255.267685
0
LINE
8
0
10
21.382400
20
255.268000
11
21.382400
21
255.918000
0
LINE
8
0
10
21.382400
20
255.918000
11
21.587187
21
256.413035
0
LINE
8
0
10
21.587200
20
256.413000
11
22.082235
21
256.618052
0
LINE
8
0
10
22.082200
20
256.618000
11
34.782200
21
256.618000
0
LINE
8
0
10
34.782200
20
256.618000
11
35.277235
21
256.412948
0
LINE
8
0
10
35.277200
20
256.413000
11
35.482252
21
255.917965
0
LINE
8
0
10
35.482300
20
255.918000
11
35.482300
21
255.268000
0
LINE
8
0
10
35.482300
20
255.268000
11
35.911454
21
255.033579
0
LINE
8
0
10
35.911400
20
255.033000
11
36.082321
21
254.574742
0
LINE
8
0
10
36.082300
20
254.575000
11
36.082300
21
245.960000
0
LINE
8
0
10
36.082300
20
245.960000
11
35.911379
21
245.502271
0
LINE
8
0
10
35.911400
20
245.502000
11
35.482246
21
245.266521
0
LINE
8
0
10
35.482300
20
245.267000
11
35.482300
21
245.267000
0
LINE
8
0
10
90.732000
20
226.267000
11
90.732000
21
224.217000
0
LINE
8
0
10
90.732000
20
224.217000
11
90.527213
21
223.722230
0
LINE
8
0
10
90.527200
20
223.722000
11
90.032165
21
223.518271
0
LINE
8
0
10
90.032100
20
223.518000
11
77.332200
21
223.518000
0
LINE
8
0
10
77.332200
20
223.518000
11
76.837165
21
223.721729
0
LINE
8
0
10
76.837100
20
223.722000
11
76.632048
21
224.216770
0
LINE
8
0
10
76.632100
20
224.217000
11
76.632100
21
226.267000
0
LINE
8
0
10
76.632100
20
226.267000
11
76.202946
21
226.502479
0
LINE
8
0
10
76.202900
20
226.503000
11
76.031979
21
226.960729
0
LINE
8
0
10
76.032000
20
226.960000
11
76.032000
21
235.575000
0
LINE
8
0
10
76.032000
20
235.575000
11
76.202921
21
236.032729
0
LINE
8
0
10
76.202900
20
236.033000
11
76.632054
21
236.268479
0
LINE
8
0
10
76.632100
20
236.268000
11
76.632100
21
236.917000
0
LINE
8
0
10
76.632100
20
236.917000
11
76.837152
21
237.414416
0
LINE
8
0
10
76.837100
20
237.414000
11
77.332135
21
237.617729
0
LINE
8
0
10
77.332200
20
237.618000
11
90.032100
21
237.618000
0
LINE
8
0
10
90.032100
20
237.618000
11
90.526870
21
237.414271
0
LINE
8
0
10
90.526900
20
237.414000
11
90.731952
21
236.919230
0
LINE
8
0
10
90.732000
20
236.919000
11
90.732000
21
236.268000
0
LINE
8
0
10
90.732000
20
236.268000
11
91.161154
21
236.032521
0
LINE
8
0
10
91.161100
20
236.033000
11
91.332021
21
235.575271
0
LINE
8
0
10
91.332000
20
235.575000
11
91.332000
21
226.960000
0
LINE
8
0
10
91.332000
20
226.960000
11
91.161079
21
226.502271
0
LINE
8
0
10
91.161100
20
226.503000
11
90.731946
21
226.267521
0
LINE
8
0
10
90.732000
20
226.267000
11
90.732000
21
226.267000
0
LINE
8
0
10
8.996580
20
235.681000
11
9.216023
21
235.461557
0
LINE
8
0
10
7.548490
20
235.681000
11
8.996580
21
235.681000
0
LINE
8
0
10
9.216030
20
234.014000
11
8.996587
21
233.794557
0
LINE
8
0
10
9.216030
20
235.462000
11
9.216030
21
234.014000
0
LINE
8
0
10
7.548490
20
233.794000
11
7.329047
21
234.013443
0
LINE
8
0
10
8.996580
20
233.794000
11
7.548490
21
233.794000
0
LINE
8
0
10
7.329040
20
235.462000
11
7.548483
21
235.681443
0
LINE
8
0
10
7.329040
20
234.014000
11
7.329040
21
235.462000
0
LINE
8
0
10
15.183200
20
228.315000
11
15.402643
21
228.095557
0
LINE
8
0
10
12.504200
20
228.315000
11
15.183200
21
228.315000
0
LINE
8
0
10
15.402600
20
226.648000
11
15.183157
21
226.428553
0
LINE
8
0
10
15.402600
20
228.096000
11
15.402600
21
226.648000
0
LINE
8
0
10
12.504200
20
226.428000
11
12.284757
21
226.647447
0
LINE
8
0
10
15.183200
20
226.428000
11
12.504200
21
226.428000
0
LINE
8
0
10
12.284800
20
228.096000
11
12.504243
21
228.315443
0
LINE
8
0
10
12.284800
20
226.648000
11
12.284800
21
228.096000
0
LINE
8
0
10
18.836700
20
228.330000
11
19.056143
21
228.110557
0
LINE
8
0
10
16.157700
20
228.330000
11
18.836700
21
228.330000
0
LINE
8
0
10
19.056100
20
226.662000
11
18.836657
21
226.442553
0
LINE
8
0
10
19.056100
20
228.110000
11
19.056100
21
226.662000
0
LINE
8
0
10
16.157700
20
226.443000
11
15.938257
21
226.662447
0
LINE
8
0
10
18.836700
20
226.443000
11
16.157700
21
226.443000
0
LINE
8
0
10
15.938300
20
228.110000
11
16.157743
21
228.329443
0
LINE
8
0
10
15.938300
20
226.662000
11
15.938300
21
228.110000
0
LINE
8
0
10
11.449700
20
235.681000
11
11.669143
21
235.461557
0
LINE
8
0
10
10.001600
20
235.681000
11
11.449700
21
235.681000
0
LINE
8
0
10
11.669100
20
234.014000
11
11.449657
21
233.794557
0
LINE
8
0
10
11.669100
20
235.462000
11
11.669100
21
234.014000
0
LINE
8
0
10
10.001600
20
233.794000
11
9.782157
21
234.013443
0
LINE
8
0
10
11.449700
20
233.794000
11
10.001600
21
233.794000
0
LINE
8
0
10
9.782120
20
235.462000
11
10.001563
21
235.681443
0
LINE
8
0
10
9.782120
20
234.014000
11
9.782120
21
235.462000
0
LINE
8
0
10
13.902700
20
235.681000
11
14.122143
21
235.461557
0
LINE
8
0
10
12.454600
20
235.681000
11
13.902700
21
235.681000
0
LINE
8
0
10
14.122200
20
234.014000
11
13.902757
21
233.794557
0
LINE
8
0
10
14.122200
20
235.462000
11
14.122200
21
234.014000
0
LINE
8
0
10
12.454600
20
233.794000
11
12.235157
21
234.013443
0
LINE
8
0
10
13.902700
20
233.794000
11
12.454600
21
233.794000
0
LINE
8
0
10
12.235200
20
235.462000
11
12.454643
21
235.681443
0
LINE
8
0
10
12.235200
20
234.014000
11
12.235200
21
235.462000
0
LINE
8
0
10
16.355800
20
235.681000
11
16.575243
21
235.461557
0
LINE
8
0
10
14.907700
20
235.681000
11
16.355800
21
235.681000
0
LINE
8
0
10
16.575300
20
234.014000
11
16.355857
21
233.794557
0
LINE
8
0
10
16.575300
20
235.462000
11
16.575300
21
234.014000
0
LINE
8
0
10
14.907700
20
233.794000
11
14.688257
21
234.013443
0
LINE
8
0
10
16.355800
20
233.794000
11
14.907700
21
233.794000
0
LINE
8
0
10
14.688300
20
235.462000
11
14.907743
21
235.681443
0
LINE
8
0
10
14.688300
20
234.014000
11
14.688300
21
235.462000
0
LINE
8
0
10
18.808900
20
235.681000
11
19.028343
21
235.461557
0
LINE
8
0
10
17.360800
20
235.681000
11
18.808900
21
235.681000
0
LINE
8
0
10
19.028300
20
234.014000
11
18.808857
21
233.794557
0
LINE
8
0
10
19.028300
20
235.462000
11
19.028300
21
234.014000
0
LINE
8
0
10
17.360800
20
233.794000
11
17.141357
21
234.013443
0
LINE
8
0
10
18.808900
20
233.794000
11
17.360800
21
233.794000
0
LINE
8
0
10
17.141400
20
235.462000
11
17.360843
21
235.681443
0
LINE
8
0
10
17.141400
20
234.014000
11
17.141400
21
235.462000
0
LINE
8
0
10
11.515100
20
230.771000
11
11.734543
21
230.551557
0
LINE
8
0
10
10.067000
20
230.771000
11
11.515100
21
230.771000
0
LINE
8
0
10
11.734500
20
229.103000
11
11.515057
21
228.883557
0
LINE
8
0
10
11.734500
20
230.551000
11
11.734500
21
229.103000
0
LINE
8
0
10
10.067000
20
228.884000
11
9.847557
21
229.103443
0
LINE
8
0
10
11.515100
20
228.884000
11
10.067000
21
228.884000
0
LINE
8
0
10
9.847540
20
230.551000
11
10.066983
21
230.770443
0
LINE
8
0
10
9.847540
20
229.103000
11
9.847540
21
230.551000
0
LINE
8
0
10
13.968200
20
230.771000
11
14.187643
21
230.551557
0
LINE
8
0
10
12.520100
20
230.771000
11
13.968200
21
230.771000
0
LINE
8
0
10
14.187600
20
229.103000
11
13.968157
21
228.883557
0
LINE
8
0
10
14.187600
20
230.551000
11
14.187600
21
229.103000
0
LINE
8
0
10
12.520100
20
228.884000
11
12.300657
21
229.103443
0
LINE
8
0
10
13.968200
20
228.884000
11
12.520100
21
228.884000
0
LINE
8
0
10
12.300600
20
230.551000
11
12.520043
21
230.770443
0
LINE
8
0
10
12.300600
20
229.103000
11
12.300600
21
230.551000
0
LINE
8
0
10
16.421200
20
230.771000
11
16.640643
21
230.551557
0
LINE
8
0
10
14.973100
20
230.771000
11
16.421200
21
230.771000
0
LINE
8
0
10
16.640700
20
229.103000
11
16.421257
21
228.883557
0
LINE
8
0
10
16.640700
20
230.551000
11
16.640700
21
229.103000
0
LINE
8
0
10
14.973100
20
228.884000
11
14.753657
21
229.103443
0
LINE
8
0
10
16.421200
20
228.884000
11
14.973100
21
228.884000
0
LINE
8
0
10
14.753700
20
230.551000
11
14.973143
21
230.770443
0
LINE
8
0
10
14.753700
20
229.103000
11
14.753700
21
230.551000
0
LINE
8
0
10
18.874300
20
230.771000
11
19.093743
21
230.551557
0
LINE
8
0
10
17.426200
20
230.771000
11
18.874300
21
230.771000
0
LINE
8
0
10
19.093800
20
229.103000
11
18.874357
21
228.883557
0
LINE
8
0
10
19.093800
20
230.551000
11
19.093800
21
229.103000
0
LINE
8
0
10
17.426200
20
228.884000
11
17.206757
21
229.103443
0
LINE
8
0
10
18.874300
20
228.884000
11
17.426200
21
228.884000
0
LINE
8
0
10
17.206800
20
230.551000
11
17.426243
21
230.770443
0
LINE
8
0
10
17.206800
20
229.103000
11
17.206800
21
230.551000
0
LINE
8
0
10
8.996680
20
230.771000
11
9.216123
21
230.551557
0
LINE
8
0
10
7.548580
20
230.771000
11
8.996680
21
230.771000
0
LINE
8
0
10
9.216120
20
229.103000
11
8.996677
21
228.883557
0
LINE
8
0
10
9.216120
20
230.551000
11
9.216120
21
229.103000
0
LINE
8
0
10
7.548580
20
228.884000
11
7.329137
21
229.103443
0
LINE
8
0
10
8.996680
20
228.884000
11
7.548580
21
228.884000
0
LINE
8
0
10
7.329140
20
230.551000
11
7.548583
21
230.770443
0
LINE
8
0
10
7.329140
20
229.103000
11
7.329140
21
230.551000
0
LINE
8
0
10
27.010800
20
235.503000
11
26.833389
21
235.444938
0
LINE
8
0
10
26.833400
20
235.445000
11
26.736630
21
235.348230
0
LINE
8
0
10
26.736600
20
235.348000
11
26.649507
21
235.144784
0
LINE
8
0
10
26.649500
20
235.145000
11
26.539826
21
234.699860
0
LINE
8
0
10
26.030200
20
235.661000
11
27.046300
21
235.661000
0
LINE
8
0
10
27.046300
20
235.661000
11
27.010818
21
235.502943
0
LINE
8
0
10
25.988200
20
232.196000
11
25.933363
21
231.892789
0
LINE
8
0
10
25.933400
20
231.893000
11
25.920497
21
231.693009
0
LINE
8
0
10
25.920500
20
231.693000
11
25.991466
21
231.486558
0
LINE
8
0
10
25.991500
20
231.487000
11
26.236649
21
231.416035
0
LINE
8
0
10
26.539800
20
234.699000
11
25.988215
21
232.195890
0
LINE
8
0
10
24.946400
20
231.416000
11
25.130261
21
231.477287
0
LINE
8
0
10
25.130200
20
231.477000
11
25.233421
21
231.599575
0
LINE
8
0
10
25.233400
20
231.600000
11
25.310815
21
231.787088
0
LINE
8
0
10
25.310900
20
231.787000
11
25.417348
21
232.219238
0
LINE
8
0
10
26.236600
20
231.416000
11
26.201118
21
231.257943
0
LINE
8
0
10
26.201118
20
231.257943
11
24.910900
21
231.258000
0
LINE
8
0
10
24.910900
20
231.258000
11
24.946384
21
231.416057
0
LINE
8
0
10
25.846300
20
234.164000
11
26.059193
21
234.986541
0
LINE
8
0
10
25.417300
20
232.219000
11
25.846311
21
234.164070
0
LINE
8
0
10
26.014000
20
234.987000
11
25.826914
21
234.651532
0
LINE
8
0
10
25.827000
20
234.651000
11
25.556044
21
234.192957
0
LINE
8
0
10
26.059200
20
234.987000
11
26.014000
21
234.987000
0
LINE
8
0
10
23.275500
20
235.058000
11
23.030349
21
233.687100
0
LINE
8
0
10
25.556000
20
234.193000
11
24.088330
21
231.770530
0
LINE
8
0
10
24.088330
20
231.770530
11
23.736700
21
231.771000
0
LINE
8
0
10
23.736700
20
231.771000
11
23.427037
21
234.190240
0
LINE
8
0
10
23.427037
20
234.190240
11
23.339944
21
235.057941
0
LINE
8
0
10
23.339944
20
235.057941
11
23.275500
21
235.058000
0
LINE
8
0
10
22.720700
20
232.280000
11
22.649737
21
231.915501
0
LINE
8
0
10
22.649700
20
231.916000
11
22.633571
21
231.693430
0
LINE
8
0
10
22.633600
20
231.693000
11
22.704564
21
231.486558
0
LINE
8
0
10
22.704500
20
231.487000
11
22.949651
21
231.416035
0
LINE
8
0
10
23.030300
20
233.687000
11
22.720637
21
232.280620
0
LINE
8
0
10
21.820700
20
231.416000
11
22.004561
21
231.477287
0
LINE
8
0
10
22.004600
20
231.477000
11
22.107821
21
231.599575
0
LINE
8
0
10
22.107800
20
231.600000
11
22.185215
21
231.787088
0
LINE
8
0
10
22.185200
20
231.787000
11
22.291648
21
232.219238
0
LINE
8
0
10
22.949700
20
231.416000
11
22.914218
21
231.257943
0
LINE
8
0
10
22.914218
20
231.257943
11
21.785200
21
231.258000
0
LINE
8
0
10
21.785200
20
231.258000
11
21.820683
21
231.416057
0
LINE
8
0
10
22.840000
20
234.703000
11
22.891611
21
234.967503
0
LINE
8
0
10
22.891600
20
234.967000
11
22.910955
21
235.221827
0
LINE
8
0
10
22.911000
20
235.222000
11
22.833585
21
235.431668
0
LINE
8
0
10
22.833600
20
235.432000
11
22.594901
21
235.502964
0
LINE
8
0
10
22.291600
20
232.219000
11
22.839959
21
234.702750
0
LINE
8
0
10
22.594900
20
235.503000
11
22.630382
21
235.661057
0
LINE
8
0
10
22.630382
20
235.661057
11
23.781900
21
235.661000
0
LINE
8
0
10
23.781900
20
235.661000
11
24.149625
21
232.532120
0
LINE
8
0
10
24.149625
20
232.532120
11
26.030185
21
235.661000
0
LINE
8
0
10
29.588100
20
232.154000
11
29.526812
21
231.854014
0
LINE
8
0
10
29.526800
20
231.854000
11
29.510671
21
231.683041
0
LINE
8
0
10
29.510700
20
231.683000
11
29.584889
21
231.489461
0
LINE
8
0
10
29.584800
20
231.490000
11
29.868658
21
231.415810
0
LINE
8
0
10
29.578400
20
234.183000
11
29.875161
21
234.395893
0
LINE
8
0
10
29.875161
20
234.395893
11
30.081602
21
234.344283
0
LINE
8
0
10
30.081602
20
234.344283
11
29.588077
21
232.154063
0
LINE
8
0
10
29.078400
20
232.080000
11
28.491330
21
231.418741
0
LINE
8
0
10
28.491300
20
231.419000
11
27.904231
21
231.209332
0
LINE
8
0
10
27.904300
20
231.209000
11
27.588992
21
231.275932
0
LINE
8
0
10
27.588992
20
231.275932
11
27.352714
21
231.476729
0
LINE
8
0
10
27.352700
20
231.477000
11
27.159160
21
232.228578
0
LINE
8
0
10
27.159200
20
232.229000
11
27.230166
21
232.848325
0
LINE
8
0
10
27.230100
20
232.848000
11
27.442993
21
233.438295
0
LINE
8
0
10
27.443000
20
233.438000
11
27.788144
21
233.931525
0
LINE
8
0
10
27.788200
20
233.932000
11
28.249467
21
234.270694
0
LINE
8
0
10
28.249400
20
234.270000
11
28.823566
21
234.395800
0
LINE
8
0
10
28.823600
20
234.396000
11
29.204229
21
234.347615
0
LINE
8
0
10
29.204200
20
234.348000
11
29.578375
21
234.183492
0
LINE
8
0
10
29.868700
20
231.416000
11
29.839668
21
231.257943
0
LINE
8
0
10
29.839668
20
231.257943
11
28.917100
21
231.258000
0
LINE
8
0
10
28.917100
20
231.258000
11
29.120318
21
232.067640
0
LINE
8
0
10
29.120318
20
232.067640
11
29.078385
21
232.080543
0
LINE
8
0
10
29.294500
20
233.222000
11
29.333208
21
233.451022
0
LINE
8
0
10
29.333200
20
233.451000
11
29.342877
21
233.660668
0
LINE
8
0
10
29.342900
20
233.661000
11
29.236453
21
234.025499
0
LINE
8
0
10
29.236500
20
234.025000
11
28.881678
21
234.141123
0
LINE
8
0
10
28.881700
20
234.141000
11
28.623648
21
234.095841
0
LINE
8
0
10
28.623600
20
234.096000
11
28.375225
21
233.950845
0
LINE
8
0
10
28.375200
20
233.951000
11
28.133275
21
233.686497
0
LINE
8
0
10
28.133300
20
233.687000
11
27.926859
21
233.287019
0
LINE
8
0
10
27.926900
20
233.287000
11
27.781745
21
232.780572
0
LINE
8
0
10
27.781700
20
232.780000
11
27.730090
21
232.257444
0
LINE
8
0
10
27.730100
20
232.258000
11
27.820418
21
231.754798
0
LINE
8
0
10
27.820400
20
231.754000
11
28.130063
21
231.589492
0
LINE
8
0
10
28.130100
20
231.590000
11
28.336541
21
231.635159
0
LINE
8
0
10
28.336500
20
231.635000
11
28.578425
21
231.799508
0
LINE
8
0
10
28.578400
20
231.800000
11
28.878386
21
232.158048
0
LINE
8
0
10
28.878400
20
232.158000
11
29.117099
21
232.583786
0
LINE
8
0
10
29.117100
20
232.583000
11
29.265478
21
233.082976
0
LINE
8
0
10
32.539500
20
231.851000
11
32.016944
21
231.367152
0
LINE
8
0
10
32.017000
20
231.367000
11
31.468638
21
231.205717
0
LINE
8
0
10
31.468600
20
231.206000
11
30.958948
21
231.380185
0
LINE
8
0
10
30.959000
20
231.380000
11
30.791266
21
231.886428
0
LINE
8
0
10
30.791200
20
231.887000
11
30.849260
21
232.341817
0
LINE
8
0
10
29.265500
20
233.083000
11
29.294532
21
233.221703
0
LINE
8
0
10
30.804100
20
234.180000
11
31.104088
21
234.260642
0
LINE
8
0
10
31.104100
20
234.261000
11
31.291186
21
234.419057
0
LINE
8
0
10
31.291200
20
234.419000
11
31.433130
21
234.677053
0
LINE
8
0
10
31.433100
20
234.677000
11
31.594382
21
235.138269
0
LINE
8
0
10
30.849300
20
232.342000
11
31.249281
21
234.016110
0
LINE
8
0
10
31.249281
20
234.016110
11
30.768700
21
234.016000
0
LINE
8
0
10
30.768700
20
234.016000
11
30.804182
21
234.180508
0
LINE
8
0
10
31.478300
20
232.764000
11
31.349274
21
231.983392
0
LINE
8
0
10
31.349300
20
231.983000
11
31.433167
21
231.683014
0
LINE
8
0
10
31.433100
20
231.683000
11
31.684700
21
231.583004
0
LINE
8
0
10
31.684700
20
231.583000
11
31.994363
21
231.695898
0
LINE
8
0
10
31.994400
20
231.696000
11
32.352448
21
232.044371
0
LINE
8
0
10
31.594400
20
235.138000
11
32.039600
21
235.138000
0
LINE
8
0
10
32.039600
20
235.138000
11
31.862189
21
234.341263
0
LINE
8
0
10
31.862189
20
234.341263
11
32.884700
21
234.341000
0
LINE
8
0
10
32.884700
20
234.341000
11
32.813737
21
234.015209
0
LINE
8
0
10
32.813737
20
234.015209
11
31.788000
21
234.016000
0
LINE
8
0
10
31.788000
20
234.016000
11
31.478337
21
232.764450
0
LINE
8
0
10
32.352500
20
232.045000
11
32.539589
21
231.851461
0
LINE
8
0
10
35.045900
20
232.896000
11
35.123315
21
233.254048
0
LINE
8
0
10
35.123300
20
233.254000
11
35.158784
21
233.586242
0
LINE
8
0
10
35.158800
20
233.587000
11
35.081383
21
233.916017
0
LINE
8
0
10
35.081400
20
233.916000
11
34.820122
21
234.015995
0
LINE
8
0
10
34.820100
20
234.016000
11
34.526567
21
233.906328
0
LINE
8
0
10
34.526500
20
233.906000
11
34.191032
21
233.570532
0
LINE
8
0
10
34.191100
20
233.570000
11
33.907242
21
233.140988
0
LINE
8
0
10
33.907200
20
233.141000
11
33.742692
21
232.653926
0
LINE
8
0
10
35.652300
20
231.258000
11
34.639400
21
231.258000
0
LINE
8
0
10
34.639400
20
231.258000
11
35.045833
21
232.896630
0
LINE
8
0
10
33.720100
20
234.945000
11
33.768485
21
235.177247
0
LINE
8
0
10
33.768500
20
235.177000
11
33.791080
21
235.312477
0
LINE
8
0
10
33.791100
20
235.312000
11
33.797552
21
235.421673
0
LINE
8
0
10
33.797600
20
235.422000
11
33.713731
21
235.612314
0
LINE
8
0
10
33.713700
20
235.612000
11
33.420166
21
235.673287
0
LINE
8
0
10
33.742700
20
232.654000
11
33.449164
21
231.257290
0
LINE
8
0
10
33.449164
20
231.257290
11
32.891100
21
231.258000
0
LINE
8
0
10
32.891100
20
231.258000
11
33.720093
21
234.944920
0
LINE
8
0
10
33.945900
20
233.622000
11
34.523292
21
234.209069
0
LINE
8
0
10
34.523300
20
234.209000
11
35.081337
21
234.392862
0
LINE
8
0
10
35.081400
20
234.393000
11
35.555573
21
234.218815
0
LINE
8
0
10
35.555500
20
234.219000
11
35.716782
21
233.709346
0
LINE
8
0
10
35.716800
20
233.709000
11
35.652285
21
233.212249
0
LINE
8
0
10
33.420100
20
235.674000
11
33.458808
21
235.841734
0
LINE
8
0
10
33.458808
20
235.841734
11
34.274899
21
235.870765
0
LINE
8
0
10
34.274899
20
235.870765
11
34.462000
21
235.870000
0
LINE
8
0
10
34.462000
20
235.870000
11
33.907188
21
233.634620
0
LINE
8
0
10
33.907188
20
233.634620
11
33.945896
21
233.621717
0
LINE
8
0
10
35.381300
20
232.064000
11
35.336141
21
231.841430
0
LINE
8
0
10
35.336200
20
231.842000
11
35.323296
21
231.696846
0
LINE
8
0
10
35.323300
20
231.696000
11
35.355556
21
231.541169
0
LINE
8
0
10
35.355500
20
231.542000
11
35.458722
21
231.458133
0
LINE
8
0
10
35.458800
20
231.458000
11
35.681370
21
231.416067
0
LINE
8
0
10
35.652300
20
233.212000
11
35.381347
21
232.063670
0
LINE
8
0
10
24.535900
20
227.907000
11
24.462784
21
227.305194
0
LINE
8
0
10
24.462700
20
227.305000
11
24.251786
21
226.849430
0
LINE
8
0
10
24.251800
20
226.849000
11
23.911527
21
226.559345
0
LINE
8
0
10
23.911600
20
226.560000
11
23.456030
21
226.458759
0
LINE
8
0
10
23.456000
20
226.459000
11
23.219776
21
226.484315
0
LINE
8
0
10
23.219800
20
226.484000
11
23.008889
21
226.559926
0
LINE
8
0
10
23.008800
20
226.560000
11
22.811947
21
226.694986
0
LINE
8
0
10
22.812000
20
226.695000
11
22.615148
21
226.891850
0
LINE
8
0
10
35.681300
20
231.416000
11
35.652268
21
231.257943
0
LINE
8
0
10
22.615100
20
226.619000
11
22.598225
21
226.565572
0
LINE
8
0
10
22.598300
20
226.565000
11
22.547681
21
226.531255
0
LINE
8
0
10
22.547600
20
226.532000
11
22.454798
21
226.512312
0
LINE
8
0
10
22.454800
20
226.512000
11
22.311381
21
226.506368
0
LINE
8
0
10
22.311400
20
226.506000
11
22.165168
21
226.511632
0
LINE
8
0
10
22.165200
20
226.512000
11
22.072398
21
226.531689
0
LINE
8
0
10
22.072400
20
226.532000
11
22.024592
21
226.565745
0
LINE
8
0
10
22.024600
20
226.565000
11
22.010534
21
226.618428
0
LINE
8
0
10
22.615100
20
226.892000
11
22.615100
21
226.619000
0
LINE
8
0
10
22.010500
20
230.317000
11
22.027375
21
230.367619
0
LINE
8
0
10
22.027400
20
230.367000
11
22.083643
21
230.403558
0
LINE
8
0
10
22.083600
20
230.404000
11
22.193275
21
230.429309
0
LINE
8
0
10
22.193300
20
230.429000
11
22.364841
21
230.437438
0
LINE
8
0
10
22.364900
20
230.438000
11
22.536443
21
230.429562
0
LINE
8
0
10
22.536400
20
230.429000
11
22.643262
21
230.403691
0
LINE
8
0
10
22.643300
20
230.404000
11
22.702357
21
230.367442
0
LINE
8
0
10
22.702300
20
230.367000
11
22.719175
21
230.316381
0
LINE
8
0
10
22.010500
20
226.619000
11
22.010500
21
230.317000
0
LINE
8
0
10
22.719200
20
228.930000
11
22.910427
21
229.093106
0
LINE
8
0
10
22.910400
20
229.094000
11
23.101627
21
229.203675
0
LINE
8
0
10
23.101600
20
229.203000
11
23.298453
21
229.267679
0
LINE
8
0
10
23.298500
20
229.268000
11
23.512224
21
229.287686
0
LINE
8
0
10
23.512200
20
229.288000
11
23.984646
21
229.175513
0
LINE
8
0
10
23.984700
20
229.175000
11
24.299662
21
228.876910
0
LINE
8
0
10
24.299600
20
228.877000
11
24.479579
21
228.435489
0
LINE
8
0
10
24.479600
20
228.435000
11
24.535843
21
227.906312
0
LINE
8
0
10
22.719200
20
230.317000
11
22.719200
21
228.930000
0
LINE
8
0
10
23.801900
20
227.856000
11
23.776590
21
228.165339
0
LINE
8
0
10
23.776600
20
228.166000
11
23.695048
21
228.430345
0
LINE
8
0
10
23.695000
20
228.430000
11
23.540330
21
228.612791
0
LINE
8
0
10
23.540300
20
228.613000
11
23.304078
21
228.683304
0
LINE
8
0
10
23.304100
20
228.683000
11
23.166303
21
228.663316
0
LINE
8
0
10
23.166300
20
228.663000
11
23.025692
21
228.595508
0
LINE
8
0
10
23.025700
20
228.596000
11
22.879465
21
228.472264
0
LINE
8
0
10
22.879500
20
228.472000
11
22.719208
21
228.283585
0
LINE
8
0
10
22.719200
20
227.451000
11
23.003230
21
227.158532
0
LINE
8
0
10
23.003200
20
227.159000
11
23.290041
21
227.060575
0
LINE
8
0
10
23.290100
20
227.060000
11
23.523511
21
227.130306
0
LINE
8
0
10
23.523500
20
227.131000
11
23.680981
21
227.313788
0
LINE
8
0
10
23.681000
20
227.313000
11
23.773802
21
227.568910
0
LINE
8
0
10
23.773800
20
227.569000
11
23.801922
21
227.855842
0
LINE
8
0
10
22.719200
20
228.284000
11
22.719200
21
227.451000
0
LINE
8
0
10
27.637700
20
227.898000
11
27.553335
21
227.313067
0
LINE
8
0
10
27.553300
20
227.313000
11
27.297392
21
226.857430
0
LINE
8
0
10
27.297400
20
226.858000
11
26.867138
21
226.562719
0
LINE
8
0
10
26.867100
20
226.563000
11
26.262484
21
226.458949
0
LINE
8
0
10
26.262500
20
226.459000
11
25.680379
21
226.551805
0
LINE
8
0
10
25.680400
20
226.551000
11
25.269824
21
226.820966
0
LINE
8
0
10
25.269800
20
226.821000
11
25.027952
21
227.256887
0
LINE
8
0
10
25.028000
20
227.257000
11
24.949259
21
227.847558
0
LINE
8
0
10
24.949200
20
227.848000
11
25.033565
21
228.432932
0
LINE
8
0
10
25.033600
20
228.433000
11
25.292322
21
228.888572
0
LINE
8
0
10
25.292300
20
228.888000
11
25.719749
21
229.183278
0
LINE
8
0
10
25.719800
20
229.184000
11
26.324419
21
229.288051
0
LINE
8
0
10
26.324400
20
229.288000
11
26.909332
21
229.195198
0
LINE
8
0
10
26.909300
20
229.195000
11
27.317065
21
228.927844
0
LINE
8
0
10
27.317100
20
228.928000
11
27.558946
21
228.492113
0
LINE
8
0
10
27.558900
20
228.492000
11
27.637641
21
227.898632
0
LINE
8
0
10
26.909300
20
227.870000
11
26.878365
21
228.210273
0
LINE
8
0
10
26.878400
20
228.211000
11
26.779973
21
228.483781
0
LINE
8
0
10
26.780000
20
228.483000
11
26.591586
21
228.662979
0
LINE
8
0
10
26.591600
20
228.663000
11
26.299133
21
228.727681
0
LINE
8
0
10
26.299100
20
228.728000
11
26.023508
21
228.668944
0
LINE
8
0
10
26.023500
20
228.669000
11
25.829460
21
228.500270
0
LINE
8
0
10
25.829500
20
228.500000
11
25.714200
21
228.232843
0
LINE
8
0
10
25.714200
20
228.233000
11
25.677643
21
227.878666
0
LINE
8
0
10
25.677600
20
227.879000
11
25.708533
21
227.535915
0
LINE
8
0
10
25.708500
20
227.536000
11
25.806927
21
227.266030
0
LINE
8
0
10
25.807000
20
227.266000
11
25.995416
21
227.086023
0
LINE
8
0
10
25.995400
20
227.086000
11
26.287865
21
227.024130
0
LINE
8
0
10
26.287800
20
227.024000
11
26.566205
21
227.080244
0
LINE
8
0
10
26.566200
20
227.080000
11
26.760240
21
227.248731
0
LINE
8
0
10
26.760300
20
227.249000
11
26.872786
21
227.513345
0
LINE
8
0
10
26.872800
20
227.513000
11
26.909359
21
227.870146
0
LINE
8
0
10
30.334600
20
226.610000
11
30.306479
21
226.548136
0
LINE
8
0
10
30.306400
20
226.549000
11
30.216411
21
226.518065
0
LINE
8
0
10
30.216400
20
226.518000
11
30.039232
21
226.506748
0
LINE
8
0
10
30.039300
20
226.506000
11
29.853698
21
226.517252
0
LINE
8
0
10
29.853700
20
226.518000
11
29.772146
21
226.548935
0
LINE
8
0
10
29.772100
20
226.549000
11
29.749603
21
226.610864
0
LINE
8
0
10
29.749600
20
226.810000
11
29.395267
21
226.551280
0
LINE
8
0
10
29.395300
20
226.551000
11
28.956600
21
226.458195
0
LINE
8
0
10
28.956600
20
226.459000
11
28.588205
21
226.512434
0
LINE
8
0
10
28.588200
20
226.512000
11
28.298546
21
226.663859
0
LINE
8
0
10
28.298500
20
226.664000
11
28.110086
21
226.919910
0
LINE
8
0
10
28.110100
20
226.920000
11
28.042608
21
227.274329
0
LINE
8
0
10
28.042600
20
227.274000
11
28.126965
21
227.653645
0
LINE
8
0
10
28.127000
20
227.654000
11
28.382908
21
227.921157
0
LINE
8
0
10
28.382900
20
227.921000
11
28.807538
21
228.078482
0
LINE
8
0
10
28.807500
20
228.078000
11
29.395243
21
228.128619
0
LINE
8
0
10
29.749600
20
226.610000
11
29.749600
21
226.810000
0
LINE
8
0
10
29.639900
20
228.281000
11
29.614590
21
228.486289
0
LINE
8
0
10
29.614600
20
228.486000
11
29.535859
21
228.635045
0
LINE
8
0
10
29.535900
20
228.635000
11
29.389668
21
228.722177
0
LINE
8
0
10
29.389700
20
228.722000
11
29.164727
21
228.750122
0
LINE
8
0
10
29.164700
20
228.750000
11
28.846925
21
228.710630
0
LINE
8
0
10
28.846900
20
228.711000
11
28.602240
21
228.623823
0
LINE
8
0
10
28.602300
20
228.624000
11
28.422322
21
228.536823
0
LINE
8
0
10
28.422300
20
228.537000
11
28.307000
21
228.497629
0
LINE
8
0
10
28.307000
20
228.497000
11
28.250756
21
228.516684
0
LINE
8
0
10
28.250700
20
228.517000
11
28.211330
21
228.573243
0
LINE
8
0
10
28.211400
20
228.573000
11
28.188903
21
228.662989
0
LINE
8
0
10
28.188900
20
228.663000
11
28.180452
21
228.781112
0
LINE
8
0
10
28.180400
20
228.781000
11
28.194466
21
228.918796
0
LINE
8
0
10
28.194500
20
228.919000
11
28.247930
21
229.008990
0
LINE
8
0
10
28.247900
20
229.009000
11
28.385697
21
229.098989
0
LINE
8
0
10
28.385700
20
229.099000
11
28.616297
21
229.191802
0
LINE
8
0
10
28.616300
20
229.192000
11
28.903143
21
229.259492
0
LINE
8
0
10
28.903200
20
229.259000
11
29.226600
21
229.287122
0
LINE
8
0
10
29.226600
20
229.288000
11
29.729978
21
229.228944
0
LINE
8
0
10
29.729900
20
229.229000
11
30.075797
21
229.051833
0
LINE
8
0
10
30.075800
20
229.051000
11
30.272652
21
228.744473
0
LINE
8
0
10
30.272700
20
228.745000
11
30.334568
21
228.297865
0
LINE
8
0
10
29.395300
20
228.129000
11
29.639900
21
228.129000
0
LINE
8
0
10
29.639900
20
228.129000
11
29.639900
21
228.281000
0
LINE
8
0
10
30.334500
20
228.298000
11
30.334506
21
226.610700
0
LINE
8
0
10
29.370000
20
227.685000
11
29.077535
21
227.659690
0
LINE
8
0
10
29.077500
20
227.659000
11
28.880648
21
227.583071
0
LINE
8
0
10
28.880700
20
227.583000
11
28.768214
21
227.459265
0
LINE
8
0
10
28.768200
20
227.460000
11
28.734454
21
227.296893
0
LINE
8
0
10
28.734400
20
227.297000
11
28.832824
21
227.049532
0
LINE
8
0
10
28.832900
20
227.049000
11
29.111305
21
226.959006
0
LINE
8
0
10
29.111300
20
226.959000
11
29.384081
21
227.034932
0
LINE
8
0
10
29.384000
20
227.035000
11
29.639908
21
227.257159
0
LINE
8
0
10
29.639900
20
227.685000
11
29.370000
21
227.685000
0
LINE
8
0
10
32.651800
20
228.894000
11
32.646180
21
228.728082
0
LINE
8
0
10
32.646200
20
228.728000
11
32.629325
21
228.626761
0
LINE
8
0
10
32.629300
20
228.627000
11
32.598367
21
228.576381
0
LINE
8
0
10
32.598400
20
228.576000
11
32.553405
21
228.561938
0
LINE
8
0
10
32.553400
20
228.562000
11
32.502781
21
228.570438
0
LINE
8
0
10
32.502700
20
228.570000
11
32.438019
21
228.592497
0
LINE
8
0
10
32.438100
20
228.593000
11
32.362173
21
228.612687
0
LINE
8
0
10
32.362100
20
228.613000
11
32.269298
21
228.624248
0
LINE
8
0
10
32.269300
20
228.624000
11
32.151189
21
228.598691
0
LINE
8
0
10
32.151200
20
228.599000
11
32.027465
21
228.525883
0
LINE
8
0
10
32.027500
20
228.525000
11
31.895327
21
228.390016
0
LINE
8
0
10
31.895300
20
228.390000
11
31.749068
21
228.181900
0
LINE
8
0
10
29.639900
20
227.257000
11
29.639900
21
227.685000
0
LINE
8
0
10
31.749100
20
226.619000
11
31.732225
21
226.568382
0
LINE
8
0
10
31.732200
20
226.568000
11
31.673144
21
226.534255
0
LINE
8
0
10
31.673200
20
226.534000
11
31.566338
21
226.514311
0
LINE
8
0
10
31.566300
20
226.515000
11
31.394757
21
226.506570
0
LINE
8
0
10
31.394700
20
226.506000
11
31.223159
21
226.514430
0
LINE
8
0
10
31.223200
20
226.515000
11
31.113525
21
226.534688
0
LINE
8
0
10
31.113500
20
226.534000
11
31.057257
21
226.567745
0
LINE
8
0
10
31.057300
20
226.568000
11
31.040425
21
226.618618
0
LINE
8
0
10
31.749100
20
228.182000
11
31.749100
21
226.619000
0
LINE
8
0
10
31.040400
20
229.127000
11
31.054466
21
229.174807
0
LINE
8
0
10
31.054500
20
229.175000
11
31.105119
21
229.211558
0
LINE
8
0
10
31.105100
20
229.212000
11
31.197902
21
229.231686
0
LINE
8
0
10
31.197900
20
229.231000
11
31.344132
21
229.239437
0
LINE
8
0
10
31.344100
20
229.240000
11
31.493145
21
229.231563
0
LINE
8
0
10
31.493200
20
229.231000
11
31.583189
21
229.211314
0
LINE
8
0
10
31.583200
20
229.212000
11
31.631008
21
229.175442
0
LINE
8
0
10
31.631000
20
229.175000
11
31.645066
21
229.127193
0
LINE
8
0
10
31.040400
20
226.619000
11
31.040400
21
229.127000
0
LINE
8
0
10
31.645000
20
228.815000
11
31.830602
21
229.045599
0
LINE
8
0
10
31.830600
20
229.046000
11
31.996519
21
229.192232
0
LINE
8
0
10
31.996600
20
229.192000
11
32.154081
21
229.265117
0
LINE
8
0
10
32.154000
20
229.265000
11
32.311483
21
229.287497
0
LINE
8
0
10
32.311500
20
229.288000
11
32.390241
21
229.282374
0
LINE
8
0
10
32.390300
20
229.282000
11
32.477476
21
229.267938
0
LINE
8
0
10
32.477400
20
229.268000
11
32.556141
21
229.245503
0
LINE
8
0
10
32.556200
20
229.245000
11
32.604008
21
229.219691
0
LINE
8
0
10
32.604000
20
229.220000
11
32.626497
21
229.189066
0
LINE
8
0
10
32.626500
20
229.189000
11
32.640566
21
229.141193
0
LINE
8
0
10
32.640600
20
229.141000
11
32.649027
21
229.053823
0
LINE
8
0
10
32.649000
20
229.054000
11
32.651810
21
228.893706
0
LINE
8
0
10
31.645000
20
229.127000
11
31.645000
21
228.815000
0
LINE
8
0
10
35.396500
20
226.619000
11
35.382434
21
226.565572
0
LINE
8
0
10
35.382400
20
226.565000
11
35.334592
21
226.531255
0
LINE
8
0
10
35.334600
20
226.532000
11
35.241800
21
226.512312
0
LINE
8
0
10
35.241800
20
226.512000
11
35.101190
21
226.506368
0
LINE
8
0
10
35.101200
20
226.506000
11
34.954968
21
226.511632
0
LINE
8
0
10
34.954900
20
226.512000
11
34.862099
21
226.531689
0
LINE
8
0
10
34.862100
20
226.532000
11
34.811479
21
226.565745
0
LINE
8
0
10
34.811500
20
226.565000
11
34.797434
21
226.618428
0
LINE
8
0
10
34.797500
20
226.897000
11
34.389735
21
226.573600
0
LINE
8
0
10
34.389700
20
226.574000
11
33.920067
21
226.458697
0
LINE
8
0
10
33.920100
20
226.459000
11
33.433595
21
226.568677
0
LINE
8
0
10
33.433600
20
226.568000
11
33.110200
21
226.868901
0
LINE
8
0
10
33.110200
20
226.869000
11
32.930220
21
227.307703
0
LINE
8
0
10
32.930200
20
227.308000
11
32.873956
21
227.839498
0
LINE
8
0
10
32.873900
20
227.839000
11
32.944206
21
228.440805
0
LINE
8
0
10
32.944200
20
228.441000
11
33.155113
21
228.896572
0
LINE
8
0
10
33.155200
20
228.897000
11
33.498284
21
229.186654
0
LINE
8
0
10
33.498200
20
229.186000
11
33.970646
21
229.287239
0
LINE
8
0
10
33.970700
20
229.288000
11
34.353154
21
229.200823
0
LINE
8
0
10
34.353100
20
229.200000
11
34.693373
21
228.949716
0
LINE
8
0
10
34.797500
20
226.619000
11
34.797500
21
226.897000
0
LINE
8
0
10
34.693400
20
230.308000
11
34.707466
21
230.358619
0
LINE
8
0
10
34.707500
20
230.359000
11
34.763743
21
230.395559
0
LINE
8
0
10
34.763700
20
230.396000
11
34.873375
21
230.421309
0
LINE
8
0
10
34.873400
20
230.421000
11
35.044941
21
230.429437
0
LINE
8
0
10
35.044900
20
230.429000
11
35.216443
21
230.420563
0
LINE
8
0
10
35.216500
20
230.421000
11
35.323362
21
230.395691
0
LINE
8
0
10
35.323300
20
230.396000
11
35.379543
21
230.359441
0
LINE
8
0
10
35.379600
20
230.359000
11
35.396475
21
230.308381
0
LINE
8
0
10
34.693400
20
228.950000
11
34.693400
21
230.308000
0
LINE
8
0
10
34.693400
20
228.295000
11
34.400935
21
228.587465
0
LINE
8
0
10
34.401000
20
228.587000
11
34.111346
21
228.688239
0
LINE
8
0
10
34.111300
20
228.689000
11
33.872265
21
228.618696
0
LINE
8
0
10
33.872300
20
228.618000
11
33.712006
21
228.435209
0
LINE
8
0
10
33.712000
20
228.435000
11
33.622011
21
228.176280
0
LINE
8
0
10
33.622000
20
228.177000
11
33.593879
21
227.887346
0
LINE
8
0
10
33.593900
20
227.887000
11
33.619211
21
227.580473
0
LINE
8
0
10
33.619200
20
227.581000
11
33.700751
21
227.313842
0
LINE
8
0
10
33.700700
20
227.313000
11
33.855370
21
227.127396
0
LINE
8
0
10
33.855400
20
227.128000
11
34.097246
21
227.057700
0
LINE
8
0
10
34.097200
20
227.058000
11
34.237810
21
227.077683
0
LINE
8
0
10
34.237900
20
227.077000
11
34.378508
21
227.147306
0
LINE
8
0
10
34.378500
20
227.148000
11
34.527545
21
227.271734
0
LINE
8
0
10
34.527500
20
227.271000
11
34.693417
21
227.462227
0
LINE
8
0
10
35.396500
20
230.308000
11
35.396507
21
226.618430
0
LINE
8
0
10
34.693400
20
227.462000
11
34.693400
21
228.295000
0
LINE
8
0
10
10.028900
20
233.227000
11
10.248343
21
233.007557
0
LINE
8
0
10
8.580830
20
233.227000
11
10.028900
21
233.227000
0
LINE
8
0
10
10.248400
20
231.560000
11
10.028957
21
231.340557
0
LINE
8
0
10
10.248400
20
233.008000
11
10.248400
21
231.560000
0
LINE
8
0
10
8.580830
20
231.340000
11
8.361387
21
231.559443
0
LINE
8
0
10
10.028900
20
231.340000
11
8.580830
21
231.340000
0
LINE
8
0
10
8.361390
20
233.008000
11
8.580833
21
233.227443
0
LINE
8
0
10
8.361390
20
231.560000
11
8.361390
21
233.008000
0
LINE
8
0
10
12.482000
20
233.227000
11
12.701443
21
233.007557
0
LINE
8
0
10
11.033900
20
233.227000
11
12.482000
21
233.227000
0
LINE
8
0
10
12.701400
20
231.560000
11
12.481957
21
231.340557
0
LINE
8
0
10
12.701400
20
233.008000
11
12.701400
21
231.560000
0
LINE
8
0
10
11.033900
20
231.340000
11
10.814457
21
231.559443
0
LINE
8
0
10
12.482000
20
231.340000
11
11.033900
21
231.340000
0
LINE
8
0
10
10.814500
20
233.008000
11
11.033943
21
233.227443
0
LINE
8
0
10
10.814500
20
231.560000
11
10.814500
21
233.008000
0
LINE
8
0
10
14.935100
20
233.227000
11
15.154543
21
233.007557
0
LINE
8
0
10
13.487000
20
233.227000
11
14.935100
21
233.227000
0
LINE
8
0
10
15.154500
20
231.560000
11
14.935057
21
231.340557
0
LINE
8
0
10
15.154500
20
233.008000
11
15.154500
21
231.560000
0
LINE
8
0
10
13.487000
20
231.340000
11
13.267557
21
231.559443
0
LINE
8
0
10
14.935100
20
231.340000
11
13.487000
21
231.340000
0
LINE
8
0
10
13.267500
20
233.008000
11
13.486943
21
233.227443
0
LINE
8
0
10
13.267500
20
231.560000
11
13.267500
21
233.008000
0
LINE
8
0
10
17.388200
20
233.227000
11
17.607643
21
233.007557
0
LINE
8
0
10
15.940100
20
233.227000
11
17.388200
21
233.227000
0
LINE
8
0
10
17.607600
20
231.560000
11
17.388157
21
231.340557
0
LINE
8
0
10
17.607600
20
233.008000
11
17.607600
21
231.560000
0
LINE
8
0
10
15.940100
20
231.340000
11
15.720657
21
231.559443
0
LINE
8
0
10
17.388200
20
231.340000
11
15.940100
21
231.340000
0
LINE
8
0
10
15.720600
20
233.008000
11
15.940043
21
233.227443
0
LINE
8
0
10
15.720600
20
231.560000
11
15.720600
21
233.008000
 0 
ENDSEC
 0 
EOF